<?xml version="1.0" encoding="utf-8" standalone="no"?>
<!DOCTYPE svg PUBLIC "-//W3C//DTD SVG 1.1//EN"
  "http://www.w3.org/Graphics/SVG/1.1/DTD/svg11.dtd">
<svg xmlns:xlink="http://www.w3.org/1999/xlink" width="432pt" height="432pt" viewBox="0 0 432 432" xmlns="http://www.w3.org/2000/svg" version="1.1">
 <metadata>
  <rdf:RDF xmlns:dc="http://purl.org/dc/elements/1.1/" xmlns:cc="http://creativecommons.org/ns#" xmlns:rdf="http://www.w3.org/1999/02/22-rdf-syntax-ns#">
   <cc:Work>
    <dc:type rdf:resource="http://purl.org/dc/dcmitype/StillImage"/>
    <dc:date>2026-06-02T18:34:43.293382</dc:date>
    <dc:format>image/svg+xml</dc:format>
    <dc:creator>
     <cc:Agent>
      <dc:title>Matplotlib v3.10.8, https://matplotlib.org/</dc:title>
     </cc:Agent>
    </dc:creator>
   </cc:Work>
  </rdf:RDF>
 </metadata>
 <defs>
  <style type="text/css">*{stroke-linejoin: round; stroke-linecap: butt}</style>
 </defs>
 <g id="figure_1">
  <g id="patch_1">
   <path d="M 0 432 
L 432 432 
L 432 0 
L 0 0 
L 0 432 
z
" style="fill: none"/>
  </g>
  <g id="axes_1">
   <g id="patch_2">
    <path d="M 145.830085 222.042219 
L 21.454545 309.13091 
L 286.169915 309.13091 
L 410.545455 222.042219 
z
" clip-path="url(#p8fecd9a0ab)" style="fill: #aaaaff; opacity: 0.07"/>
   </g>
   <g id="line2d_1">
    <path d="M 216 265.586564 
L 278.18777 222.042219 
" clip-path="url(#p8fecd9a0ab)" style="fill: none; stroke-dasharray: 7,7; stroke-dashoffset: 0; stroke: #333333; stroke-opacity: 0.4; stroke-width: 1.75"/>
   </g>
   <g id="line2d_2">
    <path d="M 216 265.586564 
L 83.642315 265.586564 
" clip-path="url(#p8fecd9a0ab)" style="fill: none; stroke-dasharray: 7,7; stroke-dashoffset: 0; stroke: #333333; stroke-opacity: 0.4; stroke-width: 1.75"/>
   </g>
   <g id="patch_3">
    <path d="M 214.361194 266.734068 
Q 181.174249 289.971818 150.276903 311.606372 
" clip-path="url(#p8fecd9a0ab)" style="fill: none; stroke: #333333; stroke-width: 2.5; stroke-linecap: round"/>
    <path d="M 155.585417 310.81917 
L 150.276903 311.606372 
L 152.83225 306.88724 
z
" clip-path="url(#p8fecd9a0ab)" style="fill: #333333; stroke: #333333; stroke-width: 2.5; stroke-linecap: round"/>
   </g>
   <g id="patch_4">
    <path d="M 218.004107 265.586564 
Q 290.120462 265.586564 359.441732 265.586564 
" clip-path="url(#p8fecd9a0ab)" style="fill: none; stroke: #333333; stroke-width: 2.5; stroke-linecap: round"/>
    <path d="M 354.641732 263.186564 
L 359.441732 265.586564 
L 354.641732 267.986564 
z
" clip-path="url(#p8fecd9a0ab)" style="fill: #333333; stroke: #333333; stroke-width: 2.5; stroke-linecap: round"/>
   </g>
   <g id="patch_5">
    <path d="M 216 263.582457 
Q 216 191.466102 216 122.144832 
" clip-path="url(#p8fecd9a0ab)" style="fill: none; stroke: #333333; stroke-width: 2.5; stroke-linecap: round"/>
    <path d="M 213.6 126.944832 
L 216 122.144832 
L 218.4 126.944832 
z
" clip-path="url(#p8fecd9a0ab)" style="fill: #333333; stroke: #333333; stroke-width: 2.5; stroke-linecap: round"/>
   </g>
   <g id="line2d_3">
    <path d="M 278.18777 227.336527 
L 278.18777 216.747912 
" clip-path="url(#p8fecd9a0ab)" style="fill: none; stroke: #555555; stroke-width: 0.8; stroke-linecap: square"/>
   </g>
   <g id="line2d_4">
    <path d="M 267.823142 234.593917 
L 267.823142 224.005303 
" clip-path="url(#p8fecd9a0ab)" style="fill: none; stroke: #555555; stroke-width: 0.8; stroke-linecap: square"/>
   </g>
   <g id="line2d_5">
    <path d="M 257.458513 241.851308 
L 257.458513 231.262694 
" clip-path="url(#p8fecd9a0ab)" style="fill: none; stroke: #555555; stroke-width: 0.8; stroke-linecap: square"/>
   </g>
   <g id="line2d_6">
    <path d="M 247.093885 249.108699 
L 247.093885 238.520084 
" clip-path="url(#p8fecd9a0ab)" style="fill: none; stroke: #555555; stroke-width: 0.8; stroke-linecap: square"/>
   </g>
   <g id="line2d_7">
    <path d="M 236.729257 256.36609 
L 236.729257 245.777475 
" clip-path="url(#p8fecd9a0ab)" style="fill: none; stroke: #555555; stroke-width: 0.8; stroke-linecap: square"/>
   </g>
   <g id="line2d_8">
    <path d="M 226.364628 263.623481 
L 226.364628 253.034866 
" clip-path="url(#p8fecd9a0ab)" style="fill: none; stroke: #555555; stroke-width: 0.8; stroke-linecap: square"/>
   </g>
   <g id="line2d_9">
    <path d="M 205.635372 278.138263 
L 205.635372 267.549648 
" clip-path="url(#p8fecd9a0ab)" style="fill: none; stroke: #555555; stroke-width: 0.8; stroke-linecap: square"/>
   </g>
   <g id="line2d_10">
    <path d="M 195.270743 285.395654 
L 195.270743 274.807039 
" clip-path="url(#p8fecd9a0ab)" style="fill: none; stroke: #555555; stroke-width: 0.8; stroke-linecap: square"/>
   </g>
   <g id="line2d_11">
    <path d="M 184.906115 292.653044 
L 184.906115 282.06443 
" clip-path="url(#p8fecd9a0ab)" style="fill: none; stroke: #555555; stroke-width: 0.8; stroke-linecap: square"/>
   </g>
   <g id="line2d_12">
    <path d="M 174.541487 299.910435 
L 174.541487 289.32182 
" clip-path="url(#p8fecd9a0ab)" style="fill: none; stroke: #555555; stroke-width: 0.8; stroke-linecap: square"/>
   </g>
   <g id="line2d_13">
    <path d="M 164.176858 307.167826 
L 164.176858 296.579211 
" clip-path="url(#p8fecd9a0ab)" style="fill: none; stroke: #555555; stroke-width: 0.8; stroke-linecap: square"/>
   </g>
   <g id="line2d_14">
    <path d="M 153.81223 314.425217 
L 153.81223 303.836602 
" clip-path="url(#p8fecd9a0ab)" style="fill: none; stroke: #555555; stroke-width: 0.8; stroke-linecap: square"/>
   </g>
   <g id="line2d_15">
    <path d="M 83.642315 270.880872 
L 83.642315 260.292257 
" clip-path="url(#p8fecd9a0ab)" style="fill: none; stroke: #555555; stroke-width: 0.8; stroke-linecap: square"/>
   </g>
   <g id="line2d_16">
    <path d="M 105.701929 270.880872 
L 105.701929 260.292257 
" clip-path="url(#p8fecd9a0ab)" style="fill: none; stroke: #555555; stroke-width: 0.8; stroke-linecap: square"/>
   </g>
   <g id="line2d_17">
    <path d="M 127.761544 270.880872 
L 127.761544 260.292257 
" clip-path="url(#p8fecd9a0ab)" style="fill: none; stroke: #555555; stroke-width: 0.8; stroke-linecap: square"/>
   </g>
   <g id="line2d_18">
    <path d="M 149.821158 270.880872 
L 149.821158 260.292257 
" clip-path="url(#p8fecd9a0ab)" style="fill: none; stroke: #555555; stroke-width: 0.8; stroke-linecap: square"/>
   </g>
   <g id="line2d_19">
    <path d="M 171.880772 270.880872 
L 171.880772 260.292257 
" clip-path="url(#p8fecd9a0ab)" style="fill: none; stroke: #555555; stroke-width: 0.8; stroke-linecap: square"/>
   </g>
   <g id="line2d_20">
    <path d="M 193.940386 270.880872 
L 193.940386 260.292257 
" clip-path="url(#p8fecd9a0ab)" style="fill: none; stroke: #555555; stroke-width: 0.8; stroke-linecap: square"/>
   </g>
   <g id="line2d_21">
    <path d="M 238.059614 270.880872 
L 238.059614 260.292257 
" clip-path="url(#p8fecd9a0ab)" style="fill: none; stroke: #555555; stroke-width: 0.8; stroke-linecap: square"/>
   </g>
   <g id="line2d_22">
    <path d="M 260.119228 270.880872 
L 260.119228 260.292257 
" clip-path="url(#p8fecd9a0ab)" style="fill: none; stroke: #555555; stroke-width: 0.8; stroke-linecap: square"/>
   </g>
   <g id="line2d_23">
    <path d="M 282.178842 270.880872 
L 282.178842 260.292257 
" clip-path="url(#p8fecd9a0ab)" style="fill: none; stroke: #555555; stroke-width: 0.8; stroke-linecap: square"/>
   </g>
   <g id="line2d_24">
    <path d="M 304.238456 270.880872 
L 304.238456 260.292257 
" clip-path="url(#p8fecd9a0ab)" style="fill: none; stroke: #555555; stroke-width: 0.8; stroke-linecap: square"/>
   </g>
   <g id="line2d_25">
    <path d="M 326.298071 270.880872 
L 326.298071 260.292257 
" clip-path="url(#p8fecd9a0ab)" style="fill: none; stroke: #555555; stroke-width: 0.8; stroke-linecap: square"/>
   </g>
   <g id="line2d_26">
    <path d="M 348.357685 270.880872 
L 348.357685 260.292257 
" clip-path="url(#p8fecd9a0ab)" style="fill: none; stroke: #555555; stroke-width: 0.8; stroke-linecap: square"/>
   </g>
   <g id="line2d_27">
    <path d="M 210.705693 243.52695 
L 221.294307 243.52695 
" clip-path="url(#p8fecd9a0ab)" style="fill: none; stroke: #555555; stroke-width: 0.8; stroke-linecap: square"/>
   </g>
   <g id="line2d_28">
    <path d="M 210.705693 221.467336 
L 221.294307 221.467336 
" clip-path="url(#p8fecd9a0ab)" style="fill: none; stroke: #555555; stroke-width: 0.8; stroke-linecap: square"/>
   </g>
   <g id="line2d_29">
    <path d="M 210.705693 199.407722 
L 221.294307 199.407722 
" clip-path="url(#p8fecd9a0ab)" style="fill: none; stroke: #555555; stroke-width: 0.8; stroke-linecap: square"/>
   </g>
   <g id="line2d_30">
    <path d="M 210.705693 177.348108 
L 221.294307 177.348108 
" clip-path="url(#p8fecd9a0ab)" style="fill: none; stroke: #555555; stroke-width: 0.8; stroke-linecap: square"/>
   </g>
   <g id="line2d_31">
    <path d="M 210.705693 155.288494 
L 221.294307 155.288494 
" clip-path="url(#p8fecd9a0ab)" style="fill: none; stroke: #555555; stroke-width: 0.8; stroke-linecap: square"/>
   </g>
   <g id="line2d_32">
    <path d="M 210.705693 133.22888 
L 221.294307 133.22888 
" clip-path="url(#p8fecd9a0ab)" style="fill: none; stroke: #555555; stroke-width: 0.8; stroke-linecap: square"/>
   </g>
   <g id="text_1">
    <!-- $x$ -->
    <g style="fill: #333333" transform="translate(136.122903 321.347265) scale(0.17 -0.17)">
     <defs>
      <path id="CMMI12-78" d="M 3034 2606 
C 2829 2567 2752 2414 2752 2293 
C 2752 2139 2874 2088 2963 2088 
C 3155 2088 3290 2254 3290 2427 
C 3290 2695 2982 2816 2714 2816 
C 2323 2816 2106 2433 2048 2312 
C 1901 2816 1504 2816 1389 2816 
C 736 2816 390 1980 390 1839 
C 390 1814 416 1782 461 1782 
C 512 1782 525 1820 538 1846 
C 755 2555 1184 2689 1370 2689 
C 1658 2689 1715 2420 1715 2267 
C 1715 2127 1677 1980 1600 1673 
L 1382 798 
C 1286 415 1101 64 762 64 
C 730 64 570 64 435 147 
C 666 192 717 383 717 460 
C 717 588 621 664 499 664 
C 346 664 179 530 179 326 
C 179 57 480 -64 755 -64 
C 1062 -64 1280 179 1414 441 
C 1517 64 1837 -64 2074 -64 
C 2726 -64 3072 773 3072 913 
C 3072 945 3046 971 3008 971 
C 2950 971 2944 939 2925 888 
C 2752 326 2381 64 2093 64 
C 1869 64 1747 230 1747 492 
C 1747 632 1773 734 1875 1156 
L 2099 2024 
C 2195 2408 2413 2689 2707 2689 
C 2720 2689 2899 2689 3034 2606 
z
" transform="scale(0.015625)"/>
     </defs>
     <use xlink:href="#CMMI12-78" transform="scale(0.996264)"/>
    </g>
   </g>
   <g id="text_2">
    <!-- $y$ -->
    <g style="fill: #333333" transform="translate(365.712558 269.820147) scale(0.17 -0.17)">
     <defs>
      <path id="CMMI12-79" d="M 1683 -700 
C 1510 -939 1261 -1152 947 -1152 
C 870 -1152 563 -1152 467 -889 
C 486 -895 518 -895 531 -895 
C 723 -895 851 -729 851 -582 
C 851 -435 730 -384 634 -384 
C 531 -384 307 -458 307 -759 
C 307 -1071 582 -1286 947 -1286 
C 1587 -1286 2234 -700 2413 6 
L 3040 2485 
C 3046 2517 3059 2556 3059 2594 
C 3059 2689 2982 2753 2886 2753 
C 2829 2753 2694 2727 2643 2535 
L 2170 658 
C 2138 543 2138 530 2086 460 
C 1958 281 1747 64 1440 64 
C 1082 64 1050 415 1050 588 
C 1050 952 1222 1443 1395 1903 
C 1466 2088 1504 2178 1504 2305 
C 1504 2574 1312 2816 998 2816 
C 410 2816 173 1890 173 1839 
C 173 1814 198 1782 243 1782 
C 301 1782 307 1807 333 1897 
C 486 2433 730 2689 979 2689 
C 1037 2689 1146 2689 1146 2478 
C 1146 2312 1075 2127 979 1884 
C 666 1047 666 837 666 683 
C 666 77 1101 -64 1421 -64 
C 1606 -64 1837 -6 2061 230 
L 2067 224 
C 1971 -147 1907 -392 1683 -700 
z
" transform="scale(0.015625)"/>
     </defs>
     <use xlink:href="#CMMI12-79" transform="scale(0.996264)"/>
    </g>
   </g>
   <g id="text_3">
    <!-- $z$ -->
    <g style="fill: #333333" transform="translate(212.148165 116.064636) scale(0.17 -0.17)">
     <defs>
      <path id="CMMI12-7a" d="M 813 486 
C 1088 803 1312 1004 1632 1296 
C 2016 1632 2182 1793 2272 1891 
C 2720 2338 2944 2713 2944 2764 
C 2944 2816 2893 2816 2880 2816 
C 2835 2816 2822 2793 2790 2750 
C 2630 2494 2477 2367 2310 2367 
C 2176 2367 2106 2421 1984 2565 
C 1850 2715 1741 2816 1555 2816 
C 1088 2816 806 2257 806 2128 
C 806 2108 813 2068 870 2068 
C 922 2068 928 2091 947 2133 
C 1056 2372 1363 2414 1485 2414 
C 1619 2414 1747 2376 1882 2327 
C 2125 2240 2227 2240 2291 2240 
C 2336 2240 2362 2240 2394 2246 
C 2182 1994 1837 1683 1549 1418 
L 902 816 
C 512 415 275 33 275 -12 
C 275 -51 307 -64 346 -64 
C 384 -64 390 -57 435 14 
C 538 163 742 384 979 384 
C 1114 384 1178 342 1306 193 
C 1427 61 1536 -64 1741 -64 
C 2368 -64 2726 732 2726 876 
C 2726 903 2720 942 2656 942 
C 2605 942 2598 917 2579 855 
C 2438 488 2061 338 1811 338 
C 1677 338 1549 376 1414 425 
C 1158 512 1088 512 1005 512 
C 941 512 870 512 813 486 
z
" transform="scale(0.015625)"/>
     </defs>
     <use xlink:href="#CMMI12-7a" transform="scale(0.996264)"/>
    </g>
   </g>
   <g id="line2d_33">
    <defs>
     <path id="m77def98db5" d="M 0 1.5 
C 0.397805 1.5 0.77937 1.341951 1.06066 1.06066 
C 1.341951 0.77937 1.5 0.397805 1.5 0 
C 1.5 -0.397805 1.341951 -0.77937 1.06066 -1.06066 
C 0.77937 -1.341951 0.397805 -1.5 0 -1.5 
C -0.397805 -1.5 -0.77937 -1.341951 -1.06066 -1.06066 
C -1.341951 -0.77937 -1.5 -0.397805 -1.5 0 
C -1.5 0.397805 -1.341951 0.77937 -1.06066 1.06066 
C -0.77937 1.341951 -0.397805 1.5 0 1.5 
z
" style="stroke: #333333"/>
    </defs>
    <g clip-path="url(#p8fecd9a0ab)">
     <use xlink:href="#m77def98db5" x="216" y="265.586564" style="fill: #333333; stroke: #333333"/>
    </g>
   </g>
   <g id="text_4">
    <!-- -6 -->
    <g style="fill: #555555" transform="translate(281.364354 224.781945) scale(0.11 -0.11)">
     <defs>
      <path id="CMSS17-2d" d="M 1664 1216 
L 1664 1585 
L 64 1585 
L 64 1216 
L 1664 1216 
z
" transform="scale(0.015625)"/>
      <path id="CMSS17-36" d="M 2496 4101 
C 2227 4210 2035 4229 1856 4229 
C 1024 4229 250 3368 250 2006 
C 250 265 986 -128 1510 -128 
C 1798 -128 2086 -39 2362 280 
C 2643 617 2752 898 2752 1389 
C 2752 2179 2362 2880 1779 2880 
C 1357 2880 992 2657 768 2376 
C 832 3258 1254 3840 1862 3840 
C 2029 3840 2246 3816 2496 3710 
L 2496 4101 
z
M 774 1369 
C 774 1420 774 1452 781 1548 
C 781 2045 1069 2491 1536 2491 
C 1837 2491 1990 2332 2106 2135 
C 2240 1886 2246 1650 2246 1388 
C 2246 1140 2246 891 2099 637 
C 1978 439 1818 267 1510 267 
C 902 267 800 1114 774 1369 
z
" transform="scale(0.015625)"/>
     </defs>
     <use xlink:href="#CMSS17-2d" transform="scale(0.996264)"/>
     <use xlink:href="#CMSS17-36" transform="translate(31.229113 0) scale(0.996264)"/>
    </g>
   </g>
   <g id="text_5">
    <!-- -5 -->
    <g style="fill: #555555" transform="translate(270.999726 232.039336) scale(0.11 -0.11)">
     <defs>
      <path id="CMSS17-35" d="M 934 3752 
L 2502 3752 
L 2502 4160 
L 467 4160 
L 467 1781 
L 896 1781 
C 1011 2046 1248 2240 1555 2240 
C 1843 2240 2163 1989 2163 1266 
C 2163 493 1709 267 1376 267 
C 966 267 589 512 422 851 
L 218 499 
C 512 49 992 -128 1376 -128 
C 2118 -128 2701 497 2701 1253 
C 2701 2030 2182 2629 1562 2629 
C 1338 2629 1120 2553 934 2399 
L 934 3752 
z
" transform="scale(0.015625)"/>
     </defs>
     <use xlink:href="#CMSS17-2d" transform="scale(0.996264)"/>
     <use xlink:href="#CMSS17-35" transform="translate(31.229113 0) scale(0.996264)"/>
    </g>
   </g>
   <g id="text_6">
    <!-- -4 -->
    <g style="fill: #555555" transform="translate(260.635098 239.296727) scale(0.11 -0.11)">
     <defs>
      <path id="CMSS17-34" d="M 2253 1088 
L 2835 1088 
L 2835 1477 
L 2253 1477 
L 2253 4192 
L 1690 4192 
L 166 1477 
L 166 1088 
L 1747 1088 
L 1747 0 
L 2253 0 
L 2253 1088 
z
M 659 1477 
C 1030 2127 1766 3439 1766 3885 
L 1766 1477 
L 659 1477 
z
" transform="scale(0.015625)"/>
     </defs>
     <use xlink:href="#CMSS17-2d" transform="scale(0.996264)"/>
     <use xlink:href="#CMSS17-34" transform="translate(31.229113 0) scale(0.996264)"/>
    </g>
   </g>
   <g id="text_7">
    <!-- -3 -->
    <g style="fill: #555555" transform="translate(250.270469 246.554118) scale(0.11 -0.11)">
     <defs>
      <path id="CMSS17-33" d="M 1005 2025 
L 1440 2025 
C 2042 2025 2214 1507 2214 1146 
C 2214 653 1933 267 1472 267 
C 1114 267 608 444 320 912 
C 275 691 275 678 250 526 
C 550 88 1037 -128 1485 -128 
C 2214 -128 2752 473 2752 1138 
C 2752 1638 2400 2057 1920 2215 
C 2304 2424 2586 2816 2586 3273 
C 2586 3805 2093 4229 1491 4229 
C 941 4229 512 3892 333 3530 
C 378 3468 493 3284 550 3189 
C 691 3562 1056 3840 1485 3840 
C 1843 3840 2080 3607 2080 3271 
C 2080 2923 1856 2543 1478 2455 
C 1453 2455 1056 2417 1005 2411 
L 1005 2025 
z
" transform="scale(0.015625)"/>
     </defs>
     <use xlink:href="#CMSS17-2d" transform="scale(0.996264)"/>
     <use xlink:href="#CMSS17-33" transform="translate(31.229113 0) scale(0.996264)"/>
    </g>
   </g>
   <g id="text_8">
    <!-- -2 -->
    <g style="fill: #555555" transform="translate(239.905841 253.811509) scale(0.11 -0.11)">
     <defs>
      <path id="CMSS17-32" d="M 1651 1357 
C 1830 1541 2099 1764 2285 1987 
C 2464 2204 2701 2511 2701 2957 
C 2701 3657 2227 4288 1421 4288 
C 787 4288 422 3893 250 3274 
L 499 2929 
C 640 3510 838 3880 1338 3880 
C 1888 3880 2195 3433 2195 2942 
C 2195 2355 1747 1901 1408 1563 
C 1030 1187 659 804 301 408 
L 301 0 
L 2701 0 
L 2701 433 
L 1613 433 
C 1536 433 1459 433 1382 433 
L 742 433 
L 742 439 
L 1651 1357 
z
" transform="scale(0.015625)"/>
     </defs>
     <use xlink:href="#CMSS17-2d" transform="scale(0.996264)"/>
     <use xlink:href="#CMSS17-32" transform="translate(31.229113 0) scale(0.996264)"/>
    </g>
   </g>
   <g id="text_9">
    <!-- -1 -->
    <g style="fill: #555555" transform="translate(229.541213 261.0689) scale(0.11 -0.11)">
     <defs>
      <path id="CMSS17-31" d="M 1818 4288 
L 1696 4288 
C 1350 3940 947 3890 538 3890 
L 538 3520 
C 723 3520 1024 3520 1325 3667 
L 1325 369 
L 570 369 
L 570 0 
L 2573 0 
L 2573 369 
L 1818 369 
L 1818 4288 
z
" transform="scale(0.015625)"/>
     </defs>
     <use xlink:href="#CMSS17-2d" transform="scale(0.996264)"/>
     <use xlink:href="#CMSS17-31" transform="translate(31.229113 0) scale(0.996264)"/>
    </g>
   </g>
   <g id="text_10">
    <!-- 1 -->
    <g style="fill: #555555" transform="translate(196.97932 275.583681) scale(0.11 -0.11)">
     <use xlink:href="#CMSS17-31" transform="scale(0.996264)"/>
    </g>
   </g>
   <g id="text_11">
    <!-- 2 -->
    <g style="fill: #555555" transform="translate(186.614692 282.841072) scale(0.11 -0.11)">
     <use xlink:href="#CMSS17-32" transform="scale(0.996264)"/>
    </g>
   </g>
   <g id="text_12">
    <!-- 3 -->
    <g style="fill: #555555" transform="translate(176.250063 290.098463) scale(0.11 -0.11)">
     <use xlink:href="#CMSS17-33" transform="scale(0.996264)"/>
    </g>
   </g>
   <g id="text_13">
    <!-- 4 -->
    <g style="fill: #555555" transform="translate(165.885435 297.355854) scale(0.11 -0.11)">
     <use xlink:href="#CMSS17-34" transform="scale(0.996264)"/>
    </g>
   </g>
   <g id="text_14">
    <!-- 5 -->
    <g style="fill: #555555" transform="translate(155.520807 304.613245) scale(0.11 -0.11)">
     <use xlink:href="#CMSS17-35" transform="scale(0.996264)"/>
    </g>
   </g>
   <g id="text_15">
    <!-- 6 -->
    <g style="fill: #555555" transform="translate(145.156178 311.870636) scale(0.11 -0.11)">
     <use xlink:href="#CMSS17-36" transform="scale(0.996264)"/>
    </g>
   </g>
   <g id="text_16">
    <!-- -6 -->
    <g style="fill: #555555" transform="translate(79.076095 277.432357) scale(0.11 -0.11)">
     <use xlink:href="#CMSS17-2d" transform="scale(0.996264)"/>
     <use xlink:href="#CMSS17-36" transform="translate(31.229113 0) scale(0.996264)"/>
    </g>
   </g>
   <g id="text_17">
    <!-- -5 -->
    <g style="fill: #555555" transform="translate(101.135709 277.432357) scale(0.11 -0.11)">
     <use xlink:href="#CMSS17-2d" transform="scale(0.996264)"/>
     <use xlink:href="#CMSS17-35" transform="translate(31.229113 0) scale(0.996264)"/>
    </g>
   </g>
   <g id="text_18">
    <!-- -4 -->
    <g style="fill: #555555" transform="translate(123.195323 277.432357) scale(0.11 -0.11)">
     <use xlink:href="#CMSS17-2d" transform="scale(0.996264)"/>
     <use xlink:href="#CMSS17-34" transform="translate(31.229113 0) scale(0.996264)"/>
    </g>
   </g>
   <g id="text_19">
    <!-- -3 -->
    <g style="fill: #555555" transform="translate(145.254937 277.432357) scale(0.11 -0.11)">
     <use xlink:href="#CMSS17-2d" transform="scale(0.996264)"/>
     <use xlink:href="#CMSS17-33" transform="translate(31.229113 0) scale(0.996264)"/>
    </g>
   </g>
   <g id="text_20">
    <!-- -2 -->
    <g style="fill: #555555" transform="translate(167.314552 277.432357) scale(0.11 -0.11)">
     <use xlink:href="#CMSS17-2d" transform="scale(0.996264)"/>
     <use xlink:href="#CMSS17-32" transform="translate(31.229113 0) scale(0.996264)"/>
    </g>
   </g>
   <g id="text_21">
    <!-- -1 -->
    <g style="fill: #555555" transform="translate(189.374166 277.432357) scale(0.11 -0.11)">
     <use xlink:href="#CMSS17-2d" transform="scale(0.996264)"/>
     <use xlink:href="#CMSS17-31" transform="translate(31.229113 0) scale(0.996264)"/>
    </g>
   </g>
   <g id="text_22">
    <!-- 1 -->
    <g style="fill: #555555" transform="translate(235.31988 277.432357) scale(0.11 -0.11)">
     <use xlink:href="#CMSS17-31" transform="scale(0.996264)"/>
    </g>
   </g>
   <g id="text_23">
    <!-- 2 -->
    <g style="fill: #555555" transform="translate(257.379495 277.432357) scale(0.11 -0.11)">
     <use xlink:href="#CMSS17-32" transform="scale(0.996264)"/>
    </g>
   </g>
   <g id="text_24">
    <!-- 3 -->
    <g style="fill: #555555" transform="translate(279.439109 277.432357) scale(0.11 -0.11)">
     <use xlink:href="#CMSS17-33" transform="scale(0.996264)"/>
    </g>
   </g>
   <g id="text_25">
    <!-- 4 -->
    <g style="fill: #555555" transform="translate(301.498723 277.432357) scale(0.11 -0.11)">
     <use xlink:href="#CMSS17-34" transform="scale(0.996264)"/>
    </g>
   </g>
   <g id="text_26">
    <!-- 5 -->
    <g style="fill: #555555" transform="translate(323.558337 277.432357) scale(0.11 -0.11)">
     <use xlink:href="#CMSS17-35" transform="scale(0.996264)"/>
    </g>
   </g>
   <g id="text_27">
    <!-- 6 -->
    <g style="fill: #555555" transform="translate(345.617951 277.432357) scale(0.11 -0.11)">
     <use xlink:href="#CMSS17-36" transform="scale(0.996264)"/>
    </g>
   </g>
   <g id="text_28">
    <!-- 1 -->
    <g style="fill: #555555" transform="translate(204.123245 246.266676) scale(0.11 -0.11)">
     <use xlink:href="#CMSS17-31" transform="scale(0.996264)"/>
    </g>
   </g>
   <g id="text_29">
    <!-- 2 -->
    <g style="fill: #555555" transform="translate(204.123245 224.207062) scale(0.11 -0.11)">
     <use xlink:href="#CMSS17-32" transform="scale(0.996264)"/>
    </g>
   </g>
   <g id="text_30">
    <!-- 3 -->
    <g style="fill: #555555" transform="translate(204.123245 202.147448) scale(0.11 -0.11)">
     <use xlink:href="#CMSS17-33" transform="scale(0.996264)"/>
    </g>
   </g>
   <g id="text_31">
    <!-- 4 -->
    <g style="fill: #555555" transform="translate(204.123245 180.087834) scale(0.11 -0.11)">
     <use xlink:href="#CMSS17-34" transform="scale(0.996264)"/>
    </g>
   </g>
   <g id="text_32">
    <!-- 5 -->
    <g style="fill: #555555" transform="translate(204.123245 158.02822) scale(0.11 -0.11)">
     <use xlink:href="#CMSS17-35" transform="scale(0.996264)"/>
    </g>
   </g>
   <g id="text_33">
    <!-- 6 -->
    <g style="fill: #555555" transform="translate(204.123245 135.968606) scale(0.11 -0.11)">
     <use xlink:href="#CMSS17-36" transform="scale(0.996264)"/>
    </g>
   </g>
   <g id="line2d_34">
    <path d="M 216 265.586564 
L 216 265.586564 
L 262.779943 206.377671 
" clip-path="url(#p8fecd9a0ab)" style="fill: none; stroke: #7f7f7f; stroke-width: 2.5; stroke-linecap: round"/>
   </g>
   <g id="line2d_35">
    <path d="M 205.635372 272.843955 
L 206.188555 272.8417 
L 206.747837 272.834934 
L 207.31287 272.823662 
L 207.883304 272.807892 
L 208.458784 272.787632 
L 209.038951 272.762896 
L 209.623445 272.733699 
L 210.211904 272.700059 
L 210.803961 272.661997 
L 211.399247 272.619537 
L 211.997394 272.572705 
L 212.598028 272.52153 
L 213.200778 272.466044 
L 213.805268 272.406281 
L 214.411122 272.342279 
L 215.017963 272.274077 
L 215.625415 272.201719 
L 216.2331 272.125248 
L 216.840641 272.044712 
L 217.447658 271.960162 
L 218.053776 271.871649 
L 218.658617 271.77923 
L 219.261805 271.682961 
L 219.862965 271.582902 
L 220.461725 271.479116 
L 221.05771 271.371667 
L 221.650552 271.260621 
L 222.239881 271.146048 
L 222.825331 271.02802 
L 223.406538 270.906608 
L 223.983141 270.78189 
L 224.554781 270.653942 
L 225.121104 270.522844 
L 225.681756 270.388677 
L 226.23639 270.251525 
L 226.784661 270.111474 
L 227.326227 269.968609 
L 227.860753 269.82302 
L 228.387906 269.674798 
L 228.907357 269.524035 
L 229.418786 269.370823 
L 229.921872 269.21526 
L 230.416304 269.05744 
L 230.901775 268.897463 
L 231.377982 268.735428 
L 231.844629 268.571436 
L 232.301427 268.405588 
L 232.748092 268.237987 
L 233.184345 268.068738 
L 233.609916 267.897947 
L 234.02454 267.725718 
L 234.427959 267.55216 
L 234.819922 267.377379 
L 235.200187 267.201486 
L 235.568516 267.024588 
L 235.92468 266.846797 
L 236.268459 266.668222 
L 236.599638 266.488975 
L 236.918011 266.309167 
L 237.223381 266.12891 
L 237.515558 265.948315 
L 237.79436 265.767496 
L 238.059614 265.586564 
" clip-path="url(#p8fecd9a0ab)" style="fill: none; stroke: #ff7f0e; stroke-width: 2.5; stroke-linecap: square"/>
   </g>
   <g id="patch_6">
    <path d="M 216 265.586564 
Q 195.270743 280.101346 176.831086 293.012933 
" style="fill: none; stroke: #1f77b4; stroke-width: 2.5; stroke-linecap: round"/>
    <path d="M 182.1396 292.225731 
L 176.831086 293.012933 
L 179.386433 288.293801 
z
" style="fill: #1f77b4; stroke: #1f77b4; stroke-width: 2.5; stroke-linecap: round"/>
   </g>
   <g id="patch_7">
    <path d="M 216 265.586564 
Q 260.119228 265.586564 301.443372 265.586564 
" style="fill: none; stroke: #d62728; stroke-width: 2.5; stroke-linecap: round"/>
    <path d="M 296.643372 263.186564 
L 301.443372 265.586564 
L 296.643372 267.986564 
z
" style="fill: #d62728; stroke: #d62728; stroke-width: 2.5; stroke-linecap: round"/>
   </g>
   <g id="patch_8">
    <path d="M 216 265.586564 
Q 216 221.467336 216 180.143193 
" style="fill: none; stroke: #2ca02c; stroke-width: 2.5; stroke-linecap: round"/>
    <path d="M 213.6 184.943193 
L 216 180.143193 
L 218.4 184.943193 
z
" style="fill: #2ca02c; stroke: #2ca02c; stroke-width: 2.5; stroke-linecap: round"/>
   </g>
   <g id="line2d_36">
    <defs>
     <path id="m9022d4803d" d="M 0 2.5 
C 0.663008 2.5 1.29895 2.236584 1.767767 1.767767 
C 2.236584 1.29895 2.5 0.663008 2.5 0 
C 2.5 -0.663008 2.236584 -1.29895 1.767767 -1.767767 
C 1.29895 -2.236584 0.663008 -2.5 0 -2.5 
C -0.663008 -2.5 -1.29895 -2.236584 -1.767767 -1.767767 
C -2.236584 -1.29895 -2.5 -0.663008 -2.5 0 
C -2.5 0.663008 -2.236584 1.29895 -1.767767 1.767767 
C -1.29895 2.236584 -0.663008 2.5 0 2.5 
z
" style="stroke: #9467bd"/>
    </defs>
    <g clip-path="url(#p8fecd9a0ab)">
     <use xlink:href="#m9022d4803d" x="262.779943" y="206.377671" style="fill: #9467bd; stroke: #9467bd"/>
    </g>
   </g>
  </g>
 </g>
 <defs>
  <clipPath id="p8fecd9a0ab">
   <rect x="2" y="107.732261" width="428" height="216.535477"/>
  </clipPath>
 </defs>
</svg>
