<?xml version="1.0" encoding="utf-8" standalone="no"?>
<!DOCTYPE svg PUBLIC "-//W3C//DTD SVG 1.1//EN"
  "http://www.w3.org/Graphics/SVG/1.1/DTD/svg11.dtd">
<svg xmlns:xlink="http://www.w3.org/1999/xlink" width="432pt" height="432pt" viewBox="0 0 432 432" xmlns="http://www.w3.org/2000/svg" version="1.1">
 <metadata>
  <rdf:RDF xmlns:dc="http://purl.org/dc/elements/1.1/" xmlns:cc="http://creativecommons.org/ns#" xmlns:rdf="http://www.w3.org/1999/02/22-rdf-syntax-ns#">
   <cc:Work>
    <dc:type rdf:resource="http://purl.org/dc/dcmitype/StillImage"/>
    <dc:date>2026-06-02T18:34:43.129546</dc:date>
    <dc:format>image/svg+xml</dc:format>
    <dc:creator>
     <cc:Agent>
      <dc:title>Matplotlib v3.10.8, https://matplotlib.org/</dc:title>
     </cc:Agent>
    </dc:creator>
   </cc:Work>
  </rdf:RDF>
 </metadata>
 <defs>
  <style type="text/css">*{stroke-linejoin: round; stroke-linecap: butt}</style>
 </defs>
 <g id="figure_1">
  <g id="patch_1">
   <path d="M 0 432 
L 432 432 
L 432 0 
L 0 0 
L 0 432 
z
" style="fill: none"/>
  </g>
  <g id="axes_1">
   <g id="line2d_1">
    <path d="M 205.651096 296.271184 
L 327.494447 194.032473 
" clip-path="url(#p22e9c08f95)" style="fill: none; stroke-dasharray: 7,7; stroke-dashoffset: 0; stroke: #333333; stroke-opacity: 0.4; stroke-width: 1.75"/>
   </g>
   <g id="line2d_2">
    <path d="M 205.651096 296.271184 
L 30.153102 296.271184 
" clip-path="url(#p22e9c08f95)" style="fill: none; stroke-dasharray: 7,7; stroke-dashoffset: 0; stroke: #333333; stroke-opacity: 0.4; stroke-width: 1.75"/>
   </g>
   <g id="patch_2">
    <path d="M 204.120618 297.555408 
Q 137.420532 353.523426 72.861605 407.694797 
" clip-path="url(#p22e9c08f95)" style="fill: none; stroke: #333333; stroke-width: 2.5; stroke-linecap: round"/>
    <path d="M 78.081309 406.447923 
L 72.861605 407.694797 
L 74.995929 402.77091 
z
" clip-path="url(#p22e9c08f95)" style="fill: #333333; stroke: #333333; stroke-width: 2.5; stroke-linecap: round"/>
   </g>
   <g id="patch_3">
    <path d="M 207.651585 296.271184 
Q 303.931247 296.271184 397.415824 296.271184 
" clip-path="url(#p22e9c08f95)" style="fill: none; stroke: #333333; stroke-width: 2.5; stroke-linecap: round"/>
    <path d="M 392.615824 293.871184 
L 397.415824 296.271184 
L 392.615824 298.671184 
z
" clip-path="url(#p22e9c08f95)" style="fill: #333333; stroke: #333333; stroke-width: 2.5; stroke-linecap: round"/>
   </g>
   <g id="patch_4">
    <path d="M 205.651096 294.268296 
Q 205.651096 158.677636 205.651096 25.882061 
" clip-path="url(#p22e9c08f95)" style="fill: none; stroke: #333333; stroke-width: 2.5; stroke-linecap: round"/>
    <path d="M 203.251096 30.682061 
L 205.651096 25.882061 
L 208.051096 30.682061 
z
" clip-path="url(#p22e9c08f95)" style="fill: #333333; stroke: #333333; stroke-width: 2.5; stroke-linecap: round"/>
   </g>
   <g id="line2d_3">
    <path d="M 327.494447 201.052393 
L 327.494447 187.012553 
" clip-path="url(#p22e9c08f95)" style="fill: none; stroke: #555555; stroke-width: 0.8; stroke-linecap: square"/>
   </g>
   <g id="line2d_4">
    <path d="M 303.125777 221.500135 
L 303.125777 207.460296 
" clip-path="url(#p22e9c08f95)" style="fill: none; stroke: #555555; stroke-width: 0.8; stroke-linecap: square"/>
   </g>
   <g id="line2d_5">
    <path d="M 278.757107 241.947877 
L 278.757107 227.908038 
" clip-path="url(#p22e9c08f95)" style="fill: none; stroke: #555555; stroke-width: 0.8; stroke-linecap: square"/>
   </g>
   <g id="line2d_6">
    <path d="M 254.388437 262.39562 
L 254.388437 248.35578 
" clip-path="url(#p22e9c08f95)" style="fill: none; stroke: #555555; stroke-width: 0.8; stroke-linecap: square"/>
   </g>
   <g id="line2d_7">
    <path d="M 230.019766 282.843362 
L 230.019766 268.803522 
" clip-path="url(#p22e9c08f95)" style="fill: none; stroke: #555555; stroke-width: 0.8; stroke-linecap: square"/>
   </g>
   <g id="line2d_8">
    <path d="M 181.282426 323.738846 
L 181.282426 309.699007 
" clip-path="url(#p22e9c08f95)" style="fill: none; stroke: #555555; stroke-width: 0.8; stroke-linecap: square"/>
   </g>
   <g id="line2d_9">
    <path d="M 156.913756 344.186588 
L 156.913756 330.146749 
" clip-path="url(#p22e9c08f95)" style="fill: none; stroke: #555555; stroke-width: 0.8; stroke-linecap: square"/>
   </g>
   <g id="line2d_10">
    <path d="M 132.545085 364.634331 
L 132.545085 350.594491 
" clip-path="url(#p22e9c08f95)" style="fill: none; stroke: #555555; stroke-width: 0.8; stroke-linecap: square"/>
   </g>
   <g id="line2d_11">
    <path d="M 108.176415 385.082073 
L 108.176415 371.042233 
" clip-path="url(#p22e9c08f95)" style="fill: none; stroke: #555555; stroke-width: 0.8; stroke-linecap: square"/>
   </g>
   <g id="line2d_12">
    <path d="M 83.807745 405.529815 
L 83.807745 391.489975 
" clip-path="url(#p22e9c08f95)" style="fill: none; stroke: #555555; stroke-width: 0.8; stroke-linecap: square"/>
   </g>
   <g id="line2d_13">
    <path d="M 30.153102 303.291104 
L 30.153102 289.251264 
" clip-path="url(#p22e9c08f95)" style="fill: none; stroke: #555555; stroke-width: 0.8; stroke-linecap: square"/>
   </g>
   <g id="line2d_14">
    <path d="M 65.252701 303.291104 
L 65.252701 289.251264 
" clip-path="url(#p22e9c08f95)" style="fill: none; stroke: #555555; stroke-width: 0.8; stroke-linecap: square"/>
   </g>
   <g id="line2d_15">
    <path d="M 100.3523 303.291104 
L 100.3523 289.251264 
" clip-path="url(#p22e9c08f95)" style="fill: none; stroke: #555555; stroke-width: 0.8; stroke-linecap: square"/>
   </g>
   <g id="line2d_16">
    <path d="M 135.451899 303.291104 
L 135.451899 289.251264 
" clip-path="url(#p22e9c08f95)" style="fill: none; stroke: #555555; stroke-width: 0.8; stroke-linecap: square"/>
   </g>
   <g id="line2d_17">
    <path d="M 170.551497 303.291104 
L 170.551497 289.251264 
" clip-path="url(#p22e9c08f95)" style="fill: none; stroke: #555555; stroke-width: 0.8; stroke-linecap: square"/>
   </g>
   <g id="line2d_18">
    <path d="M 240.750695 303.291104 
L 240.750695 289.251264 
" clip-path="url(#p22e9c08f95)" style="fill: none; stroke: #555555; stroke-width: 0.8; stroke-linecap: square"/>
   </g>
   <g id="line2d_19">
    <path d="M 275.850294 303.291104 
L 275.850294 289.251264 
" clip-path="url(#p22e9c08f95)" style="fill: none; stroke: #555555; stroke-width: 0.8; stroke-linecap: square"/>
   </g>
   <g id="line2d_20">
    <path d="M 310.949893 303.291104 
L 310.949893 289.251264 
" clip-path="url(#p22e9c08f95)" style="fill: none; stroke: #555555; stroke-width: 0.8; stroke-linecap: square"/>
   </g>
   <g id="line2d_21">
    <path d="M 346.049492 303.291104 
L 346.049492 289.251264 
" clip-path="url(#p22e9c08f95)" style="fill: none; stroke: #555555; stroke-width: 0.8; stroke-linecap: square"/>
   </g>
   <g id="line2d_22">
    <path d="M 381.14909 303.291104 
L 381.14909 289.251264 
" clip-path="url(#p22e9c08f95)" style="fill: none; stroke: #555555; stroke-width: 0.8; stroke-linecap: square"/>
   </g>
   <g id="line2d_23">
    <path d="M 198.631176 261.171585 
L 212.671016 261.171585 
" clip-path="url(#p22e9c08f95)" style="fill: none; stroke: #555555; stroke-width: 0.8; stroke-linecap: square"/>
   </g>
   <g id="line2d_24">
    <path d="M 198.631176 226.071986 
L 212.671016 226.071986 
" clip-path="url(#p22e9c08f95)" style="fill: none; stroke: #555555; stroke-width: 0.8; stroke-linecap: square"/>
   </g>
   <g id="line2d_25">
    <path d="M 198.631176 190.972388 
L 212.671016 190.972388 
" clip-path="url(#p22e9c08f95)" style="fill: none; stroke: #555555; stroke-width: 0.8; stroke-linecap: square"/>
   </g>
   <g id="line2d_26">
    <path d="M 198.631176 155.872789 
L 212.671016 155.872789 
" clip-path="url(#p22e9c08f95)" style="fill: none; stroke: #555555; stroke-width: 0.8; stroke-linecap: square"/>
   </g>
   <g id="line2d_27">
    <path d="M 198.631176 120.77319 
L 212.671016 120.77319 
" clip-path="url(#p22e9c08f95)" style="fill: none; stroke: #555555; stroke-width: 0.8; stroke-linecap: square"/>
   </g>
   <g id="line2d_28">
    <path d="M 198.631176 85.673591 
L 212.671016 85.673591 
" clip-path="url(#p22e9c08f95)" style="fill: none; stroke: #555555; stroke-width: 0.8; stroke-linecap: square"/>
   </g>
   <g id="line2d_29">
    <path d="M 198.631176 50.573992 
L 212.671016 50.573992 
" clip-path="url(#p22e9c08f95)" style="fill: none; stroke: #555555; stroke-width: 0.8; stroke-linecap: square"/>
   </g>
   <g id="text_1">
    <!-- $x$ -->
    <g style="fill: #333333" transform="translate(55.699752 419.399573) scale(0.17 -0.17)">
     <defs>
      <path id="CMMI12-78" d="M 3034 2606 
C 2829 2567 2752 2414 2752 2293 
C 2752 2139 2874 2088 2963 2088 
C 3155 2088 3290 2254 3290 2427 
C 3290 2695 2982 2816 2714 2816 
C 2323 2816 2106 2433 2048 2312 
C 1901 2816 1504 2816 1389 2816 
C 736 2816 390 1980 390 1839 
C 390 1814 416 1782 461 1782 
C 512 1782 525 1820 538 1846 
C 755 2555 1184 2689 1370 2689 
C 1658 2689 1715 2420 1715 2267 
C 1715 2127 1677 1980 1600 1673 
L 1382 798 
C 1286 415 1101 64 762 64 
C 730 64 570 64 435 147 
C 666 192 717 383 717 460 
C 717 588 621 664 499 664 
C 346 664 179 530 179 326 
C 179 57 480 -64 755 -64 
C 1062 -64 1280 179 1414 441 
C 1517 64 1837 -64 2074 -64 
C 2726 -64 3072 773 3072 913 
C 3072 945 3046 971 3008 971 
C 2950 971 2944 939 2925 888 
C 2752 326 2381 64 2093 64 
C 1869 64 1747 230 1747 492 
C 1747 632 1773 734 1875 1156 
L 2099 2024 
C 2195 2408 2413 2689 2707 2689 
C 2720 2689 2899 2689 3034 2606 
z
" transform="scale(0.015625)"/>
     </defs>
     <use xlink:href="#CMMI12-78" transform="scale(0.996264)"/>
    </g>
   </g>
   <g id="text_2">
    <!-- $y$ -->
    <g style="fill: #333333" transform="translate(406.940797 300.504767) scale(0.17 -0.17)">
     <defs>
      <path id="CMMI12-79" d="M 1683 -700 
C 1510 -939 1261 -1152 947 -1152 
C 870 -1152 563 -1152 467 -889 
C 486 -895 518 -895 531 -895 
C 723 -895 851 -729 851 -582 
C 851 -435 730 -384 634 -384 
C 531 -384 307 -458 307 -759 
C 307 -1071 582 -1286 947 -1286 
C 1587 -1286 2234 -700 2413 6 
L 3040 2485 
C 3046 2517 3059 2556 3059 2594 
C 3059 2689 2982 2753 2886 2753 
C 2829 2753 2694 2727 2643 2535 
L 2170 658 
C 2138 543 2138 530 2086 460 
C 1958 281 1747 64 1440 64 
C 1082 64 1050 415 1050 588 
C 1050 952 1222 1443 1395 1903 
C 1466 2088 1504 2178 1504 2305 
C 1504 2574 1312 2816 998 2816 
C 410 2816 173 1890 173 1839 
C 173 1814 198 1782 243 1782 
C 301 1782 307 1807 333 1897 
C 486 2433 730 2689 979 2689 
C 1037 2689 1146 2689 1146 2478 
C 1146 2312 1075 2127 979 1884 
C 666 1047 666 837 666 683 
C 666 77 1101 -64 1421 -64 
C 1606 -64 1837 -6 2061 230 
L 2067 224 
C 1971 -147 1907 -392 1683 -700 
z
" transform="scale(0.015625)"/>
     </defs>
     <use xlink:href="#CMMI12-79" transform="scale(0.996264)"/>
    </g>
   </g>
   <g id="text_3">
    <!-- $z$ -->
    <g style="fill: #333333" transform="translate(201.799261 16.549012) scale(0.17 -0.17)">
     <defs>
      <path id="CMMI12-7a" d="M 813 486 
C 1088 803 1312 1004 1632 1296 
C 2016 1632 2182 1793 2272 1891 
C 2720 2338 2944 2713 2944 2764 
C 2944 2816 2893 2816 2880 2816 
C 2835 2816 2822 2793 2790 2750 
C 2630 2494 2477 2367 2310 2367 
C 2176 2367 2106 2421 1984 2565 
C 1850 2715 1741 2816 1555 2816 
C 1088 2816 806 2257 806 2128 
C 806 2108 813 2068 870 2068 
C 922 2068 928 2091 947 2133 
C 1056 2372 1363 2414 1485 2414 
C 1619 2414 1747 2376 1882 2327 
C 2125 2240 2227 2240 2291 2240 
C 2336 2240 2362 2240 2394 2246 
C 2182 1994 1837 1683 1549 1418 
L 902 816 
C 512 415 275 33 275 -12 
C 275 -51 307 -64 346 -64 
C 384 -64 390 -57 435 14 
C 538 163 742 384 979 384 
C 1114 384 1178 342 1306 193 
C 1427 61 1536 -64 1741 -64 
C 2368 -64 2726 732 2726 876 
C 2726 903 2720 942 2656 942 
C 2605 942 2598 917 2579 855 
C 2438 488 2061 338 1811 338 
C 1677 338 1549 376 1414 425 
C 1158 512 1088 512 1005 512 
C 941 512 870 512 813 486 
z
" transform="scale(0.015625)"/>
     </defs>
     <use xlink:href="#CMMI12-7a" transform="scale(0.996264)"/>
    </g>
   </g>
   <g id="line2d_30">
    <defs>
     <path id="m7c7fa39383" d="M 0 1.5 
C 0.397805 1.5 0.77937 1.341951 1.06066 1.06066 
C 1.341951 0.77937 1.5 0.397805 1.5 0 
C 1.5 -0.397805 1.341951 -0.77937 1.06066 -1.06066 
C 0.77937 -1.341951 0.397805 -1.5 0 -1.5 
C -0.397805 -1.5 -0.77937 -1.341951 -1.06066 -1.06066 
C -1.341951 -0.77937 -1.5 -0.397805 -1.5 0 
C -1.5 0.397805 -1.341951 0.77937 -1.06066 1.06066 
C -0.77937 1.341951 -0.397805 1.5 0 1.5 
z
" style="stroke: #333333"/>
    </defs>
    <g clip-path="url(#p22e9c08f95)">
     <use xlink:href="#m7c7fa39383" x="205.651096" y="296.271184" style="fill: #333333; stroke: #333333"/>
    </g>
   </g>
   <g id="text_4">
    <!-- -5 -->
    <g style="fill: #555555" transform="translate(331.706399 196.772199) scale(0.11 -0.11)">
     <defs>
      <path id="CMSS17-2d" d="M 1664 1216 
L 1664 1585 
L 64 1585 
L 64 1216 
L 1664 1216 
z
" transform="scale(0.015625)"/>
      <path id="CMSS17-35" d="M 934 3752 
L 2502 3752 
L 2502 4160 
L 467 4160 
L 467 1781 
L 896 1781 
C 1011 2046 1248 2240 1555 2240 
C 1843 2240 2163 1989 2163 1266 
C 2163 493 1709 267 1376 267 
C 966 267 589 512 422 851 
L 218 499 
C 512 49 992 -128 1376 -128 
C 2118 -128 2701 497 2701 1253 
C 2701 2030 2182 2629 1562 2629 
C 1338 2629 1120 2553 934 2399 
L 934 3752 
z
" transform="scale(0.015625)"/>
     </defs>
     <use xlink:href="#CMSS17-2d" transform="scale(0.996264)"/>
     <use xlink:href="#CMSS17-35" transform="translate(31.229113 0) scale(0.996264)"/>
    </g>
   </g>
   <g id="text_5">
    <!-- -4 -->
    <g style="fill: #555555" transform="translate(307.337729 217.219941) scale(0.11 -0.11)">
     <defs>
      <path id="CMSS17-34" d="M 2253 1088 
L 2835 1088 
L 2835 1477 
L 2253 1477 
L 2253 4192 
L 1690 4192 
L 166 1477 
L 166 1088 
L 1747 1088 
L 1747 0 
L 2253 0 
L 2253 1088 
z
M 659 1477 
C 1030 2127 1766 3439 1766 3885 
L 1766 1477 
L 659 1477 
z
" transform="scale(0.015625)"/>
     </defs>
     <use xlink:href="#CMSS17-2d" transform="scale(0.996264)"/>
     <use xlink:href="#CMSS17-34" transform="translate(31.229113 0) scale(0.996264)"/>
    </g>
   </g>
   <g id="text_6">
    <!-- -3 -->
    <g style="fill: #555555" transform="translate(282.969059 237.667684) scale(0.11 -0.11)">
     <defs>
      <path id="CMSS17-33" d="M 1005 2025 
L 1440 2025 
C 2042 2025 2214 1507 2214 1146 
C 2214 653 1933 267 1472 267 
C 1114 267 608 444 320 912 
C 275 691 275 678 250 526 
C 550 88 1037 -128 1485 -128 
C 2214 -128 2752 473 2752 1138 
C 2752 1638 2400 2057 1920 2215 
C 2304 2424 2586 2816 2586 3273 
C 2586 3805 2093 4229 1491 4229 
C 941 4229 512 3892 333 3530 
C 378 3468 493 3284 550 3189 
C 691 3562 1056 3840 1485 3840 
C 1843 3840 2080 3607 2080 3271 
C 2080 2923 1856 2543 1478 2455 
C 1453 2455 1056 2417 1005 2411 
L 1005 2025 
z
" transform="scale(0.015625)"/>
     </defs>
     <use xlink:href="#CMSS17-2d" transform="scale(0.996264)"/>
     <use xlink:href="#CMSS17-33" transform="translate(31.229113 0) scale(0.996264)"/>
    </g>
   </g>
   <g id="text_7">
    <!-- -2 -->
    <g style="fill: #555555" transform="translate(258.600389 258.115426) scale(0.11 -0.11)">
     <defs>
      <path id="CMSS17-32" d="M 1651 1357 
C 1830 1541 2099 1764 2285 1987 
C 2464 2204 2701 2511 2701 2957 
C 2701 3657 2227 4288 1421 4288 
C 787 4288 422 3893 250 3274 
L 499 2929 
C 640 3510 838 3880 1338 3880 
C 1888 3880 2195 3433 2195 2942 
C 2195 2355 1747 1901 1408 1563 
C 1030 1187 659 804 301 408 
L 301 0 
L 2701 0 
L 2701 433 
L 1613 433 
C 1536 433 1459 433 1382 433 
L 742 433 
L 742 439 
L 1651 1357 
z
" transform="scale(0.015625)"/>
     </defs>
     <use xlink:href="#CMSS17-2d" transform="scale(0.996264)"/>
     <use xlink:href="#CMSS17-32" transform="translate(31.229113 0) scale(0.996264)"/>
    </g>
   </g>
   <g id="text_8">
    <!-- -1 -->
    <g style="fill: #555555" transform="translate(234.231718 278.563168) scale(0.11 -0.11)">
     <defs>
      <path id="CMSS17-31" d="M 1818 4288 
L 1696 4288 
C 1350 3940 947 3890 538 3890 
L 538 3520 
C 723 3520 1024 3520 1325 3667 
L 1325 369 
L 570 369 
L 570 0 
L 2573 0 
L 2573 369 
L 1818 369 
L 1818 4288 
z
" transform="scale(0.015625)"/>
     </defs>
     <use xlink:href="#CMSS17-2d" transform="scale(0.996264)"/>
     <use xlink:href="#CMSS17-31" transform="translate(31.229113 0) scale(0.996264)"/>
    </g>
   </g>
   <g id="text_9">
    <!-- 1 -->
    <g style="fill: #555555" transform="translate(171.591007 319.458652) scale(0.11 -0.11)">
     <use xlink:href="#CMSS17-31" transform="scale(0.996264)"/>
    </g>
   </g>
   <g id="text_10">
    <!-- 2 -->
    <g style="fill: #555555" transform="translate(147.222337 339.906395) scale(0.11 -0.11)">
     <use xlink:href="#CMSS17-32" transform="scale(0.996264)"/>
    </g>
   </g>
   <g id="text_11">
    <!-- 3 -->
    <g style="fill: #555555" transform="translate(122.853666 360.354137) scale(0.11 -0.11)">
     <use xlink:href="#CMSS17-33" transform="scale(0.996264)"/>
    </g>
   </g>
   <g id="text_12">
    <!-- 4 -->
    <g style="fill: #555555" transform="translate(98.484996 380.801879) scale(0.11 -0.11)">
     <use xlink:href="#CMSS17-34" transform="scale(0.996264)"/>
    </g>
   </g>
   <g id="text_13">
    <!-- 5 -->
    <g style="fill: #555555" transform="translate(74.116326 401.249621) scale(0.11 -0.11)">
     <use xlink:href="#CMSS17-35" transform="scale(0.996264)"/>
    </g>
   </g>
   <g id="text_14">
    <!-- -5 -->
    <g style="fill: #555555" transform="translate(25.586882 309.497467) scale(0.11 -0.11)">
     <use xlink:href="#CMSS17-2d" transform="scale(0.996264)"/>
     <use xlink:href="#CMSS17-35" transform="translate(31.229113 0) scale(0.996264)"/>
    </g>
   </g>
   <g id="text_15">
    <!-- -4 -->
    <g style="fill: #555555" transform="translate(60.686481 309.497467) scale(0.11 -0.11)">
     <use xlink:href="#CMSS17-2d" transform="scale(0.996264)"/>
     <use xlink:href="#CMSS17-34" transform="translate(31.229113 0) scale(0.996264)"/>
    </g>
   </g>
   <g id="text_16">
    <!-- -3 -->
    <g style="fill: #555555" transform="translate(95.786079 309.497467) scale(0.11 -0.11)">
     <use xlink:href="#CMSS17-2d" transform="scale(0.996264)"/>
     <use xlink:href="#CMSS17-33" transform="translate(31.229113 0) scale(0.996264)"/>
    </g>
   </g>
   <g id="text_17">
    <!-- -2 -->
    <g style="fill: #555555" transform="translate(130.885678 309.497467) scale(0.11 -0.11)">
     <use xlink:href="#CMSS17-2d" transform="scale(0.996264)"/>
     <use xlink:href="#CMSS17-32" transform="translate(31.229113 0) scale(0.996264)"/>
    </g>
   </g>
   <g id="text_18">
    <!-- -1 -->
    <g style="fill: #555555" transform="translate(165.985277 309.497467) scale(0.11 -0.11)">
     <use xlink:href="#CMSS17-2d" transform="scale(0.996264)"/>
     <use xlink:href="#CMSS17-31" transform="translate(31.229113 0) scale(0.996264)"/>
    </g>
   </g>
   <g id="text_19">
    <!-- 1 -->
    <g style="fill: #555555" transform="translate(238.010961 309.497467) scale(0.11 -0.11)">
     <use xlink:href="#CMSS17-31" transform="scale(0.996264)"/>
    </g>
   </g>
   <g id="text_20">
    <!-- 2 -->
    <g style="fill: #555555" transform="translate(273.11056 309.497467) scale(0.11 -0.11)">
     <use xlink:href="#CMSS17-32" transform="scale(0.996264)"/>
    </g>
   </g>
   <g id="text_21">
    <!-- 3 -->
    <g style="fill: #555555" transform="translate(308.210159 309.497467) scale(0.11 -0.11)">
     <use xlink:href="#CMSS17-33" transform="scale(0.996264)"/>
    </g>
   </g>
   <g id="text_22">
    <!-- 4 -->
    <g style="fill: #555555" transform="translate(343.309758 309.497467) scale(0.11 -0.11)">
     <use xlink:href="#CMSS17-34" transform="scale(0.996264)"/>
    </g>
   </g>
   <g id="text_23">
    <!-- 5 -->
    <g style="fill: #555555" transform="translate(378.409357 309.497467) scale(0.11 -0.11)">
     <use xlink:href="#CMSS17-35" transform="scale(0.996264)"/>
    </g>
   </g>
   <g id="text_24">
    <!-- 1 -->
    <g style="fill: #555555" transform="translate(191.396729 263.911311) scale(0.11 -0.11)">
     <use xlink:href="#CMSS17-31" transform="scale(0.996264)"/>
    </g>
   </g>
   <g id="text_25">
    <!-- 2 -->
    <g style="fill: #555555" transform="translate(191.396729 228.811713) scale(0.11 -0.11)">
     <use xlink:href="#CMSS17-32" transform="scale(0.996264)"/>
    </g>
   </g>
   <g id="text_26">
    <!-- 3 -->
    <g style="fill: #555555" transform="translate(191.396729 193.712114) scale(0.11 -0.11)">
     <use xlink:href="#CMSS17-33" transform="scale(0.996264)"/>
    </g>
   </g>
   <g id="text_27">
    <!-- 4 -->
    <g style="fill: #555555" transform="translate(191.396729 158.612515) scale(0.11 -0.11)">
     <use xlink:href="#CMSS17-34" transform="scale(0.996264)"/>
    </g>
   </g>
   <g id="text_28">
    <!-- 5 -->
    <g style="fill: #555555" transform="translate(191.396729 123.512916) scale(0.11 -0.11)">
     <use xlink:href="#CMSS17-35" transform="scale(0.996264)"/>
    </g>
   </g>
   <g id="text_29">
    <!-- 6 -->
    <g style="fill: #555555" transform="translate(191.396729 88.413317) scale(0.11 -0.11)">
     <defs>
      <path id="CMSS17-36" d="M 2496 4101 
C 2227 4210 2035 4229 1856 4229 
C 1024 4229 250 3368 250 2006 
C 250 265 986 -128 1510 -128 
C 1798 -128 2086 -39 2362 280 
C 2643 617 2752 898 2752 1389 
C 2752 2179 2362 2880 1779 2880 
C 1357 2880 992 2657 768 2376 
C 832 3258 1254 3840 1862 3840 
C 2029 3840 2246 3816 2496 3710 
L 2496 4101 
z
M 774 1369 
C 774 1420 774 1452 781 1548 
C 781 2045 1069 2491 1536 2491 
C 1837 2491 1990 2332 2106 2135 
C 2240 1886 2246 1650 2246 1388 
C 2246 1140 2246 891 2099 637 
C 1978 439 1818 267 1510 267 
C 902 267 800 1114 774 1369 
z
" transform="scale(0.015625)"/>
     </defs>
     <use xlink:href="#CMSS17-36" transform="scale(0.996264)"/>
    </g>
   </g>
   <g id="text_30">
    <!-- 7 -->
    <g style="fill: #555555" transform="translate(191.396729 53.313718) scale(0.11 -0.11)">
     <defs>
      <path id="CMSS17-37" d="M 1389 3776 
C 1466 3776 1542 3776 1619 3776 
L 2355 3776 
C 1440 2711 915 1365 915 -32 
L 1427 -32 
C 1427 1323 1875 2696 2752 3795 
L 2752 4209 
L 250 4209 
L 250 3776 
L 1389 3776 
z
" transform="scale(0.015625)"/>
     </defs>
     <use xlink:href="#CMSS17-37" transform="scale(0.996264)"/>
    </g>
   </g>
   <g id="line2d_31">
    <path d="M 181.282426 316.718926 
L 184.748485 316.273669 
L 188.239308 315.80064 
L 191.746514 315.299894 
L 195.261716 314.771526 
L 198.776543 314.215668 
L 202.282661 313.632489 
L 205.771789 313.022195 
L 209.235723 312.38503 
L 212.666353 311.721274 
L 216.055684 311.031242 
L 219.395851 310.315285 
L 222.679143 309.573792 
L 225.898019 308.807182 
L 229.045123 308.015912 
L 232.113306 307.200472 
L 235.095637 306.361382 
L 237.985426 305.499197 
L 240.776233 304.614503 
L 243.461885 303.707916 
L 246.036494 302.780082 
L 248.494463 301.831675 
L 250.830506 300.863399 
L 253.039654 299.875983 
L 255.117271 298.870183 
L 257.059061 297.846779 
L 258.861077 296.806577 
L 260.519733 295.750403 
L 262.031808 294.679107 
L 263.394456 293.593559 
L 264.605207 292.494649 
L 265.661978 291.383282 
L 266.563071 290.260384 
L 267.307182 289.126894 
L 267.893395 287.983767 
L 268.321192 286.83197 
L 268.590446 285.672483 
L 268.701424 284.506294 
L 268.654783 283.334403 
L 268.451569 282.157816 
L 268.093211 280.977546 
L 267.581519 279.794611 
L 266.918675 278.610033 
L 266.10723 277.424835 
L 265.150094 276.240042 
L 264.050528 275.056677 
L 262.812136 273.875764 
L 261.438854 272.69832 
L 259.93494 271.52536 
L 258.304962 270.357891 
L 256.553784 269.196915 
L 254.686558 268.043422 
L 252.708704 266.898395 
L 250.625899 265.762803 
L 248.444062 264.637604 
L 246.16934 263.52374 
L 243.808087 262.422139 
L 242.478675 261.82942 
L 241.366853 261.333713 
" clip-path="url(#p22e9c08f95)" style="fill: none; stroke: #1f77b4; stroke-width: 2.5; stroke-linecap: round"/>
   </g>
   <g id="line2d_32">
    <path d="M 241.366853 261.333713 
L 238.852364 260.259353 
L 236.271504 259.199935 
L 233.631301 258.156311 
L 230.938904 257.129315 
L 228.201569 256.119755 
L 225.426638 255.128417 
L 222.62152 254.156062 
L 219.793675 253.203427 
L 216.95059 252.271218 
L 214.099766 251.360117 
L 211.248696 250.470777 
L 208.404844 249.603819 
L 205.57563 248.759835 
L 202.768409 247.939387 
L 199.990454 247.143003 
L 197.248936 246.371179 
L 194.550909 245.624378 
L 191.903287 244.903029 
L 189.312833 244.207526 
L 186.786138 243.538228 
L 184.329607 242.895458 
L 181.949442 242.279504 
L 179.651625 241.690616 
L 177.441906 241.129009 
L 175.325789 240.59486 
L 173.308515 240.088308 
L 171.395053 239.609456 
L 169.590087 239.158367 
L 167.898001 238.73507 
L 166.322874 238.339553 
L 164.868466 237.971767 
L 163.538212 237.631625 
L 162.335209 237.319005 
L 161.262216 237.033744 
L 160.321641 236.775644 
L 159.515538 236.54447 
L 158.845602 236.339948 
L 158.313166 236.161772 
L 157.919198 236.009597 
L 157.664298 235.883043 
L 157.548698 235.781696 
L 157.572262 235.705108 
L 157.734485 235.652796 
L 158.034498 235.624246 
L 158.47107 235.618909 
L 159.042608 235.636207 
L 159.747167 235.67553 
L 160.582452 235.736238 
L 161.545824 235.817663 
L 162.634311 235.919107 
L 163.84461 236.039846 
L 165.173104 236.17913 
L 166.615862 236.336183 
L 168.168659 236.510206 
L 169.82698 236.700375 
L 171.586035 236.905847 
L 173.440772 237.125755 
L 175.385891 237.359214 
L 177.415853 237.60532 
L 179.524901 237.863154 
L 181.707071 238.131777 
L 183.95621 238.41024 
L 186.265989 238.697576 
L 188.629923 238.992809 
L 191.041384 239.294952 
L 193.493623 239.603007 
L 195.979783 239.915971 
L 198.49292 240.23283 
L 201.02602 240.552568 
L 203.572016 240.874164 
L 205.651126 241.136869 
" clip-path="url(#p22e9c08f95)" style="fill: none; stroke-dasharray: 7,7; stroke-dashoffset: 0; stroke: #1f77b4; stroke-opacity: 0.35; stroke-width: 1.75"/>
   </g>
   <g id="line2d_33">
    <path d="M 205.651126 241.136869 
L 206.12381 241.196595 
L 208.674285 241.518836 
L 211.216331 241.839863 
L 213.742858 242.158654 
L 216.246817 242.474188 
L 218.721218 242.785451 
L 221.159146 243.091433 
L 223.553784 243.391132 
L 225.898424 243.683555 
L 228.18649 243.967718 
L 230.411552 244.242647 
L 232.567345 244.507384 
L 234.647784 244.760982 
L 236.64698 245.002511 
L 238.559254 245.231055 
L 240.379155 245.445718 
L 242.101473 245.645621 
L 243.721251 245.829907 
L 245.2338 245.997739 
L 246.634711 246.148302 
L 247.919866 246.280806 
L 249.085451 246.394484 
L 250.127962 246.488596 
L 251.044219 246.562427 
L 251.831371 246.61529 
L 252.486908 246.646528 
L 253.008662 246.655511 
L 253.394818 246.641642 
L 253.643917 246.604352 
L 253.754862 246.543107 
L 253.726917 246.457402 
L 253.559716 246.346769 
L 253.253258 246.210772 
L 252.807911 246.049008 
L 252.224412 245.861111 
L 251.503864 245.646751 
L 250.647734 245.405633 
L 249.657852 245.137498 
L 248.536403 244.842124 
L 247.285926 244.519327 
L 245.909305 244.168958 
L 244.409764 243.790908 
L 242.790859 243.385105 
L 241.056469 242.951513 
L 239.210788 242.490135 
L 237.258312 242.001013 
L 235.203832 241.484225 
L 233.052418 240.939887 
L 230.809412 240.368153 
L 228.480409 239.769212 
L 226.071248 239.143294 
L 223.587994 238.490663 
L 221.036925 237.811618 
L 218.424518 237.106498 
L 215.757428 236.375674 
L 213.042478 235.619552 
L 210.286634 234.838576 
L 207.496997 234.033218 
L 204.680777 233.203989 
L 201.845279 232.351429 
L 198.997886 231.476109 
L 196.146034 230.578634 
L 193.297203 229.659638 
L 190.458889 228.719782 
L 187.638589 227.759758 
L 184.843785 226.780285 
L 182.081919 225.782107 
L 179.360378 224.765996 
L 176.686473 223.732745 
L 174.067424 222.683172 
L 171.510336 221.618119 
L 169.022186 220.538446 
L 168.818147 220.445965 
L 166.609803 219.445035 
" clip-path="url(#p22e9c08f95)" style="fill: none; stroke: #1f77b4; stroke-width: 2.5; stroke-linecap: round"/>
   </g>
   <g id="line2d_34">
    <path d="M 166.609803 219.445035 
L 164.279848 218.338785 
L 162.038801 217.220613 
L 159.892941 216.091453 
L 157.848333 214.952254 
L 155.910807 213.803978 
L 154.085948 212.647598 
L 152.379078 211.484101 
L 150.795243 210.314481 
L 149.3392 209.139743 
L 148.015403 207.960895 
L 146.827991 206.778955 
L 145.78078 205.594941 
L 144.877247 204.409879 
L 144.120525 203.224791 
L 143.51339 202.040702 
L 143.05826 200.858635 
L 142.757177 199.679611 
L 142.611813 198.504646 
L 142.623454 197.33475 
L 142.793002 196.170928 
L 143.120971 195.014174 
L 143.607482 193.865475 
L 144.252263 192.725805 
L 145.054648 191.596128 
L 146.013579 190.477393 
L 147.127604 189.370533 
L 148.394882 188.276467 
L 149.813187 187.196096 
L 151.379908 186.130301 
L 153.092061 185.079945 
L 154.946288 184.04587 
L 156.938868 183.028894 
L 159.065724 182.029813 
L 161.322434 181.0494 
L 163.704235 180.0884 
L 166.206042 179.147533 
L 168.82245 178.227492 
L 171.547755 177.32894 
L 174.375959 176.452514 
L 177.300791 175.598817 
L 180.315716 174.768424 
L 183.413951 173.961877 
L 186.588485 173.179687 
L 189.832089 172.422329 
L 193.137337 171.690247 
L 196.496623 170.98385 
L 199.902175 170.303511 
L 203.34608 169.64957 
L 206.820297 169.022327 
L 210.316679 168.422051 
L 213.826992 167.84897 
L 217.342933 167.303277 
L 220.85615 166.785127 
L 224.358266 166.294638 
L 227.840892 165.831891 
L 231.295656 165.396928 
L 234.714213 164.989754 
L 238.088274 164.610337 
L 241.409622 164.258605 
L 244.670131 163.934451 
L 247.86179 163.637729 
L 250.976717 163.368255 
L 254.007183 163.12581 
L 256.945627 162.910137 
L 259.784678 162.720943 
L 262.517173 162.557898 
L 265.13617 162.420639 
L 267.634973 162.308765 
L 270.007141 162.221841 
L 271.034827 162.193186 
" clip-path="url(#p22e9c08f95)" style="fill: none; stroke-dasharray: 7,7; stroke-dashoffset: 0; stroke: #1f77b4; stroke-opacity: 0.35; stroke-width: 1.75"/>
   </g>
   <g id="line2d_35">
    <path d="M 271.034827 162.193186 
L 272.24651 162.159401 
L 274.347203 162.120942 
L 276.303651 162.105931 
L 278.110603 162.113801 
L 279.763139 162.143955 
L 281.256685 162.195767 
L 282.587025 162.26858 
L 283.750309 162.361708 
L 284.743065 162.474438 
L 285.562211 162.606031 
L 286.205057 162.755722 
L 286.669319 162.922721 
L 286.953122 163.106215 
L 287.055004 163.305368 
L 286.973927 163.519323 
L 286.709272 163.747204 
L 286.260849 163.988113 
L 285.628895 164.241137 
L 284.814075 164.505347 
L 283.81748 164.779797 
L 282.64063 165.063526 
L 281.285468 165.355565 
L 279.754356 165.654928 
L 278.050074 165.960624 
L 276.175809 166.27165 
L 274.135157 166.586997 
L 271.932107 166.905651 
L 269.571036 167.226592 
L 267.056702 167.548797 
L 264.39423 167.871243 
L 261.589104 168.192904 
L 258.647152 168.512758 
L 255.574536 168.829783 
L 252.377738 169.142962 
L 249.063543 169.451283 
L 245.639026 169.753741 
L 242.111538 170.049338 
L 238.488685 170.337087 
L 234.778314 170.61601 
L 230.988496 170.885141 
L 227.127505 171.143529 
L 223.2038 171.390235 
L 219.226007 171.62434 
L 215.202899 171.844937 
L 211.143374 172.051141 
L 207.056438 172.242085 
L 202.951181 172.416924 
L 198.836758 172.574833 
L 194.722368 172.715012 
L 190.617231 172.836683 
L 186.530569 172.939096 
L 182.471584 173.021524 
L 178.449434 173.08327 
L 174.473218 173.123663 
L 170.551947 173.142062 
L 166.694529 173.137856 
L 162.909745 173.110463 
L 159.206232 173.059336 
L 155.592458 172.983957 
L 152.076706 172.883842 
L 148.667053 172.758541 
L 145.371352 172.607639 
L 142.197212 172.430753 
L 139.151981 172.227539 
L 136.242729 171.997686 
L 133.476232 171.74092 
L 132.190866 171.601486 
L 130.858954 171.457003 
" clip-path="url(#p22e9c08f95)" style="fill: none; stroke: #1f77b4; stroke-width: 2.5; stroke-linecap: round"/>
   </g>
   <g id="line2d_36">
    <path d="M 130.858954 171.457003 
L 128.397033 171.145736 
L 126.096265 170.806956 
L 123.962093 170.440535 
L 121.999591 170.046387 
L 120.213454 169.624461 
L 118.607985 169.174743 
L 117.187087 168.697259 
L 115.954251 168.192071 
L 114.912547 167.65928 
L 114.064622 167.099023 
L 113.412685 166.511476 
L 112.958509 165.896851 
L 112.703422 165.255398 
L 112.648305 164.587401 
L 112.793589 163.893182 
L 113.139253 163.173099 
L 113.684828 162.427544 
L 114.429389 161.656943 
L 115.371566 160.861759 
L 116.509541 160.042486 
L 117.841052 159.19965 
L 119.363401 158.333812 
L 121.073457 157.445561 
L 122.967664 156.535518 
L 125.042049 155.604335 
L 127.292228 154.652691 
L 129.713421 153.681292 
L 132.300459 152.690872 
L 135.047794 151.682193 
L 137.949517 150.656037 
L 140.999365 149.613215 
L 144.190741 148.554555 
L 147.516723 147.480913 
L 150.970086 146.393159 
L 154.543311 145.292187 
L 158.22861 144.178906 
L 162.017938 143.054244 
L 165.903012 141.919142 
L 169.875332 140.774558 
L 173.926199 139.62146 
L 178.046736 138.46083 
L 182.227904 137.293658 
L 186.46053 136.120945 
L 190.735319 134.943699 
L 195.042885 133.762932 
L 199.373762 132.579665 
L 203.718436 131.394918 
L 205.651125 130.868206 
" clip-path="url(#p22e9c08f95)" style="fill: none; stroke-dasharray: 7,7; stroke-dashoffset: 0; stroke: #1f77b4; stroke-opacity: 0.35; stroke-width: 1.75"/>
   </g>
   <g id="line2d_37">
    <path d="M 205.651125 130.868206 
L 208.067356 130.209716 
L 212.410967 129.025083 
L 216.739721 127.842043 
L 221.044108 126.661618 
L 225.314671 125.484826 
L 229.54203 124.312679 
L 233.716906 123.146186 
L 237.830138 121.986345 
L 241.872705 120.834145 
L 245.835748 119.690568 
L 249.71059 118.55658 
L 253.488752 117.433138 
L 257.16198 116.321181 
L 260.722254 115.221634 
L 264.161816 114.135406 
L 267.473179 113.063387 
L 270.64915 112.006447 
L 273.682844 110.965438 
L 276.567699 109.941186 
L 279.297492 108.934499 
L 281.866351 107.946158 
L 284.268773 106.976921 
L 286.499629 106.027517 
L 288.554184 105.098652 
L 290.428098 104.191002 
L 292.117446 103.305214 
L 293.618717 102.441905 
L 294.928828 101.601663 
L 296.04513 100.785043 
L 296.96541 99.992569 
L 297.687899 99.224733 
L 298.211277 98.48199 
L 298.53467 97.764765 
L 298.657658 97.073445 
L 298.580271 96.408385 
L 298.302989 95.769902 
L 297.826744 95.158277 
L 297.152914 94.573756 
L 296.283319 94.016546 
L 295.22022 93.486819 
L 293.966308 92.984708 
L 292.524701 92.510309 
L 290.898939 92.063682 
L 289.092966 91.644846 
L 287.111132 91.253785 
L 284.958173 90.890444 
L 282.639206 90.55473 
L 280.159713 90.246514 
L 279.111767 90.13477 
L 277.525529 89.965628 
" clip-path="url(#p22e9c08f95)" style="fill: none; stroke: #1f77b4; stroke-width: 2.5; stroke-linecap: round"/>
   </g>
   <g id="line2d_38">
    <path d="M 277.525529 89.965628 
L 274.74283 89.711867 
L 271.818115 89.484991 
L 268.758192 89.284721 
L 265.570163 89.110743 
L 262.261407 88.962708 
L 258.839562 88.840229 
L 255.312505 88.742888 
L 251.688337 88.670231 
L 247.975363 88.62177 
L 244.182072 88.596984 
L 240.317115 88.595321 
L 236.389291 88.616197 
L 232.407519 88.658997 
L 228.380821 88.723076 
L 224.318304 88.807762 
L 220.229132 88.912354 
L 216.12251 89.036121 
L 212.007661 89.178311 
L 207.893803 89.338143 
L 203.790132 89.514814 
L 199.705797 89.707498 
L 195.649879 89.915346 
L 191.631373 90.137489 
L 187.659165 90.37304 
L 183.742012 90.621092 
L 179.888521 90.880721 
L 176.107134 91.150989 
L 172.406103 91.430941 
L 168.793473 91.719611 
L 165.277065 92.01602 
L 161.86446 92.31918 
L 158.562977 92.628091 
L 155.37966 92.941748 
L 152.321263 93.259138 
L 149.39423 93.579243 
L 146.604688 93.901042 
L 143.958427 94.223512 
L 141.460892 94.545627 
L 139.117168 94.866364 
L 136.931971 95.1847 
L 134.909634 95.499617 
L 133.054105 95.8101 
L 131.368932 96.115141 
L 129.85726 96.413739 
L 128.52182 96.704901 
L 127.36493 96.987647 
L 126.388485 97.261005 
L 125.593957 97.524017 
L 124.98239 97.77574 
L 124.554403 98.015245 
L 124.310183 98.24162 
L 124.249492 98.453972 
L 124.371667 98.651425 
L 124.67562 98.833125 
L 125.159844 98.998239 
L 125.822419 99.145956 
L 126.661014 99.275489 
L 127.672896 99.386075 
L 128.854938 99.476978 
L 130.203627 99.547488 
L 131.715071 99.596923 
L 133.385014 99.62463 
L 135.208842 99.629984 
L 137.181598 99.612392 
L 139.297996 99.571292 
L 140.267184 99.543288 
" clip-path="url(#p22e9c08f95)" style="fill: none; stroke-dasharray: 7,7; stroke-dashoffset: 0; stroke: #1f77b4; stroke-opacity: 0.35; stroke-width: 1.75"/>
   </g>
   <g id="line2d_39">
    <path d="M 140.267184 99.543288 
L 141.55243 99.506153 
L 143.938993 99.416477 
L 146.451487 99.3018 
L 149.083443 99.161692 
L 151.828137 98.995757 
L 154.678601 98.803633 
L 157.627647 98.584996 
L 160.667883 98.339557 
L 163.791729 98.067063 
L 166.991438 97.767298 
L 170.259112 97.440083 
L 173.586726 97.085277 
L 176.966144 96.702776 
L 180.389139 96.292512 
" clip-path="url(#p22e9c08f95)" style="fill: none; stroke: #1f77b4; stroke-width: 2.5; stroke-linecap: round"/>
   </g>
  </g>
 </g>
 <defs>
  <clipPath id="p22e9c08f95">
   <rect x="11.568412" y="2" width="408.863176" height="428"/>
  </clipPath>
 </defs>
</svg>
