<?xml version="1.0" encoding="utf-8" standalone="no"?>
<!DOCTYPE svg PUBLIC "-//W3C//DTD SVG 1.1//EN"
  "http://www.w3.org/Graphics/SVG/1.1/DTD/svg11.dtd">
<svg xmlns:xlink="http://www.w3.org/1999/xlink" width="432pt" height="432pt" viewBox="0 0 432 432" xmlns="http://www.w3.org/2000/svg" version="1.1">
 <metadata>
  <rdf:RDF xmlns:dc="http://purl.org/dc/elements/1.1/" xmlns:cc="http://creativecommons.org/ns#" xmlns:rdf="http://www.w3.org/1999/02/22-rdf-syntax-ns#">
   <cc:Work>
    <dc:type rdf:resource="http://purl.org/dc/dcmitype/StillImage"/>
    <dc:date>2026-06-02T18:34:43.545269</dc:date>
    <dc:format>image/svg+xml</dc:format>
    <dc:creator>
     <cc:Agent>
      <dc:title>Matplotlib v3.10.8, https://matplotlib.org/</dc:title>
     </cc:Agent>
    </dc:creator>
   </cc:Work>
  </rdf:RDF>
 </metadata>
 <defs>
  <style type="text/css">*{stroke-linejoin: round; stroke-linecap: butt}
    /* plot3d: counteract dark-mode colour inversion on sphere fills */
    @media (prefers-color-scheme: dark) { #sphere_fill_1406db80 { filter: invert(1) hue-rotate(180deg); } }
    [data-theme="dark"] #sphere_fill_1406db80,
    .dark #sphere_fill_1406db80 { filter: invert(1) hue-rotate(180deg); }
  </style>
 
  <radialGradient id="sg_sphere_fill_1406db80" cx="0.38" cy="0.38" r="0.72" fx="0.28" fy="0.28" gradientUnits="objectBoundingBox">
    <stop offset="0%"   stop-color="#e78182" stop-opacity="0.420"/>
    <stop offset="45%"  stop-color="#d62728" stop-opacity="0.400"/>
    <stop offset="100%" stop-color="#6f1414" stop-opacity="0.140"/>
  </radialGradient>
 </defs>
 <g id="figure_1">
  <g id="patch_1">
   <path d="M 0 432 
L 432 432 
L 432 0 
L 0 0 
L 0 432 
z
" style="fill: none"/>
  </g>
  <g id="axes_1">
   <g id="line2d_1">
    <path d="M 207.313386 295.590284 
L 58.354246 295.590284 
" clip-path="url(#paa5cd4b36f)" style="fill: none; stroke-dasharray: 7,7; stroke-dashoffset: 0; stroke: #333333; stroke-opacity: 0.4; stroke-width: 1.75"/>
   </g>
   <g id="line2d_2">
    <path d="M 207.313386 295.590284 
L 101.983368 400.920303 
" clip-path="url(#paa5cd4b36f)" style="fill: none; stroke-dasharray: 7,7; stroke-dashoffset: 0; stroke: #333333; stroke-opacity: 0.4; stroke-width: 1.75"/>
   </g>
   <g id="patch_2">
    <path d="M 209.311752 295.590284 
Q 290.729897 295.590284 369.352958 295.590284 
" clip-path="url(#paa5cd4b36f)" style="fill: none; stroke: #333333; stroke-width: 2.5; stroke-linecap: round"/>
    <path d="M 364.552958 293.190284 
L 369.352958 295.590284 
L 364.552958 297.990284 
z
" clip-path="url(#paa5cd4b36f)" style="fill: #333333; stroke: #333333; stroke-width: 2.5; stroke-linecap: round"/>
   </g>
   <g id="patch_3">
    <path d="M 208.726444 294.177227 
Q 266.297767 236.605904 321.892666 181.011004 
" clip-path="url(#paa5cd4b36f)" style="fill: none; stroke: #333333; stroke-width: 2.5; stroke-linecap: round"/>
    <path d="M 316.801497 182.708061 
L 321.892666 181.011004 
L 320.19561 186.102173 
z
" clip-path="url(#paa5cd4b36f)" style="fill: #333333; stroke: #333333; stroke-width: 2.5; stroke-linecap: round"/>
   </g>
   <g id="patch_4">
    <path d="M 207.313386 293.590723 
Q 207.313386 159.371615 207.313386 27.947592 
" clip-path="url(#paa5cd4b36f)" style="fill: none; stroke: #333333; stroke-width: 2.5; stroke-linecap: round"/>
    <path d="M 204.913386 32.747592 
L 207.313386 27.947592 
L 209.713386 32.747592 
z
" clip-path="url(#paa5cd4b36f)" style="fill: #333333; stroke: #333333; stroke-width: 2.5; stroke-linecap: round"/>
   </g>
   <g id="line2d_3">
    <path d="M 58.354246 305.320255 
L 58.354246 285.860314 
" clip-path="url(#paa5cd4b36f)" style="fill: none; stroke: #555555; stroke-width: 0.8; stroke-linecap: square"/>
   </g>
   <g id="line2d_4">
    <path d="M 88.146074 305.320255 
L 88.146074 285.860314 
" clip-path="url(#paa5cd4b36f)" style="fill: none; stroke: #555555; stroke-width: 0.8; stroke-linecap: square"/>
   </g>
   <g id="line2d_5">
    <path d="M 117.937902 305.320255 
L 117.937902 285.860314 
" clip-path="url(#paa5cd4b36f)" style="fill: none; stroke: #555555; stroke-width: 0.8; stroke-linecap: square"/>
   </g>
   <g id="line2d_6">
    <path d="M 147.72973 305.320255 
L 147.72973 285.860314 
" clip-path="url(#paa5cd4b36f)" style="fill: none; stroke: #555555; stroke-width: 0.8; stroke-linecap: square"/>
   </g>
   <g id="line2d_7">
    <path d="M 177.521558 305.320255 
L 177.521558 285.860314 
" clip-path="url(#paa5cd4b36f)" style="fill: none; stroke: #555555; stroke-width: 0.8; stroke-linecap: square"/>
   </g>
   <g id="line2d_8">
    <path d="M 237.105214 305.320255 
L 237.105214 285.860314 
" clip-path="url(#paa5cd4b36f)" style="fill: none; stroke: #555555; stroke-width: 0.8; stroke-linecap: square"/>
   </g>
   <g id="line2d_9">
    <path d="M 266.897042 305.320255 
L 266.897042 285.860314 
" clip-path="url(#paa5cd4b36f)" style="fill: none; stroke: #555555; stroke-width: 0.8; stroke-linecap: square"/>
   </g>
   <g id="line2d_10">
    <path d="M 296.688871 305.320255 
L 296.688871 285.860314 
" clip-path="url(#paa5cd4b36f)" style="fill: none; stroke: #555555; stroke-width: 0.8; stroke-linecap: square"/>
   </g>
   <g id="line2d_11">
    <path d="M 326.480699 305.320255 
L 326.480699 285.860314 
" clip-path="url(#paa5cd4b36f)" style="fill: none; stroke: #555555; stroke-width: 0.8; stroke-linecap: square"/>
   </g>
   <g id="line2d_12">
    <path d="M 356.272527 305.320255 
L 356.272527 285.860314 
" clip-path="url(#paa5cd4b36f)" style="fill: none; stroke: #555555; stroke-width: 0.8; stroke-linecap: square"/>
   </g>
   <g id="line2d_13">
    <path d="M 101.983368 410.650273 
L 101.983368 391.190333 
" clip-path="url(#paa5cd4b36f)" style="fill: none; stroke: #555555; stroke-width: 0.8; stroke-linecap: square"/>
   </g>
   <g id="line2d_14">
    <path d="M 123.049372 389.584269 
L 123.049372 370.124329 
" clip-path="url(#paa5cd4b36f)" style="fill: none; stroke: #555555; stroke-width: 0.8; stroke-linecap: square"/>
   </g>
   <g id="line2d_15">
    <path d="M 144.115375 368.518266 
L 144.115375 349.058325 
" clip-path="url(#paa5cd4b36f)" style="fill: none; stroke: #555555; stroke-width: 0.8; stroke-linecap: square"/>
   </g>
   <g id="line2d_16">
    <path d="M 165.181379 347.452262 
L 165.181379 327.992321 
" clip-path="url(#paa5cd4b36f)" style="fill: none; stroke: #555555; stroke-width: 0.8; stroke-linecap: square"/>
   </g>
   <g id="line2d_17">
    <path d="M 186.247383 326.386258 
L 186.247383 306.926318 
" clip-path="url(#paa5cd4b36f)" style="fill: none; stroke: #555555; stroke-width: 0.8; stroke-linecap: square"/>
   </g>
   <g id="line2d_18">
    <path d="M 228.37939 284.254251 
L 228.37939 264.79431 
" clip-path="url(#paa5cd4b36f)" style="fill: none; stroke: #555555; stroke-width: 0.8; stroke-linecap: square"/>
   </g>
   <g id="line2d_19">
    <path d="M 249.445394 263.188247 
L 249.445394 243.728307 
" clip-path="url(#paa5cd4b36f)" style="fill: none; stroke: #555555; stroke-width: 0.8; stroke-linecap: square"/>
   </g>
   <g id="line2d_20">
    <path d="M 270.511397 242.122244 
L 270.511397 222.662303 
" clip-path="url(#paa5cd4b36f)" style="fill: none; stroke: #555555; stroke-width: 0.8; stroke-linecap: square"/>
   </g>
   <g id="line2d_21">
    <path d="M 291.577401 221.05624 
L 291.577401 201.596299 
" clip-path="url(#paa5cd4b36f)" style="fill: none; stroke: #555555; stroke-width: 0.8; stroke-linecap: square"/>
   </g>
   <g id="line2d_22">
    <path d="M 312.643405 199.990236 
L 312.643405 180.530296 
" clip-path="url(#paa5cd4b36f)" style="fill: none; stroke: #555555; stroke-width: 0.8; stroke-linecap: square"/>
   </g>
   <g id="line2d_23">
    <path d="M 201.355021 246.940433 
L 213.271752 246.940433 
" clip-path="url(#paa5cd4b36f)" style="fill: none; stroke: #555555; stroke-width: 0.8; stroke-linecap: square"/>
   </g>
   <g id="line2d_24">
    <path d="M 201.355021 198.290581 
L 213.271752 198.290581 
" clip-path="url(#paa5cd4b36f)" style="fill: none; stroke: #555555; stroke-width: 0.8; stroke-linecap: square"/>
   </g>
   <g id="line2d_25">
    <path d="M 201.355021 149.64073 
L 213.271752 149.64073 
" clip-path="url(#paa5cd4b36f)" style="fill: none; stroke: #555555; stroke-width: 0.8; stroke-linecap: square"/>
   </g>
   <g id="line2d_26">
    <path d="M 201.355021 100.990878 
L 213.271752 100.990878 
" clip-path="url(#paa5cd4b36f)" style="fill: none; stroke: #555555; stroke-width: 0.8; stroke-linecap: square"/>
   </g>
   <g id="line2d_27">
    <path d="M 201.355021 52.341027 
L 213.271752 52.341027 
" clip-path="url(#paa5cd4b36f)" style="fill: none; stroke: #555555; stroke-width: 0.8; stroke-linecap: square"/>
   </g>
   <g id="sphere_fill_1406db80">
    <path d="M 258.171218 284.254251 
C 273.653728 284.254251 288.504198 278.102985 299.451986 267.155197 
C 310.399774 256.207409 316.55104 241.356939 316.55104 225.874429 
C 316.55104 210.391919 310.399774 195.541449 299.451986 184.593661 
C 288.504198 173.645874 273.653728 167.494607 258.171218 167.494607 
C 242.688708 167.494607 227.838238 173.645874 216.89045 184.593661 
C 205.942662 195.541449 199.791396 210.391919 199.791396 225.874429 
C 199.791396 241.356939 205.942662 256.207409 216.89045 267.155197 
C 227.838238 278.102985 242.688708 284.254251 258.171218 284.254251 
z
" clip-path="url(#paa5cd4b36f)" style="fill: url(#sg_sphere_fill_1406db80)"/>
   </g>
   <g id="line2d_28">
    <path d="M 301.955714 211.19472 
L 301.836498 209.794878 
L 301.504548 208.473373 
L 300.961483 207.236645 
L 300.209948 206.090718 
L 299.253605 205.041175 
L 298.097113 204.09313 
L 296.746105 203.251201 
L 295.001947 202.435959 
L 293.030714 201.765223 
L 290.844562 201.243129 
L 288.179872 200.84124 
L 285.286799 200.629869 
L 281.866961 200.619285 
L 278.228942 200.84124 
L 274.406239 201.293691 
L 270.066785 202.045202 
L 265.597001 203.057791 
L 261.045858 204.320364 
L 256.46322 205.819088 
L 251.899296 207.537542 
L 247.404087 209.456899 
L 243.026846 211.55613 
L 238.81553 213.812235 
L 234.816279 216.200496 
L 231.072909 218.694747 
L 227.626434 221.26766 
L 224.760292 223.671201 
L 222.201786 226.095029 
L 219.974471 228.516826 
L 218.254356 230.697929 
L 216.838033 232.842322 
L 215.73628 234.933686 
L 215.020641 236.757407 
L 214.57104 238.514031 
L 214.397013 240.010381 
L 214.386722 240.554138 
L 214.386722 240.554138 
" clip-path="url(#pf62c44d1a8)" style="fill: none; stroke-dasharray: 3.375,4.5; stroke-dashoffset: 0; stroke: #d62728; stroke-opacity: 0.3; stroke-width: 1.125"/>
   </g>
   <g id="line2d_29">
    <path d="M 239.491793 176.097448 
L 237.410975 178.34651 
L 235.431298 180.827123 
L 233.562409 183.527203 
L 231.81341 186.433593 
L 230.192825 189.532136 
L 228.708547 192.807734 
L 227.210642 196.684518 
L 225.903619 200.741268 
L 224.795537 204.952972 
L 223.893227 209.293664 
L 223.202252 213.736582 
L 222.726872 218.254333 
L 222.470019 222.819065 
L 222.433275 227.402635 
L 222.616868 231.976782 
L 223.019665 236.513307 
L 223.639183 240.984239 
L 224.471602 245.362014 
L 225.511791 249.619642 
L 226.753336 253.730873 
L 228.188583 257.670359 
L 229.808682 261.413813 
L 231.395906 264.55807 
L 233.113576 267.513863 
L 234.953325 270.266794 
L 236.906188 272.80345 
L 238.962653 275.111472 
L 241.1127 277.179616 
L 243.345854 278.997806 
L 245.651236 280.557185 
L 247.718873 281.703331 
L 249.825501 282.641212 
L 251.963262 283.36733 
L 254.124181 283.878977 
L 256.300197 284.174244 
L 258.483193 284.252028 
L 260.665026 284.112041 
L 262.837555 283.754804 
L 264.992677 283.181649 
L 267.122352 282.394716 
L 269.218635 281.396939 
L 271.273708 280.192041 
L 273.279903 278.784516 
L 275.503256 276.934572 
L 276.850643 275.65141 
L 276.850643 275.65141 
" clip-path="url(#pf62c44d1a8)" style="fill: none; stroke-dasharray: 3.375,4.5; stroke-dashoffset: 0; stroke: #d62728; stroke-opacity: 0.3; stroke-width: 1.125"/>
   </g>
   <g id="text_1">
    <!-- $x$ -->
    <g style="fill: #333333" transform="translate(381.598195 303.472606) scale(0.17 -0.17)">
     <defs>
      <path id="CMMI12-78" d="M 3034 2606 
C 2829 2567 2752 2414 2752 2293 
C 2752 2139 2874 2088 2963 2088 
C 3155 2088 3290 2254 3290 2427 
C 3290 2695 2982 2816 2714 2816 
C 2323 2816 2106 2433 2048 2312 
C 1901 2816 1504 2816 1389 2816 
C 736 2816 390 1980 390 1839 
C 390 1814 416 1782 461 1782 
C 512 1782 525 1820 538 1846 
C 755 2555 1184 2689 1370 2689 
C 1658 2689 1715 2420 1715 2267 
C 1715 2127 1677 1980 1600 1673 
L 1382 798 
C 1286 415 1101 64 762 64 
C 730 64 570 64 435 147 
C 666 192 717 383 717 460 
C 717 588 621 664 499 664 
C 346 664 179 530 179 326 
C 179 57 480 -64 755 -64 
C 1062 -64 1280 179 1414 441 
C 1517 64 1837 -64 2074 -64 
C 2726 -64 3072 773 3072 913 
C 3072 945 3046 971 3008 971 
C 2950 971 2944 939 2925 888 
C 2752 326 2381 64 2093 64 
C 1869 64 1747 230 1747 492 
C 1747 632 1773 734 1875 1156 
L 2099 2024 
C 2195 2408 2413 2689 2707 2689 
C 2720 2689 2899 2689 3034 2606 
z
" transform="scale(0.015625)"/>
     </defs>
     <use xlink:href="#CMMI12-78" transform="scale(0.996264)"/>
    </g>
   </g>
   <g id="text_2">
    <!-- $y$ -->
    <g style="fill: #333333" transform="translate(329.753779 173.340522) scale(0.17 -0.17)">
     <defs>
      <path id="CMMI12-79" d="M 1683 -700 
C 1510 -939 1261 -1152 947 -1152 
C 870 -1152 563 -1152 467 -889 
C 486 -895 518 -895 531 -895 
C 723 -895 851 -729 851 -582 
C 851 -435 730 -384 634 -384 
C 531 -384 307 -458 307 -759 
C 307 -1071 582 -1286 947 -1286 
C 1587 -1286 2234 -700 2413 6 
L 3040 2485 
C 3046 2517 3059 2556 3059 2594 
C 3059 2689 2982 2753 2886 2753 
C 2829 2753 2694 2727 2643 2535 
L 2170 658 
C 2138 543 2138 530 2086 460 
C 1958 281 1747 64 1440 64 
C 1082 64 1050 415 1050 588 
C 1050 952 1222 1443 1395 1903 
C 1466 2088 1504 2178 1504 2305 
C 1504 2574 1312 2816 998 2816 
C 410 2816 173 1890 173 1839 
C 173 1814 198 1782 243 1782 
C 301 1782 307 1807 333 1897 
C 486 2433 730 2689 979 2689 
C 1037 2689 1146 2689 1146 2478 
C 1146 2312 1075 2127 979 1884 
C 666 1047 666 837 666 683 
C 666 77 1101 -64 1421 -64 
C 1606 -64 1837 -6 2061 230 
L 2067 224 
C 1971 -147 1907 -392 1683 -700 
z
" transform="scale(0.015625)"/>
     </defs>
     <use xlink:href="#CMMI12-79" transform="scale(0.996264)"/>
    </g>
   </g>
   <g id="text_3">
    <!-- $z$ -->
    <g style="fill: #333333" transform="translate(203.461551 15.222235) scale(0.17 -0.17)">
     <defs>
      <path id="CMMI12-7a" d="M 813 486 
C 1088 803 1312 1004 1632 1296 
C 2016 1632 2182 1793 2272 1891 
C 2720 2338 2944 2713 2944 2764 
C 2944 2816 2893 2816 2880 2816 
C 2835 2816 2822 2793 2790 2750 
C 2630 2494 2477 2367 2310 2367 
C 2176 2367 2106 2421 1984 2565 
C 1850 2715 1741 2816 1555 2816 
C 1088 2816 806 2257 806 2128 
C 806 2108 813 2068 870 2068 
C 922 2068 928 2091 947 2133 
C 1056 2372 1363 2414 1485 2414 
C 1619 2414 1747 2376 1882 2327 
C 2125 2240 2227 2240 2291 2240 
C 2336 2240 2362 2240 2394 2246 
C 2182 1994 1837 1683 1549 1418 
L 902 816 
C 512 415 275 33 275 -12 
C 275 -51 307 -64 346 -64 
C 384 -64 390 -57 435 14 
C 538 163 742 384 979 384 
C 1114 384 1178 342 1306 193 
C 1427 61 1536 -64 1741 -64 
C 2368 -64 2726 732 2726 876 
C 2726 903 2720 942 2656 942 
C 2605 942 2598 917 2579 855 
C 2438 488 2061 338 1811 338 
C 1677 338 1549 376 1414 425 
C 1158 512 1088 512 1005 512 
C 941 512 870 512 813 486 
z
" transform="scale(0.015625)"/>
     </defs>
     <use xlink:href="#CMMI12-7a" transform="scale(0.996264)"/>
    </g>
   </g>
   <g id="line2d_30">
    <defs>
     <path id="m6d2865cef1" d="M 0 1.5 
C 0.397805 1.5 0.77937 1.341951 1.06066 1.06066 
C 1.341951 0.77937 1.5 0.397805 1.5 0 
C 1.5 -0.397805 1.341951 -0.77937 1.06066 -1.06066 
C 0.77937 -1.341951 0.397805 -1.5 0 -1.5 
C -0.397805 -1.5 -0.77937 -1.341951 -1.06066 -1.06066 
C -1.341951 -0.77937 -1.5 -0.397805 -1.5 0 
C -1.5 0.397805 -1.341951 0.77937 -1.06066 1.06066 
C -0.77937 1.341951 -0.397805 1.5 0 1.5 
z
" style="stroke: #333333"/>
    </defs>
    <g clip-path="url(#paa5cd4b36f)">
     <use xlink:href="#m6d2865cef1" x="207.313386" y="295.590284" style="fill: #333333; stroke: #333333"/>
    </g>
   </g>
   <g id="text_4">
    <!-- -5 -->
    <g style="fill: #555555" transform="translate(53.788026 310.984607) scale(0.11 -0.11)">
     <defs>
      <path id="CMSS17-2d" d="M 1664 1216 
L 1664 1585 
L 64 1585 
L 64 1216 
L 1664 1216 
z
" transform="scale(0.015625)"/>
      <path id="CMSS17-35" d="M 934 3752 
L 2502 3752 
L 2502 4160 
L 467 4160 
L 467 1781 
L 896 1781 
C 1011 2046 1248 2240 1555 2240 
C 1843 2240 2163 1989 2163 1266 
C 2163 493 1709 267 1376 267 
C 966 267 589 512 422 851 
L 218 499 
C 512 49 992 -128 1376 -128 
C 2118 -128 2701 497 2701 1253 
C 2701 2030 2182 2629 1562 2629 
C 1338 2629 1120 2553 934 2399 
L 934 3752 
z
" transform="scale(0.015625)"/>
     </defs>
     <use xlink:href="#CMSS17-2d" transform="scale(0.996264)"/>
     <use xlink:href="#CMSS17-35" transform="translate(31.229113 0) scale(0.996264)"/>
    </g>
   </g>
   <g id="text_5">
    <!-- -4 -->
    <g style="fill: #555555" transform="translate(83.579854 310.984607) scale(0.11 -0.11)">
     <defs>
      <path id="CMSS17-34" d="M 2253 1088 
L 2835 1088 
L 2835 1477 
L 2253 1477 
L 2253 4192 
L 1690 4192 
L 166 1477 
L 166 1088 
L 1747 1088 
L 1747 0 
L 2253 0 
L 2253 1088 
z
M 659 1477 
C 1030 2127 1766 3439 1766 3885 
L 1766 1477 
L 659 1477 
z
" transform="scale(0.015625)"/>
     </defs>
     <use xlink:href="#CMSS17-2d" transform="scale(0.996264)"/>
     <use xlink:href="#CMSS17-34" transform="translate(31.229113 0) scale(0.996264)"/>
    </g>
   </g>
   <g id="text_6">
    <!-- -3 -->
    <g style="fill: #555555" transform="translate(113.371682 310.984607) scale(0.11 -0.11)">
     <defs>
      <path id="CMSS17-33" d="M 1005 2025 
L 1440 2025 
C 2042 2025 2214 1507 2214 1146 
C 2214 653 1933 267 1472 267 
C 1114 267 608 444 320 912 
C 275 691 275 678 250 526 
C 550 88 1037 -128 1485 -128 
C 2214 -128 2752 473 2752 1138 
C 2752 1638 2400 2057 1920 2215 
C 2304 2424 2586 2816 2586 3273 
C 2586 3805 2093 4229 1491 4229 
C 941 4229 512 3892 333 3530 
C 378 3468 493 3284 550 3189 
C 691 3562 1056 3840 1485 3840 
C 1843 3840 2080 3607 2080 3271 
C 2080 2923 1856 2543 1478 2455 
C 1453 2455 1056 2417 1005 2411 
L 1005 2025 
z
" transform="scale(0.015625)"/>
     </defs>
     <use xlink:href="#CMSS17-2d" transform="scale(0.996264)"/>
     <use xlink:href="#CMSS17-33" transform="translate(31.229113 0) scale(0.996264)"/>
    </g>
   </g>
   <g id="text_7">
    <!-- -2 -->
    <g style="fill: #555555" transform="translate(143.16351 310.984607) scale(0.11 -0.11)">
     <defs>
      <path id="CMSS17-32" d="M 1651 1357 
C 1830 1541 2099 1764 2285 1987 
C 2464 2204 2701 2511 2701 2957 
C 2701 3657 2227 4288 1421 4288 
C 787 4288 422 3893 250 3274 
L 499 2929 
C 640 3510 838 3880 1338 3880 
C 1888 3880 2195 3433 2195 2942 
C 2195 2355 1747 1901 1408 1563 
C 1030 1187 659 804 301 408 
L 301 0 
L 2701 0 
L 2701 433 
L 1613 433 
C 1536 433 1459 433 1382 433 
L 742 433 
L 742 439 
L 1651 1357 
z
" transform="scale(0.015625)"/>
     </defs>
     <use xlink:href="#CMSS17-2d" transform="scale(0.996264)"/>
     <use xlink:href="#CMSS17-32" transform="translate(31.229113 0) scale(0.996264)"/>
    </g>
   </g>
   <g id="text_8">
    <!-- -1 -->
    <g style="fill: #555555" transform="translate(172.955338 310.984607) scale(0.11 -0.11)">
     <defs>
      <path id="CMSS17-31" d="M 1818 4288 
L 1696 4288 
C 1350 3940 947 3890 538 3890 
L 538 3520 
C 723 3520 1024 3520 1325 3667 
L 1325 369 
L 570 369 
L 570 0 
L 2573 0 
L 2573 369 
L 1818 369 
L 1818 4288 
z
" transform="scale(0.015625)"/>
     </defs>
     <use xlink:href="#CMSS17-2d" transform="scale(0.996264)"/>
     <use xlink:href="#CMSS17-31" transform="translate(31.229113 0) scale(0.996264)"/>
    </g>
   </g>
   <g id="text_9">
    <!-- 1 -->
    <g style="fill: #555555" transform="translate(234.365481 310.984607) scale(0.11 -0.11)">
     <use xlink:href="#CMSS17-31" transform="scale(0.996264)"/>
    </g>
   </g>
   <g id="text_10">
    <!-- 2 -->
    <g style="fill: #555555" transform="translate(264.157309 310.984607) scale(0.11 -0.11)">
     <use xlink:href="#CMSS17-32" transform="scale(0.996264)"/>
    </g>
   </g>
   <g id="text_11">
    <!-- 3 -->
    <g style="fill: #555555" transform="translate(293.949137 310.984607) scale(0.11 -0.11)">
     <use xlink:href="#CMSS17-33" transform="scale(0.996264)"/>
    </g>
   </g>
   <g id="text_12">
    <!-- 4 -->
    <g style="fill: #555555" transform="translate(323.740965 310.984607) scale(0.11 -0.11)">
     <use xlink:href="#CMSS17-34" transform="scale(0.996264)"/>
    </g>
   </g>
   <g id="text_13">
    <!-- 5 -->
    <g style="fill: #555555" transform="translate(353.532793 310.984607) scale(0.11 -0.11)">
     <use xlink:href="#CMSS17-35" transform="scale(0.996264)"/>
    </g>
   </g>
   <g id="text_14">
    <!-- -5 -->
    <g style="fill: #555555" transform="translate(106.848353 416.314626) scale(0.11 -0.11)">
     <use xlink:href="#CMSS17-2d" transform="scale(0.996264)"/>
     <use xlink:href="#CMSS17-35" transform="translate(31.229113 0) scale(0.996264)"/>
    </g>
   </g>
   <g id="text_15">
    <!-- -4 -->
    <g style="fill: #555555" transform="translate(127.914357 395.248622) scale(0.11 -0.11)">
     <use xlink:href="#CMSS17-2d" transform="scale(0.996264)"/>
     <use xlink:href="#CMSS17-34" transform="translate(31.229113 0) scale(0.996264)"/>
    </g>
   </g>
   <g id="text_16">
    <!-- -3 -->
    <g style="fill: #555555" transform="translate(148.98036 374.182618) scale(0.11 -0.11)">
     <use xlink:href="#CMSS17-2d" transform="scale(0.996264)"/>
     <use xlink:href="#CMSS17-33" transform="translate(31.229113 0) scale(0.996264)"/>
    </g>
   </g>
   <g id="text_17">
    <!-- -2 -->
    <g style="fill: #555555" transform="translate(170.046364 353.116615) scale(0.11 -0.11)">
     <use xlink:href="#CMSS17-2d" transform="scale(0.996264)"/>
     <use xlink:href="#CMSS17-32" transform="translate(31.229113 0) scale(0.996264)"/>
    </g>
   </g>
   <g id="text_18">
    <!-- -1 -->
    <g style="fill: #555555" transform="translate(191.112368 332.050611) scale(0.11 -0.11)">
     <use xlink:href="#CMSS17-2d" transform="scale(0.996264)"/>
     <use xlink:href="#CMSS17-31" transform="translate(31.229113 0) scale(0.996264)"/>
    </g>
   </g>
   <g id="text_19">
    <!-- 1 -->
    <g style="fill: #555555" transform="translate(233.244375 289.918604) scale(0.11 -0.11)">
     <use xlink:href="#CMSS17-31" transform="scale(0.996264)"/>
    </g>
   </g>
   <g id="text_20">
    <!-- 2 -->
    <g style="fill: #555555" transform="translate(254.310379 268.8526) scale(0.11 -0.11)">
     <use xlink:href="#CMSS17-32" transform="scale(0.996264)"/>
    </g>
   </g>
   <g id="text_21">
    <!-- 3 -->
    <g style="fill: #555555" transform="translate(275.376382 247.786596) scale(0.11 -0.11)">
     <use xlink:href="#CMSS17-33" transform="scale(0.996264)"/>
    </g>
   </g>
   <g id="text_22">
    <!-- 4 -->
    <g style="fill: #555555" transform="translate(296.442386 226.720593) scale(0.11 -0.11)">
     <use xlink:href="#CMSS17-34" transform="scale(0.996264)"/>
    </g>
   </g>
   <g id="text_23">
    <!-- 5 -->
    <g style="fill: #555555" transform="translate(317.50839 205.654589) scale(0.11 -0.11)">
     <use xlink:href="#CMSS17-35" transform="scale(0.996264)"/>
    </g>
   </g>
   <g id="text_24">
    <!-- 1 -->
    <g style="fill: #555555" transform="translate(193.443061 249.680159) scale(0.11 -0.11)">
     <use xlink:href="#CMSS17-31" transform="scale(0.996264)"/>
    </g>
   </g>
   <g id="text_25">
    <!-- 2 -->
    <g style="fill: #555555" transform="translate(193.443061 201.030307) scale(0.11 -0.11)">
     <use xlink:href="#CMSS17-32" transform="scale(0.996264)"/>
    </g>
   </g>
   <g id="text_26">
    <!-- 3 -->
    <g style="fill: #555555" transform="translate(193.443061 152.380456) scale(0.11 -0.11)">
     <use xlink:href="#CMSS17-33" transform="scale(0.996264)"/>
    </g>
   </g>
   <g id="text_27">
    <!-- 4 -->
    <g style="fill: #555555" transform="translate(193.443061 103.730604) scale(0.11 -0.11)">
     <use xlink:href="#CMSS17-34" transform="scale(0.996264)"/>
    </g>
   </g>
   <g id="text_28">
    <!-- 5 -->
    <g style="fill: #555555" transform="translate(193.443061 55.080753) scale(0.11 -0.11)">
     <use xlink:href="#CMSS17-35" transform="scale(0.996264)"/>
    </g>
   </g>
   <g id="line2d_31">
    <path d="M 293.921412 225.874429 
L 294.14065 225.653829 
L 294.35715 225.433246 
L 294.570894 225.212697 
L 294.781865 224.992198 
L 294.990049 224.771766 
L 295.195429 224.551418 
L 295.397989 224.331171 
L 295.597714 224.111041 
L 295.794589 223.891046 
L 295.988599 223.671201 
L 296.179729 223.451525 
L 296.367965 223.232033 
L 296.553292 223.012742 
L 296.735695 222.793669 
L 296.915162 222.574831 
L 297.091679 222.356244 
L 297.265231 222.137925 
L 297.435806 221.91989 
L 297.603392 221.702157 
L 297.767974 221.484741 
L 297.929541 221.26766 
L 298.08808 221.05093 
L 298.243579 220.834566 
L 298.396026 220.618587 
L 298.545411 220.403008 
L 298.69172 220.187845 
L 298.834944 219.973116 
L 298.975071 219.758836 
L 299.112091 219.545022 
L 299.245993 219.33169 
L 299.376767 219.118856 
L 299.504403 218.906536 
L 299.628891 218.694747 
L 299.750222 218.483505 
L 299.868387 218.272826 
L 299.983377 218.062725 
L 300.095182 217.85322 
L 300.203794 217.644325 
L 300.309206 217.436057 
L 300.411408 217.228432 
L 300.510394 217.021465 
L 300.606156 216.815173 
L 300.698686 216.60957 
L 300.787977 216.404673 
L 300.874023 216.200496 
L 300.956817 215.997057 
L 301.036353 215.79437 
L 301.112624 215.59245 
L 301.185625 215.391314 
L 301.25535 215.190976 
L 301.321795 214.991451 
L 301.384953 214.792755 
L 301.444821 214.594903 
L 301.501393 214.397911 
L 301.554665 214.201792 
L 301.604633 214.006562 
L 301.651294 213.812235 
L 301.694644 213.618828 
L 301.734679 213.426353 
L 301.771396 213.234827 
L 301.804793 213.044263 
L 301.834868 212.854676 
L 301.861617 212.666081 
L 301.885039 212.478492 
L 301.905132 212.291923 
L 301.921895 212.106388 
L 301.935326 211.921901 
L 301.945424 211.738477 
L 301.952188 211.55613 
L 301.955618 211.374873 
L 301.955714 211.19472 
" clip-path="url(#pf62c44d1a8)" style="fill: none; stroke: #d62728; stroke-opacity: 0.7; stroke-width: 1.625; stroke-linecap: round"/>
   </g>
   <g id="line2d_32">
    <path d="M 214.386722 240.554138 
L 214.505938 241.953981 
L 214.837888 243.275485 
L 215.380953 244.512214 
L 216.132488 245.658141 
L 217.088831 246.707684 
L 218.245324 247.655729 
L 219.596331 248.497658 
L 221.34049 249.312899 
L 223.311722 249.983635 
L 225.497874 250.505729 
L 228.162564 250.907618 
L 231.055637 251.118989 
L 234.475475 251.129573 
L 238.113494 250.907618 
L 241.936197 250.455167 
L 246.275651 249.703656 
L 250.745435 248.691067 
L 255.296578 247.428494 
L 259.879216 245.92977 
L 264.44314 244.211316 
L 268.938349 242.291959 
L 273.31559 240.192728 
L 277.526906 237.936623 
L 281.526158 235.548362 
L 285.269527 233.054111 
L 288.716002 230.481198 
L 291.582144 228.077657 
L 293.921412 225.874429 
L 293.921412 225.874429 
" clip-path="url(#pf62c44d1a8)" style="fill: none; stroke: #d62728; stroke-opacity: 0.7; stroke-width: 1.625; stroke-linecap: round"/>
   </g>
   <g id="line2d_33">
    <path d="M 293.921412 225.874429 
L 293.811206 221.294001 
L 293.481268 216.741813 
L 292.933631 212.24593 
L 292.171673 207.834072 
L 291.20009 203.533439 
L 290.024874 199.370545 
L 288.653269 195.371056 
L 287.093732 191.559631 
L 285.355879 187.959768 
L 283.67006 184.955471 
L 281.860013 182.150528 
L 279.934557 179.558602 
L 277.903072 177.192323 
L 275.775456 175.063219 
L 273.562073 173.181661 
L 271.273708 171.556817 
L 269.218635 170.351919 
L 267.122352 169.354142 
L 264.992677 168.567209 
L 262.837555 167.994055 
L 260.665026 167.636818 
L 258.483193 167.49683 
L 256.300197 167.574615 
L 254.124181 167.869881 
L 251.963262 168.381528 
L 249.825501 169.107646 
L 247.718873 170.045528 
L 245.651236 171.191674 
L 243.630304 172.541808 
L 241.387519 174.328106 
L 239.491793 176.097448 
L 239.491793 176.097448 
" clip-path="url(#pf62c44d1a8)" style="fill: none; stroke: #d62728; stroke-opacity: 0.7; stroke-width: 1.625; stroke-linecap: round"/>
   </g>
   <g id="line2d_34">
    <path d="M 276.850643 275.65141 
L 277.115934 275.383326 
L 277.379783 275.111472 
L 277.642169 274.835868 
L 277.903072 274.556535 
L 278.162473 274.273495 
L 278.420351 273.986769 
L 278.676687 273.69638 
L 278.931461 273.402348 
L 279.184655 273.104697 
L 279.436248 272.80345 
L 279.686222 272.498628 
L 279.934557 272.190256 
L 280.181235 271.878357 
L 280.426237 271.562954 
L 280.669544 271.244072 
L 280.911138 270.921735 
L 281.151 270.595967 
L 281.389112 270.266794 
L 281.625455 269.93424 
L 281.860013 269.598331 
L 282.092767 269.259092 
L 282.323699 268.916549 
L 282.552792 268.570728 
L 282.780027 268.221656 
L 283.005389 267.869359 
L 283.22886 267.513863 
L 283.450422 267.155197 
L 283.67006 266.793387 
L 283.887755 266.428461 
L 284.103492 266.060447 
L 284.317255 265.689372 
L 284.529026 265.315265 
L 284.73879 264.938155 
L 284.94653 264.55807 
L 285.152232 264.175038 
L 285.355879 263.789091 
L 285.557455 263.400255 
L 285.756946 263.008562 
L 285.954337 262.614042 
L 286.149611 262.216723 
L 286.342755 261.816636 
L 286.533754 261.413813 
L 286.722592 261.008283 
L 286.909257 260.600078 
L 287.093732 260.189228 
L 287.276006 259.775764 
L 287.456062 259.359719 
L 287.633889 258.941124 
L 287.809472 258.520011 
L 287.982798 258.096412 
L 288.153853 257.670359 
L 288.322626 257.241885 
L 288.489102 256.811021 
L 288.653269 256.377802 
L 288.815115 255.94226 
L 288.974627 255.504428 
L 289.131794 255.06434 
L 289.286603 254.622029 
L 289.439042 254.177528 
L 289.5891 253.730873 
L 289.736766 253.282095 
L 289.882027 252.831231 
L 290.024874 252.378314 
L 290.165295 251.923378 
L 290.303279 251.466459 
L 290.438817 251.00759 
L 290.571897 250.546808 
L 290.70251 250.084147 
L 290.830645 249.619642 
L 290.956293 249.153329 
L 291.079445 248.685243 
L 291.20009 248.21542 
L 291.31822 247.743895 
L 291.433826 247.270706 
L 291.546899 246.795886 
L 291.65743 246.319474 
L 291.765411 245.841504 
L 291.870834 245.362014 
L 291.97369 244.88104 
L 292.073972 244.398619 
L 292.171673 243.914786 
L 292.266784 243.42958 
L 292.359298 242.943037 
L 292.449209 242.455194 
L 292.53651 241.966089 
L 292.621193 241.475758 
L 292.703253 240.984239 
L 292.782684 240.491569 
L 292.859478 239.997786 
L 292.933631 239.502928 
L 293.005137 239.007032 
L 293.073989 238.510135 
L 293.140184 238.012277 
L 293.203716 237.513494 
L 293.26458 237.013824 
L 293.322771 236.513307 
L 293.378286 236.011979 
L 293.431119 235.509879 
L 293.481268 235.007045 
L 293.528727 234.503516 
L 293.573493 233.99933 
L 293.615564 233.494525 
L 293.654935 232.98914 
L 293.691604 232.483213 
L 293.725568 231.976782 
L 293.756825 231.469887 
L 293.785372 230.962566 
L 293.811206 230.454857 
L 293.834326 229.9468 
L 293.85473 229.438432 
L 293.872417 228.929793 
L 293.887386 228.420921 
L 293.899634 227.911856 
L 293.909161 227.402635 
L 293.915967 226.893298 
L 293.920051 226.383883 
L 293.921412 225.874429 
" clip-path="url(#pf62c44d1a8)" style="fill: none; stroke: #d62728; stroke-opacity: 0.7; stroke-width: 1.625; stroke-linecap: round"/>
   </g>
   <g id="line2d_35">
    <path d="M 207.313386 295.590284 
L 207.313386 295.590284 
L 338.820878 107.508722 
" clip-path="url(#paa5cd4b36f)" style="fill: none; stroke: #1f77b4; stroke-width: 2.5; stroke-linecap: round"/>
   </g>
   <g id="patch_5">
    <path d="M 258.171218 284.254251 
C 273.653728 284.254251 288.504198 278.102985 299.451986 267.155197 
C 310.399774 256.207409 316.55104 241.356939 316.55104 225.874429 
C 316.55104 210.391919 310.399774 195.541449 299.451986 184.593661 
C 288.504198 173.645874 273.653728 167.494607 258.171218 167.494607 
C 242.688708 167.494607 227.838238 173.645874 216.89045 184.593661 
C 205.942662 195.541449 199.791396 210.391919 199.791396 225.874429 
C 199.791396 241.356939 205.942662 256.207409 216.89045 267.155197 
C 227.838238 278.102985 242.688708 284.254251 258.171218 284.254251 
L 258.171218 284.254251 
z
" clip-path="url(#paa5cd4b36f)" style="fill: none; stroke: #d62728; stroke-width: 2.5; stroke-linejoin: miter"/>
   </g>
   <g id="line2d_36">
    <defs>
     <path id="mf6cf887cb0" d="M 0 2.5 
C 0.663008 2.5 1.29895 2.236584 1.767767 1.767767 
C 2.236584 1.29895 2.5 0.663008 2.5 0 
C 2.5 -0.663008 2.236584 -1.29895 1.767767 -1.767767 
C 1.29895 -2.236584 0.663008 -2.5 0 -2.5 
C -0.663008 -2.5 -1.29895 -2.236584 -1.767767 -1.767767 
C -2.236584 -1.29895 -2.5 -0.663008 -2.5 0 
C -2.5 0.663008 -2.236584 1.29895 -1.767767 1.767767 
C -1.29895 2.236584 -0.663008 2.5 0 2.5 
z
" style="stroke: #1f77b4"/>
    </defs>
    <g clip-path="url(#paa5cd4b36f)">
     <use xlink:href="#mf6cf887cb0" x="338.820878" y="107.508722" style="fill: #1f77b4; stroke: #1f77b4"/>
    </g>
   </g>
  </g>
 </g>
 <defs>
  <clipPath id="paa5cd4b36f">
   <rect x="42.58967" y="4.306009" width="346.820659" height="425.693991"/>
  </clipPath>
  <clipPath id="pf62c44d1a8">
   <path d="M 258.171218 284.254251 
C 273.653728 284.254251 288.504198 278.102985 299.451986 267.155197 
C 310.399774 256.207409 316.55104 241.356939 316.55104 225.874429 
C 316.55104 210.391919 310.399774 195.541449 299.451986 184.593661 
C 288.504198 173.645874 273.653728 167.494607 258.171218 167.494607 
C 242.688708 167.494607 227.838238 173.645874 216.89045 184.593661 
C 205.942662 195.541449 199.791396 210.391919 199.791396 225.874429 
C 199.791396 241.356939 205.942662 256.207409 216.89045 267.155197 
C 227.838238 278.102985 242.688708 284.254251 258.171218 284.254251 
z
"/>
  </clipPath>
 </defs>
</svg>
