<?xml version="1.0" encoding="utf-8" standalone="no"?>
<!DOCTYPE svg PUBLIC "-//W3C//DTD SVG 1.1//EN"
  "http://www.w3.org/Graphics/SVG/1.1/DTD/svg11.dtd">
<svg xmlns:xlink="http://www.w3.org/1999/xlink" viewBox="0 0 460.8 345.6" xmlns="http://www.w3.org/2000/svg" version="1.1" class="graph-inline-svg" role="img" aria-label="Tilpasset figur">
 <metadata>
  <rdf:RDF xmlns:dc="http://purl.org/dc/elements/1.1/" xmlns:cc="http://creativecommons.org/ns#" xmlns:rdf="http://www.w3.org/1999/02/22-rdf-syntax-ns#">
   <cc:Work>
    <dc:type rdf:resource="http://purl.org/dc/dcmitype/StillImage"/>
    <dc:date>2026-03-27T23:10:36.950236</dc:date>
    <dc:format>image/svg+xml</dc:format>
    <dc:creator>
     <cc:Agent>
      <dc:title>Matplotlib v3.10.8, https://matplotlib.org/</dc:title>
     </cc:Agent>
    </dc:creator>
   </cc:Work>
  </rdf:RDF>
 </metadata>
 <defs>
  <style type="text/css">*{stroke-linejoin: round; stroke-linecap: butt}</style>
 </defs>
 <g id="g0f0020_74e0ec_figure_1">
  <g id="g0f0020_74e0ec_patch_1">
   <path d="M 0 345.6 
L 460.8 345.6 
L 460.8 0 
L 0 0 
L 0 345.6 
z
" style="fill: none"/>
  </g>
  <g id="g0f0020_74e0ec_axes_1">
   <g id="g0f0020_74e0ec_patch_2">
    <path d="M 10.8 334.8 
L 447 334.8 
L 447 20.016315 
L 10.8 20.016315 
L 10.8 334.8 
z
" style="fill: none"/>
   </g>
   <g id="g0f0020_74e0ec_matplotlib.axis_1">
    <g id="g0f0020_74e0ec_xtick_1">
     <g id="g0f0020_74e0ec_line2d_1">
      <path d="M 47.15 334.8 
L 47.15 20.016315 
" clip-path="url(#g0f0020_74e0ec_pfbb086fa16)" style="fill: none; stroke-dasharray: 2.96,1.28; stroke-dashoffset: 0; stroke: #b0b0b0; stroke-opacity: 0.6; stroke-width: 0.8"/>
     </g>
     <g id="g0f0020_74e0ec_line2d_2">
      <defs>
       <path id="g0f0020_74e0ec_mb8c60cd013" d="M 0 0 
L 0 3.5 
" style="stroke: #000000; stroke-width: 0.8"/>
      </defs>
      <g>
       <use xlink:href="#g0f0020_74e0ec_mb8c60cd013" x="47.15" y="177.408158" style="stroke: #000000; stroke-width: 0.8"/>
      </g>
     </g>
     <g id="g0f0020_74e0ec_text_1">
      <!-- $\mathdefault{−5}$ -->
      <g transform="translate(34.832209 198.245154) scale(0.2 -0.2)">
       <defs>
        <path id="g0f0020_74e0ec_CMSY10-0" d="M 4218 1472 
C 4326 1472 4442 1472 4442 1600 
C 4442 1728 4326 1728 4218 1728 
L 755 1728 
C 646 1728 531 1728 531 1600 
C 531 1472 646 1472 755 1472 
L 4218 1472 
z
" transform="scale(0.015625)"/>
        <path id="g0f0020_74e0ec_CMR17-35" d="M 730 3692 
C 794 3666 1056 3584 1325 3584 
C 1920 3584 2246 3911 2432 4100 
C 2432 4157 2432 4192 2394 4192 
C 2387 4192 2374 4192 2323 4163 
C 2099 4058 1837 3973 1517 3973 
C 1325 3973 1037 3999 723 4139 
C 653 4171 640 4171 634 4171 
C 602 4171 595 4164 595 4037 
L 595 2203 
C 595 2089 595 2057 659 2057 
C 691 2057 704 2070 736 2114 
C 941 2401 1222 2522 1542 2522 
C 1766 2522 2246 2382 2246 1289 
C 2246 1085 2246 715 2054 421 
C 1894 159 1645 25 1370 25 
C 947 25 518 320 403 814 
C 429 807 480 795 506 795 
C 589 795 749 840 749 1038 
C 749 1210 627 1280 506 1280 
C 358 1280 262 1190 262 1011 
C 262 454 704 -128 1382 -128 
C 2042 -128 2669 440 2669 1264 
C 2669 2030 2170 2624 1549 2624 
C 1222 2624 947 2503 730 2274 
L 730 3692 
z
" transform="scale(0.015625)"/>
       </defs>
       <use xlink:href="#g0f0020_74e0ec_CMSY10-0" transform="scale(0.996264)"/>
       <use xlink:href="#g0f0020_74e0ec_CMR17-35" transform="translate(77.487468 0) scale(0.996264)"/>
      </g>
     </g>
    </g>
    <g id="g0f0020_74e0ec_xtick_2">
     <g id="g0f0020_74e0ec_line2d_3">
      <path d="M 83.5 334.8 
L 83.5 20.016315 
" clip-path="url(#g0f0020_74e0ec_pfbb086fa16)" style="fill: none; stroke-dasharray: 2.96,1.28; stroke-dashoffset: 0; stroke: #b0b0b0; stroke-opacity: 0.6; stroke-width: 0.8"/>
     </g>
     <g id="g0f0020_74e0ec_line2d_4">
      <g>
       <use xlink:href="#g0f0020_74e0ec_mb8c60cd013" x="83.5" y="177.408158" style="stroke: #000000; stroke-width: 0.8"/>
      </g>
     </g>
     <g id="g0f0020_74e0ec_text_2">
      <!-- $\mathdefault{−4}$ -->
      <g transform="translate(71.182209 198.245154) scale(0.2 -0.2)">
       <defs>
        <path id="g0f0020_74e0ec_CMR17-34" d="M 2150 4122 
C 2150 4256 2144 4256 2029 4256 
L 128 1254 
L 128 1088 
L 1779 1088 
L 1779 457 
C 1779 224 1766 160 1318 160 
L 1197 160 
L 1197 0 
C 1402 0 1747 0 1965 0 
C 2182 0 2528 0 2733 0 
L 2733 160 
L 2611 160 
C 2163 160 2150 224 2150 457 
L 2150 1088 
L 2803 1088 
L 2803 1254 
L 2150 1254 
L 2150 4122 
z
M 1798 3703 
L 1798 1254 
L 256 1254 
L 1798 3703 
z
" transform="scale(0.015625)"/>
       </defs>
       <use xlink:href="#g0f0020_74e0ec_CMSY10-0" transform="scale(0.996264)"/>
       <use xlink:href="#g0f0020_74e0ec_CMR17-34" transform="translate(77.487468 0) scale(0.996264)"/>
      </g>
     </g>
    </g>
    <g id="g0f0020_74e0ec_xtick_3">
     <g id="g0f0020_74e0ec_line2d_5">
      <path d="M 119.85 334.8 
L 119.85 20.016315 
" clip-path="url(#g0f0020_74e0ec_pfbb086fa16)" style="fill: none; stroke-dasharray: 2.96,1.28; stroke-dashoffset: 0; stroke: #b0b0b0; stroke-opacity: 0.6; stroke-width: 0.8"/>
     </g>
     <g id="g0f0020_74e0ec_line2d_6">
      <g>
       <use xlink:href="#g0f0020_74e0ec_mb8c60cd013" x="119.85" y="177.408158" style="stroke: #000000; stroke-width: 0.8"/>
      </g>
     </g>
     <g id="g0f0020_74e0ec_text_3">
      <!-- $\mathdefault{−3}$ -->
      <g transform="translate(107.532209 198.245154) scale(0.2 -0.2)">
       <defs>
        <path id="g0f0020_74e0ec_CMR17-33" d="M 1414 2157 
C 1984 2157 2234 1662 2234 1090 
C 2234 320 1824 25 1453 25 
C 1114 25 563 194 390 693 
C 422 680 454 680 486 680 
C 640 680 755 782 755 948 
C 755 1133 614 1216 486 1216 
C 378 1216 211 1165 211 926 
C 211 335 787 -128 1466 -128 
C 2176 -128 2720 430 2720 1085 
C 2720 1707 2208 2157 1600 2227 
C 2086 2328 2554 2756 2554 3329 
C 2554 3820 2048 4179 1472 4179 
C 890 4179 378 3829 378 3329 
C 378 3110 544 3072 627 3072 
C 762 3072 877 3155 877 3321 
C 877 3486 762 3569 627 3569 
C 602 3569 570 3569 544 3557 
C 730 3959 1235 4032 1459 4032 
C 1683 4032 2106 3925 2106 3320 
C 2106 3143 2080 2828 1862 2550 
C 1670 2304 1453 2304 1242 2284 
C 1210 2284 1062 2269 1037 2269 
C 992 2263 966 2257 966 2208 
C 966 2163 973 2157 1101 2157 
L 1414 2157 
z
" transform="scale(0.015625)"/>
       </defs>
       <use xlink:href="#g0f0020_74e0ec_CMSY10-0" transform="scale(0.996264)"/>
       <use xlink:href="#g0f0020_74e0ec_CMR17-33" transform="translate(77.487468 0) scale(0.996264)"/>
      </g>
     </g>
    </g>
    <g id="g0f0020_74e0ec_xtick_4">
     <g id="g0f0020_74e0ec_line2d_7">
      <path d="M 156.2 334.8 
L 156.2 20.016315 
" clip-path="url(#g0f0020_74e0ec_pfbb086fa16)" style="fill: none; stroke-dasharray: 2.96,1.28; stroke-dashoffset: 0; stroke: #b0b0b0; stroke-opacity: 0.6; stroke-width: 0.8"/>
     </g>
     <g id="g0f0020_74e0ec_line2d_8">
      <g>
       <use xlink:href="#g0f0020_74e0ec_mb8c60cd013" x="156.2" y="177.408158" style="stroke: #000000; stroke-width: 0.8"/>
      </g>
     </g>
     <g id="g0f0020_74e0ec_text_4">
      <!-- $\mathdefault{−2}$ -->
      <g transform="translate(143.882209 198.245154) scale(0.2 -0.2)">
       <defs>
        <path id="g0f0020_74e0ec_CMR17-32" d="M 2669 989 
L 2554 989 
C 2490 536 2438 459 2413 420 
C 2381 369 1920 369 1830 369 
L 602 369 
C 832 619 1280 1072 1824 1597 
C 2214 1967 2669 2402 2669 3035 
C 2669 3790 2067 4224 1395 4224 
C 691 4224 262 3604 262 3030 
C 262 2780 448 2748 525 2748 
C 589 2748 781 2787 781 3010 
C 781 3207 614 3264 525 3264 
C 486 3264 448 3258 422 3245 
C 544 3790 915 4058 1306 4058 
C 1862 4058 2227 3617 2227 3035 
C 2227 2479 1901 2000 1536 1584 
L 262 146 
L 262 0 
L 2515 0 
L 2669 989 
z
" transform="scale(0.015625)"/>
       </defs>
       <use xlink:href="#g0f0020_74e0ec_CMSY10-0" transform="scale(0.996264)"/>
       <use xlink:href="#g0f0020_74e0ec_CMR17-32" transform="translate(77.487468 0) scale(0.996264)"/>
      </g>
     </g>
    </g>
    <g id="g0f0020_74e0ec_xtick_5">
     <g id="g0f0020_74e0ec_line2d_9">
      <path d="M 192.55 334.8 
L 192.55 20.016315 
" clip-path="url(#g0f0020_74e0ec_pfbb086fa16)" style="fill: none; stroke-dasharray: 2.96,1.28; stroke-dashoffset: 0; stroke: #b0b0b0; stroke-opacity: 0.6; stroke-width: 0.8"/>
     </g>
     <g id="g0f0020_74e0ec_line2d_10">
      <g>
       <use xlink:href="#g0f0020_74e0ec_mb8c60cd013" x="192.55" y="177.408158" style="stroke: #000000; stroke-width: 0.8"/>
      </g>
     </g>
     <g id="g0f0020_74e0ec_text_5">
      <!-- $\mathdefault{−1}$ -->
      <g transform="translate(180.232209 198.245154) scale(0.2 -0.2)">
       <defs>
        <path id="g0f0020_74e0ec_CMR17-31" d="M 1702 4058 
C 1702 4192 1696 4192 1606 4192 
C 1357 3916 979 3827 621 3827 
C 602 3827 570 3827 563 3808 
C 557 3795 557 3782 557 3648 
C 755 3648 1088 3686 1344 3839 
L 1344 461 
C 1344 236 1331 160 781 160 
L 589 160 
L 589 0 
C 896 0 1216 0 1523 0 
C 1830 0 2150 0 2458 0 
L 2458 160 
L 2266 160 
C 1715 160 1702 230 1702 458 
L 1702 4058 
z
" transform="scale(0.015625)"/>
       </defs>
       <use xlink:href="#g0f0020_74e0ec_CMSY10-0" transform="scale(0.996264)"/>
       <use xlink:href="#g0f0020_74e0ec_CMR17-31" transform="translate(77.487468 0) scale(0.996264)"/>
      </g>
     </g>
    </g>
    <g id="g0f0020_74e0ec_xtick_6">
     <g id="g0f0020_74e0ec_line2d_11">
      <path d="M 265.25 334.8 
L 265.25 20.016315 
" clip-path="url(#g0f0020_74e0ec_pfbb086fa16)" style="fill: none; stroke-dasharray: 2.96,1.28; stroke-dashoffset: 0; stroke: #b0b0b0; stroke-opacity: 0.6; stroke-width: 0.8"/>
     </g>
     <g id="g0f0020_74e0ec_line2d_12">
      <g>
       <use xlink:href="#g0f0020_74e0ec_mb8c60cd013" x="265.25" y="177.408158" style="stroke: #000000; stroke-width: 0.8"/>
      </g>
     </g>
     <g id="g0f0020_74e0ec_text_6">
      <!-- $\mathdefault{1}$ -->
      <g transform="translate(260.680952 198.245154) scale(0.2 -0.2)">
       <use xlink:href="#g0f0020_74e0ec_CMR17-31" transform="scale(0.996264)"/>
      </g>
     </g>
    </g>
    <g id="g0f0020_74e0ec_xtick_7">
     <g id="g0f0020_74e0ec_line2d_13">
      <path d="M 301.6 334.8 
L 301.6 20.016315 
" clip-path="url(#g0f0020_74e0ec_pfbb086fa16)" style="fill: none; stroke-dasharray: 2.96,1.28; stroke-dashoffset: 0; stroke: #b0b0b0; stroke-opacity: 0.6; stroke-width: 0.8"/>
     </g>
     <g id="g0f0020_74e0ec_line2d_14">
      <g>
       <use xlink:href="#g0f0020_74e0ec_mb8c60cd013" x="301.6" y="177.408158" style="stroke: #000000; stroke-width: 0.8"/>
      </g>
     </g>
     <g id="g0f0020_74e0ec_text_7">
      <!-- $\mathdefault{2}$ -->
      <g transform="translate(297.030952 198.245154) scale(0.2 -0.2)">
       <use xlink:href="#g0f0020_74e0ec_CMR17-32" transform="scale(0.996264)"/>
      </g>
     </g>
    </g>
    <g id="g0f0020_74e0ec_xtick_8">
     <g id="g0f0020_74e0ec_line2d_15">
      <path d="M 337.95 334.8 
L 337.95 20.016315 
" clip-path="url(#g0f0020_74e0ec_pfbb086fa16)" style="fill: none; stroke-dasharray: 2.96,1.28; stroke-dashoffset: 0; stroke: #b0b0b0; stroke-opacity: 0.6; stroke-width: 0.8"/>
     </g>
     <g id="g0f0020_74e0ec_line2d_16">
      <g>
       <use xlink:href="#g0f0020_74e0ec_mb8c60cd013" x="337.95" y="177.408158" style="stroke: #000000; stroke-width: 0.8"/>
      </g>
     </g>
     <g id="g0f0020_74e0ec_text_8">
      <!-- $\mathdefault{3}$ -->
      <g transform="translate(333.380952 198.245154) scale(0.2 -0.2)">
       <use xlink:href="#g0f0020_74e0ec_CMR17-33" transform="scale(0.996264)"/>
      </g>
     </g>
    </g>
    <g id="g0f0020_74e0ec_xtick_9">
     <g id="g0f0020_74e0ec_line2d_17">
      <path d="M 374.3 334.8 
L 374.3 20.016315 
" clip-path="url(#g0f0020_74e0ec_pfbb086fa16)" style="fill: none; stroke-dasharray: 2.96,1.28; stroke-dashoffset: 0; stroke: #b0b0b0; stroke-opacity: 0.6; stroke-width: 0.8"/>
     </g>
     <g id="g0f0020_74e0ec_line2d_18">
      <g>
       <use xlink:href="#g0f0020_74e0ec_mb8c60cd013" x="374.3" y="177.408158" style="stroke: #000000; stroke-width: 0.8"/>
      </g>
     </g>
     <g id="g0f0020_74e0ec_text_9">
      <!-- $\mathdefault{4}$ -->
      <g transform="translate(369.730952 198.245154) scale(0.2 -0.2)">
       <use xlink:href="#g0f0020_74e0ec_CMR17-34" transform="scale(0.996264)"/>
      </g>
     </g>
    </g>
    <g id="g0f0020_74e0ec_xtick_10">
     <g id="g0f0020_74e0ec_line2d_19">
      <path d="M 410.65 334.8 
L 410.65 20.016315 
" clip-path="url(#g0f0020_74e0ec_pfbb086fa16)" style="fill: none; stroke-dasharray: 2.96,1.28; stroke-dashoffset: 0; stroke: #b0b0b0; stroke-opacity: 0.6; stroke-width: 0.8"/>
     </g>
     <g id="g0f0020_74e0ec_line2d_20">
      <g>
       <use xlink:href="#g0f0020_74e0ec_mb8c60cd013" x="410.65" y="177.408158" style="stroke: #000000; stroke-width: 0.8"/>
      </g>
     </g>
     <g id="g0f0020_74e0ec_text_10">
      <!-- $\mathdefault{5}$ -->
      <g transform="translate(406.080952 198.245154) scale(0.2 -0.2)">
       <use xlink:href="#g0f0020_74e0ec_CMR17-35" transform="scale(0.996264)"/>
      </g>
     </g>
    </g>
    <g id="g0f0020_74e0ec_text_11">
     <!-- $x$ -->
     <g transform="translate(435.913188 219.957785) scale(0.2 -0.2)">
      <defs>
       <path id="g0f0020_74e0ec_CMMI12-78" d="M 3034 2606 
C 2829 2567 2752 2414 2752 2293 
C 2752 2139 2874 2088 2963 2088 
C 3155 2088 3290 2254 3290 2427 
C 3290 2695 2982 2816 2714 2816 
C 2323 2816 2106 2433 2048 2312 
C 1901 2816 1504 2816 1389 2816 
C 736 2816 390 1980 390 1839 
C 390 1814 416 1782 461 1782 
C 512 1782 525 1820 538 1846 
C 755 2555 1184 2689 1370 2689 
C 1658 2689 1715 2420 1715 2267 
C 1715 2127 1677 1980 1600 1673 
L 1382 798 
C 1286 415 1101 64 762 64 
C 730 64 570 64 435 147 
C 666 192 717 383 717 460 
C 717 588 621 664 499 664 
C 346 664 179 530 179 326 
C 179 57 480 -64 755 -64 
C 1062 -64 1280 179 1414 441 
C 1517 64 1837 -64 2074 -64 
C 2726 -64 3072 773 3072 913 
C 3072 945 3046 971 3008 971 
C 2950 971 2944 939 2925 888 
C 2752 326 2381 64 2093 64 
C 1869 64 1747 230 1747 492 
C 1747 632 1773 734 1875 1156 
L 2099 2024 
C 2195 2408 2413 2689 2707 2689 
C 2720 2689 2899 2689 3034 2606 
z
" transform="scale(0.015625)"/>
      </defs>
      <use xlink:href="#g0f0020_74e0ec_CMMI12-78" transform="scale(0.996264)"/>
     </g>
    </g>
   </g>
   <g id="g0f0020_74e0ec_matplotlib.axis_2">
    <g id="g0f0020_74e0ec_ytick_1">
     <g id="g0f0020_74e0ec_line2d_21">
      <path d="M 10.8 308.568026 
L 447 308.568026 
" clip-path="url(#g0f0020_74e0ec_pfbb086fa16)" style="fill: none; stroke-dasharray: 2.96,1.28; stroke-dashoffset: 0; stroke: #b0b0b0; stroke-opacity: 0.6; stroke-width: 0.8"/>
     </g>
     <g id="g0f0020_74e0ec_line2d_22">
      <defs>
       <path id="g0f0020_74e0ec_mf3d3079cf4" d="M 0 0 
L -3.5 0 
" style="stroke: #000000; stroke-width: 0.8"/>
      </defs>
      <g>
       <use xlink:href="#g0f0020_74e0ec_mf3d3079cf4" x="228.9" y="308.568026" style="stroke: #000000; stroke-width: 0.8"/>
      </g>
     </g>
     <g id="g0f0020_74e0ec_text_12">
      <!-- $\mathdefault{−5}$ -->
      <g transform="translate(197.264417 315.486525) scale(0.2 -0.2)">
       <use xlink:href="#g0f0020_74e0ec_CMSY10-0" transform="scale(0.996264)"/>
       <use xlink:href="#g0f0020_74e0ec_CMR17-35" transform="translate(77.487468 0) scale(0.996264)"/>
      </g>
     </g>
    </g>
    <g id="g0f0020_74e0ec_ytick_2">
     <g id="g0f0020_74e0ec_line2d_23">
      <path d="M 10.8 282.336053 
L 447 282.336053 
" clip-path="url(#g0f0020_74e0ec_pfbb086fa16)" style="fill: none; stroke-dasharray: 2.96,1.28; stroke-dashoffset: 0; stroke: #b0b0b0; stroke-opacity: 0.6; stroke-width: 0.8"/>
     </g>
     <g id="g0f0020_74e0ec_line2d_24">
      <g>
       <use xlink:href="#g0f0020_74e0ec_mf3d3079cf4" x="228.9" y="282.336053" style="stroke: #000000; stroke-width: 0.8"/>
      </g>
     </g>
     <g id="g0f0020_74e0ec_text_13">
      <!-- $\mathdefault{−4}$ -->
      <g transform="translate(197.264417 289.254551) scale(0.2 -0.2)">
       <use xlink:href="#g0f0020_74e0ec_CMSY10-0" transform="scale(0.996264)"/>
       <use xlink:href="#g0f0020_74e0ec_CMR17-34" transform="translate(77.487468 0) scale(0.996264)"/>
      </g>
     </g>
    </g>
    <g id="g0f0020_74e0ec_ytick_3">
     <g id="g0f0020_74e0ec_line2d_25">
      <path d="M 10.8 256.104079 
L 447 256.104079 
" clip-path="url(#g0f0020_74e0ec_pfbb086fa16)" style="fill: none; stroke-dasharray: 2.96,1.28; stroke-dashoffset: 0; stroke: #b0b0b0; stroke-opacity: 0.6; stroke-width: 0.8"/>
     </g>
     <g id="g0f0020_74e0ec_line2d_26">
      <g>
       <use xlink:href="#g0f0020_74e0ec_mf3d3079cf4" x="228.9" y="256.104079" style="stroke: #000000; stroke-width: 0.8"/>
      </g>
     </g>
     <g id="g0f0020_74e0ec_text_14">
      <!-- $\mathdefault{−3}$ -->
      <g transform="translate(197.264417 263.022577) scale(0.2 -0.2)">
       <use xlink:href="#g0f0020_74e0ec_CMSY10-0" transform="scale(0.996264)"/>
       <use xlink:href="#g0f0020_74e0ec_CMR17-33" transform="translate(77.487468 0) scale(0.996264)"/>
      </g>
     </g>
    </g>
    <g id="g0f0020_74e0ec_ytick_4">
     <g id="g0f0020_74e0ec_line2d_27">
      <path d="M 10.8 229.872105 
L 447 229.872105 
" clip-path="url(#g0f0020_74e0ec_pfbb086fa16)" style="fill: none; stroke-dasharray: 2.96,1.28; stroke-dashoffset: 0; stroke: #b0b0b0; stroke-opacity: 0.6; stroke-width: 0.8"/>
     </g>
     <g id="g0f0020_74e0ec_line2d_28">
      <g>
       <use xlink:href="#g0f0020_74e0ec_mf3d3079cf4" x="228.9" y="229.872105" style="stroke: #000000; stroke-width: 0.8"/>
      </g>
     </g>
     <g id="g0f0020_74e0ec_text_15">
      <!-- $\mathdefault{−2}$ -->
      <g transform="translate(197.264417 236.790603) scale(0.2 -0.2)">
       <use xlink:href="#g0f0020_74e0ec_CMSY10-0" transform="scale(0.996264)"/>
       <use xlink:href="#g0f0020_74e0ec_CMR17-32" transform="translate(77.487468 0) scale(0.996264)"/>
      </g>
     </g>
    </g>
    <g id="g0f0020_74e0ec_ytick_5">
     <g id="g0f0020_74e0ec_line2d_29">
      <path d="M 10.8 203.640131 
L 447 203.640131 
" clip-path="url(#g0f0020_74e0ec_pfbb086fa16)" style="fill: none; stroke-dasharray: 2.96,1.28; stroke-dashoffset: 0; stroke: #b0b0b0; stroke-opacity: 0.6; stroke-width: 0.8"/>
     </g>
     <g id="g0f0020_74e0ec_line2d_30">
      <g>
       <use xlink:href="#g0f0020_74e0ec_mf3d3079cf4" x="228.9" y="203.640131" style="stroke: #000000; stroke-width: 0.8"/>
      </g>
     </g>
     <g id="g0f0020_74e0ec_text_16">
      <!-- $\mathdefault{−1}$ -->
      <g transform="translate(197.264417 210.55863) scale(0.2 -0.2)">
       <use xlink:href="#g0f0020_74e0ec_CMSY10-0" transform="scale(0.996264)"/>
       <use xlink:href="#g0f0020_74e0ec_CMR17-31" transform="translate(77.487468 0) scale(0.996264)"/>
      </g>
     </g>
    </g>
    <g id="g0f0020_74e0ec_ytick_6">
     <g id="g0f0020_74e0ec_line2d_31">
      <path d="M 10.8 151.176184 
L 447 151.176184 
" clip-path="url(#g0f0020_74e0ec_pfbb086fa16)" style="fill: none; stroke-dasharray: 2.96,1.28; stroke-dashoffset: 0; stroke: #b0b0b0; stroke-opacity: 0.6; stroke-width: 0.8"/>
     </g>
     <g id="g0f0020_74e0ec_line2d_32">
      <g>
       <use xlink:href="#g0f0020_74e0ec_mf3d3079cf4" x="228.9" y="151.176184" style="stroke: #000000; stroke-width: 0.8"/>
      </g>
     </g>
     <g id="g0f0020_74e0ec_text_17">
      <!-- $\mathdefault{1}$ -->
      <g transform="translate(212.761905 158.094682) scale(0.2 -0.2)">
       <use xlink:href="#g0f0020_74e0ec_CMR17-31" transform="scale(0.996264)"/>
      </g>
     </g>
    </g>
    <g id="g0f0020_74e0ec_ytick_7">
     <g id="g0f0020_74e0ec_line2d_33">
      <path d="M 10.8 124.94421 
L 447 124.94421 
" clip-path="url(#g0f0020_74e0ec_pfbb086fa16)" style="fill: none; stroke-dasharray: 2.96,1.28; stroke-dashoffset: 0; stroke: #b0b0b0; stroke-opacity: 0.6; stroke-width: 0.8"/>
     </g>
     <g id="g0f0020_74e0ec_line2d_34">
      <g>
       <use xlink:href="#g0f0020_74e0ec_mf3d3079cf4" x="228.9" y="124.94421" style="stroke: #000000; stroke-width: 0.8"/>
      </g>
     </g>
     <g id="g0f0020_74e0ec_text_18">
      <!-- $\mathdefault{2}$ -->
      <g transform="translate(212.761905 131.862709) scale(0.2 -0.2)">
       <use xlink:href="#g0f0020_74e0ec_CMR17-32" transform="scale(0.996264)"/>
      </g>
     </g>
    </g>
    <g id="g0f0020_74e0ec_ytick_8">
     <g id="g0f0020_74e0ec_line2d_35">
      <path d="M 10.8 98.712236 
L 447 98.712236 
" clip-path="url(#g0f0020_74e0ec_pfbb086fa16)" style="fill: none; stroke-dasharray: 2.96,1.28; stroke-dashoffset: 0; stroke: #b0b0b0; stroke-opacity: 0.6; stroke-width: 0.8"/>
     </g>
     <g id="g0f0020_74e0ec_line2d_36">
      <g>
       <use xlink:href="#g0f0020_74e0ec_mf3d3079cf4" x="228.9" y="98.712236" style="stroke: #000000; stroke-width: 0.8"/>
      </g>
     </g>
     <g id="g0f0020_74e0ec_text_19">
      <!-- $\mathdefault{3}$ -->
      <g transform="translate(212.761905 105.630735) scale(0.2 -0.2)">
       <use xlink:href="#g0f0020_74e0ec_CMR17-33" transform="scale(0.996264)"/>
      </g>
     </g>
    </g>
    <g id="g0f0020_74e0ec_ytick_9">
     <g id="g0f0020_74e0ec_line2d_37">
      <path d="M 10.8 72.480263 
L 447 72.480263 
" clip-path="url(#g0f0020_74e0ec_pfbb086fa16)" style="fill: none; stroke-dasharray: 2.96,1.28; stroke-dashoffset: 0; stroke: #b0b0b0; stroke-opacity: 0.6; stroke-width: 0.8"/>
     </g>
     <g id="g0f0020_74e0ec_line2d_38">
      <g>
       <use xlink:href="#g0f0020_74e0ec_mf3d3079cf4" x="228.9" y="72.480263" style="stroke: #000000; stroke-width: 0.8"/>
      </g>
     </g>
     <g id="g0f0020_74e0ec_text_20">
      <!-- $\mathdefault{4}$ -->
      <g transform="translate(212.761905 79.398761) scale(0.2 -0.2)">
       <use xlink:href="#g0f0020_74e0ec_CMR17-34" transform="scale(0.996264)"/>
      </g>
     </g>
    </g>
    <g id="g0f0020_74e0ec_ytick_10">
     <g id="g0f0020_74e0ec_line2d_39">
      <path d="M 10.8 46.248289 
L 447 46.248289 
" clip-path="url(#g0f0020_74e0ec_pfbb086fa16)" style="fill: none; stroke-dasharray: 2.96,1.28; stroke-dashoffset: 0; stroke: #b0b0b0; stroke-opacity: 0.6; stroke-width: 0.8"/>
     </g>
     <g id="g0f0020_74e0ec_line2d_40">
      <g>
       <use xlink:href="#g0f0020_74e0ec_mf3d3079cf4" x="228.9" y="46.248289" style="stroke: #000000; stroke-width: 0.8"/>
      </g>
     </g>
     <g id="g0f0020_74e0ec_text_21">
      <!-- $\mathdefault{5}$ -->
      <g transform="translate(212.761905 53.166787) scale(0.2 -0.2)">
       <use xlink:href="#g0f0020_74e0ec_CMR17-35" transform="scale(0.996264)"/>
      </g>
     </g>
    </g>
    <g id="g0f0020_74e0ec_text_22">
     <!-- $y$ -->
     <g transform="translate(183.751583 16.140682) scale(0.2 -0.2)">
      <defs>
       <path id="g0f0020_74e0ec_CMMI12-79" d="M 1683 -700 
C 1510 -939 1261 -1152 947 -1152 
C 870 -1152 563 -1152 467 -889 
C 486 -895 518 -895 531 -895 
C 723 -895 851 -729 851 -582 
C 851 -435 730 -384 634 -384 
C 531 -384 307 -458 307 -759 
C 307 -1071 582 -1286 947 -1286 
C 1587 -1286 2234 -700 2413 6 
L 3040 2485 
C 3046 2517 3059 2556 3059 2594 
C 3059 2689 2982 2753 2886 2753 
C 2829 2753 2694 2727 2643 2535 
L 2170 658 
C 2138 543 2138 530 2086 460 
C 1958 281 1747 64 1440 64 
C 1082 64 1050 415 1050 588 
C 1050 952 1222 1443 1395 1903 
C 1466 2088 1504 2178 1504 2305 
C 1504 2574 1312 2816 998 2816 
C 410 2816 173 1890 173 1839 
C 173 1814 198 1782 243 1782 
C 301 1782 307 1807 333 1897 
C 486 2433 730 2689 979 2689 
C 1037 2689 1146 2689 1146 2478 
C 1146 2312 1075 2127 979 1884 
C 666 1047 666 837 666 683 
C 666 77 1101 -64 1421 -64 
C 1606 -64 1837 -6 2061 230 
L 2067 224 
C 1971 -147 1907 -392 1683 -700 
z
" transform="scale(0.015625)"/>
      </defs>
      <use xlink:href="#g0f0020_74e0ec_CMMI12-79" transform="scale(0.996264)"/>
     </g>
    </g>
   </g>
   <g id="g0f0020_74e0ec_line2d_41">
    <defs>
     <path id="g0f0020_74e0ec_mbe0b361d3f" d="M 3 0 
L -3 -3 
L -3 3 
z
" style="stroke: #000000; stroke-linejoin: miter"/>
    </defs>
    <g>
     <use xlink:href="#g0f0020_74e0ec_mbe0b361d3f" x="447" y="177.408158" style="stroke: #000000; stroke-linejoin: miter"/>
    </g>
   </g>
   <g id="g0f0020_74e0ec_line2d_42">
    <defs>
     <path id="g0f0020_74e0ec_m7b57c60483" d="M 0 -3 
L -3 3 
L 3 3 
z
" style="stroke: #000000; stroke-linejoin: miter"/>
    </defs>
    <g>
     <use xlink:href="#g0f0020_74e0ec_m7b57c60483" x="228.9" y="20.016315" style="stroke: #000000; stroke-linejoin: miter"/>
    </g>
   </g>
   <g id="g0f0020_74e0ec_line2d_43">
    <path d="M 10.8 153.65305 
L 11.891632 152.490816 
L 12.876762 151.749885 
L 13.782018 151.334468 
L 14.634023 151.179607 
L 15.459403 151.249282 
L 16.311408 151.547376 
L 17.190038 152.092652 
L 18.148544 152.956953 
L 19.213551 154.235508 
L 20.385058 156.008289 
L 21.689691 158.398982 
L 23.207325 161.668289 
L 25.017836 166.132908 
L 27.387475 172.620406 
L 33.777513 190.433726 
L 35.614649 194.740274 
L 37.158909 197.82059 
L 38.490167 200.006911 
L 39.661674 201.531726 
L 40.72668 202.571049 
L 41.685186 203.211597 
L 42.590441 203.5533 
L 43.442446 203.638125 
L 44.267826 203.500582 
L 45.119832 203.133014 
L 46.025087 202.494997 
L 47.010218 201.518333 
L 48.101849 200.106064 
L 49.299982 198.180348 
L 50.657865 195.56406 
L 52.228749 192.036854 
L 54.145761 187.153277 
L 56.834902 179.627486 
L 61.654056 166.102179 
L 63.624318 161.274982 
L 65.248453 157.854882 
L 66.632961 155.42751 
L 67.857718 153.703157 
L 68.94935 152.527817 
L 69.934481 151.774595 
L 70.839736 151.347626 
L 71.691741 151.181769 
L 72.517121 151.240775 
L 73.369127 151.527928 
L 74.247757 152.062102 
L 75.206263 152.914621 
L 76.244644 154.145026 
L 77.416151 155.896435 
L 78.720784 158.265527 
L 80.211793 161.452117 
L 81.995678 165.819576 
L 84.312067 172.127895 
L 91.074858 190.928923 
L 92.885369 195.110413 
L 94.403003 198.082018 
L 95.734261 200.217477 
L 96.905768 201.693763 
L 97.944149 202.665972 
L 98.902655 203.27123 
L 99.781285 203.573632 
L 100.633291 203.63347 
L 101.458671 203.47176 
L 102.310676 203.079495 
L 103.215931 202.415757 
L 104.201062 201.412005 
L 105.292694 199.97119 
L 106.517451 197.968754 
L 107.901959 195.258288 
L 109.499469 191.621473 
L 111.469731 186.545931 
L 114.345248 178.440886 
L 118.605274 166.487137 
L 120.628786 161.489747 
L 122.252921 158.036763 
L 123.664054 155.534223 
L 124.888812 153.787065 
L 126.007068 152.565319 
L 126.992199 151.799821 
L 127.897455 151.361307 
L 128.74946 151.184458 
L 129.57484 151.232792 
L 130.426845 151.509 
L 131.305475 152.032061 
L 132.263981 152.87278 
L 133.302362 154.090932 
L 134.447244 155.785763 
L 135.751877 158.133124 
L 137.242886 161.298238 
L 139.000146 165.576829 
L 141.28991 171.787362 
L 148.318953 191.287449 
L 150.102838 195.362432 
L 151.593847 198.245116 
L 152.89848 200.310648 
L 154.069987 201.764895 
L 155.108368 202.71657 
L 156.066874 203.302282 
L 156.945504 203.586457 
L 157.79751 203.628505 
L 158.649515 203.440242 
L 159.528145 203.006643 
L 160.460026 202.285605 
L 161.471782 201.207141 
L 162.590038 199.672959 
L 163.841421 197.558187 
L 165.252554 194.718134 
L 166.903314 190.872643 
L 168.953452 185.495556 
L 172.228346 176.17663 
L 175.716242 166.454282 
L 177.739755 161.461032 
L 179.363889 158.012408 
L 180.775023 155.514292 
L 181.99978 153.771367 
L 183.091412 152.57842 
L 184.076543 151.808676 
L 184.981798 151.366166 
L 185.833803 151.185512 
L 186.659183 151.230151 
L 187.511188 151.502567 
L 188.389819 152.021777 
L 189.348324 152.858407 
L 190.386706 154.07231 
L 191.531588 155.76274 
L 192.83622 158.105534 
L 194.327229 161.266129 
L 196.08449 165.54051 
L 198.347629 171.672583 
L 205.483172 191.448191 
L 207.240432 195.444652 
L 208.731441 198.31357 
L 210.036074 200.365534 
L 211.180956 201.778293 
L 212.219337 202.726053 
L 213.177843 203.30804 
L 214.056473 203.588743 
L 214.908478 203.627404 
L 215.760483 203.435764 
L 216.639114 202.998723 
L 217.570994 202.274116 
L 218.58275 201.191916 
L 219.701007 199.653825 
L 220.95239 197.535024 
L 222.363523 194.690958 
L 224.014283 190.841609 
L 226.06442 185.461163 
L 229.36594 176.063764 
L 232.827211 166.421449 
L 234.850723 161.432347 
L 236.474858 157.98809 
L 237.885992 155.494403 
L 239.110749 153.755713 
L 240.202381 152.566784 
L 241.187511 151.800811 
L 242.092767 151.361848 
L 242.944772 151.184573 
L 243.770152 151.232493 
L 244.622157 151.508276 
L 245.500787 152.030905 
L 246.459293 152.871167 
L 247.497674 154.088842 
L 248.642556 155.78318 
L 249.947189 158.130029 
L 251.438198 161.294637 
L 253.195459 165.572757 
L 255.485222 171.782905 
L 262.514265 191.283577 
L 264.298151 195.359105 
L 265.789159 198.242344 
L 267.093792 200.308423 
L 268.265299 201.763201 
L 269.303681 202.71537 
L 270.262186 203.301551 
L 271.140817 203.586164 
L 271.992822 203.628641 
L 272.844827 203.440804 
L 273.723457 203.007639 
L 274.655338 202.287052 
L 275.667094 201.20906 
L 276.785351 199.675372 
L 278.036733 197.561108 
L 279.447867 194.721562 
L 281.098627 190.876559 
L 283.148764 185.499897 
L 286.423659 176.181188 
L 289.911555 166.458429 
L 291.935067 161.464655 
L 293.559202 158.015481 
L 294.970335 155.516806 
L 296.195092 153.773346 
L 297.286724 152.579893 
L 298.271855 151.809672 
L 299.17711 151.366715 
L 300.029116 151.185634 
L 300.854496 151.229859 
L 301.706501 151.50185 
L 302.585131 152.020628 
L 303.543637 152.8568 
L 304.582018 154.070226 
L 305.7269 155.760163 
L 307.031533 158.102445 
L 308.522542 161.262533 
L 310.279802 165.536441 
L 312.542941 171.668131 
L 319.678484 191.444336 
L 321.435744 195.441338 
L 322.926753 198.310813 
L 324.231386 200.363326 
L 325.376268 201.776605 
L 326.414649 202.724859 
L 327.373155 203.307315 
L 328.251785 203.588457 
L 329.103791 203.627546 
L 329.955796 203.436332 
L 330.834426 202.999725 
L 331.766307 202.275569 
L 332.778063 201.19384 
L 333.896319 199.656243 
L 335.147702 197.53795 
L 336.558835 194.694391 
L 338.209595 190.845528 
L 340.259733 185.465505 
L 343.561253 176.068321 
L 347.022523 166.425592 
L 349.046036 161.435966 
L 350.67017 157.991158 
L 352.081304 155.496911 
L 353.306061 153.757687 
L 354.397693 152.56825 
L 355.382824 151.801801 
L 356.288079 151.362391 
L 357.140084 151.184689 
L 357.965464 151.232195 
L 358.817469 151.507552 
L 359.6961 152.02975 
L 360.654605 152.869553 
L 361.692987 154.086752 
L 362.837869 155.780597 
L 364.142501 158.126935 
L 365.63351 161.291037 
L 367.390771 165.568685 
L 369.65391 171.703407 
L 376.762827 191.409928 
L 378.546713 195.467572 
L 380.037722 198.332633 
L 381.342355 200.380798 
L 382.487237 201.789962 
L 383.525618 202.7343 
L 384.484124 203.313031 
L 385.362754 203.5907 
L 386.214759 203.626402 
L 387.066764 203.43181 
L 387.945395 202.991763 
L 388.877275 202.264039 
L 389.889031 201.178575 
L 391.007288 199.637072 
L 392.258671 197.514754 
L 393.669804 194.667186 
L 395.320564 190.814471 
L 397.370701 185.431099 
L 400.698846 175.955478 
L 404.133492 166.392777 
L 406.130379 161.468278 
L 407.754514 158.018554 
L 409.165647 155.51932 
L 410.390405 153.775326 
L 411.482036 152.581366 
L 412.467167 151.810669 
L 413.372423 151.367264 
L 414.224428 151.185757 
L 415.049808 151.229567 
L 415.901813 151.501133 
L 416.780443 152.01948 
L 417.738949 152.855193 
L 418.77733 154.068143 
L 419.922212 155.757586 
L 421.226845 158.099356 
L 422.717854 161.258937 
L 424.475114 165.532372 
L 426.738253 171.663678 
L 433.873796 191.440481 
L 435.631057 195.438024 
L 437.122066 198.308056 
L 438.426698 200.361117 
L 439.57158 201.774915 
L 440.609962 202.723663 
L 441.568467 203.30659 
L 442.447098 203.58817 
L 443.299103 203.627687 
L 444.151108 203.436899 
L 445.029738 203.000727 
L 445.961619 202.277021 
L 446.973375 201.195764 
L 447 201.163265 
L 447 201.163265 
" clip-path="url(#g0f0020_74e0ec_pfbb086fa16)" style="fill: none; stroke: #0072b2; stroke-width: 2.5; stroke-linecap: square"/>
   </g>
   <g id="g0f0020_74e0ec_patch_3">
    <path d="M 228.9 334.8 
L 228.9 20.016315 
" style="fill: none; stroke: #000000; stroke-width: 0.8; stroke-linejoin: miter; stroke-linecap: square"/>
   </g>
   <g id="g0f0020_74e0ec_patch_4">
    <path d="M 447 334.8 
L 447 20.016315 
" style="fill: none"/>
   </g>
   <g id="g0f0020_74e0ec_patch_5">
    <path d="M 10.8 177.408158 
L 447 177.408158 
" style="fill: none; stroke: #000000; stroke-width: 0.8; stroke-linejoin: miter; stroke-linecap: square"/>
   </g>
   <g id="g0f0020_74e0ec_patch_6">
    <path d="M 10.8 20.016315 
L 447 20.016315 
" style="fill: none"/>
   </g>
  </g>
 </g>
 <defs>
  <clipPath id="g0f0020_74e0ec_pfbb086fa16">
   <rect x="10.8" y="20.016315" width="436.2" height="314.783685"/>
  </clipPath>
 </defs>
</svg>
