<?xml version="1.0" encoding="utf-8" standalone="no"?>
<!DOCTYPE svg PUBLIC "-//W3C//DTD SVG 1.1//EN"
  "http://www.w3.org/Graphics/SVG/1.1/DTD/svg11.dtd">
<svg xmlns:xlink="http://www.w3.org/1999/xlink" viewBox="0 0 460.8 345.6" xmlns="http://www.w3.org/2000/svg" version="1.1" class="graph-inline-svg" role="img" aria-label="Tilpasset figur">
 <metadata>
  <rdf:RDF xmlns:dc="http://purl.org/dc/elements/1.1/" xmlns:cc="http://creativecommons.org/ns#" xmlns:rdf="http://www.w3.org/1999/02/22-rdf-syntax-ns#">
   <cc:Work>
    <dc:type rdf:resource="http://purl.org/dc/dcmitype/StillImage"/>
    <dc:date>2026-03-27T23:10:35.776909</dc:date>
    <dc:format>image/svg+xml</dc:format>
    <dc:creator>
     <cc:Agent>
      <dc:title>Matplotlib v3.10.8, https://matplotlib.org/</dc:title>
     </cc:Agent>
    </dc:creator>
   </cc:Work>
  </rdf:RDF>
 </metadata>
 <defs>
  <style type="text/css">*{stroke-linejoin: round; stroke-linecap: butt}</style>
 </defs>
 <g id="g0f0011_034ed3_figure_1">
  <g id="g0f0011_034ed3_patch_1">
   <path d="M 0 345.6 
L 460.8 345.6 
L 460.8 0 
L 0 0 
L 0 345.6 
z
" style="fill: none"/>
  </g>
  <g id="g0f0011_034ed3_axes_1">
   <g id="g0f0011_034ed3_patch_2">
    <path d="M 10.8 334.8 
L 447 334.8 
L 447 20.016315 
L 10.8 20.016315 
L 10.8 334.8 
z
" style="fill: none"/>
   </g>
   <g id="g0f0011_034ed3_matplotlib.axis_1">
    <g id="g0f0011_034ed3_xtick_1">
     <g id="g0f0011_034ed3_line2d_1">
      <path d="M 47.15 334.8 
L 47.15 20.016315 
" clip-path="url(#g0f0011_034ed3_pa94198b50d)" style="fill: none; stroke-dasharray: 2.96,1.28; stroke-dashoffset: 0; stroke: #b0b0b0; stroke-opacity: 0.6; stroke-width: 0.8"/>
     </g>
     <g id="g0f0011_034ed3_line2d_2">
      <defs>
       <path id="g0f0011_034ed3_mfa41f02a64" d="M 0 0 
L 0 3.5 
" style="stroke: #000000; stroke-width: 0.8"/>
      </defs>
      <g>
       <use xlink:href="#g0f0011_034ed3_mfa41f02a64" x="47.15" y="177.408158" style="stroke: #000000; stroke-width: 0.8"/>
      </g>
     </g>
     <g id="g0f0011_034ed3_text_1">
      <!-- $\mathdefault{−5}$ -->
      <g transform="translate(34.832209 198.245154) scale(0.2 -0.2)">
       <defs>
        <path id="g0f0011_034ed3_CMSY10-0" d="M 4218 1472 
C 4326 1472 4442 1472 4442 1600 
C 4442 1728 4326 1728 4218 1728 
L 755 1728 
C 646 1728 531 1728 531 1600 
C 531 1472 646 1472 755 1472 
L 4218 1472 
z
" transform="scale(0.015625)"/>
        <path id="g0f0011_034ed3_CMR17-35" d="M 730 3692 
C 794 3666 1056 3584 1325 3584 
C 1920 3584 2246 3911 2432 4100 
C 2432 4157 2432 4192 2394 4192 
C 2387 4192 2374 4192 2323 4163 
C 2099 4058 1837 3973 1517 3973 
C 1325 3973 1037 3999 723 4139 
C 653 4171 640 4171 634 4171 
C 602 4171 595 4164 595 4037 
L 595 2203 
C 595 2089 595 2057 659 2057 
C 691 2057 704 2070 736 2114 
C 941 2401 1222 2522 1542 2522 
C 1766 2522 2246 2382 2246 1289 
C 2246 1085 2246 715 2054 421 
C 1894 159 1645 25 1370 25 
C 947 25 518 320 403 814 
C 429 807 480 795 506 795 
C 589 795 749 840 749 1038 
C 749 1210 627 1280 506 1280 
C 358 1280 262 1190 262 1011 
C 262 454 704 -128 1382 -128 
C 2042 -128 2669 440 2669 1264 
C 2669 2030 2170 2624 1549 2624 
C 1222 2624 947 2503 730 2274 
L 730 3692 
z
" transform="scale(0.015625)"/>
       </defs>
       <use xlink:href="#g0f0011_034ed3_CMSY10-0" transform="scale(0.996264)"/>
       <use xlink:href="#g0f0011_034ed3_CMR17-35" transform="translate(77.487468 0) scale(0.996264)"/>
      </g>
     </g>
    </g>
    <g id="g0f0011_034ed3_xtick_2">
     <g id="g0f0011_034ed3_line2d_3">
      <path d="M 83.5 334.8 
L 83.5 20.016315 
" clip-path="url(#g0f0011_034ed3_pa94198b50d)" style="fill: none; stroke-dasharray: 2.96,1.28; stroke-dashoffset: 0; stroke: #b0b0b0; stroke-opacity: 0.6; stroke-width: 0.8"/>
     </g>
     <g id="g0f0011_034ed3_line2d_4">
      <g>
       <use xlink:href="#g0f0011_034ed3_mfa41f02a64" x="83.5" y="177.408158" style="stroke: #000000; stroke-width: 0.8"/>
      </g>
     </g>
     <g id="g0f0011_034ed3_text_2">
      <!-- $\mathdefault{−4}$ -->
      <g transform="translate(71.182209 198.245154) scale(0.2 -0.2)">
       <defs>
        <path id="g0f0011_034ed3_CMR17-34" d="M 2150 4122 
C 2150 4256 2144 4256 2029 4256 
L 128 1254 
L 128 1088 
L 1779 1088 
L 1779 457 
C 1779 224 1766 160 1318 160 
L 1197 160 
L 1197 0 
C 1402 0 1747 0 1965 0 
C 2182 0 2528 0 2733 0 
L 2733 160 
L 2611 160 
C 2163 160 2150 224 2150 457 
L 2150 1088 
L 2803 1088 
L 2803 1254 
L 2150 1254 
L 2150 4122 
z
M 1798 3703 
L 1798 1254 
L 256 1254 
L 1798 3703 
z
" transform="scale(0.015625)"/>
       </defs>
       <use xlink:href="#g0f0011_034ed3_CMSY10-0" transform="scale(0.996264)"/>
       <use xlink:href="#g0f0011_034ed3_CMR17-34" transform="translate(77.487468 0) scale(0.996264)"/>
      </g>
     </g>
    </g>
    <g id="g0f0011_034ed3_xtick_3">
     <g id="g0f0011_034ed3_line2d_5">
      <path d="M 119.85 334.8 
L 119.85 20.016315 
" clip-path="url(#g0f0011_034ed3_pa94198b50d)" style="fill: none; stroke-dasharray: 2.96,1.28; stroke-dashoffset: 0; stroke: #b0b0b0; stroke-opacity: 0.6; stroke-width: 0.8"/>
     </g>
     <g id="g0f0011_034ed3_line2d_6">
      <g>
       <use xlink:href="#g0f0011_034ed3_mfa41f02a64" x="119.85" y="177.408158" style="stroke: #000000; stroke-width: 0.8"/>
      </g>
     </g>
     <g id="g0f0011_034ed3_text_3">
      <!-- $\mathdefault{−3}$ -->
      <g transform="translate(107.532209 198.245154) scale(0.2 -0.2)">
       <defs>
        <path id="g0f0011_034ed3_CMR17-33" d="M 1414 2157 
C 1984 2157 2234 1662 2234 1090 
C 2234 320 1824 25 1453 25 
C 1114 25 563 194 390 693 
C 422 680 454 680 486 680 
C 640 680 755 782 755 948 
C 755 1133 614 1216 486 1216 
C 378 1216 211 1165 211 926 
C 211 335 787 -128 1466 -128 
C 2176 -128 2720 430 2720 1085 
C 2720 1707 2208 2157 1600 2227 
C 2086 2328 2554 2756 2554 3329 
C 2554 3820 2048 4179 1472 4179 
C 890 4179 378 3829 378 3329 
C 378 3110 544 3072 627 3072 
C 762 3072 877 3155 877 3321 
C 877 3486 762 3569 627 3569 
C 602 3569 570 3569 544 3557 
C 730 3959 1235 4032 1459 4032 
C 1683 4032 2106 3925 2106 3320 
C 2106 3143 2080 2828 1862 2550 
C 1670 2304 1453 2304 1242 2284 
C 1210 2284 1062 2269 1037 2269 
C 992 2263 966 2257 966 2208 
C 966 2163 973 2157 1101 2157 
L 1414 2157 
z
" transform="scale(0.015625)"/>
       </defs>
       <use xlink:href="#g0f0011_034ed3_CMSY10-0" transform="scale(0.996264)"/>
       <use xlink:href="#g0f0011_034ed3_CMR17-33" transform="translate(77.487468 0) scale(0.996264)"/>
      </g>
     </g>
    </g>
    <g id="g0f0011_034ed3_xtick_4">
     <g id="g0f0011_034ed3_line2d_7">
      <path d="M 156.2 334.8 
L 156.2 20.016315 
" clip-path="url(#g0f0011_034ed3_pa94198b50d)" style="fill: none; stroke-dasharray: 2.96,1.28; stroke-dashoffset: 0; stroke: #b0b0b0; stroke-opacity: 0.6; stroke-width: 0.8"/>
     </g>
     <g id="g0f0011_034ed3_line2d_8">
      <g>
       <use xlink:href="#g0f0011_034ed3_mfa41f02a64" x="156.2" y="177.408158" style="stroke: #000000; stroke-width: 0.8"/>
      </g>
     </g>
     <g id="g0f0011_034ed3_text_4">
      <!-- $\mathdefault{−2}$ -->
      <g transform="translate(143.882209 198.245154) scale(0.2 -0.2)">
       <defs>
        <path id="g0f0011_034ed3_CMR17-32" d="M 2669 989 
L 2554 989 
C 2490 536 2438 459 2413 420 
C 2381 369 1920 369 1830 369 
L 602 369 
C 832 619 1280 1072 1824 1597 
C 2214 1967 2669 2402 2669 3035 
C 2669 3790 2067 4224 1395 4224 
C 691 4224 262 3604 262 3030 
C 262 2780 448 2748 525 2748 
C 589 2748 781 2787 781 3010 
C 781 3207 614 3264 525 3264 
C 486 3264 448 3258 422 3245 
C 544 3790 915 4058 1306 4058 
C 1862 4058 2227 3617 2227 3035 
C 2227 2479 1901 2000 1536 1584 
L 262 146 
L 262 0 
L 2515 0 
L 2669 989 
z
" transform="scale(0.015625)"/>
       </defs>
       <use xlink:href="#g0f0011_034ed3_CMSY10-0" transform="scale(0.996264)"/>
       <use xlink:href="#g0f0011_034ed3_CMR17-32" transform="translate(77.487468 0) scale(0.996264)"/>
      </g>
     </g>
    </g>
    <g id="g0f0011_034ed3_xtick_5">
     <g id="g0f0011_034ed3_line2d_9">
      <path d="M 192.55 334.8 
L 192.55 20.016315 
" clip-path="url(#g0f0011_034ed3_pa94198b50d)" style="fill: none; stroke-dasharray: 2.96,1.28; stroke-dashoffset: 0; stroke: #b0b0b0; stroke-opacity: 0.6; stroke-width: 0.8"/>
     </g>
     <g id="g0f0011_034ed3_line2d_10">
      <g>
       <use xlink:href="#g0f0011_034ed3_mfa41f02a64" x="192.55" y="177.408158" style="stroke: #000000; stroke-width: 0.8"/>
      </g>
     </g>
     <g id="g0f0011_034ed3_text_5">
      <!-- $\mathdefault{−1}$ -->
      <g transform="translate(180.232209 198.245154) scale(0.2 -0.2)">
       <defs>
        <path id="g0f0011_034ed3_CMR17-31" d="M 1702 4058 
C 1702 4192 1696 4192 1606 4192 
C 1357 3916 979 3827 621 3827 
C 602 3827 570 3827 563 3808 
C 557 3795 557 3782 557 3648 
C 755 3648 1088 3686 1344 3839 
L 1344 461 
C 1344 236 1331 160 781 160 
L 589 160 
L 589 0 
C 896 0 1216 0 1523 0 
C 1830 0 2150 0 2458 0 
L 2458 160 
L 2266 160 
C 1715 160 1702 230 1702 458 
L 1702 4058 
z
" transform="scale(0.015625)"/>
       </defs>
       <use xlink:href="#g0f0011_034ed3_CMSY10-0" transform="scale(0.996264)"/>
       <use xlink:href="#g0f0011_034ed3_CMR17-31" transform="translate(77.487468 0) scale(0.996264)"/>
      </g>
     </g>
    </g>
    <g id="g0f0011_034ed3_xtick_6">
     <g id="g0f0011_034ed3_line2d_11">
      <path d="M 265.25 334.8 
L 265.25 20.016315 
" clip-path="url(#g0f0011_034ed3_pa94198b50d)" style="fill: none; stroke-dasharray: 2.96,1.28; stroke-dashoffset: 0; stroke: #b0b0b0; stroke-opacity: 0.6; stroke-width: 0.8"/>
     </g>
     <g id="g0f0011_034ed3_line2d_12">
      <g>
       <use xlink:href="#g0f0011_034ed3_mfa41f02a64" x="265.25" y="177.408158" style="stroke: #000000; stroke-width: 0.8"/>
      </g>
     </g>
     <g id="g0f0011_034ed3_text_6">
      <!-- $\mathdefault{1}$ -->
      <g transform="translate(260.680952 198.245154) scale(0.2 -0.2)">
       <use xlink:href="#g0f0011_034ed3_CMR17-31" transform="scale(0.996264)"/>
      </g>
     </g>
    </g>
    <g id="g0f0011_034ed3_xtick_7">
     <g id="g0f0011_034ed3_line2d_13">
      <path d="M 301.6 334.8 
L 301.6 20.016315 
" clip-path="url(#g0f0011_034ed3_pa94198b50d)" style="fill: none; stroke-dasharray: 2.96,1.28; stroke-dashoffset: 0; stroke: #b0b0b0; stroke-opacity: 0.6; stroke-width: 0.8"/>
     </g>
     <g id="g0f0011_034ed3_line2d_14">
      <g>
       <use xlink:href="#g0f0011_034ed3_mfa41f02a64" x="301.6" y="177.408158" style="stroke: #000000; stroke-width: 0.8"/>
      </g>
     </g>
     <g id="g0f0011_034ed3_text_7">
      <!-- $\mathdefault{2}$ -->
      <g transform="translate(297.030952 198.245154) scale(0.2 -0.2)">
       <use xlink:href="#g0f0011_034ed3_CMR17-32" transform="scale(0.996264)"/>
      </g>
     </g>
    </g>
    <g id="g0f0011_034ed3_xtick_8">
     <g id="g0f0011_034ed3_line2d_15">
      <path d="M 337.95 334.8 
L 337.95 20.016315 
" clip-path="url(#g0f0011_034ed3_pa94198b50d)" style="fill: none; stroke-dasharray: 2.96,1.28; stroke-dashoffset: 0; stroke: #b0b0b0; stroke-opacity: 0.6; stroke-width: 0.8"/>
     </g>
     <g id="g0f0011_034ed3_line2d_16">
      <g>
       <use xlink:href="#g0f0011_034ed3_mfa41f02a64" x="337.95" y="177.408158" style="stroke: #000000; stroke-width: 0.8"/>
      </g>
     </g>
     <g id="g0f0011_034ed3_text_8">
      <!-- $\mathdefault{3}$ -->
      <g transform="translate(333.380952 198.245154) scale(0.2 -0.2)">
       <use xlink:href="#g0f0011_034ed3_CMR17-33" transform="scale(0.996264)"/>
      </g>
     </g>
    </g>
    <g id="g0f0011_034ed3_xtick_9">
     <g id="g0f0011_034ed3_line2d_17">
      <path d="M 374.3 334.8 
L 374.3 20.016315 
" clip-path="url(#g0f0011_034ed3_pa94198b50d)" style="fill: none; stroke-dasharray: 2.96,1.28; stroke-dashoffset: 0; stroke: #b0b0b0; stroke-opacity: 0.6; stroke-width: 0.8"/>
     </g>
     <g id="g0f0011_034ed3_line2d_18">
      <g>
       <use xlink:href="#g0f0011_034ed3_mfa41f02a64" x="374.3" y="177.408158" style="stroke: #000000; stroke-width: 0.8"/>
      </g>
     </g>
     <g id="g0f0011_034ed3_text_9">
      <!-- $\mathdefault{4}$ -->
      <g transform="translate(369.730952 198.245154) scale(0.2 -0.2)">
       <use xlink:href="#g0f0011_034ed3_CMR17-34" transform="scale(0.996264)"/>
      </g>
     </g>
    </g>
    <g id="g0f0011_034ed3_xtick_10">
     <g id="g0f0011_034ed3_line2d_19">
      <path d="M 410.65 334.8 
L 410.65 20.016315 
" clip-path="url(#g0f0011_034ed3_pa94198b50d)" style="fill: none; stroke-dasharray: 2.96,1.28; stroke-dashoffset: 0; stroke: #b0b0b0; stroke-opacity: 0.6; stroke-width: 0.8"/>
     </g>
     <g id="g0f0011_034ed3_line2d_20">
      <g>
       <use xlink:href="#g0f0011_034ed3_mfa41f02a64" x="410.65" y="177.408158" style="stroke: #000000; stroke-width: 0.8"/>
      </g>
     </g>
     <g id="g0f0011_034ed3_text_10">
      <!-- $\mathdefault{5}$ -->
      <g transform="translate(406.080952 198.245154) scale(0.2 -0.2)">
       <use xlink:href="#g0f0011_034ed3_CMR17-35" transform="scale(0.996264)"/>
      </g>
     </g>
    </g>
    <g id="g0f0011_034ed3_text_11">
     <!-- $x$ -->
     <g transform="translate(435.913188 219.957785) scale(0.2 -0.2)">
      <defs>
       <path id="g0f0011_034ed3_CMMI12-78" d="M 3034 2606 
C 2829 2567 2752 2414 2752 2293 
C 2752 2139 2874 2088 2963 2088 
C 3155 2088 3290 2254 3290 2427 
C 3290 2695 2982 2816 2714 2816 
C 2323 2816 2106 2433 2048 2312 
C 1901 2816 1504 2816 1389 2816 
C 736 2816 390 1980 390 1839 
C 390 1814 416 1782 461 1782 
C 512 1782 525 1820 538 1846 
C 755 2555 1184 2689 1370 2689 
C 1658 2689 1715 2420 1715 2267 
C 1715 2127 1677 1980 1600 1673 
L 1382 798 
C 1286 415 1101 64 762 64 
C 730 64 570 64 435 147 
C 666 192 717 383 717 460 
C 717 588 621 664 499 664 
C 346 664 179 530 179 326 
C 179 57 480 -64 755 -64 
C 1062 -64 1280 179 1414 441 
C 1517 64 1837 -64 2074 -64 
C 2726 -64 3072 773 3072 913 
C 3072 945 3046 971 3008 971 
C 2950 971 2944 939 2925 888 
C 2752 326 2381 64 2093 64 
C 1869 64 1747 230 1747 492 
C 1747 632 1773 734 1875 1156 
L 2099 2024 
C 2195 2408 2413 2689 2707 2689 
C 2720 2689 2899 2689 3034 2606 
z
" transform="scale(0.015625)"/>
      </defs>
      <use xlink:href="#g0f0011_034ed3_CMMI12-78" transform="scale(0.996264)"/>
     </g>
    </g>
   </g>
   <g id="g0f0011_034ed3_matplotlib.axis_2">
    <g id="g0f0011_034ed3_ytick_1">
     <g id="g0f0011_034ed3_line2d_21">
      <path d="M 10.8 308.568026 
L 447 308.568026 
" clip-path="url(#g0f0011_034ed3_pa94198b50d)" style="fill: none; stroke-dasharray: 2.96,1.28; stroke-dashoffset: 0; stroke: #b0b0b0; stroke-opacity: 0.6; stroke-width: 0.8"/>
     </g>
     <g id="g0f0011_034ed3_line2d_22">
      <defs>
       <path id="g0f0011_034ed3_mcdb7c202db" d="M 0 0 
L -3.5 0 
" style="stroke: #000000; stroke-width: 0.8"/>
      </defs>
      <g>
       <use xlink:href="#g0f0011_034ed3_mcdb7c202db" x="228.9" y="308.568026" style="stroke: #000000; stroke-width: 0.8"/>
      </g>
     </g>
     <g id="g0f0011_034ed3_text_12">
      <!-- $\mathdefault{−5}$ -->
      <g transform="translate(197.264417 315.486525) scale(0.2 -0.2)">
       <use xlink:href="#g0f0011_034ed3_CMSY10-0" transform="scale(0.996264)"/>
       <use xlink:href="#g0f0011_034ed3_CMR17-35" transform="translate(77.487468 0) scale(0.996264)"/>
      </g>
     </g>
    </g>
    <g id="g0f0011_034ed3_ytick_2">
     <g id="g0f0011_034ed3_line2d_23">
      <path d="M 10.8 282.336053 
L 447 282.336053 
" clip-path="url(#g0f0011_034ed3_pa94198b50d)" style="fill: none; stroke-dasharray: 2.96,1.28; stroke-dashoffset: 0; stroke: #b0b0b0; stroke-opacity: 0.6; stroke-width: 0.8"/>
     </g>
     <g id="g0f0011_034ed3_line2d_24">
      <g>
       <use xlink:href="#g0f0011_034ed3_mcdb7c202db" x="228.9" y="282.336053" style="stroke: #000000; stroke-width: 0.8"/>
      </g>
     </g>
     <g id="g0f0011_034ed3_text_13">
      <!-- $\mathdefault{−4}$ -->
      <g transform="translate(197.264417 289.254551) scale(0.2 -0.2)">
       <use xlink:href="#g0f0011_034ed3_CMSY10-0" transform="scale(0.996264)"/>
       <use xlink:href="#g0f0011_034ed3_CMR17-34" transform="translate(77.487468 0) scale(0.996264)"/>
      </g>
     </g>
    </g>
    <g id="g0f0011_034ed3_ytick_3">
     <g id="g0f0011_034ed3_line2d_25">
      <path d="M 10.8 256.104079 
L 447 256.104079 
" clip-path="url(#g0f0011_034ed3_pa94198b50d)" style="fill: none; stroke-dasharray: 2.96,1.28; stroke-dashoffset: 0; stroke: #b0b0b0; stroke-opacity: 0.6; stroke-width: 0.8"/>
     </g>
     <g id="g0f0011_034ed3_line2d_26">
      <g>
       <use xlink:href="#g0f0011_034ed3_mcdb7c202db" x="228.9" y="256.104079" style="stroke: #000000; stroke-width: 0.8"/>
      </g>
     </g>
     <g id="g0f0011_034ed3_text_14">
      <!-- $\mathdefault{−3}$ -->
      <g transform="translate(197.264417 263.022577) scale(0.2 -0.2)">
       <use xlink:href="#g0f0011_034ed3_CMSY10-0" transform="scale(0.996264)"/>
       <use xlink:href="#g0f0011_034ed3_CMR17-33" transform="translate(77.487468 0) scale(0.996264)"/>
      </g>
     </g>
    </g>
    <g id="g0f0011_034ed3_ytick_4">
     <g id="g0f0011_034ed3_line2d_27">
      <path d="M 10.8 229.872105 
L 447 229.872105 
" clip-path="url(#g0f0011_034ed3_pa94198b50d)" style="fill: none; stroke-dasharray: 2.96,1.28; stroke-dashoffset: 0; stroke: #b0b0b0; stroke-opacity: 0.6; stroke-width: 0.8"/>
     </g>
     <g id="g0f0011_034ed3_line2d_28">
      <g>
       <use xlink:href="#g0f0011_034ed3_mcdb7c202db" x="228.9" y="229.872105" style="stroke: #000000; stroke-width: 0.8"/>
      </g>
     </g>
     <g id="g0f0011_034ed3_text_15">
      <!-- $\mathdefault{−2}$ -->
      <g transform="translate(197.264417 236.790603) scale(0.2 -0.2)">
       <use xlink:href="#g0f0011_034ed3_CMSY10-0" transform="scale(0.996264)"/>
       <use xlink:href="#g0f0011_034ed3_CMR17-32" transform="translate(77.487468 0) scale(0.996264)"/>
      </g>
     </g>
    </g>
    <g id="g0f0011_034ed3_ytick_5">
     <g id="g0f0011_034ed3_line2d_29">
      <path d="M 10.8 203.640131 
L 447 203.640131 
" clip-path="url(#g0f0011_034ed3_pa94198b50d)" style="fill: none; stroke-dasharray: 2.96,1.28; stroke-dashoffset: 0; stroke: #b0b0b0; stroke-opacity: 0.6; stroke-width: 0.8"/>
     </g>
     <g id="g0f0011_034ed3_line2d_30">
      <g>
       <use xlink:href="#g0f0011_034ed3_mcdb7c202db" x="228.9" y="203.640131" style="stroke: #000000; stroke-width: 0.8"/>
      </g>
     </g>
     <g id="g0f0011_034ed3_text_16">
      <!-- $\mathdefault{−1}$ -->
      <g transform="translate(197.264417 210.55863) scale(0.2 -0.2)">
       <use xlink:href="#g0f0011_034ed3_CMSY10-0" transform="scale(0.996264)"/>
       <use xlink:href="#g0f0011_034ed3_CMR17-31" transform="translate(77.487468 0) scale(0.996264)"/>
      </g>
     </g>
    </g>
    <g id="g0f0011_034ed3_ytick_6">
     <g id="g0f0011_034ed3_line2d_31">
      <path d="M 10.8 151.176184 
L 447 151.176184 
" clip-path="url(#g0f0011_034ed3_pa94198b50d)" style="fill: none; stroke-dasharray: 2.96,1.28; stroke-dashoffset: 0; stroke: #b0b0b0; stroke-opacity: 0.6; stroke-width: 0.8"/>
     </g>
     <g id="g0f0011_034ed3_line2d_32">
      <g>
       <use xlink:href="#g0f0011_034ed3_mcdb7c202db" x="228.9" y="151.176184" style="stroke: #000000; stroke-width: 0.8"/>
      </g>
     </g>
     <g id="g0f0011_034ed3_text_17">
      <!-- $\mathdefault{1}$ -->
      <g transform="translate(212.761905 158.094682) scale(0.2 -0.2)">
       <use xlink:href="#g0f0011_034ed3_CMR17-31" transform="scale(0.996264)"/>
      </g>
     </g>
    </g>
    <g id="g0f0011_034ed3_ytick_7">
     <g id="g0f0011_034ed3_line2d_33">
      <path d="M 10.8 124.94421 
L 447 124.94421 
" clip-path="url(#g0f0011_034ed3_pa94198b50d)" style="fill: none; stroke-dasharray: 2.96,1.28; stroke-dashoffset: 0; stroke: #b0b0b0; stroke-opacity: 0.6; stroke-width: 0.8"/>
     </g>
     <g id="g0f0011_034ed3_line2d_34">
      <g>
       <use xlink:href="#g0f0011_034ed3_mcdb7c202db" x="228.9" y="124.94421" style="stroke: #000000; stroke-width: 0.8"/>
      </g>
     </g>
     <g id="g0f0011_034ed3_text_18">
      <!-- $\mathdefault{2}$ -->
      <g transform="translate(212.761905 131.862709) scale(0.2 -0.2)">
       <use xlink:href="#g0f0011_034ed3_CMR17-32" transform="scale(0.996264)"/>
      </g>
     </g>
    </g>
    <g id="g0f0011_034ed3_ytick_8">
     <g id="g0f0011_034ed3_line2d_35">
      <path d="M 10.8 98.712236 
L 447 98.712236 
" clip-path="url(#g0f0011_034ed3_pa94198b50d)" style="fill: none; stroke-dasharray: 2.96,1.28; stroke-dashoffset: 0; stroke: #b0b0b0; stroke-opacity: 0.6; stroke-width: 0.8"/>
     </g>
     <g id="g0f0011_034ed3_line2d_36">
      <g>
       <use xlink:href="#g0f0011_034ed3_mcdb7c202db" x="228.9" y="98.712236" style="stroke: #000000; stroke-width: 0.8"/>
      </g>
     </g>
     <g id="g0f0011_034ed3_text_19">
      <!-- $\mathdefault{3}$ -->
      <g transform="translate(212.761905 105.630735) scale(0.2 -0.2)">
       <use xlink:href="#g0f0011_034ed3_CMR17-33" transform="scale(0.996264)"/>
      </g>
     </g>
    </g>
    <g id="g0f0011_034ed3_ytick_9">
     <g id="g0f0011_034ed3_line2d_37">
      <path d="M 10.8 72.480263 
L 447 72.480263 
" clip-path="url(#g0f0011_034ed3_pa94198b50d)" style="fill: none; stroke-dasharray: 2.96,1.28; stroke-dashoffset: 0; stroke: #b0b0b0; stroke-opacity: 0.6; stroke-width: 0.8"/>
     </g>
     <g id="g0f0011_034ed3_line2d_38">
      <g>
       <use xlink:href="#g0f0011_034ed3_mcdb7c202db" x="228.9" y="72.480263" style="stroke: #000000; stroke-width: 0.8"/>
      </g>
     </g>
     <g id="g0f0011_034ed3_text_20">
      <!-- $\mathdefault{4}$ -->
      <g transform="translate(212.761905 79.398761) scale(0.2 -0.2)">
       <use xlink:href="#g0f0011_034ed3_CMR17-34" transform="scale(0.996264)"/>
      </g>
     </g>
    </g>
    <g id="g0f0011_034ed3_ytick_10">
     <g id="g0f0011_034ed3_line2d_39">
      <path d="M 10.8 46.248289 
L 447 46.248289 
" clip-path="url(#g0f0011_034ed3_pa94198b50d)" style="fill: none; stroke-dasharray: 2.96,1.28; stroke-dashoffset: 0; stroke: #b0b0b0; stroke-opacity: 0.6; stroke-width: 0.8"/>
     </g>
     <g id="g0f0011_034ed3_line2d_40">
      <g>
       <use xlink:href="#g0f0011_034ed3_mcdb7c202db" x="228.9" y="46.248289" style="stroke: #000000; stroke-width: 0.8"/>
      </g>
     </g>
     <g id="g0f0011_034ed3_text_21">
      <!-- $\mathdefault{5}$ -->
      <g transform="translate(212.761905 53.166787) scale(0.2 -0.2)">
       <use xlink:href="#g0f0011_034ed3_CMR17-35" transform="scale(0.996264)"/>
      </g>
     </g>
    </g>
    <g id="g0f0011_034ed3_text_22">
     <!-- $y$ -->
     <g transform="translate(183.751583 16.140682) scale(0.2 -0.2)">
      <defs>
       <path id="g0f0011_034ed3_CMMI12-79" d="M 1683 -700 
C 1510 -939 1261 -1152 947 -1152 
C 870 -1152 563 -1152 467 -889 
C 486 -895 518 -895 531 -895 
C 723 -895 851 -729 851 -582 
C 851 -435 730 -384 634 -384 
C 531 -384 307 -458 307 -759 
C 307 -1071 582 -1286 947 -1286 
C 1587 -1286 2234 -700 2413 6 
L 3040 2485 
C 3046 2517 3059 2556 3059 2594 
C 3059 2689 2982 2753 2886 2753 
C 2829 2753 2694 2727 2643 2535 
L 2170 658 
C 2138 543 2138 530 2086 460 
C 1958 281 1747 64 1440 64 
C 1082 64 1050 415 1050 588 
C 1050 952 1222 1443 1395 1903 
C 1466 2088 1504 2178 1504 2305 
C 1504 2574 1312 2816 998 2816 
C 410 2816 173 1890 173 1839 
C 173 1814 198 1782 243 1782 
C 301 1782 307 1807 333 1897 
C 486 2433 730 2689 979 2689 
C 1037 2689 1146 2689 1146 2478 
C 1146 2312 1075 2127 979 1884 
C 666 1047 666 837 666 683 
C 666 77 1101 -64 1421 -64 
C 1606 -64 1837 -6 2061 230 
L 2067 224 
C 1971 -147 1907 -392 1683 -700 
z
" transform="scale(0.015625)"/>
      </defs>
      <use xlink:href="#g0f0011_034ed3_CMMI12-79" transform="scale(0.996264)"/>
     </g>
    </g>
   </g>
   <g id="g0f0011_034ed3_line2d_41">
    <defs>
     <path id="g0f0011_034ed3_m247411474f" d="M 3 0 
L -3 -3 
L -3 3 
z
" style="stroke: #000000; stroke-linejoin: miter"/>
    </defs>
    <g>
     <use xlink:href="#g0f0011_034ed3_m247411474f" x="447" y="177.408158" style="stroke: #000000; stroke-linejoin: miter"/>
    </g>
   </g>
   <g id="g0f0011_034ed3_line2d_42">
    <defs>
     <path id="g0f0011_034ed3_m0d019c8fd7" d="M 0 -3 
L -3 3 
L 3 3 
z
" style="stroke: #000000; stroke-linejoin: miter"/>
    </defs>
    <g>
     <use xlink:href="#g0f0011_034ed3_m0d019c8fd7" x="228.9" y="20.016315" style="stroke: #000000; stroke-linejoin: miter"/>
    </g>
   </g>
   <g id="g0f0011_034ed3_line2d_43">
    <path d="M 10.8 192.939414 
L 13.409266 189.421598 
L 16.57766 184.757032 
L 21.343563 177.290232 
L 27.254349 168.112531 
L 30.422743 163.607876 
L 33.032009 160.271272 
L 35.321773 157.692033 
L 37.398535 155.678465 
L 39.315547 154.123449 
L 41.099432 152.95728 
L 42.776817 152.120275 
L 44.374327 151.565126 
L 45.918586 151.257903 
L 47.43622 151.178365 
L 48.953855 151.319964 
L 50.498114 151.689796 
L 52.068998 152.296309 
L 53.719758 153.177943 
L 55.450394 154.361533 
L 57.28753 155.89403 
L 59.257792 157.832282 
L 61.41443 160.271499 
L 63.837319 163.357373 
L 66.659586 167.327215 
L 70.280608 172.83333 
L 80.877422 189.195843 
L 83.699689 193.007705 
L 86.122578 195.921787 
L 88.305841 198.208879 
L 90.302728 199.984073 
L 92.139864 201.326896 
L 93.8705 202.321912 
L 95.52126 203.016663 
L 97.092144 203.440708 
L 98.636404 203.628389 
L 100.154038 203.589845 
L 101.671672 203.330571 
L 103.215931 202.842439 
L 104.813441 202.103916 
L 106.490826 201.080351 
L 108.274712 199.724619 
L 110.191723 197.97852 
L 112.268486 195.775613 
L 114.558249 193.012388 
L 117.167515 189.502125 
L 120.309284 184.884551 
L 124.995312 177.549981 
L 131.065849 168.118258 
L 134.234243 163.613085 
L 136.843509 160.275909 
L 139.133272 157.696073 
L 141.210035 155.681896 
L 143.127046 154.12627 
L 144.910932 152.959499 
L 146.588317 152.121904 
L 148.185827 151.566177 
L 149.730086 151.258387 
L 151.24772 151.178287 
L 152.765354 151.319324 
L 154.309614 151.68859 
L 155.880498 152.294539 
L 157.531258 153.175597 
L 159.261893 154.358608 
L 161.099029 155.890527 
L 163.069291 157.828206 
L 165.225929 160.266862 
L 167.648819 163.352202 
L 170.471086 167.321561 
L 174.092108 172.8273 
L 184.688921 189.190371 
L 187.511188 193.002781 
L 189.934078 195.917447 
L 192.117341 198.205147 
L 194.114228 199.980953 
L 195.951364 201.324381 
L 197.682 202.319994 
L 199.33276 203.015335 
L 200.903644 203.439954 
L 202.447903 203.628205 
L 203.965537 203.590223 
L 205.483172 203.331508 
L 207.027431 202.843937 
L 208.62494 202.10598 
L 210.302326 201.082989 
L 212.086211 199.727837 
L 214.003223 197.98232 
L 216.079985 195.779985 
L 218.369749 193.01731 
L 220.979015 189.50756 
L 224.120784 184.890421 
L 228.806812 177.556105 
L 234.903974 168.084463 
L 238.072368 163.582353 
L 240.681633 160.248553 
L 242.971397 157.672243 
L 245.04816 155.661661 
L 246.965171 154.109638 
L 248.749057 152.946422 
L 250.426442 152.11231 
L 252.023952 151.559992 
L 253.568211 151.255553 
L 255.085845 151.17877 
L 256.603479 151.32312 
L 258.147739 151.695724 
L 259.718623 152.305004 
L 261.369383 153.189462 
L 263.100018 154.375887 
L 264.937154 155.911222 
L 266.934041 157.880479 
L 269.117305 160.358401 
L 271.566819 163.490063 
L 274.415711 167.51132 
L 278.089984 173.112893 
L 288.28742 188.881757 
L 291.162937 192.793155 
L 293.612452 195.762705 
L 295.795715 198.071887 
L 297.792602 199.869387 
L 299.629738 201.234217 
L 301.360374 202.251016 
L 303.011133 202.967273 
L 304.582018 203.412243 
L 306.126277 203.620747 
L 307.643911 203.602732 
L 309.161546 203.363879 
L 310.705805 202.896237 
L 312.303314 202.178414 
L 313.9807 201.175832 
L 315.73796 199.863212 
L 317.628346 198.168314 
L 319.678484 196.024147 
L 321.941622 193.326282 
L 324.524263 189.886418 
L 327.612782 185.381005 
L 332.005933 178.534115 
L 338.795349 167.971755 
L 341.937118 163.515774 
L 344.546383 160.189317 
L 346.836147 157.620673 
L 348.91291 155.617904 
L 350.803296 154.09305 
L 352.587182 152.933391 
L 354.264567 152.102764 
L 355.862077 151.553856 
L 357.406336 151.252768 
L 358.92397 151.179302 
L 360.441604 151.326965 
L 361.985863 151.702907 
L 363.556748 152.315518 
L 365.207508 153.203372 
L 366.938143 154.393209 
L 368.775279 155.931957 
L 370.772166 157.904633 
L 372.955429 160.385887 
L 375.404944 163.520715 
L 378.253836 167.544804 
L 381.928108 173.148556 
L 392.072294 188.838217 
L 394.947812 192.753931 
L 397.397326 195.728099 
L 399.58059 198.04204 
L 401.577477 199.84435 
L 403.441238 201.231654 
L 405.171873 202.249049 
L 406.822633 202.965894 
L 408.393518 203.411437 
L 409.937777 203.62051 
L 411.455411 203.603059 
L 412.973045 203.364765 
L 414.517305 202.897685 
L 416.114814 202.180429 
L 417.792199 201.178423 
L 419.54946 199.866377 
L 421.439846 198.172057 
L 423.489984 196.028462 
L 425.753122 193.33115 
L 428.335763 189.891804 
L 431.424281 185.386839 
L 435.817433 178.540233 
L 442.606849 167.977469 
L 445.748617 163.520969 
L 447 161.876901 
L 447 161.876901 
" clip-path="url(#g0f0011_034ed3_pa94198b50d)" style="fill: none; stroke: #0072b2; stroke-width: 2.5; stroke-linecap: square"/>
   </g>
   <g id="g0f0011_034ed3_patch_3">
    <path d="M 228.9 334.8 
L 228.9 20.016315 
" style="fill: none; stroke: #000000; stroke-width: 0.8; stroke-linejoin: miter; stroke-linecap: square"/>
   </g>
   <g id="g0f0011_034ed3_patch_4">
    <path d="M 447 334.8 
L 447 20.016315 
" style="fill: none"/>
   </g>
   <g id="g0f0011_034ed3_patch_5">
    <path d="M 10.8 177.408158 
L 447 177.408158 
" style="fill: none; stroke: #000000; stroke-width: 0.8; stroke-linejoin: miter; stroke-linecap: square"/>
   </g>
   <g id="g0f0011_034ed3_patch_6">
    <path d="M 10.8 20.016315 
L 447 20.016315 
" style="fill: none"/>
   </g>
  </g>
 </g>
 <defs>
  <clipPath id="g0f0011_034ed3_pa94198b50d">
   <rect x="10.8" y="20.016315" width="436.2" height="314.783685"/>
  </clipPath>
 </defs>
</svg>
