<?xml version="1.0" encoding="utf-8" standalone="no"?>
<!DOCTYPE svg PUBLIC "-//W3C//DTD SVG 1.1//EN"
  "http://www.w3.org/Graphics/SVG/1.1/DTD/svg11.dtd">
<svg xmlns:xlink="http://www.w3.org/1999/xlink" width="460.8pt" height="345.6pt" viewBox="0 0 460.8 345.6" xmlns="http://www.w3.org/2000/svg" version="1.1">
 <metadata>
  <rdf:RDF xmlns:dc="http://purl.org/dc/elements/1.1/" xmlns:cc="http://creativecommons.org/ns#" xmlns:rdf="http://www.w3.org/1999/02/22-rdf-syntax-ns#">
   <cc:Work>
    <dc:type rdf:resource="http://purl.org/dc/dcmitype/StillImage"/>
    <dc:date>2026-03-27T21:35:18.268711</dc:date>
    <dc:format>image/svg+xml</dc:format>
    <dc:creator>
     <cc:Agent>
      <dc:title>Matplotlib v3.10.8, https://matplotlib.org/</dc:title>
     </cc:Agent>
    </dc:creator>
   </cc:Work>
  </rdf:RDF>
 </metadata>
 <defs>
  <style type="text/css">*{stroke-linejoin: round; stroke-linecap: butt}</style>
 </defs>
 <g id="figure_1">
  <g id="patch_1">
   <path d="M 0 345.6 
L 460.8 345.6 
L 460.8 0 
L 0 0 
L 0 345.6 
z
" style="fill: none"/>
  </g>
  <g id="axes_1">
   <g id="patch_2">
    <path d="M 10.8 334.8 
L 447 334.8 
L 447 20.016315 
L 10.8 20.016315 
L 10.8 334.8 
z
" style="fill: none"/>
   </g>
   <g id="patch_3">
    <path d="M 90.109091 264.84807 
L 91.967898 264.84807 
L 91.967898 124.94421 
L 90.109091 124.94421 
z
" clip-path="url(#p157fb03b62)" style="fill: #0072b2; opacity: 0.3; stroke: #0072b2; stroke-linejoin: miter"/>
   </g>
   <g id="patch_4">
    <path d="M 91.967898 264.84807 
L 93.826705 264.84807 
L 93.826705 120.665744 
L 91.967898 120.665744 
z
" clip-path="url(#p157fb03b62)" style="fill: #0072b2; opacity: 0.3; stroke: #0072b2; stroke-linejoin: miter"/>
   </g>
   <g id="patch_5">
    <path d="M 93.826705 264.84807 
L 95.685511 264.84807 
L 95.685511 116.572735 
L 93.826705 116.572735 
z
" clip-path="url(#p157fb03b62)" style="fill: #0072b2; opacity: 0.3; stroke: #0072b2; stroke-linejoin: miter"/>
   </g>
   <g id="patch_6">
    <path d="M 95.685511 264.84807 
L 97.544318 264.84807 
L 97.544318 112.662782 
L 95.685511 112.662782 
z
" clip-path="url(#p157fb03b62)" style="fill: #0072b2; opacity: 0.3; stroke: #0072b2; stroke-linejoin: miter"/>
   </g>
   <g id="patch_7">
    <path d="M 97.544318 264.84807 
L 99.403125 264.84807 
L 99.403125 108.933484 
L 97.544318 108.933484 
z
" clip-path="url(#p157fb03b62)" style="fill: #0072b2; opacity: 0.3; stroke: #0072b2; stroke-linejoin: miter"/>
   </g>
   <g id="patch_8">
    <path d="M 99.403125 264.84807 
L 101.261932 264.84807 
L 101.261932 105.382438 
L 99.403125 105.382438 
z
" clip-path="url(#p157fb03b62)" style="fill: #0072b2; opacity: 0.3; stroke: #0072b2; stroke-linejoin: miter"/>
   </g>
   <g id="patch_9">
    <path d="M 101.261932 264.84807 
L 103.120739 264.84807 
L 103.120739 102.007244 
L 101.261932 102.007244 
z
" clip-path="url(#p157fb03b62)" style="fill: #0072b2; opacity: 0.3; stroke: #0072b2; stroke-linejoin: miter"/>
   </g>
   <g id="patch_10">
    <path d="M 103.120739 264.84807 
L 104.979545 264.84807 
L 104.979545 98.805499 
L 103.120739 98.805499 
z
" clip-path="url(#p157fb03b62)" style="fill: #0072b2; opacity: 0.3; stroke: #0072b2; stroke-linejoin: miter"/>
   </g>
   <g id="patch_11">
    <path d="M 104.979545 264.84807 
L 106.838352 264.84807 
L 106.838352 95.774802 
L 104.979545 95.774802 
z
" clip-path="url(#p157fb03b62)" style="fill: #0072b2; opacity: 0.3; stroke: #0072b2; stroke-linejoin: miter"/>
   </g>
   <g id="patch_12">
    <path d="M 106.838352 264.84807 
L 108.697159 264.84807 
L 108.697159 92.912751 
L 106.838352 92.912751 
z
" clip-path="url(#p157fb03b62)" style="fill: #0072b2; opacity: 0.3; stroke: #0072b2; stroke-linejoin: miter"/>
   </g>
   <g id="patch_13">
    <path d="M 108.697159 264.84807 
L 110.555966 264.84807 
L 110.555966 90.216945 
L 108.697159 90.216945 
z
" clip-path="url(#p157fb03b62)" style="fill: #0072b2; opacity: 0.3; stroke: #0072b2; stroke-linejoin: miter"/>
   </g>
   <g id="patch_14">
    <path d="M 110.555966 264.84807 
L 112.414773 264.84807 
L 112.414773 87.684982 
L 110.555966 87.684982 
z
" clip-path="url(#p157fb03b62)" style="fill: #0072b2; opacity: 0.3; stroke: #0072b2; stroke-linejoin: miter"/>
   </g>
   <g id="patch_15">
    <path d="M 112.414773 264.84807 
L 114.27358 264.84807 
L 114.27358 85.314461 
L 112.414773 85.314461 
z
" clip-path="url(#p157fb03b62)" style="fill: #0072b2; opacity: 0.3; stroke: #0072b2; stroke-linejoin: miter"/>
   </g>
   <g id="patch_16">
    <path d="M 114.27358 264.84807 
L 116.132386 264.84807 
L 116.132386 83.102979 
L 114.27358 83.102979 
z
" clip-path="url(#p157fb03b62)" style="fill: #0072b2; opacity: 0.3; stroke: #0072b2; stroke-linejoin: miter"/>
   </g>
   <g id="patch_17">
    <path d="M 116.132386 264.84807 
L 117.991193 264.84807 
L 117.991193 81.048136 
L 116.132386 81.048136 
z
" clip-path="url(#p157fb03b62)" style="fill: #0072b2; opacity: 0.3; stroke: #0072b2; stroke-linejoin: miter"/>
   </g>
   <g id="patch_18">
    <path d="M 117.991193 264.84807 
L 119.85 264.84807 
L 119.85 79.147529 
L 117.991193 79.147529 
z
" clip-path="url(#p157fb03b62)" style="fill: #0072b2; opacity: 0.3; stroke: #0072b2; stroke-linejoin: miter"/>
   </g>
   <g id="patch_19">
    <path d="M 119.85 264.84807 
L 121.708807 264.84807 
L 121.708807 77.398758 
L 119.85 77.398758 
z
" clip-path="url(#p157fb03b62)" style="fill: #0072b2; opacity: 0.3; stroke: #0072b2; stroke-linejoin: miter"/>
   </g>
   <g id="patch_20">
    <path d="M 121.708807 264.84807 
L 123.567614 264.84807 
L 123.567614 75.79942 
L 121.708807 75.79942 
z
" clip-path="url(#p157fb03b62)" style="fill: #0072b2; opacity: 0.3; stroke: #0072b2; stroke-linejoin: miter"/>
   </g>
   <g id="patch_21">
    <path d="M 123.567614 264.84807 
L 125.42642 264.84807 
L 125.42642 74.347113 
L 123.567614 74.347113 
z
" clip-path="url(#p157fb03b62)" style="fill: #0072b2; opacity: 0.3; stroke: #0072b2; stroke-linejoin: miter"/>
   </g>
   <g id="patch_22">
    <path d="M 125.42642 264.84807 
L 127.285227 264.84807 
L 127.285227 73.039437 
L 125.42642 73.039437 
z
" clip-path="url(#p157fb03b62)" style="fill: #0072b2; opacity: 0.3; stroke: #0072b2; stroke-linejoin: miter"/>
   </g>
   <g id="patch_23">
    <path d="M 127.285227 264.84807 
L 129.144034 264.84807 
L 129.144034 71.87399 
L 127.285227 71.87399 
z
" clip-path="url(#p157fb03b62)" style="fill: #0072b2; opacity: 0.3; stroke: #0072b2; stroke-linejoin: miter"/>
   </g>
   <g id="patch_24">
    <path d="M 129.144034 264.84807 
L 131.002841 264.84807 
L 131.002841 70.848369 
L 129.144034 70.848369 
z
" clip-path="url(#p157fb03b62)" style="fill: #0072b2; opacity: 0.3; stroke: #0072b2; stroke-linejoin: miter"/>
   </g>
   <g id="patch_25">
    <path d="M 131.002841 264.84807 
L 132.861648 264.84807 
L 132.861648 69.960174 
L 131.002841 69.960174 
z
" clip-path="url(#p157fb03b62)" style="fill: #0072b2; opacity: 0.3; stroke: #0072b2; stroke-linejoin: miter"/>
   </g>
   <g id="patch_26">
    <path d="M 132.861648 264.84807 
L 134.720455 264.84807 
L 134.720455 69.207003 
L 132.861648 69.207003 
z
" clip-path="url(#p157fb03b62)" style="fill: #0072b2; opacity: 0.3; stroke: #0072b2; stroke-linejoin: miter"/>
   </g>
   <g id="patch_27">
    <path d="M 134.720455 264.84807 
L 136.579261 264.84807 
L 136.579261 68.586454 
L 134.720455 68.586454 
z
" clip-path="url(#p157fb03b62)" style="fill: #0072b2; opacity: 0.3; stroke: #0072b2; stroke-linejoin: miter"/>
   </g>
   <g id="patch_28">
    <path d="M 136.579261 264.84807 
L 138.438068 264.84807 
L 138.438068 68.096126 
L 136.579261 68.096126 
z
" clip-path="url(#p157fb03b62)" style="fill: #0072b2; opacity: 0.3; stroke: #0072b2; stroke-linejoin: miter"/>
   </g>
   <g id="patch_29">
    <path d="M 138.438068 264.84807 
L 140.296875 264.84807 
L 140.296875 67.733616 
L 138.438068 67.733616 
z
" clip-path="url(#p157fb03b62)" style="fill: #0072b2; opacity: 0.3; stroke: #0072b2; stroke-linejoin: miter"/>
   </g>
   <g id="patch_30">
    <path d="M 140.296875 264.84807 
L 142.155682 264.84807 
L 142.155682 67.496524 
L 140.296875 67.496524 
z
" clip-path="url(#p157fb03b62)" style="fill: #0072b2; opacity: 0.3; stroke: #0072b2; stroke-linejoin: miter"/>
   </g>
   <g id="patch_31">
    <path d="M 142.155682 264.84807 
L 144.014489 264.84807 
L 144.014489 67.382447 
L 142.155682 67.382447 
z
" clip-path="url(#p157fb03b62)" style="fill: #0072b2; opacity: 0.3; stroke: #0072b2; stroke-linejoin: miter"/>
   </g>
   <g id="patch_32">
    <path d="M 144.014489 264.84807 
L 145.873295 264.84807 
L 145.873295 67.388985 
L 144.014489 67.388985 
z
" clip-path="url(#p157fb03b62)" style="fill: #0072b2; opacity: 0.3; stroke: #0072b2; stroke-linejoin: miter"/>
   </g>
   <g id="patch_33">
    <path d="M 145.873295 264.84807 
L 147.732102 264.84807 
L 147.732102 67.513735 
L 145.873295 67.513735 
z
" clip-path="url(#p157fb03b62)" style="fill: #0072b2; opacity: 0.3; stroke: #0072b2; stroke-linejoin: miter"/>
   </g>
   <g id="patch_34">
    <path d="M 147.732102 264.84807 
L 149.590909 264.84807 
L 149.590909 67.754297 
L 147.732102 67.754297 
z
" clip-path="url(#p157fb03b62)" style="fill: #0072b2; opacity: 0.3; stroke: #0072b2; stroke-linejoin: miter"/>
   </g>
   <g id="patch_35">
    <path d="M 149.590909 264.84807 
L 151.449716 264.84807 
L 151.449716 68.108267 
L 149.590909 68.108267 
z
" clip-path="url(#p157fb03b62)" style="fill: #0072b2; opacity: 0.3; stroke: #0072b2; stroke-linejoin: miter"/>
   </g>
   <g id="patch_36">
    <path d="M 151.449716 264.84807 
L 153.308523 264.84807 
L 153.308523 68.573245 
L 151.449716 68.573245 
z
" clip-path="url(#p157fb03b62)" style="fill: #0072b2; opacity: 0.3; stroke: #0072b2; stroke-linejoin: miter"/>
   </g>
   <g id="patch_37">
    <path d="M 153.308523 264.84807 
L 155.16733 264.84807 
L 155.16733 69.146829 
L 153.308523 69.146829 
z
" clip-path="url(#p157fb03b62)" style="fill: #0072b2; opacity: 0.3; stroke: #0072b2; stroke-linejoin: miter"/>
   </g>
   <g id="patch_38">
    <path d="M 155.16733 264.84807 
L 157.026136 264.84807 
L 157.026136 69.826618 
L 155.16733 69.826618 
z
" clip-path="url(#p157fb03b62)" style="fill: #0072b2; opacity: 0.3; stroke: #0072b2; stroke-linejoin: miter"/>
   </g>
   <g id="patch_39">
    <path d="M 157.026136 264.84807 
L 158.884943 264.84807 
L 158.884943 70.61021 
L 157.026136 70.61021 
z
" clip-path="url(#p157fb03b62)" style="fill: #0072b2; opacity: 0.3; stroke: #0072b2; stroke-linejoin: miter"/>
   </g>
   <g id="patch_40">
    <path d="M 158.884943 264.84807 
L 160.74375 264.84807 
L 160.74375 71.495203 
L 158.884943 71.495203 
z
" clip-path="url(#p157fb03b62)" style="fill: #0072b2; opacity: 0.3; stroke: #0072b2; stroke-linejoin: miter"/>
   </g>
   <g id="patch_41">
    <path d="M 160.74375 264.84807 
L 162.602557 264.84807 
L 162.602557 72.479195 
L 160.74375 72.479195 
z
" clip-path="url(#p157fb03b62)" style="fill: #0072b2; opacity: 0.3; stroke: #0072b2; stroke-linejoin: miter"/>
   </g>
   <g id="patch_42">
    <path d="M 162.602557 264.84807 
L 164.461364 264.84807 
L 164.461364 73.559786 
L 162.602557 73.559786 
z
" clip-path="url(#p157fb03b62)" style="fill: #0072b2; opacity: 0.3; stroke: #0072b2; stroke-linejoin: miter"/>
   </g>
   <g id="patch_43">
    <path d="M 164.461364 264.84807 
L 166.32017 264.84807 
L 166.32017 74.734573 
L 164.461364 74.734573 
z
" clip-path="url(#p157fb03b62)" style="fill: #0072b2; opacity: 0.3; stroke: #0072b2; stroke-linejoin: miter"/>
   </g>
   <g id="patch_44">
    <path d="M 166.32017 264.84807 
L 168.178977 264.84807 
L 168.178977 76.001155 
L 166.32017 76.001155 
z
" clip-path="url(#p157fb03b62)" style="fill: #0072b2; opacity: 0.3; stroke: #0072b2; stroke-linejoin: miter"/>
   </g>
   <g id="patch_45">
    <path d="M 168.178977 264.84807 
L 170.037784 264.84807 
L 170.037784 77.35713 
L 168.178977 77.35713 
z
" clip-path="url(#p157fb03b62)" style="fill: #0072b2; opacity: 0.3; stroke: #0072b2; stroke-linejoin: miter"/>
   </g>
   <g id="patch_46">
    <path d="M 170.037784 264.84807 
L 171.896591 264.84807 
L 171.896591 78.800097 
L 170.037784 78.800097 
z
" clip-path="url(#p157fb03b62)" style="fill: #0072b2; opacity: 0.3; stroke: #0072b2; stroke-linejoin: miter"/>
   </g>
   <g id="patch_47">
    <path d="M 171.896591 264.84807 
L 173.755398 264.84807 
L 173.755398 80.327653 
L 171.896591 80.327653 
z
" clip-path="url(#p157fb03b62)" style="fill: #0072b2; opacity: 0.3; stroke: #0072b2; stroke-linejoin: miter"/>
   </g>
   <g id="patch_48">
    <path d="M 173.755398 264.84807 
L 175.614205 264.84807 
L 175.614205 81.937398 
L 173.755398 81.937398 
z
" clip-path="url(#p157fb03b62)" style="fill: #0072b2; opacity: 0.3; stroke: #0072b2; stroke-linejoin: miter"/>
   </g>
   <g id="patch_49">
    <path d="M 175.614205 264.84807 
L 177.473011 264.84807 
L 177.473011 83.62693 
L 175.614205 83.62693 
z
" clip-path="url(#p157fb03b62)" style="fill: #0072b2; opacity: 0.3; stroke: #0072b2; stroke-linejoin: miter"/>
   </g>
   <g id="patch_50">
    <path d="M 177.473011 264.84807 
L 179.331818 264.84807 
L 179.331818 85.393847 
L 177.473011 85.393847 
z
" clip-path="url(#p157fb03b62)" style="fill: #0072b2; opacity: 0.3; stroke: #0072b2; stroke-linejoin: miter"/>
   </g>
   <g id="patch_51">
    <path d="M 179.331818 264.84807 
L 181.190625 264.84807 
L 181.190625 87.235748 
L 179.331818 87.235748 
z
" clip-path="url(#p157fb03b62)" style="fill: #0072b2; opacity: 0.3; stroke: #0072b2; stroke-linejoin: miter"/>
   </g>
   <g id="patch_52">
    <path d="M 181.190625 264.84807 
L 183.049432 264.84807 
L 183.049432 89.15023 
L 181.190625 89.15023 
z
" clip-path="url(#p157fb03b62)" style="fill: #0072b2; opacity: 0.3; stroke: #0072b2; stroke-linejoin: miter"/>
   </g>
   <g id="patch_53">
    <path d="M 183.049432 264.84807 
L 184.908239 264.84807 
L 184.908239 91.134893 
L 183.049432 91.134893 
z
" clip-path="url(#p157fb03b62)" style="fill: #0072b2; opacity: 0.3; stroke: #0072b2; stroke-linejoin: miter"/>
   </g>
   <g id="patch_54">
    <path d="M 184.908239 264.84807 
L 186.767045 264.84807 
L 186.767045 93.187335 
L 184.908239 93.187335 
z
" clip-path="url(#p157fb03b62)" style="fill: #0072b2; opacity: 0.3; stroke: #0072b2; stroke-linejoin: miter"/>
   </g>
   <g id="patch_55">
    <path d="M 186.767045 264.84807 
L 188.625852 264.84807 
L 188.625852 95.305154 
L 186.767045 95.305154 
z
" clip-path="url(#p157fb03b62)" style="fill: #0072b2; opacity: 0.3; stroke: #0072b2; stroke-linejoin: miter"/>
   </g>
   <g id="patch_56">
    <path d="M 188.625852 264.84807 
L 190.484659 264.84807 
L 190.484659 97.485948 
L 188.625852 97.485948 
z
" clip-path="url(#p157fb03b62)" style="fill: #0072b2; opacity: 0.3; stroke: #0072b2; stroke-linejoin: miter"/>
   </g>
   <g id="patch_57">
    <path d="M 190.484659 264.84807 
L 192.343466 264.84807 
L 192.343466 99.727316 
L 190.484659 99.727316 
z
" clip-path="url(#p157fb03b62)" style="fill: #0072b2; opacity: 0.3; stroke: #0072b2; stroke-linejoin: miter"/>
   </g>
   <g id="patch_58">
    <path d="M 192.343466 264.84807 
L 194.202273 264.84807 
L 194.202273 102.026857 
L 192.343466 102.026857 
z
" clip-path="url(#p157fb03b62)" style="fill: #0072b2; opacity: 0.3; stroke: #0072b2; stroke-linejoin: miter"/>
   </g>
   <g id="patch_59">
    <path d="M 194.202273 264.84807 
L 196.06108 264.84807 
L 196.06108 104.382168 
L 194.202273 104.382168 
z
" clip-path="url(#p157fb03b62)" style="fill: #0072b2; opacity: 0.3; stroke: #0072b2; stroke-linejoin: miter"/>
   </g>
   <g id="patch_60">
    <path d="M 196.06108 264.84807 
L 197.919886 264.84807 
L 197.919886 106.790849 
L 196.06108 106.790849 
z
" clip-path="url(#p157fb03b62)" style="fill: #0072b2; opacity: 0.3; stroke: #0072b2; stroke-linejoin: miter"/>
   </g>
   <g id="patch_61">
    <path d="M 197.919886 264.84807 
L 199.778693 264.84807 
L 199.778693 109.250496 
L 197.919886 109.250496 
z
" clip-path="url(#p157fb03b62)" style="fill: #0072b2; opacity: 0.3; stroke: #0072b2; stroke-linejoin: miter"/>
   </g>
   <g id="patch_62">
    <path d="M 199.778693 264.84807 
L 201.6375 264.84807 
L 201.6375 111.75871 
L 199.778693 111.75871 
z
" clip-path="url(#p157fb03b62)" style="fill: #0072b2; opacity: 0.3; stroke: #0072b2; stroke-linejoin: miter"/>
   </g>
   <g id="patch_63">
    <path d="M 201.6375 264.84807 
L 203.496307 264.84807 
L 203.496307 114.313088 
L 201.6375 114.313088 
z
" clip-path="url(#p157fb03b62)" style="fill: #0072b2; opacity: 0.3; stroke: #0072b2; stroke-linejoin: miter"/>
   </g>
   <g id="patch_64">
    <path d="M 203.496307 264.84807 
L 205.355114 264.84807 
L 205.355114 116.911229 
L 203.496307 116.911229 
z
" clip-path="url(#p157fb03b62)" style="fill: #0072b2; opacity: 0.3; stroke: #0072b2; stroke-linejoin: miter"/>
   </g>
   <g id="patch_65">
    <path d="M 205.355114 264.84807 
L 207.21392 264.84807 
L 207.21392 119.55073 
L 205.355114 119.55073 
z
" clip-path="url(#p157fb03b62)" style="fill: #0072b2; opacity: 0.3; stroke: #0072b2; stroke-linejoin: miter"/>
   </g>
   <g id="patch_66">
    <path d="M 207.21392 264.84807 
L 209.072727 264.84807 
L 209.072727 122.229191 
L 207.21392 122.229191 
z
" clip-path="url(#p157fb03b62)" style="fill: #0072b2; opacity: 0.3; stroke: #0072b2; stroke-linejoin: miter"/>
   </g>
   <g id="patch_67">
    <path d="M 209.072727 264.84807 
L 210.931534 264.84807 
L 210.931534 124.94421 
L 209.072727 124.94421 
z
" clip-path="url(#p157fb03b62)" style="fill: #0072b2; opacity: 0.3; stroke: #0072b2; stroke-linejoin: miter"/>
   </g>
   <g id="patch_68">
    <path d="M 210.931534 264.84807 
L 212.790341 264.84807 
L 212.790341 127.693385 
L 210.931534 127.693385 
z
" clip-path="url(#p157fb03b62)" style="fill: #0072b2; opacity: 0.3; stroke: #0072b2; stroke-linejoin: miter"/>
   </g>
   <g id="patch_69">
    <path d="M 212.790341 264.84807 
L 214.649148 264.84807 
L 214.649148 130.474315 
L 212.790341 130.474315 
z
" clip-path="url(#p157fb03b62)" style="fill: #0072b2; opacity: 0.3; stroke: #0072b2; stroke-linejoin: miter"/>
   </g>
   <g id="patch_70">
    <path d="M 214.649148 264.84807 
L 216.507955 264.84807 
L 216.507955 133.284598 
L 214.649148 133.284598 
z
" clip-path="url(#p157fb03b62)" style="fill: #0072b2; opacity: 0.3; stroke: #0072b2; stroke-linejoin: miter"/>
   </g>
   <g id="patch_71">
    <path d="M 216.507955 264.84807 
L 218.366761 264.84807 
L 218.366761 136.121832 
L 216.507955 136.121832 
z
" clip-path="url(#p157fb03b62)" style="fill: #0072b2; opacity: 0.3; stroke: #0072b2; stroke-linejoin: miter"/>
   </g>
   <g id="patch_72">
    <path d="M 218.366761 264.84807 
L 220.225568 264.84807 
L 220.225568 138.983616 
L 218.366761 138.983616 
z
" clip-path="url(#p157fb03b62)" style="fill: #0072b2; opacity: 0.3; stroke: #0072b2; stroke-linejoin: miter"/>
   </g>
   <g id="patch_73">
    <path d="M 220.225568 264.84807 
L 222.084375 264.84807 
L 222.084375 141.867548 
L 220.225568 141.867548 
z
" clip-path="url(#p157fb03b62)" style="fill: #0072b2; opacity: 0.3; stroke: #0072b2; stroke-linejoin: miter"/>
   </g>
   <g id="patch_74">
    <path d="M 222.084375 264.84807 
L 223.943182 264.84807 
L 223.943182 144.771226 
L 222.084375 144.771226 
z
" clip-path="url(#p157fb03b62)" style="fill: #0072b2; opacity: 0.3; stroke: #0072b2; stroke-linejoin: miter"/>
   </g>
   <g id="patch_75">
    <path d="M 223.943182 264.84807 
L 225.801989 264.84807 
L 225.801989 147.69225 
L 223.943182 147.69225 
z
" clip-path="url(#p157fb03b62)" style="fill: #0072b2; opacity: 0.3; stroke: #0072b2; stroke-linejoin: miter"/>
   </g>
   <g id="patch_76">
    <path d="M 225.801989 264.84807 
L 227.660795 264.84807 
L 227.660795 150.628217 
L 225.801989 150.628217 
z
" clip-path="url(#p157fb03b62)" style="fill: #0072b2; opacity: 0.3; stroke: #0072b2; stroke-linejoin: miter"/>
   </g>
   <g id="patch_77">
    <path d="M 227.660795 264.84807 
L 229.519602 264.84807 
L 229.519602 153.576725 
L 227.660795 153.576725 
z
" clip-path="url(#p157fb03b62)" style="fill: #0072b2; opacity: 0.3; stroke: #0072b2; stroke-linejoin: miter"/>
   </g>
   <g id="patch_78">
    <path d="M 229.519602 264.84807 
L 231.378409 264.84807 
L 231.378409 156.535374 
L 229.519602 156.535374 
z
" clip-path="url(#p157fb03b62)" style="fill: #0072b2; opacity: 0.3; stroke: #0072b2; stroke-linejoin: miter"/>
   </g>
   <g id="patch_79">
    <path d="M 231.378409 264.84807 
L 233.237216 264.84807 
L 233.237216 159.501761 
L 231.378409 159.501761 
z
" clip-path="url(#p157fb03b62)" style="fill: #0072b2; opacity: 0.3; stroke: #0072b2; stroke-linejoin: miter"/>
   </g>
   <g id="patch_80">
    <path d="M 233.237216 264.84807 
L 235.096023 264.84807 
L 235.096023 162.473486 
L 233.237216 162.473486 
z
" clip-path="url(#p157fb03b62)" style="fill: #0072b2; opacity: 0.3; stroke: #0072b2; stroke-linejoin: miter"/>
   </g>
   <g id="patch_81">
    <path d="M 235.096023 264.84807 
L 236.95483 264.84807 
L 236.95483 165.448145 
L 235.096023 165.448145 
z
" clip-path="url(#p157fb03b62)" style="fill: #0072b2; opacity: 0.3; stroke: #0072b2; stroke-linejoin: miter"/>
   </g>
   <g id="patch_82">
    <path d="M 236.95483 264.84807 
L 238.813636 264.84807 
L 238.813636 168.423338 
L 236.95483 168.423338 
z
" clip-path="url(#p157fb03b62)" style="fill: #0072b2; opacity: 0.3; stroke: #0072b2; stroke-linejoin: miter"/>
   </g>
   <g id="patch_83">
    <path d="M 238.813636 264.84807 
L 240.672443 264.84807 
L 240.672443 171.396664 
L 238.813636 171.396664 
z
" clip-path="url(#p157fb03b62)" style="fill: #0072b2; opacity: 0.3; stroke: #0072b2; stroke-linejoin: miter"/>
   </g>
   <g id="patch_84">
    <path d="M 240.672443 264.84807 
L 242.53125 264.84807 
L 242.53125 174.365719 
L 240.672443 174.365719 
z
" clip-path="url(#p157fb03b62)" style="fill: #0072b2; opacity: 0.3; stroke: #0072b2; stroke-linejoin: miter"/>
   </g>
   <g id="patch_85">
    <path d="M 242.53125 264.84807 
L 244.390057 264.84807 
L 244.390057 177.328104 
L 242.53125 177.328104 
z
" clip-path="url(#p157fb03b62)" style="fill: #0072b2; opacity: 0.3; stroke: #0072b2; stroke-linejoin: miter"/>
   </g>
   <g id="patch_86">
    <path d="M 244.390057 264.84807 
L 246.248864 264.84807 
L 246.248864 180.281416 
L 244.390057 180.281416 
z
" clip-path="url(#p157fb03b62)" style="fill: #0072b2; opacity: 0.3; stroke: #0072b2; stroke-linejoin: miter"/>
   </g>
   <g id="patch_87">
    <path d="M 246.248864 264.84807 
L 248.10767 264.84807 
L 248.10767 183.223253 
L 246.248864 183.223253 
z
" clip-path="url(#p157fb03b62)" style="fill: #0072b2; opacity: 0.3; stroke: #0072b2; stroke-linejoin: miter"/>
   </g>
   <g id="patch_88">
    <path d="M 248.10767 264.84807 
L 249.966477 264.84807 
L 249.966477 186.151215 
L 248.10767 186.151215 
z
" clip-path="url(#p157fb03b62)" style="fill: #0072b2; opacity: 0.3; stroke: #0072b2; stroke-linejoin: miter"/>
   </g>
   <g id="patch_89">
    <path d="M 249.966477 264.84807 
L 251.825284 264.84807 
L 251.825284 189.062899 
L 249.966477 189.062899 
z
" clip-path="url(#p157fb03b62)" style="fill: #0072b2; opacity: 0.3; stroke: #0072b2; stroke-linejoin: miter"/>
   </g>
   <g id="patch_90">
    <path d="M 251.825284 264.84807 
L 253.684091 264.84807 
L 253.684091 191.955904 
L 251.825284 191.955904 
z
" clip-path="url(#p157fb03b62)" style="fill: #0072b2; opacity: 0.3; stroke: #0072b2; stroke-linejoin: miter"/>
   </g>
   <g id="patch_91">
    <path d="M 253.684091 264.84807 
L 255.542898 264.84807 
L 255.542898 194.827828 
L 253.684091 194.827828 
z
" clip-path="url(#p157fb03b62)" style="fill: #0072b2; opacity: 0.3; stroke: #0072b2; stroke-linejoin: miter"/>
   </g>
   <g id="patch_92">
    <path d="M 255.542898 264.84807 
L 257.401705 264.84807 
L 257.401705 197.676269 
L 255.542898 197.676269 
z
" clip-path="url(#p157fb03b62)" style="fill: #0072b2; opacity: 0.3; stroke: #0072b2; stroke-linejoin: miter"/>
   </g>
   <g id="patch_93">
    <path d="M 257.401705 264.84807 
L 259.260511 264.84807 
L 259.260511 200.498827 
L 257.401705 200.498827 
z
" clip-path="url(#p157fb03b62)" style="fill: #0072b2; opacity: 0.3; stroke: #0072b2; stroke-linejoin: miter"/>
   </g>
   <g id="patch_94">
    <path d="M 259.260511 264.84807 
L 261.119318 264.84807 
L 261.119318 203.293099 
L 259.260511 203.293099 
z
" clip-path="url(#p157fb03b62)" style="fill: #0072b2; opacity: 0.3; stroke: #0072b2; stroke-linejoin: miter"/>
   </g>
   <g id="patch_95">
    <path d="M 261.119318 264.84807 
L 262.978125 264.84807 
L 262.978125 206.056684 
L 261.119318 206.056684 
z
" clip-path="url(#p157fb03b62)" style="fill: #0072b2; opacity: 0.3; stroke: #0072b2; stroke-linejoin: miter"/>
   </g>
   <g id="patch_96">
    <path d="M 262.978125 264.84807 
L 264.836932 264.84807 
L 264.836932 208.78718 
L 262.978125 208.78718 
z
" clip-path="url(#p157fb03b62)" style="fill: #0072b2; opacity: 0.3; stroke: #0072b2; stroke-linejoin: miter"/>
   </g>
   <g id="patch_97">
    <path d="M 264.836932 264.84807 
L 266.695739 264.84807 
L 266.695739 211.482185 
L 264.836932 211.482185 
z
" clip-path="url(#p157fb03b62)" style="fill: #0072b2; opacity: 0.3; stroke: #0072b2; stroke-linejoin: miter"/>
   </g>
   <g id="patch_98">
    <path d="M 266.695739 264.84807 
L 268.554545 264.84807 
L 268.554545 214.139298 
L 266.695739 214.139298 
z
" clip-path="url(#p157fb03b62)" style="fill: #0072b2; opacity: 0.3; stroke: #0072b2; stroke-linejoin: miter"/>
   </g>
   <g id="patch_99">
    <path d="M 268.554545 264.84807 
L 270.413352 264.84807 
L 270.413352 216.756118 
L 268.554545 216.756118 
z
" clip-path="url(#p157fb03b62)" style="fill: #0072b2; opacity: 0.3; stroke: #0072b2; stroke-linejoin: miter"/>
   </g>
   <g id="patch_100">
    <path d="M 270.413352 264.84807 
L 272.272159 264.84807 
L 272.272159 219.330243 
L 270.413352 219.330243 
z
" clip-path="url(#p157fb03b62)" style="fill: #0072b2; opacity: 0.3; stroke: #0072b2; stroke-linejoin: miter"/>
   </g>
   <g id="patch_101">
    <path d="M 272.272159 264.84807 
L 274.130966 264.84807 
L 274.130966 221.85927 
L 272.272159 221.85927 
z
" clip-path="url(#p157fb03b62)" style="fill: #0072b2; opacity: 0.3; stroke: #0072b2; stroke-linejoin: miter"/>
   </g>
   <g id="patch_102">
    <path d="M 274.130966 264.84807 
L 275.989773 264.84807 
L 275.989773 224.340799 
L 274.130966 224.340799 
z
" clip-path="url(#p157fb03b62)" style="fill: #0072b2; opacity: 0.3; stroke: #0072b2; stroke-linejoin: miter"/>
   </g>
   <g id="patch_103">
    <path d="M 275.989773 264.84807 
L 277.84858 264.84807 
L 277.84858 226.772428 
L 275.989773 226.772428 
z
" clip-path="url(#p157fb03b62)" style="fill: #0072b2; opacity: 0.3; stroke: #0072b2; stroke-linejoin: miter"/>
   </g>
   <g id="patch_104">
    <path d="M 277.84858 264.84807 
L 279.707386 264.84807 
L 279.707386 229.151756 
L 277.84858 229.151756 
z
" clip-path="url(#p157fb03b62)" style="fill: #0072b2; opacity: 0.3; stroke: #0072b2; stroke-linejoin: miter"/>
   </g>
   <g id="patch_105">
    <path d="M 279.707386 264.84807 
L 281.566193 264.84807 
L 281.566193 231.47638 
L 279.707386 231.47638 
z
" clip-path="url(#p157fb03b62)" style="fill: #0072b2; opacity: 0.3; stroke: #0072b2; stroke-linejoin: miter"/>
   </g>
   <g id="patch_106">
    <path d="M 281.566193 264.84807 
L 283.425 264.84807 
L 283.425 233.743899 
L 281.566193 233.743899 
z
" clip-path="url(#p157fb03b62)" style="fill: #0072b2; opacity: 0.3; stroke: #0072b2; stroke-linejoin: miter"/>
   </g>
   <g id="patch_107">
    <path d="M 283.425 264.84807 
L 285.283807 264.84807 
L 285.283807 235.951911 
L 283.425 235.951911 
z
" clip-path="url(#p157fb03b62)" style="fill: #0072b2; opacity: 0.3; stroke: #0072b2; stroke-linejoin: miter"/>
   </g>
   <g id="patch_108">
    <path d="M 285.283807 264.84807 
L 287.142614 264.84807 
L 287.142614 238.098016 
L 285.283807 238.098016 
z
" clip-path="url(#p157fb03b62)" style="fill: #0072b2; opacity: 0.3; stroke: #0072b2; stroke-linejoin: miter"/>
   </g>
   <g id="patch_109">
    <path d="M 287.142614 264.84807 
L 289.00142 264.84807 
L 289.00142 240.179811 
L 287.142614 240.179811 
z
" clip-path="url(#p157fb03b62)" style="fill: #0072b2; opacity: 0.3; stroke: #0072b2; stroke-linejoin: miter"/>
   </g>
   <g id="patch_110">
    <path d="M 289.00142 264.84807 
L 290.860227 264.84807 
L 290.860227 242.194894 
L 289.00142 242.194894 
z
" clip-path="url(#p157fb03b62)" style="fill: #0072b2; opacity: 0.3; stroke: #0072b2; stroke-linejoin: miter"/>
   </g>
   <g id="patch_111">
    <path d="M 290.860227 264.84807 
L 292.719034 264.84807 
L 292.719034 244.140864 
L 290.860227 244.140864 
z
" clip-path="url(#p157fb03b62)" style="fill: #0072b2; opacity: 0.3; stroke: #0072b2; stroke-linejoin: miter"/>
   </g>
   <g id="patch_112">
    <path d="M 292.719034 264.84807 
L 294.577841 264.84807 
L 294.577841 246.01532 
L 292.719034 246.01532 
z
" clip-path="url(#p157fb03b62)" style="fill: #0072b2; opacity: 0.3; stroke: #0072b2; stroke-linejoin: miter"/>
   </g>
   <g id="patch_113">
    <path d="M 294.577841 264.84807 
L 296.436648 264.84807 
L 296.436648 247.81586 
L 294.577841 247.81586 
z
" clip-path="url(#p157fb03b62)" style="fill: #0072b2; opacity: 0.3; stroke: #0072b2; stroke-linejoin: miter"/>
   </g>
   <g id="patch_114">
    <path d="M 296.436648 264.84807 
L 298.295455 264.84807 
L 298.295455 249.540081 
L 296.436648 249.540081 
z
" clip-path="url(#p157fb03b62)" style="fill: #0072b2; opacity: 0.3; stroke: #0072b2; stroke-linejoin: miter"/>
   </g>
   <g id="patch_115">
    <path d="M 298.295455 264.84807 
L 300.154261 264.84807 
L 300.154261 251.185584 
L 298.295455 251.185584 
z
" clip-path="url(#p157fb03b62)" style="fill: #0072b2; opacity: 0.3; stroke: #0072b2; stroke-linejoin: miter"/>
   </g>
   <g id="patch_116">
    <path d="M 300.154261 264.84807 
L 302.013068 264.84807 
L 302.013068 252.749965 
L 300.154261 252.749965 
z
" clip-path="url(#p157fb03b62)" style="fill: #0072b2; opacity: 0.3; stroke: #0072b2; stroke-linejoin: miter"/>
   </g>
   <g id="patch_117">
    <path d="M 302.013068 264.84807 
L 303.871875 264.84807 
L 303.871875 254.230824 
L 302.013068 254.230824 
z
" clip-path="url(#p157fb03b62)" style="fill: #0072b2; opacity: 0.3; stroke: #0072b2; stroke-linejoin: miter"/>
   </g>
   <g id="patch_118">
    <path d="M 303.871875 264.84807 
L 305.730682 264.84807 
L 305.730682 255.625758 
L 303.871875 255.625758 
z
" clip-path="url(#p157fb03b62)" style="fill: #0072b2; opacity: 0.3; stroke: #0072b2; stroke-linejoin: miter"/>
   </g>
   <g id="patch_119">
    <path d="M 305.730682 264.84807 
L 307.589489 264.84807 
L 307.589489 256.932367 
L 305.730682 256.932367 
z
" clip-path="url(#p157fb03b62)" style="fill: #0072b2; opacity: 0.3; stroke: #0072b2; stroke-linejoin: miter"/>
   </g>
   <g id="patch_120">
    <path d="M 307.589489 264.84807 
L 309.448295 264.84807 
L 309.448295 258.148248 
L 307.589489 258.148248 
z
" clip-path="url(#p157fb03b62)" style="fill: #0072b2; opacity: 0.3; stroke: #0072b2; stroke-linejoin: miter"/>
   </g>
   <g id="patch_121">
    <path d="M 309.448295 264.84807 
L 311.307102 264.84807 
L 311.307102 259.271 
L 309.448295 259.271 
z
" clip-path="url(#p157fb03b62)" style="fill: #0072b2; opacity: 0.3; stroke: #0072b2; stroke-linejoin: miter"/>
   </g>
   <g id="patch_122">
    <path d="M 311.307102 264.84807 
L 313.165909 264.84807 
L 313.165909 260.298222 
L 311.307102 260.298222 
z
" clip-path="url(#p157fb03b62)" style="fill: #0072b2; opacity: 0.3; stroke: #0072b2; stroke-linejoin: miter"/>
   </g>
   <g id="patch_123">
    <path d="M 313.165909 264.84807 
L 315.024716 264.84807 
L 315.024716 261.227511 
L 313.165909 261.227511 
z
" clip-path="url(#p157fb03b62)" style="fill: #0072b2; opacity: 0.3; stroke: #0072b2; stroke-linejoin: miter"/>
   </g>
   <g id="patch_124">
    <path d="M 315.024716 264.84807 
L 316.883523 264.84807 
L 316.883523 262.056467 
L 315.024716 262.056467 
z
" clip-path="url(#p157fb03b62)" style="fill: #0072b2; opacity: 0.3; stroke: #0072b2; stroke-linejoin: miter"/>
   </g>
   <g id="patch_125">
    <path d="M 316.883523 264.84807 
L 318.74233 264.84807 
L 318.74233 262.782686 
L 316.883523 262.782686 
z
" clip-path="url(#p157fb03b62)" style="fill: #0072b2; opacity: 0.3; stroke: #0072b2; stroke-linejoin: miter"/>
   </g>
   <g id="patch_126">
    <path d="M 318.74233 264.84807 
L 320.601136 264.84807 
L 320.601136 263.403769 
L 318.74233 263.403769 
z
" clip-path="url(#p157fb03b62)" style="fill: #0072b2; opacity: 0.3; stroke: #0072b2; stroke-linejoin: miter"/>
   </g>
   <g id="patch_127">
    <path d="M 320.601136 264.84807 
L 322.459943 264.84807 
L 322.459943 263.917313 
L 320.601136 263.917313 
z
" clip-path="url(#p157fb03b62)" style="fill: #0072b2; opacity: 0.3; stroke: #0072b2; stroke-linejoin: miter"/>
   </g>
   <g id="patch_128">
    <path d="M 322.459943 264.84807 
L 324.31875 264.84807 
L 324.31875 264.320917 
L 322.459943 264.320917 
z
" clip-path="url(#p157fb03b62)" style="fill: #0072b2; opacity: 0.3; stroke: #0072b2; stroke-linejoin: miter"/>
   </g>
   <g id="patch_129">
    <path d="M 324.31875 264.84807 
L 326.177557 264.84807 
L 326.177557 264.612179 
L 324.31875 264.612179 
z
" clip-path="url(#p157fb03b62)" style="fill: #0072b2; opacity: 0.3; stroke: #0072b2; stroke-linejoin: miter"/>
   </g>
   <g id="patch_130">
    <path d="M 326.177557 264.84807 
L 328.036364 264.84807 
L 328.036364 264.788697 
L 326.177557 264.788697 
z
" clip-path="url(#p157fb03b62)" style="fill: #0072b2; opacity: 0.3; stroke: #0072b2; stroke-linejoin: miter"/>
   </g>
   <g id="matplotlib.axis_1">
    <g id="xtick_1">
     <g id="line2d_1">
      <path d="M 50.454545 334.8 
L 50.454545 20.016315 
" clip-path="url(#p157fb03b62)" style="fill: none; stroke-dasharray: 2.96,1.28; stroke-dashoffset: 0; stroke: #b0b0b0; stroke-opacity: 0.6; stroke-width: 0.8"/>
     </g>
     <g id="line2d_2">
      <defs>
       <path id="m38a9407344" d="M 0 0 
L 0 3.5 
" style="stroke: #000000; stroke-width: 0.8"/>
      </defs>
      <g>
       <use xlink:href="#m38a9407344" x="50.454545" y="264.84807" style="stroke: #000000; stroke-width: 0.8"/>
      </g>
     </g>
     <g id="text_1">
      <!-- $\mathdefault{−1}$ -->
      <g transform="translate(38.136754 285.685067) scale(0.2 -0.2)">
       <defs>
        <path id="CMSY10-0" d="M 4218 1472 
C 4326 1472 4442 1472 4442 1600 
C 4442 1728 4326 1728 4218 1728 
L 755 1728 
C 646 1728 531 1728 531 1600 
C 531 1472 646 1472 755 1472 
L 4218 1472 
z
" transform="scale(0.015625)"/>
        <path id="CMR17-31" d="M 1702 4058 
C 1702 4192 1696 4192 1606 4192 
C 1357 3916 979 3827 621 3827 
C 602 3827 570 3827 563 3808 
C 557 3795 557 3782 557 3648 
C 755 3648 1088 3686 1344 3839 
L 1344 461 
C 1344 236 1331 160 781 160 
L 589 160 
L 589 0 
C 896 0 1216 0 1523 0 
C 1830 0 2150 0 2458 0 
L 2458 160 
L 2266 160 
C 1715 160 1702 230 1702 458 
L 1702 4058 
z
" transform="scale(0.015625)"/>
       </defs>
       <use xlink:href="#CMSY10-0" transform="scale(0.996264)"/>
       <use xlink:href="#CMR17-31" transform="translate(77.487468 0) scale(0.996264)"/>
      </g>
     </g>
    </g>
    <g id="xtick_2">
     <g id="line2d_3">
      <path d="M 129.763636 334.8 
L 129.763636 20.016315 
" clip-path="url(#p157fb03b62)" style="fill: none; stroke-dasharray: 2.96,1.28; stroke-dashoffset: 0; stroke: #b0b0b0; stroke-opacity: 0.6; stroke-width: 0.8"/>
     </g>
     <g id="line2d_4">
      <g>
       <use xlink:href="#m38a9407344" x="129.763636" y="264.84807" style="stroke: #000000; stroke-width: 0.8"/>
      </g>
     </g>
     <g id="text_2">
      <!-- $\mathdefault{1}$ -->
      <g transform="translate(125.194589 285.685067) scale(0.2 -0.2)">
       <use xlink:href="#CMR17-31" transform="scale(0.996264)"/>
      </g>
     </g>
    </g>
    <g id="xtick_3">
     <g id="line2d_5">
      <path d="M 169.418182 334.8 
L 169.418182 20.016315 
" clip-path="url(#p157fb03b62)" style="fill: none; stroke-dasharray: 2.96,1.28; stroke-dashoffset: 0; stroke: #b0b0b0; stroke-opacity: 0.6; stroke-width: 0.8"/>
     </g>
     <g id="line2d_6">
      <g>
       <use xlink:href="#m38a9407344" x="169.418182" y="264.84807" style="stroke: #000000; stroke-width: 0.8"/>
      </g>
     </g>
     <g id="text_3">
      <!-- $\mathdefault{2}$ -->
      <g transform="translate(164.849134 285.685067) scale(0.2 -0.2)">
       <defs>
        <path id="CMR17-32" d="M 2669 989 
L 2554 989 
C 2490 536 2438 459 2413 420 
C 2381 369 1920 369 1830 369 
L 602 369 
C 832 619 1280 1072 1824 1597 
C 2214 1967 2669 2402 2669 3035 
C 2669 3790 2067 4224 1395 4224 
C 691 4224 262 3604 262 3030 
C 262 2780 448 2748 525 2748 
C 589 2748 781 2787 781 3010 
C 781 3207 614 3264 525 3264 
C 486 3264 448 3258 422 3245 
C 544 3790 915 4058 1306 4058 
C 1862 4058 2227 3617 2227 3035 
C 2227 2479 1901 2000 1536 1584 
L 262 146 
L 262 0 
L 2515 0 
L 2669 989 
z
" transform="scale(0.015625)"/>
       </defs>
       <use xlink:href="#CMR17-32" transform="scale(0.996264)"/>
      </g>
     </g>
    </g>
    <g id="xtick_4">
     <g id="line2d_7">
      <path d="M 209.072727 334.8 
L 209.072727 20.016315 
" clip-path="url(#p157fb03b62)" style="fill: none; stroke-dasharray: 2.96,1.28; stroke-dashoffset: 0; stroke: #b0b0b0; stroke-opacity: 0.6; stroke-width: 0.8"/>
     </g>
     <g id="line2d_8">
      <g>
       <use xlink:href="#m38a9407344" x="209.072727" y="264.84807" style="stroke: #000000; stroke-width: 0.8"/>
      </g>
     </g>
     <g id="text_4">
      <!-- $\mathdefault{3}$ -->
      <g transform="translate(204.50368 285.685067) scale(0.2 -0.2)">
       <defs>
        <path id="CMR17-33" d="M 1414 2157 
C 1984 2157 2234 1662 2234 1090 
C 2234 320 1824 25 1453 25 
C 1114 25 563 194 390 693 
C 422 680 454 680 486 680 
C 640 680 755 782 755 948 
C 755 1133 614 1216 486 1216 
C 378 1216 211 1165 211 926 
C 211 335 787 -128 1466 -128 
C 2176 -128 2720 430 2720 1085 
C 2720 1707 2208 2157 1600 2227 
C 2086 2328 2554 2756 2554 3329 
C 2554 3820 2048 4179 1472 4179 
C 890 4179 378 3829 378 3329 
C 378 3110 544 3072 627 3072 
C 762 3072 877 3155 877 3321 
C 877 3486 762 3569 627 3569 
C 602 3569 570 3569 544 3557 
C 730 3959 1235 4032 1459 4032 
C 1683 4032 2106 3925 2106 3320 
C 2106 3143 2080 2828 1862 2550 
C 1670 2304 1453 2304 1242 2284 
C 1210 2284 1062 2269 1037 2269 
C 992 2263 966 2257 966 2208 
C 966 2163 973 2157 1101 2157 
L 1414 2157 
z
" transform="scale(0.015625)"/>
       </defs>
       <use xlink:href="#CMR17-33" transform="scale(0.996264)"/>
      </g>
     </g>
    </g>
    <g id="xtick_5">
     <g id="line2d_9">
      <path d="M 248.727273 334.8 
L 248.727273 20.016315 
" clip-path="url(#p157fb03b62)" style="fill: none; stroke-dasharray: 2.96,1.28; stroke-dashoffset: 0; stroke: #b0b0b0; stroke-opacity: 0.6; stroke-width: 0.8"/>
     </g>
     <g id="line2d_10">
      <g>
       <use xlink:href="#m38a9407344" x="248.727273" y="264.84807" style="stroke: #000000; stroke-width: 0.8"/>
      </g>
     </g>
     <g id="text_5">
      <!-- $\mathdefault{4}$ -->
      <g transform="translate(244.158225 285.685067) scale(0.2 -0.2)">
       <defs>
        <path id="CMR17-34" d="M 2150 4122 
C 2150 4256 2144 4256 2029 4256 
L 128 1254 
L 128 1088 
L 1779 1088 
L 1779 457 
C 1779 224 1766 160 1318 160 
L 1197 160 
L 1197 0 
C 1402 0 1747 0 1965 0 
C 2182 0 2528 0 2733 0 
L 2733 160 
L 2611 160 
C 2163 160 2150 224 2150 457 
L 2150 1088 
L 2803 1088 
L 2803 1254 
L 2150 1254 
L 2150 4122 
z
M 1798 3703 
L 1798 1254 
L 256 1254 
L 1798 3703 
z
" transform="scale(0.015625)"/>
       </defs>
       <use xlink:href="#CMR17-34" transform="scale(0.996264)"/>
      </g>
     </g>
    </g>
    <g id="xtick_6">
     <g id="line2d_11">
      <path d="M 288.381818 334.8 
L 288.381818 20.016315 
" clip-path="url(#p157fb03b62)" style="fill: none; stroke-dasharray: 2.96,1.28; stroke-dashoffset: 0; stroke: #b0b0b0; stroke-opacity: 0.6; stroke-width: 0.8"/>
     </g>
     <g id="line2d_12">
      <g>
       <use xlink:href="#m38a9407344" x="288.381818" y="264.84807" style="stroke: #000000; stroke-width: 0.8"/>
      </g>
     </g>
     <g id="text_6">
      <!-- $\mathdefault{5}$ -->
      <g transform="translate(283.81277 285.685067) scale(0.2 -0.2)">
       <defs>
        <path id="CMR17-35" d="M 730 3692 
C 794 3666 1056 3584 1325 3584 
C 1920 3584 2246 3911 2432 4100 
C 2432 4157 2432 4192 2394 4192 
C 2387 4192 2374 4192 2323 4163 
C 2099 4058 1837 3973 1517 3973 
C 1325 3973 1037 3999 723 4139 
C 653 4171 640 4171 634 4171 
C 602 4171 595 4164 595 4037 
L 595 2203 
C 595 2089 595 2057 659 2057 
C 691 2057 704 2070 736 2114 
C 941 2401 1222 2522 1542 2522 
C 1766 2522 2246 2382 2246 1289 
C 2246 1085 2246 715 2054 421 
C 1894 159 1645 25 1370 25 
C 947 25 518 320 403 814 
C 429 807 480 795 506 795 
C 589 795 749 840 749 1038 
C 749 1210 627 1280 506 1280 
C 358 1280 262 1190 262 1011 
C 262 454 704 -128 1382 -128 
C 2042 -128 2669 440 2669 1264 
C 2669 2030 2170 2624 1549 2624 
C 1222 2624 947 2503 730 2274 
L 730 3692 
z
" transform="scale(0.015625)"/>
       </defs>
       <use xlink:href="#CMR17-35" transform="scale(0.996264)"/>
      </g>
     </g>
    </g>
    <g id="xtick_7">
     <g id="line2d_13">
      <path d="M 328.036364 334.8 
L 328.036364 20.016315 
" clip-path="url(#p157fb03b62)" style="fill: none; stroke-dasharray: 2.96,1.28; stroke-dashoffset: 0; stroke: #b0b0b0; stroke-opacity: 0.6; stroke-width: 0.8"/>
     </g>
     <g id="line2d_14">
      <g>
       <use xlink:href="#m38a9407344" x="328.036364" y="264.84807" style="stroke: #000000; stroke-width: 0.8"/>
      </g>
     </g>
     <g id="text_7">
      <!-- $\mathdefault{6}$ -->
      <g transform="translate(323.467316 285.685067) scale(0.2 -0.2)">
       <defs>
        <path id="CMR17-36" d="M 678 2176 
C 678 3690 1395 4032 1811 4032 
C 1946 4032 2272 4009 2400 3776 
C 2298 3776 2106 3776 2106 3553 
C 2106 3381 2246 3323 2336 3323 
C 2394 3323 2566 3348 2566 3560 
C 2566 3954 2246 4179 1805 4179 
C 1043 4179 243 3390 243 1984 
C 243 253 966 -128 1478 -128 
C 2099 -128 2688 427 2688 1283 
C 2688 2081 2170 2662 1517 2662 
C 1126 2662 838 2407 678 1960 
L 678 2176 
z
M 1478 25 
C 691 25 691 1200 691 1436 
C 691 1896 909 2560 1504 2560 
C 1613 2560 1926 2560 2138 2120 
C 2253 1870 2253 1609 2253 1289 
C 2253 944 2253 690 2118 434 
C 1978 171 1773 25 1478 25 
z
" transform="scale(0.015625)"/>
       </defs>
       <use xlink:href="#CMR17-36" transform="scale(0.996264)"/>
      </g>
     </g>
    </g>
    <g id="xtick_8">
     <g id="line2d_15">
      <path d="M 367.690909 334.8 
L 367.690909 20.016315 
" clip-path="url(#p157fb03b62)" style="fill: none; stroke-dasharray: 2.96,1.28; stroke-dashoffset: 0; stroke: #b0b0b0; stroke-opacity: 0.6; stroke-width: 0.8"/>
     </g>
     <g id="line2d_16">
      <g>
       <use xlink:href="#m38a9407344" x="367.690909" y="264.84807" style="stroke: #000000; stroke-width: 0.8"/>
      </g>
     </g>
     <g id="text_8">
      <!-- $\mathdefault{7}$ -->
      <g transform="translate(363.121861 285.685067) scale(0.2 -0.2)">
       <defs>
        <path id="CMR17-37" d="M 2886 3941 
L 2886 4081 
L 1382 4081 
C 634 4081 621 4165 595 4288 
L 480 4288 
L 294 3094 
L 410 3094 
C 429 3215 474 3540 550 3661 
C 589 3712 1062 3712 1171 3712 
L 2579 3712 
L 1869 2661 
C 1395 1954 1069 999 1069 165 
C 1069 89 1069 -128 1299 -128 
C 1530 -128 1530 89 1530 171 
L 1530 465 
C 1530 1508 1709 2196 2003 2636 
L 2886 3941 
z
" transform="scale(0.015625)"/>
       </defs>
       <use xlink:href="#CMR17-37" transform="scale(0.996264)"/>
      </g>
     </g>
    </g>
    <g id="xtick_9">
     <g id="line2d_17">
      <path d="M 407.345455 334.8 
L 407.345455 20.016315 
" clip-path="url(#p157fb03b62)" style="fill: none; stroke-dasharray: 2.96,1.28; stroke-dashoffset: 0; stroke: #b0b0b0; stroke-opacity: 0.6; stroke-width: 0.8"/>
     </g>
     <g id="line2d_18">
      <g>
       <use xlink:href="#m38a9407344" x="407.345455" y="264.84807" style="stroke: #000000; stroke-width: 0.8"/>
      </g>
     </g>
     <g id="text_9">
      <!-- $\mathdefault{8}$ -->
      <g transform="translate(402.776407 285.685067) scale(0.2 -0.2)">
       <defs>
        <path id="CMR17-38" d="M 1741 2264 
C 2144 2467 2554 2773 2554 3263 
C 2554 3841 1990 4179 1472 4179 
C 890 4179 378 3759 378 3180 
C 378 3021 416 2747 666 2505 
C 730 2442 998 2251 1171 2130 
C 883 1983 211 1634 211 934 
C 211 279 838 -128 1459 -128 
C 2144 -128 2720 362 2720 1010 
C 2720 1590 2330 1857 2074 2029 
L 1741 2264 
z
M 902 2822 
C 851 2854 595 3051 595 3351 
C 595 3739 998 4032 1459 4032 
C 1965 4032 2336 3676 2336 3262 
C 2336 2669 1670 2331 1638 2331 
C 1632 2331 1626 2331 1574 2370 
L 902 2822 
z
M 2080 1519 
C 2176 1449 2483 1240 2483 851 
C 2483 381 2010 25 1472 25 
C 890 25 448 438 448 940 
C 448 1443 838 1862 1280 2060 
L 2080 1519 
z
" transform="scale(0.015625)"/>
       </defs>
       <use xlink:href="#CMR17-38" transform="scale(0.996264)"/>
      </g>
     </g>
    </g>
    <g id="text_10">
     <!-- $x$ -->
     <g transform="translate(435.913188 307.397697) scale(0.2 -0.2)">
      <defs>
       <path id="CMMI12-78" d="M 3034 2606 
C 2829 2567 2752 2414 2752 2293 
C 2752 2139 2874 2088 2963 2088 
C 3155 2088 3290 2254 3290 2427 
C 3290 2695 2982 2816 2714 2816 
C 2323 2816 2106 2433 2048 2312 
C 1901 2816 1504 2816 1389 2816 
C 736 2816 390 1980 390 1839 
C 390 1814 416 1782 461 1782 
C 512 1782 525 1820 538 1846 
C 755 2555 1184 2689 1370 2689 
C 1658 2689 1715 2420 1715 2267 
C 1715 2127 1677 1980 1600 1673 
L 1382 798 
C 1286 415 1101 64 762 64 
C 730 64 570 64 435 147 
C 666 192 717 383 717 460 
C 717 588 621 664 499 664 
C 346 664 179 530 179 326 
C 179 57 480 -64 755 -64 
C 1062 -64 1280 179 1414 441 
C 1517 64 1837 -64 2074 -64 
C 2726 -64 3072 773 3072 913 
C 3072 945 3046 971 3008 971 
C 2950 971 2944 939 2925 888 
C 2752 326 2381 64 2093 64 
C 1869 64 1747 230 1747 492 
C 1747 632 1773 734 1875 1156 
L 2099 2024 
C 2195 2408 2413 2689 2707 2689 
C 2720 2689 2899 2689 3034 2606 
z
" transform="scale(0.015625)"/>
      </defs>
      <use xlink:href="#CMMI12-78" transform="scale(0.996264)"/>
     </g>
    </g>
   </g>
   <g id="matplotlib.axis_2">
    <g id="ytick_1">
     <g id="line2d_19">
      <path d="M 10.8 299.824035 
L 447 299.824035 
" clip-path="url(#p157fb03b62)" style="fill: none; stroke-dasharray: 2.96,1.28; stroke-dashoffset: 0; stroke: #b0b0b0; stroke-opacity: 0.6; stroke-width: 0.8"/>
     </g>
     <g id="line2d_20">
      <defs>
       <path id="m1fb463f63d" d="M 0 0 
L -3.5 0 
" style="stroke: #000000; stroke-width: 0.8"/>
      </defs>
      <g>
       <use xlink:href="#m1fb463f63d" x="90.109091" y="299.824035" style="stroke: #000000; stroke-width: 0.8"/>
      </g>
     </g>
     <g id="text_11">
      <!-- $\mathdefault{−1}$ -->
      <g transform="translate(58.473508 306.742533) scale(0.2 -0.2)">
       <use xlink:href="#CMSY10-0" transform="scale(0.996264)"/>
       <use xlink:href="#CMR17-31" transform="translate(77.487468 0) scale(0.996264)"/>
      </g>
     </g>
    </g>
    <g id="ytick_2">
     <g id="line2d_21">
      <path d="M 10.8 229.872105 
L 447 229.872105 
" clip-path="url(#p157fb03b62)" style="fill: none; stroke-dasharray: 2.96,1.28; stroke-dashoffset: 0; stroke: #b0b0b0; stroke-opacity: 0.6; stroke-width: 0.8"/>
     </g>
     <g id="line2d_22">
      <g>
       <use xlink:href="#m1fb463f63d" x="90.109091" y="229.872105" style="stroke: #000000; stroke-width: 0.8"/>
      </g>
     </g>
     <g id="text_12">
      <!-- $\mathdefault{1}$ -->
      <g transform="translate(73.970995 236.790603) scale(0.2 -0.2)">
       <use xlink:href="#CMR17-31" transform="scale(0.996264)"/>
      </g>
     </g>
    </g>
    <g id="ytick_3">
     <g id="line2d_23">
      <path d="M 10.8 194.89614 
L 447 194.89614 
" clip-path="url(#p157fb03b62)" style="fill: none; stroke-dasharray: 2.96,1.28; stroke-dashoffset: 0; stroke: #b0b0b0; stroke-opacity: 0.6; stroke-width: 0.8"/>
     </g>
     <g id="line2d_24">
      <g>
       <use xlink:href="#m1fb463f63d" x="90.109091" y="194.89614" style="stroke: #000000; stroke-width: 0.8"/>
      </g>
     </g>
     <g id="text_13">
      <!-- $\mathdefault{2}$ -->
      <g transform="translate(73.970995 201.814638) scale(0.2 -0.2)">
       <use xlink:href="#CMR17-32" transform="scale(0.996264)"/>
      </g>
     </g>
    </g>
    <g id="ytick_4">
     <g id="line2d_25">
      <path d="M 10.8 159.920175 
L 447 159.920175 
" clip-path="url(#p157fb03b62)" style="fill: none; stroke-dasharray: 2.96,1.28; stroke-dashoffset: 0; stroke: #b0b0b0; stroke-opacity: 0.6; stroke-width: 0.8"/>
     </g>
     <g id="line2d_26">
      <g>
       <use xlink:href="#m1fb463f63d" x="90.109091" y="159.920175" style="stroke: #000000; stroke-width: 0.8"/>
      </g>
     </g>
     <g id="text_14">
      <!-- $\mathdefault{3}$ -->
      <g transform="translate(73.970995 166.838673) scale(0.2 -0.2)">
       <use xlink:href="#CMR17-33" transform="scale(0.996264)"/>
      </g>
     </g>
    </g>
    <g id="ytick_5">
     <g id="line2d_27">
      <path d="M 10.8 124.94421 
L 447 124.94421 
" clip-path="url(#p157fb03b62)" style="fill: none; stroke-dasharray: 2.96,1.28; stroke-dashoffset: 0; stroke: #b0b0b0; stroke-opacity: 0.6; stroke-width: 0.8"/>
     </g>
     <g id="line2d_28">
      <g>
       <use xlink:href="#m1fb463f63d" x="90.109091" y="124.94421" style="stroke: #000000; stroke-width: 0.8"/>
      </g>
     </g>
     <g id="text_15">
      <!-- $\mathdefault{4}$ -->
      <g transform="translate(73.970995 131.862709) scale(0.2 -0.2)">
       <use xlink:href="#CMR17-34" transform="scale(0.996264)"/>
      </g>
     </g>
    </g>
    <g id="ytick_6">
     <g id="line2d_29">
      <path d="M 10.8 89.968245 
L 447 89.968245 
" clip-path="url(#p157fb03b62)" style="fill: none; stroke-dasharray: 2.96,1.28; stroke-dashoffset: 0; stroke: #b0b0b0; stroke-opacity: 0.6; stroke-width: 0.8"/>
     </g>
     <g id="line2d_30">
      <g>
       <use xlink:href="#m1fb463f63d" x="90.109091" y="89.968245" style="stroke: #000000; stroke-width: 0.8"/>
      </g>
     </g>
     <g id="text_16">
      <!-- $\mathdefault{5}$ -->
      <g transform="translate(73.970995 96.886744) scale(0.2 -0.2)">
       <use xlink:href="#CMR17-35" transform="scale(0.996264)"/>
      </g>
     </g>
    </g>
    <g id="ytick_7">
     <g id="line2d_31">
      <path d="M 10.8 54.99228 
L 447 54.99228 
" clip-path="url(#p157fb03b62)" style="fill: none; stroke-dasharray: 2.96,1.28; stroke-dashoffset: 0; stroke: #b0b0b0; stroke-opacity: 0.6; stroke-width: 0.8"/>
     </g>
     <g id="line2d_32">
      <g>
       <use xlink:href="#m1fb463f63d" x="90.109091" y="54.99228" style="stroke: #000000; stroke-width: 0.8"/>
      </g>
     </g>
     <g id="text_17">
      <!-- $\mathdefault{6}$ -->
      <g transform="translate(73.970995 61.910779) scale(0.2 -0.2)">
       <use xlink:href="#CMR17-36" transform="scale(0.996264)"/>
      </g>
     </g>
    </g>
    <g id="text_18">
     <!-- $y$ -->
     <g transform="translate(44.960673 16.140682) scale(0.2 -0.2)">
      <defs>
       <path id="CMMI12-79" d="M 1683 -700 
C 1510 -939 1261 -1152 947 -1152 
C 870 -1152 563 -1152 467 -889 
C 486 -895 518 -895 531 -895 
C 723 -895 851 -729 851 -582 
C 851 -435 730 -384 634 -384 
C 531 -384 307 -458 307 -759 
C 307 -1071 582 -1286 947 -1286 
C 1587 -1286 2234 -700 2413 6 
L 3040 2485 
C 3046 2517 3059 2556 3059 2594 
C 3059 2689 2982 2753 2886 2753 
C 2829 2753 2694 2727 2643 2535 
L 2170 658 
C 2138 543 2138 530 2086 460 
C 1958 281 1747 64 1440 64 
C 1082 64 1050 415 1050 588 
C 1050 952 1222 1443 1395 1903 
C 1466 2088 1504 2178 1504 2305 
C 1504 2574 1312 2816 998 2816 
C 410 2816 173 1890 173 1839 
C 173 1814 198 1782 243 1782 
C 301 1782 307 1807 333 1897 
C 486 2433 730 2689 979 2689 
C 1037 2689 1146 2689 1146 2478 
C 1146 2312 1075 2127 979 1884 
C 666 1047 666 837 666 683 
C 666 77 1101 -64 1421 -64 
C 1606 -64 1837 -6 2061 230 
L 2067 224 
C 1971 -147 1907 -392 1683 -700 
z
" transform="scale(0.015625)"/>
      </defs>
      <use xlink:href="#CMMI12-79" transform="scale(0.996264)"/>
     </g>
    </g>
   </g>
   <g id="line2d_33">
    <defs>
     <path id="me190b2b59f" d="M 3 0 
L -3 -3 
L -3 3 
z
" style="stroke: #000000; stroke-linejoin: miter"/>
    </defs>
    <g>
     <use xlink:href="#me190b2b59f" x="447" y="264.84807" style="stroke: #000000; stroke-linejoin: miter"/>
    </g>
   </g>
   <g id="line2d_34">
    <defs>
     <path id="md2e6c8e8a3" d="M 0 -3 
L -3 3 
L 3 3 
z
" style="stroke: #000000; stroke-linejoin: miter"/>
    </defs>
    <g>
     <use xlink:href="#md2e6c8e8a3" x="90.109091" y="20.016315" style="stroke: #000000; stroke-linejoin: miter"/>
    </g>
   </g>
   <g id="line2d_35">
    <path d="M 35.161769 346.6 
L 39.368797 322.419799 
L 43.522322 299.820695 
L 47.622597 278.726244 
L 51.642996 259.189789 
L 55.610145 241.001538 
L 59.497418 224.206616 
L 63.331441 208.616077 
L 67.085589 194.267536 
L 70.786486 180.991431 
L 74.407508 168.818535 
L 77.975279 157.597281 
L 81.463175 147.352215 
L 84.871196 138.01877 
L 88.225966 129.470223 
L 91.500861 121.723197 
L 94.722505 114.665738 
L 97.864274 108.30961 
L 100.952793 102.556485 
L 103.961436 97.41374 
L 106.916828 92.795594 
L 109.818971 88.669427 
L 112.641238 85.036568 
L 115.410255 81.827974 
L 118.126021 79.015605 
L 120.788537 76.572703 
L 123.424428 74.453814 
L 126.007068 72.660216 
L 128.563084 71.15404 
L 131.092474 69.920777 
L 133.595239 68.94639 
L 136.098004 68.210716 
L 138.600769 67.70789 
L 141.103534 67.432051 
L 143.632924 67.377922 
L 146.18894 67.546488 
L 148.798205 67.943598 
L 151.460721 68.576324 
L 154.176488 69.451184 
L 156.97213 70.586001 
L 159.874272 72.006751 
L 162.882915 73.731002 
L 165.998059 75.775199 
L 169.246329 78.17522 
L 172.654349 80.974092 
L 176.22212 84.196395 
L 179.976268 87.891403 
L 183.943417 92.113694 
L 188.150192 96.92203 
L 192.623219 102.377829 
L 197.442373 108.6139 
L 202.660905 115.738287 
L 208.411939 123.97501 
L 214.908478 133.67887 
L 222.6564 145.668399 
L 233.625966 163.095442 
L 250.719319 190.236991 
L 258.573741 202.264151 
L 265.096905 211.856144 
L 270.84794 219.925655 
L 276.066471 226.871656 
L 280.859 232.888092 
L 285.332027 238.152844 
L 289.512177 242.736589 
L 293.452701 246.734952 
L 297.206849 250.231588 
L 300.77462 253.253592 
L 304.156015 255.831267 
L 307.404285 258.031241 
L 310.519429 259.874752 
L 313.501447 261.384639 
L 316.376964 262.595099 
L 319.172606 263.532297 
L 321.888372 264.208661 
L 324.524263 264.63738 
L 327.106903 264.833175 
L 329.636294 264.803531 
L 332.139059 264.552575 
L 334.615199 264.081573 
L 337.091339 263.38335 
L 339.567478 262.452227 
L 342.043618 261.282528 
L 344.546383 259.852024 
L 347.075774 258.146795 
L 349.631789 256.152454 
L 352.21443 253.854142 
L 354.85032 251.208248 
L 357.539462 248.189336 
L 360.281853 244.770742 
L 363.077495 240.924534 
L 365.926387 236.621467 
L 368.82853 231.830936 
L 371.810548 226.47109 
L 374.845816 220.550027 
L 377.934334 214.032297 
L 381.102728 206.818001 
L 384.324373 198.921995 
L 387.625893 190.230889 
L 390.980663 180.764431 
L 394.415309 170.394612 
L 397.903205 159.146577 
L 401.444351 146.970981 
L 405.065373 133.716011 
L 408.739645 119.416264 
L 412.493792 103.902276 
L 416.30119 87.215463 
L 420.188464 69.167352 
L 424.128987 49.806825 
L 428.149387 28.924967 
L 432.223036 6.578831 
L 433.55652 -1 
L 433.55652 -1 
" clip-path="url(#p157fb03b62)" style="fill: none; stroke: #0072b2; stroke-width: 2.5; stroke-linecap: square"/>
   </g>
   <g id="line2d_36">
    <path d="M 90.109091 264.84807 
L 91.967898 264.84807 
L 91.967898 124.94421 
L 90.109091 124.94421 
L 90.109091 264.84807 
" clip-path="url(#p157fb03b62)" style="fill: none; stroke: #000000; stroke-width: 1.5; stroke-linecap: square"/>
   </g>
   <g id="line2d_37">
    <path d="M 91.967898 264.84807 
L 93.826705 264.84807 
L 93.826705 120.665744 
L 91.967898 120.665744 
L 91.967898 264.84807 
" clip-path="url(#p157fb03b62)" style="fill: none; stroke: #000000; stroke-width: 1.5; stroke-linecap: square"/>
   </g>
   <g id="line2d_38">
    <path d="M 93.826705 264.84807 
L 95.685511 264.84807 
L 95.685511 116.572735 
L 93.826705 116.572735 
L 93.826705 264.84807 
" clip-path="url(#p157fb03b62)" style="fill: none; stroke: #000000; stroke-width: 1.5; stroke-linecap: square"/>
   </g>
   <g id="line2d_39">
    <path d="M 95.685511 264.84807 
L 97.544318 264.84807 
L 97.544318 112.662782 
L 95.685511 112.662782 
L 95.685511 264.84807 
" clip-path="url(#p157fb03b62)" style="fill: none; stroke: #000000; stroke-width: 1.5; stroke-linecap: square"/>
   </g>
   <g id="line2d_40">
    <path d="M 97.544318 264.84807 
L 99.403125 264.84807 
L 99.403125 108.933484 
L 97.544318 108.933484 
L 97.544318 264.84807 
" clip-path="url(#p157fb03b62)" style="fill: none; stroke: #000000; stroke-width: 1.5; stroke-linecap: square"/>
   </g>
   <g id="line2d_41">
    <path d="M 99.403125 264.84807 
L 101.261932 264.84807 
L 101.261932 105.382438 
L 99.403125 105.382438 
L 99.403125 264.84807 
" clip-path="url(#p157fb03b62)" style="fill: none; stroke: #000000; stroke-width: 1.5; stroke-linecap: square"/>
   </g>
   <g id="line2d_42">
    <path d="M 101.261932 264.84807 
L 103.120739 264.84807 
L 103.120739 102.007244 
L 101.261932 102.007244 
L 101.261932 264.84807 
" clip-path="url(#p157fb03b62)" style="fill: none; stroke: #000000; stroke-width: 1.5; stroke-linecap: square"/>
   </g>
   <g id="line2d_43">
    <path d="M 103.120739 264.84807 
L 104.979545 264.84807 
L 104.979545 98.805499 
L 103.120739 98.805499 
L 103.120739 264.84807 
" clip-path="url(#p157fb03b62)" style="fill: none; stroke: #000000; stroke-width: 1.5; stroke-linecap: square"/>
   </g>
   <g id="line2d_44">
    <path d="M 104.979545 264.84807 
L 106.838352 264.84807 
L 106.838352 95.774802 
L 104.979545 95.774802 
L 104.979545 264.84807 
" clip-path="url(#p157fb03b62)" style="fill: none; stroke: #000000; stroke-width: 1.5; stroke-linecap: square"/>
   </g>
   <g id="line2d_45">
    <path d="M 106.838352 264.84807 
L 108.697159 264.84807 
L 108.697159 92.912751 
L 106.838352 92.912751 
L 106.838352 264.84807 
" clip-path="url(#p157fb03b62)" style="fill: none; stroke: #000000; stroke-width: 1.5; stroke-linecap: square"/>
   </g>
   <g id="line2d_46">
    <path d="M 108.697159 264.84807 
L 110.555966 264.84807 
L 110.555966 90.216945 
L 108.697159 90.216945 
L 108.697159 264.84807 
" clip-path="url(#p157fb03b62)" style="fill: none; stroke: #000000; stroke-width: 1.5; stroke-linecap: square"/>
   </g>
   <g id="line2d_47">
    <path d="M 110.555966 264.84807 
L 112.414773 264.84807 
L 112.414773 87.684982 
L 110.555966 87.684982 
L 110.555966 264.84807 
" clip-path="url(#p157fb03b62)" style="fill: none; stroke: #000000; stroke-width: 1.5; stroke-linecap: square"/>
   </g>
   <g id="line2d_48">
    <path d="M 112.414773 264.84807 
L 114.27358 264.84807 
L 114.27358 85.314461 
L 112.414773 85.314461 
L 112.414773 264.84807 
" clip-path="url(#p157fb03b62)" style="fill: none; stroke: #000000; stroke-width: 1.5; stroke-linecap: square"/>
   </g>
   <g id="line2d_49">
    <path d="M 114.27358 264.84807 
L 116.132386 264.84807 
L 116.132386 83.102979 
L 114.27358 83.102979 
L 114.27358 264.84807 
" clip-path="url(#p157fb03b62)" style="fill: none; stroke: #000000; stroke-width: 1.5; stroke-linecap: square"/>
   </g>
   <g id="line2d_50">
    <path d="M 116.132386 264.84807 
L 117.991193 264.84807 
L 117.991193 81.048136 
L 116.132386 81.048136 
L 116.132386 264.84807 
" clip-path="url(#p157fb03b62)" style="fill: none; stroke: #000000; stroke-width: 1.5; stroke-linecap: square"/>
   </g>
   <g id="line2d_51">
    <path d="M 117.991193 264.84807 
L 119.85 264.84807 
L 119.85 79.147529 
L 117.991193 79.147529 
L 117.991193 264.84807 
" clip-path="url(#p157fb03b62)" style="fill: none; stroke: #000000; stroke-width: 1.5; stroke-linecap: square"/>
   </g>
   <g id="line2d_52">
    <path d="M 119.85 264.84807 
L 121.708807 264.84807 
L 121.708807 77.398758 
L 119.85 77.398758 
L 119.85 264.84807 
" clip-path="url(#p157fb03b62)" style="fill: none; stroke: #000000; stroke-width: 1.5; stroke-linecap: square"/>
   </g>
   <g id="line2d_53">
    <path d="M 121.708807 264.84807 
L 123.567614 264.84807 
L 123.567614 75.79942 
L 121.708807 75.79942 
L 121.708807 264.84807 
" clip-path="url(#p157fb03b62)" style="fill: none; stroke: #000000; stroke-width: 1.5; stroke-linecap: square"/>
   </g>
   <g id="line2d_54">
    <path d="M 123.567614 264.84807 
L 125.42642 264.84807 
L 125.42642 74.347113 
L 123.567614 74.347113 
L 123.567614 264.84807 
" clip-path="url(#p157fb03b62)" style="fill: none; stroke: #000000; stroke-width: 1.5; stroke-linecap: square"/>
   </g>
   <g id="line2d_55">
    <path d="M 125.42642 264.84807 
L 127.285227 264.84807 
L 127.285227 73.039437 
L 125.42642 73.039437 
L 125.42642 264.84807 
" clip-path="url(#p157fb03b62)" style="fill: none; stroke: #000000; stroke-width: 1.5; stroke-linecap: square"/>
   </g>
   <g id="line2d_56">
    <path d="M 127.285227 264.84807 
L 129.144034 264.84807 
L 129.144034 71.87399 
L 127.285227 71.87399 
L 127.285227 264.84807 
" clip-path="url(#p157fb03b62)" style="fill: none; stroke: #000000; stroke-width: 1.5; stroke-linecap: square"/>
   </g>
   <g id="line2d_57">
    <path d="M 129.144034 264.84807 
L 131.002841 264.84807 
L 131.002841 70.848369 
L 129.144034 70.848369 
L 129.144034 264.84807 
" clip-path="url(#p157fb03b62)" style="fill: none; stroke: #000000; stroke-width: 1.5; stroke-linecap: square"/>
   </g>
   <g id="line2d_58">
    <path d="M 131.002841 264.84807 
L 132.861648 264.84807 
L 132.861648 69.960174 
L 131.002841 69.960174 
L 131.002841 264.84807 
" clip-path="url(#p157fb03b62)" style="fill: none; stroke: #000000; stroke-width: 1.5; stroke-linecap: square"/>
   </g>
   <g id="line2d_59">
    <path d="M 132.861648 264.84807 
L 134.720455 264.84807 
L 134.720455 69.207003 
L 132.861648 69.207003 
L 132.861648 264.84807 
" clip-path="url(#p157fb03b62)" style="fill: none; stroke: #000000; stroke-width: 1.5; stroke-linecap: square"/>
   </g>
   <g id="line2d_60">
    <path d="M 134.720455 264.84807 
L 136.579261 264.84807 
L 136.579261 68.586454 
L 134.720455 68.586454 
L 134.720455 264.84807 
" clip-path="url(#p157fb03b62)" style="fill: none; stroke: #000000; stroke-width: 1.5; stroke-linecap: square"/>
   </g>
   <g id="line2d_61">
    <path d="M 136.579261 264.84807 
L 138.438068 264.84807 
L 138.438068 68.096126 
L 136.579261 68.096126 
L 136.579261 264.84807 
" clip-path="url(#p157fb03b62)" style="fill: none; stroke: #000000; stroke-width: 1.5; stroke-linecap: square"/>
   </g>
   <g id="line2d_62">
    <path d="M 138.438068 264.84807 
L 140.296875 264.84807 
L 140.296875 67.733616 
L 138.438068 67.733616 
L 138.438068 264.84807 
" clip-path="url(#p157fb03b62)" style="fill: none; stroke: #000000; stroke-width: 1.5; stroke-linecap: square"/>
   </g>
   <g id="line2d_63">
    <path d="M 140.296875 264.84807 
L 142.155682 264.84807 
L 142.155682 67.496524 
L 140.296875 67.496524 
L 140.296875 264.84807 
" clip-path="url(#p157fb03b62)" style="fill: none; stroke: #000000; stroke-width: 1.5; stroke-linecap: square"/>
   </g>
   <g id="line2d_64">
    <path d="M 142.155682 264.84807 
L 144.014489 264.84807 
L 144.014489 67.382447 
L 142.155682 67.382447 
L 142.155682 264.84807 
" clip-path="url(#p157fb03b62)" style="fill: none; stroke: #000000; stroke-width: 1.5; stroke-linecap: square"/>
   </g>
   <g id="line2d_65">
    <path d="M 144.014489 264.84807 
L 145.873295 264.84807 
L 145.873295 67.388985 
L 144.014489 67.388985 
L 144.014489 264.84807 
" clip-path="url(#p157fb03b62)" style="fill: none; stroke: #000000; stroke-width: 1.5; stroke-linecap: square"/>
   </g>
   <g id="line2d_66">
    <path d="M 145.873295 264.84807 
L 147.732102 264.84807 
L 147.732102 67.513735 
L 145.873295 67.513735 
L 145.873295 264.84807 
" clip-path="url(#p157fb03b62)" style="fill: none; stroke: #000000; stroke-width: 1.5; stroke-linecap: square"/>
   </g>
   <g id="line2d_67">
    <path d="M 147.732102 264.84807 
L 149.590909 264.84807 
L 149.590909 67.754297 
L 147.732102 67.754297 
L 147.732102 264.84807 
" clip-path="url(#p157fb03b62)" style="fill: none; stroke: #000000; stroke-width: 1.5; stroke-linecap: square"/>
   </g>
   <g id="line2d_68">
    <path d="M 149.590909 264.84807 
L 151.449716 264.84807 
L 151.449716 68.108267 
L 149.590909 68.108267 
L 149.590909 264.84807 
" clip-path="url(#p157fb03b62)" style="fill: none; stroke: #000000; stroke-width: 1.5; stroke-linecap: square"/>
   </g>
   <g id="line2d_69">
    <path d="M 151.449716 264.84807 
L 153.308523 264.84807 
L 153.308523 68.573245 
L 151.449716 68.573245 
L 151.449716 264.84807 
" clip-path="url(#p157fb03b62)" style="fill: none; stroke: #000000; stroke-width: 1.5; stroke-linecap: square"/>
   </g>
   <g id="line2d_70">
    <path d="M 153.308523 264.84807 
L 155.16733 264.84807 
L 155.16733 69.146829 
L 153.308523 69.146829 
L 153.308523 264.84807 
" clip-path="url(#p157fb03b62)" style="fill: none; stroke: #000000; stroke-width: 1.5; stroke-linecap: square"/>
   </g>
   <g id="line2d_71">
    <path d="M 155.16733 264.84807 
L 157.026136 264.84807 
L 157.026136 69.826618 
L 155.16733 69.826618 
L 155.16733 264.84807 
" clip-path="url(#p157fb03b62)" style="fill: none; stroke: #000000; stroke-width: 1.5; stroke-linecap: square"/>
   </g>
   <g id="line2d_72">
    <path d="M 157.026136 264.84807 
L 158.884943 264.84807 
L 158.884943 70.61021 
L 157.026136 70.61021 
L 157.026136 264.84807 
" clip-path="url(#p157fb03b62)" style="fill: none; stroke: #000000; stroke-width: 1.5; stroke-linecap: square"/>
   </g>
   <g id="line2d_73">
    <path d="M 158.884943 264.84807 
L 160.74375 264.84807 
L 160.74375 71.495203 
L 158.884943 71.495203 
L 158.884943 264.84807 
" clip-path="url(#p157fb03b62)" style="fill: none; stroke: #000000; stroke-width: 1.5; stroke-linecap: square"/>
   </g>
   <g id="line2d_74">
    <path d="M 160.74375 264.84807 
L 162.602557 264.84807 
L 162.602557 72.479195 
L 160.74375 72.479195 
L 160.74375 264.84807 
" clip-path="url(#p157fb03b62)" style="fill: none; stroke: #000000; stroke-width: 1.5; stroke-linecap: square"/>
   </g>
   <g id="line2d_75">
    <path d="M 162.602557 264.84807 
L 164.461364 264.84807 
L 164.461364 73.559786 
L 162.602557 73.559786 
L 162.602557 264.84807 
" clip-path="url(#p157fb03b62)" style="fill: none; stroke: #000000; stroke-width: 1.5; stroke-linecap: square"/>
   </g>
   <g id="line2d_76">
    <path d="M 164.461364 264.84807 
L 166.32017 264.84807 
L 166.32017 74.734573 
L 164.461364 74.734573 
L 164.461364 264.84807 
" clip-path="url(#p157fb03b62)" style="fill: none; stroke: #000000; stroke-width: 1.5; stroke-linecap: square"/>
   </g>
   <g id="line2d_77">
    <path d="M 166.32017 264.84807 
L 168.178977 264.84807 
L 168.178977 76.001155 
L 166.32017 76.001155 
L 166.32017 264.84807 
" clip-path="url(#p157fb03b62)" style="fill: none; stroke: #000000; stroke-width: 1.5; stroke-linecap: square"/>
   </g>
   <g id="line2d_78">
    <path d="M 168.178977 264.84807 
L 170.037784 264.84807 
L 170.037784 77.35713 
L 168.178977 77.35713 
L 168.178977 264.84807 
" clip-path="url(#p157fb03b62)" style="fill: none; stroke: #000000; stroke-width: 1.5; stroke-linecap: square"/>
   </g>
   <g id="line2d_79">
    <path d="M 170.037784 264.84807 
L 171.896591 264.84807 
L 171.896591 78.800097 
L 170.037784 78.800097 
L 170.037784 264.84807 
" clip-path="url(#p157fb03b62)" style="fill: none; stroke: #000000; stroke-width: 1.5; stroke-linecap: square"/>
   </g>
   <g id="line2d_80">
    <path d="M 171.896591 264.84807 
L 173.755398 264.84807 
L 173.755398 80.327653 
L 171.896591 80.327653 
L 171.896591 264.84807 
" clip-path="url(#p157fb03b62)" style="fill: none; stroke: #000000; stroke-width: 1.5; stroke-linecap: square"/>
   </g>
   <g id="line2d_81">
    <path d="M 173.755398 264.84807 
L 175.614205 264.84807 
L 175.614205 81.937398 
L 173.755398 81.937398 
L 173.755398 264.84807 
" clip-path="url(#p157fb03b62)" style="fill: none; stroke: #000000; stroke-width: 1.5; stroke-linecap: square"/>
   </g>
   <g id="line2d_82">
    <path d="M 175.614205 264.84807 
L 177.473011 264.84807 
L 177.473011 83.62693 
L 175.614205 83.62693 
L 175.614205 264.84807 
" clip-path="url(#p157fb03b62)" style="fill: none; stroke: #000000; stroke-width: 1.5; stroke-linecap: square"/>
   </g>
   <g id="line2d_83">
    <path d="M 177.473011 264.84807 
L 179.331818 264.84807 
L 179.331818 85.393847 
L 177.473011 85.393847 
L 177.473011 264.84807 
" clip-path="url(#p157fb03b62)" style="fill: none; stroke: #000000; stroke-width: 1.5; stroke-linecap: square"/>
   </g>
   <g id="line2d_84">
    <path d="M 179.331818 264.84807 
L 181.190625 264.84807 
L 181.190625 87.235748 
L 179.331818 87.235748 
L 179.331818 264.84807 
" clip-path="url(#p157fb03b62)" style="fill: none; stroke: #000000; stroke-width: 1.5; stroke-linecap: square"/>
   </g>
   <g id="line2d_85">
    <path d="M 181.190625 264.84807 
L 183.049432 264.84807 
L 183.049432 89.15023 
L 181.190625 89.15023 
L 181.190625 264.84807 
" clip-path="url(#p157fb03b62)" style="fill: none; stroke: #000000; stroke-width: 1.5; stroke-linecap: square"/>
   </g>
   <g id="line2d_86">
    <path d="M 183.049432 264.84807 
L 184.908239 264.84807 
L 184.908239 91.134893 
L 183.049432 91.134893 
L 183.049432 264.84807 
" clip-path="url(#p157fb03b62)" style="fill: none; stroke: #000000; stroke-width: 1.5; stroke-linecap: square"/>
   </g>
   <g id="line2d_87">
    <path d="M 184.908239 264.84807 
L 186.767045 264.84807 
L 186.767045 93.187335 
L 184.908239 93.187335 
L 184.908239 264.84807 
" clip-path="url(#p157fb03b62)" style="fill: none; stroke: #000000; stroke-width: 1.5; stroke-linecap: square"/>
   </g>
   <g id="line2d_88">
    <path d="M 186.767045 264.84807 
L 188.625852 264.84807 
L 188.625852 95.305154 
L 186.767045 95.305154 
L 186.767045 264.84807 
" clip-path="url(#p157fb03b62)" style="fill: none; stroke: #000000; stroke-width: 1.5; stroke-linecap: square"/>
   </g>
   <g id="line2d_89">
    <path d="M 188.625852 264.84807 
L 190.484659 264.84807 
L 190.484659 97.485948 
L 188.625852 97.485948 
L 188.625852 264.84807 
" clip-path="url(#p157fb03b62)" style="fill: none; stroke: #000000; stroke-width: 1.5; stroke-linecap: square"/>
   </g>
   <g id="line2d_90">
    <path d="M 190.484659 264.84807 
L 192.343466 264.84807 
L 192.343466 99.727316 
L 190.484659 99.727316 
L 190.484659 264.84807 
" clip-path="url(#p157fb03b62)" style="fill: none; stroke: #000000; stroke-width: 1.5; stroke-linecap: square"/>
   </g>
   <g id="line2d_91">
    <path d="M 192.343466 264.84807 
L 194.202273 264.84807 
L 194.202273 102.026857 
L 192.343466 102.026857 
L 192.343466 264.84807 
" clip-path="url(#p157fb03b62)" style="fill: none; stroke: #000000; stroke-width: 1.5; stroke-linecap: square"/>
   </g>
   <g id="line2d_92">
    <path d="M 194.202273 264.84807 
L 196.06108 264.84807 
L 196.06108 104.382168 
L 194.202273 104.382168 
L 194.202273 264.84807 
" clip-path="url(#p157fb03b62)" style="fill: none; stroke: #000000; stroke-width: 1.5; stroke-linecap: square"/>
   </g>
   <g id="line2d_93">
    <path d="M 196.06108 264.84807 
L 197.919886 264.84807 
L 197.919886 106.790849 
L 196.06108 106.790849 
L 196.06108 264.84807 
" clip-path="url(#p157fb03b62)" style="fill: none; stroke: #000000; stroke-width: 1.5; stroke-linecap: square"/>
   </g>
   <g id="line2d_94">
    <path d="M 197.919886 264.84807 
L 199.778693 264.84807 
L 199.778693 109.250496 
L 197.919886 109.250496 
L 197.919886 264.84807 
" clip-path="url(#p157fb03b62)" style="fill: none; stroke: #000000; stroke-width: 1.5; stroke-linecap: square"/>
   </g>
   <g id="line2d_95">
    <path d="M 199.778693 264.84807 
L 201.6375 264.84807 
L 201.6375 111.75871 
L 199.778693 111.75871 
L 199.778693 264.84807 
" clip-path="url(#p157fb03b62)" style="fill: none; stroke: #000000; stroke-width: 1.5; stroke-linecap: square"/>
   </g>
   <g id="line2d_96">
    <path d="M 201.6375 264.84807 
L 203.496307 264.84807 
L 203.496307 114.313088 
L 201.6375 114.313088 
L 201.6375 264.84807 
" clip-path="url(#p157fb03b62)" style="fill: none; stroke: #000000; stroke-width: 1.5; stroke-linecap: square"/>
   </g>
   <g id="line2d_97">
    <path d="M 203.496307 264.84807 
L 205.355114 264.84807 
L 205.355114 116.911229 
L 203.496307 116.911229 
L 203.496307 264.84807 
" clip-path="url(#p157fb03b62)" style="fill: none; stroke: #000000; stroke-width: 1.5; stroke-linecap: square"/>
   </g>
   <g id="line2d_98">
    <path d="M 205.355114 264.84807 
L 207.21392 264.84807 
L 207.21392 119.55073 
L 205.355114 119.55073 
L 205.355114 264.84807 
" clip-path="url(#p157fb03b62)" style="fill: none; stroke: #000000; stroke-width: 1.5; stroke-linecap: square"/>
   </g>
   <g id="line2d_99">
    <path d="M 207.21392 264.84807 
L 209.072727 264.84807 
L 209.072727 122.229191 
L 207.21392 122.229191 
L 207.21392 264.84807 
" clip-path="url(#p157fb03b62)" style="fill: none; stroke: #000000; stroke-width: 1.5; stroke-linecap: square"/>
   </g>
   <g id="line2d_100">
    <path d="M 209.072727 264.84807 
L 210.931534 264.84807 
L 210.931534 124.94421 
L 209.072727 124.94421 
L 209.072727 264.84807 
" clip-path="url(#p157fb03b62)" style="fill: none; stroke: #000000; stroke-width: 1.5; stroke-linecap: square"/>
   </g>
   <g id="line2d_101">
    <path d="M 210.931534 264.84807 
L 212.790341 264.84807 
L 212.790341 127.693385 
L 210.931534 127.693385 
L 210.931534 264.84807 
" clip-path="url(#p157fb03b62)" style="fill: none; stroke: #000000; stroke-width: 1.5; stroke-linecap: square"/>
   </g>
   <g id="line2d_102">
    <path d="M 212.790341 264.84807 
L 214.649148 264.84807 
L 214.649148 130.474315 
L 212.790341 130.474315 
L 212.790341 264.84807 
" clip-path="url(#p157fb03b62)" style="fill: none; stroke: #000000; stroke-width: 1.5; stroke-linecap: square"/>
   </g>
   <g id="line2d_103">
    <path d="M 214.649148 264.84807 
L 216.507955 264.84807 
L 216.507955 133.284598 
L 214.649148 133.284598 
L 214.649148 264.84807 
" clip-path="url(#p157fb03b62)" style="fill: none; stroke: #000000; stroke-width: 1.5; stroke-linecap: square"/>
   </g>
   <g id="line2d_104">
    <path d="M 216.507955 264.84807 
L 218.366761 264.84807 
L 218.366761 136.121832 
L 216.507955 136.121832 
L 216.507955 264.84807 
" clip-path="url(#p157fb03b62)" style="fill: none; stroke: #000000; stroke-width: 1.5; stroke-linecap: square"/>
   </g>
   <g id="line2d_105">
    <path d="M 218.366761 264.84807 
L 220.225568 264.84807 
L 220.225568 138.983616 
L 218.366761 138.983616 
L 218.366761 264.84807 
" clip-path="url(#p157fb03b62)" style="fill: none; stroke: #000000; stroke-width: 1.5; stroke-linecap: square"/>
   </g>
   <g id="line2d_106">
    <path d="M 220.225568 264.84807 
L 222.084375 264.84807 
L 222.084375 141.867548 
L 220.225568 141.867548 
L 220.225568 264.84807 
" clip-path="url(#p157fb03b62)" style="fill: none; stroke: #000000; stroke-width: 1.5; stroke-linecap: square"/>
   </g>
   <g id="line2d_107">
    <path d="M 222.084375 264.84807 
L 223.943182 264.84807 
L 223.943182 144.771226 
L 222.084375 144.771226 
L 222.084375 264.84807 
" clip-path="url(#p157fb03b62)" style="fill: none; stroke: #000000; stroke-width: 1.5; stroke-linecap: square"/>
   </g>
   <g id="line2d_108">
    <path d="M 223.943182 264.84807 
L 225.801989 264.84807 
L 225.801989 147.69225 
L 223.943182 147.69225 
L 223.943182 264.84807 
" clip-path="url(#p157fb03b62)" style="fill: none; stroke: #000000; stroke-width: 1.5; stroke-linecap: square"/>
   </g>
   <g id="line2d_109">
    <path d="M 225.801989 264.84807 
L 227.660795 264.84807 
L 227.660795 150.628217 
L 225.801989 150.628217 
L 225.801989 264.84807 
" clip-path="url(#p157fb03b62)" style="fill: none; stroke: #000000; stroke-width: 1.5; stroke-linecap: square"/>
   </g>
   <g id="line2d_110">
    <path d="M 227.660795 264.84807 
L 229.519602 264.84807 
L 229.519602 153.576725 
L 227.660795 153.576725 
L 227.660795 264.84807 
" clip-path="url(#p157fb03b62)" style="fill: none; stroke: #000000; stroke-width: 1.5; stroke-linecap: square"/>
   </g>
   <g id="line2d_111">
    <path d="M 229.519602 264.84807 
L 231.378409 264.84807 
L 231.378409 156.535374 
L 229.519602 156.535374 
L 229.519602 264.84807 
" clip-path="url(#p157fb03b62)" style="fill: none; stroke: #000000; stroke-width: 1.5; stroke-linecap: square"/>
   </g>
   <g id="line2d_112">
    <path d="M 231.378409 264.84807 
L 233.237216 264.84807 
L 233.237216 159.501761 
L 231.378409 159.501761 
L 231.378409 264.84807 
" clip-path="url(#p157fb03b62)" style="fill: none; stroke: #000000; stroke-width: 1.5; stroke-linecap: square"/>
   </g>
   <g id="line2d_113">
    <path d="M 233.237216 264.84807 
L 235.096023 264.84807 
L 235.096023 162.473486 
L 233.237216 162.473486 
L 233.237216 264.84807 
" clip-path="url(#p157fb03b62)" style="fill: none; stroke: #000000; stroke-width: 1.5; stroke-linecap: square"/>
   </g>
   <g id="line2d_114">
    <path d="M 235.096023 264.84807 
L 236.95483 264.84807 
L 236.95483 165.448145 
L 235.096023 165.448145 
L 235.096023 264.84807 
" clip-path="url(#p157fb03b62)" style="fill: none; stroke: #000000; stroke-width: 1.5; stroke-linecap: square"/>
   </g>
   <g id="line2d_115">
    <path d="M 236.95483 264.84807 
L 238.813636 264.84807 
L 238.813636 168.423338 
L 236.95483 168.423338 
L 236.95483 264.84807 
" clip-path="url(#p157fb03b62)" style="fill: none; stroke: #000000; stroke-width: 1.5; stroke-linecap: square"/>
   </g>
   <g id="line2d_116">
    <path d="M 238.813636 264.84807 
L 240.672443 264.84807 
L 240.672443 171.396664 
L 238.813636 171.396664 
L 238.813636 264.84807 
" clip-path="url(#p157fb03b62)" style="fill: none; stroke: #000000; stroke-width: 1.5; stroke-linecap: square"/>
   </g>
   <g id="line2d_117">
    <path d="M 240.672443 264.84807 
L 242.53125 264.84807 
L 242.53125 174.365719 
L 240.672443 174.365719 
L 240.672443 264.84807 
" clip-path="url(#p157fb03b62)" style="fill: none; stroke: #000000; stroke-width: 1.5; stroke-linecap: square"/>
   </g>
   <g id="line2d_118">
    <path d="M 242.53125 264.84807 
L 244.390057 264.84807 
L 244.390057 177.328104 
L 242.53125 177.328104 
L 242.53125 264.84807 
" clip-path="url(#p157fb03b62)" style="fill: none; stroke: #000000; stroke-width: 1.5; stroke-linecap: square"/>
   </g>
   <g id="line2d_119">
    <path d="M 244.390057 264.84807 
L 246.248864 264.84807 
L 246.248864 180.281416 
L 244.390057 180.281416 
L 244.390057 264.84807 
" clip-path="url(#p157fb03b62)" style="fill: none; stroke: #000000; stroke-width: 1.5; stroke-linecap: square"/>
   </g>
   <g id="line2d_120">
    <path d="M 246.248864 264.84807 
L 248.10767 264.84807 
L 248.10767 183.223253 
L 246.248864 183.223253 
L 246.248864 264.84807 
" clip-path="url(#p157fb03b62)" style="fill: none; stroke: #000000; stroke-width: 1.5; stroke-linecap: square"/>
   </g>
   <g id="line2d_121">
    <path d="M 248.10767 264.84807 
L 249.966477 264.84807 
L 249.966477 186.151215 
L 248.10767 186.151215 
L 248.10767 264.84807 
" clip-path="url(#p157fb03b62)" style="fill: none; stroke: #000000; stroke-width: 1.5; stroke-linecap: square"/>
   </g>
   <g id="line2d_122">
    <path d="M 249.966477 264.84807 
L 251.825284 264.84807 
L 251.825284 189.062899 
L 249.966477 189.062899 
L 249.966477 264.84807 
" clip-path="url(#p157fb03b62)" style="fill: none; stroke: #000000; stroke-width: 1.5; stroke-linecap: square"/>
   </g>
   <g id="line2d_123">
    <path d="M 251.825284 264.84807 
L 253.684091 264.84807 
L 253.684091 191.955904 
L 251.825284 191.955904 
L 251.825284 264.84807 
" clip-path="url(#p157fb03b62)" style="fill: none; stroke: #000000; stroke-width: 1.5; stroke-linecap: square"/>
   </g>
   <g id="line2d_124">
    <path d="M 253.684091 264.84807 
L 255.542898 264.84807 
L 255.542898 194.827828 
L 253.684091 194.827828 
L 253.684091 264.84807 
" clip-path="url(#p157fb03b62)" style="fill: none; stroke: #000000; stroke-width: 1.5; stroke-linecap: square"/>
   </g>
   <g id="line2d_125">
    <path d="M 255.542898 264.84807 
L 257.401705 264.84807 
L 257.401705 197.676269 
L 255.542898 197.676269 
L 255.542898 264.84807 
" clip-path="url(#p157fb03b62)" style="fill: none; stroke: #000000; stroke-width: 1.5; stroke-linecap: square"/>
   </g>
   <g id="line2d_126">
    <path d="M 257.401705 264.84807 
L 259.260511 264.84807 
L 259.260511 200.498827 
L 257.401705 200.498827 
L 257.401705 264.84807 
" clip-path="url(#p157fb03b62)" style="fill: none; stroke: #000000; stroke-width: 1.5; stroke-linecap: square"/>
   </g>
   <g id="line2d_127">
    <path d="M 259.260511 264.84807 
L 261.119318 264.84807 
L 261.119318 203.293099 
L 259.260511 203.293099 
L 259.260511 264.84807 
" clip-path="url(#p157fb03b62)" style="fill: none; stroke: #000000; stroke-width: 1.5; stroke-linecap: square"/>
   </g>
   <g id="line2d_128">
    <path d="M 261.119318 264.84807 
L 262.978125 264.84807 
L 262.978125 206.056684 
L 261.119318 206.056684 
L 261.119318 264.84807 
" clip-path="url(#p157fb03b62)" style="fill: none; stroke: #000000; stroke-width: 1.5; stroke-linecap: square"/>
   </g>
   <g id="line2d_129">
    <path d="M 262.978125 264.84807 
L 264.836932 264.84807 
L 264.836932 208.78718 
L 262.978125 208.78718 
L 262.978125 264.84807 
" clip-path="url(#p157fb03b62)" style="fill: none; stroke: #000000; stroke-width: 1.5; stroke-linecap: square"/>
   </g>
   <g id="line2d_130">
    <path d="M 264.836932 264.84807 
L 266.695739 264.84807 
L 266.695739 211.482185 
L 264.836932 211.482185 
L 264.836932 264.84807 
" clip-path="url(#p157fb03b62)" style="fill: none; stroke: #000000; stroke-width: 1.5; stroke-linecap: square"/>
   </g>
   <g id="line2d_131">
    <path d="M 266.695739 264.84807 
L 268.554545 264.84807 
L 268.554545 214.139298 
L 266.695739 214.139298 
L 266.695739 264.84807 
" clip-path="url(#p157fb03b62)" style="fill: none; stroke: #000000; stroke-width: 1.5; stroke-linecap: square"/>
   </g>
   <g id="line2d_132">
    <path d="M 268.554545 264.84807 
L 270.413352 264.84807 
L 270.413352 216.756118 
L 268.554545 216.756118 
L 268.554545 264.84807 
" clip-path="url(#p157fb03b62)" style="fill: none; stroke: #000000; stroke-width: 1.5; stroke-linecap: square"/>
   </g>
   <g id="line2d_133">
    <path d="M 270.413352 264.84807 
L 272.272159 264.84807 
L 272.272159 219.330243 
L 270.413352 219.330243 
L 270.413352 264.84807 
" clip-path="url(#p157fb03b62)" style="fill: none; stroke: #000000; stroke-width: 1.5; stroke-linecap: square"/>
   </g>
   <g id="line2d_134">
    <path d="M 272.272159 264.84807 
L 274.130966 264.84807 
L 274.130966 221.85927 
L 272.272159 221.85927 
L 272.272159 264.84807 
" clip-path="url(#p157fb03b62)" style="fill: none; stroke: #000000; stroke-width: 1.5; stroke-linecap: square"/>
   </g>
   <g id="line2d_135">
    <path d="M 274.130966 264.84807 
L 275.989773 264.84807 
L 275.989773 224.340799 
L 274.130966 224.340799 
L 274.130966 264.84807 
" clip-path="url(#p157fb03b62)" style="fill: none; stroke: #000000; stroke-width: 1.5; stroke-linecap: square"/>
   </g>
   <g id="line2d_136">
    <path d="M 275.989773 264.84807 
L 277.84858 264.84807 
L 277.84858 226.772428 
L 275.989773 226.772428 
L 275.989773 264.84807 
" clip-path="url(#p157fb03b62)" style="fill: none; stroke: #000000; stroke-width: 1.5; stroke-linecap: square"/>
   </g>
   <g id="line2d_137">
    <path d="M 277.84858 264.84807 
L 279.707386 264.84807 
L 279.707386 229.151756 
L 277.84858 229.151756 
L 277.84858 264.84807 
" clip-path="url(#p157fb03b62)" style="fill: none; stroke: #000000; stroke-width: 1.5; stroke-linecap: square"/>
   </g>
   <g id="line2d_138">
    <path d="M 279.707386 264.84807 
L 281.566193 264.84807 
L 281.566193 231.47638 
L 279.707386 231.47638 
L 279.707386 264.84807 
" clip-path="url(#p157fb03b62)" style="fill: none; stroke: #000000; stroke-width: 1.5; stroke-linecap: square"/>
   </g>
   <g id="line2d_139">
    <path d="M 281.566193 264.84807 
L 283.425 264.84807 
L 283.425 233.743899 
L 281.566193 233.743899 
L 281.566193 264.84807 
" clip-path="url(#p157fb03b62)" style="fill: none; stroke: #000000; stroke-width: 1.5; stroke-linecap: square"/>
   </g>
   <g id="line2d_140">
    <path d="M 283.425 264.84807 
L 285.283807 264.84807 
L 285.283807 235.951911 
L 283.425 235.951911 
L 283.425 264.84807 
" clip-path="url(#p157fb03b62)" style="fill: none; stroke: #000000; stroke-width: 1.5; stroke-linecap: square"/>
   </g>
   <g id="line2d_141">
    <path d="M 285.283807 264.84807 
L 287.142614 264.84807 
L 287.142614 238.098016 
L 285.283807 238.098016 
L 285.283807 264.84807 
" clip-path="url(#p157fb03b62)" style="fill: none; stroke: #000000; stroke-width: 1.5; stroke-linecap: square"/>
   </g>
   <g id="line2d_142">
    <path d="M 287.142614 264.84807 
L 289.00142 264.84807 
L 289.00142 240.179811 
L 287.142614 240.179811 
L 287.142614 264.84807 
" clip-path="url(#p157fb03b62)" style="fill: none; stroke: #000000; stroke-width: 1.5; stroke-linecap: square"/>
   </g>
   <g id="line2d_143">
    <path d="M 289.00142 264.84807 
L 290.860227 264.84807 
L 290.860227 242.194894 
L 289.00142 242.194894 
L 289.00142 264.84807 
" clip-path="url(#p157fb03b62)" style="fill: none; stroke: #000000; stroke-width: 1.5; stroke-linecap: square"/>
   </g>
   <g id="line2d_144">
    <path d="M 290.860227 264.84807 
L 292.719034 264.84807 
L 292.719034 244.140864 
L 290.860227 244.140864 
L 290.860227 264.84807 
" clip-path="url(#p157fb03b62)" style="fill: none; stroke: #000000; stroke-width: 1.5; stroke-linecap: square"/>
   </g>
   <g id="line2d_145">
    <path d="M 292.719034 264.84807 
L 294.577841 264.84807 
L 294.577841 246.01532 
L 292.719034 246.01532 
L 292.719034 264.84807 
" clip-path="url(#p157fb03b62)" style="fill: none; stroke: #000000; stroke-width: 1.5; stroke-linecap: square"/>
   </g>
   <g id="line2d_146">
    <path d="M 294.577841 264.84807 
L 296.436648 264.84807 
L 296.436648 247.81586 
L 294.577841 247.81586 
L 294.577841 264.84807 
" clip-path="url(#p157fb03b62)" style="fill: none; stroke: #000000; stroke-width: 1.5; stroke-linecap: square"/>
   </g>
   <g id="line2d_147">
    <path d="M 296.436648 264.84807 
L 298.295455 264.84807 
L 298.295455 249.540081 
L 296.436648 249.540081 
L 296.436648 264.84807 
" clip-path="url(#p157fb03b62)" style="fill: none; stroke: #000000; stroke-width: 1.5; stroke-linecap: square"/>
   </g>
   <g id="line2d_148">
    <path d="M 298.295455 264.84807 
L 300.154261 264.84807 
L 300.154261 251.185584 
L 298.295455 251.185584 
L 298.295455 264.84807 
" clip-path="url(#p157fb03b62)" style="fill: none; stroke: #000000; stroke-width: 1.5; stroke-linecap: square"/>
   </g>
   <g id="line2d_149">
    <path d="M 300.154261 264.84807 
L 302.013068 264.84807 
L 302.013068 252.749965 
L 300.154261 252.749965 
L 300.154261 264.84807 
" clip-path="url(#p157fb03b62)" style="fill: none; stroke: #000000; stroke-width: 1.5; stroke-linecap: square"/>
   </g>
   <g id="line2d_150">
    <path d="M 302.013068 264.84807 
L 303.871875 264.84807 
L 303.871875 254.230824 
L 302.013068 254.230824 
L 302.013068 264.84807 
" clip-path="url(#p157fb03b62)" style="fill: none; stroke: #000000; stroke-width: 1.5; stroke-linecap: square"/>
   </g>
   <g id="line2d_151">
    <path d="M 303.871875 264.84807 
L 305.730682 264.84807 
L 305.730682 255.625758 
L 303.871875 255.625758 
L 303.871875 264.84807 
" clip-path="url(#p157fb03b62)" style="fill: none; stroke: #000000; stroke-width: 1.5; stroke-linecap: square"/>
   </g>
   <g id="line2d_152">
    <path d="M 305.730682 264.84807 
L 307.589489 264.84807 
L 307.589489 256.932367 
L 305.730682 256.932367 
L 305.730682 264.84807 
" clip-path="url(#p157fb03b62)" style="fill: none; stroke: #000000; stroke-width: 1.5; stroke-linecap: square"/>
   </g>
   <g id="line2d_153">
    <path d="M 307.589489 264.84807 
L 309.448295 264.84807 
L 309.448295 258.148248 
L 307.589489 258.148248 
L 307.589489 264.84807 
" clip-path="url(#p157fb03b62)" style="fill: none; stroke: #000000; stroke-width: 1.5; stroke-linecap: square"/>
   </g>
   <g id="line2d_154">
    <path d="M 309.448295 264.84807 
L 311.307102 264.84807 
L 311.307102 259.271 
L 309.448295 259.271 
L 309.448295 264.84807 
" clip-path="url(#p157fb03b62)" style="fill: none; stroke: #000000; stroke-width: 1.5; stroke-linecap: square"/>
   </g>
   <g id="line2d_155">
    <path d="M 311.307102 264.84807 
L 313.165909 264.84807 
L 313.165909 260.298222 
L 311.307102 260.298222 
L 311.307102 264.84807 
" clip-path="url(#p157fb03b62)" style="fill: none; stroke: #000000; stroke-width: 1.5; stroke-linecap: square"/>
   </g>
   <g id="line2d_156">
    <path d="M 313.165909 264.84807 
L 315.024716 264.84807 
L 315.024716 261.227511 
L 313.165909 261.227511 
L 313.165909 264.84807 
" clip-path="url(#p157fb03b62)" style="fill: none; stroke: #000000; stroke-width: 1.5; stroke-linecap: square"/>
   </g>
   <g id="line2d_157">
    <path d="M 315.024716 264.84807 
L 316.883523 264.84807 
L 316.883523 262.056467 
L 315.024716 262.056467 
L 315.024716 264.84807 
" clip-path="url(#p157fb03b62)" style="fill: none; stroke: #000000; stroke-width: 1.5; stroke-linecap: square"/>
   </g>
   <g id="line2d_158">
    <path d="M 316.883523 264.84807 
L 318.74233 264.84807 
L 318.74233 262.782686 
L 316.883523 262.782686 
L 316.883523 264.84807 
" clip-path="url(#p157fb03b62)" style="fill: none; stroke: #000000; stroke-width: 1.5; stroke-linecap: square"/>
   </g>
   <g id="line2d_159">
    <path d="M 318.74233 264.84807 
L 320.601136 264.84807 
L 320.601136 263.403769 
L 318.74233 263.403769 
L 318.74233 264.84807 
" clip-path="url(#p157fb03b62)" style="fill: none; stroke: #000000; stroke-width: 1.5; stroke-linecap: square"/>
   </g>
   <g id="line2d_160">
    <path d="M 320.601136 264.84807 
L 322.459943 264.84807 
L 322.459943 263.917313 
L 320.601136 263.917313 
L 320.601136 264.84807 
" clip-path="url(#p157fb03b62)" style="fill: none; stroke: #000000; stroke-width: 1.5; stroke-linecap: square"/>
   </g>
   <g id="line2d_161">
    <path d="M 322.459943 264.84807 
L 324.31875 264.84807 
L 324.31875 264.320917 
L 322.459943 264.320917 
L 322.459943 264.84807 
" clip-path="url(#p157fb03b62)" style="fill: none; stroke: #000000; stroke-width: 1.5; stroke-linecap: square"/>
   </g>
   <g id="line2d_162">
    <path d="M 324.31875 264.84807 
L 326.177557 264.84807 
L 326.177557 264.612179 
L 324.31875 264.612179 
L 324.31875 264.84807 
" clip-path="url(#p157fb03b62)" style="fill: none; stroke: #000000; stroke-width: 1.5; stroke-linecap: square"/>
   </g>
   <g id="line2d_163">
    <path d="M 326.177557 264.84807 
L 328.036364 264.84807 
L 328.036364 264.788697 
L 326.177557 264.788697 
L 326.177557 264.84807 
" clip-path="url(#p157fb03b62)" style="fill: none; stroke: #000000; stroke-width: 1.5; stroke-linecap: square"/>
   </g>
   <g id="patch_131">
    <path d="M 90.109091 334.8 
L 90.109091 20.016315 
" style="fill: none; stroke: #000000; stroke-width: 0.8; stroke-linejoin: miter; stroke-linecap: square"/>
   </g>
   <g id="patch_132">
    <path d="M 447 334.8 
L 447 20.016315 
" style="fill: none"/>
   </g>
   <g id="patch_133">
    <path d="M 10.8 264.84807 
L 447 264.84807 
" style="fill: none; stroke: #000000; stroke-width: 0.8; stroke-linejoin: miter; stroke-linecap: square"/>
   </g>
   <g id="patch_134">
    <path d="M 10.8 20.016315 
L 447 20.016315 
" style="fill: none"/>
   </g>
   <g id="legend_1">
    <g id="patch_135">
     <path d="M 24.8 63.891949 
L 98.416648 63.891949 
Q 102.416648 63.891949 102.416648 59.891949 
L 102.416648 34.016315 
Q 102.416648 30.016315 98.416648 30.016315 
L 24.8 30.016315 
Q 20.8 30.016315 20.8 34.016315 
L 20.8 59.891949 
Q 20.8 63.891949 24.8 63.891949 
z
" style="fill: #ffffff; opacity: 0.8; stroke: #cccccc; stroke-linejoin: miter"/>
    </g>
    <g id="line2d_164">
     <path d="M 28.8 45.016315 
L 48.8 45.016315 
L 68.8 45.016315 
" style="fill: none; stroke: #0072b2; stroke-width: 2.5; stroke-linecap: square"/>
    </g>
    <g id="text_19">
     <!-- $f$ -->
     <g transform="translate(84.8 52.016315) scale(0.2 -0.2)">
      <defs>
       <path id="CMMI12-66" d="M 2854 2566 
C 2982 2566 3034 2566 3034 2688 
C 3034 2752 2982 2752 2867 2752 
L 2349 2752 
C 2470 3429 2560 3897 2611 4107 
C 2650 4265 2784 4416 2950 4416 
C 3085 4416 3219 4358 3283 4298 
C 3034 4272 2957 4082 2957 3969 
C 2957 3837 3053 3759 3174 3759 
C 3302 3759 3494 3870 3494 4119 
C 3494 4393 3226 4544 2944 4544 
C 2669 4544 2400 4334 2272 4078 
C 2157 3848 2093 3611 1946 2752 
L 1517 2752 
C 1395 2752 1331 2752 1331 2637 
C 1331 2566 1370 2566 1498 2566 
L 1907 2566 
C 1792 1976 1530 542 1382 -137 
C 1274 -689 1178 -1152 858 -1152 
C 838 -1152 653 -1152 538 -1031 
C 864 -1005 864 -726 864 -720 
C 864 -593 768 -517 646 -517 
C 518 -517 326 -625 326 -867 
C 326 -1140 608 -1280 858 -1280 
C 1510 -1280 1779 -118 1850 199 
C 1965 688 2278 2376 2310 2566 
L 2854 2566 
z
" transform="scale(0.015625)"/>
      </defs>
      <use xlink:href="#CMMI12-66" transform="scale(0.996264)"/>
     </g>
    </g>
   </g>
  </g>
 </g>
 <defs>
  <clipPath id="p157fb03b62">
   <rect x="10.8" y="20.016315" width="436.2" height="314.783685"/>
  </clipPath>
 </defs>
</svg>
