<?xml version="1.0" encoding="utf-8" standalone="no"?>
<!DOCTYPE svg PUBLIC "-//W3C//DTD SVG 1.1//EN"
  "http://www.w3.org/Graphics/SVG/1.1/DTD/svg11.dtd">
<svg xmlns:xlink="http://www.w3.org/1999/xlink" width="460.8pt" height="345.6pt" viewBox="0 0 460.8 345.6" xmlns="http://www.w3.org/2000/svg" version="1.1">
 <metadata>
  <rdf:RDF xmlns:dc="http://purl.org/dc/elements/1.1/" xmlns:cc="http://creativecommons.org/ns#" xmlns:rdf="http://www.w3.org/1999/02/22-rdf-syntax-ns#">
   <cc:Work>
    <dc:type rdf:resource="http://purl.org/dc/dcmitype/StillImage"/>
    <dc:date>2025-12-06T22:02:08.848435</dc:date>
    <dc:format>image/svg+xml</dc:format>
    <dc:creator>
     <cc:Agent>
      <dc:title>Matplotlib v3.9.1, https://matplotlib.org/</dc:title>
     </cc:Agent>
    </dc:creator>
   </cc:Work>
  </rdf:RDF>
 </metadata>
 <defs>
  <style type="text/css">*{stroke-linejoin: round; stroke-linecap: butt}</style>
 </defs>
 <g id="figure_1">
  <g id="patch_1">
   <path d="M 0 345.6 
L 460.8 345.6 
L 460.8 0 
L 0 0 
L 0 345.6 
z
" style="fill: none"/>
  </g>
  <g id="axes_1">
   <g id="patch_2">
    <path d="M 10.8 334.8 
L 447 334.8 
L 447 22.673214 
L 10.8 22.673214 
L 10.8 334.8 
z
" style="fill: none"/>
   </g>
   <g id="matplotlib.axis_1">
    <g id="text_1">
     <!-- $x$ -->
     <g transform="translate(432.587145 200.724709) scale(0.26 -0.26)">
      <defs>
       <path id="CMMI12-78" d="M 3034 2606 
C 2829 2567 2752 2414 2752 2293 
C 2752 2139 2874 2088 2963 2088 
C 3155 2088 3290 2254 3290 2427 
C 3290 2695 2982 2816 2714 2816 
C 2323 2816 2106 2433 2048 2312 
C 1901 2816 1504 2816 1389 2816 
C 736 2816 390 1980 390 1839 
C 390 1814 416 1782 461 1782 
C 512 1782 525 1820 538 1846 
C 755 2555 1184 2689 1370 2689 
C 1658 2689 1715 2420 1715 2267 
C 1715 2127 1677 1980 1600 1673 
L 1382 798 
C 1286 415 1101 64 762 64 
C 730 64 570 64 435 147 
C 666 192 717 383 717 460 
C 717 588 621 664 499 664 
C 346 664 179 530 179 326 
C 179 57 480 -64 755 -64 
C 1062 -64 1280 179 1414 441 
C 1517 64 1837 -64 2074 -64 
C 2726 -64 3072 773 3072 913 
C 3072 945 3046 971 3008 971 
C 2950 971 2944 939 2925 888 
C 2752 326 2381 64 2093 64 
C 1869 64 1747 230 1747 492 
C 1747 632 1773 734 1875 1156 
L 2099 2024 
C 2195 2408 2413 2689 2707 2689 
C 2720 2689 2899 2689 3034 2606 
z
" transform="scale(0.015625)"/>
      </defs>
      <use xlink:href="#CMMI12-78" transform="scale(0.996264)"/>
     </g>
    </g>
   </g>
   <g id="matplotlib.axis_2">
    <g id="text_2">
     <!-- $y$ -->
     <g transform="translate(212.53332 17.634888) scale(0.26 -0.26)">
      <defs>
       <path id="CMMI12-79" d="M 1683 -700 
C 1510 -939 1261 -1152 947 -1152 
C 870 -1152 563 -1152 467 -889 
C 486 -895 518 -895 531 -895 
C 723 -895 851 -729 851 -582 
C 851 -435 730 -384 634 -384 
C 531 -384 307 -458 307 -759 
C 307 -1071 582 -1286 947 -1286 
C 1587 -1286 2234 -700 2413 6 
L 3040 2485 
C 3046 2517 3059 2556 3059 2594 
C 3059 2689 2982 2753 2886 2753 
C 2829 2753 2694 2727 2643 2535 
L 2170 658 
C 2138 543 2138 530 2086 460 
C 1958 281 1747 64 1440 64 
C 1082 64 1050 415 1050 588 
C 1050 952 1222 1443 1395 1903 
C 1466 2088 1504 2178 1504 2305 
C 1504 2574 1312 2816 998 2816 
C 410 2816 173 1890 173 1839 
C 173 1814 198 1782 243 1782 
C 301 1782 307 1807 333 1897 
C 486 2433 730 2689 979 2689 
C 1037 2689 1146 2689 1146 2478 
C 1146 2312 1075 2127 979 1884 
C 666 1047 666 837 666 683 
C 666 77 1101 -64 1421 -64 
C 1606 -64 1837 -6 2061 230 
L 2067 224 
C 1971 -147 1907 -392 1683 -700 
z
" transform="scale(0.015625)"/>
      </defs>
      <use xlink:href="#CMMI12-79" transform="scale(0.996264)"/>
     </g>
    </g>
   </g>
   <g id="line2d_1">
    <defs>
     <path id="m35465d7829" d="M 3 0 
L -3 -3 
L -3 3 
z
" style="stroke: #000000; stroke-linejoin: miter"/>
    </defs>
    <g>
     <use xlink:href="#m35465d7829" x="447" y="178.736607" style="stroke: #000000; stroke-linejoin: miter"/>
    </g>
   </g>
   <g id="line2d_2">
    <defs>
     <path id="mdd607e9ef5" d="M 0 -3 
L -3 3 
L 3 3 
z
" style="stroke: #000000; stroke-linejoin: miter"/>
    </defs>
    <g>
     <use xlink:href="#mdd607e9ef5" x="228.9" y="22.673214" style="stroke: #000000; stroke-linejoin: miter"/>
    </g>
   </g>
   <g id="line2d_3">
    <path d="M 10.8 178.736879 
L 61.50359 178.848943 
L 73.753407 179.09775 
L 81.955458 179.476489 
L 88.346667 179.983872 
L 93.779194 180.631497 
L 98.572601 181.423133 
L 102.939927 182.36859 
L 106.987692 183.471376 
L 110.822418 184.745279 
L 114.550623 186.219111 
L 118.172308 187.887245 
L 121.900513 189.854216 
L 125.735238 192.136632 
L 129.783004 194.80721 
L 134.57641 198.247757 
L 148.530549 208.462537 
L 151.619634 210.324088 
L 154.176117 211.616378 
L 156.51956 212.552199 
L 158.649963 213.158254 
L 160.567326 213.476253 
L 162.378168 213.55672 
L 164.082491 213.419922 
L 165.786813 213.061678 
L 167.491136 212.468044 
L 169.195458 211.626413 
L 170.89978 210.525765 
L 172.604103 209.156914 
L 174.414945 207.400727 
L 176.225788 205.328089 
L 178.14315 202.785932 
L 180.167033 199.716234 
L 182.297436 196.064251 
L 184.534359 191.782217 
L 186.984322 186.598403 
L 189.647326 180.433714 
L 192.73641 172.695079 
L 196.571136 162.436204 
L 209.033993 128.547141 
L 211.803516 121.918318 
L 214.25348 116.614195 
L 216.383883 112.511401 
L 218.301245 109.276509 
L 220.112088 106.655821 
L 221.70989 104.717125 
L 223.201172 103.238993 
L 224.585934 102.16275 
L 225.864176 101.428734 
L 227.142418 100.947939 
L 228.314139 100.731935 
L 229.485861 100.731935 
L 230.657582 100.947939 
L 231.829304 101.37895 
L 233.107546 102.091999 
L 234.385788 103.054637 
L 235.770549 104.373018 
L 237.261832 106.103772 
L 238.859634 108.301744 
L 240.670476 111.199443 
L 242.587839 114.705153 
L 244.718242 119.078216 
L 247.168205 124.649015 
L 249.937729 131.517689 
L 253.452894 140.864222 
L 260.802784 161.26529 
L 265.17011 172.97094 
L 268.472234 181.200249 
L 271.241758 187.535166 
L 273.798242 192.842065 
L 276.141685 197.204391 
L 278.272088 200.728164 
L 280.295971 203.673051 
L 282.213333 206.095968 
L 284.130696 208.161933 
L 285.941538 209.789294 
L 287.645861 211.039804 
L 289.350183 212.025888 
L 291.054505 212.757565 
L 292.758828 213.24658 
L 294.46315 213.506156 
L 296.273993 213.546737 
L 298.084835 213.363153 
L 300.002198 212.946049 
L 302.132601 212.242359 
L 304.369524 211.26635 
L 306.926007 209.90165 
L 309.908571 208.044475 
L 313.636777 205.442543 
L 319.814945 200.8087 
L 326.738755 195.699246 
L 331.212601 192.677765 
L 335.153846 190.277836 
L 338.882051 188.260336 
L 342.610256 186.496266 
L 346.338462 184.980951 
L 350.173187 183.667522 
L 354.114432 182.55437 
L 358.268718 181.610875 
L 362.849084 180.80388 
L 367.855531 180.150607 
L 373.607619 179.628146 
L 380.531429 179.230872 
L 389.479121 178.954837 
L 402.581099 178.795644 
L 429.743736 178.739219 
L 447 178.736879 
L 447 178.736879 
" clip-path="url(#p8746a85c1b)" style="fill: none; stroke: #0072b2; stroke-width: 3.5; stroke-linecap: square"/>
   </g>
   <g id="patch_3">
    <path d="M 228.9 334.8 
L 228.9 22.673214 
" style="fill: none; stroke: #000000; stroke-width: 0.8; stroke-linejoin: miter; stroke-linecap: square"/>
   </g>
   <g id="patch_4">
    <path d="M 447 334.8 
L 447 22.673214 
" style="fill: none"/>
   </g>
   <g id="patch_5">
    <path d="M 10.8 178.736607 
L 447 178.736607 
" style="fill: none; stroke: #000000; stroke-width: 0.8; stroke-linejoin: miter; stroke-linecap: square"/>
   </g>
   <g id="patch_6">
    <path d="M 10.8 22.673214 
L 447 22.673214 
" style="fill: none"/>
   </g>
   <g id="legend_1">
    <g id="patch_7">
     <path d="M 327.454073 79.711541 
L 428.8 79.711541 
Q 434 79.711541 434 74.511541 
L 434 40.873214 
Q 434 35.673214 428.8 35.673214 
L 327.454073 35.673214 
Q 322.254073 35.673214 322.254073 40.873214 
L 322.254073 74.511541 
Q 322.254073 79.711541 327.454073 79.711541 
z
" style="fill: #ffffff; opacity: 0.8; stroke: #cccccc; stroke-linejoin: miter"/>
    </g>
    <g id="line2d_4">
     <path d="M 332.654073 55.173214 
L 358.654073 55.173214 
L 384.654073 55.173214 
" style="fill: none; stroke: #0072b2; stroke-width: 3.5; stroke-linecap: square"/>
    </g>
    <g id="text_3">
     <!-- $C$ -->
     <g transform="translate(405.454073 64.273214) scale(0.26 -0.26)">
      <defs>
       <path id="CMMI12-43" d="M 4781 4423 
C 4781 4480 4736 4480 4723 4480 
C 4710 4480 4685 4480 4634 4416 
L 4192 3882 
C 3968 4264 3616 4480 3136 4480 
C 1754 4480 320 3088 320 1595 
C 320 533 1069 -128 2003 -128 
C 2515 -128 2963 88 3334 400 
C 3891 863 4058 1481 4058 1531 
C 4058 1588 4006 1588 3987 1588 
C 3930 1588 3923 1550 3910 1524 
C 3616 534 2752 57 2112 57 
C 1434 57 845 489 845 1391 
C 845 1595 909 2700 1632 3532 
C 1984 3939 2586 4295 3194 4295 
C 3898 4295 4211 3717 4211 3068 
C 4211 2903 4192 2764 4192 2738 
C 4192 2681 4256 2681 4275 2681 
C 4346 2681 4352 2687 4378 2801 
L 4781 4423 
z
" transform="scale(0.015625)"/>
      </defs>
      <use xlink:href="#CMMI12-43" transform="scale(0.996264)"/>
     </g>
    </g>
   </g>
  </g>
 </g>
 <defs>
  <clipPath id="p8746a85c1b">
   <rect x="10.8" y="22.673214" width="436.2" height="312.126786"/>
  </clipPath>
 </defs>
</svg>
