<?xml version="1.0" encoding="utf-8" standalone="no"?>
<!DOCTYPE svg PUBLIC "-//W3C//DTD SVG 1.1//EN"
  "http://www.w3.org/Graphics/SVG/1.1/DTD/svg11.dtd">
<svg xmlns:xlink="http://www.w3.org/1999/xlink" width="460.8pt" height="345.6pt" viewBox="0 0 460.8 345.6" xmlns="http://www.w3.org/2000/svg" version="1.1">
 <metadata>
  <rdf:RDF xmlns:dc="http://purl.org/dc/elements/1.1/" xmlns:cc="http://creativecommons.org/ns#" xmlns:rdf="http://www.w3.org/1999/02/22-rdf-syntax-ns#">
   <cc:Work>
    <dc:type rdf:resource="http://purl.org/dc/dcmitype/StillImage"/>
    <dc:date>2025-12-06T22:02:08.623908</dc:date>
    <dc:format>image/svg+xml</dc:format>
    <dc:creator>
     <cc:Agent>
      <dc:title>Matplotlib v3.9.1, https://matplotlib.org/</dc:title>
     </cc:Agent>
    </dc:creator>
   </cc:Work>
  </rdf:RDF>
 </metadata>
 <defs>
  <style type="text/css">*{stroke-linejoin: round; stroke-linecap: butt}</style>
 </defs>
 <g id="figure_1">
  <g id="patch_1">
   <path d="M 0 345.6 
L 460.8 345.6 
L 460.8 0 
L 0 0 
L 0 345.6 
z
" style="fill: none"/>
  </g>
  <g id="axes_1">
   <g id="patch_2">
    <path d="M 10.8 334.8 
L 447 334.8 
L 447 22.673214 
L 10.8 22.673214 
L 10.8 334.8 
z
" style="fill: none"/>
   </g>
   <g id="matplotlib.axis_1">
    <g id="text_1">
     <!-- $x$ -->
     <g transform="translate(432.587145 200.724709) scale(0.26 -0.26)">
      <defs>
       <path id="CMMI12-78" d="M 3034 2606 
C 2829 2567 2752 2414 2752 2293 
C 2752 2139 2874 2088 2963 2088 
C 3155 2088 3290 2254 3290 2427 
C 3290 2695 2982 2816 2714 2816 
C 2323 2816 2106 2433 2048 2312 
C 1901 2816 1504 2816 1389 2816 
C 736 2816 390 1980 390 1839 
C 390 1814 416 1782 461 1782 
C 512 1782 525 1820 538 1846 
C 755 2555 1184 2689 1370 2689 
C 1658 2689 1715 2420 1715 2267 
C 1715 2127 1677 1980 1600 1673 
L 1382 798 
C 1286 415 1101 64 762 64 
C 730 64 570 64 435 147 
C 666 192 717 383 717 460 
C 717 588 621 664 499 664 
C 346 664 179 530 179 326 
C 179 57 480 -64 755 -64 
C 1062 -64 1280 179 1414 441 
C 1517 64 1837 -64 2074 -64 
C 2726 -64 3072 773 3072 913 
C 3072 945 3046 971 3008 971 
C 2950 971 2944 939 2925 888 
C 2752 326 2381 64 2093 64 
C 1869 64 1747 230 1747 492 
C 1747 632 1773 734 1875 1156 
L 2099 2024 
C 2195 2408 2413 2689 2707 2689 
C 2720 2689 2899 2689 3034 2606 
z
" transform="scale(0.015625)"/>
      </defs>
      <use xlink:href="#CMMI12-78" transform="scale(0.996264)"/>
     </g>
    </g>
   </g>
   <g id="matplotlib.axis_2">
    <g id="text_2">
     <!-- $y$ -->
     <g transform="translate(212.53332 17.634888) scale(0.26 -0.26)">
      <defs>
       <path id="CMMI12-79" d="M 1683 -700 
C 1510 -939 1261 -1152 947 -1152 
C 870 -1152 563 -1152 467 -889 
C 486 -895 518 -895 531 -895 
C 723 -895 851 -729 851 -582 
C 851 -435 730 -384 634 -384 
C 531 -384 307 -458 307 -759 
C 307 -1071 582 -1286 947 -1286 
C 1587 -1286 2234 -700 2413 6 
L 3040 2485 
C 3046 2517 3059 2556 3059 2594 
C 3059 2689 2982 2753 2886 2753 
C 2829 2753 2694 2727 2643 2535 
L 2170 658 
C 2138 543 2138 530 2086 460 
C 1958 281 1747 64 1440 64 
C 1082 64 1050 415 1050 588 
C 1050 952 1222 1443 1395 1903 
C 1466 2088 1504 2178 1504 2305 
C 1504 2574 1312 2816 998 2816 
C 410 2816 173 1890 173 1839 
C 173 1814 198 1782 243 1782 
C 301 1782 307 1807 333 1897 
C 486 2433 730 2689 979 2689 
C 1037 2689 1146 2689 1146 2478 
C 1146 2312 1075 2127 979 1884 
C 666 1047 666 837 666 683 
C 666 77 1101 -64 1421 -64 
C 1606 -64 1837 -6 2061 230 
L 2067 224 
C 1971 -147 1907 -392 1683 -700 
z
" transform="scale(0.015625)"/>
      </defs>
      <use xlink:href="#CMMI12-79" transform="scale(0.996264)"/>
     </g>
    </g>
   </g>
   <g id="line2d_1">
    <defs>
     <path id="m58c538edad" d="M 3 0 
L -3 -3 
L -3 3 
z
" style="stroke: #000000; stroke-linejoin: miter"/>
    </defs>
    <g>
     <use xlink:href="#m58c538edad" x="447" y="178.736607" style="stroke: #000000; stroke-linejoin: miter"/>
    </g>
   </g>
   <g id="line2d_2">
    <defs>
     <path id="m09f8b306a7" d="M 0 -3 
L -3 3 
L 3 3 
z
" style="stroke: #000000; stroke-linejoin: miter"/>
    </defs>
    <g>
     <use xlink:href="#m09f8b306a7" x="228.9" y="22.673214" style="stroke: #000000; stroke-linejoin: miter"/>
    </g>
   </g>
   <g id="line2d_3">
    <path d="M 10.8 178.736335 
L 61.50359 178.624271 
L 73.753407 178.375465 
L 81.955458 177.996725 
L 88.346667 177.489343 
L 93.779194 176.841717 
L 98.572601 176.050081 
L 102.939927 175.104625 
L 106.987692 174.001839 
L 110.822418 172.727935 
L 114.550623 171.254103 
L 118.172308 169.58597 
L 121.900513 167.618998 
L 125.735238 165.336583 
L 129.783004 162.666005 
L 134.57641 159.225458 
L 148.530549 149.010678 
L 151.619634 147.149126 
L 154.176117 145.856837 
L 156.51956 144.921016 
L 158.649963 144.314961 
L 160.567326 143.996962 
L 162.378168 143.916494 
L 164.082491 144.053292 
L 165.786813 144.411536 
L 167.491136 145.00517 
L 169.195458 145.846801 
L 170.89978 146.947449 
L 172.604103 148.3163 
L 174.414945 150.072488 
L 176.225788 152.145125 
L 178.14315 154.687282 
L 180.167033 157.75698 
L 182.297436 161.408964 
L 184.534359 165.690997 
L 186.984322 170.874811 
L 189.647326 177.0395 
L 192.73641 184.778135 
L 196.571136 195.037011 
L 209.033993 228.926073 
L 211.803516 235.554897 
L 214.25348 240.859019 
L 216.383883 244.961813 
L 218.301245 248.196706 
L 220.112088 250.817393 
L 221.70989 252.756089 
L 223.201172 254.234221 
L 224.585934 255.310464 
L 225.864176 256.04448 
L 227.142418 256.525276 
L 228.314139 256.74128 
L 229.485861 256.74128 
L 230.657582 256.525276 
L 231.829304 256.094264 
L 233.107546 255.381215 
L 234.385788 254.418577 
L 235.770549 253.100196 
L 237.261832 251.369442 
L 238.859634 249.17147 
L 240.670476 246.273772 
L 242.587839 242.768061 
L 244.718242 238.394999 
L 247.168205 232.824199 
L 249.937729 225.955526 
L 253.452894 216.608993 
L 260.802784 196.207925 
L 265.17011 184.502274 
L 268.472234 176.272966 
L 271.241758 169.938048 
L 273.798242 164.63115 
L 276.141685 160.268823 
L 278.272088 156.74505 
L 280.295971 153.800163 
L 282.213333 151.377246 
L 284.130696 149.311281 
L 285.941538 147.68392 
L 287.645861 146.433411 
L 289.350183 145.447327 
L 291.054505 144.71565 
L 292.758828 144.226635 
L 294.46315 143.967059 
L 296.273993 143.926477 
L 298.084835 144.110061 
L 300.002198 144.527165 
L 302.132601 145.230855 
L 304.369524 146.206865 
L 306.926007 147.571564 
L 309.908571 149.428739 
L 313.636777 152.030671 
L 319.814945 156.664514 
L 326.738755 161.773969 
L 331.212601 164.79545 
L 335.153846 167.195378 
L 338.882051 169.212878 
L 342.610256 170.976948 
L 346.338462 172.492263 
L 350.173187 173.805693 
L 354.114432 174.918844 
L 358.268718 175.86234 
L 362.849084 176.669335 
L 367.855531 177.322607 
L 373.607619 177.845068 
L 380.531429 178.242342 
L 389.479121 178.518378 
L 402.581099 178.67757 
L 429.743736 178.733996 
L 447 178.736335 
L 447 178.736335 
" clip-path="url(#pa7e7912d6e)" style="fill: none; stroke: #0072b2; stroke-width: 3.5; stroke-linecap: square"/>
   </g>
   <g id="patch_3">
    <path d="M 228.9 334.8 
L 228.9 22.673214 
" style="fill: none; stroke: #000000; stroke-width: 0.8; stroke-linejoin: miter; stroke-linecap: square"/>
   </g>
   <g id="patch_4">
    <path d="M 447 334.8 
L 447 22.673214 
" style="fill: none"/>
   </g>
   <g id="patch_5">
    <path d="M 10.8 178.736607 
L 447 178.736607 
" style="fill: none; stroke: #000000; stroke-width: 0.8; stroke-linejoin: miter; stroke-linecap: square"/>
   </g>
   <g id="patch_6">
    <path d="M 10.8 22.673214 
L 447 22.673214 
" style="fill: none"/>
   </g>
   <g id="legend_1">
    <g id="patch_7">
     <path d="M 326.586751 79.711541 
L 428.8 79.711541 
Q 434 79.711541 434 74.511541 
L 434 40.873214 
Q 434 35.673214 428.8 35.673214 
L 326.586751 35.673214 
Q 321.386751 35.673214 321.386751 40.873214 
L 321.386751 74.511541 
Q 321.386751 79.711541 326.586751 79.711541 
z
" style="fill: #ffffff; opacity: 0.8; stroke: #cccccc; stroke-linejoin: miter"/>
    </g>
    <g id="line2d_4">
     <path d="M 331.786751 55.173214 
L 357.786751 55.173214 
L 383.786751 55.173214 
" style="fill: none; stroke: #0072b2; stroke-width: 3.5; stroke-linecap: square"/>
    </g>
    <g id="text_3">
     <!-- $A$ -->
     <g transform="translate(404.586751 64.273214) scale(0.26 -0.26)">
      <defs>
       <path id="CMMI12-41" d="M 1088 691 
C 864 314 646 186 339 186 
C 269 180 218 180 218 58 
C 218 24 250 0 294 0 
C 410 0 698 0 813 0 
C 998 0 1203 0 1382 0 
C 1421 0 1498 0 1498 122 
C 1498 180 1446 186 1408 186 
C 1261 186 1139 236 1139 388 
C 1139 476 1178 546 1261 685 
L 1747 1479 
L 3379 1479 
C 3386 1423 3386 1373 3392 1316 
C 3411 1152 3488 495 3488 376 
C 3488 186 3162 186 3059 186 
C 2989 186 2918 186 2918 70 
C 2918 0 2976 0 3014 0 
C 3123 0 3251 0 3360 0 
L 3725 0 
C 4115 0 4397 0 4403 0 
C 4448 0 4518 0 4518 122 
C 4518 186 4461 186 4365 186 
C 4013 186 4006 244 3987 434 
L 3597 4404 
C 3584 4531 3558 4544 3488 4544 
C 3424 4544 3386 4531 3328 4435 
L 1088 691 
z
M 1856 1664 
L 3142 3819 
L 3360 1664 
L 1856 1664 
z
" transform="scale(0.015625)"/>
      </defs>
      <use xlink:href="#CMMI12-41" transform="scale(0.996264)"/>
     </g>
    </g>
   </g>
  </g>
 </g>
 <defs>
  <clipPath id="pa7e7912d6e">
   <rect x="10.8" y="22.673214" width="436.2" height="312.126786"/>
  </clipPath>
 </defs>
</svg>
