<?xml version="1.0" encoding="utf-8" standalone="no"?>
<!DOCTYPE svg PUBLIC "-//W3C//DTD SVG 1.1//EN"
  "http://www.w3.org/Graphics/SVG/1.1/DTD/svg11.dtd">
<svg xmlns:xlink="http://www.w3.org/1999/xlink" width="460.8pt" height="345.6pt" viewBox="0 0 460.8 345.6" xmlns="http://www.w3.org/2000/svg" version="1.1">
 <metadata>
  <rdf:RDF xmlns:dc="http://purl.org/dc/elements/1.1/" xmlns:cc="http://creativecommons.org/ns#" xmlns:rdf="http://www.w3.org/1999/02/22-rdf-syntax-ns#">
   <cc:Work>
    <dc:type rdf:resource="http://purl.org/dc/dcmitype/StillImage"/>
    <dc:date>2025-12-06T22:02:08.882801</dc:date>
    <dc:format>image/svg+xml</dc:format>
    <dc:creator>
     <cc:Agent>
      <dc:title>Matplotlib v3.9.1, https://matplotlib.org/</dc:title>
     </cc:Agent>
    </dc:creator>
   </cc:Work>
  </rdf:RDF>
 </metadata>
 <defs>
  <style type="text/css">*{stroke-linejoin: round; stroke-linecap: butt}</style>
 </defs>
 <g id="figure_1">
  <g id="patch_1">
   <path d="M 0 345.6 
L 460.8 345.6 
L 460.8 0 
L 0 0 
L 0 345.6 
z
" style="fill: none"/>
  </g>
  <g id="axes_1">
   <g id="patch_2">
    <path d="M 10.8 334.8 
L 447 334.8 
L 447 22.673214 
L 10.8 22.673214 
L 10.8 334.8 
z
" style="fill: none"/>
   </g>
   <g id="matplotlib.axis_1">
    <g id="text_1">
     <!-- $x$ -->
     <g transform="translate(432.587145 200.724709) scale(0.26 -0.26)">
      <defs>
       <path id="CMMI12-78" d="M 3034 2606 
C 2829 2567 2752 2414 2752 2293 
C 2752 2139 2874 2088 2963 2088 
C 3155 2088 3290 2254 3290 2427 
C 3290 2695 2982 2816 2714 2816 
C 2323 2816 2106 2433 2048 2312 
C 1901 2816 1504 2816 1389 2816 
C 736 2816 390 1980 390 1839 
C 390 1814 416 1782 461 1782 
C 512 1782 525 1820 538 1846 
C 755 2555 1184 2689 1370 2689 
C 1658 2689 1715 2420 1715 2267 
C 1715 2127 1677 1980 1600 1673 
L 1382 798 
C 1286 415 1101 64 762 64 
C 730 64 570 64 435 147 
C 666 192 717 383 717 460 
C 717 588 621 664 499 664 
C 346 664 179 530 179 326 
C 179 57 480 -64 755 -64 
C 1062 -64 1280 179 1414 441 
C 1517 64 1837 -64 2074 -64 
C 2726 -64 3072 773 3072 913 
C 3072 945 3046 971 3008 971 
C 2950 971 2944 939 2925 888 
C 2752 326 2381 64 2093 64 
C 1869 64 1747 230 1747 492 
C 1747 632 1773 734 1875 1156 
L 2099 2024 
C 2195 2408 2413 2689 2707 2689 
C 2720 2689 2899 2689 3034 2606 
z
" transform="scale(0.015625)"/>
      </defs>
      <use xlink:href="#CMMI12-78" transform="scale(0.996264)"/>
     </g>
    </g>
   </g>
   <g id="matplotlib.axis_2">
    <g id="text_2">
     <!-- $y$ -->
     <g transform="translate(212.53332 17.634888) scale(0.26 -0.26)">
      <defs>
       <path id="CMMI12-79" d="M 1683 -700 
C 1510 -939 1261 -1152 947 -1152 
C 870 -1152 563 -1152 467 -889 
C 486 -895 518 -895 531 -895 
C 723 -895 851 -729 851 -582 
C 851 -435 730 -384 634 -384 
C 531 -384 307 -458 307 -759 
C 307 -1071 582 -1286 947 -1286 
C 1587 -1286 2234 -700 2413 6 
L 3040 2485 
C 3046 2517 3059 2556 3059 2594 
C 3059 2689 2982 2753 2886 2753 
C 2829 2753 2694 2727 2643 2535 
L 2170 658 
C 2138 543 2138 530 2086 460 
C 1958 281 1747 64 1440 64 
C 1082 64 1050 415 1050 588 
C 1050 952 1222 1443 1395 1903 
C 1466 2088 1504 2178 1504 2305 
C 1504 2574 1312 2816 998 2816 
C 410 2816 173 1890 173 1839 
C 173 1814 198 1782 243 1782 
C 301 1782 307 1807 333 1897 
C 486 2433 730 2689 979 2689 
C 1037 2689 1146 2689 1146 2478 
C 1146 2312 1075 2127 979 1884 
C 666 1047 666 837 666 683 
C 666 77 1101 -64 1421 -64 
C 1606 -64 1837 -6 2061 230 
L 2067 224 
C 1971 -147 1907 -392 1683 -700 
z
" transform="scale(0.015625)"/>
      </defs>
      <use xlink:href="#CMMI12-79" transform="scale(0.996264)"/>
     </g>
    </g>
   </g>
   <g id="line2d_1">
    <defs>
     <path id="mdde120be63" d="M 3 0 
L -3 -3 
L -3 3 
z
" style="stroke: #000000; stroke-linejoin: miter"/>
    </defs>
    <g>
     <use xlink:href="#mdde120be63" x="447" y="178.736607" style="stroke: #000000; stroke-linejoin: miter"/>
    </g>
   </g>
   <g id="line2d_2">
    <defs>
     <path id="m314f36c06d" d="M 0 -3 
L -3 3 
L 3 3 
z
" style="stroke: #000000; stroke-linejoin: miter"/>
    </defs>
    <g>
     <use xlink:href="#m314f36c06d" x="228.9" y="22.673214" style="stroke: #000000; stroke-linejoin: miter"/>
    </g>
   </g>
   <g id="line2d_3">
    <path d="M 10.8 178.745046 
L 34.767033 178.881137 
L 44.779927 179.150835 
L 51.597216 179.546637 
L 56.923223 180.068752 
L 61.39707 180.723318 
L 65.338315 181.522761 
L 68.85348 182.461927 
L 72.049084 183.543387 
L 75.031648 184.785738 
L 77.801172 186.173073 
L 80.464176 187.748323 
L 83.127179 189.588111 
L 85.683663 191.628641 
L 88.240147 193.961466 
L 90.79663 196.607827 
L 93.353114 199.585872 
L 95.909597 202.909403 
L 98.572601 206.74745 
L 101.342125 211.146799 
L 104.218168 216.143774 
L 107.307253 221.964808 
L 110.822418 229.08548 
L 115.189744 238.47334 
L 125.202637 260.200893 
L 128.185201 266.01681 
L 130.635165 270.313487 
L 132.765568 273.599624 
L 134.57641 276.003756 
L 136.280733 277.896876 
L 137.772015 279.230561 
L 139.156777 280.178643 
L 140.435018 280.790991 
L 141.60674 281.120363 
L 142.778462 281.219615 
L 143.950183 281.081838 
L 145.121905 280.701311 
L 146.293626 280.0736 
L 147.465348 279.195655 
L 148.74359 277.950693 
L 150.128352 276.263967 
L 151.619634 274.057998 
L 153.217436 271.25552 
L 154.921758 267.783519 
L 156.732601 263.578509 
L 158.756484 258.301293 
L 161.099927 251.524477 
L 163.869451 242.778669 
L 167.704176 229.846372 
L 173.882344 209.010493 
L 176.545348 200.841888 
L 178.782271 194.685322 
L 180.699634 190.055213 
L 182.403956 186.52152 
L 183.895238 183.926451 
L 185.28 181.962416 
L 186.451722 180.652488 
L 187.623443 179.676433 
L 188.688645 179.085533 
L 189.647326 178.798583 
L 190.606007 178.745283 
L 191.564689 178.925925 
L 192.52337 179.339497 
L 193.588571 180.069334 
L 194.653773 181.078722 
L 195.825495 182.503387 
L 197.103736 184.419046 
L 198.488498 186.897586 
L 200.0863 190.239783 
L 201.897143 194.585806 
L 204.027546 200.33718 
L 206.584029 207.920294 
L 211.164396 222.368726 
L 214.786081 233.463166 
L 217.129524 239.979151 
L 219.153407 244.963214 
L 220.857729 248.589284 
L 222.349011 251.273063 
L 223.733773 253.318764 
L 225.012015 254.801583 
L 226.077216 255.727364 
L 227.142418 256.363622 
L 228.101099 256.684574 
L 229.05978 256.764953 
L 230.018462 256.604252 
L 230.977143 256.203483 
L 231.935824 255.565171 
L 233.001026 254.582279 
L 234.172747 253.177337 
L 235.450989 251.273063 
L 236.835751 248.796716 
L 238.433553 245.446873 
L 240.244396 241.083562 
L 242.374799 235.307186 
L 245.037802 227.369217 
L 254.944176 197.097233 
L 256.968059 191.962048 
L 258.778901 187.956507 
L 260.376703 184.954748 
L 261.761465 182.79692 
L 263.039707 181.19478 
L 264.211429 180.069334 
L 265.27663 179.339497 
L 266.235311 178.925925 
L 267.193993 178.745283 
L 268.152674 178.798583 
L 269.111355 179.085533 
L 270.070037 179.604551 
L 271.135238 180.449923 
L 272.30696 181.699853 
L 273.585201 183.434198 
L 274.969963 185.731024 
L 276.461245 188.662307 
L 278.165568 192.547253 
L 280.08293 197.524512 
L 282.213333 203.691046 
L 284.876337 212.1208 
L 288.817582 225.449814 
L 294.56967 244.855278 
L 297.445714 253.750933 
L 299.789158 260.312363 
L 301.91956 265.621195 
L 303.836923 269.796472 
L 305.541245 272.99077 
L 307.139048 275.522173 
L 308.63033 277.469063 
L 310.015092 278.912543 
L 311.293333 279.932652 
L 312.465055 280.605675 
L 313.636777 281.030855 
L 314.808498 281.212379 
L 315.98022 281.155742 
L 317.151941 280.867647 
L 318.323663 280.355894 
L 319.601905 279.552898 
L 320.986667 278.409103 
L 322.477949 276.87835 
L 324.075751 274.920192 
L 325.886593 272.340782 
L 327.910476 269.059575 
L 330.253919 264.81854 
L 333.023443 259.328715 
L 336.645128 251.627434 
L 349.001465 224.927112 
L 352.41011 218.298917 
L 355.499194 212.764964 
L 358.375238 208.057055 
L 361.144762 203.945179 
L 363.807766 200.38394 
L 366.364249 197.32062 
L 368.920733 194.592891 
L 371.477216 192.183573 
L 374.0337 190.072087 
L 376.696703 188.164702 
L 379.359707 186.52849 
L 382.129231 185.084759 
L 385.005275 183.831437 
L 388.094359 182.727363 
L 391.396484 181.782528 
L 395.018168 180.977323 
L 399.065934 180.305833 
L 403.752821 179.75789 
L 409.398388 179.330922 
L 416.535238 179.025458 
L 426.654652 178.833442 
L 444.869597 178.747667 
L 447 178.745046 
L 447 178.745046 
" clip-path="url(#p85ed3b1a24)" style="fill: none; stroke: #0072b2; stroke-width: 3.5; stroke-linecap: square"/>
   </g>
   <g id="patch_3">
    <path d="M 228.9 334.8 
L 228.9 22.673214 
" style="fill: none; stroke: #000000; stroke-width: 0.8; stroke-linejoin: miter; stroke-linecap: square"/>
   </g>
   <g id="patch_4">
    <path d="M 447 334.8 
L 447 22.673214 
" style="fill: none"/>
   </g>
   <g id="patch_5">
    <path d="M 10.8 178.736607 
L 447 178.736607 
" style="fill: none; stroke: #000000; stroke-width: 0.8; stroke-linejoin: miter; stroke-linecap: square"/>
   </g>
   <g id="patch_6">
    <path d="M 10.8 22.673214 
L 447 22.673214 
" style="fill: none"/>
   </g>
   <g id="legend_1">
    <g id="patch_7">
     <path d="M 324.541503 79.711541 
L 428.8 79.711541 
Q 434 79.711541 434 74.511541 
L 434 40.873214 
Q 434 35.673214 428.8 35.673214 
L 324.541503 35.673214 
Q 319.341503 35.673214 319.341503 40.873214 
L 319.341503 74.511541 
Q 319.341503 79.711541 324.541503 79.711541 
z
" style="fill: #ffffff; opacity: 0.8; stroke: #cccccc; stroke-linejoin: miter"/>
    </g>
    <g id="line2d_4">
     <path d="M 329.741503 55.173214 
L 355.741503 55.173214 
L 381.741503 55.173214 
" style="fill: none; stroke: #0072b2; stroke-width: 3.5; stroke-linecap: square"/>
    </g>
    <g id="text_3">
     <!-- $D$ -->
     <g transform="translate(402.541503 64.273214) scale(0.26 -0.26)">
      <defs>
       <path id="CMMI12-44" d="M 1005 472 
C 947 249 934 185 486 185 
C 365 185 301 185 301 70 
C 301 0 339 0 467 0 
L 2496 0 
C 3789 0 5050 1332 5050 2753 
C 5050 3671 4499 4352 3584 4352 
L 1530 4352 
C 1408 4352 1350 4352 1350 4231 
C 1350 4167 1408 4167 1504 4167 
C 1894 4167 1894 4116 1894 4046 
C 1894 4034 1894 3995 1869 3899 
L 1005 472 
z
M 2355 3931 
C 2413 4167 2438 4167 2688 4167 
L 3392 4167 
C 3994 4167 4544 3842 4544 2963 
C 4544 2644 4416 1536 3795 835 
C 3616 625 3130 185 2394 185 
L 1664 185 
C 1574 185 1562 185 1523 192 
C 1453 198 1446 211 1446 262 
C 1446 307 1459 345 1472 402 
L 2355 3931 
z
" transform="scale(0.015625)"/>
      </defs>
      <use xlink:href="#CMMI12-44" transform="scale(0.996264)"/>
     </g>
    </g>
   </g>
  </g>
 </g>
 <defs>
  <clipPath id="p85ed3b1a24">
   <rect x="10.8" y="22.673214" width="436.2" height="312.126786"/>
  </clipPath>
 </defs>
</svg>
