<?xml version="1.0" encoding="utf-8" standalone="no"?>
<!DOCTYPE svg PUBLIC "-//W3C//DTD SVG 1.1//EN"
  "http://www.w3.org/Graphics/SVG/1.1/DTD/svg11.dtd">
<svg xmlns:xlink="http://www.w3.org/1999/xlink" width="460.8pt" height="345.6pt" viewBox="0 0 460.8 345.6" xmlns="http://www.w3.org/2000/svg" version="1.1">
 <metadata>
  <rdf:RDF xmlns:dc="http://purl.org/dc/elements/1.1/" xmlns:cc="http://creativecommons.org/ns#" xmlns:rdf="http://www.w3.org/1999/02/22-rdf-syntax-ns#">
   <cc:Work>
    <dc:type rdf:resource="http://purl.org/dc/dcmitype/StillImage"/>
    <dc:date>2026-04-22T17:10:07.293174</dc:date>
    <dc:format>image/svg+xml</dc:format>
    <dc:creator>
     <cc:Agent>
      <dc:title>Matplotlib v3.10.8, https://matplotlib.org/</dc:title>
     </cc:Agent>
    </dc:creator>
   </cc:Work>
  </rdf:RDF>
 </metadata>
 <defs>
  <style type="text/css">*{stroke-linejoin: round; stroke-linecap: butt}</style>
 </defs>
 <g id="figure_1">
  <g id="patch_1">
   <path d="M 0 345.6 
L 460.8 345.6 
L 460.8 0 
L 0 0 
L 0 345.6 
z
" style="fill: none"/>
  </g>
  <g id="axes_1">
   <g id="patch_2">
    <path d="M 10.8 334.8 
L 447 334.8 
L 447 20.016315 
L 10.8 20.016315 
L 10.8 334.8 
z
" style="fill: none"/>
   </g>
   <g id="patch_3">
    <path d="M 87.276623 234.057508 
C 102.300207 234.057508 116.710486 228.088575 127.333763 217.465298 
C 137.957041 206.84202 143.925974 192.431741 143.925974 177.408158 
C 143.925974 162.384574 137.957041 147.974295 127.333763 137.351018 
C 116.710486 126.72774 102.300207 120.758807 87.276623 120.758807 
C 72.25304 120.758807 57.842761 126.72774 47.219483 137.351018 
C 36.596206 147.974295 30.627273 162.384574 30.627273 177.408158 
C 30.627273 192.431741 36.596206 206.84202 47.219483 217.465298 
C 57.842761 228.088575 72.25304 234.057508 87.276623 234.057508 
z
" clip-path="url(#pb71b740b7b)" style="fill: #0072b2; fill-opacity: 0.2; stroke: #0072b2; stroke-width: 2.5; stroke-linejoin: miter"/>
   </g>
   <g id="matplotlib.axis_1">
    <g id="xtick_1">
     <g id="line2d_1">
      <path d="M 30.627273 334.8 
L 30.627273 20.016315 
" clip-path="url(#pb71b740b7b)" style="fill: none; stroke-dasharray: 2.96,1.28; stroke-dashoffset: 0; stroke: #b0b0b0; stroke-opacity: 0.6; stroke-width: 0.8"/>
     </g>
     <g id="line2d_2">
      <defs>
       <path id="m68ce156316" d="M 0 0 
L 0 3.5 
" style="stroke: #000000; stroke-width: 0.8"/>
      </defs>
      <g>
       <use xlink:href="#m68ce156316" x="30.627273" y="177.408158" style="stroke: #000000; stroke-width: 0.8"/>
      </g>
     </g>
     <g id="text_1">
      <!-- $\mathdefault{−1}$ -->
      <g transform="translate(18.309481 198.245154) scale(0.2 -0.2)">
       <defs>
        <path id="CMSY10-0" d="M 4218 1472 
C 4326 1472 4442 1472 4442 1600 
C 4442 1728 4326 1728 4218 1728 
L 755 1728 
C 646 1728 531 1728 531 1600 
C 531 1472 646 1472 755 1472 
L 4218 1472 
z
" transform="scale(0.015625)"/>
        <path id="CMR17-31" d="M 1702 4058 
C 1702 4192 1696 4192 1606 4192 
C 1357 3916 979 3827 621 3827 
C 602 3827 570 3827 563 3808 
C 557 3795 557 3782 557 3648 
C 755 3648 1088 3686 1344 3839 
L 1344 461 
C 1344 236 1331 160 781 160 
L 589 160 
L 589 0 
C 896 0 1216 0 1523 0 
C 1830 0 2150 0 2458 0 
L 2458 160 
L 2266 160 
C 1715 160 1702 230 1702 458 
L 1702 4058 
z
" transform="scale(0.015625)"/>
       </defs>
       <use xlink:href="#CMSY10-0" transform="scale(0.996264)"/>
       <use xlink:href="#CMR17-31" transform="translate(77.487468 0) scale(0.996264)"/>
      </g>
     </g>
    </g>
    <g id="xtick_2">
     <g id="line2d_3">
      <path d="M 143.925974 334.8 
L 143.925974 20.016315 
" clip-path="url(#pb71b740b7b)" style="fill: none; stroke-dasharray: 2.96,1.28; stroke-dashoffset: 0; stroke: #b0b0b0; stroke-opacity: 0.6; stroke-width: 0.8"/>
     </g>
     <g id="line2d_4">
      <g>
       <use xlink:href="#m68ce156316" x="143.925974" y="177.408158" style="stroke: #000000; stroke-width: 0.8"/>
      </g>
     </g>
     <g id="text_2">
      <!-- $\mathdefault{1}$ -->
      <g transform="translate(139.356926 198.245154) scale(0.2 -0.2)">
       <use xlink:href="#CMR17-31" transform="scale(0.996264)"/>
      </g>
     </g>
    </g>
    <g id="xtick_3">
     <g id="line2d_5">
      <path d="M 200.575325 334.8 
L 200.575325 20.016315 
" clip-path="url(#pb71b740b7b)" style="fill: none; stroke-dasharray: 2.96,1.28; stroke-dashoffset: 0; stroke: #b0b0b0; stroke-opacity: 0.6; stroke-width: 0.8"/>
     </g>
     <g id="line2d_6">
      <g>
       <use xlink:href="#m68ce156316" x="200.575325" y="177.408158" style="stroke: #000000; stroke-width: 0.8"/>
      </g>
     </g>
     <g id="text_3">
      <!-- $\mathdefault{2}$ -->
      <g transform="translate(196.006277 198.245154) scale(0.2 -0.2)">
       <defs>
        <path id="CMR17-32" d="M 2669 989 
L 2554 989 
C 2490 536 2438 459 2413 420 
C 2381 369 1920 369 1830 369 
L 602 369 
C 832 619 1280 1072 1824 1597 
C 2214 1967 2669 2402 2669 3035 
C 2669 3790 2067 4224 1395 4224 
C 691 4224 262 3604 262 3030 
C 262 2780 448 2748 525 2748 
C 589 2748 781 2787 781 3010 
C 781 3207 614 3264 525 3264 
C 486 3264 448 3258 422 3245 
C 544 3790 915 4058 1306 4058 
C 1862 4058 2227 3617 2227 3035 
C 2227 2479 1901 2000 1536 1584 
L 262 146 
L 262 0 
L 2515 0 
L 2669 989 
z
" transform="scale(0.015625)"/>
       </defs>
       <use xlink:href="#CMR17-32" transform="scale(0.996264)"/>
      </g>
     </g>
    </g>
    <g id="xtick_4">
     <g id="line2d_7">
      <path d="M 257.224675 334.8 
L 257.224675 20.016315 
" clip-path="url(#pb71b740b7b)" style="fill: none; stroke-dasharray: 2.96,1.28; stroke-dashoffset: 0; stroke: #b0b0b0; stroke-opacity: 0.6; stroke-width: 0.8"/>
     </g>
     <g id="line2d_8">
      <g>
       <use xlink:href="#m68ce156316" x="257.224675" y="177.408158" style="stroke: #000000; stroke-width: 0.8"/>
      </g>
     </g>
     <g id="text_4">
      <!-- $\mathdefault{3}$ -->
      <g transform="translate(252.655628 198.245154) scale(0.2 -0.2)">
       <defs>
        <path id="CMR17-33" d="M 1414 2157 
C 1984 2157 2234 1662 2234 1090 
C 2234 320 1824 25 1453 25 
C 1114 25 563 194 390 693 
C 422 680 454 680 486 680 
C 640 680 755 782 755 948 
C 755 1133 614 1216 486 1216 
C 378 1216 211 1165 211 926 
C 211 335 787 -128 1466 -128 
C 2176 -128 2720 430 2720 1085 
C 2720 1707 2208 2157 1600 2227 
C 2086 2328 2554 2756 2554 3329 
C 2554 3820 2048 4179 1472 4179 
C 890 4179 378 3829 378 3329 
C 378 3110 544 3072 627 3072 
C 762 3072 877 3155 877 3321 
C 877 3486 762 3569 627 3569 
C 602 3569 570 3569 544 3557 
C 730 3959 1235 4032 1459 4032 
C 1683 4032 2106 3925 2106 3320 
C 2106 3143 2080 2828 1862 2550 
C 1670 2304 1453 2304 1242 2284 
C 1210 2284 1062 2269 1037 2269 
C 992 2263 966 2257 966 2208 
C 966 2163 973 2157 1101 2157 
L 1414 2157 
z
" transform="scale(0.015625)"/>
       </defs>
       <use xlink:href="#CMR17-33" transform="scale(0.996264)"/>
      </g>
     </g>
    </g>
    <g id="xtick_5">
     <g id="line2d_9">
      <path d="M 313.874026 334.8 
L 313.874026 20.016315 
" clip-path="url(#pb71b740b7b)" style="fill: none; stroke-dasharray: 2.96,1.28; stroke-dashoffset: 0; stroke: #b0b0b0; stroke-opacity: 0.6; stroke-width: 0.8"/>
     </g>
     <g id="line2d_10">
      <g>
       <use xlink:href="#m68ce156316" x="313.874026" y="177.408158" style="stroke: #000000; stroke-width: 0.8"/>
      </g>
     </g>
     <g id="text_5">
      <!-- $\mathdefault{4}$ -->
      <g transform="translate(309.304978 198.245154) scale(0.2 -0.2)">
       <defs>
        <path id="CMR17-34" d="M 2150 4122 
C 2150 4256 2144 4256 2029 4256 
L 128 1254 
L 128 1088 
L 1779 1088 
L 1779 457 
C 1779 224 1766 160 1318 160 
L 1197 160 
L 1197 0 
C 1402 0 1747 0 1965 0 
C 2182 0 2528 0 2733 0 
L 2733 160 
L 2611 160 
C 2163 160 2150 224 2150 457 
L 2150 1088 
L 2803 1088 
L 2803 1254 
L 2150 1254 
L 2150 4122 
z
M 1798 3703 
L 1798 1254 
L 256 1254 
L 1798 3703 
z
" transform="scale(0.015625)"/>
       </defs>
       <use xlink:href="#CMR17-34" transform="scale(0.996264)"/>
      </g>
     </g>
    </g>
    <g id="xtick_6">
     <g id="line2d_11">
      <path d="M 370.523377 334.8 
L 370.523377 20.016315 
" clip-path="url(#pb71b740b7b)" style="fill: none; stroke-dasharray: 2.96,1.28; stroke-dashoffset: 0; stroke: #b0b0b0; stroke-opacity: 0.6; stroke-width: 0.8"/>
     </g>
     <g id="line2d_12">
      <g>
       <use xlink:href="#m68ce156316" x="370.523377" y="177.408158" style="stroke: #000000; stroke-width: 0.8"/>
      </g>
     </g>
     <g id="text_6">
      <!-- $\mathdefault{5}$ -->
      <g transform="translate(365.954329 198.245154) scale(0.2 -0.2)">
       <defs>
        <path id="CMR17-35" d="M 730 3692 
C 794 3666 1056 3584 1325 3584 
C 1920 3584 2246 3911 2432 4100 
C 2432 4157 2432 4192 2394 4192 
C 2387 4192 2374 4192 2323 4163 
C 2099 4058 1837 3973 1517 3973 
C 1325 3973 1037 3999 723 4139 
C 653 4171 640 4171 634 4171 
C 602 4171 595 4164 595 4037 
L 595 2203 
C 595 2089 595 2057 659 2057 
C 691 2057 704 2070 736 2114 
C 941 2401 1222 2522 1542 2522 
C 1766 2522 2246 2382 2246 1289 
C 2246 1085 2246 715 2054 421 
C 1894 159 1645 25 1370 25 
C 947 25 518 320 403 814 
C 429 807 480 795 506 795 
C 589 795 749 840 749 1038 
C 749 1210 627 1280 506 1280 
C 358 1280 262 1190 262 1011 
C 262 454 704 -128 1382 -128 
C 2042 -128 2669 440 2669 1264 
C 2669 2030 2170 2624 1549 2624 
C 1222 2624 947 2503 730 2274 
L 730 3692 
z
" transform="scale(0.015625)"/>
       </defs>
       <use xlink:href="#CMR17-35" transform="scale(0.996264)"/>
      </g>
     </g>
    </g>
    <g id="xtick_7">
     <g id="line2d_13">
      <path d="M 427.172727 334.8 
L 427.172727 20.016315 
" clip-path="url(#pb71b740b7b)" style="fill: none; stroke-dasharray: 2.96,1.28; stroke-dashoffset: 0; stroke: #b0b0b0; stroke-opacity: 0.6; stroke-width: 0.8"/>
     </g>
     <g id="line2d_14">
      <g>
       <use xlink:href="#m68ce156316" x="427.172727" y="177.408158" style="stroke: #000000; stroke-width: 0.8"/>
      </g>
     </g>
     <g id="text_7">
      <!-- $\mathdefault{6}$ -->
      <g transform="translate(422.60368 198.245154) scale(0.2 -0.2)">
       <defs>
        <path id="CMR17-36" d="M 678 2176 
C 678 3690 1395 4032 1811 4032 
C 1946 4032 2272 4009 2400 3776 
C 2298 3776 2106 3776 2106 3553 
C 2106 3381 2246 3323 2336 3323 
C 2394 3323 2566 3348 2566 3560 
C 2566 3954 2246 4179 1805 4179 
C 1043 4179 243 3390 243 1984 
C 243 253 966 -128 1478 -128 
C 2099 -128 2688 427 2688 1283 
C 2688 2081 2170 2662 1517 2662 
C 1126 2662 838 2407 678 1960 
L 678 2176 
z
M 1478 25 
C 691 25 691 1200 691 1436 
C 691 1896 909 2560 1504 2560 
C 1613 2560 1926 2560 2138 2120 
C 2253 1870 2253 1609 2253 1289 
C 2253 944 2253 690 2118 434 
C 1978 171 1773 25 1478 25 
z
" transform="scale(0.015625)"/>
       </defs>
       <use xlink:href="#CMR17-36" transform="scale(0.996264)"/>
      </g>
     </g>
    </g>
    <g id="text_8">
     <!-- $x$ -->
     <g transform="translate(435.913188 219.957785) scale(0.2 -0.2)">
      <defs>
       <path id="CMMI12-78" d="M 3034 2606 
C 2829 2567 2752 2414 2752 2293 
C 2752 2139 2874 2088 2963 2088 
C 3155 2088 3290 2254 3290 2427 
C 3290 2695 2982 2816 2714 2816 
C 2323 2816 2106 2433 2048 2312 
C 1901 2816 1504 2816 1389 2816 
C 736 2816 390 1980 390 1839 
C 390 1814 416 1782 461 1782 
C 512 1782 525 1820 538 1846 
C 755 2555 1184 2689 1370 2689 
C 1658 2689 1715 2420 1715 2267 
C 1715 2127 1677 1980 1600 1673 
L 1382 798 
C 1286 415 1101 64 762 64 
C 730 64 570 64 435 147 
C 666 192 717 383 717 460 
C 717 588 621 664 499 664 
C 346 664 179 530 179 326 
C 179 57 480 -64 755 -64 
C 1062 -64 1280 179 1414 441 
C 1517 64 1837 -64 2074 -64 
C 2726 -64 3072 773 3072 913 
C 3072 945 3046 971 3008 971 
C 2950 971 2944 939 2925 888 
C 2752 326 2381 64 2093 64 
C 1869 64 1747 230 1747 492 
C 1747 632 1773 734 1875 1156 
L 2099 2024 
C 2195 2408 2413 2689 2707 2689 
C 2720 2689 2899 2689 3034 2606 
z
" transform="scale(0.015625)"/>
      </defs>
      <use xlink:href="#CMMI12-78" transform="scale(0.996264)"/>
     </g>
    </g>
   </g>
   <g id="matplotlib.axis_2">
    <g id="ytick_1">
     <g id="line2d_15">
      <path d="M 10.8 234.057508 
L 447 234.057508 
" clip-path="url(#pb71b740b7b)" style="fill: none; stroke-dasharray: 2.96,1.28; stroke-dashoffset: 0; stroke: #b0b0b0; stroke-opacity: 0.6; stroke-width: 0.8"/>
     </g>
     <g id="line2d_16">
      <defs>
       <path id="m2343b36a09" d="M 0 0 
L -3.5 0 
" style="stroke: #000000; stroke-width: 0.8"/>
      </defs>
      <g>
       <use xlink:href="#m2343b36a09" x="87.276623" y="234.057508" style="stroke: #000000; stroke-width: 0.8"/>
      </g>
     </g>
     <g id="text_9">
      <!-- $\mathdefault{−1}$ -->
      <g transform="translate(55.641041 240.976007) scale(0.2 -0.2)">
       <use xlink:href="#CMSY10-0" transform="scale(0.996264)"/>
       <use xlink:href="#CMR17-31" transform="translate(77.487468 0) scale(0.996264)"/>
      </g>
     </g>
    </g>
    <g id="ytick_2">
     <g id="line2d_17">
      <path d="M 10.8 120.758807 
L 447 120.758807 
" clip-path="url(#pb71b740b7b)" style="fill: none; stroke-dasharray: 2.96,1.28; stroke-dashoffset: 0; stroke: #b0b0b0; stroke-opacity: 0.6; stroke-width: 0.8"/>
     </g>
     <g id="line2d_18">
      <g>
       <use xlink:href="#m2343b36a09" x="87.276623" y="120.758807" style="stroke: #000000; stroke-width: 0.8"/>
      </g>
     </g>
     <g id="text_10">
      <!-- $\mathdefault{1}$ -->
      <g transform="translate(71.138528 127.677305) scale(0.2 -0.2)">
       <use xlink:href="#CMR17-31" transform="scale(0.996264)"/>
      </g>
     </g>
    </g>
    <g id="text_11">
     <!-- $y$ -->
     <g transform="translate(42.128206 16.140682) scale(0.2 -0.2)">
      <defs>
       <path id="CMMI12-79" d="M 1683 -700 
C 1510 -939 1261 -1152 947 -1152 
C 870 -1152 563 -1152 467 -889 
C 486 -895 518 -895 531 -895 
C 723 -895 851 -729 851 -582 
C 851 -435 730 -384 634 -384 
C 531 -384 307 -458 307 -759 
C 307 -1071 582 -1286 947 -1286 
C 1587 -1286 2234 -700 2413 6 
L 3040 2485 
C 3046 2517 3059 2556 3059 2594 
C 3059 2689 2982 2753 2886 2753 
C 2829 2753 2694 2727 2643 2535 
L 2170 658 
C 2138 543 2138 530 2086 460 
C 1958 281 1747 64 1440 64 
C 1082 64 1050 415 1050 588 
C 1050 952 1222 1443 1395 1903 
C 1466 2088 1504 2178 1504 2305 
C 1504 2574 1312 2816 998 2816 
C 410 2816 173 1890 173 1839 
C 173 1814 198 1782 243 1782 
C 301 1782 307 1807 333 1897 
C 486 2433 730 2689 979 2689 
C 1037 2689 1146 2689 1146 2478 
C 1146 2312 1075 2127 979 1884 
C 666 1047 666 837 666 683 
C 666 77 1101 -64 1421 -64 
C 1606 -64 1837 -6 2061 230 
L 2067 224 
C 1971 -147 1907 -392 1683 -700 
z
" transform="scale(0.015625)"/>
      </defs>
      <use xlink:href="#CMMI12-79" transform="scale(0.996264)"/>
     </g>
    </g>
   </g>
   <g id="line2d_19">
    <defs>
     <path id="md5e7030bcf" d="M 3 0 
L -3 -3 
L -3 3 
z
" style="stroke: #000000; stroke-linejoin: miter"/>
    </defs>
    <g>
     <use xlink:href="#md5e7030bcf" x="447" y="177.408158" style="stroke: #000000; stroke-linejoin: miter"/>
    </g>
   </g>
   <g id="line2d_20">
    <defs>
     <path id="mc2b7f5da4d" d="M 0 -3 
L -3 3 
L 3 3 
z
" style="stroke: #000000; stroke-linejoin: miter"/>
    </defs>
    <g>
     <use xlink:href="#mc2b7f5da4d" x="87.276623" y="20.016315" style="stroke: #000000; stroke-linejoin: miter"/>
    </g>
   </g>
   <g id="line2d_21">
    <path d="M 342.198701 177.408158 
L 342.096146 175.182264 
L 341.788728 172.961743 
L 341.27719 170.751956 
L 340.562766 168.558234 
L 339.518693 166.116094 
L 338.223228 163.708449 
L 336.680328 161.342653 
L 334.894708 159.025935 
L 332.871821 156.76537 
L 330.617847 154.567866 
L 328.139671 152.440133 
L 325.13242 150.165716 
L 321.86908 147.994034 
L 318.361958 145.933276 
L 314.624278 143.991214 
L 310.670137 142.175172 
L 306.088389 140.331238 
L 301.283687 138.656477 
L 296.277953 137.158531 
L 291.094029 135.844235 
L 285.755566 134.719585 
L 280.286924 133.789714 
L 274.713053 133.058864 
L 269.059388 132.530369 
L 263.351723 132.206641 
L 257.616102 132.089158 
L 251.878695 132.178455 
L 246.16568 132.474124 
L 240.503125 132.974817 
L 234.916867 133.67825 
L 229.432394 134.581211 
L 224.074731 135.679583 
L 218.868323 136.968352 
L 213.836927 138.441639 
L 209.003499 140.092721 
L 204.390093 141.914065 
L 200.017759 143.89736 
L 196.268915 145.833291 
L 192.749943 147.888295 
L 189.474114 150.054622 
L 186.453781 152.324103 
L 183.700335 154.68818 
L 181.459025 156.889366 
L 179.449164 159.153233 
L 177.676891 161.472865 
L 176.147621 163.841176 
L 174.866026 166.250932 
L 173.83602 168.694771 
L 173.060749 171.165227 
L 172.587404 173.377435 
L 172.318356 175.599372 
L 172.254256 177.825675 
L 172.395256 180.05097 
L 172.741018 182.269886 
L 173.290706 184.477066 
L 174.042994 186.667184 
L 175.129208 189.104091 
L 176.466208 191.505269 
L 178.049908 193.863383 
L 179.875472 196.171229 
L 181.937322 198.421758 
L 184.22916 200.608095 
L 186.743985 202.723561 
L 189.790396 204.983105 
L 193.091111 207.138661 
L 196.633682 209.182099 
L 200.40475 211.105714 
L 204.390093 212.90225 
L 209.003499 214.723594 
L 213.836927 216.374676 
L 218.868323 217.847963 
L 224.074731 219.136732 
L 229.432394 220.235104 
L 234.916867 221.138066 
L 240.503125 221.841498 
L 246.16568 222.342191 
L 251.878695 222.637861 
L 257.616102 222.727157 
L 263.351723 222.609674 
L 269.059388 222.285946 
L 274.713053 221.757451 
L 280.286924 221.026601 
L 285.755566 220.09673 
L 291.094029 218.97208 
L 296.277953 217.657784 
L 301.283687 216.159838 
L 306.088389 214.485077 
L 310.670137 212.641143 
L 314.624278 210.825101 
L 318.361958 208.883039 
L 321.86908 206.822281 
L 325.13242 204.650599 
L 328.139671 202.376182 
L 330.879492 200.007607 
L 333.108117 197.80276 
L 335.104933 195.535612 
L 336.86384 193.213088 
L 338.379466 190.842283 
L 339.64718 188.43044 
L 340.66311 185.984926 
L 341.424152 183.513211 
L 341.884757 181.300239 
L 342.141009 179.077872 
L 342.198701 177.408158 
L 342.198701 177.408158 
" clip-path="url(#pb71b740b7b)" style="fill: none; stroke-dasharray: 9.25,4; stroke-dashoffset: 0; stroke: #6a3d9a; stroke-width: 2.5"/>
   </g>
   <g id="line2d_22">
    <path d="M 427.172727 177.408158 
L 427.065911 170.466928 
L 426.745866 163.630305 
L 426.213797 157.001318 
L 425.471713 150.679869 
L 424.626571 145.332366 
L 423.616153 140.376504 
L 422.58174 136.349117 
L 421.421668 132.717923 
L 420.30572 129.893278 
L 419.097767 127.419728 
L 417.990837 125.592915 
L 416.819452 124.047442 
L 415.585203 122.791701 
L 414.289765 121.83251 
L 413.164759 121.263522 
L 411.999541 120.906262 
L 410.795211 120.762079 
L 409.552905 120.831516 
L 408.273794 121.114311 
L 406.959084 121.609397 
L 405.336189 122.481041 
L 403.666022 123.650922 
L 401.950852 125.112688 
L 399.896051 127.176315 
L 397.786964 129.611116 
L 395.315113 132.825043 
L 392.783419 136.469168 
L 389.871347 141.039098 
L 386.566785 146.635 
L 382.522561 153.954318 
L 377.723517 163.124664 
L 370.088461 178.277963 
L 361.429577 195.359887 
L 356.661168 204.289707 
L 352.65417 211.322021 
L 349.388212 216.626407 
L 346.516651 220.897123 
L 344.025451 224.249019 
L 341.598211 227.148931 
L 339.531454 229.293475 
L 337.521974 231.054629 
L 335.84797 232.249098 
L 334.221051 233.145798 
L 332.643426 233.739861 
L 331.367942 234.001355 
L 330.129381 234.049428 
L 328.928912 233.883899 
L 327.767667 233.505393 
L 326.646741 232.915337 
L 325.56719 232.115956 
L 324.327777 230.884689 
L 323.151091 229.363061 
L 322.038732 227.559335 
L 320.82429 225.111595 
L 319.7017 222.311365 
L 318.673035 219.179337 
L 317.614862 215.223386 
L 316.684398 210.902542 
L 315.793065 205.657469 
L 315.068923 200.067476 
L 314.46308 193.534969 
L 314.068648 186.759427 
L 313.887115 179.842958 
L 313.919164 172.889796 
L 314.164675 166.004727 
L 314.622723 159.291511 
L 315.29158 152.851319 
L 316.071724 147.368907 
L 317.018207 142.25327 
L 317.996841 138.064556 
L 319.102264 134.255482 
L 320.331808 130.862805 
L 321.50715 128.261628 
L 322.773081 126.023605 
L 323.928498 124.406949 
L 325.147185 123.078074 
L 326.427487 122.044194 
L 327.540222 121.412069 
L 328.693489 120.991113 
L 329.886203 120.782913 
L 331.117238 120.788255 
L 332.385433 121.007118 
L 333.689592 121.438676 
L 335.300322 122.234958 
L 336.95888 123.330812 
L 338.663016 124.720289 
L 340.705687 126.702301 
L 342.803466 129.058987 
L 345.263428 132.188669 
L 347.784363 135.75469 
L 350.685714 140.245028 
L 353.98012 145.763904 
L 357.675538 152.38205 
L 362.461333 161.448191 
L 369.044817 174.452046 
L 379.788845 195.68955 
L 384.554199 204.595465 
L 388.557586 211.600077 
L 391.819849 216.876741 
L 394.687563 221.119267 
L 397.174941 224.443818 
L 399.597987 227.314505 
L 401.660778 229.432157 
L 403.666022 231.165393 
L 405.336189 232.335274 
L 406.959084 233.206918 
L 408.532503 233.775592 
L 409.804349 234.015775 
L 411.039152 234.042483 
L 412.235749 233.855616 
L 413.393011 233.455877 
L 414.509847 232.844775 
L 415.585203 232.024614 
L 416.819452 230.768873 
L 417.990837 229.2234 
L 419.097767 227.396587 
L 420.30572 224.923038 
L 421.421668 222.098392 
L 422.443548 218.943521 
L 423.493812 214.963608 
L 424.416216 210.621308 
L 425.298327 205.35535 
L 426.013112 199.748161 
L 426.608432 193.201128 
L 426.992247 186.41609 
L 427.163111 179.4953 
L 427.172727 177.408158 
L 427.172727 177.408158 
" clip-path="url(#pb71b740b7b)" style="fill: none; stroke: #045c41; stroke-width: 2.5; stroke-linecap: square"/>
   </g>
   <g id="patch_4">
    <path d="M 87.276623 334.8 
L 87.276623 20.016315 
" style="fill: none; stroke: #000000; stroke-width: 0.8; stroke-linejoin: miter; stroke-linecap: square"/>
   </g>
   <g id="patch_5">
    <path d="M 447 334.8 
L 447 20.016315 
" style="fill: none"/>
   </g>
   <g id="patch_6">
    <path d="M 10.8 177.408158 
L 447 177.408158 
" style="fill: none; stroke: #000000; stroke-width: 0.8; stroke-linejoin: miter; stroke-linecap: square"/>
   </g>
   <g id="patch_7">
    <path d="M 10.8 20.016315 
L 447 20.016315 
" style="fill: none"/>
   </g>
  </g>
 </g>
 <defs>
  <clipPath id="pb71b740b7b">
   <rect x="10.8" y="20.016315" width="436.2" height="314.783685"/>
  </clipPath>
 </defs>
</svg>
