<?xml version="1.0" encoding="utf-8" standalone="no"?>
<!DOCTYPE svg PUBLIC "-//W3C//DTD SVG 1.1//EN"
  "http://www.w3.org/Graphics/SVG/1.1/DTD/svg11.dtd">
<svg xmlns:xlink="http://www.w3.org/1999/xlink" width="504pt" height="360pt" viewBox="0 0 504 360" xmlns="http://www.w3.org/2000/svg" version="1.1">
 <metadata>
  <rdf:RDF xmlns:dc="http://purl.org/dc/elements/1.1/" xmlns:cc="http://creativecommons.org/ns#" xmlns:rdf="http://www.w3.org/1999/02/22-rdf-syntax-ns#">
   <cc:Work>
    <dc:type rdf:resource="http://purl.org/dc/dcmitype/StillImage"/>
    <dc:date>2025-11-12T19:41:52.465634</dc:date>
    <dc:format>image/svg+xml</dc:format>
    <dc:creator>
     <cc:Agent>
      <dc:title>Matplotlib v3.9.1, https://matplotlib.org/</dc:title>
     </cc:Agent>
    </dc:creator>
   </cc:Work>
  </rdf:RDF>
 </metadata>
 <defs>
  <style type="text/css">*{stroke-linejoin: round; stroke-linecap: butt}</style>
 </defs>
 <g id="figure_1">
  <g id="patch_1">
   <path d="M 0 360 
L 504 360 
L 504 0 
L 0 0 
L 0 360 
z
" style="fill: none"/>
  </g>
  <g id="axes_1">
   <g id="line2d_1">
    <path d="M 74.014358 62.478536 
L 77.635242 76.994572 
L 81.144715 90.155572 
L 84.542775 102.046697 
L 87.829424 112.750404 
L 91.004661 122.346449 
L 94.068486 130.911882 
L 97.020899 138.521051 
L 99.889754 145.308625 
L 102.647196 151.269423 
L 105.293227 156.470357 
L 107.827846 160.975637 
L 110.278906 164.888785 
L 112.618555 168.21718 
L 114.874644 171.050321 
L 117.047174 173.429267 
L 119.136146 175.393557 
L 121.141559 176.981211 
L 123.091266 178.244834 
L 124.957414 179.195804 
L 126.795709 179.885376 
L 128.578298 180.319744 
L 130.333034 180.522003 
L 132.08777 180.500713 
L 133.842507 180.255873 
L 135.597243 179.787485 
L 137.379832 179.082762 
L 139.218127 178.114388 
L 141.112128 176.860059 
L 143.061835 175.296793 
L 145.067248 173.400936 
L 147.156219 171.1156 
L 149.32875 168.402767 
L 151.584839 165.222898 
L 153.924488 161.534932 
L 156.347695 157.296288 
L 158.882314 152.406599 
L 161.500492 146.865976 
L 164.230081 140.559689 
L 167.04323 133.494326 
L 169.96779 125.540005 
L 173.003762 116.625759 
L 176.123293 106.769104 
L 179.354236 95.815601 
L 182.696591 83.686847 
L 186.150357 70.301735 
L 188.072211 62.478536 
L 188.072211 62.478536 
" clip-path="url(#p47b9da6da8)" style="fill: none; stroke: #0072b2; stroke-linecap: square"/>
   </g>
   <g id="line2d_2">
    <path d="M 154.665439 180.540315 
L 158.286324 166.024279 
L 161.795796 152.863279 
L 165.193857 140.972154 
L 168.480505 130.268447 
L 171.655742 120.672402 
L 174.719567 112.106969 
L 177.671981 104.4978 
L 180.540835 97.710226 
L 183.298278 91.749428 
L 185.944309 86.548494 
L 188.478928 82.043214 
L 190.929988 78.130066 
L 193.269636 74.801671 
L 195.525725 71.96853 
L 197.698256 69.589584 
L 199.787228 67.625294 
L 201.79264 66.03764 
L 203.742347 64.774017 
L 205.608495 63.823047 
L 207.44679 63.133475 
L 209.229379 62.699107 
L 210.984116 62.496848 
L 212.738852 62.518138 
L 214.493588 62.762978 
L 216.248324 63.231366 
L 218.030913 63.936089 
L 219.869208 64.904463 
L 221.763209 66.158792 
L 223.712916 67.722058 
L 225.718329 69.617915 
L 227.807301 71.903251 
L 229.979831 74.616084 
L 232.235921 77.795953 
L 234.575569 81.483919 
L 236.998776 85.722563 
L 239.533395 90.612252 
L 242.151573 96.152875 
L 244.881163 102.459162 
L 247.694311 109.524525 
L 250.618871 117.478846 
L 253.654844 126.393092 
L 256.774375 136.249747 
L 260.005317 147.20325 
L 263.347672 159.332004 
L 266.801439 172.717116 
L 268.723293 180.540315 
L 268.723293 180.540315 
" clip-path="url(#p47b9da6da8)" style="fill: none; stroke: #0072b2; stroke-linecap: square"/>
   </g>
   <g id="line2d_3">
    <path d="M 235.316521 62.478536 
L 238.937405 76.994572 
L 242.446877 90.155572 
L 245.844938 102.046697 
L 249.131587 112.750404 
L 252.306824 122.346449 
L 255.370649 130.911882 
L 258.323062 138.521051 
L 261.191917 145.308625 
L 263.949359 151.269423 
L 266.59539 156.470357 
L 269.130009 160.975637 
L 271.581069 164.888785 
L 273.920717 168.21718 
L 276.176807 171.050321 
L 278.349337 173.429267 
L 280.438309 175.393557 
L 282.443722 176.981211 
L 284.393429 178.244834 
L 286.259577 179.195804 
L 288.097872 179.885376 
L 289.880461 180.319744 
L 291.635197 180.522003 
L 293.389933 180.500713 
L 295.144669 180.255873 
L 296.899406 179.787485 
L 298.681995 179.082762 
L 300.52029 178.114388 
L 302.414291 176.860059 
L 304.363998 175.296793 
L 306.369411 173.400936 
L 308.458382 171.1156 
L 310.630913 168.402767 
L 312.887002 165.222898 
L 315.22665 161.534932 
L 317.649858 157.296288 
L 320.184477 152.406599 
L 322.802654 146.865976 
L 325.532244 140.559689 
L 328.345393 133.494326 
L 331.269953 125.540005 
L 334.305925 116.625759 
L 337.425456 106.769104 
L 340.656399 95.815601 
L 343.998754 83.686847 
L 347.45252 70.301735 
L 349.374374 62.478536 
L 349.374374 62.478536 
" clip-path="url(#p47b9da6da8)" style="fill: none; stroke: #0072b2; stroke-linecap: square"/>
   </g>
   <g id="line2d_4">
    <path d="M 315.967602 180.540315 
L 319.588486 166.024279 
L 323.097959 152.863279 
L 326.496019 140.972154 
L 329.782668 130.268447 
L 332.957905 120.672402 
L 336.02173 112.106969 
L 338.974144 104.4978 
L 341.842998 97.710226 
L 344.600441 91.749428 
L 347.246471 86.548494 
L 349.78109 82.043214 
L 352.23215 78.130066 
L 354.571799 74.801671 
L 356.827888 71.96853 
L 359.000419 69.589584 
L 361.08939 67.625294 
L 363.094803 66.03764 
L 365.04451 64.774017 
L 366.910658 63.823047 
L 368.748953 63.133475 
L 370.531542 62.699107 
L 372.286278 62.496848 
L 374.041015 62.518138 
L 375.795751 62.762978 
L 377.550487 63.231366 
L 379.333076 63.936089 
L 381.171371 64.904463 
L 383.065372 66.158792 
L 385.015079 67.722058 
L 387.020492 69.617915 
L 389.109464 71.903251 
L 391.281994 74.616084 
L 393.538084 77.795953 
L 395.877732 81.483919 
L 398.300939 85.722563 
L 400.835558 90.612252 
L 403.453736 96.152875 
L 406.183325 102.459162 
L 408.996474 109.524525 
L 411.921034 117.478846 
L 414.957006 126.393092 
L 418.076537 136.249747 
L 421.30748 147.20325 
L 424.649835 159.332004 
L 428.103601 172.717116 
L 430.025455 180.540315 
L 430.025455 180.540315 
" clip-path="url(#p47b9da6da8)" style="fill: none; stroke: #0072b2; stroke-linecap: square"/>
   </g>
   <g id="line2d_5">
    <path d="M 74.014358 298.602095 
L 77.635242 284.086058 
L 81.144715 270.925058 
L 84.542775 259.033934 
L 87.829424 248.330226 
L 91.004661 238.734181 
L 94.068486 230.168748 
L 97.020899 222.55958 
L 99.889754 215.772006 
L 102.647196 209.811208 
L 105.293227 204.610273 
L 107.827846 200.104994 
L 110.278906 196.191845 
L 112.618555 192.86345 
L 114.874644 190.030309 
L 117.047174 187.651364 
L 119.136146 185.687073 
L 121.141559 184.099419 
L 123.091266 182.835796 
L 124.957414 181.884826 
L 126.795709 181.195255 
L 128.578298 180.760886 
L 130.333034 180.558627 
L 132.08777 180.579918 
L 133.842507 180.824757 
L 135.597243 181.293145 
L 137.379832 181.997868 
L 139.218127 182.966242 
L 141.112128 184.220572 
L 143.061835 185.783837 
L 145.067248 187.679694 
L 147.156219 189.96503 
L 149.32875 192.677863 
L 151.584839 195.857733 
L 153.924488 199.545699 
L 156.347695 203.784342 
L 158.882314 208.674031 
L 161.500492 214.214654 
L 164.230081 220.520942 
L 167.04323 227.586305 
L 169.96779 235.540625 
L 173.003762 244.454871 
L 176.123293 254.311526 
L 179.354236 265.265029 
L 182.696591 277.393784 
L 186.150357 290.778896 
L 188.072211 298.602095 
L 188.072211 298.602095 
" clip-path="url(#p47b9da6da8)" style="fill: none; stroke: #0072b2; stroke-linecap: square"/>
   </g>
   <g id="line2d_6">
    <path d="M 154.665439 180.540315 
L 158.286324 195.056352 
L 161.795796 208.217351 
L 165.193857 220.108476 
L 168.480505 230.812184 
L 171.655742 240.408228 
L 174.719567 248.973662 
L 177.671981 256.58283 
L 180.540835 263.370404 
L 183.298278 269.331202 
L 185.944309 274.532136 
L 188.478928 279.037416 
L 190.929988 282.950565 
L 193.269636 286.27896 
L 195.525725 289.1121 
L 197.698256 291.491046 
L 199.787228 293.455337 
L 201.79264 295.04299 
L 203.742347 296.306613 
L 205.608495 297.257583 
L 207.44679 297.947155 
L 209.229379 298.381524 
L 210.984116 298.583782 
L 212.738852 298.562492 
L 214.493588 298.317653 
L 216.248324 297.849264 
L 218.030913 297.144542 
L 219.869208 296.176168 
L 221.763209 294.921838 
L 223.712916 293.358572 
L 225.718329 291.462715 
L 227.807301 289.177379 
L 229.979831 286.464546 
L 232.235921 283.284677 
L 234.575569 279.596711 
L 236.998776 275.358068 
L 239.533395 270.468378 
L 242.151573 264.927756 
L 244.881163 258.621468 
L 247.694311 251.556105 
L 250.618871 243.601785 
L 253.654844 234.687539 
L 256.774375 224.830884 
L 260.005317 213.87738 
L 263.347672 201.748626 
L 266.801439 188.363514 
L 268.723293 180.540315 
L 268.723293 180.540315 
" clip-path="url(#p47b9da6da8)" style="fill: none; stroke: #0072b2; stroke-linecap: square"/>
   </g>
   <g id="line2d_7">
    <path d="M 235.316521 298.602095 
L 238.937405 284.086058 
L 242.446877 270.925058 
L 245.844938 259.033934 
L 249.131587 248.330226 
L 252.306824 238.734181 
L 255.370649 230.168748 
L 258.323062 222.55958 
L 261.191917 215.772006 
L 263.949359 209.811208 
L 266.59539 204.610273 
L 269.130009 200.104994 
L 271.581069 196.191845 
L 273.920717 192.86345 
L 276.176807 190.030309 
L 278.349337 187.651364 
L 280.438309 185.687073 
L 282.443722 184.099419 
L 284.393429 182.835796 
L 286.259577 181.884826 
L 288.097872 181.195255 
L 289.880461 180.760886 
L 291.635197 180.558627 
L 293.389933 180.579918 
L 295.144669 180.824757 
L 296.899406 181.293145 
L 298.681995 181.997868 
L 300.52029 182.966242 
L 302.414291 184.220572 
L 304.363998 185.783837 
L 306.369411 187.679694 
L 308.458382 189.96503 
L 310.630913 192.677863 
L 312.887002 195.857733 
L 315.22665 199.545699 
L 317.649858 203.784342 
L 320.184477 208.674031 
L 322.802654 214.214654 
L 325.532244 220.520942 
L 328.345393 227.586305 
L 331.269953 235.540625 
L 334.305925 244.454871 
L 337.425456 254.311526 
L 340.656399 265.265029 
L 343.998754 277.393784 
L 347.45252 290.778896 
L 349.374374 298.602095 
L 349.374374 298.602095 
" clip-path="url(#p47b9da6da8)" style="fill: none; stroke: #0072b2; stroke-linecap: square"/>
   </g>
   <g id="line2d_8">
    <path d="M 315.967602 180.540315 
L 319.588486 195.056352 
L 323.097959 208.217351 
L 326.496019 220.108476 
L 329.782668 230.812184 
L 332.957905 240.408228 
L 336.02173 248.973662 
L 338.974144 256.58283 
L 341.842998 263.370404 
L 344.600441 269.331202 
L 347.246471 274.532136 
L 349.78109 279.037416 
L 352.23215 282.950565 
L 354.571799 286.27896 
L 356.827888 289.1121 
L 359.000419 291.491046 
L 361.08939 293.455337 
L 363.094803 295.04299 
L 365.04451 296.306613 
L 366.910658 297.257583 
L 368.748953 297.947155 
L 370.531542 298.381524 
L 372.286278 298.583782 
L 374.041015 298.562492 
L 375.795751 298.317653 
L 377.550487 297.849264 
L 379.333076 297.144542 
L 381.171371 296.176168 
L 383.065372 294.921838 
L 385.015079 293.358572 
L 387.020492 291.462715 
L 389.109464 289.177379 
L 391.281994 286.464546 
L 393.538084 283.284677 
L 395.877732 279.596711 
L 398.300939 275.358068 
L 400.835558 270.468378 
L 403.453736 264.927756 
L 406.183325 258.621468 
L 408.996474 251.556105 
L 411.921034 243.601785 
L 414.957006 234.687539 
L 418.076537 224.830884 
L 421.30748 213.87738 
L 424.649835 201.748626 
L 428.103601 188.363514 
L 430.025455 180.540315 
L 430.025455 180.540315 
" clip-path="url(#p47b9da6da8)" style="fill: none; stroke: #0072b2; stroke-linecap: square"/>
   </g>
   <g id="LineCollection_1">
    <path d="M 74.014358 298.602095 
L 74.014358 62.478536 
" clip-path="url(#p47b9da6da8)" style="fill: none; stroke: #0072b2"/>
   </g>
   <g id="LineCollection_2">
    <path d="M 430.025455 298.602095 
L 430.025455 62.478536 
" clip-path="url(#p47b9da6da8)" style="fill: none; stroke: #0072b2"/>
   </g>
   <g id="LineCollection_3">
    <path d="M 74.014358 298.602095 
L 430.025455 298.602095 
" clip-path="url(#p47b9da6da8)" style="fill: none; stroke: #0072b2"/>
   </g>
   <g id="LineCollection_4">
    <path d="M 74.014358 62.478536 
L 430.025455 62.478536 
" clip-path="url(#p47b9da6da8)" style="fill: none; stroke: #0072b2"/>
   </g>
   <g id="LineCollection_5">
    <path d="M 154.665439 180.540315 
L 268.723293 180.540315 
" clip-path="url(#p47b9da6da8)" style="fill: none; stroke: #0072b2"/>
   </g>
   <g id="LineCollection_6">
    <path d="M 315.967602 180.540315 
L 430.025455 180.540315 
" clip-path="url(#p47b9da6da8)" style="fill: none; stroke: #0072b2"/>
   </g>
   <g id="LineCollection_7">
    <path d="M 74.014358 121.509426 
L 430.025455 121.509426 
" clip-path="url(#p47b9da6da8)" style="fill: none; stroke-dasharray: 3.7,1.6; stroke-dashoffset: 0; stroke: #808080"/>
   </g>
   <g id="LineCollection_8">
    <path d="M 74.014358 180.540315 
L 430.025455 180.540315 
" clip-path="url(#p47b9da6da8)" style="fill: none; stroke-dasharray: 3.7,1.6; stroke-dashoffset: 0; stroke: #808080"/>
   </g>
   <g id="patch_2">
    <path d="M 186.070769 45.612567 
Q 131.042823 45.612567 76.014877 45.612567 
" style="fill: none; stroke: #000000; stroke-linecap: round"/>
    <path d="M 186.070769 50.612567 
L 186.070769 50.612567 
L 186.070769 40.612567 
L 186.070769 40.612567 
" style="fill: none; stroke: #000000; stroke-linecap: round"/>
    <path d="M 76.014877 40.612567 
L 76.014877 40.612567 
L 76.014877 50.612567 
L 76.014877 50.612567 
" style="fill: none; stroke: #000000; stroke-linecap: round"/>
   </g>
   <g id="patch_3">
    <path d="M 64.88973 64.478178 
Q 64.88973 91.99304 64.88973 119.507902 
" style="fill: none; stroke: #000000; stroke-linecap: round"/>
    <path d="M 69.88973 64.478178 
L 69.88973 64.478178 
L 59.88973 64.478178 
L 59.88973 64.478178 
" style="fill: none; stroke: #000000; stroke-linecap: round"/>
    <path d="M 59.88973 119.507902 
L 59.88973 119.507902 
L 69.88973 119.507902 
L 69.88973 119.507902 
" style="fill: none; stroke: #000000; stroke-linecap: round"/>
   </g>
   <g id="patch_4">
    <path d="M 438.999488 64.478178 
Q 438.999488 121.50865 438.999488 178.539122 
" style="fill: none; stroke: #000000; stroke-linecap: round"/>
    <path d="M 443.999488 64.478178 
L 443.999488 64.478178 
L 433.999488 64.478178 
L 433.999488 64.478178 
" style="fill: none; stroke: #000000; stroke-linecap: round"/>
    <path d="M 433.999488 178.539122 
L 433.999488 178.539122 
L 443.999488 178.539122 
L 443.999488 178.539122 
" style="fill: none; stroke: #000000; stroke-linecap: round"/>
   </g>
   <g id="text_1">
    <!-- 150 cm -->
    <g transform="translate(102.280486 28.244159) scale(0.2 -0.2)">
     <defs>
      <path id="CMSS17-31" d="M 1818 4288 
L 1696 4288 
C 1350 3940 947 3890 538 3890 
L 538 3520 
C 723 3520 1024 3520 1325 3667 
L 1325 369 
L 570 369 
L 570 0 
L 2573 0 
L 2573 369 
L 1818 369 
L 1818 4288 
z
" transform="scale(0.015625)"/>
      <path id="CMSS17-35" d="M 934 3752 
L 2502 3752 
L 2502 4160 
L 467 4160 
L 467 1781 
L 896 1781 
C 1011 2046 1248 2240 1555 2240 
C 1843 2240 2163 1989 2163 1266 
C 2163 493 1709 267 1376 267 
C 966 267 589 512 422 851 
L 218 499 
C 512 49 992 -128 1376 -128 
C 2118 -128 2701 497 2701 1253 
C 2701 2030 2182 2629 1562 2629 
C 1338 2629 1120 2553 934 2399 
L 934 3752 
z
" transform="scale(0.015625)"/>
      <path id="CMSS17-30" d="M 2758 2044 
C 2758 2405 2752 3077 2490 3596 
C 2227 4096 1805 4229 1504 4229 
C 1069 4229 698 3975 506 3570 
C 301 3146 243 2709 243 2044 
C 243 1589 262 1031 493 543 
C 755 5 1197 -128 1498 -128 
C 1894 -128 2278 81 2496 518 
C 2720 974 2758 1474 2758 2044 
z
M 1498 261 
C 1011 261 864 811 819 995 
C 742 1310 730 1614 730 2114 
C 730 2506 730 2948 851 3297 
C 998 3701 1254 3840 1498 3840 
C 1971 3840 2125 3372 2176 3208 
C 2272 2873 2272 2481 2272 2114 
C 2272 1526 2272 261 1498 261 
z
" transform="scale(0.015625)"/>
      <path id="CMSS17-63" d="M 2464 2541 
C 2464 2585 2170 2714 2093 2739 
C 1882 2816 1613 2816 1542 2816 
C 710 2816 211 2093 211 1363 
C 211 595 768 -64 1517 -64 
C 1946 -64 2253 76 2502 242 
L 2464 664 
C 2189 453 1869 337 1523 337 
C 1024 337 698 774 698 1369 
C 698 1831 909 2414 1549 2414 
C 1901 2414 2099 2343 2394 2145 
L 2464 2541 
z
" transform="scale(0.015625)"/>
      <path id="CMSS17-6d" d="M 4288 1877 
C 4288 2308 4179 2816 3462 2816 
C 2982 2816 2694 2516 2566 2331 
C 2451 2670 2182 2816 1798 2816 
C 1363 2816 1088 2568 941 2389 
L 941 2758 
L 474 2758 
L 474 0 
L 960 0 
L 960 1559 
C 960 1939 1101 2428 1555 2428 
C 2138 2428 2138 2016 2138 1829 
L 2138 0 
L 2624 0 
L 2624 1559 
C 2624 1939 2765 2428 3219 2428 
C 3802 2428 3802 2016 3802 1829 
L 3802 0 
L 4288 0 
L 4288 1877 
z
" transform="scale(0.015625)"/>
     </defs>
     <use xlink:href="#CMSS17-31" transform="scale(0.996264)"/>
     <use xlink:href="#CMSS17-35" transform="translate(46.843624 0) scale(0.996264)"/>
     <use xlink:href="#CMSS17-30" transform="translate(93.687247 0) scale(0.996264)"/>
     <use xlink:href="#CMSS17-63" transform="translate(171.759983 0) scale(0.996264)"/>
     <use xlink:href="#CMSS17-6d" transform="translate(213.398805 0) scale(0.996264)"/>
    </g>
   </g>
   <g id="text_2">
    <!-- 35 cm -->
    <g transform="translate(10.801846 96.974662) scale(0.2 -0.2)">
     <defs>
      <path id="CMSS17-33" d="M 1005 2025 
L 1440 2025 
C 2042 2025 2214 1507 2214 1146 
C 2214 653 1933 267 1472 267 
C 1114 267 608 444 320 912 
C 275 691 275 678 250 526 
C 550 88 1037 -128 1485 -128 
C 2214 -128 2752 473 2752 1138 
C 2752 1638 2400 2057 1920 2215 
C 2304 2424 2586 2816 2586 3273 
C 2586 3805 2093 4229 1491 4229 
C 941 4229 512 3892 333 3530 
C 378 3468 493 3284 550 3189 
C 691 3562 1056 3840 1485 3840 
C 1843 3840 2080 3607 2080 3271 
C 2080 2923 1856 2543 1478 2455 
C 1453 2455 1056 2417 1005 2411 
L 1005 2025 
z
" transform="scale(0.015625)"/>
     </defs>
     <use xlink:href="#CMSS17-33" transform="scale(0.996264)"/>
     <use xlink:href="#CMSS17-35" transform="translate(46.843624 0) scale(0.996264)"/>
     <use xlink:href="#CMSS17-63" transform="translate(124.91636 0) scale(0.996264)"/>
     <use xlink:href="#CMSS17-6d" transform="translate(166.555182 0) scale(0.996264)"/>
    </g>
   </g>
   <g id="text_3">
    <!-- 70 cm -->
    <g transform="translate(444.930496 126.490107) scale(0.2 -0.2)">
     <defs>
      <path id="CMSS17-37" d="M 1389 3776 
C 1466 3776 1542 3776 1619 3776 
L 2355 3776 
C 1440 2711 915 1365 915 -32 
L 1427 -32 
C 1427 1323 1875 2696 2752 3795 
L 2752 4209 
L 250 4209 
L 250 3776 
L 1389 3776 
z
" transform="scale(0.015625)"/>
     </defs>
     <use xlink:href="#CMSS17-37" transform="scale(0.996264)"/>
     <use xlink:href="#CMSS17-30" transform="translate(46.843624 0) scale(0.996264)"/>
     <use xlink:href="#CMSS17-63" transform="translate(124.91636 0) scale(0.996264)"/>
     <use xlink:href="#CMSS17-6d" transform="translate(166.555182 0) scale(0.996264)"/>
    </g>
   </g>
  </g>
 </g>
 <defs>
  <clipPath id="p47b9da6da8">
   <rect x="58.806644" y="11.88063" width="395.400557" height="337.31937"/>
  </clipPath>
 </defs>
</svg>
