<?xml version="1.0" encoding="utf-8" standalone="no"?>
<!DOCTYPE svg PUBLIC "-//W3C//DTD SVG 1.1//EN"
  "http://www.w3.org/Graphics/SVG/1.1/DTD/svg11.dtd">
<svg xmlns:xlink="http://www.w3.org/1999/xlink" width="460.8pt" height="345.6pt" viewBox="0 0 460.8 345.6" xmlns="http://www.w3.org/2000/svg" version="1.1">
 <metadata>
  <rdf:RDF xmlns:dc="http://purl.org/dc/elements/1.1/" xmlns:cc="http://creativecommons.org/ns#" xmlns:rdf="http://www.w3.org/1999/02/22-rdf-syntax-ns#">
   <cc:Work>
    <dc:type rdf:resource="http://purl.org/dc/dcmitype/StillImage"/>
    <dc:date>2025-11-01T16:48:21.046610</dc:date>
    <dc:format>image/svg+xml</dc:format>
    <dc:creator>
     <cc:Agent>
      <dc:title>Matplotlib v3.9.1, https://matplotlib.org/</dc:title>
     </cc:Agent>
    </dc:creator>
   </cc:Work>
  </rdf:RDF>
 </metadata>
 <defs>
  <style type="text/css">*{stroke-linejoin: round; stroke-linecap: butt}</style>
 </defs>
 <g id="figure_1">
  <g id="patch_1">
   <path d="M 0 345.6 
L 460.8 345.6 
L 460.8 0 
L 0 0 
L 0 345.6 
z
" style="fill: none"/>
  </g>
  <g id="axes_1">
   <g id="patch_2">
    <path d="M 10.8 334.8 
L 447 334.8 
L 447 24.264473 
L 10.8 24.264473 
L 10.8 334.8 
z
" style="fill: none"/>
   </g>
   <g id="matplotlib.axis_1">
    <g id="text_1">
     <!-- $x$ -->
     <g transform="translate(430.369782 204.287732) scale(0.3 -0.3)">
      <defs>
       <path id="CMMI12-78" d="M 3034 2606 
C 2829 2567 2752 2414 2752 2293 
C 2752 2139 2874 2088 2963 2088 
C 3155 2088 3290 2254 3290 2427 
C 3290 2695 2982 2816 2714 2816 
C 2323 2816 2106 2433 2048 2312 
C 1901 2816 1504 2816 1389 2816 
C 736 2816 390 1980 390 1839 
C 390 1814 416 1782 461 1782 
C 512 1782 525 1820 538 1846 
C 755 2555 1184 2689 1370 2689 
C 1658 2689 1715 2420 1715 2267 
C 1715 2127 1677 1980 1600 1673 
L 1382 798 
C 1286 415 1101 64 762 64 
C 730 64 570 64 435 147 
C 666 192 717 383 717 460 
C 717 588 621 664 499 664 
C 346 664 179 530 179 326 
C 179 57 480 -64 755 -64 
C 1062 -64 1280 179 1414 441 
C 1517 64 1837 -64 2074 -64 
C 2726 -64 3072 773 3072 913 
C 3072 945 3046 971 3008 971 
C 2950 971 2944 939 2925 888 
C 2752 326 2381 64 2093 64 
C 1869 64 1747 230 1747 492 
C 1747 632 1773 734 1875 1156 
L 2099 2024 
C 2195 2408 2413 2689 2707 2689 
C 2720 2689 2899 2689 3034 2606 
z
" transform="scale(0.015625)"/>
      </defs>
      <use xlink:href="#CMMI12-78" transform="scale(0.996264)"/>
     </g>
    </g>
   </g>
   <g id="matplotlib.axis_2">
    <g id="text_2">
     <!-- $y$ -->
     <g transform="translate(210.630756 18.451022) scale(0.3 -0.3)">
      <defs>
       <path id="CMMI12-79" d="M 1683 -700 
C 1510 -939 1261 -1152 947 -1152 
C 870 -1152 563 -1152 467 -889 
C 486 -895 518 -895 531 -895 
C 723 -895 851 -729 851 -582 
C 851 -435 730 -384 634 -384 
C 531 -384 307 -458 307 -759 
C 307 -1071 582 -1286 947 -1286 
C 1587 -1286 2234 -700 2413 6 
L 3040 2485 
C 3046 2517 3059 2556 3059 2594 
C 3059 2689 2982 2753 2886 2753 
C 2829 2753 2694 2727 2643 2535 
L 2170 658 
C 2138 543 2138 530 2086 460 
C 1958 281 1747 64 1440 64 
C 1082 64 1050 415 1050 588 
C 1050 952 1222 1443 1395 1903 
C 1466 2088 1504 2178 1504 2305 
C 1504 2574 1312 2816 998 2816 
C 410 2816 173 1890 173 1839 
C 173 1814 198 1782 243 1782 
C 301 1782 307 1807 333 1897 
C 486 2433 730 2689 979 2689 
C 1037 2689 1146 2689 1146 2478 
C 1146 2312 1075 2127 979 1884 
C 666 1047 666 837 666 683 
C 666 77 1101 -64 1421 -64 
C 1606 -64 1837 -6 2061 230 
L 2067 224 
C 1971 -147 1907 -392 1683 -700 
z
" transform="scale(0.015625)"/>
      </defs>
      <use xlink:href="#CMMI12-79" transform="scale(0.996264)"/>
     </g>
    </g>
   </g>
   <g id="line2d_1">
    <defs>
     <path id="m89cb651c84" d="M 3 0 
L -3 -3 
L -3 3 
z
" style="stroke: #000000; stroke-linejoin: miter"/>
    </defs>
    <g>
     <use xlink:href="#m89cb651c84" x="447" y="179.532236" style="stroke: #000000; stroke-linejoin: miter"/>
    </g>
   </g>
   <g id="line2d_2">
    <defs>
     <path id="mf59c2131cf" d="M 0 -3 
L -3 3 
L 3 3 
z
" style="stroke: #000000; stroke-linejoin: miter"/>
    </defs>
    <g>
     <use xlink:href="#mf59c2131cf" x="228.9" y="24.264473" style="stroke: #000000; stroke-linejoin: miter"/>
    </g>
   </g>
   <g id="line2d_3">
    <path d="M 10.8 288.363437 
L 78.546813 250.026239 
L 108.905055 233.078825 
L 126.161319 223.681926 
L 137.132894 217.945302 
L 144.589304 214.282903 
L 149.915311 211.899832 
L 153.856557 210.364344 
L 156.839121 209.421941 
L 159.182564 208.89553 
L 161.099927 208.681617 
L 162.697729 208.727332 
L 163.975971 208.978182 
L 165.041172 209.394224 
L 165.999853 209.993043 
L 166.852015 210.772045 
L 167.704176 211.875988 
L 168.449817 213.21874 
L 169.195458 215.072328 
L 169.834579 217.258502 
L 170.4737 220.282206 
L 171.0063 223.78568 
L 171.538901 228.720883 
L 172.071502 236.080955 
L 172.497582 245.101763 
L 172.923663 259.564195 
L 173.243223 277.679208 
L 173.562784 310.194451 
L 173.75487 346.6 
M 174.344054 346.6 
L 174.353881 -1 
M 174.861509 -1 
L 175.160586 73.712735 
L 175.480147 108.151041 
L 175.906227 131.588422 
L 176.332308 144.714091 
L 176.864908 154.684948 
L 177.397509 161.032841 
L 178.03663 166.093916 
L 178.675751 169.540392 
L 179.421392 172.338991 
L 180.167033 174.305396 
L 181.019194 175.893067 
L 181.871355 177.007022 
L 182.830037 177.872267 
L 183.788718 178.447527 
L 184.853919 178.843332 
L 186.132161 179.075014 
L 187.623443 179.106818 
L 189.434286 178.904936 
L 191.564689 178.436088 
L 194.227692 177.614707 
L 197.636337 176.315178 
L 202.003663 174.39453 
L 207.649231 171.653192 
L 214.999121 167.823946 
L 224.479414 162.621663 
L 235.770549 156.165997 
L 247.487766 149.212504 
L 258.03326 142.702548 
L 266.874432 136.991655 
L 274.224322 131.984778 
L 280.295971 127.58528 
L 285.408938 123.610642 
L 289.776264 119.936644 
L 293.504469 116.516062 
L 296.806593 113.186354 
L 299.682637 109.976519 
L 302.239121 106.801302 
L 304.582564 103.540599 
L 306.712967 100.197284 
L 308.63033 96.788609 
L 310.441172 93.121326 
L 312.145495 89.158747 
L 313.743297 84.864739 
L 315.234579 80.206408 
L 316.619341 75.157958 
L 318.004103 69.210875 
L 319.282344 62.687788 
L 320.454066 55.576055 
L 321.625788 47.052913 
L 322.690989 37.705575 
L 323.75619 26.349756 
L 324.714872 13.862563 
L 325.645757 -1 
M 350.166223 -1 
L 351.025348 11.112755 
L 351.984029 21.954292 
L 353.049231 31.51196 
L 354.114432 39.099743 
L 355.179634 45.192729 
L 356.351355 50.571859 
L 357.523077 54.879573 
L 358.694799 58.353025 
L 359.86652 61.167398 
L 361.038242 63.454339 
L 362.316484 65.465053 
L 363.594725 67.067143 
L 364.872967 68.337241 
L 366.257729 69.407282 
L 367.749011 70.269239 
L 369.346813 70.92137 
L 371.051136 71.36663 
L 372.861978 71.611291 
L 374.885861 71.661344 
L 377.229304 71.485803 
L 379.892308 71.049307 
L 382.874872 70.331143 
L 386.390037 69.251036 
L 390.544322 67.735208 
L 395.550769 65.66322 
L 401.728938 62.8529 
L 409.398388 59.108606 
L 419.304762 54.011878 
L 432.51326 46.9515 
L 447 39.01491 
L 447 39.01491 
" clip-path="url(#p0764bf0bba)" style="fill: none; stroke: #0072b2; stroke-width: 3; stroke-linecap: square"/>
   </g>
   <g id="line2d_4">
    <path d="M 10.79792 288.220856 
L 447.00208 39.790065 
L 447.00208 39.790065 
" clip-path="url(#p0764bf0bba)" style="fill: none; stroke-dasharray: 11.1,4.8; stroke-dashoffset: 0; stroke: #dc5e8b; stroke-width: 3"/>
   </g>
   <g id="LineCollection_1">
    <path d="M 337.95 346.6 
L 337.95 -1 
" clip-path="url(#p0764bf0bba)" style="fill: none; stroke-dasharray: 9.25,4; stroke-dashoffset: 0; stroke: #dc5e8b; stroke-width: 2.5"/>
   </g>
   <g id="LineCollection_2">
    <path d="M 174.375 346.6 
L 174.375 -1 
" clip-path="url(#p0764bf0bba)" style="fill: none; stroke-dasharray: 11.1,4.8; stroke-dashoffset: 0; stroke: #dc5e8b; stroke-width: 3"/>
   </g>
   <g id="patch_3">
    <path d="M 228.9 334.8 
L 228.9 24.264473 
" style="fill: none; stroke: #000000; stroke-width: 0.8; stroke-linejoin: miter; stroke-linecap: square"/>
   </g>
   <g id="patch_4">
    <path d="M 447 334.8 
L 447 24.264473 
" style="fill: none"/>
   </g>
   <g id="patch_5">
    <path d="M 10.8 179.532236 
L 447 179.532236 
" style="fill: none; stroke: #000000; stroke-width: 0.8; stroke-linejoin: miter; stroke-linecap: square"/>
   </g>
   <g id="patch_6">
    <path d="M 10.8 24.264473 
L 447 24.264473 
" style="fill: none"/>
   </g>
   <g id="text_3">
    <g id="patch_7">
     <path d="M 65.325 70.131476 
L 83.990356 70.131476 
Q 92.990356 70.131476 92.990356 61.131476 
L 92.990356 34.56253 
Q 92.990356 25.56253 83.990356 25.56253 
L 65.325 25.56253 
Q 56.325 25.56253 56.325 34.56253 
L 56.325 61.131476 
Q 56.325 70.131476 65.325 70.131476 
z
" style="fill: #ffffff; stroke: #000000; stroke-linejoin: miter"/>
    </g>
    <!-- A -->
    <g transform="translate(65.325 55.318026) scale(0.3 -0.3)">
     <defs>
      <path id="CMSS17-41" d="M 2272 4416 
L 1722 4416 
L 166 0 
L 653 0 
L 1101 1280 
L 2816 1280 
L 3270 0 
L 3827 0 
L 2272 4416 
z
M 2694 1637 
L 1222 1637 
C 1530 2528 1914 3638 1958 3925 
L 1965 3925 
C 2010 3663 2138 3281 2246 2956 
L 2694 1637 
z
" transform="scale(0.015625)"/>
     </defs>
     <use xlink:href="#CMSS17-41" transform="scale(0.996264)"/>
    </g>
   </g>
  </g>
 </g>
 <defs>
  <clipPath id="p0764bf0bba">
   <rect x="10.8" y="24.264473" width="436.2" height="310.535527"/>
  </clipPath>
 </defs>
</svg>
