<?xml version="1.0" encoding="utf-8" standalone="no"?>
<!DOCTYPE svg PUBLIC "-//W3C//DTD SVG 1.1//EN"
  "http://www.w3.org/Graphics/SVG/1.1/DTD/svg11.dtd">
<svg xmlns:xlink="http://www.w3.org/1999/xlink" width="460.8pt" height="345.6pt" viewBox="0 0 460.8 345.6" xmlns="http://www.w3.org/2000/svg" version="1.1">
 <metadata>
  <rdf:RDF xmlns:dc="http://purl.org/dc/elements/1.1/" xmlns:cc="http://creativecommons.org/ns#" xmlns:rdf="http://www.w3.org/1999/02/22-rdf-syntax-ns#">
   <cc:Work>
    <dc:type rdf:resource="http://purl.org/dc/dcmitype/StillImage"/>
    <dc:date>2025-11-01T16:48:23.256809</dc:date>
    <dc:format>image/svg+xml</dc:format>
    <dc:creator>
     <cc:Agent>
      <dc:title>Matplotlib v3.9.1, https://matplotlib.org/</dc:title>
     </cc:Agent>
    </dc:creator>
   </cc:Work>
  </rdf:RDF>
 </metadata>
 <defs>
  <style type="text/css">*{stroke-linejoin: round; stroke-linecap: butt}</style>
 </defs>
 <g id="figure_1">
  <g id="patch_1">
   <path d="M 0 345.6 
L 460.8 345.6 
L 460.8 0 
L 0 0 
L 0 345.6 
z
" style="fill: none"/>
  </g>
  <g id="axes_1">
   <g id="patch_2">
    <path d="M 10.8 334.8 
L 447 334.8 
L 447 24.264473 
L 10.8 24.264473 
L 10.8 334.8 
z
" style="fill: none"/>
   </g>
   <g id="matplotlib.axis_1">
    <g id="text_1">
     <!-- $x$ -->
     <g transform="translate(430.369782 204.287732) scale(0.3 -0.3)">
      <defs>
       <path id="CMMI12-78" d="M 3034 2606 
C 2829 2567 2752 2414 2752 2293 
C 2752 2139 2874 2088 2963 2088 
C 3155 2088 3290 2254 3290 2427 
C 3290 2695 2982 2816 2714 2816 
C 2323 2816 2106 2433 2048 2312 
C 1901 2816 1504 2816 1389 2816 
C 736 2816 390 1980 390 1839 
C 390 1814 416 1782 461 1782 
C 512 1782 525 1820 538 1846 
C 755 2555 1184 2689 1370 2689 
C 1658 2689 1715 2420 1715 2267 
C 1715 2127 1677 1980 1600 1673 
L 1382 798 
C 1286 415 1101 64 762 64 
C 730 64 570 64 435 147 
C 666 192 717 383 717 460 
C 717 588 621 664 499 664 
C 346 664 179 530 179 326 
C 179 57 480 -64 755 -64 
C 1062 -64 1280 179 1414 441 
C 1517 64 1837 -64 2074 -64 
C 2726 -64 3072 773 3072 913 
C 3072 945 3046 971 3008 971 
C 2950 971 2944 939 2925 888 
C 2752 326 2381 64 2093 64 
C 1869 64 1747 230 1747 492 
C 1747 632 1773 734 1875 1156 
L 2099 2024 
C 2195 2408 2413 2689 2707 2689 
C 2720 2689 2899 2689 3034 2606 
z
" transform="scale(0.015625)"/>
      </defs>
      <use xlink:href="#CMMI12-78" transform="scale(0.996264)"/>
     </g>
    </g>
   </g>
   <g id="matplotlib.axis_2">
    <g id="text_2">
     <!-- $y$ -->
     <g transform="translate(210.630756 18.451022) scale(0.3 -0.3)">
      <defs>
       <path id="CMMI12-79" d="M 1683 -700 
C 1510 -939 1261 -1152 947 -1152 
C 870 -1152 563 -1152 467 -889 
C 486 -895 518 -895 531 -895 
C 723 -895 851 -729 851 -582 
C 851 -435 730 -384 634 -384 
C 531 -384 307 -458 307 -759 
C 307 -1071 582 -1286 947 -1286 
C 1587 -1286 2234 -700 2413 6 
L 3040 2485 
C 3046 2517 3059 2556 3059 2594 
C 3059 2689 2982 2753 2886 2753 
C 2829 2753 2694 2727 2643 2535 
L 2170 658 
C 2138 543 2138 530 2086 460 
C 1958 281 1747 64 1440 64 
C 1082 64 1050 415 1050 588 
C 1050 952 1222 1443 1395 1903 
C 1466 2088 1504 2178 1504 2305 
C 1504 2574 1312 2816 998 2816 
C 410 2816 173 1890 173 1839 
C 173 1814 198 1782 243 1782 
C 301 1782 307 1807 333 1897 
C 486 2433 730 2689 979 2689 
C 1037 2689 1146 2689 1146 2478 
C 1146 2312 1075 2127 979 1884 
C 666 1047 666 837 666 683 
C 666 77 1101 -64 1421 -64 
C 1606 -64 1837 -6 2061 230 
L 2067 224 
C 1971 -147 1907 -392 1683 -700 
z
" transform="scale(0.015625)"/>
      </defs>
      <use xlink:href="#CMMI12-79" transform="scale(0.996264)"/>
     </g>
    </g>
   </g>
   <g id="line2d_1">
    <defs>
     <path id="me2d16ec20b" d="M 3 0 
L -3 -3 
L -3 3 
z
" style="stroke: #000000; stroke-linejoin: miter"/>
    </defs>
    <g>
     <use xlink:href="#me2d16ec20b" x="447" y="179.532236" style="stroke: #000000; stroke-linejoin: miter"/>
    </g>
   </g>
   <g id="line2d_2">
    <defs>
     <path id="m7656c68c50" d="M 0 -3 
L -3 3 
L 3 3 
z
" style="stroke: #000000; stroke-linejoin: miter"/>
    </defs>
    <g>
     <use xlink:href="#m7656c68c50" x="228.9" y="24.264473" style="stroke: #000000; stroke-linejoin: miter"/>
    </g>
   </g>
   <g id="line2d_3">
    <path d="M 10.8 288.507204 
L 53.088498 264.735791 
L 76.842491 251.619905 
L 92.287912 243.330445 
L 103.259487 237.681867 
L 111.461538 233.697634 
L 117.852747 230.829496 
L 122.965714 228.767819 
L 127.22652 227.284465 
L 130.741685 226.289498 
L 133.724249 225.668753 
L 136.280733 225.355007 
L 138.517656 225.296391 
L 140.541538 225.466204 
L 142.352381 225.845292 
L 143.950183 226.402399 
L 145.441465 227.155129 
L 146.826227 228.100812 
L 148.104469 229.230961 
L 149.382711 230.662119 
L 150.554432 232.295866 
L 151.726154 234.305769 
L 152.897875 236.777267 
L 154.069597 239.821349 
L 155.134799 243.207768 
L 156.2 247.332493 
L 157.265201 252.387092 
L 158.330403 258.629207 
L 159.289084 265.551553 
L 160.247766 274.072643 
L 161.206447 284.678821 
L 162.165128 298.055642 
L 163.017289 313.063717 
L 163.869451 332.04501 
L 164.403594 346.6 
M 184.587882 346.6 
L 185.49304 322.283331 
L 186.451722 302.091146 
L 187.516923 284.44829 
L 188.582125 270.450781 
L 189.647326 259.123712 
L 190.819048 248.956224 
L 191.990769 240.595448 
L 193.269011 233.02969 
L 194.653773 226.2217 
L 196.038535 220.512339 
L 197.529817 215.303197 
L 199.127619 210.553154 
L 200.831941 206.214751 
L 202.642784 202.238672 
L 204.560147 198.576697 
L 206.584029 195.183484 
L 208.820952 191.868422 
L 211.270916 188.640821 
L 213.933919 185.497923 
L 216.916484 182.320876 
L 220.325128 179.023441 
L 224.159853 175.629308 
L 228.6337 171.977808 
L 233.746667 168.097316 
L 239.818315 163.77581 
L 247.061685 158.903298 
L 255.689817 153.375314 
L 265.915751 147.093584 
L 277.526447 140.226119 
L 289.137143 133.613723 
L 298.936996 128.275412 
L 306.499927 124.394418 
L 312.145495 121.733545 
L 316.4063 119.959461 
L 319.601905 118.852161 
L 322.158388 118.189908 
L 324.182271 117.885393 
L 325.780073 117.851408 
L 327.164835 118.037422 
L 328.336557 118.418462 
L 329.295238 118.944539 
L 330.147399 119.635922 
L 330.99956 120.618528 
L 331.745201 121.811477 
L 332.490842 123.448818 
L 333.129963 125.362245 
L 333.769084 127.974277 
L 334.408205 131.663063 
L 334.940806 136.054503 
L 335.473407 142.467803 
L 335.899487 150.112872 
L 336.325568 161.898249 
L 336.645128 175.894163 
L 336.964689 199.088818 
L 337.284249 244.728375 
L 337.497289 311.095912 
L 337.5565 346.6 
M 337.997751 346.6 
L 338.005613 -1 
M 338.860815 -1 
L 339.201612 27.166385 
L 339.627692 46.006622 
L 340.160293 59.208429 
L 340.692894 67.163455 
L 341.332015 73.273907 
L 341.971136 77.324282 
L 342.716777 80.551528 
L 343.462418 82.788922 
L 344.208059 84.390311 
L 345.06022 85.698399 
L 345.912381 86.620989 
L 346.871062 87.335697 
L 347.936264 87.844085 
L 349.107985 88.155462 
L 350.492747 88.285419 
L 352.090549 88.209163 
L 354.007912 87.895473 
L 356.457875 87.255797 
L 359.54696 86.199469 
L 363.488205 84.597899 
L 368.601172 82.264896 
L 375.418462 78.897023 
L 384.898755 73.95009 
L 398.639853 66.509167 
L 419.624322 54.870133 
L 447 39.480714 
L 447 39.480714 
" clip-path="url(#pcc977917d3)" style="fill: none; stroke: #0072b2; stroke-width: 3; stroke-linecap: square"/>
   </g>
   <g id="line2d_4">
    <path d="M 10.79792 288.220856 
L 447.00208 39.790065 
L 447.00208 39.790065 
" clip-path="url(#pcc977917d3)" style="fill: none; stroke-dasharray: 11.1,4.8; stroke-dashoffset: 0; stroke: #dc5e8b; stroke-width: 3"/>
   </g>
   <g id="LineCollection_1">
    <path d="M 337.95 346.6 
L 337.95 -1 
" clip-path="url(#pcc977917d3)" style="fill: none; stroke-dasharray: 11.1,4.8; stroke-dashoffset: 0; stroke: #dc5e8b; stroke-width: 3"/>
   </g>
   <g id="LineCollection_2">
    <path d="M 174.375 346.6 
L 174.375 -1 
" clip-path="url(#pcc977917d3)" style="fill: none; stroke-dasharray: 11.1,4.8; stroke-dashoffset: 0; stroke: #dc5e8b; stroke-width: 3"/>
   </g>
   <g id="patch_3">
    <path d="M 228.9 334.8 
L 228.9 24.264473 
" style="fill: none; stroke: #000000; stroke-width: 0.8; stroke-linejoin: miter; stroke-linecap: square"/>
   </g>
   <g id="patch_4">
    <path d="M 447 334.8 
L 447 24.264473 
" style="fill: none"/>
   </g>
   <g id="patch_5">
    <path d="M 10.8 179.532236 
L 447 179.532236 
" style="fill: none; stroke: #000000; stroke-width: 0.8; stroke-linejoin: miter; stroke-linecap: square"/>
   </g>
   <g id="patch_6">
    <path d="M 10.8 24.264473 
L 447 24.264473 
" style="fill: none"/>
   </g>
   <g id="text_3">
    <g id="patch_7">
     <path d="M 65.325 70.131476 
L 84.0264 70.131476 
Q 93.0264 70.131476 93.0264 61.131476 
L 93.0264 34.56253 
Q 93.0264 25.56253 84.0264 25.56253 
L 65.325 25.56253 
Q 56.325 25.56253 56.325 34.56253 
L 56.325 61.131476 
Q 56.325 70.131476 65.325 70.131476 
z
" style="fill: #ffffff; stroke: #000000; stroke-linejoin: miter"/>
    </g>
    <!-- B -->
    <g transform="translate(65.325 55.318026) scale(0.3 -0.3)">
     <defs>
      <path id="CMSS17-42" d="M 570 4416 
L 570 0 
L 2163 0 
C 3034 0 3667 574 3667 1200 
C 3667 1685 3251 2176 2502 2317 
C 3334 2558 3501 3040 3501 3313 
C 3501 3883 2874 4416 1997 4416 
L 570 4416 
z
M 1088 2496 
L 1088 4059 
L 1824 4059 
C 2483 4059 3002 3724 3002 3306 
C 3002 2926 2592 2496 1766 2496 
L 1088 2496 
z
M 1088 357 
L 1088 2107 
L 1939 2107 
C 2630 2107 3162 1679 3162 1206 
C 3162 772 2694 357 1984 357 
L 1088 357 
z
" transform="scale(0.015625)"/>
     </defs>
     <use xlink:href="#CMSS17-42" transform="scale(0.996264)"/>
    </g>
   </g>
  </g>
 </g>
 <defs>
  <clipPath id="pcc977917d3">
   <rect x="10.8" y="24.264473" width="436.2" height="310.535527"/>
  </clipPath>
 </defs>
</svg>
