<?xml version="1.0" encoding="utf-8" standalone="no"?>
<!DOCTYPE svg PUBLIC "-//W3C//DTD SVG 1.1//EN"
  "http://www.w3.org/Graphics/SVG/1.1/DTD/svg11.dtd">
<svg xmlns:xlink="http://www.w3.org/1999/xlink" width="460.8pt" height="345.6pt" viewBox="0 0 460.8 345.6" xmlns="http://www.w3.org/2000/svg" version="1.1">
 <metadata>
  <rdf:RDF xmlns:dc="http://purl.org/dc/elements/1.1/" xmlns:cc="http://creativecommons.org/ns#" xmlns:rdf="http://www.w3.org/1999/02/22-rdf-syntax-ns#">
   <cc:Work>
    <dc:type rdf:resource="http://purl.org/dc/dcmitype/StillImage"/>
    <dc:date>2025-11-01T16:48:25.239685</dc:date>
    <dc:format>image/svg+xml</dc:format>
    <dc:creator>
     <cc:Agent>
      <dc:title>Matplotlib v3.9.1, https://matplotlib.org/</dc:title>
     </cc:Agent>
    </dc:creator>
   </cc:Work>
  </rdf:RDF>
 </metadata>
 <defs>
  <style type="text/css">*{stroke-linejoin: round; stroke-linecap: butt}</style>
 </defs>
 <g id="figure_1">
  <g id="patch_1">
   <path d="M 0 345.6 
L 460.8 345.6 
L 460.8 0 
L 0 0 
L 0 345.6 
z
" style="fill: none"/>
  </g>
  <g id="axes_1">
   <g id="patch_2">
    <path d="M 10.8 334.8 
L 447 334.8 
L 447 24.264473 
L 10.8 24.264473 
L 10.8 334.8 
z
" style="fill: none"/>
   </g>
   <g id="matplotlib.axis_1">
    <g id="text_1">
     <!-- $x$ -->
     <g transform="translate(430.369782 204.287732) scale(0.3 -0.3)">
      <defs>
       <path id="CMMI12-78" d="M 3034 2606 
C 2829 2567 2752 2414 2752 2293 
C 2752 2139 2874 2088 2963 2088 
C 3155 2088 3290 2254 3290 2427 
C 3290 2695 2982 2816 2714 2816 
C 2323 2816 2106 2433 2048 2312 
C 1901 2816 1504 2816 1389 2816 
C 736 2816 390 1980 390 1839 
C 390 1814 416 1782 461 1782 
C 512 1782 525 1820 538 1846 
C 755 2555 1184 2689 1370 2689 
C 1658 2689 1715 2420 1715 2267 
C 1715 2127 1677 1980 1600 1673 
L 1382 798 
C 1286 415 1101 64 762 64 
C 730 64 570 64 435 147 
C 666 192 717 383 717 460 
C 717 588 621 664 499 664 
C 346 664 179 530 179 326 
C 179 57 480 -64 755 -64 
C 1062 -64 1280 179 1414 441 
C 1517 64 1837 -64 2074 -64 
C 2726 -64 3072 773 3072 913 
C 3072 945 3046 971 3008 971 
C 2950 971 2944 939 2925 888 
C 2752 326 2381 64 2093 64 
C 1869 64 1747 230 1747 492 
C 1747 632 1773 734 1875 1156 
L 2099 2024 
C 2195 2408 2413 2689 2707 2689 
C 2720 2689 2899 2689 3034 2606 
z
" transform="scale(0.015625)"/>
      </defs>
      <use xlink:href="#CMMI12-78" transform="scale(0.996264)"/>
     </g>
    </g>
   </g>
   <g id="matplotlib.axis_2">
    <g id="text_2">
     <!-- $y$ -->
     <g transform="translate(210.630756 18.451022) scale(0.3 -0.3)">
      <defs>
       <path id="CMMI12-79" d="M 1683 -700 
C 1510 -939 1261 -1152 947 -1152 
C 870 -1152 563 -1152 467 -889 
C 486 -895 518 -895 531 -895 
C 723 -895 851 -729 851 -582 
C 851 -435 730 -384 634 -384 
C 531 -384 307 -458 307 -759 
C 307 -1071 582 -1286 947 -1286 
C 1587 -1286 2234 -700 2413 6 
L 3040 2485 
C 3046 2517 3059 2556 3059 2594 
C 3059 2689 2982 2753 2886 2753 
C 2829 2753 2694 2727 2643 2535 
L 2170 658 
C 2138 543 2138 530 2086 460 
C 1958 281 1747 64 1440 64 
C 1082 64 1050 415 1050 588 
C 1050 952 1222 1443 1395 1903 
C 1466 2088 1504 2178 1504 2305 
C 1504 2574 1312 2816 998 2816 
C 410 2816 173 1890 173 1839 
C 173 1814 198 1782 243 1782 
C 301 1782 307 1807 333 1897 
C 486 2433 730 2689 979 2689 
C 1037 2689 1146 2689 1146 2478 
C 1146 2312 1075 2127 979 1884 
C 666 1047 666 837 666 683 
C 666 77 1101 -64 1421 -64 
C 1606 -64 1837 -6 2061 230 
L 2067 224 
C 1971 -147 1907 -392 1683 -700 
z
" transform="scale(0.015625)"/>
      </defs>
      <use xlink:href="#CMMI12-79" transform="scale(0.996264)"/>
     </g>
    </g>
   </g>
   <g id="line2d_1">
    <defs>
     <path id="m145f24305d" d="M 3 0 
L -3 -3 
L -3 3 
z
" style="stroke: #000000; stroke-linejoin: miter"/>
    </defs>
    <g>
     <use xlink:href="#m145f24305d" x="447" y="179.532236" style="stroke: #000000; stroke-linejoin: miter"/>
    </g>
   </g>
   <g id="line2d_2">
    <defs>
     <path id="m3d7ba2aa28" d="M 0 -3 
L -3 3 
L 3 3 
z
" style="stroke: #000000; stroke-linejoin: miter"/>
    </defs>
    <g>
     <use xlink:href="#m3d7ba2aa28" x="228.9" y="24.264473" style="stroke: #000000; stroke-linejoin: miter"/>
    </g>
   </g>
   <g id="line2d_3">
    <path d="M 10.8 40.078782 
L 53.195018 64.538344 
L 76.949011 78.48097 
L 92.500952 87.852016 
L 103.579048 94.774213 
L 111.887619 100.214932 
L 118.491868 104.797303 
L 123.817875 108.756733 
L 128.185201 112.269469 
L 131.913407 115.544155 
L 135.109011 118.636643 
L 137.985055 121.731779 
L 140.435018 124.684404 
L 142.671941 127.719782 
L 144.695824 130.834256 
L 146.613187 134.208424 
L 148.317509 137.658881 
L 149.915311 141.394633 
L 151.406593 145.446391 
L 152.791355 149.838695 
L 154.176117 155.016401 
L 155.454359 160.701191 
L 156.626081 166.905914 
L 157.797802 174.350831 
L 158.863004 182.524916 
L 159.928205 192.465125 
L 160.886886 203.403633 
L 161.845568 216.856665 
L 162.804249 233.698087 
L 163.65641 252.540512 
L 164.508571 276.404504 
L 165.360733 307.288767 
L 166.181958 346.6 
M 183.20523 346.6 
L 184.001758 314.848789 
L 184.853919 288.636998 
L 185.812601 265.928655 
L 186.771282 248.353426 
L 187.729963 234.498915 
L 188.795165 222.314981 
L 189.860366 212.647512 
L 190.925568 204.874045 
L 192.097289 197.988487 
L 193.269011 192.443948 
L 194.440733 187.938961 
L 195.612454 184.252471 
L 196.890696 180.971447 
L 198.168938 178.307648 
L 199.447179 176.139731 
L 200.831941 174.243621 
L 202.216703 172.730162 
L 203.601465 171.529449 
L 205.092747 170.523801 
L 206.690549 169.718315 
L 208.394872 169.113245 
L 210.205714 168.70526 
L 212.229597 168.482116 
L 214.46652 168.466206 
L 216.916484 168.670963 
L 219.686007 169.123759 
L 222.881612 169.874121 
L 226.609817 170.986206 
L 230.977143 172.53239 
L 236.09011 174.588005 
L 242.161758 177.276705 
L 249.511648 180.785471 
L 258.352821 185.263437 
L 268.791795 190.807481 
L 280.402491 197.228102 
L 291.693626 203.72156 
L 301.067399 209.3584 
L 308.204249 213.895848 
L 313.636777 217.603282 
L 317.791062 220.701701 
L 320.986667 223.354177 
L 323.54315 225.758851 
L 325.567033 227.951831 
L 327.271355 230.113031 
L 328.762637 232.373602 
L 330.040879 234.740771 
L 331.106081 237.185839 
L 332.064762 239.959519 
L 332.916923 243.141201 
L 333.662564 246.807742 
L 334.301685 251.008048 
L 334.940806 256.841069 
L 335.473407 263.861032 
L 335.899487 271.991431 
L 336.325568 284.262138 
L 336.645128 298.62205 
L 336.964689 322.180702 
L 337.163099 346.6 
M 338.000562 346.6 
L 338.008423 -1 
M 338.36448 -1 
L 338.669011 96.837188 
L 338.988571 137.27047 
L 339.414652 163.8572 
L 339.840733 178.568595 
L 340.373333 189.800851 
L 341.012454 198.259327 
L 341.651575 203.920426 
L 342.397216 208.598508 
L 343.249377 212.476813 
L 344.208059 215.73281 
L 345.27326 218.515754 
L 346.444982 220.943892 
L 347.829744 223.271959 
L 349.427546 225.493158 
L 351.238388 227.625601 
L 353.475311 229.900675 
L 356.138315 232.282786 
L 359.44044 234.932411 
L 363.701245 238.051869 
L 369.240293 241.814975 
L 376.590183 246.526311 
L 386.816117 252.801965 
L 401.728938 261.673042 
L 424.737289 275.077745 
L 447 287.909135 
L 447 287.909135 
" clip-path="url(#pd154a026bc)" style="fill: none; stroke: #0072b2; stroke-width: 3; stroke-linecap: square"/>
   </g>
   <g id="line2d_4">
    <path d="M 10.79792 39.790065 
L 447.00208 288.220856 
L 447.00208 288.220856 
" clip-path="url(#pd154a026bc)" style="fill: none; stroke-dasharray: 11.1,4.8; stroke-dashoffset: 0; stroke: #dc5e8b; stroke-width: 3"/>
   </g>
   <g id="LineCollection_1">
    <path d="M 337.95 346.6 
L 337.95 -1 
" clip-path="url(#pd154a026bc)" style="fill: none; stroke-dasharray: 11.1,4.8; stroke-dashoffset: 0; stroke: #dc5e8b; stroke-width: 3"/>
   </g>
   <g id="LineCollection_2">
    <path d="M 174.375 346.6 
L 174.375 -1 
" clip-path="url(#pd154a026bc)" style="fill: none; stroke-dasharray: 11.1,4.8; stroke-dashoffset: 0; stroke: #dc5e8b; stroke-width: 3"/>
   </g>
   <g id="patch_3">
    <path d="M 228.9 334.8 
L 228.9 24.264473 
" style="fill: none; stroke: #000000; stroke-width: 0.8; stroke-linejoin: miter; stroke-linecap: square"/>
   </g>
   <g id="patch_4">
    <path d="M 447 334.8 
L 447 24.264473 
" style="fill: none"/>
   </g>
   <g id="patch_5">
    <path d="M 10.8 179.532236 
L 447 179.532236 
" style="fill: none; stroke: #000000; stroke-width: 0.8; stroke-linejoin: miter; stroke-linecap: square"/>
   </g>
   <g id="patch_6">
    <path d="M 10.8 24.264473 
L 447 24.264473 
" style="fill: none"/>
   </g>
   <g id="text_3">
    <g id="patch_7">
     <path d="M 65.325 70.131476 
L 83.281725 70.131476 
Q 92.281725 70.131476 92.281725 61.131476 
L 92.281725 34.56253 
Q 92.281725 25.56253 83.281725 25.56253 
L 65.325 25.56253 
Q 56.325 25.56253 56.325 34.56253 
L 56.325 61.131476 
Q 56.325 70.131476 65.325 70.131476 
z
" style="fill: #ffffff; stroke: #000000; stroke-linejoin: miter"/>
    </g>
    <!-- C -->
    <g transform="translate(65.325 55.318026) scale(0.3 -0.3)">
     <defs>
      <path id="CMSS17-43" d="M 3501 714 
C 3072 427 2874 344 2355 344 
C 1459 344 934 1303 934 2179 
C 934 3112 1472 4032 2381 4032 
C 2790 4032 3059 3918 3386 3715 
L 3475 4217 
C 3168 4370 2778 4440 2387 4440 
C 1158 4440 397 3316 397 2179 
C 397 927 1299 -64 2323 -64 
C 2874 -64 3066 -19 3539 280 
L 3501 714 
z
" transform="scale(0.015625)"/>
     </defs>
     <use xlink:href="#CMSS17-43" transform="scale(0.996264)"/>
    </g>
   </g>
  </g>
 </g>
 <defs>
  <clipPath id="pd154a026bc">
   <rect x="10.8" y="24.264473" width="436.2" height="310.535527"/>
  </clipPath>
 </defs>
</svg>
