<?xml version="1.0" encoding="utf-8" standalone="no"?>
<!DOCTYPE svg PUBLIC "-//W3C//DTD SVG 1.1//EN"
  "http://www.w3.org/Graphics/SVG/1.1/DTD/svg11.dtd">
<svg xmlns:xlink="http://www.w3.org/1999/xlink" width="460.8pt" height="345.6pt" viewBox="0 0 460.8 345.6" xmlns="http://www.w3.org/2000/svg" version="1.1">
 <metadata>
  <rdf:RDF xmlns:dc="http://purl.org/dc/elements/1.1/" xmlns:cc="http://creativecommons.org/ns#" xmlns:rdf="http://www.w3.org/1999/02/22-rdf-syntax-ns#">
   <cc:Work>
    <dc:type rdf:resource="http://purl.org/dc/dcmitype/StillImage"/>
    <dc:date>2025-11-01T16:48:27.348060</dc:date>
    <dc:format>image/svg+xml</dc:format>
    <dc:creator>
     <cc:Agent>
      <dc:title>Matplotlib v3.9.1, https://matplotlib.org/</dc:title>
     </cc:Agent>
    </dc:creator>
   </cc:Work>
  </rdf:RDF>
 </metadata>
 <defs>
  <style type="text/css">*{stroke-linejoin: round; stroke-linecap: butt}</style>
 </defs>
 <g id="figure_1">
  <g id="patch_1">
   <path d="M 0 345.6 
L 460.8 345.6 
L 460.8 0 
L 0 0 
L 0 345.6 
z
" style="fill: none"/>
  </g>
  <g id="axes_1">
   <g id="patch_2">
    <path d="M 10.8 334.8 
L 447 334.8 
L 447 24.264473 
L 10.8 24.264473 
L 10.8 334.8 
z
" style="fill: none"/>
   </g>
   <g id="matplotlib.axis_1">
    <g id="text_1">
     <!-- $x$ -->
     <g transform="translate(430.369782 204.287732) scale(0.3 -0.3)">
      <defs>
       <path id="CMMI12-78" d="M 3034 2606 
C 2829 2567 2752 2414 2752 2293 
C 2752 2139 2874 2088 2963 2088 
C 3155 2088 3290 2254 3290 2427 
C 3290 2695 2982 2816 2714 2816 
C 2323 2816 2106 2433 2048 2312 
C 1901 2816 1504 2816 1389 2816 
C 736 2816 390 1980 390 1839 
C 390 1814 416 1782 461 1782 
C 512 1782 525 1820 538 1846 
C 755 2555 1184 2689 1370 2689 
C 1658 2689 1715 2420 1715 2267 
C 1715 2127 1677 1980 1600 1673 
L 1382 798 
C 1286 415 1101 64 762 64 
C 730 64 570 64 435 147 
C 666 192 717 383 717 460 
C 717 588 621 664 499 664 
C 346 664 179 530 179 326 
C 179 57 480 -64 755 -64 
C 1062 -64 1280 179 1414 441 
C 1517 64 1837 -64 2074 -64 
C 2726 -64 3072 773 3072 913 
C 3072 945 3046 971 3008 971 
C 2950 971 2944 939 2925 888 
C 2752 326 2381 64 2093 64 
C 1869 64 1747 230 1747 492 
C 1747 632 1773 734 1875 1156 
L 2099 2024 
C 2195 2408 2413 2689 2707 2689 
C 2720 2689 2899 2689 3034 2606 
z
" transform="scale(0.015625)"/>
      </defs>
      <use xlink:href="#CMMI12-78" transform="scale(0.996264)"/>
     </g>
    </g>
   </g>
   <g id="matplotlib.axis_2">
    <g id="text_2">
     <!-- $y$ -->
     <g transform="translate(210.630756 18.451022) scale(0.3 -0.3)">
      <defs>
       <path id="CMMI12-79" d="M 1683 -700 
C 1510 -939 1261 -1152 947 -1152 
C 870 -1152 563 -1152 467 -889 
C 486 -895 518 -895 531 -895 
C 723 -895 851 -729 851 -582 
C 851 -435 730 -384 634 -384 
C 531 -384 307 -458 307 -759 
C 307 -1071 582 -1286 947 -1286 
C 1587 -1286 2234 -700 2413 6 
L 3040 2485 
C 3046 2517 3059 2556 3059 2594 
C 3059 2689 2982 2753 2886 2753 
C 2829 2753 2694 2727 2643 2535 
L 2170 658 
C 2138 543 2138 530 2086 460 
C 1958 281 1747 64 1440 64 
C 1082 64 1050 415 1050 588 
C 1050 952 1222 1443 1395 1903 
C 1466 2088 1504 2178 1504 2305 
C 1504 2574 1312 2816 998 2816 
C 410 2816 173 1890 173 1839 
C 173 1814 198 1782 243 1782 
C 301 1782 307 1807 333 1897 
C 486 2433 730 2689 979 2689 
C 1037 2689 1146 2689 1146 2478 
C 1146 2312 1075 2127 979 1884 
C 666 1047 666 837 666 683 
C 666 77 1101 -64 1421 -64 
C 1606 -64 1837 -6 2061 230 
L 2067 224 
C 1971 -147 1907 -392 1683 -700 
z
" transform="scale(0.015625)"/>
      </defs>
      <use xlink:href="#CMMI12-79" transform="scale(0.996264)"/>
     </g>
    </g>
   </g>
   <g id="line2d_1">
    <defs>
     <path id="m9e288b089f" d="M 3 0 
L -3 -3 
L -3 3 
z
" style="stroke: #000000; stroke-linejoin: miter"/>
    </defs>
    <g>
     <use xlink:href="#m9e288b089f" x="447" y="179.532236" style="stroke: #000000; stroke-linejoin: miter"/>
    </g>
   </g>
   <g id="line2d_2">
    <defs>
     <path id="m0f3fc593a1" d="M 0 -3 
L -3 3 
L 3 3 
z
" style="stroke: #000000; stroke-linejoin: miter"/>
    </defs>
    <g>
     <use xlink:href="#m0f3fc593a1" x="228.9" y="24.264473" style="stroke: #000000; stroke-linejoin: miter"/>
    </g>
   </g>
   <g id="line2d_3">
    <path d="M 10.8 319.560757 
L 53.088498 295.789344 
L 76.842491 282.673458 
L 92.287912 274.383998 
L 103.259487 268.73542 
L 111.461538 264.751187 
L 117.852747 261.883048 
L 122.965714 259.821372 
L 127.22652 258.338017 
L 130.741685 257.34305 
L 133.724249 256.722306 
L 136.280733 256.40856 
L 138.517656 256.349944 
L 140.541538 256.519757 
L 142.352381 256.898844 
L 143.950183 257.455951 
L 145.441465 258.208682 
L 146.826227 259.154365 
L 148.104469 260.284514 
L 149.382711 261.715671 
L 150.554432 263.349419 
L 151.726154 265.359322 
L 152.897875 267.830819 
L 154.069597 270.874902 
L 155.134799 274.261321 
L 156.2 278.386046 
L 157.265201 283.440645 
L 158.330403 289.68276 
L 159.289084 296.605106 
L 160.247766 305.126196 
L 161.206447 315.732374 
L 162.165128 329.109194 
L 163.017289 344.11727 
L 163.140907 346.6 
M 185.788276 346.6 
L 186.664762 329.263276 
L 187.729963 312.447504 
L 188.795165 299.050243 
L 189.966886 287.193994 
L 191.138608 277.571352 
L 192.41685 268.967758 
L 193.695092 261.852518 
L 195.079853 255.414944 
L 196.464615 249.988854 
L 197.955897 245.014966 
L 199.5537 240.459052 
L 201.258022 236.280135 
L 203.068864 232.434714 
L 204.986227 228.879623 
L 207.11663 225.410504 
L 209.353553 222.188169 
L 211.803516 219.038507 
L 214.57304 215.843427 
L 217.662125 212.626112 
L 221.177289 209.297265 
L 225.118535 205.875832 
L 229.698901 202.200461 
L 235.024908 198.218637 
L 241.309597 193.804498 
L 248.766007 188.844403 
L 257.7137 183.165304 
L 268.259194 176.740217 
L 279.97641 169.862659 
L 291.267546 163.484759 
L 300.641319 158.431666 
L 307.778168 154.823057 
L 313.104176 152.365874 
L 317.151941 150.733484 
L 320.241026 149.717525 
L 322.690989 149.140707 
L 324.608352 148.908816 
L 326.206154 148.937222 
L 327.484396 149.171258 
L 328.549597 149.569799 
L 329.508278 150.148456 
L 330.36044 150.903994 
L 331.212601 151.976178 
L 331.958242 153.280242 
L 332.703883 155.078316 
L 333.343004 157.194496 
L 333.982125 160.112093 
L 334.514725 163.478293 
L 335.047326 168.193354 
L 335.579927 175.166584 
L 336.006007 183.618273 
L 336.432088 196.953649 
L 336.751648 213.293778 
L 337.071209 241.652526 
L 337.284249 275.781928 
L 337.504712 346.6 
M 337.998453 346.6 
L 338.006315 -1 
M 338.650902 -1 
L 338.882051 32.637407 
L 339.308132 64.052776 
L 339.734212 80.345814 
L 340.266813 92.156938 
L 340.799414 99.437308 
L 341.438535 105.115004 
L 342.077656 108.919806 
L 342.823297 111.974714 
L 343.568938 114.104277 
L 344.314579 115.633751 
L 345.16674 116.885557 
L 346.018901 117.768845 
L 346.977582 118.452025 
L 348.042784 118.935428 
L 349.214505 119.227127 
L 350.599267 119.340539 
L 352.30359 119.238318 
L 354.327473 118.878706 
L 356.777436 118.211087 
L 359.86652 117.13211 
L 363.914286 115.466181 
L 369.133773 113.063981 
L 376.164103 109.57036 
L 385.963956 104.435694 
L 400.131136 96.743764 
L 421.967766 84.612702 
L 447 70.534266 
L 447 70.534266 
" clip-path="url(#pbedd74db99)" style="fill: none; stroke: #0072b2; stroke-width: 3; stroke-linecap: square"/>
   </g>
   <g id="line2d_4">
    <path d="M 10.79792 319.274408 
L 447.00208 70.843617 
L 447.00208 70.843617 
" clip-path="url(#pbedd74db99)" style="fill: none; stroke-dasharray: 11.1,4.8; stroke-dashoffset: 0; stroke: #dc5e8b; stroke-width: 3"/>
   </g>
   <g id="LineCollection_1">
    <path d="M 337.95 346.6 
L 337.95 -1 
" clip-path="url(#pbedd74db99)" style="fill: none; stroke-dasharray: 11.1,4.8; stroke-dashoffset: 0; stroke: #dc5e8b; stroke-width: 3"/>
   </g>
   <g id="LineCollection_2">
    <path d="M 174.375 346.6 
L 174.375 -1 
" clip-path="url(#pbedd74db99)" style="fill: none; stroke-dasharray: 11.1,4.8; stroke-dashoffset: 0; stroke: #dc5e8b; stroke-width: 3"/>
   </g>
   <g id="patch_3">
    <path d="M 228.9 334.8 
L 228.9 24.264473 
" style="fill: none; stroke: #000000; stroke-width: 0.8; stroke-linejoin: miter; stroke-linecap: square"/>
   </g>
   <g id="patch_4">
    <path d="M 447 334.8 
L 447 24.264473 
" style="fill: none"/>
   </g>
   <g id="patch_5">
    <path d="M 10.8 179.532236 
L 447 179.532236 
" style="fill: none; stroke: #000000; stroke-width: 0.8; stroke-linejoin: miter; stroke-linecap: square"/>
   </g>
   <g id="patch_6">
    <path d="M 10.8 24.264473 
L 447 24.264473 
" style="fill: none"/>
   </g>
   <g id="text_3">
    <g id="patch_7">
     <path d="M 65.325 70.131476 
L 85.587851 70.131476 
Q 94.587851 70.131476 94.587851 61.131476 
L 94.587851 34.56253 
Q 94.587851 25.56253 85.587851 25.56253 
L 65.325 25.56253 
Q 56.325 25.56253 56.325 34.56253 
L 56.325 61.131476 
Q 56.325 70.131476 65.325 70.131476 
z
" style="fill: #ffffff; stroke: #000000; stroke-linejoin: miter"/>
    </g>
    <!-- D -->
    <g transform="translate(65.325 55.318026) scale(0.3 -0.3)">
     <defs>
      <path id="CMSS17-44" d="M 570 4416 
L 570 0 
L 2144 0 
C 3194 0 4000 980 4000 2170 
C 4000 3398 3194 4416 2144 4416 
L 570 4416 
z
M 1094 357 
L 1094 4059 
L 2003 4059 
C 2861 4059 3475 3277 3475 2170 
C 3475 1107 2867 357 2003 357 
L 1094 357 
z
" transform="scale(0.015625)"/>
     </defs>
     <use xlink:href="#CMSS17-44" transform="scale(0.996264)"/>
    </g>
   </g>
  </g>
 </g>
 <defs>
  <clipPath id="pbedd74db99">
   <rect x="10.8" y="24.264473" width="436.2" height="310.535527"/>
  </clipPath>
 </defs>
</svg>
