<?xml version="1.0" encoding="utf-8" standalone="no"?>
<!DOCTYPE svg PUBLIC "-//W3C//DTD SVG 1.1//EN"
  "http://www.w3.org/Graphics/SVG/1.1/DTD/svg11.dtd">
<svg xmlns:xlink="http://www.w3.org/1999/xlink" width="576pt" height="216pt" viewBox="0 0 576 216" xmlns="http://www.w3.org/2000/svg" version="1.1">
 <metadata>
  <rdf:RDF xmlns:dc="http://purl.org/dc/elements/1.1/" xmlns:cc="http://creativecommons.org/ns#" xmlns:rdf="http://www.w3.org/1999/02/22-rdf-syntax-ns#">
   <cc:Work>
    <dc:type rdf:resource="http://purl.org/dc/dcmitype/StillImage"/>
    <dc:date>2025-11-14T00:19:45.525055</dc:date>
    <dc:format>image/svg+xml</dc:format>
    <dc:creator>
     <cc:Agent>
      <dc:title>Matplotlib v3.9.1, https://matplotlib.org/</dc:title>
     </cc:Agent>
    </dc:creator>
   </cc:Work>
  </rdf:RDF>
 </metadata>
 <defs>
  <style type="text/css">*{stroke-linejoin: round; stroke-linecap: butt}</style>
 </defs>
 <g id="figure_1">
  <g id="patch_1">
   <path d="M 0 216 
L 576 216 
L 576 0 
L 0 0 
L 0 216 
z
" style="fill: none"/>
  </g>
  <g id="axes_1">
   <g id="patch_2">
    <path d="M 67.246859 203.903685 
L 562.2 203.903685 
L 562.2 53.538653 
L 67.246859 53.538653 
L 67.246859 203.903685 
z
" style="fill: none"/>
   </g>
   <g id="matplotlib.axis_1">
    <g id="xtick_1">
     <g id="line2d_1">
      <defs>
       <path id="mc1edeb03f4" d="M 0 0 
L 0 -10 
" style="stroke: #000000; stroke-width: 0.8"/>
      </defs>
      <g>
       <use xlink:href="#mc1edeb03f4" x="239.730529" y="53.538653" style="stroke: #000000; stroke-width: 0.8"/>
      </g>
     </g>
     <g id="text_1">
      <!-- $-1$ -->
      <g transform="translate(229.629538 36.939177) scale(0.16 -0.16)">
       <defs>
        <path id="CMSY10-0" d="M 4218 1472 
C 4326 1472 4442 1472 4442 1600 
C 4442 1728 4326 1728 4218 1728 
L 755 1728 
C 646 1728 531 1728 531 1600 
C 531 1472 646 1472 755 1472 
L 4218 1472 
z
" transform="scale(0.015625)"/>
        <path id="CMR17-31" d="M 1702 4058 
C 1702 4192 1696 4192 1606 4192 
C 1357 3916 979 3827 621 3827 
C 602 3827 570 3827 563 3808 
C 557 3795 557 3782 557 3648 
C 755 3648 1088 3686 1344 3839 
L 1344 461 
C 1344 236 1331 160 781 160 
L 589 160 
L 589 0 
C 896 0 1216 0 1523 0 
C 1830 0 2150 0 2458 0 
L 2458 160 
L 2266 160 
C 1715 160 1702 230 1702 458 
L 1702 4058 
z
" transform="scale(0.015625)"/>
       </defs>
       <use xlink:href="#CMSY10-0" transform="scale(0.996264)"/>
       <use xlink:href="#CMR17-31" transform="translate(77.487468 0) scale(0.996264)"/>
      </g>
     </g>
    </g>
    <g id="xtick_2">
     <g id="line2d_2">
      <g>
       <use xlink:href="#mc1edeb03f4" x="389.71633" y="53.538653" style="stroke: #000000; stroke-width: 0.8"/>
      </g>
     </g>
     <g id="text_2">
      <!-- $1$ -->
      <g transform="translate(385.814336 36.939177) scale(0.16 -0.16)">
       <use xlink:href="#CMR17-31" transform="scale(0.996264)"/>
      </g>
     </g>
    </g>
    <g id="text_3">
     <!-- $x$ -->
     <g transform="translate(553.33055 21.869588) scale(0.16 -0.16)">
      <defs>
       <path id="CMMI12-78" d="M 3034 2606 
C 2829 2567 2752 2414 2752 2293 
C 2752 2139 2874 2088 2963 2088 
C 3155 2088 3290 2254 3290 2427 
C 3290 2695 2982 2816 2714 2816 
C 2323 2816 2106 2433 2048 2312 
C 1901 2816 1504 2816 1389 2816 
C 736 2816 390 1980 390 1839 
C 390 1814 416 1782 461 1782 
C 512 1782 525 1820 538 1846 
C 755 2555 1184 2689 1370 2689 
C 1658 2689 1715 2420 1715 2267 
C 1715 2127 1677 1980 1600 1673 
L 1382 798 
C 1286 415 1101 64 762 64 
C 730 64 570 64 435 147 
C 666 192 717 383 717 460 
C 717 588 621 664 499 664 
C 346 664 179 530 179 326 
C 179 57 480 -64 755 -64 
C 1062 -64 1280 179 1414 441 
C 1517 64 1837 -64 2074 -64 
C 2726 -64 3072 773 3072 913 
C 3072 945 3046 971 3008 971 
C 2950 971 2944 939 2925 888 
C 2752 326 2381 64 2093 64 
C 1869 64 1747 230 1747 492 
C 1747 632 1773 734 1875 1156 
L 2099 2024 
C 2195 2408 2413 2689 2707 2689 
C 2720 2689 2899 2689 3034 2606 
z
" transform="scale(0.015625)"/>
      </defs>
      <use xlink:href="#CMMI12-78" transform="scale(0.996264)"/>
     </g>
    </g>
   </g>
   <g id="matplotlib.axis_2"/>
   <g id="line2d_3">
    <defs>
     <path id="m3883ff35a4" d="M 3 0 
L -3 -3 
L -3 3 
z
" style="stroke: #000000; stroke-linejoin: miter"/>
    </defs>
    <g>
     <use xlink:href="#m3883ff35a4" x="562.2" y="60.373427" style="stroke: #000000; stroke-linejoin: miter"/>
    </g>
   </g>
   <g id="line2d_4">
    <path d="M 67.246859 105.938588 
L 230.731381 105.938588 
" clip-path="url(#p1e0ebae6ea)" style="fill: none; stroke-dasharray: 7.4,3.2; stroke-dashoffset: 0; stroke: #0000ff; stroke-width: 2"/>
   </g>
   <g id="line2d_5">
    <path d="M 248.729677 105.938588 
L 562.2 105.938588 
" clip-path="url(#p1e0ebae6ea)" style="fill: none; stroke: #ff0000; stroke-width: 2; stroke-linecap: square"/>
   </g>
   <g id="line2d_6">
    <path d="M 67.246859 151.503749 
L 380.717182 151.503749 
" clip-path="url(#p1e0ebae6ea)" style="fill: none; stroke-dasharray: 7.4,3.2; stroke-dashoffset: 0; stroke: #0000ff; stroke-width: 2"/>
   </g>
   <g id="line2d_7">
    <path d="M 398.715478 151.503749 
L 562.2 151.503749 
" clip-path="url(#p1e0ebae6ea)" style="fill: none; stroke: #ff0000; stroke-width: 2; stroke-linecap: square"/>
   </g>
   <g id="line2d_8">
    <path d="M 67.246859 197.068911 
L 230.731381 197.068911 
" clip-path="url(#p1e0ebae6ea)" style="fill: none; stroke: #ff0000; stroke-width: 2; stroke-linecap: square"/>
   </g>
   <g id="line2d_9">
    <path d="M 248.729677 197.068911 
L 380.717182 197.068911 
" clip-path="url(#p1e0ebae6ea)" style="fill: none; stroke-dasharray: 7.4,3.2; stroke-dashoffset: 0; stroke: #0000ff; stroke-width: 2"/>
   </g>
   <g id="line2d_10">
    <path d="M 398.715478 197.068911 
L 562.2 197.068911 
" clip-path="url(#p1e0ebae6ea)" style="fill: none; stroke: #ff0000; stroke-width: 2; stroke-linecap: square"/>
   </g>
   <g id="line2d_11">
    <path d="M 239.730529 174.28633 
L 239.730529 115.05162 
" clip-path="url(#p1e0ebae6ea)" style="fill: none; stroke: #000000; stroke-linecap: square"/>
   </g>
   <g id="line2d_12">
    <path d="M 239.730529 96.825556 
L 239.730529 78.599491 
" clip-path="url(#p1e0ebae6ea)" style="fill: none; stroke: #000000; stroke-linecap: square"/>
   </g>
   <g id="line2d_13">
    <path d="M 389.71633 174.28633 
L 389.71633 160.616782 
" clip-path="url(#p1e0ebae6ea)" style="fill: none; stroke: #000000; stroke-linecap: square"/>
   </g>
   <g id="line2d_14">
    <path d="M 389.71633 142.390717 
L 389.71633 78.599491 
" clip-path="url(#p1e0ebae6ea)" style="fill: none; stroke: #000000; stroke-linecap: square"/>
   </g>
   <g id="patch_3">
    <path d="M 67.246859 203.903685 
L 67.246859 53.538653 
" style="fill: none"/>
   </g>
   <g id="patch_4">
    <path d="M 562.2 203.903685 
L 562.2 53.538653 
" style="fill: none"/>
   </g>
   <g id="patch_5">
    <path d="M 67.246859 60.373427 
L 562.2 60.373427 
" style="fill: none; stroke: #000000; stroke-width: 0.8; stroke-linejoin: miter; stroke-linecap: square"/>
   </g>
   <g id="patch_6">
    <path d="M 67.246859 53.538653 
L 562.2 53.538653 
" style="fill: none"/>
   </g>
   <g id="text_4">
    <!-- $x + 1$ -->
    <g transform="translate(8.8515 109.923644) scale(0.16 -0.16)">
     <defs>
      <path id="CMR17-2b" d="M 2413 1472 
L 4109 1472 
C 4198 1472 4307 1472 4307 1580 
C 4307 1695 4205 1695 4109 1695 
L 2413 1695 
L 2413 3386 
C 2413 3475 2413 3584 2304 3584 
C 2189 3584 2189 3482 2189 3386 
L 2189 1695 
L 493 1695 
C 403 1695 294 1695 294 1587 
C 294 1472 397 1472 493 1472 
L 2189 1472 
L 2189 -218 
C 2189 -307 2189 -416 2298 -416 
C 2413 -416 2413 -314 2413 -218 
L 2413 1472 
z
" transform="scale(0.015625)"/>
     </defs>
     <use xlink:href="#CMMI12-78" transform="scale(0.996264)"/>
     <use xlink:href="#CMR17-2b" transform="translate(77.573267 0) scale(0.996264)"/>
     <use xlink:href="#CMR17-31" transform="translate(171.427262 0) scale(0.996264)"/>
    </g>
   </g>
   <g id="text_5">
    <!-- $0$ -->
    <g transform="translate(235.161481 110.91927) scale(0.2 -0.2)">
     <defs>
      <path id="CMR17-30" d="M 2688 2025 
C 2688 2416 2682 3080 2413 3591 
C 2176 4039 1798 4198 1466 4198 
C 1158 4198 768 4058 525 3597 
C 269 3118 243 2524 243 2025 
C 243 1661 250 1106 448 619 
C 723 -39 1216 -128 1466 -128 
C 1760 -128 2208 -7 2470 600 
C 2662 1042 2688 1559 2688 2025 
z
M 1466 -26 
C 1056 -26 813 325 723 812 
C 653 1188 653 1738 653 2096 
C 653 2588 653 2997 736 3387 
C 858 3929 1216 4096 1466 4096 
C 1728 4096 2067 3923 2189 3400 
C 2272 3036 2278 2607 2278 2096 
C 2278 1680 2278 1169 2202 792 
C 2067 95 1690 -26 1466 -26 
z
" transform="scale(0.015625)"/>
     </defs>
     <use xlink:href="#CMR17-30" transform="scale(0.996264)"/>
    </g>
   </g>
   <g id="text_6">
    <!-- $x - 1$ -->
    <g transform="translate(8.593039 155.488805) scale(0.16 -0.16)">
     <use xlink:href="#CMMI12-78" transform="scale(0.996264)"/>
     <use xlink:href="#CMSY10-0" transform="translate(77.573267 0) scale(0.996264)"/>
     <use xlink:href="#CMR17-31" transform="translate(177.199941 0) scale(0.996264)"/>
    </g>
   </g>
   <g id="text_7">
    <!-- $0$ -->
    <g transform="translate(385.147282 156.484431) scale(0.2 -0.2)">
     <use xlink:href="#CMR17-30" transform="scale(0.996264)"/>
    </g>
   </g>
   <g id="text_8">
    <!-- $h(x)$ -->
    <g transform="translate(14.755264 201.053967) scale(0.16 -0.16)">
     <defs>
      <path id="CMMI12-68" d="M 1798 4257 
C 1805 4283 1818 4321 1818 4352 
C 1818 4416 1754 4416 1741 4416 
C 1734 4416 1421 4388 1389 4380 
C 1280 4373 1184 4358 1069 4358 
C 909 4345 864 4339 864 4224 
C 864 4160 915 4160 1005 4160 
C 1318 4160 1325 4103 1325 4040 
C 1325 4002 1312 3951 1306 3932 
L 378 248 
C 352 152 352 140 352 101 
C 352 -38 461 -64 525 -64 
C 634 -64 717 19 749 89 
L 1037 1245 
C 1069 1386 1107 1520 1139 1660 
C 1210 1929 1210 1935 1331 2120 
C 1453 2305 1741 2689 2234 2689 
C 2490 2689 2579 2497 2579 2242 
C 2579 1884 2330 1188 2189 805 
C 2131 651 2099 568 2099 453 
C 2099 166 2298 -64 2605 -64 
C 3200 -64 3424 875 3424 913 
C 3424 945 3398 971 3360 971 
C 3302 971 3296 952 3264 843 
C 3117 332 2880 64 2624 64 
C 2560 64 2458 64 2458 269 
C 2458 436 2534 640 2560 710 
C 2675 1018 2963 1773 2963 2145 
C 2963 2528 2739 2816 2253 2816 
C 1888 2816 1568 2644 1306 2312 
L 1798 4257 
z
" transform="scale(0.015625)"/>
      <path id="CMR17-28" d="M 1958 -1561 
C 1958 -1555 1958 -1542 1939 -1523 
C 1645 -1224 858 -407 858 1581 
C 858 3569 1632 4379 1946 4697 
C 1946 4704 1958 4717 1958 4736 
C 1958 4755 1939 4768 1914 4768 
C 1843 4768 1299 4296 986 3594 
C 666 2887 576 2199 576 1588 
C 576 1128 621 351 1005 -471 
C 1312 -1135 1837 -1600 1914 -1600 
C 1946 -1600 1958 -1587 1958 -1561 
z
" transform="scale(0.015625)"/>
      <path id="CMR17-29" d="M 1683 1581 
C 1683 2040 1638 2817 1254 3639 
C 947 4303 422 4768 346 4768 
C 326 4768 301 4761 301 4729 
C 301 4717 307 4710 314 4697 
C 621 4378 1402 3568 1402 1584 
C 1402 -407 627 -1217 314 -1537 
C 307 -1549 301 -1556 301 -1568 
C 301 -1600 326 -1600 346 -1600 
C 416 -1600 960 -1128 1274 -426 
C 1594 281 1683 969 1683 1581 
z
" transform="scale(0.015625)"/>
     </defs>
     <use xlink:href="#CMMI12-68" transform="scale(0.996264)"/>
     <use xlink:href="#CMR17-28" transform="translate(56.154624 0) scale(0.996264)"/>
     <use xlink:href="#CMMI12-78" transform="translate(91.435392 0) scale(0.996264)"/>
     <use xlink:href="#CMR17-29" transform="translate(146.869451 0) scale(0.996264)"/>
    </g>
   </g>
   <g id="text_9">
    <!-- $0$ -->
    <g transform="translate(235.161481 202.049592) scale(0.2 -0.2)">
     <use xlink:href="#CMR17-30" transform="scale(0.996264)"/>
    </g>
   </g>
   <g id="text_10">
    <!-- $0$ -->
    <g transform="translate(385.147282 202.049592) scale(0.2 -0.2)">
     <use xlink:href="#CMR17-30" transform="scale(0.996264)"/>
    </g>
   </g>
  </g>
 </g>
 <defs>
  <clipPath id="p1e0ebae6ea">
   <rect x="67.246859" y="53.538653" width="494.953141" height="150.365032"/>
  </clipPath>
 </defs>
</svg>
