<svg xmlns:xlink="http://www.w3.org/1999/xlink" xmlns="http://www.w3.org/2000/svg" width="453.6pt" height="338.54pt" viewBox="0 0 453.6 338.54" version="1.1">
 
 <defs>
  <style type="text/css">*{stroke-linejoin: round; stroke-linecap: butt}</style>
 </defs>
 <g id="figure_1">
  <g id="patch_1">
   <path d="M 0 338.54  L 453.6 338.54  L 453.6 0  L 0 0  L 0 338.54  z " style="fill: none; opacity: 0" id="mb_auto_path_0"/>
  </g>
  <g id="axes_1">
   <g id="patch_2">
    <path d="M 7.2 331.34  L 443.4 331.34  L 443.4 16.556315  L 7.2 16.556315  L 7.2 331.34  z " style="fill: none; opacity: 0" id="mb_auto_path_1"/>
   </g>
   <g id="matplotlib.axis_1">
    <g id="xtick_1">
     <g id="line2d_1">
      <path d="M 79.9 331.34  L 79.9 16.556315  " clip-path="url(#pb2a922b9b0)" style="fill: none; stroke-dasharray: 2.96,1.28; stroke-dashoffset: 0; stroke: #b0b0b0; stroke-opacity: 0.6; stroke-width: 0.8" id="mb_auto_path_2"/>
     </g>
     <g id="line2d_2">
      <defs>
       <path id="m95c9686a9f" d="M 0 0  L 0 3.5  " style="stroke: #000000; stroke-width: 0.8"/>
      </defs>
      <g id="mb_auto_g_0">
       <use xlink:href="#m95c9686a9f" x="79.9" y="173.948158" style="stroke: #000000; stroke-width: 0.8" id="mb_auto_use_0"/>
      </g>
     </g>
     <g id="text_1">
      <!-- $\mathdefault{−1}$ -->
      <g transform="translate(67.582209 194.785154) scale(0.2 -0.2)" id="mb_auto_g_1">
       <defs>
        <path id="CMSY10-0" d="M 4218 1472  C 4326 1472 4442 1472 4442 1600  C 4442 1728 4326 1728 4218 1728  L 755 1728  C 646 1728 531 1728 531 1600  C 531 1472 646 1472 755 1472  L 4218 1472  z " transform="scale(0.015625)"/>
        <path id="CMR17-31" d="M 1702 4058  C 1702 4192 1696 4192 1606 4192  C 1357 3916 979 3827 621 3827  C 602 3827 570 3827 563 3808  C 557 3795 557 3782 557 3648  C 755 3648 1088 3686 1344 3839  L 1344 461  C 1344 236 1331 160 781 160  L 589 160  L 589 0  C 896 0 1216 0 1523 0  C 1830 0 2150 0 2458 0  L 2458 160  L 2266 160  C 1715 160 1702 230 1702 458  L 1702 4058  z " transform="scale(0.015625)"/>
       </defs>
       <use xlink:href="#CMSY10-0" transform="scale(0.996264)" id="mb_auto_use_1"/>
       <use xlink:href="#CMR17-31" transform="translate(77.487468 0) scale(0.996264)" id="mb_auto_use_2"/>
      </g>
     </g>
    </g>
    <g id="xtick_2">
     <g id="line2d_3">
      <path d="M 370.7 331.34  L 370.7 16.556315  " clip-path="url(#pb2a922b9b0)" style="fill: none; stroke-dasharray: 2.96,1.28; stroke-dashoffset: 0; stroke: #b0b0b0; stroke-opacity: 0.6; stroke-width: 0.8" id="mb_auto_path_3"/>
     </g>
     <g id="line2d_4">
      <g id="mb_auto_g_2">
       <use xlink:href="#m95c9686a9f" x="370.7" y="173.948158" style="stroke: #000000; stroke-width: 0.8" id="mb_auto_use_3"/>
      </g>
     </g>
     <g id="text_2">
      <!-- $\mathdefault{1}$ -->
      <g transform="translate(366.130952 194.785154) scale(0.2 -0.2)" id="mb_auto_g_3">
       <use xlink:href="#CMR17-31" transform="scale(0.996264)" id="mb_auto_use_4"/>
      </g>
     </g>
    </g>
    <g id="text_3">
     <!-- $x$ -->
     <g transform="translate(432.313188 216.497785) scale(0.2 -0.2)" id="mb_auto_g_4">
      <defs>
       <path id="CMMI12-78" d="M 3034 2606  C 2829 2567 2752 2414 2752 2293  C 2752 2139 2874 2088 2963 2088  C 3155 2088 3290 2254 3290 2427  C 3290 2695 2982 2816 2714 2816  C 2323 2816 2106 2433 2048 2312  C 1901 2816 1504 2816 1389 2816  C 736 2816 390 1980 390 1839  C 390 1814 416 1782 461 1782  C 512 1782 525 1820 538 1846  C 755 2555 1184 2689 1370 2689  C 1658 2689 1715 2420 1715 2267  C 1715 2127 1677 1980 1600 1673  L 1382 798  C 1286 415 1101 64 762 64  C 730 64 570 64 435 147  C 666 192 717 383 717 460  C 717 588 621 664 499 664  C 346 664 179 530 179 326  C 179 57 480 -64 755 -64  C 1062 -64 1280 179 1414 441  C 1517 64 1837 -64 2074 -64  C 2726 -64 3072 773 3072 913  C 3072 945 3046 971 3008 971  C 2950 971 2944 939 2925 888  C 2752 326 2381 64 2093 64  C 1869 64 1747 230 1747 492  C 1747 632 1773 734 1875 1156  L 2099 2024  C 2195 2408 2413 2689 2707 2689  C 2720 2689 2899 2689 3034 2606  z " transform="scale(0.015625)"/>
      </defs>
      <use xlink:href="#CMMI12-78" transform="scale(0.996264)" id="mb_auto_use_5"/>
     </g>
    </g>
   </g>
   <g id="matplotlib.axis_2">
    <g id="ytick_1">
     <g id="line2d_5">
      <path d="M 7.2 278.876053  L 443.4 278.876053  " clip-path="url(#pb2a922b9b0)" style="fill: none; stroke-dasharray: 2.96,1.28; stroke-dashoffset: 0; stroke: #b0b0b0; stroke-opacity: 0.6; stroke-width: 0.8" id="mb_auto_path_4"/>
     </g>
     <g id="line2d_6">
      <defs>
       <path id="m66b7b83e7e" d="M 0 0  L -3.5 0  " style="stroke: #000000; stroke-width: 0.8"/>
      </defs>
      <g id="mb_auto_g_5">
       <use xlink:href="#m66b7b83e7e" x="225.3" y="278.876053" style="stroke: #000000; stroke-width: 0.8" id="mb_auto_use_6"/>
      </g>
     </g>
     <g id="text_4">
      <!-- $\mathdefault{−1}$ -->
      <g transform="translate(193.664417 285.794551) scale(0.2 -0.2)" id="mb_auto_g_6">
       <use xlink:href="#CMSY10-0" transform="scale(0.996264)" id="mb_auto_use_7"/>
       <use xlink:href="#CMR17-31" transform="translate(77.487468 0) scale(0.996264)" id="mb_auto_use_8"/>
      </g>
     </g>
    </g>
    <g id="ytick_2">
     <g id="line2d_7">
      <path d="M 7.2 69.020263  L 443.4 69.020263  " clip-path="url(#pb2a922b9b0)" style="fill: none; stroke-dasharray: 2.96,1.28; stroke-dashoffset: 0; stroke: #b0b0b0; stroke-opacity: 0.6; stroke-width: 0.8" id="mb_auto_path_5"/>
     </g>
     <g id="line2d_8">
      <g id="mb_auto_g_7">
       <use xlink:href="#m66b7b83e7e" x="225.3" y="69.020263" style="stroke: #000000; stroke-width: 0.8" id="mb_auto_use_9"/>
      </g>
     </g>
     <g id="text_5">
      <!-- $\mathdefault{1}$ -->
      <g transform="translate(209.161905 75.938761) scale(0.2 -0.2)" id="mb_auto_g_8">
       <use xlink:href="#CMR17-31" transform="scale(0.996264)" id="mb_auto_use_10"/>
      </g>
     </g>
    </g>
    <g id="text_6">
     <!-- $y$ -->
     <g transform="translate(180.151583 12.680682) scale(0.2 -0.2)" id="mb_auto_g_9">
      <defs>
       <path id="CMMI12-79" d="M 1683 -700  C 1510 -939 1261 -1152 947 -1152  C 870 -1152 563 -1152 467 -889  C 486 -895 518 -895 531 -895  C 723 -895 851 -729 851 -582  C 851 -435 730 -384 634 -384  C 531 -384 307 -458 307 -759  C 307 -1071 582 -1286 947 -1286  C 1587 -1286 2234 -700 2413 6  L 3040 2485  C 3046 2517 3059 2556 3059 2594  C 3059 2689 2982 2753 2886 2753  C 2829 2753 2694 2727 2643 2535  L 2170 658  C 2138 543 2138 530 2086 460  C 1958 281 1747 64 1440 64  C 1082 64 1050 415 1050 588  C 1050 952 1222 1443 1395 1903  C 1466 2088 1504 2178 1504 2305  C 1504 2574 1312 2816 998 2816  C 410 2816 173 1890 173 1839  C 173 1814 198 1782 243 1782  C 301 1782 307 1807 333 1897  C 486 2433 730 2689 979 2689  C 1037 2689 1146 2689 1146 2478  C 1146 2312 1075 2127 979 1884  C 666 1047 666 837 666 683  C 666 77 1101 -64 1421 -64  C 1606 -64 1837 -6 2061 230  L 2067 224  C 1971 -147 1907 -392 1683 -700  z " transform="scale(0.015625)"/>
      </defs>
      <use xlink:href="#CMMI12-79" transform="scale(0.996264)" id="mb_auto_use_11"/>
     </g>
    </g>
   </g>
   <g id="line2d_9">
    <defs>
     <path id="mf84c12a65a" d="M 3 0  L -3 -3  L -3 3  z " style="stroke: #000000; stroke-linejoin: miter"/>
    </defs>
    <g id="mb_auto_g_10">
     <use xlink:href="#mf84c12a65a" x="443.4" y="173.948158" style="stroke: #000000; stroke-linejoin: miter" id="mb_auto_use_12"/>
    </g>
   </g>
   <g id="line2d_10">
    <defs>
     <path id="mea97506e1f" d="M 0 -3  L -3 3  L 3 3  z " style="stroke: #000000; stroke-linejoin: miter"/>
    </defs>
    <g id="mb_auto_g_11">
     <use xlink:href="#mea97506e1f" x="225.3" y="16.556315" style="stroke: #000000; stroke-linejoin: miter" id="mb_auto_use_13"/>
    </g>
   </g>
   <g id="line2d_11">
    <path d="M 225.3 173.948158  L 351.220094 121.48421  " clip-path="url(#pb2a922b9b0)" style="fill: none; stroke: #1f77b4; stroke-width: 2.5; stroke-linecap: square" id="mb_auto_path_6"/>
   </g>
   <g id="line2d_12">
    <path d="M 351.220094 121.48421  L 351.220094 173.948158  " clip-path="url(#pb2a922b9b0)" style="fill: none; stroke: #1f77b4; stroke-width: 2.5; stroke-linecap: square" id="mb_auto_path_7"/>
   </g>
   <g id="line2d_13">
    <path d="M 351.220094 173.948158  L 225.3 173.948158  " clip-path="url(#pb2a922b9b0)" style="fill: none; stroke: #1f77b4; stroke-width: 2.5; stroke-linecap: square" id="mb_auto_path_8"/>
   </g>
   <g id="patch_3">
    <path d="M 225.3 331.34  L 225.3 16.556315  " style="fill: none; stroke: #000000; stroke-width: 0.8; stroke-linejoin: miter; stroke-linecap: square" id="mb_auto_path_9"/>
   </g>
   <g id="patch_4">
    <path d="M 443.4 331.34  L 443.4 16.556315  " style="fill: none" id="mb_auto_path_10"/>
   </g>
   <g id="patch_5">
    <path d="M 7.2 173.948158  L 443.4 173.948158  " style="fill: none; stroke: #000000; stroke-width: 0.8; stroke-linejoin: miter; stroke-linecap: square" id="mb_auto_path_11"/>
   </g>
   <g id="patch_6">
    <path d="M 7.2 16.556315  L 443.4 16.556315  " style="fill: none" id="mb_auto_path_12"/>
   </g>
  </g>
 </g>
 <defs>
  <clipPath id="pb2a922b9b0">
   <rect x="7.2" y="16.556315" width="436.2" height="314.783685" id="mb_auto_rect_0"/>
  </clipPath>
 </defs>
</svg>