<?xml version="1.0" encoding="utf-8" standalone="no"?>
<!DOCTYPE svg PUBLIC "-//W3C//DTD SVG 1.1//EN"
  "http://www.w3.org/Graphics/SVG/1.1/DTD/svg11.dtd">
<svg xmlns:xlink="http://www.w3.org/1999/xlink" viewBox="0 0 460.8 345.6" xmlns="http://www.w3.org/2000/svg" version="1.1" class="graph-inline-svg" role="img" aria-label="Tilpasset figur">
 <metadata>
  <rdf:RDF xmlns:dc="http://purl.org/dc/elements/1.1/" xmlns:cc="http://creativecommons.org/ns#" xmlns:rdf="http://www.w3.org/1999/02/22-rdf-syntax-ns#">
   <cc:Work>
    <dc:type rdf:resource="http://purl.org/dc/dcmitype/StillImage"/>
    <dc:date>2026-03-27T23:10:38.988781</dc:date>
    <dc:format>image/svg+xml</dc:format>
    <dc:creator>
     <cc:Agent>
      <dc:title>Matplotlib v3.10.8, https://matplotlib.org/</dc:title>
     </cc:Agent>
    </dc:creator>
   </cc:Work>
  </rdf:RDF>
 </metadata>
 <defs>
  <style type="text/css">*{stroke-linejoin: round; stroke-linecap: butt}</style>
 </defs>
 <g id="g1f0016_f5349a_figure_1">
  <g id="g1f0016_f5349a_patch_1">
   <path d="M 0 345.6 
L 460.8 345.6 
L 460.8 0 
L 0 0 
L 0 345.6 
z
" style="fill: none"/>
  </g>
  <g id="g1f0016_f5349a_axes_1">
   <g id="g1f0016_f5349a_patch_2">
    <path d="M 10.8 334.8 
L 447 334.8 
L 447 20.016315 
L 10.8 20.016315 
L 10.8 334.8 
z
" style="fill: none"/>
   </g>
   <g id="g1f0016_f5349a_matplotlib.axis_1">
    <g id="g1f0016_f5349a_xtick_1">
     <g id="g1f0016_f5349a_line2d_1">
      <path d="M 47.15 334.8 
L 47.15 20.016315 
" clip-path="url(#g1f0016_f5349a_pde5fc650c5)" style="fill: none; stroke-dasharray: 2.96,1.28; stroke-dashoffset: 0; stroke: #b0b0b0; stroke-opacity: 0.6; stroke-width: 0.8"/>
     </g>
     <g id="g1f0016_f5349a_line2d_2">
      <defs>
       <path id="g1f0016_f5349a_mde4d8ea1a3" d="M 0 0 
L 0 3.5 
" style="stroke: #000000; stroke-width: 0.8"/>
      </defs>
      <g>
       <use xlink:href="#g1f0016_f5349a_mde4d8ea1a3" x="47.15" y="177.408158" style="stroke: #000000; stroke-width: 0.8"/>
      </g>
     </g>
     <g id="g1f0016_f5349a_text_1">
      <!-- $\mathdefault{−5}$ -->
      <g transform="translate(34.832209 198.245154) scale(0.2 -0.2)">
       <defs>
        <path id="g1f0016_f5349a_CMSY10-0" d="M 4218 1472 
C 4326 1472 4442 1472 4442 1600 
C 4442 1728 4326 1728 4218 1728 
L 755 1728 
C 646 1728 531 1728 531 1600 
C 531 1472 646 1472 755 1472 
L 4218 1472 
z
" transform="scale(0.015625)"/>
        <path id="g1f0016_f5349a_CMR17-35" d="M 730 3692 
C 794 3666 1056 3584 1325 3584 
C 1920 3584 2246 3911 2432 4100 
C 2432 4157 2432 4192 2394 4192 
C 2387 4192 2374 4192 2323 4163 
C 2099 4058 1837 3973 1517 3973 
C 1325 3973 1037 3999 723 4139 
C 653 4171 640 4171 634 4171 
C 602 4171 595 4164 595 4037 
L 595 2203 
C 595 2089 595 2057 659 2057 
C 691 2057 704 2070 736 2114 
C 941 2401 1222 2522 1542 2522 
C 1766 2522 2246 2382 2246 1289 
C 2246 1085 2246 715 2054 421 
C 1894 159 1645 25 1370 25 
C 947 25 518 320 403 814 
C 429 807 480 795 506 795 
C 589 795 749 840 749 1038 
C 749 1210 627 1280 506 1280 
C 358 1280 262 1190 262 1011 
C 262 454 704 -128 1382 -128 
C 2042 -128 2669 440 2669 1264 
C 2669 2030 2170 2624 1549 2624 
C 1222 2624 947 2503 730 2274 
L 730 3692 
z
" transform="scale(0.015625)"/>
       </defs>
       <use xlink:href="#g1f0016_f5349a_CMSY10-0" transform="scale(0.996264)"/>
       <use xlink:href="#g1f0016_f5349a_CMR17-35" transform="translate(77.487468 0) scale(0.996264)"/>
      </g>
     </g>
    </g>
    <g id="g1f0016_f5349a_xtick_2">
     <g id="g1f0016_f5349a_line2d_3">
      <path d="M 83.5 334.8 
L 83.5 20.016315 
" clip-path="url(#g1f0016_f5349a_pde5fc650c5)" style="fill: none; stroke-dasharray: 2.96,1.28; stroke-dashoffset: 0; stroke: #b0b0b0; stroke-opacity: 0.6; stroke-width: 0.8"/>
     </g>
     <g id="g1f0016_f5349a_line2d_4">
      <g>
       <use xlink:href="#g1f0016_f5349a_mde4d8ea1a3" x="83.5" y="177.408158" style="stroke: #000000; stroke-width: 0.8"/>
      </g>
     </g>
     <g id="g1f0016_f5349a_text_2">
      <!-- $\mathdefault{−4}$ -->
      <g transform="translate(71.182209 198.245154) scale(0.2 -0.2)">
       <defs>
        <path id="g1f0016_f5349a_CMR17-34" d="M 2150 4122 
C 2150 4256 2144 4256 2029 4256 
L 128 1254 
L 128 1088 
L 1779 1088 
L 1779 457 
C 1779 224 1766 160 1318 160 
L 1197 160 
L 1197 0 
C 1402 0 1747 0 1965 0 
C 2182 0 2528 0 2733 0 
L 2733 160 
L 2611 160 
C 2163 160 2150 224 2150 457 
L 2150 1088 
L 2803 1088 
L 2803 1254 
L 2150 1254 
L 2150 4122 
z
M 1798 3703 
L 1798 1254 
L 256 1254 
L 1798 3703 
z
" transform="scale(0.015625)"/>
       </defs>
       <use xlink:href="#g1f0016_f5349a_CMSY10-0" transform="scale(0.996264)"/>
       <use xlink:href="#g1f0016_f5349a_CMR17-34" transform="translate(77.487468 0) scale(0.996264)"/>
      </g>
     </g>
    </g>
    <g id="g1f0016_f5349a_xtick_3">
     <g id="g1f0016_f5349a_line2d_5">
      <path d="M 119.85 334.8 
L 119.85 20.016315 
" clip-path="url(#g1f0016_f5349a_pde5fc650c5)" style="fill: none; stroke-dasharray: 2.96,1.28; stroke-dashoffset: 0; stroke: #b0b0b0; stroke-opacity: 0.6; stroke-width: 0.8"/>
     </g>
     <g id="g1f0016_f5349a_line2d_6">
      <g>
       <use xlink:href="#g1f0016_f5349a_mde4d8ea1a3" x="119.85" y="177.408158" style="stroke: #000000; stroke-width: 0.8"/>
      </g>
     </g>
     <g id="g1f0016_f5349a_text_3">
      <!-- $\mathdefault{−3}$ -->
      <g transform="translate(107.532209 198.245154) scale(0.2 -0.2)">
       <defs>
        <path id="g1f0016_f5349a_CMR17-33" d="M 1414 2157 
C 1984 2157 2234 1662 2234 1090 
C 2234 320 1824 25 1453 25 
C 1114 25 563 194 390 693 
C 422 680 454 680 486 680 
C 640 680 755 782 755 948 
C 755 1133 614 1216 486 1216 
C 378 1216 211 1165 211 926 
C 211 335 787 -128 1466 -128 
C 2176 -128 2720 430 2720 1085 
C 2720 1707 2208 2157 1600 2227 
C 2086 2328 2554 2756 2554 3329 
C 2554 3820 2048 4179 1472 4179 
C 890 4179 378 3829 378 3329 
C 378 3110 544 3072 627 3072 
C 762 3072 877 3155 877 3321 
C 877 3486 762 3569 627 3569 
C 602 3569 570 3569 544 3557 
C 730 3959 1235 4032 1459 4032 
C 1683 4032 2106 3925 2106 3320 
C 2106 3143 2080 2828 1862 2550 
C 1670 2304 1453 2304 1242 2284 
C 1210 2284 1062 2269 1037 2269 
C 992 2263 966 2257 966 2208 
C 966 2163 973 2157 1101 2157 
L 1414 2157 
z
" transform="scale(0.015625)"/>
       </defs>
       <use xlink:href="#g1f0016_f5349a_CMSY10-0" transform="scale(0.996264)"/>
       <use xlink:href="#g1f0016_f5349a_CMR17-33" transform="translate(77.487468 0) scale(0.996264)"/>
      </g>
     </g>
    </g>
    <g id="g1f0016_f5349a_xtick_4">
     <g id="g1f0016_f5349a_line2d_7">
      <path d="M 156.2 334.8 
L 156.2 20.016315 
" clip-path="url(#g1f0016_f5349a_pde5fc650c5)" style="fill: none; stroke-dasharray: 2.96,1.28; stroke-dashoffset: 0; stroke: #b0b0b0; stroke-opacity: 0.6; stroke-width: 0.8"/>
     </g>
     <g id="g1f0016_f5349a_line2d_8">
      <g>
       <use xlink:href="#g1f0016_f5349a_mde4d8ea1a3" x="156.2" y="177.408158" style="stroke: #000000; stroke-width: 0.8"/>
      </g>
     </g>
     <g id="g1f0016_f5349a_text_4">
      <!-- $\mathdefault{−2}$ -->
      <g transform="translate(143.882209 198.245154) scale(0.2 -0.2)">
       <defs>
        <path id="g1f0016_f5349a_CMR17-32" d="M 2669 989 
L 2554 989 
C 2490 536 2438 459 2413 420 
C 2381 369 1920 369 1830 369 
L 602 369 
C 832 619 1280 1072 1824 1597 
C 2214 1967 2669 2402 2669 3035 
C 2669 3790 2067 4224 1395 4224 
C 691 4224 262 3604 262 3030 
C 262 2780 448 2748 525 2748 
C 589 2748 781 2787 781 3010 
C 781 3207 614 3264 525 3264 
C 486 3264 448 3258 422 3245 
C 544 3790 915 4058 1306 4058 
C 1862 4058 2227 3617 2227 3035 
C 2227 2479 1901 2000 1536 1584 
L 262 146 
L 262 0 
L 2515 0 
L 2669 989 
z
" transform="scale(0.015625)"/>
       </defs>
       <use xlink:href="#g1f0016_f5349a_CMSY10-0" transform="scale(0.996264)"/>
       <use xlink:href="#g1f0016_f5349a_CMR17-32" transform="translate(77.487468 0) scale(0.996264)"/>
      </g>
     </g>
    </g>
    <g id="g1f0016_f5349a_xtick_5">
     <g id="g1f0016_f5349a_line2d_9">
      <path d="M 192.55 334.8 
L 192.55 20.016315 
" clip-path="url(#g1f0016_f5349a_pde5fc650c5)" style="fill: none; stroke-dasharray: 2.96,1.28; stroke-dashoffset: 0; stroke: #b0b0b0; stroke-opacity: 0.6; stroke-width: 0.8"/>
     </g>
     <g id="g1f0016_f5349a_line2d_10">
      <g>
       <use xlink:href="#g1f0016_f5349a_mde4d8ea1a3" x="192.55" y="177.408158" style="stroke: #000000; stroke-width: 0.8"/>
      </g>
     </g>
     <g id="g1f0016_f5349a_text_5">
      <!-- $\mathdefault{−1}$ -->
      <g transform="translate(180.232209 198.245154) scale(0.2 -0.2)">
       <defs>
        <path id="g1f0016_f5349a_CMR17-31" d="M 1702 4058 
C 1702 4192 1696 4192 1606 4192 
C 1357 3916 979 3827 621 3827 
C 602 3827 570 3827 563 3808 
C 557 3795 557 3782 557 3648 
C 755 3648 1088 3686 1344 3839 
L 1344 461 
C 1344 236 1331 160 781 160 
L 589 160 
L 589 0 
C 896 0 1216 0 1523 0 
C 1830 0 2150 0 2458 0 
L 2458 160 
L 2266 160 
C 1715 160 1702 230 1702 458 
L 1702 4058 
z
" transform="scale(0.015625)"/>
       </defs>
       <use xlink:href="#g1f0016_f5349a_CMSY10-0" transform="scale(0.996264)"/>
       <use xlink:href="#g1f0016_f5349a_CMR17-31" transform="translate(77.487468 0) scale(0.996264)"/>
      </g>
     </g>
    </g>
    <g id="g1f0016_f5349a_xtick_6">
     <g id="g1f0016_f5349a_line2d_11">
      <path d="M 265.25 334.8 
L 265.25 20.016315 
" clip-path="url(#g1f0016_f5349a_pde5fc650c5)" style="fill: none; stroke-dasharray: 2.96,1.28; stroke-dashoffset: 0; stroke: #b0b0b0; stroke-opacity: 0.6; stroke-width: 0.8"/>
     </g>
     <g id="g1f0016_f5349a_line2d_12">
      <g>
       <use xlink:href="#g1f0016_f5349a_mde4d8ea1a3" x="265.25" y="177.408158" style="stroke: #000000; stroke-width: 0.8"/>
      </g>
     </g>
     <g id="g1f0016_f5349a_text_6">
      <!-- $\mathdefault{1}$ -->
      <g transform="translate(260.680952 198.245154) scale(0.2 -0.2)">
       <use xlink:href="#g1f0016_f5349a_CMR17-31" transform="scale(0.996264)"/>
      </g>
     </g>
    </g>
    <g id="g1f0016_f5349a_xtick_7">
     <g id="g1f0016_f5349a_line2d_13">
      <path d="M 301.6 334.8 
L 301.6 20.016315 
" clip-path="url(#g1f0016_f5349a_pde5fc650c5)" style="fill: none; stroke-dasharray: 2.96,1.28; stroke-dashoffset: 0; stroke: #b0b0b0; stroke-opacity: 0.6; stroke-width: 0.8"/>
     </g>
     <g id="g1f0016_f5349a_line2d_14">
      <g>
       <use xlink:href="#g1f0016_f5349a_mde4d8ea1a3" x="301.6" y="177.408158" style="stroke: #000000; stroke-width: 0.8"/>
      </g>
     </g>
     <g id="g1f0016_f5349a_text_7">
      <!-- $\mathdefault{2}$ -->
      <g transform="translate(297.030952 198.245154) scale(0.2 -0.2)">
       <use xlink:href="#g1f0016_f5349a_CMR17-32" transform="scale(0.996264)"/>
      </g>
     </g>
    </g>
    <g id="g1f0016_f5349a_xtick_8">
     <g id="g1f0016_f5349a_line2d_15">
      <path d="M 337.95 334.8 
L 337.95 20.016315 
" clip-path="url(#g1f0016_f5349a_pde5fc650c5)" style="fill: none; stroke-dasharray: 2.96,1.28; stroke-dashoffset: 0; stroke: #b0b0b0; stroke-opacity: 0.6; stroke-width: 0.8"/>
     </g>
     <g id="g1f0016_f5349a_line2d_16">
      <g>
       <use xlink:href="#g1f0016_f5349a_mde4d8ea1a3" x="337.95" y="177.408158" style="stroke: #000000; stroke-width: 0.8"/>
      </g>
     </g>
     <g id="g1f0016_f5349a_text_8">
      <!-- $\mathdefault{3}$ -->
      <g transform="translate(333.380952 198.245154) scale(0.2 -0.2)">
       <use xlink:href="#g1f0016_f5349a_CMR17-33" transform="scale(0.996264)"/>
      </g>
     </g>
    </g>
    <g id="g1f0016_f5349a_xtick_9">
     <g id="g1f0016_f5349a_line2d_17">
      <path d="M 374.3 334.8 
L 374.3 20.016315 
" clip-path="url(#g1f0016_f5349a_pde5fc650c5)" style="fill: none; stroke-dasharray: 2.96,1.28; stroke-dashoffset: 0; stroke: #b0b0b0; stroke-opacity: 0.6; stroke-width: 0.8"/>
     </g>
     <g id="g1f0016_f5349a_line2d_18">
      <g>
       <use xlink:href="#g1f0016_f5349a_mde4d8ea1a3" x="374.3" y="177.408158" style="stroke: #000000; stroke-width: 0.8"/>
      </g>
     </g>
     <g id="g1f0016_f5349a_text_9">
      <!-- $\mathdefault{4}$ -->
      <g transform="translate(369.730952 198.245154) scale(0.2 -0.2)">
       <use xlink:href="#g1f0016_f5349a_CMR17-34" transform="scale(0.996264)"/>
      </g>
     </g>
    </g>
    <g id="g1f0016_f5349a_xtick_10">
     <g id="g1f0016_f5349a_line2d_19">
      <path d="M 410.65 334.8 
L 410.65 20.016315 
" clip-path="url(#g1f0016_f5349a_pde5fc650c5)" style="fill: none; stroke-dasharray: 2.96,1.28; stroke-dashoffset: 0; stroke: #b0b0b0; stroke-opacity: 0.6; stroke-width: 0.8"/>
     </g>
     <g id="g1f0016_f5349a_line2d_20">
      <g>
       <use xlink:href="#g1f0016_f5349a_mde4d8ea1a3" x="410.65" y="177.408158" style="stroke: #000000; stroke-width: 0.8"/>
      </g>
     </g>
     <g id="g1f0016_f5349a_text_10">
      <!-- $\mathdefault{5}$ -->
      <g transform="translate(406.080952 198.245154) scale(0.2 -0.2)">
       <use xlink:href="#g1f0016_f5349a_CMR17-35" transform="scale(0.996264)"/>
      </g>
     </g>
    </g>
    <g id="g1f0016_f5349a_text_11">
     <!-- $x$ -->
     <g transform="translate(435.913188 219.957785) scale(0.2 -0.2)">
      <defs>
       <path id="g1f0016_f5349a_CMMI12-78" d="M 3034 2606 
C 2829 2567 2752 2414 2752 2293 
C 2752 2139 2874 2088 2963 2088 
C 3155 2088 3290 2254 3290 2427 
C 3290 2695 2982 2816 2714 2816 
C 2323 2816 2106 2433 2048 2312 
C 1901 2816 1504 2816 1389 2816 
C 736 2816 390 1980 390 1839 
C 390 1814 416 1782 461 1782 
C 512 1782 525 1820 538 1846 
C 755 2555 1184 2689 1370 2689 
C 1658 2689 1715 2420 1715 2267 
C 1715 2127 1677 1980 1600 1673 
L 1382 798 
C 1286 415 1101 64 762 64 
C 730 64 570 64 435 147 
C 666 192 717 383 717 460 
C 717 588 621 664 499 664 
C 346 664 179 530 179 326 
C 179 57 480 -64 755 -64 
C 1062 -64 1280 179 1414 441 
C 1517 64 1837 -64 2074 -64 
C 2726 -64 3072 773 3072 913 
C 3072 945 3046 971 3008 971 
C 2950 971 2944 939 2925 888 
C 2752 326 2381 64 2093 64 
C 1869 64 1747 230 1747 492 
C 1747 632 1773 734 1875 1156 
L 2099 2024 
C 2195 2408 2413 2689 2707 2689 
C 2720 2689 2899 2689 3034 2606 
z
" transform="scale(0.015625)"/>
      </defs>
      <use xlink:href="#g1f0016_f5349a_CMMI12-78" transform="scale(0.996264)"/>
     </g>
    </g>
   </g>
   <g id="g1f0016_f5349a_matplotlib.axis_2">
    <g id="g1f0016_f5349a_ytick_1">
     <g id="g1f0016_f5349a_line2d_21">
      <path d="M 10.8 308.568026 
L 447 308.568026 
" clip-path="url(#g1f0016_f5349a_pde5fc650c5)" style="fill: none; stroke-dasharray: 2.96,1.28; stroke-dashoffset: 0; stroke: #b0b0b0; stroke-opacity: 0.6; stroke-width: 0.8"/>
     </g>
     <g id="g1f0016_f5349a_line2d_22">
      <defs>
       <path id="g1f0016_f5349a_m056b68986c" d="M 0 0 
L -3.5 0 
" style="stroke: #000000; stroke-width: 0.8"/>
      </defs>
      <g>
       <use xlink:href="#g1f0016_f5349a_m056b68986c" x="228.9" y="308.568026" style="stroke: #000000; stroke-width: 0.8"/>
      </g>
     </g>
     <g id="g1f0016_f5349a_text_12">
      <!-- $\mathdefault{−5}$ -->
      <g transform="translate(197.264417 315.486525) scale(0.2 -0.2)">
       <use xlink:href="#g1f0016_f5349a_CMSY10-0" transform="scale(0.996264)"/>
       <use xlink:href="#g1f0016_f5349a_CMR17-35" transform="translate(77.487468 0) scale(0.996264)"/>
      </g>
     </g>
    </g>
    <g id="g1f0016_f5349a_ytick_2">
     <g id="g1f0016_f5349a_line2d_23">
      <path d="M 10.8 282.336053 
L 447 282.336053 
" clip-path="url(#g1f0016_f5349a_pde5fc650c5)" style="fill: none; stroke-dasharray: 2.96,1.28; stroke-dashoffset: 0; stroke: #b0b0b0; stroke-opacity: 0.6; stroke-width: 0.8"/>
     </g>
     <g id="g1f0016_f5349a_line2d_24">
      <g>
       <use xlink:href="#g1f0016_f5349a_m056b68986c" x="228.9" y="282.336053" style="stroke: #000000; stroke-width: 0.8"/>
      </g>
     </g>
     <g id="g1f0016_f5349a_text_13">
      <!-- $\mathdefault{−4}$ -->
      <g transform="translate(197.264417 289.254551) scale(0.2 -0.2)">
       <use xlink:href="#g1f0016_f5349a_CMSY10-0" transform="scale(0.996264)"/>
       <use xlink:href="#g1f0016_f5349a_CMR17-34" transform="translate(77.487468 0) scale(0.996264)"/>
      </g>
     </g>
    </g>
    <g id="g1f0016_f5349a_ytick_3">
     <g id="g1f0016_f5349a_line2d_25">
      <path d="M 10.8 256.104079 
L 447 256.104079 
" clip-path="url(#g1f0016_f5349a_pde5fc650c5)" style="fill: none; stroke-dasharray: 2.96,1.28; stroke-dashoffset: 0; stroke: #b0b0b0; stroke-opacity: 0.6; stroke-width: 0.8"/>
     </g>
     <g id="g1f0016_f5349a_line2d_26">
      <g>
       <use xlink:href="#g1f0016_f5349a_m056b68986c" x="228.9" y="256.104079" style="stroke: #000000; stroke-width: 0.8"/>
      </g>
     </g>
     <g id="g1f0016_f5349a_text_14">
      <!-- $\mathdefault{−3}$ -->
      <g transform="translate(197.264417 263.022577) scale(0.2 -0.2)">
       <use xlink:href="#g1f0016_f5349a_CMSY10-0" transform="scale(0.996264)"/>
       <use xlink:href="#g1f0016_f5349a_CMR17-33" transform="translate(77.487468 0) scale(0.996264)"/>
      </g>
     </g>
    </g>
    <g id="g1f0016_f5349a_ytick_4">
     <g id="g1f0016_f5349a_line2d_27">
      <path d="M 10.8 229.872105 
L 447 229.872105 
" clip-path="url(#g1f0016_f5349a_pde5fc650c5)" style="fill: none; stroke-dasharray: 2.96,1.28; stroke-dashoffset: 0; stroke: #b0b0b0; stroke-opacity: 0.6; stroke-width: 0.8"/>
     </g>
     <g id="g1f0016_f5349a_line2d_28">
      <g>
       <use xlink:href="#g1f0016_f5349a_m056b68986c" x="228.9" y="229.872105" style="stroke: #000000; stroke-width: 0.8"/>
      </g>
     </g>
     <g id="g1f0016_f5349a_text_15">
      <!-- $\mathdefault{−2}$ -->
      <g transform="translate(197.264417 236.790603) scale(0.2 -0.2)">
       <use xlink:href="#g1f0016_f5349a_CMSY10-0" transform="scale(0.996264)"/>
       <use xlink:href="#g1f0016_f5349a_CMR17-32" transform="translate(77.487468 0) scale(0.996264)"/>
      </g>
     </g>
    </g>
    <g id="g1f0016_f5349a_ytick_5">
     <g id="g1f0016_f5349a_line2d_29">
      <path d="M 10.8 203.640131 
L 447 203.640131 
" clip-path="url(#g1f0016_f5349a_pde5fc650c5)" style="fill: none; stroke-dasharray: 2.96,1.28; stroke-dashoffset: 0; stroke: #b0b0b0; stroke-opacity: 0.6; stroke-width: 0.8"/>
     </g>
     <g id="g1f0016_f5349a_line2d_30">
      <g>
       <use xlink:href="#g1f0016_f5349a_m056b68986c" x="228.9" y="203.640131" style="stroke: #000000; stroke-width: 0.8"/>
      </g>
     </g>
     <g id="g1f0016_f5349a_text_16">
      <!-- $\mathdefault{−1}$ -->
      <g transform="translate(197.264417 210.55863) scale(0.2 -0.2)">
       <use xlink:href="#g1f0016_f5349a_CMSY10-0" transform="scale(0.996264)"/>
       <use xlink:href="#g1f0016_f5349a_CMR17-31" transform="translate(77.487468 0) scale(0.996264)"/>
      </g>
     </g>
    </g>
    <g id="g1f0016_f5349a_ytick_6">
     <g id="g1f0016_f5349a_line2d_31">
      <path d="M 10.8 151.176184 
L 447 151.176184 
" clip-path="url(#g1f0016_f5349a_pde5fc650c5)" style="fill: none; stroke-dasharray: 2.96,1.28; stroke-dashoffset: 0; stroke: #b0b0b0; stroke-opacity: 0.6; stroke-width: 0.8"/>
     </g>
     <g id="g1f0016_f5349a_line2d_32">
      <g>
       <use xlink:href="#g1f0016_f5349a_m056b68986c" x="228.9" y="151.176184" style="stroke: #000000; stroke-width: 0.8"/>
      </g>
     </g>
     <g id="g1f0016_f5349a_text_17">
      <!-- $\mathdefault{1}$ -->
      <g transform="translate(212.761905 158.094682) scale(0.2 -0.2)">
       <use xlink:href="#g1f0016_f5349a_CMR17-31" transform="scale(0.996264)"/>
      </g>
     </g>
    </g>
    <g id="g1f0016_f5349a_ytick_7">
     <g id="g1f0016_f5349a_line2d_33">
      <path d="M 10.8 124.94421 
L 447 124.94421 
" clip-path="url(#g1f0016_f5349a_pde5fc650c5)" style="fill: none; stroke-dasharray: 2.96,1.28; stroke-dashoffset: 0; stroke: #b0b0b0; stroke-opacity: 0.6; stroke-width: 0.8"/>
     </g>
     <g id="g1f0016_f5349a_line2d_34">
      <g>
       <use xlink:href="#g1f0016_f5349a_m056b68986c" x="228.9" y="124.94421" style="stroke: #000000; stroke-width: 0.8"/>
      </g>
     </g>
     <g id="g1f0016_f5349a_text_18">
      <!-- $\mathdefault{2}$ -->
      <g transform="translate(212.761905 131.862709) scale(0.2 -0.2)">
       <use xlink:href="#g1f0016_f5349a_CMR17-32" transform="scale(0.996264)"/>
      </g>
     </g>
    </g>
    <g id="g1f0016_f5349a_ytick_8">
     <g id="g1f0016_f5349a_line2d_35">
      <path d="M 10.8 98.712236 
L 447 98.712236 
" clip-path="url(#g1f0016_f5349a_pde5fc650c5)" style="fill: none; stroke-dasharray: 2.96,1.28; stroke-dashoffset: 0; stroke: #b0b0b0; stroke-opacity: 0.6; stroke-width: 0.8"/>
     </g>
     <g id="g1f0016_f5349a_line2d_36">
      <g>
       <use xlink:href="#g1f0016_f5349a_m056b68986c" x="228.9" y="98.712236" style="stroke: #000000; stroke-width: 0.8"/>
      </g>
     </g>
     <g id="g1f0016_f5349a_text_19">
      <!-- $\mathdefault{3}$ -->
      <g transform="translate(212.761905 105.630735) scale(0.2 -0.2)">
       <use xlink:href="#g1f0016_f5349a_CMR17-33" transform="scale(0.996264)"/>
      </g>
     </g>
    </g>
    <g id="g1f0016_f5349a_ytick_9">
     <g id="g1f0016_f5349a_line2d_37">
      <path d="M 10.8 72.480263 
L 447 72.480263 
" clip-path="url(#g1f0016_f5349a_pde5fc650c5)" style="fill: none; stroke-dasharray: 2.96,1.28; stroke-dashoffset: 0; stroke: #b0b0b0; stroke-opacity: 0.6; stroke-width: 0.8"/>
     </g>
     <g id="g1f0016_f5349a_line2d_38">
      <g>
       <use xlink:href="#g1f0016_f5349a_m056b68986c" x="228.9" y="72.480263" style="stroke: #000000; stroke-width: 0.8"/>
      </g>
     </g>
     <g id="g1f0016_f5349a_text_20">
      <!-- $\mathdefault{4}$ -->
      <g transform="translate(212.761905 79.398761) scale(0.2 -0.2)">
       <use xlink:href="#g1f0016_f5349a_CMR17-34" transform="scale(0.996264)"/>
      </g>
     </g>
    </g>
    <g id="g1f0016_f5349a_ytick_10">
     <g id="g1f0016_f5349a_line2d_39">
      <path d="M 10.8 46.248289 
L 447 46.248289 
" clip-path="url(#g1f0016_f5349a_pde5fc650c5)" style="fill: none; stroke-dasharray: 2.96,1.28; stroke-dashoffset: 0; stroke: #b0b0b0; stroke-opacity: 0.6; stroke-width: 0.8"/>
     </g>
     <g id="g1f0016_f5349a_line2d_40">
      <g>
       <use xlink:href="#g1f0016_f5349a_m056b68986c" x="228.9" y="46.248289" style="stroke: #000000; stroke-width: 0.8"/>
      </g>
     </g>
     <g id="g1f0016_f5349a_text_21">
      <!-- $\mathdefault{5}$ -->
      <g transform="translate(212.761905 53.166787) scale(0.2 -0.2)">
       <use xlink:href="#g1f0016_f5349a_CMR17-35" transform="scale(0.996264)"/>
      </g>
     </g>
    </g>
    <g id="g1f0016_f5349a_text_22">
     <!-- $y$ -->
     <g transform="translate(183.751583 16.140682) scale(0.2 -0.2)">
      <defs>
       <path id="g1f0016_f5349a_CMMI12-79" d="M 1683 -700 
C 1510 -939 1261 -1152 947 -1152 
C 870 -1152 563 -1152 467 -889 
C 486 -895 518 -895 531 -895 
C 723 -895 851 -729 851 -582 
C 851 -435 730 -384 634 -384 
C 531 -384 307 -458 307 -759 
C 307 -1071 582 -1286 947 -1286 
C 1587 -1286 2234 -700 2413 6 
L 3040 2485 
C 3046 2517 3059 2556 3059 2594 
C 3059 2689 2982 2753 2886 2753 
C 2829 2753 2694 2727 2643 2535 
L 2170 658 
C 2138 543 2138 530 2086 460 
C 1958 281 1747 64 1440 64 
C 1082 64 1050 415 1050 588 
C 1050 952 1222 1443 1395 1903 
C 1466 2088 1504 2178 1504 2305 
C 1504 2574 1312 2816 998 2816 
C 410 2816 173 1890 173 1839 
C 173 1814 198 1782 243 1782 
C 301 1782 307 1807 333 1897 
C 486 2433 730 2689 979 2689 
C 1037 2689 1146 2689 1146 2478 
C 1146 2312 1075 2127 979 1884 
C 666 1047 666 837 666 683 
C 666 77 1101 -64 1421 -64 
C 1606 -64 1837 -6 2061 230 
L 2067 224 
C 1971 -147 1907 -392 1683 -700 
z
" transform="scale(0.015625)"/>
      </defs>
      <use xlink:href="#g1f0016_f5349a_CMMI12-79" transform="scale(0.996264)"/>
     </g>
    </g>
   </g>
   <g id="g1f0016_f5349a_line2d_41">
    <defs>
     <path id="g1f0016_f5349a_md1826dc56d" d="M 3 0 
L -3 -3 
L -3 3 
z
" style="stroke: #000000; stroke-linejoin: miter"/>
    </defs>
    <g>
     <use xlink:href="#g1f0016_f5349a_md1826dc56d" x="447" y="177.408158" style="stroke: #000000; stroke-linejoin: miter"/>
    </g>
   </g>
   <g id="g1f0016_f5349a_line2d_42">
    <defs>
     <path id="g1f0016_f5349a_m7ccd96499a" d="M 0 -3 
L -3 3 
L 3 3 
z
" style="stroke: #000000; stroke-linejoin: miter"/>
    </defs>
    <g>
     <use xlink:href="#g1f0016_f5349a_m7ccd96499a" x="228.9" y="20.016315" style="stroke: #000000; stroke-linejoin: miter"/>
    </g>
   </g>
   <g id="g1f0016_f5349a_line2d_43">
    <path d="M 10.8 152.770554 
L 11.998132 151.959343 
L 13.116389 151.457277 
L 14.181395 151.212699 
L 15.219777 151.195766 
L 16.258158 151.397716 
L 17.323164 151.830436 
L 18.441421 152.526495 
L 19.639553 153.539413 
L 20.944186 154.943626 
L 22.381945 156.83312 
L 23.979454 159.31713 
L 25.789965 162.561231 
L 27.946603 166.909203 
L 30.76887 173.142956 
L 38.064164 189.496077 
L 40.247427 193.720562 
L 42.084563 196.815646 
L 43.708698 199.132349 
L 45.146457 200.814558 
L 46.45109 202.017544 
L 47.675847 202.852028 
L 48.820729 203.365012 
L 49.885735 203.605754 
L 50.924116 203.618928 
L 51.962498 203.413233 
L 53.027504 202.976719 
L 54.145761 202.276763 
L 55.343893 201.259812 
L 56.648526 199.851425 
L 58.086285 197.957656 
L 59.683794 195.469379 
L 61.494305 192.221158 
L 63.650943 187.869407 
L 66.47321 181.632771 
L 73.741879 165.338307 
L 75.925142 161.111698 
L 77.762278 158.014369 
L 79.386413 155.695381 
L 80.824171 154.010954 
L 82.128804 152.805826 
L 83.353562 151.969247 
L 84.498444 151.454251 
L 85.56345 151.211611 
L 86.601831 151.196577 
L 87.640212 151.400418 
L 88.705219 151.835055 
L 89.823476 152.533083 
L 91.021608 153.548038 
L 92.326241 154.95436 
L 93.763999 156.846014 
L 95.361509 159.33218 
L 97.17202 162.578363 
L 99.328658 166.928245 
L 102.150925 173.163456 
L 109.419593 189.459933 
L 111.629482 193.736827 
L 113.466618 196.829617 
L 115.090753 199.143987 
L 116.528511 200.82393 
L 117.833144 202.02473 
L 119.057901 202.857074 
L 120.176158 203.3591 
L 121.241165 203.603639 
L 122.279546 203.620532 
L 123.317927 203.418545 
L 124.382934 202.985786 
L 125.50119 202.289687 
L 126.699322 201.276728 
L 128.003955 199.872472 
L 129.441714 197.982935 
L 131.039224 195.498881 
L 132.849734 192.254737 
L 135.006372 187.906726 
L 137.828639 181.672944 
L 145.123933 165.319865 
L 147.307196 161.095423 
L 149.144333 158.000386 
L 150.768467 155.68373 
L 152.206226 154.001567 
L 153.510859 152.798625 
L 154.735616 151.964185 
L 155.880498 151.451243 
L 156.945504 151.21054 
L 157.983886 151.197405 
L 159.022267 151.403137 
L 160.087273 151.83969 
L 161.20553 152.539686 
L 162.403662 153.556678 
L 163.708295 154.965108 
L 165.146054 156.85892 
L 166.743563 159.347241 
L 168.554074 162.595505 
L 170.710712 166.947294 
L 173.532979 173.183959 
L 180.801648 189.478382 
L 182.984911 193.704947 
L 184.822047 196.802229 
L 186.446182 199.12117 
L 187.883941 200.805551 
L 189.188574 202.010635 
L 190.413331 202.847171 
L 191.558213 203.362125 
L 192.623219 203.604726 
L 193.6616 203.619721 
L 194.699982 203.415842 
L 195.764988 202.981166 
L 196.883245 202.283099 
L 198.081377 201.268102 
L 199.38601 199.861738 
L 200.823769 197.970041 
L 202.421278 195.48383 
L 204.231789 192.237605 
L 206.388427 187.887684 
L 209.210694 181.652444 
L 216.479363 165.356009 
L 218.689251 161.079159 
L 220.526387 157.986415 
L 222.150522 155.672093 
L 223.588281 153.992196 
L 224.892913 152.79144 
L 226.117671 151.959139 
L 227.235927 151.457154 
L 228.300934 151.212654 
L 229.339315 151.195799 
L 230.377696 151.397825 
L 231.442703 151.830623 
L 232.56096 152.526762 
L 233.759092 153.539762 
L 235.063725 154.94406 
L 236.501483 156.833642 
L 238.098993 159.317739 
L 239.909504 162.561924 
L 242.066142 166.909974 
L 244.888409 173.143786 
L 252.183703 189.496823 
L 254.366966 193.721221 
L 256.204102 196.816212 
L 257.828237 199.132821 
L 259.265995 200.814938 
L 260.570628 202.017836 
L 261.795385 202.852233 
L 262.940267 203.365133 
L 264.005274 203.605797 
L 265.043655 203.618894 
L 266.082036 203.413123 
L 267.147043 202.976531 
L 268.265299 202.276496 
L 269.463432 201.259462 
L 270.768064 199.850989 
L 272.205823 197.957134 
L 273.803333 195.468769 
L 275.613844 192.220463 
L 277.770482 187.868635 
L 280.592749 181.631941 
L 287.861417 165.33756 
L 290.04468 161.111039 
L 291.881817 158.013803 
L 293.505951 155.694909 
L 294.94371 154.010574 
L 296.248343 152.805534 
L 297.4731 151.969041 
L 298.617982 151.454129 
L 299.682988 151.211567 
L 300.72137 151.19661 
L 301.759751 151.400528 
L 302.824757 151.835243 
L 303.943014 152.53335 
L 305.141146 153.548388 
L 306.445779 154.954795 
L 307.883538 156.846536 
L 309.481047 159.33279 
L 311.291558 162.579057 
L 313.448196 166.929017 
L 316.270463 173.164287 
L 323.539132 189.46068 
L 325.74902 193.737486 
L 327.586156 196.830183 
L 329.210291 199.144458 
L 330.64805 200.824309 
L 331.952683 202.025021 
L 333.17744 202.857278 
L 334.295697 203.359223 
L 335.360703 203.603683 
L 336.399084 203.6205 
L 337.437466 203.418436 
L 338.502472 202.985599 
L 339.620729 202.28942 
L 340.818861 201.276379 
L 342.123494 199.872038 
L 343.561253 197.982413 
L 345.158762 195.498271 
L 346.969273 192.254044 
L 349.125911 187.905956 
L 351.948178 181.672114 
L 359.243472 165.319119 
L 361.426735 161.094765 
L 363.263871 157.99982 
L 364.888006 155.683259 
L 366.325765 154.001188 
L 367.630397 152.798334 
L 368.855155 151.96398 
L 370.000037 151.451121 
L 371.065043 151.210497 
L 372.103424 151.197438 
L 373.141806 151.403247 
L 374.206812 151.839878 
L 375.325069 152.539953 
L 376.523201 153.557028 
L 377.827834 154.965544 
L 379.265592 156.859443 
L 380.863102 159.347851 
L 382.673613 162.596199 
L 384.830251 166.948066 
L 387.652518 173.18479 
L 394.921187 189.479129 
L 397.10445 193.705606 
L 398.941586 196.802796 
L 400.565721 199.121642 
L 402.003479 200.805932 
L 403.308112 202.010927 
L 404.532869 202.847376 
L 405.677751 203.362247 
L 406.742758 203.60477 
L 407.781139 203.619688 
L 408.81952 203.415732 
L 409.884527 202.980979 
L 411.002783 202.282832 
L 412.200916 201.267753 
L 413.505548 199.861303 
L 414.943307 197.969518 
L 416.540817 195.483221 
L 418.351328 192.236911 
L 420.507966 187.886913 
L 423.330233 181.651614 
L 430.598901 165.355262 
L 432.80879 161.078501 
L 434.645926 157.98585 
L 436.27006 155.671622 
L 437.707819 153.991816 
L 439.012452 152.791149 
L 440.237209 151.958935 
L 441.355466 151.457031 
L 442.420472 151.21261 
L 443.458854 151.195831 
L 444.497235 151.397934 
L 445.562241 151.83081 
L 446.680498 152.527028 
L 447 152.770554 
L 447 152.770554 
" clip-path="url(#g1f0016_f5349a_pde5fc650c5)" style="fill: none; stroke: #0072b2; stroke-width: 2.5; stroke-linecap: square"/>
   </g>
   <g id="g1f0016_f5349a_patch_3">
    <path d="M 228.9 334.8 
L 228.9 20.016315 
" style="fill: none; stroke: #000000; stroke-width: 0.8; stroke-linejoin: miter; stroke-linecap: square"/>
   </g>
   <g id="g1f0016_f5349a_patch_4">
    <path d="M 447 334.8 
L 447 20.016315 
" style="fill: none"/>
   </g>
   <g id="g1f0016_f5349a_patch_5">
    <path d="M 10.8 177.408158 
L 447 177.408158 
" style="fill: none; stroke: #000000; stroke-width: 0.8; stroke-linejoin: miter; stroke-linecap: square"/>
   </g>
   <g id="g1f0016_f5349a_patch_6">
    <path d="M 10.8 20.016315 
L 447 20.016315 
" style="fill: none"/>
   </g>
  </g>
 </g>
 <defs>
  <clipPath id="g1f0016_f5349a_pde5fc650c5">
   <rect x="10.8" y="20.016315" width="436.2" height="314.783685"/>
  </clipPath>
 </defs>
</svg>
