<?xml version="1.0" encoding="utf-8" standalone="no"?>
<!DOCTYPE svg PUBLIC "-//W3C//DTD SVG 1.1//EN"
  "http://www.w3.org/Graphics/SVG/1.1/DTD/svg11.dtd">
<svg xmlns:xlink="http://www.w3.org/1999/xlink" viewBox="0 0 460.8 345.6" xmlns="http://www.w3.org/2000/svg" version="1.1" class="graph-inline-svg" role="img" aria-label="Tilpasset figur">
 <metadata>
  <rdf:RDF xmlns:dc="http://purl.org/dc/elements/1.1/" xmlns:cc="http://creativecommons.org/ns#" xmlns:rdf="http://www.w3.org/1999/02/22-rdf-syntax-ns#">
   <cc:Work>
    <dc:type rdf:resource="http://purl.org/dc/dcmitype/StillImage"/>
    <dc:date>2026-03-27T23:10:39.403172</dc:date>
    <dc:format>image/svg+xml</dc:format>
    <dc:creator>
     <cc:Agent>
      <dc:title>Matplotlib v3.10.8, https://matplotlib.org/</dc:title>
     </cc:Agent>
    </dc:creator>
   </cc:Work>
  </rdf:RDF>
 </metadata>
 <defs>
  <style type="text/css">*{stroke-linejoin: round; stroke-linecap: butt}</style>
 </defs>
 <g id="g1f0019_108845_figure_1">
  <g id="g1f0019_108845_patch_1">
   <path d="M 0 345.6 
L 460.8 345.6 
L 460.8 0 
L 0 0 
L 0 345.6 
z
" style="fill: none"/>
  </g>
  <g id="g1f0019_108845_axes_1">
   <g id="g1f0019_108845_patch_2">
    <path d="M 10.8 334.8 
L 447 334.8 
L 447 20.016315 
L 10.8 20.016315 
L 10.8 334.8 
z
" style="fill: none"/>
   </g>
   <g id="g1f0019_108845_matplotlib.axis_1">
    <g id="g1f0019_108845_xtick_1">
     <g id="g1f0019_108845_line2d_1">
      <path d="M 47.15 334.8 
L 47.15 20.016315 
" clip-path="url(#g1f0019_108845_p7637eafac0)" style="fill: none; stroke-dasharray: 2.96,1.28; stroke-dashoffset: 0; stroke: #b0b0b0; stroke-opacity: 0.6; stroke-width: 0.8"/>
     </g>
     <g id="g1f0019_108845_line2d_2">
      <defs>
       <path id="g1f0019_108845_m73df0aef62" d="M 0 0 
L 0 3.5 
" style="stroke: #000000; stroke-width: 0.8"/>
      </defs>
      <g>
       <use xlink:href="#g1f0019_108845_m73df0aef62" x="47.15" y="177.408158" style="stroke: #000000; stroke-width: 0.8"/>
      </g>
     </g>
     <g id="g1f0019_108845_text_1">
      <!-- $\mathdefault{−5}$ -->
      <g transform="translate(34.832209 198.245154) scale(0.2 -0.2)">
       <defs>
        <path id="g1f0019_108845_CMSY10-0" d="M 4218 1472 
C 4326 1472 4442 1472 4442 1600 
C 4442 1728 4326 1728 4218 1728 
L 755 1728 
C 646 1728 531 1728 531 1600 
C 531 1472 646 1472 755 1472 
L 4218 1472 
z
" transform="scale(0.015625)"/>
        <path id="g1f0019_108845_CMR17-35" d="M 730 3692 
C 794 3666 1056 3584 1325 3584 
C 1920 3584 2246 3911 2432 4100 
C 2432 4157 2432 4192 2394 4192 
C 2387 4192 2374 4192 2323 4163 
C 2099 4058 1837 3973 1517 3973 
C 1325 3973 1037 3999 723 4139 
C 653 4171 640 4171 634 4171 
C 602 4171 595 4164 595 4037 
L 595 2203 
C 595 2089 595 2057 659 2057 
C 691 2057 704 2070 736 2114 
C 941 2401 1222 2522 1542 2522 
C 1766 2522 2246 2382 2246 1289 
C 2246 1085 2246 715 2054 421 
C 1894 159 1645 25 1370 25 
C 947 25 518 320 403 814 
C 429 807 480 795 506 795 
C 589 795 749 840 749 1038 
C 749 1210 627 1280 506 1280 
C 358 1280 262 1190 262 1011 
C 262 454 704 -128 1382 -128 
C 2042 -128 2669 440 2669 1264 
C 2669 2030 2170 2624 1549 2624 
C 1222 2624 947 2503 730 2274 
L 730 3692 
z
" transform="scale(0.015625)"/>
       </defs>
       <use xlink:href="#g1f0019_108845_CMSY10-0" transform="scale(0.996264)"/>
       <use xlink:href="#g1f0019_108845_CMR17-35" transform="translate(77.487468 0) scale(0.996264)"/>
      </g>
     </g>
    </g>
    <g id="g1f0019_108845_xtick_2">
     <g id="g1f0019_108845_line2d_3">
      <path d="M 83.5 334.8 
L 83.5 20.016315 
" clip-path="url(#g1f0019_108845_p7637eafac0)" style="fill: none; stroke-dasharray: 2.96,1.28; stroke-dashoffset: 0; stroke: #b0b0b0; stroke-opacity: 0.6; stroke-width: 0.8"/>
     </g>
     <g id="g1f0019_108845_line2d_4">
      <g>
       <use xlink:href="#g1f0019_108845_m73df0aef62" x="83.5" y="177.408158" style="stroke: #000000; stroke-width: 0.8"/>
      </g>
     </g>
     <g id="g1f0019_108845_text_2">
      <!-- $\mathdefault{−4}$ -->
      <g transform="translate(71.182209 198.245154) scale(0.2 -0.2)">
       <defs>
        <path id="g1f0019_108845_CMR17-34" d="M 2150 4122 
C 2150 4256 2144 4256 2029 4256 
L 128 1254 
L 128 1088 
L 1779 1088 
L 1779 457 
C 1779 224 1766 160 1318 160 
L 1197 160 
L 1197 0 
C 1402 0 1747 0 1965 0 
C 2182 0 2528 0 2733 0 
L 2733 160 
L 2611 160 
C 2163 160 2150 224 2150 457 
L 2150 1088 
L 2803 1088 
L 2803 1254 
L 2150 1254 
L 2150 4122 
z
M 1798 3703 
L 1798 1254 
L 256 1254 
L 1798 3703 
z
" transform="scale(0.015625)"/>
       </defs>
       <use xlink:href="#g1f0019_108845_CMSY10-0" transform="scale(0.996264)"/>
       <use xlink:href="#g1f0019_108845_CMR17-34" transform="translate(77.487468 0) scale(0.996264)"/>
      </g>
     </g>
    </g>
    <g id="g1f0019_108845_xtick_3">
     <g id="g1f0019_108845_line2d_5">
      <path d="M 119.85 334.8 
L 119.85 20.016315 
" clip-path="url(#g1f0019_108845_p7637eafac0)" style="fill: none; stroke-dasharray: 2.96,1.28; stroke-dashoffset: 0; stroke: #b0b0b0; stroke-opacity: 0.6; stroke-width: 0.8"/>
     </g>
     <g id="g1f0019_108845_line2d_6">
      <g>
       <use xlink:href="#g1f0019_108845_m73df0aef62" x="119.85" y="177.408158" style="stroke: #000000; stroke-width: 0.8"/>
      </g>
     </g>
     <g id="g1f0019_108845_text_3">
      <!-- $\mathdefault{−3}$ -->
      <g transform="translate(107.532209 198.245154) scale(0.2 -0.2)">
       <defs>
        <path id="g1f0019_108845_CMR17-33" d="M 1414 2157 
C 1984 2157 2234 1662 2234 1090 
C 2234 320 1824 25 1453 25 
C 1114 25 563 194 390 693 
C 422 680 454 680 486 680 
C 640 680 755 782 755 948 
C 755 1133 614 1216 486 1216 
C 378 1216 211 1165 211 926 
C 211 335 787 -128 1466 -128 
C 2176 -128 2720 430 2720 1085 
C 2720 1707 2208 2157 1600 2227 
C 2086 2328 2554 2756 2554 3329 
C 2554 3820 2048 4179 1472 4179 
C 890 4179 378 3829 378 3329 
C 378 3110 544 3072 627 3072 
C 762 3072 877 3155 877 3321 
C 877 3486 762 3569 627 3569 
C 602 3569 570 3569 544 3557 
C 730 3959 1235 4032 1459 4032 
C 1683 4032 2106 3925 2106 3320 
C 2106 3143 2080 2828 1862 2550 
C 1670 2304 1453 2304 1242 2284 
C 1210 2284 1062 2269 1037 2269 
C 992 2263 966 2257 966 2208 
C 966 2163 973 2157 1101 2157 
L 1414 2157 
z
" transform="scale(0.015625)"/>
       </defs>
       <use xlink:href="#g1f0019_108845_CMSY10-0" transform="scale(0.996264)"/>
       <use xlink:href="#g1f0019_108845_CMR17-33" transform="translate(77.487468 0) scale(0.996264)"/>
      </g>
     </g>
    </g>
    <g id="g1f0019_108845_xtick_4">
     <g id="g1f0019_108845_line2d_7">
      <path d="M 156.2 334.8 
L 156.2 20.016315 
" clip-path="url(#g1f0019_108845_p7637eafac0)" style="fill: none; stroke-dasharray: 2.96,1.28; stroke-dashoffset: 0; stroke: #b0b0b0; stroke-opacity: 0.6; stroke-width: 0.8"/>
     </g>
     <g id="g1f0019_108845_line2d_8">
      <g>
       <use xlink:href="#g1f0019_108845_m73df0aef62" x="156.2" y="177.408158" style="stroke: #000000; stroke-width: 0.8"/>
      </g>
     </g>
     <g id="g1f0019_108845_text_4">
      <!-- $\mathdefault{−2}$ -->
      <g transform="translate(143.882209 198.245154) scale(0.2 -0.2)">
       <defs>
        <path id="g1f0019_108845_CMR17-32" d="M 2669 989 
L 2554 989 
C 2490 536 2438 459 2413 420 
C 2381 369 1920 369 1830 369 
L 602 369 
C 832 619 1280 1072 1824 1597 
C 2214 1967 2669 2402 2669 3035 
C 2669 3790 2067 4224 1395 4224 
C 691 4224 262 3604 262 3030 
C 262 2780 448 2748 525 2748 
C 589 2748 781 2787 781 3010 
C 781 3207 614 3264 525 3264 
C 486 3264 448 3258 422 3245 
C 544 3790 915 4058 1306 4058 
C 1862 4058 2227 3617 2227 3035 
C 2227 2479 1901 2000 1536 1584 
L 262 146 
L 262 0 
L 2515 0 
L 2669 989 
z
" transform="scale(0.015625)"/>
       </defs>
       <use xlink:href="#g1f0019_108845_CMSY10-0" transform="scale(0.996264)"/>
       <use xlink:href="#g1f0019_108845_CMR17-32" transform="translate(77.487468 0) scale(0.996264)"/>
      </g>
     </g>
    </g>
    <g id="g1f0019_108845_xtick_5">
     <g id="g1f0019_108845_line2d_9">
      <path d="M 192.55 334.8 
L 192.55 20.016315 
" clip-path="url(#g1f0019_108845_p7637eafac0)" style="fill: none; stroke-dasharray: 2.96,1.28; stroke-dashoffset: 0; stroke: #b0b0b0; stroke-opacity: 0.6; stroke-width: 0.8"/>
     </g>
     <g id="g1f0019_108845_line2d_10">
      <g>
       <use xlink:href="#g1f0019_108845_m73df0aef62" x="192.55" y="177.408158" style="stroke: #000000; stroke-width: 0.8"/>
      </g>
     </g>
     <g id="g1f0019_108845_text_5">
      <!-- $\mathdefault{−1}$ -->
      <g transform="translate(180.232209 198.245154) scale(0.2 -0.2)">
       <defs>
        <path id="g1f0019_108845_CMR17-31" d="M 1702 4058 
C 1702 4192 1696 4192 1606 4192 
C 1357 3916 979 3827 621 3827 
C 602 3827 570 3827 563 3808 
C 557 3795 557 3782 557 3648 
C 755 3648 1088 3686 1344 3839 
L 1344 461 
C 1344 236 1331 160 781 160 
L 589 160 
L 589 0 
C 896 0 1216 0 1523 0 
C 1830 0 2150 0 2458 0 
L 2458 160 
L 2266 160 
C 1715 160 1702 230 1702 458 
L 1702 4058 
z
" transform="scale(0.015625)"/>
       </defs>
       <use xlink:href="#g1f0019_108845_CMSY10-0" transform="scale(0.996264)"/>
       <use xlink:href="#g1f0019_108845_CMR17-31" transform="translate(77.487468 0) scale(0.996264)"/>
      </g>
     </g>
    </g>
    <g id="g1f0019_108845_xtick_6">
     <g id="g1f0019_108845_line2d_11">
      <path d="M 265.25 334.8 
L 265.25 20.016315 
" clip-path="url(#g1f0019_108845_p7637eafac0)" style="fill: none; stroke-dasharray: 2.96,1.28; stroke-dashoffset: 0; stroke: #b0b0b0; stroke-opacity: 0.6; stroke-width: 0.8"/>
     </g>
     <g id="g1f0019_108845_line2d_12">
      <g>
       <use xlink:href="#g1f0019_108845_m73df0aef62" x="265.25" y="177.408158" style="stroke: #000000; stroke-width: 0.8"/>
      </g>
     </g>
     <g id="g1f0019_108845_text_6">
      <!-- $\mathdefault{1}$ -->
      <g transform="translate(260.680952 198.245154) scale(0.2 -0.2)">
       <use xlink:href="#g1f0019_108845_CMR17-31" transform="scale(0.996264)"/>
      </g>
     </g>
    </g>
    <g id="g1f0019_108845_xtick_7">
     <g id="g1f0019_108845_line2d_13">
      <path d="M 301.6 334.8 
L 301.6 20.016315 
" clip-path="url(#g1f0019_108845_p7637eafac0)" style="fill: none; stroke-dasharray: 2.96,1.28; stroke-dashoffset: 0; stroke: #b0b0b0; stroke-opacity: 0.6; stroke-width: 0.8"/>
     </g>
     <g id="g1f0019_108845_line2d_14">
      <g>
       <use xlink:href="#g1f0019_108845_m73df0aef62" x="301.6" y="177.408158" style="stroke: #000000; stroke-width: 0.8"/>
      </g>
     </g>
     <g id="g1f0019_108845_text_7">
      <!-- $\mathdefault{2}$ -->
      <g transform="translate(297.030952 198.245154) scale(0.2 -0.2)">
       <use xlink:href="#g1f0019_108845_CMR17-32" transform="scale(0.996264)"/>
      </g>
     </g>
    </g>
    <g id="g1f0019_108845_xtick_8">
     <g id="g1f0019_108845_line2d_15">
      <path d="M 337.95 334.8 
L 337.95 20.016315 
" clip-path="url(#g1f0019_108845_p7637eafac0)" style="fill: none; stroke-dasharray: 2.96,1.28; stroke-dashoffset: 0; stroke: #b0b0b0; stroke-opacity: 0.6; stroke-width: 0.8"/>
     </g>
     <g id="g1f0019_108845_line2d_16">
      <g>
       <use xlink:href="#g1f0019_108845_m73df0aef62" x="337.95" y="177.408158" style="stroke: #000000; stroke-width: 0.8"/>
      </g>
     </g>
     <g id="g1f0019_108845_text_8">
      <!-- $\mathdefault{3}$ -->
      <g transform="translate(333.380952 198.245154) scale(0.2 -0.2)">
       <use xlink:href="#g1f0019_108845_CMR17-33" transform="scale(0.996264)"/>
      </g>
     </g>
    </g>
    <g id="g1f0019_108845_xtick_9">
     <g id="g1f0019_108845_line2d_17">
      <path d="M 374.3 334.8 
L 374.3 20.016315 
" clip-path="url(#g1f0019_108845_p7637eafac0)" style="fill: none; stroke-dasharray: 2.96,1.28; stroke-dashoffset: 0; stroke: #b0b0b0; stroke-opacity: 0.6; stroke-width: 0.8"/>
     </g>
     <g id="g1f0019_108845_line2d_18">
      <g>
       <use xlink:href="#g1f0019_108845_m73df0aef62" x="374.3" y="177.408158" style="stroke: #000000; stroke-width: 0.8"/>
      </g>
     </g>
     <g id="g1f0019_108845_text_9">
      <!-- $\mathdefault{4}$ -->
      <g transform="translate(369.730952 198.245154) scale(0.2 -0.2)">
       <use xlink:href="#g1f0019_108845_CMR17-34" transform="scale(0.996264)"/>
      </g>
     </g>
    </g>
    <g id="g1f0019_108845_xtick_10">
     <g id="g1f0019_108845_line2d_19">
      <path d="M 410.65 334.8 
L 410.65 20.016315 
" clip-path="url(#g1f0019_108845_p7637eafac0)" style="fill: none; stroke-dasharray: 2.96,1.28; stroke-dashoffset: 0; stroke: #b0b0b0; stroke-opacity: 0.6; stroke-width: 0.8"/>
     </g>
     <g id="g1f0019_108845_line2d_20">
      <g>
       <use xlink:href="#g1f0019_108845_m73df0aef62" x="410.65" y="177.408158" style="stroke: #000000; stroke-width: 0.8"/>
      </g>
     </g>
     <g id="g1f0019_108845_text_10">
      <!-- $\mathdefault{5}$ -->
      <g transform="translate(406.080952 198.245154) scale(0.2 -0.2)">
       <use xlink:href="#g1f0019_108845_CMR17-35" transform="scale(0.996264)"/>
      </g>
     </g>
    </g>
    <g id="g1f0019_108845_text_11">
     <!-- $x$ -->
     <g transform="translate(435.913188 219.957785) scale(0.2 -0.2)">
      <defs>
       <path id="g1f0019_108845_CMMI12-78" d="M 3034 2606 
C 2829 2567 2752 2414 2752 2293 
C 2752 2139 2874 2088 2963 2088 
C 3155 2088 3290 2254 3290 2427 
C 3290 2695 2982 2816 2714 2816 
C 2323 2816 2106 2433 2048 2312 
C 1901 2816 1504 2816 1389 2816 
C 736 2816 390 1980 390 1839 
C 390 1814 416 1782 461 1782 
C 512 1782 525 1820 538 1846 
C 755 2555 1184 2689 1370 2689 
C 1658 2689 1715 2420 1715 2267 
C 1715 2127 1677 1980 1600 1673 
L 1382 798 
C 1286 415 1101 64 762 64 
C 730 64 570 64 435 147 
C 666 192 717 383 717 460 
C 717 588 621 664 499 664 
C 346 664 179 530 179 326 
C 179 57 480 -64 755 -64 
C 1062 -64 1280 179 1414 441 
C 1517 64 1837 -64 2074 -64 
C 2726 -64 3072 773 3072 913 
C 3072 945 3046 971 3008 971 
C 2950 971 2944 939 2925 888 
C 2752 326 2381 64 2093 64 
C 1869 64 1747 230 1747 492 
C 1747 632 1773 734 1875 1156 
L 2099 2024 
C 2195 2408 2413 2689 2707 2689 
C 2720 2689 2899 2689 3034 2606 
z
" transform="scale(0.015625)"/>
      </defs>
      <use xlink:href="#g1f0019_108845_CMMI12-78" transform="scale(0.996264)"/>
     </g>
    </g>
   </g>
   <g id="g1f0019_108845_matplotlib.axis_2">
    <g id="g1f0019_108845_ytick_1">
     <g id="g1f0019_108845_line2d_21">
      <path d="M 10.8 308.568026 
L 447 308.568026 
" clip-path="url(#g1f0019_108845_p7637eafac0)" style="fill: none; stroke-dasharray: 2.96,1.28; stroke-dashoffset: 0; stroke: #b0b0b0; stroke-opacity: 0.6; stroke-width: 0.8"/>
     </g>
     <g id="g1f0019_108845_line2d_22">
      <defs>
       <path id="g1f0019_108845_m6d236311cd" d="M 0 0 
L -3.5 0 
" style="stroke: #000000; stroke-width: 0.8"/>
      </defs>
      <g>
       <use xlink:href="#g1f0019_108845_m6d236311cd" x="228.9" y="308.568026" style="stroke: #000000; stroke-width: 0.8"/>
      </g>
     </g>
     <g id="g1f0019_108845_text_12">
      <!-- $\mathdefault{−5}$ -->
      <g transform="translate(197.264417 315.486525) scale(0.2 -0.2)">
       <use xlink:href="#g1f0019_108845_CMSY10-0" transform="scale(0.996264)"/>
       <use xlink:href="#g1f0019_108845_CMR17-35" transform="translate(77.487468 0) scale(0.996264)"/>
      </g>
     </g>
    </g>
    <g id="g1f0019_108845_ytick_2">
     <g id="g1f0019_108845_line2d_23">
      <path d="M 10.8 282.336053 
L 447 282.336053 
" clip-path="url(#g1f0019_108845_p7637eafac0)" style="fill: none; stroke-dasharray: 2.96,1.28; stroke-dashoffset: 0; stroke: #b0b0b0; stroke-opacity: 0.6; stroke-width: 0.8"/>
     </g>
     <g id="g1f0019_108845_line2d_24">
      <g>
       <use xlink:href="#g1f0019_108845_m6d236311cd" x="228.9" y="282.336053" style="stroke: #000000; stroke-width: 0.8"/>
      </g>
     </g>
     <g id="g1f0019_108845_text_13">
      <!-- $\mathdefault{−4}$ -->
      <g transform="translate(197.264417 289.254551) scale(0.2 -0.2)">
       <use xlink:href="#g1f0019_108845_CMSY10-0" transform="scale(0.996264)"/>
       <use xlink:href="#g1f0019_108845_CMR17-34" transform="translate(77.487468 0) scale(0.996264)"/>
      </g>
     </g>
    </g>
    <g id="g1f0019_108845_ytick_3">
     <g id="g1f0019_108845_line2d_25">
      <path d="M 10.8 256.104079 
L 447 256.104079 
" clip-path="url(#g1f0019_108845_p7637eafac0)" style="fill: none; stroke-dasharray: 2.96,1.28; stroke-dashoffset: 0; stroke: #b0b0b0; stroke-opacity: 0.6; stroke-width: 0.8"/>
     </g>
     <g id="g1f0019_108845_line2d_26">
      <g>
       <use xlink:href="#g1f0019_108845_m6d236311cd" x="228.9" y="256.104079" style="stroke: #000000; stroke-width: 0.8"/>
      </g>
     </g>
     <g id="g1f0019_108845_text_14">
      <!-- $\mathdefault{−3}$ -->
      <g transform="translate(197.264417 263.022577) scale(0.2 -0.2)">
       <use xlink:href="#g1f0019_108845_CMSY10-0" transform="scale(0.996264)"/>
       <use xlink:href="#g1f0019_108845_CMR17-33" transform="translate(77.487468 0) scale(0.996264)"/>
      </g>
     </g>
    </g>
    <g id="g1f0019_108845_ytick_4">
     <g id="g1f0019_108845_line2d_27">
      <path d="M 10.8 229.872105 
L 447 229.872105 
" clip-path="url(#g1f0019_108845_p7637eafac0)" style="fill: none; stroke-dasharray: 2.96,1.28; stroke-dashoffset: 0; stroke: #b0b0b0; stroke-opacity: 0.6; stroke-width: 0.8"/>
     </g>
     <g id="g1f0019_108845_line2d_28">
      <g>
       <use xlink:href="#g1f0019_108845_m6d236311cd" x="228.9" y="229.872105" style="stroke: #000000; stroke-width: 0.8"/>
      </g>
     </g>
     <g id="g1f0019_108845_text_15">
      <!-- $\mathdefault{−2}$ -->
      <g transform="translate(197.264417 236.790603) scale(0.2 -0.2)">
       <use xlink:href="#g1f0019_108845_CMSY10-0" transform="scale(0.996264)"/>
       <use xlink:href="#g1f0019_108845_CMR17-32" transform="translate(77.487468 0) scale(0.996264)"/>
      </g>
     </g>
    </g>
    <g id="g1f0019_108845_ytick_5">
     <g id="g1f0019_108845_line2d_29">
      <path d="M 10.8 203.640131 
L 447 203.640131 
" clip-path="url(#g1f0019_108845_p7637eafac0)" style="fill: none; stroke-dasharray: 2.96,1.28; stroke-dashoffset: 0; stroke: #b0b0b0; stroke-opacity: 0.6; stroke-width: 0.8"/>
     </g>
     <g id="g1f0019_108845_line2d_30">
      <g>
       <use xlink:href="#g1f0019_108845_m6d236311cd" x="228.9" y="203.640131" style="stroke: #000000; stroke-width: 0.8"/>
      </g>
     </g>
     <g id="g1f0019_108845_text_16">
      <!-- $\mathdefault{−1}$ -->
      <g transform="translate(197.264417 210.55863) scale(0.2 -0.2)">
       <use xlink:href="#g1f0019_108845_CMSY10-0" transform="scale(0.996264)"/>
       <use xlink:href="#g1f0019_108845_CMR17-31" transform="translate(77.487468 0) scale(0.996264)"/>
      </g>
     </g>
    </g>
    <g id="g1f0019_108845_ytick_6">
     <g id="g1f0019_108845_line2d_31">
      <path d="M 10.8 151.176184 
L 447 151.176184 
" clip-path="url(#g1f0019_108845_p7637eafac0)" style="fill: none; stroke-dasharray: 2.96,1.28; stroke-dashoffset: 0; stroke: #b0b0b0; stroke-opacity: 0.6; stroke-width: 0.8"/>
     </g>
     <g id="g1f0019_108845_line2d_32">
      <g>
       <use xlink:href="#g1f0019_108845_m6d236311cd" x="228.9" y="151.176184" style="stroke: #000000; stroke-width: 0.8"/>
      </g>
     </g>
     <g id="g1f0019_108845_text_17">
      <!-- $\mathdefault{1}$ -->
      <g transform="translate(212.761905 158.094682) scale(0.2 -0.2)">
       <use xlink:href="#g1f0019_108845_CMR17-31" transform="scale(0.996264)"/>
      </g>
     </g>
    </g>
    <g id="g1f0019_108845_ytick_7">
     <g id="g1f0019_108845_line2d_33">
      <path d="M 10.8 124.94421 
L 447 124.94421 
" clip-path="url(#g1f0019_108845_p7637eafac0)" style="fill: none; stroke-dasharray: 2.96,1.28; stroke-dashoffset: 0; stroke: #b0b0b0; stroke-opacity: 0.6; stroke-width: 0.8"/>
     </g>
     <g id="g1f0019_108845_line2d_34">
      <g>
       <use xlink:href="#g1f0019_108845_m6d236311cd" x="228.9" y="124.94421" style="stroke: #000000; stroke-width: 0.8"/>
      </g>
     </g>
     <g id="g1f0019_108845_text_18">
      <!-- $\mathdefault{2}$ -->
      <g transform="translate(212.761905 131.862709) scale(0.2 -0.2)">
       <use xlink:href="#g1f0019_108845_CMR17-32" transform="scale(0.996264)"/>
      </g>
     </g>
    </g>
    <g id="g1f0019_108845_ytick_8">
     <g id="g1f0019_108845_line2d_35">
      <path d="M 10.8 98.712236 
L 447 98.712236 
" clip-path="url(#g1f0019_108845_p7637eafac0)" style="fill: none; stroke-dasharray: 2.96,1.28; stroke-dashoffset: 0; stroke: #b0b0b0; stroke-opacity: 0.6; stroke-width: 0.8"/>
     </g>
     <g id="g1f0019_108845_line2d_36">
      <g>
       <use xlink:href="#g1f0019_108845_m6d236311cd" x="228.9" y="98.712236" style="stroke: #000000; stroke-width: 0.8"/>
      </g>
     </g>
     <g id="g1f0019_108845_text_19">
      <!-- $\mathdefault{3}$ -->
      <g transform="translate(212.761905 105.630735) scale(0.2 -0.2)">
       <use xlink:href="#g1f0019_108845_CMR17-33" transform="scale(0.996264)"/>
      </g>
     </g>
    </g>
    <g id="g1f0019_108845_ytick_9">
     <g id="g1f0019_108845_line2d_37">
      <path d="M 10.8 72.480263 
L 447 72.480263 
" clip-path="url(#g1f0019_108845_p7637eafac0)" style="fill: none; stroke-dasharray: 2.96,1.28; stroke-dashoffset: 0; stroke: #b0b0b0; stroke-opacity: 0.6; stroke-width: 0.8"/>
     </g>
     <g id="g1f0019_108845_line2d_38">
      <g>
       <use xlink:href="#g1f0019_108845_m6d236311cd" x="228.9" y="72.480263" style="stroke: #000000; stroke-width: 0.8"/>
      </g>
     </g>
     <g id="g1f0019_108845_text_20">
      <!-- $\mathdefault{4}$ -->
      <g transform="translate(212.761905 79.398761) scale(0.2 -0.2)">
       <use xlink:href="#g1f0019_108845_CMR17-34" transform="scale(0.996264)"/>
      </g>
     </g>
    </g>
    <g id="g1f0019_108845_ytick_10">
     <g id="g1f0019_108845_line2d_39">
      <path d="M 10.8 46.248289 
L 447 46.248289 
" clip-path="url(#g1f0019_108845_p7637eafac0)" style="fill: none; stroke-dasharray: 2.96,1.28; stroke-dashoffset: 0; stroke: #b0b0b0; stroke-opacity: 0.6; stroke-width: 0.8"/>
     </g>
     <g id="g1f0019_108845_line2d_40">
      <g>
       <use xlink:href="#g1f0019_108845_m6d236311cd" x="228.9" y="46.248289" style="stroke: #000000; stroke-width: 0.8"/>
      </g>
     </g>
     <g id="g1f0019_108845_text_21">
      <!-- $\mathdefault{5}$ -->
      <g transform="translate(212.761905 53.166787) scale(0.2 -0.2)">
       <use xlink:href="#g1f0019_108845_CMR17-35" transform="scale(0.996264)"/>
      </g>
     </g>
    </g>
    <g id="g1f0019_108845_text_22">
     <!-- $y$ -->
     <g transform="translate(183.751583 16.140682) scale(0.2 -0.2)">
      <defs>
       <path id="g1f0019_108845_CMMI12-79" d="M 1683 -700 
C 1510 -939 1261 -1152 947 -1152 
C 870 -1152 563 -1152 467 -889 
C 486 -895 518 -895 531 -895 
C 723 -895 851 -729 851 -582 
C 851 -435 730 -384 634 -384 
C 531 -384 307 -458 307 -759 
C 307 -1071 582 -1286 947 -1286 
C 1587 -1286 2234 -700 2413 6 
L 3040 2485 
C 3046 2517 3059 2556 3059 2594 
C 3059 2689 2982 2753 2886 2753 
C 2829 2753 2694 2727 2643 2535 
L 2170 658 
C 2138 543 2138 530 2086 460 
C 1958 281 1747 64 1440 64 
C 1082 64 1050 415 1050 588 
C 1050 952 1222 1443 1395 1903 
C 1466 2088 1504 2178 1504 2305 
C 1504 2574 1312 2816 998 2816 
C 410 2816 173 1890 173 1839 
C 173 1814 198 1782 243 1782 
C 301 1782 307 1807 333 1897 
C 486 2433 730 2689 979 2689 
C 1037 2689 1146 2689 1146 2478 
C 1146 2312 1075 2127 979 1884 
C 666 1047 666 837 666 683 
C 666 77 1101 -64 1421 -64 
C 1606 -64 1837 -6 2061 230 
L 2067 224 
C 1971 -147 1907 -392 1683 -700 
z
" transform="scale(0.015625)"/>
      </defs>
      <use xlink:href="#g1f0019_108845_CMMI12-79" transform="scale(0.996264)"/>
     </g>
    </g>
   </g>
   <g id="g1f0019_108845_line2d_41">
    <defs>
     <path id="g1f0019_108845_mf086df707f" d="M 3 0 
L -3 -3 
L -3 3 
z
" style="stroke: #000000; stroke-linejoin: miter"/>
    </defs>
    <g>
     <use xlink:href="#g1f0019_108845_mf086df707f" x="447" y="177.408158" style="stroke: #000000; stroke-linejoin: miter"/>
    </g>
   </g>
   <g id="g1f0019_108845_line2d_42">
    <defs>
     <path id="g1f0019_108845_mede7ea7fdd" d="M 0 -3 
L -3 3 
L 3 3 
z
" style="stroke: #000000; stroke-linejoin: miter"/>
    </defs>
    <g>
     <use xlink:href="#g1f0019_108845_mede7ea7fdd" x="228.9" y="20.016315" style="stroke: #000000; stroke-linejoin: miter"/>
    </g>
   </g>
   <g id="g1f0019_108845_line2d_43">
    <path d="M 10.8 195.516873 
L 12.344259 198.331962 
L 13.702142 200.359823 
L 14.900275 201.766801 
L 15.991906 202.71691 
L 16.977037 203.29196 
L 17.908918 203.583552 
L 18.787548 203.631156 
L 19.666178 203.45768 
L 20.571434 203.049277 
L 21.52994 202.366856 
L 22.568321 201.34529 
L 23.713203 199.89291 
L 24.99121 197.892782 
L 26.428969 195.208267 
L 28.079729 191.635222 
L 30.103241 186.690785 
L 32.978758 179.009883 
L 37.664787 166.502016 
L 39.741549 161.619123 
L 41.445559 158.157069 
L 42.909943 155.665037 
L 44.187951 153.904031 
L 45.332833 152.681424 
L 46.371214 151.87812 
L 47.32972 151.4032 
L 48.234975 151.194159 
L 49.113606 151.215604 
L 49.992236 151.457873 
L 50.924116 151.953819 
L 51.909247 152.740432 
L 52.974254 153.884547 
L 54.145761 155.478854 
L 55.450394 157.639705 
L 56.941403 160.556151 
L 58.698663 164.51192 
L 60.881926 170.014826 
L 64.689324 180.347991 
L 67.884344 188.730956 
L 69.934481 193.504497 
L 71.611866 196.871135 
L 73.049625 199.285157 
L 74.327632 201.018284 
L 75.472514 202.214295 
L 76.510895 202.992486 
L 77.469401 203.443649 
L 78.374657 203.629969 
L 79.253287 203.586401 
L 80.131917 203.322131 
L 81.063798 202.803189 
L 82.048929 201.992881 
L 83.14056 200.791145 
L 84.338693 199.12272 
L 85.669951 196.871217 
L 87.187585 193.848241 
L 88.97147 189.77327 
L 91.234609 184.006348 
L 99.461784 162.47117 
L 101.219044 158.783392 
L 102.710053 156.141531 
L 104.041311 154.21678 
L 105.212818 152.892924 
L 106.277825 152.007674 
L 107.262956 151.468663 
L 108.168211 151.215611 
L 109.046841 151.194154 
L 109.925472 151.3937 
L 110.830727 151.828652 
L 111.789233 152.538578 
L 112.827614 153.588923 
L 113.972496 155.071412 
L 115.250504 157.102631 
L 116.688262 159.818281 
L 118.365647 163.483014 
L 120.415785 168.529703 
L 123.424428 176.601445 
L 127.764329 188.174699 
L 129.867717 193.133011 
L 131.571727 196.604624 
L 133.036111 199.106267 
L 134.340743 200.909058 
L 135.485625 202.132464 
L 136.524007 202.936525 
L 137.482512 203.41216 
L 138.387768 203.621887 
L 139.266398 203.601108 
L 140.145028 203.359503 
L 141.076909 202.864251 
L 142.06204 202.078354 
L 143.127046 200.934982 
L 144.298553 199.341447 
L 145.603186 197.181385 
L 147.094195 194.265731 
L 148.851456 190.310721 
L 151.034719 184.80846 
L 154.842117 174.475543 
L 158.037136 166.091913 
L 160.087273 161.317556 
L 161.764658 157.950051 
L 163.202417 155.535168 
L 164.480425 153.801198 
L 165.625307 152.604384 
L 166.663688 151.825435 
L 167.622194 151.373554 
L 168.527449 151.186549 
L 169.406079 151.22945 
L 170.28471 151.493057 
L 171.21659 152.011307 
L 172.201721 152.820901 
L 173.293353 154.021878 
L 174.491485 155.68952 
L 175.822743 157.940229 
L 177.340377 160.962414 
L 179.124263 165.036638 
L 181.387402 170.802936 
L 189.614576 192.339172 
L 191.371837 196.027806 
L 192.862846 198.67053 
L 194.194104 200.596139 
L 195.365611 201.920806 
L 196.430617 202.806826 
L 197.415748 203.34657 
L 198.321003 203.600305 
L 199.199634 203.622429 
L 200.078264 203.423547 
L 200.98352 202.989273 
L 201.942025 202.280047 
L 202.980407 201.230435 
L 204.125288 199.748711 
L 205.403296 197.718283 
L 206.841055 195.003423 
L 208.51844 191.339458 
L 210.568577 186.293448 
L 213.57722 178.222132 
L 217.917121 166.648242 
L 220.020509 161.68912 
L 221.724519 158.216643 
L 223.188903 155.714132 
L 224.493536 153.910486 
L 225.638418 152.686279 
L 226.676799 151.881463 
L 227.635305 151.405112 
L 228.54056 151.1947 
L 229.419191 151.214812 
L 230.297821 151.455753 
L 231.229702 151.950311 
L 232.214832 152.735493 
L 233.279839 153.878121 
L 234.451346 155.470884 
L 235.755979 157.630157 
L 237.246988 160.545019 
L 239.004248 164.49927 
L 241.187511 170.000886 
L 244.994909 180.333552 
L 248.189929 188.717848 
L 250.240066 193.493021 
L 251.917451 196.861391 
L 253.35521 199.277136 
L 254.633217 201.011948 
L 255.778099 202.209566 
L 256.81648 202.989273 
L 257.774986 203.44187 
L 258.680242 203.629561 
L 259.558872 203.587326 
L 260.437502 203.324383 
L 261.369383 202.806826 
L 262.354514 201.997945 
L 263.446145 200.797727 
L 264.644278 199.130868 
L 265.975536 196.880955 
L 267.49317 193.859561 
L 269.277055 189.786083 
L 271.540194 184.02041 
L 279.793994 162.423131 
L 281.551254 158.742255 
L 283.042263 156.107345 
L 284.373521 154.189507 
L 285.545028 152.872175 
L 286.610035 151.993129 
L 287.595166 151.460018 
L 288.500421 151.212471 
L 289.379051 151.196384 
L 290.257682 151.401281 
L 291.162937 151.841678 
L 292.121443 152.557242 
L 293.186449 153.644308 
L 294.357956 155.179323 
L 295.662589 157.279462 
L 297.126973 160.079895 
L 298.830983 163.843759 
L 300.934371 169.067715 
L 304.156015 177.754991 
L 308.043289 188.094809 
L 310.146676 193.062853 
L 311.850687 196.544855 
L 313.31507 199.05695 
L 314.619703 200.870033 
L 315.79121 202.127605 
L 316.829592 202.933178 
L 317.788097 203.410245 
L 318.693353 203.621341 
L 319.571983 203.601896 
L 320.450613 203.361619 
L 321.382494 202.867755 
L 322.367625 202.083289 
L 323.432631 200.941405 
L 324.604138 199.349414 
L 325.908771 197.19093 
L 327.39978 194.276861 
L 329.130416 190.38687 
L 331.287054 184.962355 
L 334.961326 174.998426 
L 338.262846 166.303077 
L 340.312983 161.502659 
L 341.990368 158.107465 
L 343.454752 155.624208 
L 344.73276 153.871648 
L 345.877641 152.657103 
L 346.916023 151.861414 
L 347.874528 151.3937 
L 348.779784 151.191554 
L 349.658414 151.219714 
L 350.537044 151.468663 
L 351.468925 151.971593 
L 352.454056 152.765405 
L 353.519062 153.917003 
L 354.690569 155.519073 
L 356.021828 157.736078 
L 357.512836 160.668413 
L 359.270097 164.639387 
L 361.479985 170.225358 
L 365.52701 181.21695 
L 368.535653 189.059264 
L 370.559165 193.734196 
L 372.209925 197.017391 
L 373.647684 199.405323 
L 374.925691 201.112966 
L 376.070573 202.2847 
L 377.108954 203.039991 
L 378.06746 203.469514 
L 378.972716 203.635154 
L 379.851346 203.571467 
L 380.756601 203.275168 
L 381.688482 202.728401 
L 382.700238 201.863133 
L 383.79187 200.62337 
L 384.990002 198.915738 
L 386.347885 196.574725 
L 387.892144 193.446783 
L 389.702655 189.254997 
L 392.045669 183.225934 
L 399.58059 163.38413 
L 401.417726 159.410569 
L 402.961985 156.577091 
L 404.319868 154.53105 
L 405.518 153.106774 
L 406.609632 152.140115 
L 407.594763 151.549669 
L 408.526643 151.243264 
L 409.405274 151.1816 
L 410.283904 151.341046 
L 411.189159 151.735149 
L 412.147665 152.402744 
L 413.186047 153.408781 
L 414.330928 154.844896 
L 415.582311 156.78301 
L 416.993444 159.389438 
L 418.644204 162.930654 
L 420.641091 167.778349 
L 423.436733 175.216742 
L 428.415638 188.506655 
L 430.465775 193.307879 
L 432.143161 196.703929 
L 433.607544 199.188059 
L 434.885552 200.941459 
L 436.030434 202.156805 
L 437.068815 202.95325 
L 438.027321 203.42168 
L 438.932576 203.624512 
L 439.811207 203.597018 
L 440.689837 203.348733 
L 441.621718 202.846497 
L 442.606849 202.0534 
L 443.671855 200.902545 
L 444.843362 199.301245 
L 446.17462 197.085042 
L 447 195.516873 
L 447 195.516873 
" clip-path="url(#g1f0019_108845_p7637eafac0)" style="fill: none; stroke: #0072b2; stroke-width: 2.5; stroke-linecap: square"/>
   </g>
   <g id="g1f0019_108845_patch_3">
    <path d="M 228.9 334.8 
L 228.9 20.016315 
" style="fill: none; stroke: #000000; stroke-width: 0.8; stroke-linejoin: miter; stroke-linecap: square"/>
   </g>
   <g id="g1f0019_108845_patch_4">
    <path d="M 447 334.8 
L 447 20.016315 
" style="fill: none"/>
   </g>
   <g id="g1f0019_108845_patch_5">
    <path d="M 10.8 177.408158 
L 447 177.408158 
" style="fill: none; stroke: #000000; stroke-width: 0.8; stroke-linejoin: miter; stroke-linecap: square"/>
   </g>
   <g id="g1f0019_108845_patch_6">
    <path d="M 10.8 20.016315 
L 447 20.016315 
" style="fill: none"/>
   </g>
  </g>
 </g>
 <defs>
  <clipPath id="g1f0019_108845_p7637eafac0">
   <rect x="10.8" y="20.016315" width="436.2" height="314.783685"/>
  </clipPath>
 </defs>
</svg>
