<?xml version="1.0" encoding="UTF-8"?>
<svg xmlns="http://www.w3.org/2000/svg" xmlns:xlink="http://www.w3.org/1999/xlink" viewBox="0 0 93 100">
<defs>
<g>
<g id="glyph-0-0">
<path d="M 4.359375 -1.984375 C 4.0625 -0.78125 3.0625 -0.0625 2.25 -0.0625 C 1.625 -0.0625 1.203125 -0.484375 1.203125 -1.203125 C 1.203125 -1.234375 1.203125 -1.484375 1.296875 -1.875 L 2.140625 -5.25 C 2.21875 -5.546875 2.234375 -5.625 2.84375 -5.625 C 3 -5.625 3.09375 -5.625 3.09375 -5.78125 C 3.09375 -5.875 3.015625 -5.875 2.96875 -5.875 C 2.8125 -5.875 2.625 -5.859375 2.46875 -5.859375 L 1.453125 -5.859375 C 1.28125 -5.859375 1.109375 -5.875 0.9375 -5.875 C 0.875 -5.875 0.78125 -5.875 0.78125 -5.71875 C 0.78125 -5.625 0.828125 -5.625 1 -5.625 C 1.515625 -5.625 1.515625 -5.5625 1.515625 -5.46875 C 1.515625 -5.421875 1.453125 -5.171875 1.40625 -5.015625 L 0.65625 -2 C 0.640625 -1.90625 0.578125 -1.671875 0.578125 -1.453125 C 0.578125 -0.5 1.265625 0.1875 2.203125 0.1875 C 3.078125 0.1875 4.03125 -0.515625 4.484375 -1.59375 C 4.53125 -1.75 4.609375 -2.046875 4.671875 -2.28125 C 4.75 -2.59375 4.9375 -3.34375 5 -3.578125 L 5.328125 -4.859375 C 5.4375 -5.3125 5.5 -5.59375 6.265625 -5.625 C 6.328125 -5.640625 6.359375 -5.703125 6.359375 -5.78125 C 6.359375 -5.875 6.28125 -5.875 6.25 -5.875 C 6.125 -5.875 5.96875 -5.859375 5.859375 -5.859375 L 5.453125 -5.859375 C 4.921875 -5.859375 4.640625 -5.875 4.625 -5.875 C 4.578125 -5.875 4.484375 -5.875 4.484375 -5.71875 C 4.484375 -5.625 4.546875 -5.625 4.609375 -5.625 C 5.125 -5.609375 5.15625 -5.421875 5.15625 -5.265625 C 5.15625 -5.1875 5.15625 -5.15625 5.125 -5.03125 Z M 4.359375 -1.984375 "/>
</g>
<g id="glyph-0-1">
<path d="M 3.171875 -5.296875 C 3.25 -5.609375 3.28125 -5.625 3.609375 -5.625 L 4.234375 -5.625 C 4.96875 -5.625 5.53125 -5.40625 5.53125 -4.734375 C 5.53125 -4.296875 5.296875 -3.03125 3.578125 -3.03125 L 2.59375 -3.03125 Z M 4.359375 -2.921875 C 5.4375 -3.15625 6.265625 -3.84375 6.265625 -4.59375 C 6.265625 -5.265625 5.59375 -5.875 4.390625 -5.875 L 2.0625 -5.875 C 1.890625 -5.875 1.8125 -5.875 1.8125 -5.71875 C 1.8125 -5.625 1.875 -5.625 2.03125 -5.625 C 2.546875 -5.625 2.546875 -5.5625 2.546875 -5.46875 C 2.546875 -5.453125 2.546875 -5.390625 2.515625 -5.265625 L 1.359375 -0.640625 C 1.28125 -0.328125 1.25 -0.25 0.65625 -0.25 C 0.46875 -0.25 0.40625 -0.25 0.40625 -0.09375 C 0.40625 0 0.5 0 0.53125 0 C 0.6875 0 0.859375 -0.015625 1.03125 -0.015625 L 2.046875 -0.015625 C 2.203125 -0.015625 2.375 0 2.53125 0 C 2.59375 0 2.6875 0 2.6875 -0.15625 C 2.6875 -0.25 2.625 -0.25 2.484375 -0.25 C 1.96875 -0.25 1.96875 -0.3125 1.96875 -0.40625 C 1.96875 -0.40625 1.96875 -0.46875 1.984375 -0.546875 L 2.5625 -2.859375 L 3.59375 -2.859375 C 4.40625 -2.859375 4.5625 -2.34375 4.5625 -2.0625 C 4.5625 -1.921875 4.484375 -1.59375 4.421875 -1.375 C 4.328125 -0.96875 4.296875 -0.875 4.296875 -0.71875 C 4.296875 -0.109375 4.796875 0.1875 5.375 0.1875 C 6.0625 0.1875 6.375 -0.671875 6.375 -0.796875 C 6.375 -0.859375 6.328125 -0.875 6.28125 -0.875 C 6.203125 -0.875 6.1875 -0.828125 6.171875 -0.75 C 5.96875 -0.140625 5.609375 0.015625 5.390625 0.015625 C 5.1875 0.015625 5.046875 -0.09375 5.046875 -0.46875 C 5.046875 -0.6875 5.140625 -1.46875 5.15625 -1.5 C 5.203125 -1.828125 5.203125 -1.859375 5.203125 -1.921875 C 5.203125 -2.5625 4.6875 -2.828125 4.359375 -2.921875 Z M 4.359375 -2.921875 "/>
</g>
<g id="glyph-1-0">
<path d="M 1.71875 -3.84375 C 1.71875 -3.96875 1.71875 -3.984375 1.609375 -3.984375 C 1.453125 -3.8125 1.15625 -3.59375 0.546875 -3.59375 L 0.546875 -3.421875 C 0.6875 -3.421875 0.984375 -3.421875 1.3125 -3.578125 L 1.3125 -0.453125 C 1.3125 -0.25 1.296875 -0.171875 0.765625 -0.171875 L 0.578125 -0.171875 L 0.578125 0 C 0.734375 -0.015625 1.328125 -0.015625 1.515625 -0.015625 C 1.71875 -0.015625 2.296875 -0.015625 2.453125 0 L 2.453125 -0.171875 L 2.265625 -0.171875 C 1.734375 -0.171875 1.71875 -0.25 1.71875 -0.453125 Z M 1.71875 -3.84375 "/>
</g>
<g id="glyph-1-1">
<path d="M 2.640625 -1 L 2.5 -1 C 2.484375 -0.90625 2.4375 -0.578125 2.375 -0.484375 C 2.328125 -0.421875 2 -0.421875 1.8125 -0.421875 L 0.703125 -0.421875 C 0.875 -0.5625 1.234375 -0.953125 1.390625 -1.09375 C 2.296875 -1.921875 2.640625 -2.234375 2.640625 -2.828125 C 2.640625 -3.515625 2.09375 -3.984375 1.390625 -3.984375 C 0.703125 -3.984375 0.296875 -3.390625 0.296875 -2.875 C 0.296875 -2.5625 0.5625 -2.5625 0.578125 -2.5625 C 0.703125 -2.5625 0.859375 -2.65625 0.859375 -2.84375 C 0.859375 -3.015625 0.734375 -3.125 0.578125 -3.125 C 0.515625 -3.125 0.515625 -3.125 0.484375 -3.125 C 0.609375 -3.53125 0.921875 -3.8125 1.3125 -3.8125 C 1.828125 -3.8125 2.140625 -3.375 2.140625 -2.828125 C 2.140625 -2.328125 1.84375 -1.875 1.5 -1.5 L 0.296875 -0.140625 L 0.296875 0 L 2.484375 0 Z M 2.640625 -1 "/>
</g>
<g id="glyph-1-2">
<path d="M 1.09375 -2.140625 C 1 -2.140625 0.96875 -2.140625 0.96875 -2.078125 C 0.96875 -2.015625 1 -2.015625 1.109375 -2.015625 L 1.390625 -2.015625 C 1.890625 -2.015625 2.125 -1.609375 2.125 -1.03125 C 2.125 -0.25 1.71875 -0.03125 1.421875 -0.03125 C 1.140625 -0.03125 0.640625 -0.171875 0.46875 -0.5625 C 0.671875 -0.53125 0.84375 -0.640625 0.84375 -0.859375 C 0.84375 -1.03125 0.71875 -1.15625 0.546875 -1.15625 C 0.40625 -1.15625 0.25 -1.078125 0.25 -0.84375 C 0.25 -0.3125 0.78125 0.125 1.4375 0.125 C 2.15625 0.125 2.6875 -0.421875 2.6875 -1.015625 C 2.6875 -1.578125 2.234375 -2 1.65625 -2.109375 C 2.1875 -2.25 2.515625 -2.6875 2.515625 -3.15625 C 2.515625 -3.625 2.03125 -3.984375 1.453125 -3.984375 C 0.84375 -3.984375 0.40625 -3.609375 0.40625 -3.171875 C 0.40625 -2.9375 0.59375 -2.890625 0.6875 -2.890625 C 0.8125 -2.890625 0.953125 -2.984375 0.953125 -3.15625 C 0.953125 -3.34375 0.8125 -3.4375 0.671875 -3.4375 C 0.640625 -3.4375 0.625 -3.4375 0.609375 -3.421875 C 0.84375 -3.84375 1.40625 -3.84375 1.4375 -3.84375 C 1.625 -3.84375 2.015625 -3.75 2.015625 -3.15625 C 2.015625 -3.046875 2 -2.703125 1.828125 -2.453125 C 1.640625 -2.1875 1.4375 -2.171875 1.28125 -2.171875 Z M 1.09375 -2.140625 "/>
</g>
<g id="glyph-1-3">
<path d="M 2.15625 -3.890625 C 2.15625 -4.015625 2.15625 -4.046875 2.078125 -4.046875 C 2.03125 -4.046875 2.015625 -4.046875 1.96875 -3.96875 L 0.15625 -1.171875 L 0.15625 -1 L 1.734375 -1 L 1.734375 -0.453125 C 1.734375 -0.234375 1.71875 -0.171875 1.28125 -0.171875 L 1.171875 -0.171875 L 1.171875 0 C 1.296875 -0.015625 1.78125 -0.015625 1.9375 -0.015625 C 2.109375 -0.015625 2.59375 -0.015625 2.734375 0 L 2.734375 -0.171875 L 2.609375 -0.171875 C 2.171875 -0.171875 2.15625 -0.234375 2.15625 -0.453125 L 2.15625 -1 L 2.765625 -1 L 2.765625 -1.171875 L 2.15625 -1.171875 Z M 1.765625 -3.421875 L 1.765625 -1.171875 L 0.3125 -1.171875 Z M 1.765625 -3.421875 "/>
</g>
</g>
<clipPath id="clip-0">
<path clip-rule="nonzero" d="M 82 54 L 92.011719 54 L 92.011719 68 L 82 68 Z M 82 54 "/>
</clipPath>
<clipPath id="clip-1">
<path clip-rule="nonzero" d="M 82 54 L 92.011719 54 L 92.011719 68 L 82 68 Z M 82 54 "/>
</clipPath>
<clipPath id="clip-2">
<path clip-rule="nonzero" d="M 1 54 L 11 54 L 11 68 L 1 68 Z M 1 54 "/>
</clipPath>
</defs>
<path fill="none" stroke-width="0.3985" stroke-linecap="butt" stroke-linejoin="miter" stroke="rgb(0%, 0%, 0%)" stroke-opacity="1" stroke-miterlimit="10" d="M -0.000625 -0.00115625 L 11.198594 -0.00115625 M 17.151719 -0.00115625 L 28.347031 -0.00115625 " transform="matrix(1, 0, 0, -1, 3.985, 61.034)"/>
<path fill="none" stroke-width="0.3985" stroke-linecap="butt" stroke-linejoin="miter" stroke="rgb(0%, 0%, 0%)" stroke-opacity="1" stroke-miterlimit="10" d="M 13.190781 -0.00115625 L 11.198594 -0.00115625 M 15.155625 -0.00115625 L 17.151719 -0.00115625 " transform="matrix(1, 0, 0, -1, 3.985, 61.034)"/>
<path fill="none" stroke-width="0.797" stroke-linecap="butt" stroke-linejoin="miter" stroke="rgb(0%, 0%, 0%)" stroke-opacity="1" stroke-miterlimit="10" d="M 13.190781 2.975406 L 13.190781 -2.977719 M 15.155625 5.951969 L 15.155625 -5.954281 " transform="matrix(1, 0, 0, -1, 3.985, 61.034)"/>
<g fill="rgb(0%, 0%, 0%)" fill-opacity="1">
<use xlink:href="#glyph-0-0" x="14.847" y="51.269"/>
</g>
<path fill-rule="nonzero" fill="rgb(0%, 0%, 0%)" fill-opacity="1" stroke-width="0.3985" stroke-linecap="butt" stroke-linejoin="miter" stroke="rgb(0%, 0%, 0%)" stroke-opacity="1" stroke-miterlimit="10" d="M 29.14 -0.00115625 C 29.14 0.436344 28.784531 0.791812 28.347031 0.791812 C 27.909531 0.791812 27.554063 0.436344 27.554063 -0.00115625 C 27.554063 -0.438656 27.909531 -0.794125 28.347031 -0.794125 C 28.784531 -0.794125 29.14 -0.438656 29.14 -0.00115625 Z M 29.14 -0.00115625 " transform="matrix(1, 0, 0, -1, 3.985, 61.034)"/>
<path fill-rule="nonzero" fill="rgb(0%, 0%, 0%)" fill-opacity="1" d="M 89.820312 61.035156 C 89.820312 60.597656 89.464844 60.242188 89.027344 60.242188 C 88.585938 60.242188 88.230469 60.597656 88.230469 61.035156 C 88.230469 61.472656 88.585938 61.828125 89.027344 61.828125 C 89.464844 61.828125 89.820312 61.472656 89.820312 61.035156 Z M 89.820312 61.035156 "/>
<g clip-path="url(#clip-0)">
<path fill="none" stroke-width="0.3985" stroke-linecap="butt" stroke-linejoin="miter" stroke="rgb(0%, 0%, 0%)" stroke-opacity="1" stroke-miterlimit="10" d="M 85.835313 -0.00115625 C 85.835313 0.436344 85.479844 0.791812 85.042344 0.791812 C 84.600938 0.791812 84.245469 0.436344 84.245469 -0.00115625 C 84.245469 -0.438656 84.600938 -0.794125 85.042344 -0.794125 C 85.479844 -0.794125 85.835313 -0.438656 85.835313 -0.00115625 Z M 85.835313 -0.00115625 " transform="matrix(1, 0, 0, -1, 3.985, 61.034)"/>
</g>
<path fill="none" stroke-width="0.3985" stroke-linecap="butt" stroke-linejoin="miter" stroke="rgb(0%, 0%, 0%)" stroke-opacity="1" stroke-miterlimit="10" d="M 28.347031 -0.00115625 L 28.347031 16.299625 M 28.347031 16.299625 L 28.347031 32.600406 " transform="matrix(1, 0, 0, -1, 3.985, 61.034)"/>
<path fill="none" stroke-width="0.3985" stroke-linecap="butt" stroke-linejoin="miter" stroke="rgb(0%, 0%, 0%)" stroke-opacity="1" stroke-miterlimit="10" d="M 28.347031 32.600406 L 34.581406 32.600406 M 50.456406 32.600406 L 56.694688 32.600406 " transform="matrix(1, 0, 0, -1, 3.985, 61.034)"/>
<path fill="none" stroke-width="0.797" stroke-linecap="butt" stroke-linejoin="miter" stroke="rgb(0%, 0%, 0%)" stroke-opacity="1" stroke-miterlimit="10" d="M 50.456406 29.623844 L 34.581406 29.623844 L 34.581406 35.576969 L 50.456406 35.576969 Z M 50.456406 29.623844 " transform="matrix(1, 0, 0, -1, 3.985, 61.034)"/>
<g fill="rgb(0%, 0%, 0%)" fill-opacity="1">
<use xlink:href="#glyph-0-1" x="41.71" y="21.945"/>
</g>
<g fill="rgb(0%, 0%, 0%)" fill-opacity="1">
<use xlink:href="#glyph-1-0" x="48.125" y="23.236"/>
</g>
<path fill="none" stroke-width="0.3985" stroke-linecap="butt" stroke-linejoin="miter" stroke="rgb(0%, 0%, 0%)" stroke-opacity="1" stroke-miterlimit="10" d="M 56.694688 32.600406 L 70.866563 32.600406 M 70.866563 32.600406 L 85.042344 32.600406 " transform="matrix(1, 0, 0, -1, 3.985, 61.034)"/>
<path fill="none" stroke-width="0.3985" stroke-linecap="butt" stroke-linejoin="miter" stroke="rgb(0%, 0%, 0%)" stroke-opacity="1" stroke-miterlimit="10" d="M 85.042344 32.600406 L 85.042344 16.299625 M 85.042344 16.299625 L 85.042344 -0.00115625 " transform="matrix(1, 0, 0, -1, 3.985, 61.034)"/>
<path fill="none" stroke-width="0.3985" stroke-linecap="butt" stroke-linejoin="miter" stroke="rgb(0%, 0%, 0%)" stroke-opacity="1" stroke-miterlimit="10" d="M 28.347031 -0.00115625 L 34.581406 -0.00115625 M 50.456406 -0.00115625 L 56.694688 -0.00115625 " transform="matrix(1, 0, 0, -1, 3.985, 61.034)"/>
<path fill="none" stroke-width="0.797" stroke-linecap="butt" stroke-linejoin="miter" stroke="rgb(0%, 0%, 0%)" stroke-opacity="1" stroke-miterlimit="10" d="M 50.456406 -2.977719 L 34.581406 -2.977719 L 34.581406 2.975406 L 50.456406 2.975406 Z M 50.456406 -2.977719 " transform="matrix(1, 0, 0, -1, 3.985, 61.034)"/>
<g fill="rgb(0%, 0%, 0%)" fill-opacity="1">
<use xlink:href="#glyph-0-1" x="41.71" y="54.543"/>
</g>
<g fill="rgb(0%, 0%, 0%)" fill-opacity="1">
<use xlink:href="#glyph-1-1" x="48.125" y="55.834"/>
</g>
<path fill="none" stroke-width="0.3985" stroke-linecap="butt" stroke-linejoin="miter" stroke="rgb(0%, 0%, 0%)" stroke-opacity="1" stroke-miterlimit="10" d="M 56.694688 -0.00115625 L 70.866563 -0.00115625 M 70.866563 -0.00115625 L 85.042344 -0.00115625 " transform="matrix(1, 0, 0, -1, 3.985, 61.034)"/>
<path fill="none" stroke-width="0.3985" stroke-linecap="butt" stroke-linejoin="miter" stroke="rgb(0%, 0%, 0%)" stroke-opacity="1" stroke-miterlimit="10" d="M 28.347031 -0.00115625 L 28.347031 -16.298031 M 28.347031 -16.298031 L 28.347031 -32.598813 " transform="matrix(1, 0, 0, -1, 3.985, 61.034)"/>
<path fill="none" stroke-width="0.3985" stroke-linecap="butt" stroke-linejoin="miter" stroke="rgb(0%, 0%, 0%)" stroke-opacity="1" stroke-miterlimit="10" d="M 28.347031 -32.598813 L 34.581406 -32.598813 M 50.456406 -32.598813 L 56.694688 -32.598813 " transform="matrix(1, 0, 0, -1, 3.985, 61.034)"/>
<path fill="none" stroke-width="0.797" stroke-linecap="butt" stroke-linejoin="miter" stroke="rgb(0%, 0%, 0%)" stroke-opacity="1" stroke-miterlimit="10" d="M 50.456406 -35.575375 L 34.581406 -35.575375 L 34.581406 -29.62225 L 50.456406 -29.62225 Z M 50.456406 -35.575375 " transform="matrix(1, 0, 0, -1, 3.985, 61.034)"/>
<g fill="rgb(0%, 0%, 0%)" fill-opacity="1">
<use xlink:href="#glyph-0-1" x="41.71" y="87.141"/>
</g>
<g fill="rgb(0%, 0%, 0%)" fill-opacity="1">
<use xlink:href="#glyph-1-2" x="48.125" y="88.4325"/>
</g>
<path fill="none" stroke-width="0.3985" stroke-linecap="butt" stroke-linejoin="miter" stroke="rgb(0%, 0%, 0%)" stroke-opacity="1" stroke-miterlimit="10" d="M 56.694688 -32.598813 L 62.929063 -32.598813 M 78.804063 -32.598813 L 85.042344 -32.598813 " transform="matrix(1, 0, 0, -1, 3.985, 61.034)"/>
<path fill="none" stroke-width="0.797" stroke-linecap="butt" stroke-linejoin="miter" stroke="rgb(0%, 0%, 0%)" stroke-opacity="1" stroke-miterlimit="10" d="M 78.804063 -35.575375 L 62.929063 -35.575375 L 62.929063 -29.62225 L 78.804063 -29.62225 Z M 78.804063 -35.575375 " transform="matrix(1, 0, 0, -1, 3.985, 61.034)"/>
<g fill="rgb(0%, 0%, 0%)" fill-opacity="1">
<use xlink:href="#glyph-0-1" x="70.056" y="87.141"/>
</g>
<g fill="rgb(0%, 0%, 0%)" fill-opacity="1">
<use xlink:href="#glyph-1-3" x="76.4715" y="88.4325"/>
</g>
<path fill="none" stroke-width="0.3985" stroke-linecap="butt" stroke-linejoin="miter" stroke="rgb(0%, 0%, 0%)" stroke-opacity="1" stroke-miterlimit="10" d="M 85.042344 -32.598813 L 85.042344 -16.298031 M 85.042344 -16.298031 L 85.042344 -0.00115625 " transform="matrix(1, 0, 0, -1, 3.985, 61.034)"/>
<path fill="none" stroke-width="0.3985" stroke-linecap="butt" stroke-linejoin="miter" stroke="rgb(0%, 0%, 0%)" stroke-opacity="1" stroke-miterlimit="10" d="M 85.042344 -0.00115625 L 85.042344 29.057437 M 85.042344 29.057437 L 85.042344 58.112125 " transform="matrix(1, 0, 0, -1, 3.985, 61.034)"/>
<path fill="none" stroke-width="0.3985" stroke-linecap="butt" stroke-linejoin="miter" stroke="rgb(0%, 0%, 0%)" stroke-opacity="1" stroke-miterlimit="10" d="M 85.042344 58.112125 L 42.518906 58.112125 M 42.518906 58.112125 L -0.000625 58.112125 " transform="matrix(1, 0, 0, -1, 3.985, 61.034)"/>
<path fill="none" stroke-width="0.3985" stroke-linecap="butt" stroke-linejoin="miter" stroke="rgb(0%, 0%, 0%)" stroke-opacity="1" stroke-miterlimit="10" d="M -0.000625 58.112125 L -0.000625 29.057437 M -0.000625 29.057437 L -0.000625 -0.00115625 " transform="matrix(1, 0, 0, -1, 3.985, 61.034)"/>
<path fill-rule="nonzero" fill="rgb(0%, 0%, 0%)" fill-opacity="1" d="M 89.820312 61.035156 C 89.820312 60.597656 89.464844 60.242188 89.027344 60.242188 C 88.585938 60.242188 88.230469 60.597656 88.230469 61.035156 C 88.230469 61.472656 88.585938 61.828125 89.027344 61.828125 C 89.464844 61.828125 89.820312 61.472656 89.820312 61.035156 Z M 89.820312 61.035156 "/>
<g clip-path="url(#clip-1)">
<path fill="none" stroke-width="0.3985" stroke-linecap="butt" stroke-linejoin="miter" stroke="rgb(0%, 0%, 0%)" stroke-opacity="1" stroke-miterlimit="10" d="M 85.835313 -0.00115625 C 85.835313 0.436344 85.479844 0.791812 85.042344 0.791812 C 84.600938 0.791812 84.245469 0.436344 84.245469 -0.00115625 C 84.245469 -0.438656 84.600938 -0.794125 85.042344 -0.794125 C 85.479844 -0.794125 85.835313 -0.438656 85.835313 -0.00115625 Z M 85.835313 -0.00115625 " transform="matrix(1, 0, 0, -1, 3.985, 61.034)"/>
</g>
<path fill-rule="nonzero" fill="rgb(0%, 0%, 0%)" fill-opacity="1" d="M 4.777344 61.035156 C 4.777344 60.597656 4.421875 60.242188 3.984375 60.242188 C 3.546875 60.242188 3.191406 60.597656 3.191406 61.035156 C 3.191406 61.472656 3.546875 61.828125 3.984375 61.828125 C 4.421875 61.828125 4.777344 61.472656 4.777344 61.035156 Z M 4.777344 61.035156 "/>
<g clip-path="url(#clip-2)">
<path fill="none" stroke-width="0.3985" stroke-linecap="butt" stroke-linejoin="miter" stroke="rgb(0%, 0%, 0%)" stroke-opacity="1" stroke-miterlimit="10" d="M 0.792344 -0.00115625 C 0.792344 0.436344 0.436875 0.791812 -0.000625 0.791812 C -0.438125 0.791812 -0.793594 0.436344 -0.793594 -0.00115625 C -0.793594 -0.438656 -0.438125 -0.794125 -0.000625 -0.794125 C 0.436875 -0.794125 0.792344 -0.438656 0.792344 -0.00115625 Z M 0.792344 -0.00115625 " transform="matrix(1, 0, 0, -1, 3.985, 61.034)"/>
</g>
</svg>
