<?xml version="1.0" encoding="utf-8" standalone="no"?>
<!DOCTYPE svg PUBLIC "-//W3C//DTD SVG 1.1//EN"
  "http://www.w3.org/Graphics/SVG/1.1/DTD/svg11.dtd">
<svg xmlns:xlink="http://www.w3.org/1999/xlink" width="282.215296pt" height="277.2pt" viewBox="0 0 282.215296 277.2" xmlns="http://www.w3.org/2000/svg" version="1.1">
 <metadata>
  <rdf:RDF xmlns:dc="http://purl.org/dc/elements/1.1/" xmlns:cc="http://creativecommons.org/ns#" xmlns:rdf="http://www.w3.org/1999/02/22-rdf-syntax-ns#">
   <cc:Work>
    <dc:type rdf:resource="http://purl.org/dc/dcmitype/StillImage"/>
    <dc:date>2026-02-15T21:53:24.304181</dc:date>
    <dc:format>image/svg+xml</dc:format>
    <dc:creator>
     <cc:Agent>
      <dc:title>Matplotlib v3.9.1, https://matplotlib.org/</dc:title>
     </cc:Agent>
    </dc:creator>
   </cc:Work>
  </rdf:RDF>
 </metadata>
 <defs>
  <style type="text/css">*{stroke-linejoin: round; stroke-linecap: butt}</style>
 </defs>
 <g id="figure_1">
  <g id="patch_1">
   <path d="M 0 277.2 
L 282.215296 277.2 
L 282.215296 0 
L 0 0 
L 0 277.2 
z
" style="fill: none"/>
  </g>
  <g id="axes_1">
   <g id="patch_2">
    <path d="M 52.750523 119.667758 
C 57.519705 119.667758 62.094196 117.772941 65.466518 114.40062 
C 68.838839 111.028299 70.733655 106.453807 70.733655 101.684625 
C 70.733655 96.915442 68.838839 92.340951 65.466518 88.96863 
C 62.094196 85.596308 57.519705 83.701492 52.750523 83.701492 
C 47.98134 83.701492 43.406849 85.596308 40.034528 88.96863 
C 36.662206 92.340951 34.76739 96.915442 34.76739 101.684625 
C 34.76739 106.453807 36.662206 111.028299 40.034528 114.40062 
C 43.406849 117.772941 47.98134 119.667758 52.750523 119.667758 
L 52.750523 119.667758 
z
" clip-path="url(#pf2bed19160)" style="fill: none; stroke: #000000; stroke-width: 2; stroke-linejoin: miter"/>
   </g>
   <g id="line2d_1">
    <path d="M 52.750523 47.735227 
L 103.328083 47.735227 
M 110.071758 47.735227 
L 160.649319 47.735227 
" clip-path="url(#pf2bed19160)" style="fill: none; stroke: #000000; stroke-width: 2; stroke-linecap: round"/>
   </g>
   <g id="line2d_2">
    <path d="M 110.071758 61.222576 
L 110.071758 34.247877 
" clip-path="url(#pf2bed19160)" style="fill: none; stroke: #000000; stroke-width: 2; stroke-linecap: round"/>
   </g>
   <g id="line2d_3">
    <path d="M 103.328083 54.478901 
L 103.328083 40.991552 
" clip-path="url(#pf2bed19160)" style="fill: none; stroke: #000000; stroke-width: 2; stroke-linecap: round"/>
   </g>
   <g id="line2d_4">
    <path d="M 160.649319 47.735227 
L 196.615584 47.735227 
L 196.615584 38.74366 
L 232.58185 38.74366 
L 232.58185 56.726793 
L 196.615584 56.726793 
L 196.615584 47.735227 
M 232.58185 47.735227 
L 268.548115 47.735227 
" clip-path="url(#pf2bed19160)" style="fill: none; stroke: #000000; stroke-width: 2; stroke-linecap: round"/>
   </g>
   <g id="line2d_5">
    <path d="M 268.548115 47.735227 
L 268.548115 83.701492 
L 277.539681 83.701492 
L 277.539681 119.667758 
L 259.556549 119.667758 
L 259.556549 83.701492 
L 268.548115 83.701492 
M 268.548115 119.667758 
L 268.548115 155.634023 
" clip-path="url(#pf2bed19160)" style="fill: none; stroke: #000000; stroke-width: 2; stroke-linecap: round"/>
   </g>
   <g id="line2d_6">
    <path d="M 268.548115 155.634023 
L 268.548115 191.600288 
L 277.539681 191.600288 
L 277.539681 227.566554 
L 259.556549 227.566554 
L 259.556549 191.600288 
L 268.548115 191.600288 
M 268.548115 227.566554 
L 268.548115 263.532819 
" clip-path="url(#pf2bed19160)" style="fill: none; stroke: #000000; stroke-width: 2; stroke-linecap: round"/>
   </g>
   <g id="line2d_7">
    <path d="M 268.548115 263.532819 
L 232.58185 263.532819 
L 232.58185 272.524385 
L 196.615584 272.524385 
L 196.615584 254.541253 
L 232.58185 254.541253 
L 232.58185 263.532819 
M 196.615584 263.532819 
L 160.649319 263.532819 
" clip-path="url(#pf2bed19160)" style="fill: none; stroke: #000000; stroke-width: 2; stroke-linecap: round"/>
   </g>
   <g id="line2d_8">
    <path d="M 160.649319 263.532819 
L 124.683053 263.532819 
L 124.683053 272.524385 
L 88.716788 272.524385 
L 88.716788 254.541253 
L 124.683053 254.541253 
L 124.683053 263.532819 
M 88.716788 263.532819 
L 52.750523 263.532819 
" clip-path="url(#pf2bed19160)" style="fill: none; stroke: #000000; stroke-width: 2; stroke-linecap: round"/>
   </g>
   <g id="line2d_9">
    <path d="M 52.750523 263.532819 
L 52.750523 227.566554 
L 43.758956 227.566554 
L 43.758956 191.600288 
L 61.742089 191.600288 
L 61.742089 227.566554 
L 52.750523 227.566554 
M 52.750523 191.600288 
L 52.750523 155.634023 
" clip-path="url(#pf2bed19160)" style="fill: none; stroke: #000000; stroke-width: 2; stroke-linecap: round"/>
   </g>
   <g id="line2d_10">
    <path d="M 52.750523 155.634023 
L 52.750523 119.667758 
L 52.750523 119.667758 
M 52.750523 83.701492 
L 52.750523 83.701492 
L 52.750523 47.735227 
" clip-path="url(#pf2bed19160)" style="fill: none; stroke: #000000; stroke-width: 2; stroke-linecap: round"/>
   </g>
   <g id="line2d_11">
    <path d="M 65.466518 114.40062 
L 40.034528 88.96863 
" clip-path="url(#pf2bed19160)" style="fill: none; stroke: #000000; stroke-width: 2; stroke-linecap: round"/>
   </g>
   <g id="line2d_12">
    <path d="M 40.034528 114.40062 
L 65.466518 88.96863 
" clip-path="url(#pf2bed19160)" style="fill: none; stroke: #000000; stroke-width: 2; stroke-linecap: round"/>
   </g>
   <g id="text_1">
    <!-- $V$ -->
    <g transform="translate(99.306876 25.612924) scale(0.26 -0.26)">
     <defs>
      <path id="CMMI12-56" d="M 3962 3640 
C 4179 3984 4378 4136 4704 4162 
C 4768 4168 4819 4168 4819 4282 
C 4819 4308 4806 4346 4749 4346 
C 4634 4346 4358 4346 4243 4346 
C 4058 4346 3866 4346 3686 4346 
C 3635 4346 3571 4346 3571 4226 
C 3571 4168 3629 4162 3654 4162 
C 3891 4143 3917 4029 3917 3952 
C 3917 3857 3827 3710 3821 3704 
L 1811 540 
L 1363 3969 
C 1363 4160 1696 4160 1766 4160 
C 1862 4160 1920 4160 1920 4282 
C 1920 4346 1850 4346 1830 4346 
C 1722 4346 1594 4346 1485 4346 
L 1126 4346 
C 659 4346 467 4346 461 4346 
C 422 4346 346 4346 346 4230 
C 346 4160 390 4160 493 4160 
C 819 4160 838 4102 858 3944 
L 1370 24 
C 1389 -109 1389 -128 1478 -128 
C 1555 -128 1587 -109 1651 -8 
L 3962 3640 
z
" transform="scale(0.015625)"/>
     </defs>
     <use xlink:href="#CMMI12-56" transform="scale(0.996264)"/>
    </g>
   </g>
   <g id="text_2">
    <!-- $R_1$ -->
    <g transform="translate(200.7883 30.108707) scale(0.26 -0.26)">
     <defs>
      <path id="CMMI12-52" d="M 2355 3924 
C 2413 4160 2438 4160 2688 4160 
L 3149 4160 
C 3699 4160 4109 3995 4109 3499 
C 4109 3175 3942 2240 2656 2240 
L 1933 2240 
L 2355 3924 
z
M 3245 2169 
C 4038 2341 4659 2851 4659 3398 
C 4659 3894 4154 4352 3264 4352 
L 1530 4352 
C 1402 4352 1344 4352 1344 4226 
C 1344 4160 1389 4160 1510 4160 
C 1894 4160 1894 4112 1894 4045 
C 1894 4033 1894 3994 1869 3899 
L 1005 479 
C 947 256 934 192 493 192 
C 346 192 301 192 301 71 
C 301 7 371 7 390 7 
C 506 7 640 7 762 7 
L 1517 7 
C 1632 7 1766 7 1882 7 
C 1933 7 2003 7 2003 128 
C 2003 192 1946 192 1850 192 
C 1459 192 1459 243 1459 306 
C 1459 313 1459 357 1472 407 
L 1901 2112 
L 2669 2112 
C 3277 2112 3392 1731 3392 1522 
C 3392 1427 3328 1179 3283 1014 
C 3213 723 3194 652 3194 532 
C 3194 82 3565 -128 3994 -128 
C 4512 -128 4736 501 4736 591 
C 4736 635 4704 654 4666 654 
C 4614 654 4602 616 4589 565 
C 4435 114 4173 0 4013 0 
C 3853 0 3750 70 3750 356 
C 3750 509 3827 1088 3834 1120 
C 3866 1355 3866 1380 3866 1432 
C 3866 1896 3488 2093 3245 2169 
z
" transform="scale(0.015625)"/>
      <path id="CMR17-31" d="M 1702 4058 
C 1702 4192 1696 4192 1606 4192 
C 1357 3916 979 3827 621 3827 
C 602 3827 570 3827 563 3808 
C 557 3795 557 3782 557 3648 
C 755 3648 1088 3686 1344 3839 
L 1344 461 
C 1344 236 1331 160 781 160 
L 589 160 
L 589 0 
C 896 0 1216 0 1523 0 
C 1830 0 2150 0 2458 0 
L 2458 160 
L 2266 160 
C 1715 160 1702 230 1702 458 
L 1702 4058 
z
" transform="scale(0.015625)"/>
     </defs>
     <use xlink:href="#CMMI12-52" transform="scale(0.996264)"/>
     <use xlink:href="#CMR17-31" transform="translate(74.250826 -14.943915) scale(0.697382)"/>
    </g>
   </g>
   <g id="text_3">
    <!-- $R_2$ -->
    <g transform="translate(228.339089 108.159512) scale(0.26 -0.26)">
     <defs>
      <path id="CMR17-32" d="M 2669 989 
L 2554 989 
C 2490 536 2438 459 2413 420 
C 2381 369 1920 369 1830 369 
L 602 369 
C 832 619 1280 1072 1824 1597 
C 2214 1967 2669 2402 2669 3035 
C 2669 3790 2067 4224 1395 4224 
C 691 4224 262 3604 262 3030 
C 262 2780 448 2748 525 2748 
C 589 2748 781 2787 781 3010 
C 781 3207 614 3264 525 3264 
C 486 3264 448 3258 422 3245 
C 544 3790 915 4058 1306 4058 
C 1862 4058 2227 3617 2227 3035 
C 2227 2479 1901 2000 1536 1584 
L 262 146 
L 262 0 
L 2515 0 
L 2669 989 
z
" transform="scale(0.015625)"/>
     </defs>
     <use xlink:href="#CMMI12-52" transform="scale(0.996264)"/>
     <use xlink:href="#CMR17-32" transform="translate(74.250826 -14.943915) scale(0.697382)"/>
    </g>
   </g>
   <g id="text_4">
    <!-- $R_3$ -->
    <g transform="translate(228.339089 216.058309) scale(0.26 -0.26)">
     <defs>
      <path id="CMR17-33" d="M 1414 2157 
C 1984 2157 2234 1662 2234 1090 
C 2234 320 1824 25 1453 25 
C 1114 25 563 194 390 693 
C 422 680 454 680 486 680 
C 640 680 755 782 755 948 
C 755 1133 614 1216 486 1216 
C 378 1216 211 1165 211 926 
C 211 335 787 -128 1466 -128 
C 2176 -128 2720 430 2720 1085 
C 2720 1707 2208 2157 1600 2227 
C 2086 2328 2554 2756 2554 3329 
C 2554 3820 2048 4179 1472 4179 
C 890 4179 378 3829 378 3329 
C 378 3110 544 3072 627 3072 
C 762 3072 877 3155 877 3321 
C 877 3486 762 3569 627 3569 
C 602 3569 570 3569 544 3557 
C 730 3959 1235 4032 1459 4032 
C 1683 4032 2106 3925 2106 3320 
C 2106 3143 2080 2828 1862 2550 
C 1670 2304 1453 2304 1242 2284 
C 1210 2284 1062 2269 1037 2269 
C 992 2263 966 2257 966 2208 
C 966 2163 973 2157 1101 2157 
L 1414 2157 
z
" transform="scale(0.015625)"/>
     </defs>
     <use xlink:href="#CMMI12-52" transform="scale(0.996264)"/>
     <use xlink:href="#CMR17-33" transform="translate(74.250826 -14.943915) scale(0.697382)"/>
    </g>
   </g>
   <g id="text_5">
    <!-- $R_4$ -->
    <g transform="translate(200.7883 245.9063) scale(0.26 -0.26)">
     <defs>
      <path id="CMR17-34" d="M 2150 4122 
C 2150 4256 2144 4256 2029 4256 
L 128 1254 
L 128 1088 
L 1779 1088 
L 1779 457 
C 1779 224 1766 160 1318 160 
L 1197 160 
L 1197 0 
C 1402 0 1747 0 1965 0 
C 2182 0 2528 0 2733 0 
L 2733 160 
L 2611 160 
C 2163 160 2150 224 2150 457 
L 2150 1088 
L 2803 1088 
L 2803 1254 
L 2150 1254 
L 2150 4122 
z
M 1798 3703 
L 1798 1254 
L 256 1254 
L 1798 3703 
z
" transform="scale(0.015625)"/>
     </defs>
     <use xlink:href="#CMMI12-52" transform="scale(0.996264)"/>
     <use xlink:href="#CMR17-34" transform="translate(74.250826 -14.943915) scale(0.697382)"/>
    </g>
   </g>
   <g id="text_6">
    <!-- $R_5$ -->
    <g transform="translate(92.889504 245.9063) scale(0.26 -0.26)">
     <defs>
      <path id="CMR17-35" d="M 730 3692 
C 794 3666 1056 3584 1325 3584 
C 1920 3584 2246 3911 2432 4100 
C 2432 4157 2432 4192 2394 4192 
C 2387 4192 2374 4192 2323 4163 
C 2099 4058 1837 3973 1517 3973 
C 1325 3973 1037 3999 723 4139 
C 653 4171 640 4171 634 4171 
C 602 4171 595 4164 595 4037 
L 595 2203 
C 595 2089 595 2057 659 2057 
C 691 2057 704 2070 736 2114 
C 941 2401 1222 2522 1542 2522 
C 1766 2522 2246 2382 2246 1289 
C 2246 1085 2246 715 2054 421 
C 1894 159 1645 25 1370 25 
C 947 25 518 320 403 814 
C 429 807 480 795 506 795 
C 589 795 749 840 749 1038 
C 749 1210 627 1280 506 1280 
C 358 1280 262 1190 262 1011 
C 262 454 704 -128 1382 -128 
C 2042 -128 2669 440 2669 1264 
C 2669 2030 2170 2624 1549 2624 
C 1222 2624 947 2503 730 2274 
L 730 3692 
z
" transform="scale(0.015625)"/>
     </defs>
     <use xlink:href="#CMMI12-52" transform="scale(0.996264)"/>
     <use xlink:href="#CMR17-35" transform="translate(74.250826 -14.943915) scale(0.697382)"/>
    </g>
   </g>
   <g id="text_7">
    <!-- $R_6$ -->
    <g transform="translate(12.541497 216.058309) scale(0.26 -0.26)">
     <defs>
      <path id="CMR17-36" d="M 678 2176 
C 678 3690 1395 4032 1811 4032 
C 1946 4032 2272 4009 2400 3776 
C 2298 3776 2106 3776 2106 3553 
C 2106 3381 2246 3323 2336 3323 
C 2394 3323 2566 3348 2566 3560 
C 2566 3954 2246 4179 1805 4179 
C 1043 4179 243 3390 243 1984 
C 243 253 966 -128 1478 -128 
C 2099 -128 2688 427 2688 1283 
C 2688 2081 2170 2662 1517 2662 
C 1126 2662 838 2407 678 1960 
L 678 2176 
z
M 1478 25 
C 691 25 691 1200 691 1436 
C 691 1896 909 2560 1504 2560 
C 1613 2560 1926 2560 2138 2120 
C 2253 1870 2253 1609 2253 1289 
C 2253 944 2253 690 2118 434 
C 1978 171 1773 25 1478 25 
z
" transform="scale(0.015625)"/>
     </defs>
     <use xlink:href="#CMMI12-52" transform="scale(0.996264)"/>
     <use xlink:href="#CMR17-36" transform="translate(74.250826 -14.943915) scale(0.697382)"/>
    </g>
   </g>
   <g id="text_8">
    <!-- $L_1$ -->
    <g transform="translate(5.59872 108.159512) scale(0.26 -0.26)">
     <defs>
      <path id="CMMI12-4c" d="M 2349 3861 
C 2406 4103 2426 4167 2989 4167 
C 3162 4167 3206 4167 3206 4288 
C 3206 4352 3136 4352 3110 4352 
C 2982 4352 2835 4352 2707 4352 
L 1850 4352 
C 1728 4352 1587 4352 1466 4352 
C 1414 4352 1344 4352 1344 4231 
C 1344 4167 1402 4167 1498 4167 
C 1888 4167 1888 4116 1888 4046 
C 1888 4034 1888 3995 1862 3899 
L 998 472 
C 941 249 928 185 480 185 
C 358 185 294 185 294 70 
C 294 0 333 0 461 0 
L 3328 0 
C 3469 0 3475 6 3520 121 
L 4013 1478 
C 4026 1510 4038 1548 4038 1567 
C 4038 1605 4006 1631 3974 1631 
C 3968 1631 3936 1631 3923 1605 
C 3910 1599 3910 1586 3859 1465 
C 3654 905 3366 185 2285 185 
L 1670 185 
C 1581 185 1568 185 1530 192 
C 1459 198 1453 211 1453 262 
C 1453 307 1466 345 1478 401 
L 2349 3861 
z
" transform="scale(0.015625)"/>
     </defs>
     <use xlink:href="#CMMI12-4c" transform="scale(0.996264)"/>
     <use xlink:href="#CMR17-31" transform="translate(66.370875 -14.943915) scale(0.697382)"/>
    </g>
   </g>
   <g id="patch_3">
    <path d="M 52.750523 50.432697 
C 53.4659 50.432697 54.152074 50.148474 54.657922 49.642626 
C 55.16377 49.136778 55.447993 48.450604 55.447993 47.735227 
C 55.447993 47.019849 55.16377 46.333676 54.657922 45.827827 
C 54.152074 45.321979 53.4659 45.037757 52.750523 45.037757 
C 52.035145 45.037757 51.348972 45.321979 50.843123 45.827827 
C 50.337275 46.333676 50.053053 47.019849 50.053053 47.735227 
C 50.053053 48.450604 50.337275 49.136778 50.843123 49.642626 
C 51.348972 50.148474 52.035145 50.432697 52.750523 50.432697 
z
" clip-path="url(#pf2bed19160)" style="stroke: #000000; stroke-width: 2; stroke-linejoin: miter"/>
   </g>
   <g id="patch_4">
    <path d="M 268.548115 50.432697 
C 269.263492 50.432697 269.949666 50.148474 270.455514 49.642626 
C 270.961363 49.136778 271.245585 48.450604 271.245585 47.735227 
C 271.245585 47.019849 270.961363 46.333676 270.455514 45.827827 
C 269.949666 45.321979 269.263492 45.037757 268.548115 45.037757 
C 267.832738 45.037757 267.146564 45.321979 266.640716 45.827827 
C 266.134868 46.333676 265.850645 47.019849 265.850645 47.735227 
C 265.850645 48.450604 266.134868 49.136778 266.640716 49.642626 
C 267.146564 50.148474 267.832738 50.432697 268.548115 50.432697 
z
" clip-path="url(#pf2bed19160)" style="stroke: #000000; stroke-width: 2; stroke-linejoin: miter"/>
   </g>
   <g id="patch_5">
    <path d="M 268.548115 266.230289 
C 269.263492 266.230289 269.949666 265.946067 270.455514 265.440218 
C 270.961363 264.93437 271.245585 264.248197 271.245585 263.532819 
C 271.245585 262.817442 270.961363 262.131268 270.455514 261.62542 
C 269.949666 261.119572 269.263492 260.835349 268.548115 260.835349 
C 267.832738 260.835349 267.146564 261.119572 266.640716 261.62542 
C 266.134868 262.131268 265.850645 262.817442 265.850645 263.532819 
C 265.850645 264.248197 266.134868 264.93437 266.640716 265.440218 
C 267.146564 265.946067 267.832738 266.230289 268.548115 266.230289 
z
" clip-path="url(#pf2bed19160)" style="stroke: #000000; stroke-width: 2; stroke-linejoin: miter"/>
   </g>
   <g id="patch_6">
    <path d="M 52.750523 266.230289 
C 53.4659 266.230289 54.152074 265.946067 54.657922 265.440218 
C 55.16377 264.93437 55.447993 264.248197 55.447993 263.532819 
C 55.447993 262.817442 55.16377 262.131268 54.657922 261.62542 
C 54.152074 261.119572 53.4659 260.835349 52.750523 260.835349 
C 52.035145 260.835349 51.348972 261.119572 50.843123 261.62542 
C 50.337275 262.131268 50.053053 262.817442 50.053053 263.532819 
C 50.053053 264.248197 50.337275 264.93437 50.843123 265.440218 
C 51.348972 265.946067 52.035145 266.230289 52.750523 266.230289 
z
" clip-path="url(#pf2bed19160)" style="stroke: #000000; stroke-width: 2; stroke-linejoin: miter"/>
   </g>
   <g id="patch_7">
    <path d="M 52.750523 50.432697 
C 53.4659 50.432697 54.152074 50.148474 54.657922 49.642626 
C 55.16377 49.136778 55.447993 48.450604 55.447993 47.735227 
C 55.447993 47.019849 55.16377 46.333676 54.657922 45.827827 
C 54.152074 45.321979 53.4659 45.037757 52.750523 45.037757 
C 52.035145 45.037757 51.348972 45.321979 50.843123 45.827827 
C 50.337275 46.333676 50.053053 47.019849 50.053053 47.735227 
C 50.053053 48.450604 50.337275 49.136778 50.843123 49.642626 
C 51.348972 50.148474 52.035145 50.432697 52.750523 50.432697 
z
" clip-path="url(#pf2bed19160)" style="stroke: #000000; stroke-width: 2; stroke-linejoin: miter"/>
   </g>
  </g>
 </g>
 <defs>
  <clipPath id="pf2bed19160">
   <rect x="0" y="0" width="282.215296" height="277.2"/>
  </clipPath>
 </defs>
</svg>
