<?xml version="1.0" encoding="utf-8" standalone="no"?>
<!DOCTYPE svg PUBLIC "-//W3C//DTD SVG 1.1//EN"
  "http://www.w3.org/Graphics/SVG/1.1/DTD/svg11.dtd">
<svg xmlns:xlink="http://www.w3.org/1999/xlink" width="661.813331pt" height="433.44pt" viewBox="0 0 661.813331 433.44" xmlns="http://www.w3.org/2000/svg" version="1.1">
 <metadata>
  <rdf:RDF xmlns:dc="http://purl.org/dc/elements/1.1/" xmlns:cc="http://creativecommons.org/ns#" xmlns:rdf="http://www.w3.org/1999/02/22-rdf-syntax-ns#">
   <cc:Work>
    <dc:type rdf:resource="http://purl.org/dc/dcmitype/StillImage"/>
    <dc:date>2026-02-15T21:53:24.341773</dc:date>
    <dc:format>image/svg+xml</dc:format>
    <dc:creator>
     <cc:Agent>
      <dc:title>Matplotlib v3.9.1, https://matplotlib.org/</dc:title>
     </cc:Agent>
    </dc:creator>
   </cc:Work>
  </rdf:RDF>
 </metadata>
 <defs>
  <style type="text/css">*{stroke-linejoin: round; stroke-linecap: butt}</style>
 </defs>
 <g id="figure_1">
  <g id="patch_1">
   <path d="M 0 433.44 
L 661.813331 433.44 
L 661.813331 0 
L 0 0 
L 0 433.44 
z
" style="fill: none"/>
  </g>
  <g id="axes_1">
   <g id="patch_2">
    <path d="M 600.521004 123.203767 
C 605.287842 123.203767 609.860083 121.309883 613.230746 117.93922 
C 616.601409 114.568557 618.495294 109.996315 618.495294 105.229478 
C 618.495294 100.462641 616.601409 95.890399 613.230746 92.519736 
C 609.860083 89.149073 605.287842 87.255189 600.521004 87.255189 
C 595.754167 87.255189 591.181926 89.149073 587.811263 92.519736 
C 584.4406 95.890399 582.546715 100.462641 582.546715 105.229478 
C 582.546715 109.996315 584.4406 114.568557 587.811263 117.93922 
C 591.181926 121.309883 595.754167 123.203767 600.521004 123.203767 
L 600.521004 123.203767 
z
" clip-path="url(#p378b3fdc10)" style="fill: none; stroke: #000000; stroke-width: 2; stroke-linejoin: miter"/>
   </g>
   <g id="line2d_1">
    <path d="M 7.369459 105.229478 
L 57.922147 105.229478 
M 64.662506 105.229478 
L 115.215194 105.229478 
" clip-path="url(#p378b3fdc10)" style="fill: none; stroke: #000000; stroke-width: 2; stroke-linecap: round"/>
   </g>
   <g id="line2d_2">
    <path d="M 64.662506 118.710195 
L 64.662506 91.748761 
" clip-path="url(#p378b3fdc10)" style="fill: none; stroke: #000000; stroke-width: 2; stroke-linecap: round"/>
   </g>
   <g id="line2d_3">
    <path d="M 57.922147 111.969836 
L 57.922147 98.489119 
" clip-path="url(#p378b3fdc10)" style="fill: none; stroke: #000000; stroke-width: 2; stroke-linecap: round"/>
   </g>
   <g id="line2d_4">
    <path d="M 115.215194 105.229478 
L 151.163773 105.229478 
L 151.163773 96.242333 
L 187.112351 96.242333 
L 187.112351 114.216623 
L 151.163773 114.216623 
L 151.163773 105.229478 
M 187.112351 105.229478 
L 223.06093 105.229478 
" clip-path="url(#p378b3fdc10)" style="fill: none; stroke: #000000; stroke-width: 2; stroke-linecap: round"/>
   </g>
   <g id="line2d_5">
    <path d="M 223.06093 105.229478 
L 223.06093 74.223829 
L 223.06093 43.21818 
" clip-path="url(#p378b3fdc10)" style="fill: none; stroke: #000000; stroke-width: 2; stroke-linecap: round"/>
   </g>
   <g id="line2d_6">
    <path d="M 223.06093 43.21818 
L 259.009508 43.21818 
L 259.009508 34.231035 
L 294.958087 34.231035 
L 294.958087 52.205325 
L 259.009508 52.205325 
L 259.009508 43.21818 
M 294.958087 43.21818 
L 330.906665 43.21818 
" clip-path="url(#p378b3fdc10)" style="fill: none; stroke: #000000; stroke-width: 2; stroke-linecap: round"/>
   </g>
   <g id="line2d_7">
    <path d="M 330.906665 43.21818 
L 330.906665 74.223829 
L 330.906665 105.229478 
" clip-path="url(#p378b3fdc10)" style="fill: none; stroke: #000000; stroke-width: 2; stroke-linecap: round"/>
   </g>
   <g id="line2d_8">
    <path d="M 223.06093 105.229478 
L 223.06093 136.235127 
L 223.06093 167.240776 
" clip-path="url(#p378b3fdc10)" style="fill: none; stroke: #000000; stroke-width: 2; stroke-linecap: round"/>
   </g>
   <g id="line2d_9">
    <path d="M 223.06093 167.240776 
L 259.009508 167.240776 
L 259.009508 158.253631 
L 294.958087 158.253631 
L 294.958087 176.227921 
L 259.009508 176.227921 
L 259.009508 167.240776 
M 294.958087 167.240776 
L 330.906665 167.240776 
" clip-path="url(#p378b3fdc10)" style="fill: none; stroke: #000000; stroke-width: 2; stroke-linecap: round"/>
   </g>
   <g id="line2d_10">
    <path d="M 330.906665 167.240776 
L 330.906665 136.235127 
L 330.906665 105.229478 
" clip-path="url(#p378b3fdc10)" style="fill: none; stroke: #000000; stroke-width: 2; stroke-linecap: round"/>
   </g>
   <g id="line2d_11">
    <path d="M 330.906665 105.229478 
L 366.855244 105.229478 
L 366.855244 96.242333 
L 402.803823 96.242333 
L 402.803823 114.216623 
L 366.855244 114.216623 
L 366.855244 105.229478 
M 402.803823 105.229478 
L 438.752401 105.229478 
" clip-path="url(#p378b3fdc10)" style="fill: none; stroke: #000000; stroke-width: 2; stroke-linecap: round"/>
   </g>
   <g id="line2d_12">
    <path d="M 438.752401 105.229478 
L 474.70098 105.229478 
L 474.70098 96.242333 
L 510.649558 96.242333 
L 510.649558 114.216623 
L 474.70098 114.216623 
L 474.70098 105.229478 
M 510.649558 105.229478 
L 546.598137 105.229478 
" clip-path="url(#p378b3fdc10)" style="fill: none; stroke: #000000; stroke-width: 2; stroke-linecap: round"/>
   </g>
   <g id="line2d_13">
    <path d="M 546.598137 105.229478 
L 582.546715 105.229478 
L 582.546715 105.229478 
M 618.495294 105.229478 
L 618.495294 105.229478 
L 654.443872 105.229478 
" clip-path="url(#p378b3fdc10)" style="fill: none; stroke: #000000; stroke-width: 2; stroke-linecap: round"/>
   </g>
   <g id="line2d_14">
    <path d="M 587.811263 117.93922 
L 613.230746 92.519736 
" clip-path="url(#p378b3fdc10)" style="fill: none; stroke: #000000; stroke-width: 2; stroke-linecap: round"/>
   </g>
   <g id="line2d_15">
    <path d="M 587.811263 92.519736 
L 613.230746 117.93922 
" clip-path="url(#p378b3fdc10)" style="fill: none; stroke: #000000; stroke-width: 2; stroke-linecap: round"/>
   </g>
   <g id="line2d_16">
    <path d="M 654.443872 105.229478 
L 654.443872 266.998081 
L 654.443872 428.766685 
" clip-path="url(#p378b3fdc10)" style="fill: none; stroke: #000000; stroke-width: 2; stroke-linecap: round"/>
   </g>
   <g id="line2d_17">
    <path d="M 654.443872 428.766685 
L 330.906665 428.766685 
L 7.369459 428.766685 
" clip-path="url(#p378b3fdc10)" style="fill: none; stroke: #000000; stroke-width: 2; stroke-linecap: round"/>
   </g>
   <g id="line2d_18">
    <path d="M 7.369459 428.766685 
L 7.369459 266.998081 
L 7.369459 105.229478 
" clip-path="url(#p378b3fdc10)" style="fill: none; stroke: #000000; stroke-width: 2; stroke-linecap: round"/>
   </g>
   <g id="text_1">
    <!-- $V$ -->
    <g transform="translate(53.899282 83.115576) scale(0.26 -0.26)">
     <defs>
      <path id="CMMI12-56" d="M 3962 3640 
C 4179 3984 4378 4136 4704 4162 
C 4768 4168 4819 4168 4819 4282 
C 4819 4308 4806 4346 4749 4346 
C 4634 4346 4358 4346 4243 4346 
C 4058 4346 3866 4346 3686 4346 
C 3635 4346 3571 4346 3571 4226 
C 3571 4168 3629 4162 3654 4162 
C 3891 4143 3917 4029 3917 3952 
C 3917 3857 3827 3710 3821 3704 
L 1811 540 
L 1363 3969 
C 1363 4160 1696 4160 1766 4160 
C 1862 4160 1920 4160 1920 4282 
C 1920 4346 1850 4346 1830 4346 
C 1722 4346 1594 4346 1485 4346 
L 1126 4346 
C 659 4346 467 4346 461 4346 
C 422 4346 346 4346 346 4230 
C 346 4160 390 4160 493 4160 
C 819 4160 838 4102 858 3944 
L 1370 24 
C 1389 -109 1389 -128 1478 -128 
C 1555 -128 1587 -109 1651 -8 
L 3962 3640 
z
" transform="scale(0.015625)"/>
     </defs>
     <use xlink:href="#CMMI12-56" transform="scale(0.996264)"/>
    </g>
   </g>
   <g id="text_2">
    <!-- $R_1$ -->
    <g transform="translate(155.327646 87.609149) scale(0.26 -0.26)">
     <defs>
      <path id="CMMI12-52" d="M 2355 3924 
C 2413 4160 2438 4160 2688 4160 
L 3149 4160 
C 3699 4160 4109 3995 4109 3499 
C 4109 3175 3942 2240 2656 2240 
L 1933 2240 
L 2355 3924 
z
M 3245 2169 
C 4038 2341 4659 2851 4659 3398 
C 4659 3894 4154 4352 3264 4352 
L 1530 4352 
C 1402 4352 1344 4352 1344 4226 
C 1344 4160 1389 4160 1510 4160 
C 1894 4160 1894 4112 1894 4045 
C 1894 4033 1894 3994 1869 3899 
L 1005 479 
C 947 256 934 192 493 192 
C 346 192 301 192 301 71 
C 301 7 371 7 390 7 
C 506 7 640 7 762 7 
L 1517 7 
C 1632 7 1766 7 1882 7 
C 1933 7 2003 7 2003 128 
C 2003 192 1946 192 1850 192 
C 1459 192 1459 243 1459 306 
C 1459 313 1459 357 1472 407 
L 1901 2112 
L 2669 2112 
C 3277 2112 3392 1731 3392 1522 
C 3392 1427 3328 1179 3283 1014 
C 3213 723 3194 652 3194 532 
C 3194 82 3565 -128 3994 -128 
C 4512 -128 4736 501 4736 591 
C 4736 635 4704 654 4666 654 
C 4614 654 4602 616 4589 565 
C 4435 114 4173 0 4013 0 
C 3853 0 3750 70 3750 356 
C 3750 509 3827 1088 3834 1120 
C 3866 1355 3866 1380 3866 1432 
C 3866 1896 3488 2093 3245 2169 
z
" transform="scale(0.015625)"/>
      <path id="CMR17-31" d="M 1702 4058 
C 1702 4192 1696 4192 1606 4192 
C 1357 3916 979 3827 621 3827 
C 602 3827 570 3827 563 3808 
C 557 3795 557 3782 557 3648 
C 755 3648 1088 3686 1344 3839 
L 1344 461 
C 1344 236 1331 160 781 160 
L 589 160 
L 589 0 
C 896 0 1216 0 1523 0 
C 1830 0 2150 0 2458 0 
L 2458 160 
L 2266 160 
C 1715 160 1702 230 1702 458 
L 1702 4058 
z
" transform="scale(0.015625)"/>
     </defs>
     <use xlink:href="#CMMI12-52" transform="scale(0.996264)"/>
     <use xlink:href="#CMR17-31" transform="translate(74.250826 -14.943915) scale(0.697382)"/>
    </g>
   </g>
   <g id="text_3">
    <!-- $R_2$ -->
    <g transform="translate(263.173381 25.597851) scale(0.26 -0.26)">
     <defs>
      <path id="CMR17-32" d="M 2669 989 
L 2554 989 
C 2490 536 2438 459 2413 420 
C 2381 369 1920 369 1830 369 
L 602 369 
C 832 619 1280 1072 1824 1597 
C 2214 1967 2669 2402 2669 3035 
C 2669 3790 2067 4224 1395 4224 
C 691 4224 262 3604 262 3030 
C 262 2780 448 2748 525 2748 
C 589 2748 781 2787 781 3010 
C 781 3207 614 3264 525 3264 
C 486 3264 448 3258 422 3245 
C 544 3790 915 4058 1306 4058 
C 1862 4058 2227 3617 2227 3035 
C 2227 2479 1901 2000 1536 1584 
L 262 146 
L 262 0 
L 2515 0 
L 2669 989 
z
" transform="scale(0.015625)"/>
     </defs>
     <use xlink:href="#CMMI12-52" transform="scale(0.996264)"/>
     <use xlink:href="#CMR17-32" transform="translate(74.250826 -14.943915) scale(0.697382)"/>
    </g>
   </g>
   <g id="text_4">
    <!-- $R_3$ -->
    <g transform="translate(263.173381 149.620447) scale(0.26 -0.26)">
     <defs>
      <path id="CMR17-33" d="M 1414 2157 
C 1984 2157 2234 1662 2234 1090 
C 2234 320 1824 25 1453 25 
C 1114 25 563 194 390 693 
C 422 680 454 680 486 680 
C 640 680 755 782 755 948 
C 755 1133 614 1216 486 1216 
C 378 1216 211 1165 211 926 
C 211 335 787 -128 1466 -128 
C 2176 -128 2720 430 2720 1085 
C 2720 1707 2208 2157 1600 2227 
C 2086 2328 2554 2756 2554 3329 
C 2554 3820 2048 4179 1472 4179 
C 890 4179 378 3829 378 3329 
C 378 3110 544 3072 627 3072 
C 762 3072 877 3155 877 3321 
C 877 3486 762 3569 627 3569 
C 602 3569 570 3569 544 3557 
C 730 3959 1235 4032 1459 4032 
C 1683 4032 2106 3925 2106 3320 
C 2106 3143 2080 2828 1862 2550 
C 1670 2304 1453 2304 1242 2284 
C 1210 2284 1062 2269 1037 2269 
C 992 2263 966 2257 966 2208 
C 966 2163 973 2157 1101 2157 
L 1414 2157 
z
" transform="scale(0.015625)"/>
     </defs>
     <use xlink:href="#CMMI12-52" transform="scale(0.996264)"/>
     <use xlink:href="#CMR17-33" transform="translate(74.250826 -14.943915) scale(0.697382)"/>
    </g>
   </g>
   <g id="text_5">
    <!-- $R_4$ -->
    <g transform="translate(371.019117 87.609149) scale(0.26 -0.26)">
     <defs>
      <path id="CMR17-34" d="M 2150 4122 
C 2150 4256 2144 4256 2029 4256 
L 128 1254 
L 128 1088 
L 1779 1088 
L 1779 457 
C 1779 224 1766 160 1318 160 
L 1197 160 
L 1197 0 
C 1402 0 1747 0 1965 0 
C 2182 0 2528 0 2733 0 
L 2733 160 
L 2611 160 
C 2163 160 2150 224 2150 457 
L 2150 1088 
L 2803 1088 
L 2803 1254 
L 2150 1254 
L 2150 4122 
z
M 1798 3703 
L 1798 1254 
L 256 1254 
L 1798 3703 
z
" transform="scale(0.015625)"/>
     </defs>
     <use xlink:href="#CMMI12-52" transform="scale(0.996264)"/>
     <use xlink:href="#CMR17-34" transform="translate(74.250826 -14.943915) scale(0.697382)"/>
    </g>
   </g>
   <g id="text_6">
    <!-- $R_5$ -->
    <g transform="translate(478.864852 87.609149) scale(0.26 -0.26)">
     <defs>
      <path id="CMR17-35" d="M 730 3692 
C 794 3666 1056 3584 1325 3584 
C 1920 3584 2246 3911 2432 4100 
C 2432 4157 2432 4192 2394 4192 
C 2387 4192 2374 4192 2323 4163 
C 2099 4058 1837 3973 1517 3973 
C 1325 3973 1037 3999 723 4139 
C 653 4171 640 4171 634 4171 
C 602 4171 595 4164 595 4037 
L 595 2203 
C 595 2089 595 2057 659 2057 
C 691 2057 704 2070 736 2114 
C 941 2401 1222 2522 1542 2522 
C 1766 2522 2246 2382 2246 1289 
C 2246 1085 2246 715 2054 421 
C 1894 159 1645 25 1370 25 
C 947 25 518 320 403 814 
C 429 807 480 795 506 795 
C 589 795 749 840 749 1038 
C 749 1210 627 1280 506 1280 
C 358 1280 262 1190 262 1011 
C 262 454 704 -128 1382 -128 
C 2042 -128 2669 440 2669 1264 
C 2669 2030 2170 2624 1549 2624 
C 1222 2624 947 2503 730 2274 
L 730 3692 
z
" transform="scale(0.015625)"/>
     </defs>
     <use xlink:href="#CMMI12-52" transform="scale(0.996264)"/>
     <use xlink:href="#CMR17-35" transform="translate(74.250826 -14.943915) scale(0.697382)"/>
    </g>
   </g>
   <g id="text_7">
    <!-- $L_1$ -->
    <g transform="translate(587.734983 78.622004) scale(0.26 -0.26)">
     <defs>
      <path id="CMMI12-4c" d="M 2349 3861 
C 2406 4103 2426 4167 2989 4167 
C 3162 4167 3206 4167 3206 4288 
C 3206 4352 3136 4352 3110 4352 
C 2982 4352 2835 4352 2707 4352 
L 1850 4352 
C 1728 4352 1587 4352 1466 4352 
C 1414 4352 1344 4352 1344 4231 
C 1344 4167 1402 4167 1498 4167 
C 1888 4167 1888 4116 1888 4046 
C 1888 4034 1888 3995 1862 3899 
L 998 472 
C 941 249 928 185 480 185 
C 358 185 294 185 294 70 
C 294 0 333 0 461 0 
L 3328 0 
C 3469 0 3475 6 3520 121 
L 4013 1478 
C 4026 1510 4038 1548 4038 1567 
C 4038 1605 4006 1631 3974 1631 
C 3968 1631 3936 1631 3923 1605 
C 3910 1599 3910 1586 3859 1465 
C 3654 905 3366 185 2285 185 
L 1670 185 
C 1581 185 1568 185 1530 192 
C 1459 198 1453 211 1453 262 
C 1453 307 1466 345 1478 401 
L 2349 3861 
z
" transform="scale(0.015625)"/>
     </defs>
     <use xlink:href="#CMMI12-4c" transform="scale(0.996264)"/>
     <use xlink:href="#CMR17-31" transform="translate(66.370875 -14.943915) scale(0.697382)"/>
    </g>
   </g>
   <g id="patch_3">
    <path d="M 223.06093 107.925621 
C 223.775955 107.925621 224.461792 107.641539 224.967391 107.135939 
C 225.472991 106.63034 225.757073 105.944504 225.757073 105.229478 
C 225.757073 104.514452 225.472991 103.828616 224.967391 103.323017 
C 224.461792 102.817417 223.775955 102.533335 223.06093 102.533335 
C 222.345904 102.533335 221.660068 102.817417 221.154469 103.323017 
C 220.648869 103.828616 220.364786 104.514452 220.364786 105.229478 
C 220.364786 105.944504 220.648869 106.63034 221.154469 107.135939 
C 221.660068 107.641539 222.345904 107.925621 223.06093 107.925621 
z
" clip-path="url(#p378b3fdc10)" style="stroke: #000000; stroke-width: 2; stroke-linejoin: miter"/>
   </g>
   <g id="patch_4">
    <path d="M 330.906665 107.925621 
C 331.621691 107.925621 332.307527 107.641539 332.813127 107.135939 
C 333.318726 106.63034 333.602809 105.944504 333.602809 105.229478 
C 333.602809 104.514452 333.318726 103.828616 332.813127 103.323017 
C 332.307527 102.817417 331.621691 102.533335 330.906665 102.533335 
C 330.19164 102.533335 329.505804 102.817417 329.000204 103.323017 
C 328.494605 103.828616 328.210522 104.514452 328.210522 105.229478 
C 328.210522 105.944504 328.494605 106.63034 329.000204 107.135939 
C 329.505804 107.641539 330.19164 107.925621 330.906665 107.925621 
z
" clip-path="url(#p378b3fdc10)" style="stroke: #000000; stroke-width: 2; stroke-linejoin: miter"/>
   </g>
   <g id="patch_5">
    <path d="M 654.443872 107.925621 
C 655.158898 107.925621 655.844734 107.641539 656.350334 107.135939 
C 656.855933 106.63034 657.140016 105.944504 657.140016 105.229478 
C 657.140016 104.514452 656.855933 103.828616 656.350334 103.323017 
C 655.844734 102.817417 655.158898 102.533335 654.443872 102.533335 
C 653.728847 102.533335 653.04301 102.817417 652.537411 103.323017 
C 652.031812 103.828616 651.747729 104.514452 651.747729 105.229478 
C 651.747729 105.944504 652.031812 106.63034 652.537411 107.135939 
C 653.04301 107.641539 653.728847 107.925621 654.443872 107.925621 
z
" clip-path="url(#p378b3fdc10)" style="stroke: #000000; stroke-width: 2; stroke-linejoin: miter"/>
   </g>
   <g id="patch_6">
    <path d="M 7.369459 107.925621 
C 8.084484 107.925621 8.77032 107.641539 9.27592 107.135939 
C 9.781519 106.63034 10.065602 105.944504 10.065602 105.229478 
C 10.065602 104.514452 9.781519 103.828616 9.27592 103.323017 
C 8.77032 102.817417 8.084484 102.533335 7.369459 102.533335 
C 6.654433 102.533335 5.968597 102.817417 5.462997 103.323017 
C 4.957398 103.828616 4.673315 104.514452 4.673315 105.229478 
C 4.673315 105.944504 4.957398 106.63034 5.462997 107.135939 
C 5.968597 107.641539 6.654433 107.925621 7.369459 107.925621 
z
" clip-path="url(#p378b3fdc10)" style="stroke: #000000; stroke-width: 2; stroke-linejoin: miter"/>
   </g>
  </g>
 </g>
 <defs>
  <clipPath id="p378b3fdc10">
   <rect x="0" y="-0" width="661.813331" height="433.44"/>
  </clipPath>
 </defs>
</svg>
