<?xml version="1.0" encoding="utf-8" standalone="no"?>
<!DOCTYPE svg PUBLIC "-//W3C//DTD SVG 1.1//EN"
  "http://www.w3.org/Graphics/SVG/1.1/DTD/svg11.dtd">
<svg xmlns:xlink="http://www.w3.org/1999/xlink" width="553.941001pt" height="446.4pt" viewBox="0 0 553.941001 446.4" xmlns="http://www.w3.org/2000/svg" version="1.1">
 <metadata>
  <rdf:RDF xmlns:dc="http://purl.org/dc/elements/1.1/" xmlns:cc="http://creativecommons.org/ns#" xmlns:rdf="http://www.w3.org/1999/02/22-rdf-syntax-ns#">
   <cc:Work>
    <dc:type rdf:resource="http://purl.org/dc/dcmitype/StillImage"/>
    <dc:date>2026-02-15T21:53:24.186032</dc:date>
    <dc:format>image/svg+xml</dc:format>
    <dc:creator>
     <cc:Agent>
      <dc:title>Matplotlib v3.9.1, https://matplotlib.org/</dc:title>
     </cc:Agent>
    </dc:creator>
   </cc:Work>
  </rdf:RDF>
 </metadata>
 <defs>
  <style type="text/css">*{stroke-linejoin: round; stroke-linecap: butt}</style>
 </defs>
 <g id="figure_1">
  <g id="patch_1">
   <path d="M 0 446.4 
L 553.941001 446.4 
L 553.941001 0 
L 0 0 
L 0 446.4 
z
" style="fill: none"/>
  </g>
  <g id="axes_1">
   <g id="patch_2">
    <path d="M 276.970501 74.17034 
C 281.737109 74.17034 286.309131 72.276546 289.679632 68.906045 
C 293.050133 65.535544 294.943927 60.963522 294.943927 56.196913 
C 294.943927 51.430305 293.050133 46.858283 289.679632 43.487781 
C 286.309131 40.11728 281.737109 38.223487 276.970501 38.223487 
C 272.203892 38.223487 267.63187 40.11728 264.261369 43.487781 
C 260.890868 46.858283 258.997074 51.430305 258.997074 56.196913 
C 258.997074 60.963522 260.890868 65.535544 264.261369 68.906045 
C 267.63187 72.276546 272.203892 74.17034 276.970501 74.17034 
L 276.970501 74.17034 
z
" clip-path="url(#pc32de1c61d)" style="fill: none; stroke: #000000; stroke-width: 2; stroke-linejoin: miter"/>
   </g>
   <g id="patch_3">
    <path d="M 270.679801 171.226842 
L 283.2612 180.213555 
L 270.679801 189.200268 
L 270.679801 171.226842 
z
" clip-path="url(#pc32de1c61d)" style="fill: none; stroke: #000000; stroke-width: 2; stroke-linecap: round"/>
   </g>
   <g id="line2d_1">
    <path d="M 7.369105 118.205234 
L 57.919367 118.205234 
M 64.659401 118.205234 
L 115.209663 118.205234 
" clip-path="url(#pc32de1c61d)" style="fill: none; stroke: #000000; stroke-width: 2; stroke-linecap: round"/>
   </g>
   <g id="line2d_2">
    <path d="M 64.659401 131.685304 
L 64.659401 104.725164 
" clip-path="url(#pc32de1c61d)" style="fill: none; stroke: #000000; stroke-width: 2; stroke-linecap: round"/>
   </g>
   <g id="line2d_3">
    <path d="M 57.919367 124.945269 
L 57.919367 111.465199 
" clip-path="url(#pc32de1c61d)" style="fill: none; stroke: #000000; stroke-width: 2; stroke-linecap: round"/>
   </g>
   <g id="line2d_4">
    <path d="M 115.209663 118.205234 
L 151.156516 118.205234 
L 151.156516 109.218521 
L 187.103369 109.218521 
L 187.103369 127.191947 
L 151.156516 127.191947 
L 151.156516 118.205234 
M 187.103369 118.205234 
L 223.050221 118.205234 
" clip-path="url(#pc32de1c61d)" style="fill: none; stroke: #000000; stroke-width: 2; stroke-linecap: round"/>
   </g>
   <g id="line2d_5">
    <path d="M 223.050221 118.205234 
L 223.050221 87.201074 
L 223.050221 56.196913 
" clip-path="url(#pc32de1c61d)" style="fill: none; stroke: #000000; stroke-width: 2; stroke-linecap: round"/>
   </g>
   <g id="line2d_6">
    <path d="M 223.050221 56.196913 
L 258.997074 56.196913 
L 258.997074 56.196913 
M 294.943927 56.196913 
L 294.943927 56.196913 
L 330.89078 56.196913 
" clip-path="url(#pc32de1c61d)" style="fill: none; stroke: #000000; stroke-width: 2; stroke-linecap: round"/>
   </g>
   <g id="line2d_7">
    <path d="M 264.261369 68.906045 
L 289.679632 43.487781 
" clip-path="url(#pc32de1c61d)" style="fill: none; stroke: #000000; stroke-width: 2; stroke-linecap: round"/>
   </g>
   <g id="line2d_8">
    <path d="M 264.261369 43.487781 
L 289.679632 68.906045 
" clip-path="url(#pc32de1c61d)" style="fill: none; stroke: #000000; stroke-width: 2; stroke-linecap: round"/>
   </g>
   <g id="line2d_9">
    <path d="M 330.89078 56.196913 
L 384.811059 56.196913 
L 438.731338 56.196913 
" clip-path="url(#pc32de1c61d)" style="fill: none; stroke: #000000; stroke-width: 2; stroke-linecap: round"/>
   </g>
   <g id="line2d_10">
    <path d="M 438.731338 56.196913 
L 438.731338 87.201074 
L 438.731338 118.205234 
" clip-path="url(#pc32de1c61d)" style="fill: none; stroke: #000000; stroke-width: 2; stroke-linecap: round"/>
   </g>
   <g id="line2d_11">
    <path d="M 223.050221 118.205234 
L 223.050221 149.209395 
L 223.050221 180.213555 
" clip-path="url(#pc32de1c61d)" style="fill: none; stroke: #000000; stroke-width: 2; stroke-linecap: round"/>
   </g>
   <g id="line2d_12">
    <path d="M 223.050221 180.213555 
L 270.679801 180.213555 
M 283.2612 171.226842 
L 283.2612 189.200268 
M 283.2612 180.213555 
L 330.89078 180.213555 
" clip-path="url(#pc32de1c61d)" style="fill: none; stroke: #000000; stroke-width: 2; stroke-linecap: round"/>
   </g>
   <g id="line2d_13">
    <path d="M 279.666515 166.733485 
L 285.086301 157.248859 
" clip-path="url(#pc32de1c61d)" style="fill: none; stroke: #000000; stroke-width: 2; stroke-linecap: round"/>
   </g>
   <g id="patch_4">
    <path d="M 282.589452 155.822088 
L 288.653228 151.006737 
L 287.58315 158.67563 
z
" clip-path="url(#pc32de1c61d)"/>
   </g>
   <g id="line2d_14">
    <path d="M 271.578473 166.733485 
L 276.998259 157.248859 
" clip-path="url(#pc32de1c61d)" style="fill: none; stroke: #000000; stroke-width: 2; stroke-linecap: round"/>
   </g>
   <g id="patch_5">
    <path d="M 274.501411 155.822088 
L 280.565186 151.006737 
L 279.495108 158.67563 
z
" clip-path="url(#pc32de1c61d)"/>
   </g>
   <g id="line2d_15">
    <path d="M 330.89078 180.213555 
L 366.837633 180.213555 
L 366.837633 171.226842 
L 402.784485 171.226842 
L 402.784485 189.200268 
L 366.837633 189.200268 
L 366.837633 180.213555 
M 402.784485 180.213555 
L 438.731338 180.213555 
" clip-path="url(#pc32de1c61d)" style="fill: none; stroke: #000000; stroke-width: 2; stroke-linecap: round"/>
   </g>
   <g id="line2d_16">
    <path d="M 438.731338 180.213555 
L 438.731338 149.209395 
L 438.731338 118.205234 
" clip-path="url(#pc32de1c61d)" style="fill: none; stroke: #000000; stroke-width: 2; stroke-linecap: round"/>
   </g>
   <g id="line2d_17">
    <path d="M 438.731338 118.205234 
L 474.678191 118.205234 
L 474.678191 109.218521 
L 510.625044 109.218521 
L 510.625044 127.191947 
L 474.678191 127.191947 
L 474.678191 118.205234 
M 510.625044 118.205234 
L 546.571896 118.205234 
" clip-path="url(#pc32de1c61d)" style="fill: none; stroke: #000000; stroke-width: 2; stroke-linecap: round"/>
   </g>
   <g id="line2d_18">
    <path d="M 480.669333 136.178661 
L 500.865971 103.359124 
" clip-path="url(#pc32de1c61d)" style="fill: none; stroke: #000000; stroke-width: 2; stroke-linecap: round"/>
   </g>
   <g id="patch_6">
    <path d="M 498.416816 101.851952 
L 504.633901 97.236237 
L 503.315126 104.866296 
z
" clip-path="url(#pc32de1c61d)"/>
   </g>
   <g id="line2d_19">
    <path d="M 546.571896 118.205234 
L 546.571896 279.966072 
L 546.571896 441.726909 
" clip-path="url(#pc32de1c61d)" style="fill: none; stroke: #000000; stroke-width: 2; stroke-linecap: round"/>
   </g>
   <g id="line2d_20">
    <path d="M 546.571896 441.726909 
L 276.970501 441.726909 
L 7.369105 441.726909 
" clip-path="url(#pc32de1c61d)" style="fill: none; stroke: #000000; stroke-width: 2; stroke-linecap: round"/>
   </g>
   <g id="line2d_21">
    <path d="M 7.369105 441.726909 
L 7.369105 279.966072 
L 7.369105 118.205234 
" clip-path="url(#pc32de1c61d)" style="fill: none; stroke: #000000; stroke-width: 2; stroke-linecap: round"/>
   </g>
   <g id="text_1">
    <!-- $V_1$ -->
    <g transform="translate(47.961472 95.317029) scale(0.3 -0.3)">
     <defs>
      <path id="CMMI12-56" d="M 3962 3640 
C 4179 3984 4378 4136 4704 4162 
C 4768 4168 4819 4168 4819 4282 
C 4819 4308 4806 4346 4749 4346 
C 4634 4346 4358 4346 4243 4346 
C 4058 4346 3866 4346 3686 4346 
C 3635 4346 3571 4346 3571 4226 
C 3571 4168 3629 4162 3654 4162 
C 3891 4143 3917 4029 3917 3952 
C 3917 3857 3827 3710 3821 3704 
L 1811 540 
L 1363 3969 
C 1363 4160 1696 4160 1766 4160 
C 1862 4160 1920 4160 1920 4282 
C 1920 4346 1850 4346 1830 4346 
C 1722 4346 1594 4346 1485 4346 
L 1126 4346 
C 659 4346 467 4346 461 4346 
C 422 4346 346 4346 346 4230 
C 346 4160 390 4160 493 4160 
C 819 4160 838 4102 858 3944 
L 1370 24 
C 1389 -109 1389 -128 1478 -128 
C 1555 -128 1587 -109 1651 -8 
L 3962 3640 
z
" transform="scale(0.015625)"/>
      <path id="CMR17-31" d="M 1702 4058 
C 1702 4192 1696 4192 1606 4192 
C 1357 3916 979 3827 621 3827 
C 602 3827 570 3827 563 3808 
C 557 3795 557 3782 557 3648 
C 755 3648 1088 3686 1344 3839 
L 1344 461 
C 1344 236 1331 160 781 160 
L 589 160 
L 589 0 
C 896 0 1216 0 1523 0 
C 1830 0 2150 0 2458 0 
L 2458 160 
L 2266 160 
C 1715 160 1702 230 1702 458 
L 1702 4058 
z
" transform="scale(0.015625)"/>
     </defs>
     <use xlink:href="#CMMI12-56" transform="scale(0.996264)"/>
     <use xlink:href="#CMR17-31" transform="translate(56.869579 -14.943915) scale(0.697382)"/>
    </g>
   </g>
   <g id="text_2">
    <!-- $R_1$ -->
    <g transform="translate(153.194841 99.810385) scale(0.3 -0.3)">
     <defs>
      <path id="CMMI12-52" d="M 2355 3924 
C 2413 4160 2438 4160 2688 4160 
L 3149 4160 
C 3699 4160 4109 3995 4109 3499 
C 4109 3175 3942 2240 2656 2240 
L 1933 2240 
L 2355 3924 
z
M 3245 2169 
C 4038 2341 4659 2851 4659 3398 
C 4659 3894 4154 4352 3264 4352 
L 1530 4352 
C 1402 4352 1344 4352 1344 4226 
C 1344 4160 1389 4160 1510 4160 
C 1894 4160 1894 4112 1894 4045 
C 1894 4033 1894 3994 1869 3899 
L 1005 479 
C 947 256 934 192 493 192 
C 346 192 301 192 301 71 
C 301 7 371 7 390 7 
C 506 7 640 7 762 7 
L 1517 7 
C 1632 7 1766 7 1882 7 
C 1933 7 2003 7 2003 128 
C 2003 192 1946 192 1850 192 
C 1459 192 1459 243 1459 306 
C 1459 313 1459 357 1472 407 
L 1901 2112 
L 2669 2112 
C 3277 2112 3392 1731 3392 1522 
C 3392 1427 3328 1179 3283 1014 
C 3213 723 3194 652 3194 532 
C 3194 82 3565 -128 3994 -128 
C 4512 -128 4736 501 4736 591 
C 4736 635 4704 654 4666 654 
C 4614 654 4602 616 4589 565 
C 4435 114 4173 0 4013 0 
C 3853 0 3750 70 3750 356 
C 3750 509 3827 1088 3834 1120 
C 3866 1355 3866 1380 3866 1432 
C 3866 1896 3488 2093 3245 2169 
z
" transform="scale(0.015625)"/>
     </defs>
     <use xlink:href="#CMMI12-52" transform="scale(0.996264)"/>
     <use xlink:href="#CMR17-31" transform="translate(74.250826 -14.943915) scale(0.697382)"/>
    </g>
   </g>
   <g id="text_3">
    <!-- $L_1$ -->
    <g transform="translate(262.217391 28.815351) scale(0.3 -0.3)">
     <defs>
      <path id="CMMI12-4c" d="M 2349 3861 
C 2406 4103 2426 4167 2989 4167 
C 3162 4167 3206 4167 3206 4288 
C 3206 4352 3136 4352 3110 4352 
C 2982 4352 2835 4352 2707 4352 
L 1850 4352 
C 1728 4352 1587 4352 1466 4352 
C 1414 4352 1344 4352 1344 4231 
C 1344 4167 1402 4167 1498 4167 
C 1888 4167 1888 4116 1888 4046 
C 1888 4034 1888 3995 1862 3899 
L 998 472 
C 941 249 928 185 480 185 
C 358 185 294 185 294 70 
C 294 0 333 0 461 0 
L 3328 0 
C 3469 0 3475 6 3520 121 
L 4013 1478 
C 4026 1510 4038 1548 4038 1567 
C 4038 1605 4006 1631 3974 1631 
C 3968 1631 3936 1631 3923 1605 
C 3910 1599 3910 1586 3859 1465 
C 3654 905 3366 185 2285 185 
L 1670 185 
C 1581 185 1568 185 1530 192 
C 1459 198 1453 211 1453 262 
C 1453 307 1466 345 1478 401 
L 2349 3861 
z
" transform="scale(0.015625)"/>
     </defs>
     <use xlink:href="#CMMI12-4c" transform="scale(0.996264)"/>
     <use xlink:href="#CMR17-31" transform="translate(66.370875 -14.943915) scale(0.697382)"/>
    </g>
   </g>
   <g id="text_4">
    <!-- $D_1$ -->
    <g transform="translate(260.023888 135.847105) scale(0.3 -0.3)">
     <defs>
      <path id="CMMI12-44" d="M 1005 472 
C 947 249 934 185 486 185 
C 365 185 301 185 301 70 
C 301 0 339 0 467 0 
L 2496 0 
C 3789 0 5050 1332 5050 2753 
C 5050 3671 4499 4352 3584 4352 
L 1530 4352 
C 1408 4352 1350 4352 1350 4231 
C 1350 4167 1408 4167 1504 4167 
C 1894 4167 1894 4116 1894 4046 
C 1894 4034 1894 3995 1869 3899 
L 1005 472 
z
M 2355 3931 
C 2413 4167 2438 4167 2688 4167 
L 3392 4167 
C 3994 4167 4544 3842 4544 2963 
C 4544 2644 4416 1536 3795 835 
C 3616 625 3130 185 2394 185 
L 1664 185 
C 1574 185 1562 185 1523 192 
C 1453 198 1446 211 1446 262 
C 1446 307 1459 345 1472 402 
L 2355 3931 
z
" transform="scale(0.015625)"/>
     </defs>
     <use xlink:href="#CMMI12-44" transform="scale(0.996264)"/>
     <use xlink:href="#CMR17-31" transform="translate(80.99423 -14.943915) scale(0.697382)"/>
    </g>
   </g>
   <g id="text_5">
    <!-- $R_2$ -->
    <g transform="translate(368.875958 161.818706) scale(0.3 -0.3)">
     <defs>
      <path id="CMR17-32" d="M 2669 989 
L 2554 989 
C 2490 536 2438 459 2413 420 
C 2381 369 1920 369 1830 369 
L 602 369 
C 832 619 1280 1072 1824 1597 
C 2214 1967 2669 2402 2669 3035 
C 2669 3790 2067 4224 1395 4224 
C 691 4224 262 3604 262 3030 
C 262 2780 448 2748 525 2748 
C 589 2748 781 2787 781 3010 
C 781 3207 614 3264 525 3264 
C 486 3264 448 3258 422 3245 
C 544 3790 915 4058 1306 4058 
C 1862 4058 2227 3617 2227 3035 
C 2227 2479 1901 2000 1536 1584 
L 262 146 
L 262 0 
L 2515 0 
L 2669 989 
z
" transform="scale(0.015625)"/>
     </defs>
     <use xlink:href="#CMMI12-52" transform="scale(0.996264)"/>
     <use xlink:href="#CMR17-32" transform="translate(74.250826 -14.943915) scale(0.697382)"/>
    </g>
   </g>
   <g id="text_6">
    <!-- $RV_1$ -->
    <g transform="translate(468.063061 82.076605) scale(0.3 -0.3)">
     <use xlink:href="#CMMI12-52" transform="scale(0.996264)"/>
     <use xlink:href="#CMMI12-56" transform="translate(75.070962 0) scale(0.996264)"/>
     <use xlink:href="#CMR17-31" transform="translate(131.940541 -14.943915) scale(0.697382)"/>
    </g>
   </g>
   <g id="patch_7">
    <path d="M 223.050221 120.901248 
C 223.765213 120.901248 224.451016 120.617179 224.956591 120.111604 
C 225.462166 119.606029 225.746235 118.920225 225.746235 118.205234 
C 225.746235 117.490243 225.462166 116.80444 224.956591 116.298864 
C 224.451016 115.793289 223.765213 115.50922 223.050221 115.50922 
C 222.33523 115.50922 221.649427 115.793289 221.143852 116.298864 
C 220.638277 116.80444 220.354207 117.490243 220.354207 118.205234 
C 220.354207 118.920225 220.638277 119.606029 221.143852 120.111604 
C 221.649427 120.617179 222.33523 120.901248 223.050221 120.901248 
z
" clip-path="url(#pc32de1c61d)" style="stroke: #000000; stroke-width: 2; stroke-linejoin: miter"/>
   </g>
   <g id="patch_8">
    <path d="M 438.731338 120.901248 
C 439.446329 120.901248 440.132133 120.617179 440.637708 120.111604 
C 441.143283 119.606029 441.427352 118.920225 441.427352 118.205234 
C 441.427352 117.490243 441.143283 116.80444 440.637708 116.298864 
C 440.132133 115.793289 439.446329 115.50922 438.731338 115.50922 
C 438.016347 115.50922 437.330543 115.793289 436.824968 116.298864 
C 436.319393 116.80444 436.035324 117.490243 436.035324 118.205234 
C 436.035324 118.920225 436.319393 119.606029 436.824968 120.111604 
C 437.330543 120.617179 438.016347 120.901248 438.731338 120.901248 
z
" clip-path="url(#pc32de1c61d)" style="stroke: #000000; stroke-width: 2; stroke-linejoin: miter"/>
   </g>
   <g id="patch_9">
    <path d="M 546.571896 120.901248 
C 547.286888 120.901248 547.972691 120.617179 548.478266 120.111604 
C 548.983841 119.606029 549.26791 118.920225 549.26791 118.205234 
C 549.26791 117.490243 548.983841 116.80444 548.478266 116.298864 
C 547.972691 115.793289 547.286888 115.50922 546.571896 115.50922 
C 545.856905 115.50922 545.171102 115.793289 544.665527 116.298864 
C 544.159951 116.80444 543.875882 117.490243 543.875882 118.205234 
C 543.875882 118.920225 544.159951 119.606029 544.665527 120.111604 
C 545.171102 120.617179 545.856905 120.901248 546.571896 120.901248 
z
" clip-path="url(#pc32de1c61d)" style="stroke: #000000; stroke-width: 2; stroke-linejoin: miter"/>
   </g>
   <g id="patch_10">
    <path d="M 7.369105 120.901248 
C 8.084096 120.901248 8.769899 120.617179 9.275475 120.111604 
C 9.78105 119.606029 10.065119 118.920225 10.065119 118.205234 
C 10.065119 117.490243 9.78105 116.80444 9.275475 116.298864 
C 8.769899 115.793289 8.084096 115.50922 7.369105 115.50922 
C 6.654114 115.50922 5.96831 115.793289 5.462735 116.298864 
C 4.95716 116.80444 4.673091 117.490243 4.673091 118.205234 
C 4.673091 118.920225 4.95716 119.606029 5.462735 120.111604 
C 5.96831 120.617179 6.654114 120.901248 7.369105 120.901248 
z
" clip-path="url(#pc32de1c61d)" style="stroke: #000000; stroke-width: 2; stroke-linejoin: miter"/>
   </g>
  </g>
 </g>
 <defs>
  <clipPath id="pc32de1c61d">
   <rect x="0" y="0" width="553.941001" height="446.4"/>
  </clipPath>
 </defs>
</svg>
