<?xml version="1.0" encoding="utf-8" standalone="no"?>
<!DOCTYPE svg PUBLIC "-//W3C//DTD SVG 1.1//EN"
  "http://www.w3.org/Graphics/SVG/1.1/DTD/svg11.dtd">
<svg xmlns:xlink="http://www.w3.org/1999/xlink" width="576pt" height="288pt" viewBox="0 0 576 288" xmlns="http://www.w3.org/2000/svg" version="1.1">
 <metadata>
  <rdf:RDF xmlns:dc="http://purl.org/dc/elements/1.1/" xmlns:cc="http://creativecommons.org/ns#" xmlns:rdf="http://www.w3.org/1999/02/22-rdf-syntax-ns#">
   <cc:Work>
    <dc:type rdf:resource="http://purl.org/dc/dcmitype/StillImage"/>
    <dc:date>2025-11-13T23:21:45.936822</dc:date>
    <dc:format>image/svg+xml</dc:format>
    <dc:creator>
     <cc:Agent>
      <dc:title>Matplotlib v3.9.1, https://matplotlib.org/</dc:title>
     </cc:Agent>
    </dc:creator>
   </cc:Work>
  </rdf:RDF>
 </metadata>
 <defs>
  <style type="text/css">*{stroke-linejoin: round; stroke-linecap: butt}</style>
 </defs>
 <g id="figure_1">
  <g id="patch_1">
   <path d="M 0 288 
L 576 288 
L 576 0 
L 0 0 
L 0 288 
z
" style="fill: none"/>
  </g>
  <g id="axes_1">
   <g id="patch_2">
    <path d="M 84.893297 277.2 
L 562.2 277.2 
L 562.2 60.3 
L 84.893297 60.3 
L 84.893297 277.2 
z
" style="fill: none"/>
   </g>
   <g id="matplotlib.axis_1">
    <g id="xtick_1">
     <g id="line2d_1">
      <defs>
       <path id="mb2815cffa9" d="M 0 0 
L 0 -10 
" style="stroke: #000000; stroke-width: 0.8"/>
      </defs>
      <g>
       <use xlink:href="#mb2815cffa9" x="251.227451" y="60.3" style="stroke: #000000; stroke-width: 0.8"/>
      </g>
     </g>
     <g id="text_1">
      <!-- $- \sqrt{3}$ -->
      <g transform="translate(232.507451 43.4725) scale(0.16 -0.16)">
       <defs>
        <path id="DejaVuSans-2212" d="M 678 2272 
L 4684 2272 
L 4684 1741 
L 678 1741 
L 678 2272 
z
" transform="scale(0.015625)"/>
        <path id="STIXSizeOneSym-Regular-221a" d="M 6970 9933 
L 3373 -1888 
L 3104 -1888 
L 1626 2918 
Q 1555 3149 1465 3251 
Q 1376 3354 1229 3354 
Q 1011 3354 794 3181 
L 717 3309 
L 1766 4115 
L 1926 4115 
L 3379 -602 
L 3405 -602 
L 6605 9933 
L 6970 9933 
z
" transform="scale(0.015625)"/>
        <path id="DejaVuSans-33" d="M 2597 2516 
Q 3050 2419 3304 2112 
Q 3559 1806 3559 1356 
Q 3559 666 3084 287 
Q 2609 -91 1734 -91 
Q 1441 -91 1130 -33 
Q 819 25 488 141 
L 488 750 
Q 750 597 1062 519 
Q 1375 441 1716 441 
Q 2309 441 2620 675 
Q 2931 909 2931 1356 
Q 2931 1769 2642 2001 
Q 2353 2234 1838 2234 
L 1294 2234 
L 1294 2753 
L 1863 2753 
Q 2328 2753 2575 2939 
Q 2822 3125 2822 3475 
Q 2822 3834 2567 4026 
Q 2313 4219 1838 4219 
Q 1578 4219 1281 4162 
Q 984 4106 628 3988 
L 628 4550 
Q 988 4650 1302 4700 
Q 1616 4750 1894 4750 
Q 2613 4750 3031 4423 
Q 3450 4097 3450 3541 
Q 3450 3153 3228 2886 
Q 3006 2619 2597 2516 
z
" transform="scale(0.015625)"/>
       </defs>
       <use xlink:href="#DejaVuSans-2212" transform="translate(0 0.296875)"/>
       <use xlink:href="#STIXSizeOneSym-Regular-221a" transform="translate(83.789062 15.984375) scale(0.578716)"/>
       <use xlink:href="#DejaVuSans-33" transform="translate(157.462936 0.53125)"/>
       <path d="M 144.962936 99.5 
L 144.962936 105.75 
L 233.585983 105.75 
L 233.585983 99.5 
L 144.962936 99.5 
z
"/>
      </g>
     </g>
    </g>
    <g id="xtick_2">
     <g id="line2d_2">
      <g>
       <use xlink:href="#mb2815cffa9" x="395.865846" y="60.3" style="stroke: #000000; stroke-width: 0.8"/>
      </g>
     </g>
     <g id="text_2">
      <!-- $\sqrt{3}$ -->
      <g transform="translate(383.865846 43.4725) scale(0.16 -0.16)">
       <use xlink:href="#STIXSizeOneSym-Regular-221a" transform="translate(0 15.984375) scale(0.578716)"/>
       <use xlink:href="#DejaVuSans-33" transform="translate(73.673874 0.53125)"/>
       <path d="M 61.173874 99.5 
L 61.173874 105.75 
L 149.796921 105.75 
L 149.796921 99.5 
L 61.173874 99.5 
z
"/>
      </g>
     </g>
    </g>
    <g id="text_3">
     <!-- $k$ -->
     <g transform="translate(552.92 24.56) scale(0.16 -0.16)">
      <defs>
       <path id="DejaVuSans-Oblique-6b" d="M 1172 4863 
L 1747 4863 
L 1197 2028 
L 3169 3500 
L 3916 3500 
L 1716 1825 
L 3322 0 
L 2625 0 
L 1131 1709 
L 800 0 
L 225 0 
L 1172 4863 
z
" transform="scale(0.015625)"/>
      </defs>
      <use xlink:href="#DejaVuSans-Oblique-6b" transform="translate(0 0.015625)"/>
     </g>
    </g>
   </g>
   <g id="matplotlib.axis_2"/>
   <g id="line2d_3">
    <defs>
     <path id="m33cbfc3169" d="M 3 0 
L -3 -3 
L -3 3 
z
" style="stroke: #000000; stroke-linejoin: miter"/>
    </defs>
    <g>
     <use xlink:href="#m33cbfc3169" x="562.2" y="70.159091" style="stroke: #000000; stroke-linejoin: miter"/>
    </g>
   </g>
   <g id="line2d_4">
    <path d="M 84.893297 119.454545 
L 562.2 119.454545 
" clip-path="url(#p7db89ee8bf)" style="fill: none; stroke-dasharray: 7.4,3.2; stroke-dashoffset: 0; stroke: #0000ff; stroke-width: 2"/>
   </g>
   <g id="line2d_5">
    <path d="M 84.893297 168.75 
L 242.549147 168.75 
" clip-path="url(#p7db89ee8bf)" style="fill: none; stroke-dasharray: 7.4,3.2; stroke-dashoffset: 0; stroke: #0000ff; stroke-width: 2"/>
   </g>
   <g id="line2d_6">
    <path d="M 259.905755 168.75 
L 562.2 168.75 
" clip-path="url(#p7db89ee8bf)" style="fill: none; stroke: #ff0000; stroke-width: 2; stroke-linecap: square"/>
   </g>
   <g id="line2d_7">
    <path d="M 84.893297 218.045455 
L 387.187542 218.045455 
" clip-path="url(#p7db89ee8bf)" style="fill: none; stroke-dasharray: 7.4,3.2; stroke-dashoffset: 0; stroke: #0000ff; stroke-width: 2"/>
   </g>
   <g id="line2d_8">
    <path d="M 404.54415 218.045455 
L 562.2 218.045455 
" clip-path="url(#p7db89ee8bf)" style="fill: none; stroke: #ff0000; stroke-width: 2; stroke-linecap: square"/>
   </g>
   <g id="line2d_9">
    <path d="M 84.893297 267.340909 
L 242.549147 267.340909 
" clip-path="url(#p7db89ee8bf)" style="fill: none; stroke-dasharray: 7.4,3.2; stroke-dashoffset: 0; stroke: #0000ff; stroke-width: 2"/>
   </g>
   <g id="line2d_10">
    <path d="M 259.905755 267.340909 
L 387.187542 267.340909 
" clip-path="url(#p7db89ee8bf)" style="fill: none; stroke: #ff0000; stroke-width: 2; stroke-linecap: square"/>
   </g>
   <g id="line2d_11">
    <path d="M 404.54415 267.340909 
L 562.2 267.340909 
" clip-path="url(#p7db89ee8bf)" style="fill: none; stroke-dasharray: 7.4,3.2; stroke-dashoffset: 0; stroke: #0000ff; stroke-width: 2"/>
   </g>
   <g id="line2d_12">
    <path d="M 251.227451 242.693182 
L 251.227451 178.609091 
" clip-path="url(#p7db89ee8bf)" style="fill: none; stroke: #000000; stroke-linecap: square"/>
   </g>
   <g id="line2d_13">
    <path d="M 251.227451 158.890909 
L 251.227451 89.877273 
" clip-path="url(#p7db89ee8bf)" style="fill: none; stroke: #000000; stroke-linecap: square"/>
   </g>
   <g id="line2d_14">
    <path d="M 395.865846 242.693182 
L 395.865846 227.904545 
" clip-path="url(#p7db89ee8bf)" style="fill: none; stroke: #000000; stroke-linecap: square"/>
   </g>
   <g id="line2d_15">
    <path d="M 395.865846 208.186364 
L 395.865846 89.877273 
" clip-path="url(#p7db89ee8bf)" style="fill: none; stroke: #000000; stroke-linecap: square"/>
   </g>
   <g id="patch_3">
    <path d="M 84.893297 277.2 
L 84.893297 60.3 
" style="fill: none"/>
   </g>
   <g id="patch_4">
    <path d="M 562.2 277.2 
L 562.2 60.3 
" style="fill: none"/>
   </g>
   <g id="patch_5">
    <path d="M 84.893297 70.159091 
L 562.2 70.159091 
" style="fill: none; stroke: #000000; stroke-width: 0.8; stroke-linejoin: miter; stroke-linecap: square"/>
   </g>
   <g id="patch_6">
    <path d="M 84.893297 60.3 
L 562.2 60.3 
" style="fill: none"/>
   </g>
   <g id="text_4">
    <!-- $- \frac{3}{2}$ -->
    <g transform="translate(40.637538 124.014545) scale(0.16 -0.16)">
     <defs>
      <path id="DejaVuSans-32" d="M 1228 531 
L 3431 531 
L 3431 0 
L 469 0 
L 469 531 
Q 828 903 1448 1529 
Q 2069 2156 2228 2338 
Q 2531 2678 2651 2914 
Q 2772 3150 2772 3378 
Q 2772 3750 2511 3984 
Q 2250 4219 1831 4219 
Q 1534 4219 1204 4116 
Q 875 4013 500 3803 
L 500 4441 
Q 881 4594 1212 4672 
Q 1544 4750 1819 4750 
Q 2544 4750 2975 4387 
Q 3406 4025 3406 3419 
Q 3406 3131 3298 2873 
Q 3191 2616 2906 2266 
Q 2828 2175 2409 1742 
Q 1991 1309 1228 531 
z
" transform="scale(0.015625)"/>
     </defs>
     <use xlink:href="#DejaVuSans-2212" transform="translate(0 0.254687)"/>
     <use xlink:href="#DejaVuSans-33" transform="translate(83.789062 45.046875) scale(0.7)"/>
     <use xlink:href="#DejaVuSans-32" transform="translate(83.789062 -39.151563) scale(0.7)"/>
     <path d="M 83.789062 19.051563 
L 83.789062 25.301563 
L 128.325195 25.301563 
L 128.325195 19.051563 
L 83.789062 19.051563 
z
"/>
    </g>
   </g>
   <g id="text_5">
    <!-- $k + \sqrt{3}$ -->
    <g transform="translate(10.237538 174.5425) scale(0.16 -0.16)">
     <defs>
      <path id="DejaVuSans-2b" d="M 2944 4013 
L 2944 2272 
L 4684 2272 
L 4684 1741 
L 2944 1741 
L 2944 0 
L 2419 0 
L 2419 1741 
L 678 1741 
L 678 2272 
L 2419 2272 
L 2419 4013 
L 2944 4013 
z
" transform="scale(0.015625)"/>
     </defs>
     <use xlink:href="#DejaVuSans-Oblique-6b" transform="translate(0 0.296875)"/>
     <use xlink:href="#DejaVuSans-2b" transform="translate(77.392578 0.296875)"/>
     <use xlink:href="#STIXSizeOneSym-Regular-221a" transform="translate(180.664062 15.984375) scale(0.578716)"/>
     <use xlink:href="#DejaVuSans-33" transform="translate(254.337936 0.53125)"/>
     <path d="M 241.837936 99.5 
L 241.837936 105.75 
L 330.460983 105.75 
L 330.460983 99.5 
L 241.837936 99.5 
z
"/>
    </g>
   </g>
   <g id="text_6">
    <!-- $0$ -->
    <g transform="translate(244.827451 174.26875) scale(0.2 -0.2)">
     <defs>
      <path id="DejaVuSans-30" d="M 2034 4250 
Q 1547 4250 1301 3770 
Q 1056 3291 1056 2328 
Q 1056 1369 1301 889 
Q 1547 409 2034 409 
Q 2525 409 2770 889 
Q 3016 1369 3016 2328 
Q 3016 3291 2770 3770 
Q 2525 4250 2034 4250 
z
M 2034 4750 
Q 2819 4750 3233 4129 
Q 3647 3509 3647 2328 
Q 3647 1150 3233 529 
Q 2819 -91 2034 -91 
Q 1250 -91 836 529 
Q 422 1150 422 2328 
Q 422 3509 836 4129 
Q 1250 4750 2034 4750 
z
" transform="scale(0.015625)"/>
     </defs>
     <use xlink:href="#DejaVuSans-30" transform="translate(0 0.78125)"/>
    </g>
   </g>
   <g id="text_7">
    <!-- $k - \sqrt{3}$ -->
    <g transform="translate(10.237538 223.837955) scale(0.16 -0.16)">
     <use xlink:href="#DejaVuSans-Oblique-6b" transform="translate(0 0.296875)"/>
     <use xlink:href="#DejaVuSans-2212" transform="translate(77.392578 0.296875)"/>
     <use xlink:href="#STIXSizeOneSym-Regular-221a" transform="translate(180.664062 15.984375) scale(0.578716)"/>
     <use xlink:href="#DejaVuSans-33" transform="translate(254.337936 0.53125)"/>
     <path d="M 241.837936 99.5 
L 241.837936 105.75 
L 330.460983 105.75 
L 330.460983 99.5 
L 241.837936 99.5 
z
"/>
    </g>
   </g>
   <g id="text_8">
    <!-- $0$ -->
    <g transform="translate(389.465846 223.564205) scale(0.2 -0.2)">
     <use xlink:href="#DejaVuSans-30" transform="translate(0 0.78125)"/>
    </g>
   </g>
   <g id="text_9">
    <!-- $A'(k)$ -->
    <g transform="translate(25.757538 271.755909) scale(0.16 -0.16)">
     <defs>
      <path id="DejaVuSans-Oblique-41" d="M 2356 4666 
L 3072 4666 
L 3938 0 
L 3278 0 
L 3084 1197 
L 984 1197 
L 325 0 
L -341 0 
L 2356 4666 
z
M 2584 4044 
L 1275 1722 
L 2988 1722 
L 2584 4044 
z
" transform="scale(0.015625)"/>
      <path id="Cmsy10-30" d="M 225 347 
Q 184 359 184 409 
L 966 3316 
Q 1003 3434 1093 3506 
Q 1184 3578 1300 3578 
Q 1450 3578 1564 3479 
Q 1678 3381 1678 3231 
Q 1678 3166 1644 3084 
L 488 319 
Q 466 275 428 275 
Q 394 275 320 306 
Q 247 338 225 347 
z
" transform="scale(0.015625)"/>
      <path id="DejaVuSans-28" d="M 1984 4856 
Q 1566 4138 1362 3434 
Q 1159 2731 1159 2009 
Q 1159 1288 1364 580 
Q 1569 -128 1984 -844 
L 1484 -844 
Q 1016 -109 783 600 
Q 550 1309 550 2009 
Q 550 2706 781 3412 
Q 1013 4119 1484 4856 
L 1984 4856 
z
" transform="scale(0.015625)"/>
      <path id="DejaVuSans-29" d="M 513 4856 
L 1013 4856 
Q 1481 4119 1714 3412 
Q 1947 2706 1947 2009 
Q 1947 1309 1714 600 
Q 1481 -109 1013 -844 
L 513 -844 
Q 928 -128 1133 580 
Q 1338 1288 1338 2009 
Q 1338 2731 1133 3434 
Q 928 4138 513 4856 
z
" transform="scale(0.015625)"/>
     </defs>
     <use xlink:href="#DejaVuSans-Oblique-41" transform="translate(0 0.584375)"/>
     <use xlink:href="#Cmsy10-30" transform="translate(75.424974 38.865625) scale(0.7)"/>
     <use xlink:href="#DejaVuSans-28" transform="translate(97.402513 0.584375)"/>
     <use xlink:href="#DejaVuSans-Oblique-6b" transform="translate(136.416185 0.584375)"/>
     <use xlink:href="#DejaVuSans-29" transform="translate(194.326341 0.584375)"/>
    </g>
   </g>
   <g id="text_10">
    <!-- $0$ -->
    <g transform="translate(244.827451 272.859659) scale(0.2 -0.2)">
     <use xlink:href="#DejaVuSans-30" transform="translate(0 0.78125)"/>
    </g>
   </g>
   <g id="text_11">
    <!-- $0$ -->
    <g transform="translate(389.465846 272.859659) scale(0.2 -0.2)">
     <use xlink:href="#DejaVuSans-30" transform="translate(0 0.78125)"/>
    </g>
   </g>
  </g>
 </g>
 <defs>
  <clipPath id="p7db89ee8bf">
   <rect x="84.893297" y="60.3" width="477.306703" height="216.9"/>
  </clipPath>
 </defs>
</svg>
