<?xml version="1.0" encoding="utf-8" standalone="no"?>
<!DOCTYPE svg PUBLIC "-//W3C//DTD SVG 1.1//EN"
  "http://www.w3.org/Graphics/SVG/1.1/DTD/svg11.dtd">
<svg xmlns:xlink="http://www.w3.org/1999/xlink" width="576pt" height="288pt" viewBox="0 0 576 288" xmlns="http://www.w3.org/2000/svg" version="1.1">
 <metadata>
  <rdf:RDF xmlns:dc="http://purl.org/dc/elements/1.1/" xmlns:cc="http://creativecommons.org/ns#" xmlns:rdf="http://www.w3.org/1999/02/22-rdf-syntax-ns#">
   <cc:Work>
    <dc:type rdf:resource="http://purl.org/dc/dcmitype/StillImage"/>
    <dc:date>2025-11-13T23:21:46.189209</dc:date>
    <dc:format>image/svg+xml</dc:format>
    <dc:creator>
     <cc:Agent>
      <dc:title>Matplotlib v3.9.1, https://matplotlib.org/</dc:title>
     </cc:Agent>
    </dc:creator>
   </cc:Work>
  </rdf:RDF>
 </metadata>
 <defs>
  <style type="text/css">*{stroke-linejoin: round; stroke-linecap: butt}</style>
 </defs>
 <g id="figure_1">
  <g id="patch_1">
   <path d="M 0 288 
L 576 288 
L 576 0 
L 0 0 
L 0 288 
z
" style="fill: none"/>
  </g>
  <g id="axes_1">
   <g id="patch_2">
    <path d="M 106.030726 277.2 
L 562.2 277.2 
L 562.2 60.3 
L 106.030726 60.3 
L 106.030726 277.2 
z
" style="fill: none"/>
   </g>
   <g id="matplotlib.axis_1">
    <g id="xtick_1">
     <g id="line2d_1">
      <defs>
       <path id="m058e166a54" d="M 0 0 
L 0 -10 
" style="stroke: #000000; stroke-width: 0.8"/>
      </defs>
      <g>
       <use xlink:href="#m058e166a54" x="264.998806" y="60.3" style="stroke: #000000; stroke-width: 0.8"/>
      </g>
     </g>
     <g id="text_1">
      <!-- $- 2 \sqrt{5}$ -->
      <g transform="translate(241.238806 43.4725) scale(0.16 -0.16)">
       <defs>
        <path id="DejaVuSans-2212" d="M 678 2272 
L 4684 2272 
L 4684 1741 
L 678 1741 
L 678 2272 
z
" transform="scale(0.015625)"/>
        <path id="DejaVuSans-32" d="M 1228 531 
L 3431 531 
L 3431 0 
L 469 0 
L 469 531 
Q 828 903 1448 1529 
Q 2069 2156 2228 2338 
Q 2531 2678 2651 2914 
Q 2772 3150 2772 3378 
Q 2772 3750 2511 3984 
Q 2250 4219 1831 4219 
Q 1534 4219 1204 4116 
Q 875 4013 500 3803 
L 500 4441 
Q 881 4594 1212 4672 
Q 1544 4750 1819 4750 
Q 2544 4750 2975 4387 
Q 3406 4025 3406 3419 
Q 3406 3131 3298 2873 
Q 3191 2616 2906 2266 
Q 2828 2175 2409 1742 
Q 1991 1309 1228 531 
z
" transform="scale(0.015625)"/>
        <path id="STIXSizeOneSym-Regular-221a" d="M 6970 9933 
L 3373 -1888 
L 3104 -1888 
L 1626 2918 
Q 1555 3149 1465 3251 
Q 1376 3354 1229 3354 
Q 1011 3354 794 3181 
L 717 3309 
L 1766 4115 
L 1926 4115 
L 3379 -602 
L 3405 -602 
L 6605 9933 
L 6970 9933 
z
" transform="scale(0.015625)"/>
        <path id="DejaVuSans-35" d="M 691 4666 
L 3169 4666 
L 3169 4134 
L 1269 4134 
L 1269 2991 
Q 1406 3038 1543 3061 
Q 1681 3084 1819 3084 
Q 2600 3084 3056 2656 
Q 3513 2228 3513 1497 
Q 3513 744 3044 326 
Q 2575 -91 1722 -91 
Q 1428 -91 1123 -41 
Q 819 9 494 109 
L 494 744 
Q 775 591 1075 516 
Q 1375 441 1709 441 
Q 2250 441 2565 725 
Q 2881 1009 2881 1497 
Q 2881 1984 2565 2268 
Q 2250 2553 1709 2553 
Q 1456 2553 1204 2497 
Q 953 2441 691 2322 
L 691 4666 
z
" transform="scale(0.015625)"/>
       </defs>
       <use xlink:href="#DejaVuSans-2212" transform="translate(0 0.140625)"/>
       <use xlink:href="#DejaVuSans-32" transform="translate(83.789062 0.140625)"/>
       <use xlink:href="#STIXSizeOneSym-Regular-221a" transform="translate(147.412109 15.53125) scale(0.57161)"/>
       <use xlink:href="#DejaVuSans-35" transform="translate(220.293228 -0.15625)"/>
       <path d="M 207.793228 97.5 
L 207.793228 103.75 
L 296.416275 103.75 
L 296.416275 97.5 
L 207.793228 97.5 
z
"/>
      </g>
     </g>
    </g>
    <g id="xtick_2">
     <g id="line2d_2">
      <g>
       <use xlink:href="#m058e166a54" x="403.23192" y="60.3" style="stroke: #000000; stroke-width: 0.8"/>
      </g>
     </g>
     <g id="text_2">
      <!-- $2 \sqrt{5}$ -->
      <g transform="translate(386.19192 43.4725) scale(0.16 -0.16)">
       <use xlink:href="#DejaVuSans-32" transform="translate(0 0.140625)"/>
       <use xlink:href="#STIXSizeOneSym-Regular-221a" transform="translate(63.623047 15.53125) scale(0.57161)"/>
       <use xlink:href="#DejaVuSans-35" transform="translate(136.504166 -0.15625)"/>
       <path d="M 124.004166 97.5 
L 124.004166 103.75 
L 212.627213 103.75 
L 212.627213 97.5 
L 124.004166 97.5 
z
"/>
      </g>
     </g>
    </g>
    <g id="text_3">
     <!-- $r$ -->
     <g transform="translate(555.48 24.88) scale(0.16 -0.16)">
      <defs>
       <path id="DejaVuSans-Oblique-72" d="M 2853 2969 
Q 2766 3016 2653 3041 
Q 2541 3066 2413 3066 
Q 1953 3066 1609 2717 
Q 1266 2369 1153 1784 
L 800 0 
L 225 0 
L 909 3500 
L 1484 3500 
L 1375 2956 
Q 1603 3259 1920 3421 
Q 2238 3584 2597 3584 
Q 2691 3584 2781 3573 
Q 2872 3563 2963 3538 
L 2853 2969 
z
" transform="scale(0.015625)"/>
      </defs>
      <use xlink:href="#DejaVuSans-Oblique-72"/>
     </g>
    </g>
   </g>
   <g id="matplotlib.axis_2"/>
   <g id="line2d_3">
    <defs>
     <path id="meba36d59f7" d="M 3 0 
L -3 -3 
L -3 3 
z
" style="stroke: #000000; stroke-linejoin: miter"/>
    </defs>
    <g>
     <use xlink:href="#meba36d59f7" x="562.2" y="70.159091" style="stroke: #000000; stroke-linejoin: miter"/>
    </g>
   </g>
   <g id="line2d_4">
    <path d="M 106.030726 109.595455 
L 562.2 109.595455 
" clip-path="url(#p74c7042475)" style="fill: none; stroke-dasharray: 7.4,3.2; stroke-dashoffset: 0; stroke: #0000ff; stroke-width: 2"/>
   </g>
   <g id="line2d_5">
    <path d="M 106.030726 149.031818 
L 562.2 149.031818 
" clip-path="url(#p74c7042475)" style="fill: none; stroke: #ff0000; stroke-width: 2; stroke-linecap: square"/>
   </g>
   <g id="line2d_6">
    <path d="M 106.030726 188.468182 
L 256.704819 188.468182 
" clip-path="url(#p74c7042475)" style="fill: none; stroke-dasharray: 7.4,3.2; stroke-dashoffset: 0; stroke: #0000ff; stroke-width: 2"/>
   </g>
   <g id="line2d_7">
    <path d="M 273.292793 188.468182 
L 562.2 188.468182 
" clip-path="url(#p74c7042475)" style="fill: none; stroke: #ff0000; stroke-width: 2; stroke-linecap: square"/>
   </g>
   <g id="line2d_8">
    <path d="M 106.030726 227.904545 
L 394.937933 227.904545 
" clip-path="url(#p74c7042475)" style="fill: none; stroke-dasharray: 7.4,3.2; stroke-dashoffset: 0; stroke: #0000ff; stroke-width: 2"/>
   </g>
   <g id="line2d_9">
    <path d="M 411.525906 227.904545 
L 562.2 227.904545 
" clip-path="url(#p74c7042475)" style="fill: none; stroke: #ff0000; stroke-width: 2; stroke-linecap: square"/>
   </g>
   <g id="line2d_10">
    <path d="M 106.030726 267.340909 
L 256.704819 267.340909 
" clip-path="url(#p74c7042475)" style="fill: none; stroke-dasharray: 7.4,3.2; stroke-dashoffset: 0; stroke: #0000ff; stroke-width: 2"/>
   </g>
   <g id="line2d_11">
    <path d="M 273.292793 267.340909 
L 394.937933 267.340909 
" clip-path="url(#p74c7042475)" style="fill: none; stroke: #ff0000; stroke-width: 2; stroke-linecap: square"/>
   </g>
   <g id="line2d_12">
    <path d="M 411.525906 267.340909 
L 562.2 267.340909 
" clip-path="url(#p74c7042475)" style="fill: none; stroke-dasharray: 7.4,3.2; stroke-dashoffset: 0; stroke: #0000ff; stroke-width: 2"/>
   </g>
   <g id="line2d_13">
    <path d="M 264.998806 247.622727 
L 264.998806 196.355455 
" clip-path="url(#p74c7042475)" style="fill: none; stroke: #000000; stroke-linecap: square"/>
   </g>
   <g id="line2d_14">
    <path d="M 264.998806 180.580909 
L 264.998806 85.933636 
" clip-path="url(#p74c7042475)" style="fill: none; stroke: #000000; stroke-linecap: square"/>
   </g>
   <g id="line2d_15">
    <path d="M 403.23192 247.622727 
L 403.23192 235.791818 
" clip-path="url(#p74c7042475)" style="fill: none; stroke: #000000; stroke-linecap: square"/>
   </g>
   <g id="line2d_16">
    <path d="M 403.23192 220.017273 
L 403.23192 85.933636 
" clip-path="url(#p74c7042475)" style="fill: none; stroke: #000000; stroke-linecap: square"/>
   </g>
   <g id="patch_3">
    <path d="M 106.030726 277.2 
L 106.030726 60.3 
" style="fill: none"/>
   </g>
   <g id="patch_4">
    <path d="M 562.2 277.2 
L 562.2 60.3 
" style="fill: none"/>
   </g>
   <g id="patch_5">
    <path d="M 106.030726 70.159091 
L 562.2 70.159091 
" style="fill: none; stroke: #000000; stroke-width: 0.8; stroke-linejoin: miter; stroke-linecap: square"/>
   </g>
   <g id="patch_6">
    <path d="M 106.030726 60.3 
L 562.2 60.3 
" style="fill: none"/>
   </g>
   <g id="text_4">
    <!-- $-8$ -->
    <g transform="translate(61.615759 114.010455) scale(0.16 -0.16)">
     <defs>
      <path id="DejaVuSans-38" d="M 2034 2216 
Q 1584 2216 1326 1975 
Q 1069 1734 1069 1313 
Q 1069 891 1326 650 
Q 1584 409 2034 409 
Q 2484 409 2743 651 
Q 3003 894 3003 1313 
Q 3003 1734 2745 1975 
Q 2488 2216 2034 2216 
z
M 1403 2484 
Q 997 2584 770 2862 
Q 544 3141 544 3541 
Q 544 4100 942 4425 
Q 1341 4750 2034 4750 
Q 2731 4750 3128 4425 
Q 3525 4100 3525 3541 
Q 3525 3141 3298 2862 
Q 3072 2584 2669 2484 
Q 3125 2378 3379 2068 
Q 3634 1759 3634 1313 
Q 3634 634 3220 271 
Q 2806 -91 2034 -91 
Q 1263 -91 848 271 
Q 434 634 434 1313 
Q 434 1759 690 2068 
Q 947 2378 1403 2484 
z
M 1172 3481 
Q 1172 3119 1398 2916 
Q 1625 2713 2034 2713 
Q 2441 2713 2670 2916 
Q 2900 3119 2900 3481 
Q 2900 3844 2670 4047 
Q 2441 4250 2034 4250 
Q 1625 4250 1398 4047 
Q 1172 3844 1172 3481 
z
" transform="scale(0.015625)"/>
     </defs>
     <use xlink:href="#DejaVuSans-2212" transform="translate(0 0.78125)"/>
     <use xlink:href="#DejaVuSans-38" transform="translate(83.789062 0.78125)"/>
    </g>
   </g>
   <g id="text_5">
    <!-- $(r^{2} + 20)^{2}$ -->
    <g transform="translate(10.095759 154.104318) scale(0.16 -0.16)">
     <defs>
      <path id="DejaVuSans-28" d="M 1984 4856 
Q 1566 4138 1362 3434 
Q 1159 2731 1159 2009 
Q 1159 1288 1364 580 
Q 1569 -128 1984 -844 
L 1484 -844 
Q 1016 -109 783 600 
Q 550 1309 550 2009 
Q 550 2706 781 3412 
Q 1013 4119 1484 4856 
L 1984 4856 
z
" transform="scale(0.015625)"/>
      <path id="DejaVuSans-2b" d="M 2944 4013 
L 2944 2272 
L 4684 2272 
L 4684 1741 
L 2944 1741 
L 2944 0 
L 2419 0 
L 2419 1741 
L 678 1741 
L 678 2272 
L 2419 2272 
L 2419 4013 
L 2944 4013 
z
" transform="scale(0.015625)"/>
      <path id="DejaVuSans-30" d="M 2034 4250 
Q 1547 4250 1301 3770 
Q 1056 3291 1056 2328 
Q 1056 1369 1301 889 
Q 1547 409 2034 409 
Q 2525 409 2770 889 
Q 3016 1369 3016 2328 
Q 3016 3291 2770 3770 
Q 2525 4250 2034 4250 
z
M 2034 4750 
Q 2819 4750 3233 4129 
Q 3647 3509 3647 2328 
Q 3647 1150 3233 529 
Q 2819 -91 2034 -91 
Q 1250 -91 836 529 
Q 422 1150 422 2328 
Q 422 3509 836 4129 
Q 1250 4750 2034 4750 
z
" transform="scale(0.015625)"/>
      <path id="DejaVuSans-29" d="M 513 4856 
L 1013 4856 
Q 1481 4119 1714 3412 
Q 1947 2706 1947 2009 
Q 1947 1309 1714 600 
Q 1481 -109 1013 -844 
L 513 -844 
Q 928 -128 1133 580 
Q 1338 1288 1338 2009 
Q 1338 2731 1133 3434 
Q 928 4138 513 4856 
z
" transform="scale(0.015625)"/>
     </defs>
     <use xlink:href="#DejaVuSans-28" transform="translate(0 0.765625)"/>
     <use xlink:href="#DejaVuSans-Oblique-72" transform="translate(39.013672 0.765625)"/>
     <use xlink:href="#DejaVuSans-32" transform="translate(84.776849 39.046875) scale(0.7)"/>
     <use xlink:href="#DejaVuSans-2b" transform="translate(151.529779 0.765625)"/>
     <use xlink:href="#DejaVuSans-32" transform="translate(254.801263 0.765625)"/>
     <use xlink:href="#DejaVuSans-30" transform="translate(318.42431 0.765625)"/>
     <use xlink:href="#DejaVuSans-29" transform="translate(382.047357 0.765625)"/>
     <use xlink:href="#DejaVuSans-32" transform="translate(422.01806 39.046875) scale(0.7)"/>
    </g>
   </g>
   <g id="text_6">
    <!-- $r + 2 \sqrt{5}$ -->
    <g transform="translate(24.975759 194.100682) scale(0.16 -0.16)">
     <use xlink:href="#DejaVuSans-Oblique-72" transform="translate(0 0.140625)"/>
     <use xlink:href="#DejaVuSans-2b" transform="translate(60.595703 0.140625)"/>
     <use xlink:href="#DejaVuSans-32" transform="translate(163.867188 0.140625)"/>
     <use xlink:href="#STIXSizeOneSym-Regular-221a" transform="translate(227.490234 15.53125) scale(0.57161)"/>
     <use xlink:href="#DejaVuSans-35" transform="translate(300.371353 -0.15625)"/>
     <path d="M 287.871353 97.5 
L 287.871353 103.75 
L 376.4944 103.75 
L 376.4944 97.5 
L 287.871353 97.5 
z
"/>
    </g>
   </g>
   <g id="text_7">
    <!-- $0$ -->
    <g transform="translate(258.598806 193.986932) scale(0.2 -0.2)">
     <use xlink:href="#DejaVuSans-30" transform="translate(0 0.78125)"/>
    </g>
   </g>
   <g id="text_8">
    <!-- $r - 2 \sqrt{5}$ -->
    <g transform="translate(24.975759 233.537045) scale(0.16 -0.16)">
     <use xlink:href="#DejaVuSans-Oblique-72" transform="translate(0 0.140625)"/>
     <use xlink:href="#DejaVuSans-2212" transform="translate(60.595703 0.140625)"/>
     <use xlink:href="#DejaVuSans-32" transform="translate(163.867188 0.140625)"/>
     <use xlink:href="#STIXSizeOneSym-Regular-221a" transform="translate(227.490234 15.53125) scale(0.57161)"/>
     <use xlink:href="#DejaVuSans-35" transform="translate(300.371353 -0.15625)"/>
     <path d="M 287.871353 97.5 
L 287.871353 103.75 
L 376.4944 103.75 
L 376.4944 97.5 
L 287.871353 97.5 
z
"/>
    </g>
   </g>
   <g id="text_9">
    <!-- $0$ -->
    <g transform="translate(396.83192 233.423295) scale(0.2 -0.2)">
     <use xlink:href="#DejaVuSans-30" transform="translate(0 0.78125)"/>
    </g>
   </g>
   <g id="text_10">
    <!-- $A'(r)$ -->
    <g transform="translate(50.575759 271.755909) scale(0.16 -0.16)">
     <defs>
      <path id="DejaVuSans-Oblique-41" d="M 2356 4666 
L 3072 4666 
L 3938 0 
L 3278 0 
L 3084 1197 
L 984 1197 
L 325 0 
L -341 0 
L 2356 4666 
z
M 2584 4044 
L 1275 1722 
L 2988 1722 
L 2584 4044 
z
" transform="scale(0.015625)"/>
      <path id="Cmsy10-30" d="M 225 347 
Q 184 359 184 409 
L 966 3316 
Q 1003 3434 1093 3506 
Q 1184 3578 1300 3578 
Q 1450 3578 1564 3479 
Q 1678 3381 1678 3231 
Q 1678 3166 1644 3084 
L 488 319 
Q 466 275 428 275 
Q 394 275 320 306 
Q 247 338 225 347 
z
" transform="scale(0.015625)"/>
     </defs>
     <use xlink:href="#DejaVuSans-Oblique-41" transform="translate(0 0.584375)"/>
     <use xlink:href="#Cmsy10-30" transform="translate(75.424974 38.865625) scale(0.7)"/>
     <use xlink:href="#DejaVuSans-28" transform="translate(97.402513 0.584375)"/>
     <use xlink:href="#DejaVuSans-Oblique-72" transform="translate(136.416185 0.584375)"/>
     <use xlink:href="#DejaVuSans-29" transform="translate(177.529466 0.584375)"/>
    </g>
   </g>
   <g id="text_11">
    <!-- $0$ -->
    <g transform="translate(258.598806 272.859659) scale(0.2 -0.2)">
     <use xlink:href="#DejaVuSans-30" transform="translate(0 0.78125)"/>
    </g>
   </g>
   <g id="text_12">
    <!-- $0$ -->
    <g transform="translate(396.83192 272.859659) scale(0.2 -0.2)">
     <use xlink:href="#DejaVuSans-30" transform="translate(0 0.78125)"/>
    </g>
   </g>
  </g>
 </g>
 <defs>
  <clipPath id="p74c7042475">
   <rect x="106.030726" y="60.3" width="456.169274" height="216.9"/>
  </clipPath>
 </defs>
</svg>
