<?xml version="1.0" encoding="utf-8" standalone="no"?>
<!DOCTYPE svg PUBLIC "-//W3C//DTD SVG 1.1//EN"
  "http://www.w3.org/Graphics/SVG/1.1/DTD/svg11.dtd">
<svg xmlns:xlink="http://www.w3.org/1999/xlink" width="460.8pt" height="345.6pt" viewBox="0 0 460.8 345.6" xmlns="http://www.w3.org/2000/svg" version="1.1">
 <metadata>
  <rdf:RDF xmlns:dc="http://purl.org/dc/elements/1.1/" xmlns:cc="http://creativecommons.org/ns#" xmlns:rdf="http://www.w3.org/1999/02/22-rdf-syntax-ns#">
   <cc:Work>
    <dc:type rdf:resource="http://purl.org/dc/dcmitype/StillImage"/>
    <dc:date>2026-03-27T21:35:31.810129</dc:date>
    <dc:format>image/svg+xml</dc:format>
    <dc:creator>
     <cc:Agent>
      <dc:title>Matplotlib v3.10.8, https://matplotlib.org/</dc:title>
     </cc:Agent>
    </dc:creator>
   </cc:Work>
  </rdf:RDF>
 </metadata>
 <defs>
  <style type="text/css">*{stroke-linejoin: round; stroke-linecap: butt}</style>
 </defs>
 <g id="figure_1">
  <g id="patch_1">
   <path d="M 0 345.6 
L 460.8 345.6 
L 460.8 0 
L 0 0 
L 0 345.6 
z
" style="fill: none"/>
  </g>
  <g id="axes_1">
   <g id="patch_2">
    <path d="M 10.8 304.762849 
L 447 304.762849 
L 447 21.787581 
L 10.8 21.787581 
L 10.8 304.762849 
z
" style="fill: none"/>
   </g>
   <g id="patch_3">
    <path d="M 73.114286 281.181577 
L 77.982589 281.181577 
L 77.982589 45.368854 
L 73.114286 45.368854 
z
" clip-path="url(#p0bd145d7b1)" style="fill: #0072b2; opacity: 0.3; stroke: #0072b2; stroke-linejoin: miter"/>
   </g>
   <g id="patch_4">
    <path d="M 77.982589 281.181577 
L 82.850893 281.181577 
L 82.850893 64.764197 
L 77.982589 64.764197 
z
" clip-path="url(#p0bd145d7b1)" style="fill: #0072b2; opacity: 0.3; stroke: #0072b2; stroke-linejoin: miter"/>
   </g>
   <g id="patch_5">
    <path d="M 82.850893 281.181577 
L 87.719196 281.181577 
L 87.719196 82.564293 
L 82.850893 82.564293 
z
" clip-path="url(#p0bd145d7b1)" style="fill: #0072b2; opacity: 0.3; stroke: #0072b2; stroke-linejoin: miter"/>
   </g>
   <g id="patch_6">
    <path d="M 87.719196 281.181577 
L 92.5875 281.181577 
L 92.5875 98.900351 
L 87.719196 98.900351 
z
" clip-path="url(#p0bd145d7b1)" style="fill: #0072b2; opacity: 0.3; stroke: #0072b2; stroke-linejoin: miter"/>
   </g>
   <g id="patch_7">
    <path d="M 92.5875 281.181577 
L 97.455804 281.181577 
L 97.455804 113.892786 
L 92.5875 113.892786 
z
" clip-path="url(#p0bd145d7b1)" style="fill: #0072b2; opacity: 0.3; stroke: #0072b2; stroke-linejoin: miter"/>
   </g>
   <g id="patch_8">
    <path d="M 97.455804 281.181577 
L 102.324107 281.181577 
L 102.324107 127.652109 
L 97.455804 127.652109 
z
" clip-path="url(#p0bd145d7b1)" style="fill: #0072b2; opacity: 0.3; stroke: #0072b2; stroke-linejoin: miter"/>
   </g>
   <g id="patch_9">
    <path d="M 102.324107 281.181577 
L 107.192411 281.181577 
L 107.192411 140.279743 
L 102.324107 140.279743 
z
" clip-path="url(#p0bd145d7b1)" style="fill: #0072b2; opacity: 0.3; stroke: #0072b2; stroke-linejoin: miter"/>
   </g>
   <g id="patch_10">
    <path d="M 107.192411 281.181577 
L 112.060714 281.181577 
L 112.060714 151.868767 
L 107.192411 151.868767 
z
" clip-path="url(#p0bd145d7b1)" style="fill: #0072b2; opacity: 0.3; stroke: #0072b2; stroke-linejoin: miter"/>
   </g>
   <g id="patch_11">
    <path d="M 112.060714 281.181577 
L 116.929018 281.181577 
L 116.929018 162.504607 
L 112.060714 162.504607 
z
" clip-path="url(#p0bd145d7b1)" style="fill: #0072b2; opacity: 0.3; stroke: #0072b2; stroke-linejoin: miter"/>
   </g>
   <g id="patch_12">
    <path d="M 116.929018 281.181577 
L 121.797321 281.181577 
L 121.797321 172.26566 
L 116.929018 172.26566 
z
" clip-path="url(#p0bd145d7b1)" style="fill: #0072b2; opacity: 0.3; stroke: #0072b2; stroke-linejoin: miter"/>
   </g>
   <g id="patch_13">
    <path d="M 121.797321 281.181577 
L 126.665625 281.181577 
L 126.665625 181.223877 
L 121.797321 181.223877 
z
" clip-path="url(#p0bd145d7b1)" style="fill: #0072b2; opacity: 0.3; stroke: #0072b2; stroke-linejoin: miter"/>
   </g>
   <g id="patch_14">
    <path d="M 126.665625 281.181577 
L 131.533929 281.181577 
L 131.533929 189.445291 
L 126.665625 189.445291 
z
" clip-path="url(#p0bd145d7b1)" style="fill: #0072b2; opacity: 0.3; stroke: #0072b2; stroke-linejoin: miter"/>
   </g>
   <g id="patch_15">
    <path d="M 131.533929 281.181577 
L 136.402232 281.181577 
L 136.402232 196.990502 
L 131.533929 196.990502 
z
" clip-path="url(#p0bd145d7b1)" style="fill: #0072b2; opacity: 0.3; stroke: #0072b2; stroke-linejoin: miter"/>
   </g>
   <g id="patch_16">
    <path d="M 136.402232 281.181577 
L 141.270536 281.181577 
L 141.270536 203.915127 
L 136.402232 203.915127 
z
" clip-path="url(#p0bd145d7b1)" style="fill: #0072b2; opacity: 0.3; stroke: #0072b2; stroke-linejoin: miter"/>
   </g>
   <g id="patch_17">
    <path d="M 141.270536 281.181577 
L 146.138839 281.181577 
L 146.138839 210.270209 
L 141.270536 210.270209 
z
" clip-path="url(#p0bd145d7b1)" style="fill: #0072b2; opacity: 0.3; stroke: #0072b2; stroke-linejoin: miter"/>
   </g>
   <g id="patch_18">
    <path d="M 146.138839 281.181577 
L 151.007143 281.181577 
L 151.007143 216.102593 
L 146.138839 216.102593 
z
" clip-path="url(#p0bd145d7b1)" style="fill: #0072b2; opacity: 0.3; stroke: #0072b2; stroke-linejoin: miter"/>
   </g>
   <g id="patch_19">
    <path d="M 151.007143 281.181577 
L 155.875446 281.181577 
L 155.875446 221.45527 
L 151.007143 221.45527 
z
" clip-path="url(#p0bd145d7b1)" style="fill: #0072b2; opacity: 0.3; stroke: #0072b2; stroke-linejoin: miter"/>
   </g>
   <g id="patch_20">
    <path d="M 155.875446 281.181577 
L 160.74375 281.181577 
L 160.74375 226.367694 
L 155.875446 226.367694 
z
" clip-path="url(#p0bd145d7b1)" style="fill: #0072b2; opacity: 0.3; stroke: #0072b2; stroke-linejoin: miter"/>
   </g>
   <g id="patch_21">
    <path d="M 160.74375 281.181577 
L 165.612054 281.181577 
L 165.612054 230.876077 
L 160.74375 230.876077 
z
" clip-path="url(#p0bd145d7b1)" style="fill: #0072b2; opacity: 0.3; stroke: #0072b2; stroke-linejoin: miter"/>
   </g>
   <g id="patch_22">
    <path d="M 165.612054 281.181577 
L 170.480357 281.181577 
L 170.480357 235.01365 
L 165.612054 235.01365 
z
" clip-path="url(#p0bd145d7b1)" style="fill: #0072b2; opacity: 0.3; stroke: #0072b2; stroke-linejoin: miter"/>
   </g>
   <g id="patch_23">
    <path d="M 170.480357 281.181577 
L 175.348661 281.181577 
L 175.348661 238.810913 
L 170.480357 238.810913 
z
" clip-path="url(#p0bd145d7b1)" style="fill: #0072b2; opacity: 0.3; stroke: #0072b2; stroke-linejoin: miter"/>
   </g>
   <g id="patch_24">
    <path d="M 175.348661 281.181577 
L 180.216964 281.181577 
L 180.216964 242.295854 
L 175.348661 242.295854 
z
" clip-path="url(#p0bd145d7b1)" style="fill: #0072b2; opacity: 0.3; stroke: #0072b2; stroke-linejoin: miter"/>
   </g>
   <g id="patch_25">
    <path d="M 180.216964 281.181577 
L 185.085268 281.181577 
L 185.085268 245.494163 
L 180.216964 245.494163 
z
" clip-path="url(#p0bd145d7b1)" style="fill: #0072b2; opacity: 0.3; stroke: #0072b2; stroke-linejoin: miter"/>
   </g>
   <g id="patch_26">
    <path d="M 185.085268 281.181577 
L 189.953571 281.181577 
L 189.953571 248.429415 
L 185.085268 248.429415 
z
" clip-path="url(#p0bd145d7b1)" style="fill: #0072b2; opacity: 0.3; stroke: #0072b2; stroke-linejoin: miter"/>
   </g>
   <g id="patch_27">
    <path d="M 189.953571 281.181577 
L 194.821875 281.181577 
L 194.821875 251.123245 
L 189.953571 251.123245 
z
" clip-path="url(#p0bd145d7b1)" style="fill: #0072b2; opacity: 0.3; stroke: #0072b2; stroke-linejoin: miter"/>
   </g>
   <g id="patch_28">
    <path d="M 194.821875 281.181577 
L 199.690179 281.181577 
L 199.690179 253.59551 
L 194.821875 253.59551 
z
" clip-path="url(#p0bd145d7b1)" style="fill: #0072b2; opacity: 0.3; stroke: #0072b2; stroke-linejoin: miter"/>
   </g>
   <g id="patch_29">
    <path d="M 199.690179 281.181577 
L 204.558482 281.181577 
L 204.558482 255.864435 
L 199.690179 255.864435 
z
" clip-path="url(#p0bd145d7b1)" style="fill: #0072b2; opacity: 0.3; stroke: #0072b2; stroke-linejoin: miter"/>
   </g>
   <g id="patch_30">
    <path d="M 204.558482 281.181577 
L 209.426786 281.181577 
L 209.426786 257.946742 
L 204.558482 257.946742 
z
" clip-path="url(#p0bd145d7b1)" style="fill: #0072b2; opacity: 0.3; stroke: #0072b2; stroke-linejoin: miter"/>
   </g>
   <g id="patch_31">
    <path d="M 209.426786 281.181577 
L 214.295089 281.181577 
L 214.295089 259.857783 
L 209.426786 259.857783 
z
" clip-path="url(#p0bd145d7b1)" style="fill: #0072b2; opacity: 0.3; stroke: #0072b2; stroke-linejoin: miter"/>
   </g>
   <g id="patch_32">
    <path d="M 214.295089 281.181577 
L 219.163393 281.181577 
L 219.163393 261.611642 
L 214.295089 261.611642 
z
" clip-path="url(#p0bd145d7b1)" style="fill: #0072b2; opacity: 0.3; stroke: #0072b2; stroke-linejoin: miter"/>
   </g>
   <g id="patch_33">
    <path d="M 219.163393 281.181577 
L 224.031696 281.181577 
L 224.031696 263.221248 
L 219.163393 263.221248 
z
" clip-path="url(#p0bd145d7b1)" style="fill: #0072b2; opacity: 0.3; stroke: #0072b2; stroke-linejoin: miter"/>
   </g>
   <g id="patch_34">
    <path d="M 224.031696 281.181577 
L 228.9 281.181577 
L 228.9 264.698466 
L 224.031696 264.698466 
z
" clip-path="url(#p0bd145d7b1)" style="fill: #0072b2; opacity: 0.3; stroke: #0072b2; stroke-linejoin: miter"/>
   </g>
   <g id="patch_35">
    <path d="M 228.9 281.181577 
L 233.768304 281.181577 
L 233.768304 266.054184 
L 228.9 266.054184 
z
" clip-path="url(#p0bd145d7b1)" style="fill: #0072b2; opacity: 0.3; stroke: #0072b2; stroke-linejoin: miter"/>
   </g>
   <g id="patch_36">
    <path d="M 233.768304 281.181577 
L 238.636607 281.181577 
L 238.636607 267.298396 
L 233.768304 267.298396 
z
" clip-path="url(#p0bd145d7b1)" style="fill: #0072b2; opacity: 0.3; stroke: #0072b2; stroke-linejoin: miter"/>
   </g>
   <g id="patch_37">
    <path d="M 238.636607 281.181577 
L 243.504911 281.181577 
L 243.504911 268.440272 
L 238.636607 268.440272 
z
" clip-path="url(#p0bd145d7b1)" style="fill: #0072b2; opacity: 0.3; stroke: #0072b2; stroke-linejoin: miter"/>
   </g>
   <g id="patch_38">
    <path d="M 243.504911 281.181577 
L 248.373214 281.181577 
L 248.373214 269.488231 
L 243.504911 269.488231 
z
" clip-path="url(#p0bd145d7b1)" style="fill: #0072b2; opacity: 0.3; stroke: #0072b2; stroke-linejoin: miter"/>
   </g>
   <g id="patch_39">
    <path d="M 248.373214 281.181577 
L 253.241518 281.181577 
L 253.241518 270.449996 
L 248.373214 270.449996 
z
" clip-path="url(#p0bd145d7b1)" style="fill: #0072b2; opacity: 0.3; stroke: #0072b2; stroke-linejoin: miter"/>
   </g>
   <g id="patch_40">
    <path d="M 253.241518 281.181577 
L 258.109821 281.181577 
L 258.109821 271.332657 
L 253.241518 271.332657 
z
" clip-path="url(#p0bd145d7b1)" style="fill: #0072b2; opacity: 0.3; stroke: #0072b2; stroke-linejoin: miter"/>
   </g>
   <g id="patch_41">
    <path d="M 258.109821 281.181577 
L 262.978125 281.181577 
L 262.978125 272.14272 
L 258.109821 272.14272 
z
" clip-path="url(#p0bd145d7b1)" style="fill: #0072b2; opacity: 0.3; stroke: #0072b2; stroke-linejoin: miter"/>
   </g>
   <g id="patch_42">
    <path d="M 262.978125 281.181577 
L 267.846429 281.181577 
L 267.846429 272.886156 
L 262.978125 272.886156 
z
" clip-path="url(#p0bd145d7b1)" style="fill: #0072b2; opacity: 0.3; stroke: #0072b2; stroke-linejoin: miter"/>
   </g>
   <g id="patch_43">
    <path d="M 267.846429 281.181577 
L 272.714732 281.181577 
L 272.714732 273.568446 
L 267.846429 273.568446 
z
" clip-path="url(#p0bd145d7b1)" style="fill: #0072b2; opacity: 0.3; stroke: #0072b2; stroke-linejoin: miter"/>
   </g>
   <g id="patch_44">
    <path d="M 272.714732 281.181577 
L 277.583036 281.181577 
L 277.583036 274.194618 
L 272.714732 274.194618 
z
" clip-path="url(#p0bd145d7b1)" style="fill: #0072b2; opacity: 0.3; stroke: #0072b2; stroke-linejoin: miter"/>
   </g>
   <g id="patch_45">
    <path d="M 277.583036 281.181577 
L 282.451339 281.181577 
L 282.451339 274.769288 
L 277.583036 274.769288 
z
" clip-path="url(#p0bd145d7b1)" style="fill: #0072b2; opacity: 0.3; stroke: #0072b2; stroke-linejoin: miter"/>
   </g>
   <g id="patch_46">
    <path d="M 282.451339 281.181577 
L 287.319643 281.181577 
L 287.319643 275.296692 
L 282.451339 275.296692 
z
" clip-path="url(#p0bd145d7b1)" style="fill: #0072b2; opacity: 0.3; stroke: #0072b2; stroke-linejoin: miter"/>
   </g>
   <g id="patch_47">
    <path d="M 287.319643 281.181577 
L 292.187946 281.181577 
L 292.187946 275.780717 
L 287.319643 275.780717 
z
" clip-path="url(#p0bd145d7b1)" style="fill: #0072b2; opacity: 0.3; stroke: #0072b2; stroke-linejoin: miter"/>
   </g>
   <g id="patch_48">
    <path d="M 292.187946 281.181577 
L 297.05625 281.181577 
L 297.05625 276.224932 
L 292.187946 276.224932 
z
" clip-path="url(#p0bd145d7b1)" style="fill: #0072b2; opacity: 0.3; stroke: #0072b2; stroke-linejoin: miter"/>
   </g>
   <g id="patch_49">
    <path d="M 297.05625 281.181577 
L 301.924554 281.181577 
L 301.924554 276.632611 
L 297.05625 276.632611 
z
" clip-path="url(#p0bd145d7b1)" style="fill: #0072b2; opacity: 0.3; stroke: #0072b2; stroke-linejoin: miter"/>
   </g>
   <g id="patch_50">
    <path d="M 301.924554 281.181577 
L 306.792857 281.181577 
L 306.792857 277.006758 
L 301.924554 277.006758 
z
" clip-path="url(#p0bd145d7b1)" style="fill: #0072b2; opacity: 0.3; stroke: #0072b2; stroke-linejoin: miter"/>
   </g>
   <g id="patch_51">
    <path d="M 306.792857 281.181577 
L 311.661161 281.181577 
L 311.661161 277.350133 
L 306.792857 277.350133 
z
" clip-path="url(#p0bd145d7b1)" style="fill: #0072b2; opacity: 0.3; stroke: #0072b2; stroke-linejoin: miter"/>
   </g>
   <g id="patch_52">
    <path d="M 311.661161 281.181577 
L 316.529464 281.181577 
L 316.529464 277.665265 
L 311.661161 277.665265 
z
" clip-path="url(#p0bd145d7b1)" style="fill: #0072b2; opacity: 0.3; stroke: #0072b2; stroke-linejoin: miter"/>
   </g>
   <g id="patch_53">
    <path d="M 316.529464 281.181577 
L 321.397768 281.181577 
L 321.397768 277.954478 
L 316.529464 277.954478 
z
" clip-path="url(#p0bd145d7b1)" style="fill: #0072b2; opacity: 0.3; stroke: #0072b2; stroke-linejoin: miter"/>
   </g>
   <g id="patch_54">
    <path d="M 321.397768 281.181577 
L 326.266071 281.181577 
L 326.266071 278.219903 
L 321.397768 278.219903 
z
" clip-path="url(#p0bd145d7b1)" style="fill: #0072b2; opacity: 0.3; stroke: #0072b2; stroke-linejoin: miter"/>
   </g>
   <g id="patch_55">
    <path d="M 326.266071 281.181577 
L 331.134375 281.181577 
L 331.134375 278.463498 
L 326.266071 278.463498 
z
" clip-path="url(#p0bd145d7b1)" style="fill: #0072b2; opacity: 0.3; stroke: #0072b2; stroke-linejoin: miter"/>
   </g>
   <g id="patch_56">
    <path d="M 331.134375 281.181577 
L 336.002679 281.181577 
L 336.002679 278.687057 
L 331.134375 278.687057 
z
" clip-path="url(#p0bd145d7b1)" style="fill: #0072b2; opacity: 0.3; stroke: #0072b2; stroke-linejoin: miter"/>
   </g>
   <g id="patch_57">
    <path d="M 336.002679 281.181577 
L 340.870982 281.181577 
L 340.870982 278.892228 
L 336.002679 278.892228 
z
" clip-path="url(#p0bd145d7b1)" style="fill: #0072b2; opacity: 0.3; stroke: #0072b2; stroke-linejoin: miter"/>
   </g>
   <g id="patch_58">
    <path d="M 340.870982 281.181577 
L 345.739286 281.181577 
L 345.739286 279.080525 
L 340.870982 279.080525 
z
" clip-path="url(#p0bd145d7b1)" style="fill: #0072b2; opacity: 0.3; stroke: #0072b2; stroke-linejoin: miter"/>
   </g>
   <g id="patch_59">
    <path d="M 345.739286 281.181577 
L 350.607589 281.181577 
L 350.607589 279.253334 
L 345.739286 279.253334 
z
" clip-path="url(#p0bd145d7b1)" style="fill: #0072b2; opacity: 0.3; stroke: #0072b2; stroke-linejoin: miter"/>
   </g>
   <g id="patch_60">
    <path d="M 350.607589 281.181577 
L 355.475893 281.181577 
L 355.475893 279.41193 
L 350.607589 279.41193 
z
" clip-path="url(#p0bd145d7b1)" style="fill: #0072b2; opacity: 0.3; stroke: #0072b2; stroke-linejoin: miter"/>
   </g>
   <g id="patch_61">
    <path d="M 355.475893 281.181577 
L 360.344196 281.181577 
L 360.344196 279.557482 
L 355.475893 279.557482 
z
" clip-path="url(#p0bd145d7b1)" style="fill: #0072b2; opacity: 0.3; stroke: #0072b2; stroke-linejoin: miter"/>
   </g>
   <g id="patch_62">
    <path d="M 360.344196 281.181577 
L 365.2125 281.181577 
L 365.2125 279.691062 
L 360.344196 279.691062 
z
" clip-path="url(#p0bd145d7b1)" style="fill: #0072b2; opacity: 0.3; stroke: #0072b2; stroke-linejoin: miter"/>
   </g>
   <g id="patch_63">
    <path d="M 365.2125 281.181577 
L 370.080804 281.181577 
L 370.080804 279.813655 
L 365.2125 279.813655 
z
" clip-path="url(#p0bd145d7b1)" style="fill: #0072b2; opacity: 0.3; stroke: #0072b2; stroke-linejoin: miter"/>
   </g>
   <g id="patch_64">
    <path d="M 370.080804 281.181577 
L 374.949107 281.181577 
L 374.949107 279.926165 
L 370.080804 279.926165 
z
" clip-path="url(#p0bd145d7b1)" style="fill: #0072b2; opacity: 0.3; stroke: #0072b2; stroke-linejoin: miter"/>
   </g>
   <g id="patch_65">
    <path d="M 374.949107 281.181577 
L 379.817411 281.181577 
L 379.817411 280.029421 
L 374.949107 280.029421 
z
" clip-path="url(#p0bd145d7b1)" style="fill: #0072b2; opacity: 0.3; stroke: #0072b2; stroke-linejoin: miter"/>
   </g>
   <g id="patch_66">
    <path d="M 379.817411 281.181577 
L 384.685714 281.181577 
L 384.685714 280.124185 
L 379.817411 280.124185 
z
" clip-path="url(#p0bd145d7b1)" style="fill: #0072b2; opacity: 0.3; stroke: #0072b2; stroke-linejoin: miter"/>
   </g>
   <g id="matplotlib.axis_1">
    <g id="xtick_1">
     <g id="line2d_1">
      <path d="M 135.428571 304.762849 
L 135.428571 21.787581 
" clip-path="url(#p0bd145d7b1)" style="fill: none; stroke-dasharray: 2.96,1.28; stroke-dashoffset: 0; stroke: #b0b0b0; stroke-opacity: 0.6; stroke-width: 0.8"/>
     </g>
     <g id="line2d_2">
      <defs>
       <path id="m229f6d57cb" d="M 0 0 
L 0 3.5 
" style="stroke: #000000; stroke-width: 0.8"/>
      </defs>
      <g>
       <use xlink:href="#m229f6d57cb" x="135.428571" y="281.181577" style="stroke: #000000; stroke-width: 0.8"/>
      </g>
     </g>
     <g id="text_1">
      <!-- $\mathdefault{1}$ -->
      <g transform="translate(129.945714 304.785982) scale(0.24 -0.24)">
       <defs>
        <path id="CMR17-31" d="M 1702 4058 
C 1702 4192 1696 4192 1606 4192 
C 1357 3916 979 3827 621 3827 
C 602 3827 570 3827 563 3808 
C 557 3795 557 3782 557 3648 
C 755 3648 1088 3686 1344 3839 
L 1344 461 
C 1344 236 1331 160 781 160 
L 589 160 
L 589 0 
C 896 0 1216 0 1523 0 
C 1830 0 2150 0 2458 0 
L 2458 160 
L 2266 160 
C 1715 160 1702 230 1702 458 
L 1702 4058 
z
" transform="scale(0.015625)"/>
       </defs>
       <use xlink:href="#CMR17-31" transform="scale(0.996264)"/>
      </g>
     </g>
    </g>
    <g id="xtick_2">
     <g id="line2d_3">
      <path d="M 197.742857 304.762849 
L 197.742857 21.787581 
" clip-path="url(#p0bd145d7b1)" style="fill: none; stroke-dasharray: 2.96,1.28; stroke-dashoffset: 0; stroke: #b0b0b0; stroke-opacity: 0.6; stroke-width: 0.8"/>
     </g>
     <g id="line2d_4">
      <g>
       <use xlink:href="#m229f6d57cb" x="197.742857" y="281.181577" style="stroke: #000000; stroke-width: 0.8"/>
      </g>
     </g>
     <g id="text_2">
      <!-- $\mathdefault{2}$ -->
      <g transform="translate(192.26 304.785982) scale(0.24 -0.24)">
       <defs>
        <path id="CMR17-32" d="M 2669 989 
L 2554 989 
C 2490 536 2438 459 2413 420 
C 2381 369 1920 369 1830 369 
L 602 369 
C 832 619 1280 1072 1824 1597 
C 2214 1967 2669 2402 2669 3035 
C 2669 3790 2067 4224 1395 4224 
C 691 4224 262 3604 262 3030 
C 262 2780 448 2748 525 2748 
C 589 2748 781 2787 781 3010 
C 781 3207 614 3264 525 3264 
C 486 3264 448 3258 422 3245 
C 544 3790 915 4058 1306 4058 
C 1862 4058 2227 3617 2227 3035 
C 2227 2479 1901 2000 1536 1584 
L 262 146 
L 262 0 
L 2515 0 
L 2669 989 
z
" transform="scale(0.015625)"/>
       </defs>
       <use xlink:href="#CMR17-32" transform="scale(0.996264)"/>
      </g>
     </g>
    </g>
    <g id="xtick_3">
     <g id="line2d_5">
      <path d="M 260.057143 304.762849 
L 260.057143 21.787581 
" clip-path="url(#p0bd145d7b1)" style="fill: none; stroke-dasharray: 2.96,1.28; stroke-dashoffset: 0; stroke: #b0b0b0; stroke-opacity: 0.6; stroke-width: 0.8"/>
     </g>
     <g id="line2d_6">
      <g>
       <use xlink:href="#m229f6d57cb" x="260.057143" y="281.181577" style="stroke: #000000; stroke-width: 0.8"/>
      </g>
     </g>
     <g id="text_3">
      <!-- $\mathdefault{3}$ -->
      <g transform="translate(254.574286 304.785982) scale(0.24 -0.24)">
       <defs>
        <path id="CMR17-33" d="M 1414 2157 
C 1984 2157 2234 1662 2234 1090 
C 2234 320 1824 25 1453 25 
C 1114 25 563 194 390 693 
C 422 680 454 680 486 680 
C 640 680 755 782 755 948 
C 755 1133 614 1216 486 1216 
C 378 1216 211 1165 211 926 
C 211 335 787 -128 1466 -128 
C 2176 -128 2720 430 2720 1085 
C 2720 1707 2208 2157 1600 2227 
C 2086 2328 2554 2756 2554 3329 
C 2554 3820 2048 4179 1472 4179 
C 890 4179 378 3829 378 3329 
C 378 3110 544 3072 627 3072 
C 762 3072 877 3155 877 3321 
C 877 3486 762 3569 627 3569 
C 602 3569 570 3569 544 3557 
C 730 3959 1235 4032 1459 4032 
C 1683 4032 2106 3925 2106 3320 
C 2106 3143 2080 2828 1862 2550 
C 1670 2304 1453 2304 1242 2284 
C 1210 2284 1062 2269 1037 2269 
C 992 2263 966 2257 966 2208 
C 966 2163 973 2157 1101 2157 
L 1414 2157 
z
" transform="scale(0.015625)"/>
       </defs>
       <use xlink:href="#CMR17-33" transform="scale(0.996264)"/>
      </g>
     </g>
    </g>
    <g id="xtick_4">
     <g id="line2d_7">
      <path d="M 322.371429 304.762849 
L 322.371429 21.787581 
" clip-path="url(#p0bd145d7b1)" style="fill: none; stroke-dasharray: 2.96,1.28; stroke-dashoffset: 0; stroke: #b0b0b0; stroke-opacity: 0.6; stroke-width: 0.8"/>
     </g>
     <g id="line2d_8">
      <g>
       <use xlink:href="#m229f6d57cb" x="322.371429" y="281.181577" style="stroke: #000000; stroke-width: 0.8"/>
      </g>
     </g>
     <g id="text_4">
      <!-- $\mathdefault{4}$ -->
      <g transform="translate(316.888571 304.785982) scale(0.24 -0.24)">
       <defs>
        <path id="CMR17-34" d="M 2150 4122 
C 2150 4256 2144 4256 2029 4256 
L 128 1254 
L 128 1088 
L 1779 1088 
L 1779 457 
C 1779 224 1766 160 1318 160 
L 1197 160 
L 1197 0 
C 1402 0 1747 0 1965 0 
C 2182 0 2528 0 2733 0 
L 2733 160 
L 2611 160 
C 2163 160 2150 224 2150 457 
L 2150 1088 
L 2803 1088 
L 2803 1254 
L 2150 1254 
L 2150 4122 
z
M 1798 3703 
L 1798 1254 
L 256 1254 
L 1798 3703 
z
" transform="scale(0.015625)"/>
       </defs>
       <use xlink:href="#CMR17-34" transform="scale(0.996264)"/>
      </g>
     </g>
    </g>
    <g id="xtick_5">
     <g id="line2d_9">
      <path d="M 384.685714 304.762849 
L 384.685714 21.787581 
" clip-path="url(#p0bd145d7b1)" style="fill: none; stroke-dasharray: 2.96,1.28; stroke-dashoffset: 0; stroke: #b0b0b0; stroke-opacity: 0.6; stroke-width: 0.8"/>
     </g>
     <g id="line2d_10">
      <g>
       <use xlink:href="#m229f6d57cb" x="384.685714" y="281.181577" style="stroke: #000000; stroke-width: 0.8"/>
      </g>
     </g>
     <g id="text_5">
      <!-- $\mathdefault{5}$ -->
      <g transform="translate(379.202857 304.785982) scale(0.24 -0.24)">
       <defs>
        <path id="CMR17-35" d="M 730 3692 
C 794 3666 1056 3584 1325 3584 
C 1920 3584 2246 3911 2432 4100 
C 2432 4157 2432 4192 2394 4192 
C 2387 4192 2374 4192 2323 4163 
C 2099 4058 1837 3973 1517 3973 
C 1325 3973 1037 3999 723 4139 
C 653 4171 640 4171 634 4171 
C 602 4171 595 4164 595 4037 
L 595 2203 
C 595 2089 595 2057 659 2057 
C 691 2057 704 2070 736 2114 
C 941 2401 1222 2522 1542 2522 
C 1766 2522 2246 2382 2246 1289 
C 2246 1085 2246 715 2054 421 
C 1894 159 1645 25 1370 25 
C 947 25 518 320 403 814 
C 429 807 480 795 506 795 
C 589 795 749 840 749 1038 
C 749 1210 627 1280 506 1280 
C 358 1280 262 1190 262 1011 
C 262 454 704 -128 1382 -128 
C 2042 -128 2669 440 2669 1264 
C 2669 2030 2170 2624 1549 2624 
C 1222 2624 947 2503 730 2274 
L 730 3692 
z
" transform="scale(0.015625)"/>
       </defs>
       <use xlink:href="#CMR17-35" transform="scale(0.996264)"/>
      </g>
     </g>
    </g>
    <g id="text_6">
     <!-- $x$ -->
     <g transform="translate(433.695826 330.041145) scale(0.24 -0.24)">
      <defs>
       <path id="CMMI12-78" d="M 3034 2606 
C 2829 2567 2752 2414 2752 2293 
C 2752 2139 2874 2088 2963 2088 
C 3155 2088 3290 2254 3290 2427 
C 3290 2695 2982 2816 2714 2816 
C 2323 2816 2106 2433 2048 2312 
C 1901 2816 1504 2816 1389 2816 
C 736 2816 390 1980 390 1839 
C 390 1814 416 1782 461 1782 
C 512 1782 525 1820 538 1846 
C 755 2555 1184 2689 1370 2689 
C 1658 2689 1715 2420 1715 2267 
C 1715 2127 1677 1980 1600 1673 
L 1382 798 
C 1286 415 1101 64 762 64 
C 730 64 570 64 435 147 
C 666 192 717 383 717 460 
C 717 588 621 664 499 664 
C 346 664 179 530 179 326 
C 179 57 480 -64 755 -64 
C 1062 -64 1280 179 1414 441 
C 1517 64 1837 -64 2074 -64 
C 2726 -64 3072 773 3072 913 
C 3072 945 3046 971 3008 971 
C 2950 971 2944 939 2925 888 
C 2752 326 2381 64 2093 64 
C 1869 64 1747 230 1747 492 
C 1747 632 1773 734 1875 1156 
L 2099 2024 
C 2195 2408 2413 2689 2707 2689 
C 2720 2689 2899 2689 3034 2606 
z
" transform="scale(0.015625)"/>
      </defs>
      <use xlink:href="#CMMI12-78" transform="scale(0.996264)"/>
     </g>
    </g>
   </g>
   <g id="matplotlib.axis_2">
    <g id="ytick_1">
     <g id="line2d_11">
      <path d="M 10.8 257.600305 
L 447 257.600305 
" clip-path="url(#p0bd145d7b1)" style="fill: none; stroke-dasharray: 2.96,1.28; stroke-dashoffset: 0; stroke: #b0b0b0; stroke-opacity: 0.6; stroke-width: 0.8"/>
     </g>
     <g id="line2d_12">
      <defs>
       <path id="m4ff895aef3" d="M 0 0 
L -3.5 0 
" style="stroke: #000000; stroke-width: 0.8"/>
      </defs>
      <g>
       <use xlink:href="#m4ff895aef3" x="73.114286" y="257.600305" style="stroke: #000000; stroke-width: 0.8"/>
      </g>
     </g>
     <g id="text_7">
      <!-- $\mathdefault{1}$ -->
      <g transform="translate(55.148571 265.902507) scale(0.24 -0.24)">
       <use xlink:href="#CMR17-31" transform="scale(0.996264)"/>
      </g>
     </g>
    </g>
    <g id="ytick_2">
     <g id="line2d_13">
      <path d="M 10.8 234.019032 
L 447 234.019032 
" clip-path="url(#p0bd145d7b1)" style="fill: none; stroke-dasharray: 2.96,1.28; stroke-dashoffset: 0; stroke: #b0b0b0; stroke-opacity: 0.6; stroke-width: 0.8"/>
     </g>
     <g id="line2d_14">
      <g>
       <use xlink:href="#m4ff895aef3" x="73.114286" y="234.019032" style="stroke: #000000; stroke-width: 0.8"/>
      </g>
     </g>
     <g id="text_8">
      <!-- $\mathdefault{2}$ -->
      <g transform="translate(55.148571 242.321235) scale(0.24 -0.24)">
       <use xlink:href="#CMR17-32" transform="scale(0.996264)"/>
      </g>
     </g>
    </g>
    <g id="ytick_3">
     <g id="line2d_15">
      <path d="M 10.8 210.43776 
L 447 210.43776 
" clip-path="url(#p0bd145d7b1)" style="fill: none; stroke-dasharray: 2.96,1.28; stroke-dashoffset: 0; stroke: #b0b0b0; stroke-opacity: 0.6; stroke-width: 0.8"/>
     </g>
     <g id="line2d_16">
      <g>
       <use xlink:href="#m4ff895aef3" x="73.114286" y="210.43776" style="stroke: #000000; stroke-width: 0.8"/>
      </g>
     </g>
     <g id="text_9">
      <!-- $\mathdefault{3}$ -->
      <g transform="translate(55.148571 218.739963) scale(0.24 -0.24)">
       <use xlink:href="#CMR17-33" transform="scale(0.996264)"/>
      </g>
     </g>
    </g>
    <g id="ytick_4">
     <g id="line2d_17">
      <path d="M 10.8 186.856488 
L 447 186.856488 
" clip-path="url(#p0bd145d7b1)" style="fill: none; stroke-dasharray: 2.96,1.28; stroke-dashoffset: 0; stroke: #b0b0b0; stroke-opacity: 0.6; stroke-width: 0.8"/>
     </g>
     <g id="line2d_18">
      <g>
       <use xlink:href="#m4ff895aef3" x="73.114286" y="186.856488" style="stroke: #000000; stroke-width: 0.8"/>
      </g>
     </g>
     <g id="text_10">
      <!-- $\mathdefault{4}$ -->
      <g transform="translate(55.148571 195.15869) scale(0.24 -0.24)">
       <use xlink:href="#CMR17-34" transform="scale(0.996264)"/>
      </g>
     </g>
    </g>
    <g id="ytick_5">
     <g id="line2d_19">
      <path d="M 10.8 163.275215 
L 447 163.275215 
" clip-path="url(#p0bd145d7b1)" style="fill: none; stroke-dasharray: 2.96,1.28; stroke-dashoffset: 0; stroke: #b0b0b0; stroke-opacity: 0.6; stroke-width: 0.8"/>
     </g>
     <g id="line2d_20">
      <g>
       <use xlink:href="#m4ff895aef3" x="73.114286" y="163.275215" style="stroke: #000000; stroke-width: 0.8"/>
      </g>
     </g>
     <g id="text_11">
      <!-- $\mathdefault{5}$ -->
      <g transform="translate(55.148571 171.577418) scale(0.24 -0.24)">
       <use xlink:href="#CMR17-35" transform="scale(0.996264)"/>
      </g>
     </g>
    </g>
    <g id="ytick_6">
     <g id="line2d_21">
      <path d="M 10.8 139.693943 
L 447 139.693943 
" clip-path="url(#p0bd145d7b1)" style="fill: none; stroke-dasharray: 2.96,1.28; stroke-dashoffset: 0; stroke: #b0b0b0; stroke-opacity: 0.6; stroke-width: 0.8"/>
     </g>
     <g id="line2d_22">
      <g>
       <use xlink:href="#m4ff895aef3" x="73.114286" y="139.693943" style="stroke: #000000; stroke-width: 0.8"/>
      </g>
     </g>
     <g id="text_12">
      <!-- $\mathdefault{6}$ -->
      <g transform="translate(55.148571 147.996146) scale(0.24 -0.24)">
       <defs>
        <path id="CMR17-36" d="M 678 2176 
C 678 3690 1395 4032 1811 4032 
C 1946 4032 2272 4009 2400 3776 
C 2298 3776 2106 3776 2106 3553 
C 2106 3381 2246 3323 2336 3323 
C 2394 3323 2566 3348 2566 3560 
C 2566 3954 2246 4179 1805 4179 
C 1043 4179 243 3390 243 1984 
C 243 253 966 -128 1478 -128 
C 2099 -128 2688 427 2688 1283 
C 2688 2081 2170 2662 1517 2662 
C 1126 2662 838 2407 678 1960 
L 678 2176 
z
M 1478 25 
C 691 25 691 1200 691 1436 
C 691 1896 909 2560 1504 2560 
C 1613 2560 1926 2560 2138 2120 
C 2253 1870 2253 1609 2253 1289 
C 2253 944 2253 690 2118 434 
C 1978 171 1773 25 1478 25 
z
" transform="scale(0.015625)"/>
       </defs>
       <use xlink:href="#CMR17-36" transform="scale(0.996264)"/>
      </g>
     </g>
    </g>
    <g id="ytick_7">
     <g id="line2d_23">
      <path d="M 10.8 116.112671 
L 447 116.112671 
" clip-path="url(#p0bd145d7b1)" style="fill: none; stroke-dasharray: 2.96,1.28; stroke-dashoffset: 0; stroke: #b0b0b0; stroke-opacity: 0.6; stroke-width: 0.8"/>
     </g>
     <g id="line2d_24">
      <g>
       <use xlink:href="#m4ff895aef3" x="73.114286" y="116.112671" style="stroke: #000000; stroke-width: 0.8"/>
      </g>
     </g>
     <g id="text_13">
      <!-- $\mathdefault{7}$ -->
      <g transform="translate(55.148571 124.414873) scale(0.24 -0.24)">
       <defs>
        <path id="CMR17-37" d="M 2886 3941 
L 2886 4081 
L 1382 4081 
C 634 4081 621 4165 595 4288 
L 480 4288 
L 294 3094 
L 410 3094 
C 429 3215 474 3540 550 3661 
C 589 3712 1062 3712 1171 3712 
L 2579 3712 
L 1869 2661 
C 1395 1954 1069 999 1069 165 
C 1069 89 1069 -128 1299 -128 
C 1530 -128 1530 89 1530 171 
L 1530 465 
C 1530 1508 1709 2196 2003 2636 
L 2886 3941 
z
" transform="scale(0.015625)"/>
       </defs>
       <use xlink:href="#CMR17-37" transform="scale(0.996264)"/>
      </g>
     </g>
    </g>
    <g id="ytick_8">
     <g id="line2d_25">
      <path d="M 10.8 92.531398 
L 447 92.531398 
" clip-path="url(#p0bd145d7b1)" style="fill: none; stroke-dasharray: 2.96,1.28; stroke-dashoffset: 0; stroke: #b0b0b0; stroke-opacity: 0.6; stroke-width: 0.8"/>
     </g>
     <g id="line2d_26">
      <g>
       <use xlink:href="#m4ff895aef3" x="73.114286" y="92.531398" style="stroke: #000000; stroke-width: 0.8"/>
      </g>
     </g>
     <g id="text_14">
      <!-- $\mathdefault{8}$ -->
      <g transform="translate(55.148571 100.833601) scale(0.24 -0.24)">
       <defs>
        <path id="CMR17-38" d="M 1741 2264 
C 2144 2467 2554 2773 2554 3263 
C 2554 3841 1990 4179 1472 4179 
C 890 4179 378 3759 378 3180 
C 378 3021 416 2747 666 2505 
C 730 2442 998 2251 1171 2130 
C 883 1983 211 1634 211 934 
C 211 279 838 -128 1459 -128 
C 2144 -128 2720 362 2720 1010 
C 2720 1590 2330 1857 2074 2029 
L 1741 2264 
z
M 902 2822 
C 851 2854 595 3051 595 3351 
C 595 3739 998 4032 1459 4032 
C 1965 4032 2336 3676 2336 3262 
C 2336 2669 1670 2331 1638 2331 
C 1632 2331 1626 2331 1574 2370 
L 902 2822 
z
M 2080 1519 
C 2176 1449 2483 1240 2483 851 
C 2483 381 2010 25 1472 25 
C 890 25 448 438 448 940 
C 448 1443 838 1862 1280 2060 
L 2080 1519 
z
" transform="scale(0.015625)"/>
       </defs>
       <use xlink:href="#CMR17-38" transform="scale(0.996264)"/>
      </g>
     </g>
    </g>
    <g id="ytick_9">
     <g id="line2d_27">
      <path d="M 10.8 68.950126 
L 447 68.950126 
" clip-path="url(#p0bd145d7b1)" style="fill: none; stroke-dasharray: 2.96,1.28; stroke-dashoffset: 0; stroke: #b0b0b0; stroke-opacity: 0.6; stroke-width: 0.8"/>
     </g>
     <g id="line2d_28">
      <g>
       <use xlink:href="#m4ff895aef3" x="73.114286" y="68.950126" style="stroke: #000000; stroke-width: 0.8"/>
      </g>
     </g>
     <g id="text_15">
      <!-- $\mathdefault{9}$ -->
      <g transform="translate(55.148571 77.252329) scale(0.24 -0.24)">
       <defs>
        <path id="CMR17-39" d="M 2253 1864 
C 2253 464 1670 31 1190 31 
C 1043 31 685 31 538 294 
C 704 268 826 357 826 518 
C 826 692 685 749 595 749 
C 538 749 365 723 365 506 
C 365 71 742 -128 1203 -128 
C 1939 -128 2688 674 2688 2073 
C 2688 3817 1971 4179 1485 4179 
C 851 4179 243 3628 243 2778 
C 243 1991 762 1408 1414 1408 
C 1952 1408 2189 1903 2253 2112 
L 2253 1864 
z
M 1427 1510 
C 1254 1510 1011 1542 813 1922 
C 678 2169 678 2461 678 2771 
C 678 3146 678 3405 858 3684 
C 947 3817 1114 4032 1485 4032 
C 2240 4032 2240 2885 2240 2632 
C 2240 2182 2035 1510 1427 1510 
z
" transform="scale(0.015625)"/>
       </defs>
       <use xlink:href="#CMR17-39" transform="scale(0.996264)"/>
      </g>
     </g>
    </g>
    <g id="ytick_10">
     <g id="line2d_29">
      <path d="M 10.8 45.368854 
L 447 45.368854 
" clip-path="url(#p0bd145d7b1)" style="fill: none; stroke-dasharray: 2.96,1.28; stroke-dashoffset: 0; stroke: #b0b0b0; stroke-opacity: 0.6; stroke-width: 0.8"/>
     </g>
     <g id="line2d_30">
      <g>
       <use xlink:href="#m4ff895aef3" x="73.114286" y="45.368854" style="stroke: #000000; stroke-width: 0.8"/>
      </g>
     </g>
     <g id="text_16">
      <!-- $\mathdefault{10}$ -->
      <g transform="translate(44.182857 53.671056) scale(0.24 -0.24)">
       <defs>
        <path id="CMR17-30" d="M 2688 2025 
C 2688 2416 2682 3080 2413 3591 
C 2176 4039 1798 4198 1466 4198 
C 1158 4198 768 4058 525 3597 
C 269 3118 243 2524 243 2025 
C 243 1661 250 1106 448 619 
C 723 -39 1216 -128 1466 -128 
C 1760 -128 2208 -7 2470 600 
C 2662 1042 2688 1559 2688 2025 
z
M 1466 -26 
C 1056 -26 813 325 723 812 
C 653 1188 653 1738 653 2096 
C 653 2588 653 2997 736 3387 
C 858 3929 1216 4096 1466 4096 
C 1728 4096 2067 3923 2189 3400 
C 2272 3036 2278 2607 2278 2096 
C 2278 1680 2278 1169 2202 792 
C 2067 95 1690 -26 1466 -26 
z
" transform="scale(0.015625)"/>
       </defs>
       <use xlink:href="#CMR17-31" transform="scale(0.996264)"/>
       <use xlink:href="#CMR17-30" transform="translate(45.690477 0) scale(0.996264)"/>
      </g>
     </g>
    </g>
    <g id="text_17">
     <!-- $y$ -->
     <g transform="translate(28.767458 17.136824) scale(0.24 -0.24)">
      <defs>
       <path id="CMMI12-79" d="M 1683 -700 
C 1510 -939 1261 -1152 947 -1152 
C 870 -1152 563 -1152 467 -889 
C 486 -895 518 -895 531 -895 
C 723 -895 851 -729 851 -582 
C 851 -435 730 -384 634 -384 
C 531 -384 307 -458 307 -759 
C 307 -1071 582 -1286 947 -1286 
C 1587 -1286 2234 -700 2413 6 
L 3040 2485 
C 3046 2517 3059 2556 3059 2594 
C 3059 2689 2982 2753 2886 2753 
C 2829 2753 2694 2727 2643 2535 
L 2170 658 
C 2138 543 2138 530 2086 460 
C 1958 281 1747 64 1440 64 
C 1082 64 1050 415 1050 588 
C 1050 952 1222 1443 1395 1903 
C 1466 2088 1504 2178 1504 2305 
C 1504 2574 1312 2816 998 2816 
C 410 2816 173 1890 173 1839 
C 173 1814 198 1782 243 1782 
C 301 1782 307 1807 333 1897 
C 486 2433 730 2689 979 2689 
C 1037 2689 1146 2689 1146 2478 
C 1146 2312 1075 2127 979 1884 
C 666 1047 666 837 666 683 
C 666 77 1101 -64 1421 -64 
C 1606 -64 1837 -6 2061 230 
L 2067 224 
C 1971 -147 1907 -392 1683 -700 
z
" transform="scale(0.015625)"/>
      </defs>
      <use xlink:href="#CMMI12-79" transform="scale(0.996264)"/>
     </g>
    </g>
   </g>
   <g id="line2d_31">
    <defs>
     <path id="m9674694537" d="M 3 0 
L -3 -3 
L -3 3 
z
" style="stroke: #000000; stroke-linejoin: miter"/>
    </defs>
    <g>
     <use xlink:href="#m9674694537" x="447" y="281.181577" style="stroke: #000000; stroke-linejoin: miter"/>
    </g>
   </g>
   <g id="line2d_32">
    <defs>
     <path id="m403a6f6875" d="M 0 -3 
L -3 3 
L 3 3 
z
" style="stroke: #000000; stroke-linejoin: miter"/>
    </defs>
    <g>
     <use xlink:href="#m403a6f6875" x="73.114286" y="21.787581" style="stroke: #000000; stroke-linejoin: miter"/>
    </g>
   </g>
   <g id="line2d_33">
    <path d="M 73.114286 45.368854 
L 76.746718 59.997011 
L 80.398169 73.78729 
L 84.049619 86.717781 
L 87.720088 98.903216 
L 91.390556 110.325091 
L 95.080043 121.08494 
L 98.769529 131.167177 
L 102.478034 140.661598 
L 106.205556 149.599242 
L 109.952097 158.009721 
L 113.717655 165.921272 
L 117.502231 173.360806 
L 121.324844 180.387765 
L 125.166474 186.988346 
L 129.04614 193.21569 
L 132.963842 199.086399 
L 136.91958 204.616666 
L 140.932372 209.846182 
L 145.002218 214.785332 
L 149.129118 219.444634 
L 153.313072 223.834686 
L 157.573098 227.98396 
L 161.928213 231.915679 
L 166.378418 235.633237 
L 170.923714 239.14081 
L 175.583117 242.456257 
L 180.375645 245.593862 
L 185.320318 248.564858 
L 190.417134 251.367901 
L 195.704131 254.021273 
L 201.200324 256.529588 
L 206.924734 258.8961 
L 212.896377 261.123056 
L 219.15329 263.218048 
L 225.733508 265.185667 
L 232.694085 267.032961 
L 240.073058 268.758893 
L 247.927481 270.365331 
L 256.333424 271.85516 
L 265.385978 273.230935 
L 275.199252 274.494058 
L 285.90637 275.644457 
L 297.697512 276.68375 
L 310.819913 277.612725 
L 325.596877 278.43124 
L 342.541889 279.141516 
L 362.358616 279.743068 
L 384.685714 280.211154 
L 384.685714 280.211154 
" clip-path="url(#p0bd145d7b1)" style="fill: none; stroke: #0072b2; stroke-width: 2.5; stroke-linecap: square"/>
   </g>
   <g id="line2d_34">
    <path d="M 73.114286 281.181577 
L 77.982589 281.181577 
L 77.982589 45.368854 
L 73.114286 45.368854 
L 73.114286 281.181577 
" clip-path="url(#p0bd145d7b1)" style="fill: none; stroke: #000000; stroke-width: 1.5; stroke-linecap: square"/>
   </g>
   <g id="line2d_35">
    <path d="M 77.982589 281.181577 
L 82.850893 281.181577 
L 82.850893 64.764197 
L 77.982589 64.764197 
L 77.982589 281.181577 
" clip-path="url(#p0bd145d7b1)" style="fill: none; stroke: #000000; stroke-width: 1.5; stroke-linecap: square"/>
   </g>
   <g id="line2d_36">
    <path d="M 82.850893 281.181577 
L 87.719196 281.181577 
L 87.719196 82.564293 
L 82.850893 82.564293 
L 82.850893 281.181577 
" clip-path="url(#p0bd145d7b1)" style="fill: none; stroke: #000000; stroke-width: 1.5; stroke-linecap: square"/>
   </g>
   <g id="line2d_37">
    <path d="M 87.719196 281.181577 
L 92.5875 281.181577 
L 92.5875 98.900351 
L 87.719196 98.900351 
L 87.719196 281.181577 
" clip-path="url(#p0bd145d7b1)" style="fill: none; stroke: #000000; stroke-width: 1.5; stroke-linecap: square"/>
   </g>
   <g id="line2d_38">
    <path d="M 92.5875 281.181577 
L 97.455804 281.181577 
L 97.455804 113.892786 
L 92.5875 113.892786 
L 92.5875 281.181577 
" clip-path="url(#p0bd145d7b1)" style="fill: none; stroke: #000000; stroke-width: 1.5; stroke-linecap: square"/>
   </g>
   <g id="line2d_39">
    <path d="M 97.455804 281.181577 
L 102.324107 281.181577 
L 102.324107 127.652109 
L 97.455804 127.652109 
L 97.455804 281.181577 
" clip-path="url(#p0bd145d7b1)" style="fill: none; stroke: #000000; stroke-width: 1.5; stroke-linecap: square"/>
   </g>
   <g id="line2d_40">
    <path d="M 102.324107 281.181577 
L 107.192411 281.181577 
L 107.192411 140.279743 
L 102.324107 140.279743 
L 102.324107 281.181577 
" clip-path="url(#p0bd145d7b1)" style="fill: none; stroke: #000000; stroke-width: 1.5; stroke-linecap: square"/>
   </g>
   <g id="line2d_41">
    <path d="M 107.192411 281.181577 
L 112.060714 281.181577 
L 112.060714 151.868767 
L 107.192411 151.868767 
L 107.192411 281.181577 
" clip-path="url(#p0bd145d7b1)" style="fill: none; stroke: #000000; stroke-width: 1.5; stroke-linecap: square"/>
   </g>
   <g id="line2d_42">
    <path d="M 112.060714 281.181577 
L 116.929018 281.181577 
L 116.929018 162.504607 
L 112.060714 162.504607 
L 112.060714 281.181577 
" clip-path="url(#p0bd145d7b1)" style="fill: none; stroke: #000000; stroke-width: 1.5; stroke-linecap: square"/>
   </g>
   <g id="line2d_43">
    <path d="M 116.929018 281.181577 
L 121.797321 281.181577 
L 121.797321 172.26566 
L 116.929018 172.26566 
L 116.929018 281.181577 
" clip-path="url(#p0bd145d7b1)" style="fill: none; stroke: #000000; stroke-width: 1.5; stroke-linecap: square"/>
   </g>
   <g id="line2d_44">
    <path d="M 121.797321 281.181577 
L 126.665625 281.181577 
L 126.665625 181.223877 
L 121.797321 181.223877 
L 121.797321 281.181577 
" clip-path="url(#p0bd145d7b1)" style="fill: none; stroke: #000000; stroke-width: 1.5; stroke-linecap: square"/>
   </g>
   <g id="line2d_45">
    <path d="M 126.665625 281.181577 
L 131.533929 281.181577 
L 131.533929 189.445291 
L 126.665625 189.445291 
L 126.665625 281.181577 
" clip-path="url(#p0bd145d7b1)" style="fill: none; stroke: #000000; stroke-width: 1.5; stroke-linecap: square"/>
   </g>
   <g id="line2d_46">
    <path d="M 131.533929 281.181577 
L 136.402232 281.181577 
L 136.402232 196.990502 
L 131.533929 196.990502 
L 131.533929 281.181577 
" clip-path="url(#p0bd145d7b1)" style="fill: none; stroke: #000000; stroke-width: 1.5; stroke-linecap: square"/>
   </g>
   <g id="line2d_47">
    <path d="M 136.402232 281.181577 
L 141.270536 281.181577 
L 141.270536 203.915127 
L 136.402232 203.915127 
L 136.402232 281.181577 
" clip-path="url(#p0bd145d7b1)" style="fill: none; stroke: #000000; stroke-width: 1.5; stroke-linecap: square"/>
   </g>
   <g id="line2d_48">
    <path d="M 141.270536 281.181577 
L 146.138839 281.181577 
L 146.138839 210.270209 
L 141.270536 210.270209 
L 141.270536 281.181577 
" clip-path="url(#p0bd145d7b1)" style="fill: none; stroke: #000000; stroke-width: 1.5; stroke-linecap: square"/>
   </g>
   <g id="line2d_49">
    <path d="M 146.138839 281.181577 
L 151.007143 281.181577 
L 151.007143 216.102593 
L 146.138839 216.102593 
L 146.138839 281.181577 
" clip-path="url(#p0bd145d7b1)" style="fill: none; stroke: #000000; stroke-width: 1.5; stroke-linecap: square"/>
   </g>
   <g id="line2d_50">
    <path d="M 151.007143 281.181577 
L 155.875446 281.181577 
L 155.875446 221.45527 
L 151.007143 221.45527 
L 151.007143 281.181577 
" clip-path="url(#p0bd145d7b1)" style="fill: none; stroke: #000000; stroke-width: 1.5; stroke-linecap: square"/>
   </g>
   <g id="line2d_51">
    <path d="M 155.875446 281.181577 
L 160.74375 281.181577 
L 160.74375 226.367694 
L 155.875446 226.367694 
L 155.875446 281.181577 
" clip-path="url(#p0bd145d7b1)" style="fill: none; stroke: #000000; stroke-width: 1.5; stroke-linecap: square"/>
   </g>
   <g id="line2d_52">
    <path d="M 160.74375 281.181577 
L 165.612054 281.181577 
L 165.612054 230.876077 
L 160.74375 230.876077 
L 160.74375 281.181577 
" clip-path="url(#p0bd145d7b1)" style="fill: none; stroke: #000000; stroke-width: 1.5; stroke-linecap: square"/>
   </g>
   <g id="line2d_53">
    <path d="M 165.612054 281.181577 
L 170.480357 281.181577 
L 170.480357 235.01365 
L 165.612054 235.01365 
L 165.612054 281.181577 
" clip-path="url(#p0bd145d7b1)" style="fill: none; stroke: #000000; stroke-width: 1.5; stroke-linecap: square"/>
   </g>
   <g id="line2d_54">
    <path d="M 170.480357 281.181577 
L 175.348661 281.181577 
L 175.348661 238.810913 
L 170.480357 238.810913 
L 170.480357 281.181577 
" clip-path="url(#p0bd145d7b1)" style="fill: none; stroke: #000000; stroke-width: 1.5; stroke-linecap: square"/>
   </g>
   <g id="line2d_55">
    <path d="M 175.348661 281.181577 
L 180.216964 281.181577 
L 180.216964 242.295854 
L 175.348661 242.295854 
L 175.348661 281.181577 
" clip-path="url(#p0bd145d7b1)" style="fill: none; stroke: #000000; stroke-width: 1.5; stroke-linecap: square"/>
   </g>
   <g id="line2d_56">
    <path d="M 180.216964 281.181577 
L 185.085268 281.181577 
L 185.085268 245.494163 
L 180.216964 245.494163 
L 180.216964 281.181577 
" clip-path="url(#p0bd145d7b1)" style="fill: none; stroke: #000000; stroke-width: 1.5; stroke-linecap: square"/>
   </g>
   <g id="line2d_57">
    <path d="M 185.085268 281.181577 
L 189.953571 281.181577 
L 189.953571 248.429415 
L 185.085268 248.429415 
L 185.085268 281.181577 
" clip-path="url(#p0bd145d7b1)" style="fill: none; stroke: #000000; stroke-width: 1.5; stroke-linecap: square"/>
   </g>
   <g id="line2d_58">
    <path d="M 189.953571 281.181577 
L 194.821875 281.181577 
L 194.821875 251.123245 
L 189.953571 251.123245 
L 189.953571 281.181577 
" clip-path="url(#p0bd145d7b1)" style="fill: none; stroke: #000000; stroke-width: 1.5; stroke-linecap: square"/>
   </g>
   <g id="line2d_59">
    <path d="M 194.821875 281.181577 
L 199.690179 281.181577 
L 199.690179 253.59551 
L 194.821875 253.59551 
L 194.821875 281.181577 
" clip-path="url(#p0bd145d7b1)" style="fill: none; stroke: #000000; stroke-width: 1.5; stroke-linecap: square"/>
   </g>
   <g id="line2d_60">
    <path d="M 199.690179 281.181577 
L 204.558482 281.181577 
L 204.558482 255.864435 
L 199.690179 255.864435 
L 199.690179 281.181577 
" clip-path="url(#p0bd145d7b1)" style="fill: none; stroke: #000000; stroke-width: 1.5; stroke-linecap: square"/>
   </g>
   <g id="line2d_61">
    <path d="M 204.558482 281.181577 
L 209.426786 281.181577 
L 209.426786 257.946742 
L 204.558482 257.946742 
L 204.558482 281.181577 
" clip-path="url(#p0bd145d7b1)" style="fill: none; stroke: #000000; stroke-width: 1.5; stroke-linecap: square"/>
   </g>
   <g id="line2d_62">
    <path d="M 209.426786 281.181577 
L 214.295089 281.181577 
L 214.295089 259.857783 
L 209.426786 259.857783 
L 209.426786 281.181577 
" clip-path="url(#p0bd145d7b1)" style="fill: none; stroke: #000000; stroke-width: 1.5; stroke-linecap: square"/>
   </g>
   <g id="line2d_63">
    <path d="M 214.295089 281.181577 
L 219.163393 281.181577 
L 219.163393 261.611642 
L 214.295089 261.611642 
L 214.295089 281.181577 
" clip-path="url(#p0bd145d7b1)" style="fill: none; stroke: #000000; stroke-width: 1.5; stroke-linecap: square"/>
   </g>
   <g id="line2d_64">
    <path d="M 219.163393 281.181577 
L 224.031696 281.181577 
L 224.031696 263.221248 
L 219.163393 263.221248 
L 219.163393 281.181577 
" clip-path="url(#p0bd145d7b1)" style="fill: none; stroke: #000000; stroke-width: 1.5; stroke-linecap: square"/>
   </g>
   <g id="line2d_65">
    <path d="M 224.031696 281.181577 
L 228.9 281.181577 
L 228.9 264.698466 
L 224.031696 264.698466 
L 224.031696 281.181577 
" clip-path="url(#p0bd145d7b1)" style="fill: none; stroke: #000000; stroke-width: 1.5; stroke-linecap: square"/>
   </g>
   <g id="line2d_66">
    <path d="M 228.9 281.181577 
L 233.768304 281.181577 
L 233.768304 266.054184 
L 228.9 266.054184 
L 228.9 281.181577 
" clip-path="url(#p0bd145d7b1)" style="fill: none; stroke: #000000; stroke-width: 1.5; stroke-linecap: square"/>
   </g>
   <g id="line2d_67">
    <path d="M 233.768304 281.181577 
L 238.636607 281.181577 
L 238.636607 267.298396 
L 233.768304 267.298396 
L 233.768304 281.181577 
" clip-path="url(#p0bd145d7b1)" style="fill: none; stroke: #000000; stroke-width: 1.5; stroke-linecap: square"/>
   </g>
   <g id="line2d_68">
    <path d="M 238.636607 281.181577 
L 243.504911 281.181577 
L 243.504911 268.440272 
L 238.636607 268.440272 
L 238.636607 281.181577 
" clip-path="url(#p0bd145d7b1)" style="fill: none; stroke: #000000; stroke-width: 1.5; stroke-linecap: square"/>
   </g>
   <g id="line2d_69">
    <path d="M 243.504911 281.181577 
L 248.373214 281.181577 
L 248.373214 269.488231 
L 243.504911 269.488231 
L 243.504911 281.181577 
" clip-path="url(#p0bd145d7b1)" style="fill: none; stroke: #000000; stroke-width: 1.5; stroke-linecap: square"/>
   </g>
   <g id="line2d_70">
    <path d="M 248.373214 281.181577 
L 253.241518 281.181577 
L 253.241518 270.449996 
L 248.373214 270.449996 
L 248.373214 281.181577 
" clip-path="url(#p0bd145d7b1)" style="fill: none; stroke: #000000; stroke-width: 1.5; stroke-linecap: square"/>
   </g>
   <g id="line2d_71">
    <path d="M 253.241518 281.181577 
L 258.109821 281.181577 
L 258.109821 271.332657 
L 253.241518 271.332657 
L 253.241518 281.181577 
" clip-path="url(#p0bd145d7b1)" style="fill: none; stroke: #000000; stroke-width: 1.5; stroke-linecap: square"/>
   </g>
   <g id="line2d_72">
    <path d="M 258.109821 281.181577 
L 262.978125 281.181577 
L 262.978125 272.14272 
L 258.109821 272.14272 
L 258.109821 281.181577 
" clip-path="url(#p0bd145d7b1)" style="fill: none; stroke: #000000; stroke-width: 1.5; stroke-linecap: square"/>
   </g>
   <g id="line2d_73">
    <path d="M 262.978125 281.181577 
L 267.846429 281.181577 
L 267.846429 272.886156 
L 262.978125 272.886156 
L 262.978125 281.181577 
" clip-path="url(#p0bd145d7b1)" style="fill: none; stroke: #000000; stroke-width: 1.5; stroke-linecap: square"/>
   </g>
   <g id="line2d_74">
    <path d="M 267.846429 281.181577 
L 272.714732 281.181577 
L 272.714732 273.568446 
L 267.846429 273.568446 
L 267.846429 281.181577 
" clip-path="url(#p0bd145d7b1)" style="fill: none; stroke: #000000; stroke-width: 1.5; stroke-linecap: square"/>
   </g>
   <g id="line2d_75">
    <path d="M 272.714732 281.181577 
L 277.583036 281.181577 
L 277.583036 274.194618 
L 272.714732 274.194618 
L 272.714732 281.181577 
" clip-path="url(#p0bd145d7b1)" style="fill: none; stroke: #000000; stroke-width: 1.5; stroke-linecap: square"/>
   </g>
   <g id="line2d_76">
    <path d="M 277.583036 281.181577 
L 282.451339 281.181577 
L 282.451339 274.769288 
L 277.583036 274.769288 
L 277.583036 281.181577 
" clip-path="url(#p0bd145d7b1)" style="fill: none; stroke: #000000; stroke-width: 1.5; stroke-linecap: square"/>
   </g>
   <g id="line2d_77">
    <path d="M 282.451339 281.181577 
L 287.319643 281.181577 
L 287.319643 275.296692 
L 282.451339 275.296692 
L 282.451339 281.181577 
" clip-path="url(#p0bd145d7b1)" style="fill: none; stroke: #000000; stroke-width: 1.5; stroke-linecap: square"/>
   </g>
   <g id="line2d_78">
    <path d="M 287.319643 281.181577 
L 292.187946 281.181577 
L 292.187946 275.780717 
L 287.319643 275.780717 
L 287.319643 281.181577 
" clip-path="url(#p0bd145d7b1)" style="fill: none; stroke: #000000; stroke-width: 1.5; stroke-linecap: square"/>
   </g>
   <g id="line2d_79">
    <path d="M 292.187946 281.181577 
L 297.05625 281.181577 
L 297.05625 276.224932 
L 292.187946 276.224932 
L 292.187946 281.181577 
" clip-path="url(#p0bd145d7b1)" style="fill: none; stroke: #000000; stroke-width: 1.5; stroke-linecap: square"/>
   </g>
   <g id="line2d_80">
    <path d="M 297.05625 281.181577 
L 301.924554 281.181577 
L 301.924554 276.632611 
L 297.05625 276.632611 
L 297.05625 281.181577 
" clip-path="url(#p0bd145d7b1)" style="fill: none; stroke: #000000; stroke-width: 1.5; stroke-linecap: square"/>
   </g>
   <g id="line2d_81">
    <path d="M 301.924554 281.181577 
L 306.792857 281.181577 
L 306.792857 277.006758 
L 301.924554 277.006758 
L 301.924554 281.181577 
" clip-path="url(#p0bd145d7b1)" style="fill: none; stroke: #000000; stroke-width: 1.5; stroke-linecap: square"/>
   </g>
   <g id="line2d_82">
    <path d="M 306.792857 281.181577 
L 311.661161 281.181577 
L 311.661161 277.350133 
L 306.792857 277.350133 
L 306.792857 281.181577 
" clip-path="url(#p0bd145d7b1)" style="fill: none; stroke: #000000; stroke-width: 1.5; stroke-linecap: square"/>
   </g>
   <g id="line2d_83">
    <path d="M 311.661161 281.181577 
L 316.529464 281.181577 
L 316.529464 277.665265 
L 311.661161 277.665265 
L 311.661161 281.181577 
" clip-path="url(#p0bd145d7b1)" style="fill: none; stroke: #000000; stroke-width: 1.5; stroke-linecap: square"/>
   </g>
   <g id="line2d_84">
    <path d="M 316.529464 281.181577 
L 321.397768 281.181577 
L 321.397768 277.954478 
L 316.529464 277.954478 
L 316.529464 281.181577 
" clip-path="url(#p0bd145d7b1)" style="fill: none; stroke: #000000; stroke-width: 1.5; stroke-linecap: square"/>
   </g>
   <g id="line2d_85">
    <path d="M 321.397768 281.181577 
L 326.266071 281.181577 
L 326.266071 278.219903 
L 321.397768 278.219903 
L 321.397768 281.181577 
" clip-path="url(#p0bd145d7b1)" style="fill: none; stroke: #000000; stroke-width: 1.5; stroke-linecap: square"/>
   </g>
   <g id="line2d_86">
    <path d="M 326.266071 281.181577 
L 331.134375 281.181577 
L 331.134375 278.463498 
L 326.266071 278.463498 
L 326.266071 281.181577 
" clip-path="url(#p0bd145d7b1)" style="fill: none; stroke: #000000; stroke-width: 1.5; stroke-linecap: square"/>
   </g>
   <g id="line2d_87">
    <path d="M 331.134375 281.181577 
L 336.002679 281.181577 
L 336.002679 278.687057 
L 331.134375 278.687057 
L 331.134375 281.181577 
" clip-path="url(#p0bd145d7b1)" style="fill: none; stroke: #000000; stroke-width: 1.5; stroke-linecap: square"/>
   </g>
   <g id="line2d_88">
    <path d="M 336.002679 281.181577 
L 340.870982 281.181577 
L 340.870982 278.892228 
L 336.002679 278.892228 
L 336.002679 281.181577 
" clip-path="url(#p0bd145d7b1)" style="fill: none; stroke: #000000; stroke-width: 1.5; stroke-linecap: square"/>
   </g>
   <g id="line2d_89">
    <path d="M 340.870982 281.181577 
L 345.739286 281.181577 
L 345.739286 279.080525 
L 340.870982 279.080525 
L 340.870982 281.181577 
" clip-path="url(#p0bd145d7b1)" style="fill: none; stroke: #000000; stroke-width: 1.5; stroke-linecap: square"/>
   </g>
   <g id="line2d_90">
    <path d="M 345.739286 281.181577 
L 350.607589 281.181577 
L 350.607589 279.253334 
L 345.739286 279.253334 
L 345.739286 281.181577 
" clip-path="url(#p0bd145d7b1)" style="fill: none; stroke: #000000; stroke-width: 1.5; stroke-linecap: square"/>
   </g>
   <g id="line2d_91">
    <path d="M 350.607589 281.181577 
L 355.475893 281.181577 
L 355.475893 279.41193 
L 350.607589 279.41193 
L 350.607589 281.181577 
" clip-path="url(#p0bd145d7b1)" style="fill: none; stroke: #000000; stroke-width: 1.5; stroke-linecap: square"/>
   </g>
   <g id="line2d_92">
    <path d="M 355.475893 281.181577 
L 360.344196 281.181577 
L 360.344196 279.557482 
L 355.475893 279.557482 
L 355.475893 281.181577 
" clip-path="url(#p0bd145d7b1)" style="fill: none; stroke: #000000; stroke-width: 1.5; stroke-linecap: square"/>
   </g>
   <g id="line2d_93">
    <path d="M 360.344196 281.181577 
L 365.2125 281.181577 
L 365.2125 279.691062 
L 360.344196 279.691062 
L 360.344196 281.181577 
" clip-path="url(#p0bd145d7b1)" style="fill: none; stroke: #000000; stroke-width: 1.5; stroke-linecap: square"/>
   </g>
   <g id="line2d_94">
    <path d="M 365.2125 281.181577 
L 370.080804 281.181577 
L 370.080804 279.813655 
L 365.2125 279.813655 
L 365.2125 281.181577 
" clip-path="url(#p0bd145d7b1)" style="fill: none; stroke: #000000; stroke-width: 1.5; stroke-linecap: square"/>
   </g>
   <g id="line2d_95">
    <path d="M 370.080804 281.181577 
L 374.949107 281.181577 
L 374.949107 279.926165 
L 370.080804 279.926165 
L 370.080804 281.181577 
" clip-path="url(#p0bd145d7b1)" style="fill: none; stroke: #000000; stroke-width: 1.5; stroke-linecap: square"/>
   </g>
   <g id="line2d_96">
    <path d="M 374.949107 281.181577 
L 379.817411 281.181577 
L 379.817411 280.029421 
L 374.949107 280.029421 
L 374.949107 281.181577 
" clip-path="url(#p0bd145d7b1)" style="fill: none; stroke: #000000; stroke-width: 1.5; stroke-linecap: square"/>
   </g>
   <g id="line2d_97">
    <path d="M 379.817411 281.181577 
L 384.685714 281.181577 
L 384.685714 280.124185 
L 379.817411 280.124185 
L 379.817411 281.181577 
" clip-path="url(#p0bd145d7b1)" style="fill: none; stroke: #000000; stroke-width: 1.5; stroke-linecap: square"/>
   </g>
   <g id="patch_67">
    <path d="M 73.114286 304.762849 
L 73.114286 21.787581 
" style="fill: none; stroke: #000000; stroke-width: 0.8; stroke-linejoin: miter; stroke-linecap: square"/>
   </g>
   <g id="patch_68">
    <path d="M 447 304.762849 
L 447 21.787581 
" style="fill: none"/>
   </g>
   <g id="patch_69">
    <path d="M 10.8 281.181577 
L 447 281.181577 
" style="fill: none; stroke: #000000; stroke-width: 0.8; stroke-linejoin: miter; stroke-linecap: square"/>
   </g>
   <g id="patch_70">
    <path d="M 10.8 21.787581 
L 447 21.787581 
" style="fill: none"/>
   </g>
   <g id="text_18">
    <g id="patch_71">
     <path d="M 313.921832 166.508272 
L 437.1855 166.508272 
Q 446.7855 166.508272 446.7855 156.908272 
L 446.7855 135.653109 
Q 446.7855 126.053109 437.1855 126.053109 
L 313.921832 126.053109 
Q 304.321832 126.053109 304.321832 135.653109 
L 304.321832 156.908272 
Q 304.321832 166.508272 313.921832 166.508272 
z
" style="fill: #ffffff; opacity: 0.7; stroke: #000000; stroke-width: 1.5; stroke-linejoin: miter"/>
    </g>
    <!-- 64 rektangler -->
    <g transform="translate(313.921832 152.257515) scale(0.24 -0.24)">
     <defs>
      <path id="CMSS17-36" d="M 2496 4101 
C 2227 4210 2035 4229 1856 4229 
C 1024 4229 250 3368 250 2006 
C 250 265 986 -128 1510 -128 
C 1798 -128 2086 -39 2362 280 
C 2643 617 2752 898 2752 1389 
C 2752 2179 2362 2880 1779 2880 
C 1357 2880 992 2657 768 2376 
C 832 3258 1254 3840 1862 3840 
C 2029 3840 2246 3816 2496 3710 
L 2496 4101 
z
M 774 1369 
C 774 1420 774 1452 781 1548 
C 781 2045 1069 2491 1536 2491 
C 1837 2491 1990 2332 2106 2135 
C 2240 1886 2246 1650 2246 1388 
C 2246 1140 2246 891 2099 637 
C 1978 439 1818 267 1510 267 
C 902 267 800 1114 774 1369 
z
" transform="scale(0.015625)"/>
      <path id="CMSS17-34" d="M 2253 1088 
L 2835 1088 
L 2835 1477 
L 2253 1477 
L 2253 4192 
L 1690 4192 
L 166 1477 
L 166 1088 
L 1747 1088 
L 1747 0 
L 2253 0 
L 2253 1088 
z
M 659 1477 
C 1030 2127 1766 3439 1766 3885 
L 1766 1477 
L 659 1477 
z
" transform="scale(0.015625)"/>
      <path id="CMSS17-72" d="M 954 1363 
C 954 1965 1395 2368 1958 2368 
L 1958 2789 
C 1549 2789 1165 2585 934 2253 
L 934 2758 
L 480 2758 
L 480 0 
L 954 0 
L 954 1363 
z
" transform="scale(0.015625)"/>
      <path id="CMSS17-65" d="M 2502 1377 
C 2502 1590 2490 2003 2285 2345 
C 2061 2713 1696 2816 1421 2816 
C 755 2816 192 2188 192 1375 
C 192 582 774 -64 1510 -64 
C 1798 -64 2150 19 2470 248 
C 2470 274 2458 414 2451 420 
C 2451 433 2432 630 2432 656 
C 2125 407 1773 325 1517 325 
C 1107 325 666 667 646 1377 
L 2502 1377 
z
M 698 1728 
C 781 2084 1062 2421 1421 2421 
C 1517 2421 1965 2421 2080 1728 
L 698 1728 
z
" transform="scale(0.015625)"/>
      <path id="CMSS17-6b" d="M 1696 1688 
L 2688 2739 
L 2074 2739 
L 954 1554 
L 954 4416 
L 480 4416 
L 480 0 
L 947 0 
L 947 892 
L 1376 1344 
L 2278 0 
L 2822 0 
L 1696 1688 
z
" transform="scale(0.015625)"/>
      <path id="CMSS17-74" d="M 1069 2368 
L 1901 2368 
L 1901 2737 
L 1069 2737 
L 1069 3520 
L 614 3520 
L 614 2737 
L 109 2737 
L 109 2368 
L 602 2368 
L 602 749 
C 602 384 685 -64 1107 -64 
C 1427 -64 1722 25 2003 172 
L 1901 548 
C 1747 414 1562 337 1363 337 
C 1082 337 1069 696 1069 856 
L 1069 2368 
z
" transform="scale(0.015625)"/>
      <path id="CMSS17-61" d="M 2406 1791 
C 2406 2392 1978 2808 1402 2808 
C 1120 2808 813 2757 461 2553 
L 499 2135 
C 659 2248 934 2432 1395 2432 
C 1722 2432 1920 2180 1920 1782 
L 1920 1536 
C 896 1536 256 1238 256 726 
C 256 461 416 -64 947 -64 
C 1043 -64 1562 -64 1933 217 
L 1933 -19 
L 2406 -19 
L 2406 1791 
z
M 1920 816 
C 1920 701 1920 548 1728 434 
C 1562 325 1350 325 1261 325 
C 941 325 723 511 723 744 
C 723 1211 1722 1211 1920 1211 
L 1920 816 
z
" transform="scale(0.015625)"/>
      <path id="CMSS17-6e" d="M 2618 1877 
C 2618 2283 2522 2816 1798 2816 
C 1389 2816 1120 2606 941 2389 
L 941 2758 
L 474 2758 
L 474 0 
L 960 0 
L 960 1559 
C 960 1964 1114 2428 1549 2428 
C 2112 2428 2131 2048 2131 1829 
L 2131 0 
L 2618 0 
L 2618 1877 
z
" transform="scale(0.015625)"/>
      <path id="CMSS17-67" d="M 2848 2808 
C 2483 2808 2170 2738 1914 2617 
C 1702 2777 1485 2808 1338 2808 
C 781 2808 358 2349 358 1814 
C 358 1468 550 1207 563 1195 
C 448 1035 384 863 384 672 
C 384 448 474 289 544 200 
C 211 -3 166 -314 166 -435 
C 166 -898 749 -1280 1498 -1280 
C 2253 -1280 2835 -898 2835 -428 
C 2835 448 1856 448 1587 448 
L 1069 448 
C 973 448 717 448 717 791 
C 717 921 774 1004 781 1010 
C 877 940 1075 832 1338 832 
C 1869 832 2310 1278 2310 1827 
C 2310 2132 2170 2355 2112 2432 
L 2131 2432 
C 2150 2432 2419 2432 2515 2432 
C 2720 2432 2739 2429 2918 2419 
L 2848 2808 
z
M 1338 1182 
C 1120 1182 813 1315 813 1823 
C 813 2375 1165 2464 1331 2464 
C 1549 2464 1856 2331 1856 1823 
C 1856 1271 1504 1182 1338 1182 
z
M 1581 -10 
C 1734 -10 2381 -10 2381 -442 
C 2381 -714 1984 -929 1504 -929 
C 1018 -929 621 -720 621 -435 
C 621 -403 621 -10 1062 -10 
L 1581 -10 
z
" transform="scale(0.015625)"/>
      <path id="CMSS17-6c" d="M 947 4416 
L 474 4416 
L 474 0 
L 947 0 
L 947 4416 
z
" transform="scale(0.015625)"/>
     </defs>
     <use xlink:href="#CMSS17-36" transform="scale(0.996264)"/>
     <use xlink:href="#CMSS17-34" transform="translate(46.843624 0) scale(0.996264)"/>
     <use xlink:href="#CMSS17-72" transform="translate(124.91636 0) scale(0.996264)"/>
     <use xlink:href="#CMSS17-65" transform="translate(156.826132 0) scale(0.996264)"/>
     <use xlink:href="#CMSS17-6b" transform="translate(198.464954 0) scale(0.996264)"/>
     <use xlink:href="#CMSS17-74" transform="translate(244.067444 0) scale(0.996264)"/>
     <use xlink:href="#CMSS17-61" transform="translate(277.89901 0) scale(0.996264)"/>
     <use xlink:href="#CMSS17-6e" transform="translate(322.820931 0) scale(0.996264)"/>
     <use xlink:href="#CMSS17-67" transform="translate(371.025874 0) scale(0.996264)"/>
     <use xlink:href="#CMSS17-6c" transform="translate(417.869498 0) scale(0.996264)"/>
     <use xlink:href="#CMSS17-65" transform="translate(440.050221 0) scale(0.996264)"/>
     <use xlink:href="#CMSS17-72" transform="translate(481.689043 0) scale(0.996264)"/>
    </g>
   </g>
   <g id="legend_1">
    <g id="patch_72">
     <path d="M 341.860023 74.438339 
L 430.2 74.438339 
Q 435 74.438339 435 69.638339 
L 435 38.587581 
Q 435 33.787581 430.2 33.787581 
L 341.860023 33.787581 
Q 337.060023 33.787581 337.060023 38.587581 
L 337.060023 69.638339 
Q 337.060023 74.438339 341.860023 74.438339 
z
" style="fill: #ffffff; opacity: 0.8; stroke: #cccccc; stroke-linejoin: miter"/>
    </g>
    <g id="line2d_98">
     <path d="M 346.660023 51.787581 
L 370.660023 51.787581 
L 394.660023 51.787581 
" style="fill: none; stroke: #0072b2; stroke-width: 2.5; stroke-linecap: square"/>
    </g>
    <g id="text_19">
     <!-- $f$ -->
     <g transform="translate(413.860023 60.187581) scale(0.24 -0.24)">
      <defs>
       <path id="CMMI12-66" d="M 2854 2566 
C 2982 2566 3034 2566 3034 2688 
C 3034 2752 2982 2752 2867 2752 
L 2349 2752 
C 2470 3429 2560 3897 2611 4107 
C 2650 4265 2784 4416 2950 4416 
C 3085 4416 3219 4358 3283 4298 
C 3034 4272 2957 4082 2957 3969 
C 2957 3837 3053 3759 3174 3759 
C 3302 3759 3494 3870 3494 4119 
C 3494 4393 3226 4544 2944 4544 
C 2669 4544 2400 4334 2272 4078 
C 2157 3848 2093 3611 1946 2752 
L 1517 2752 
C 1395 2752 1331 2752 1331 2637 
C 1331 2566 1370 2566 1498 2566 
L 1907 2566 
C 1792 1976 1530 542 1382 -137 
C 1274 -689 1178 -1152 858 -1152 
C 838 -1152 653 -1152 538 -1031 
C 864 -1005 864 -726 864 -720 
C 864 -593 768 -517 646 -517 
C 518 -517 326 -625 326 -867 
C 326 -1140 608 -1280 858 -1280 
C 1510 -1280 1779 -118 1850 199 
C 1965 688 2278 2376 2310 2566 
L 2854 2566 
z
" transform="scale(0.015625)"/>
      </defs>
      <use xlink:href="#CMMI12-66" transform="scale(0.996264)"/>
     </g>
    </g>
   </g>
  </g>
 </g>
 <defs>
  <clipPath id="p0bd145d7b1">
   <rect x="10.8" y="21.787581" width="436.2" height="282.975268"/>
  </clipPath>
 </defs>
</svg>
