<?xml version="1.0" encoding="utf-8" standalone="no"?>
<!DOCTYPE svg PUBLIC "-//W3C//DTD SVG 1.1//EN"
  "http://www.w3.org/Graphics/SVG/1.1/DTD/svg11.dtd">
<svg xmlns:xlink="http://www.w3.org/1999/xlink" width="460.8pt" height="345.6pt" viewBox="0 0 460.8 345.6" xmlns="http://www.w3.org/2000/svg" version="1.1">
 <metadata>
  <rdf:RDF xmlns:dc="http://purl.org/dc/elements/1.1/" xmlns:cc="http://creativecommons.org/ns#" xmlns:rdf="http://www.w3.org/1999/02/22-rdf-syntax-ns#">
   <cc:Work>
    <dc:type rdf:resource="http://purl.org/dc/dcmitype/StillImage"/>
    <dc:date>2026-01-29T19:26:49.510869</dc:date>
    <dc:format>image/svg+xml</dc:format>
    <dc:creator>
     <cc:Agent>
      <dc:title>Matplotlib v3.9.1, https://matplotlib.org/</dc:title>
     </cc:Agent>
    </dc:creator>
   </cc:Work>
  </rdf:RDF>
 </metadata>
 <defs>
  <style type="text/css">*{stroke-linejoin: round; stroke-linecap: butt}</style>
 </defs>
 <g id="figure_1">
  <g id="patch_1">
   <path d="M 0 345.6 
L 460.8 345.6 
L 460.8 0 
L 0 0 
L 0 345.6 
z
" style="fill: none"/>
  </g>
  <g id="axes_1">
   <g id="patch_2">
    <path d="M 10.8 334.8 
L 447 334.8 
L 447 20.016315 
L 10.8 20.016315 
L 10.8 334.8 
z
" style="fill: none"/>
   </g>
   <g id="matplotlib.axis_1">
    <g id="xtick_1">
     <g id="line2d_1">
      <path d="M 85.816001 334.8 
L 85.816001 20.016315 
" clip-path="url(#paec47c560a)" style="fill: none; stroke-dasharray: 2.96,1.28; stroke-dashoffset: 0; stroke: #b0b0b0; stroke-opacity: 0.6; stroke-width: 0.8"/>
     </g>
     <g id="line2d_2">
      <defs>
       <path id="mdbdd8747a3" d="M 0 0 
L 0 3.5 
" style="stroke: #000000; stroke-width: 0.8"/>
      </defs>
      <g>
       <use xlink:href="#mdbdd8747a3" x="85.816001" y="177.408158" style="stroke: #000000; stroke-width: 0.8"/>
      </g>
     </g>
     <g id="text_1">
      <!-- $\mathdefault{−1}$ -->
      <g transform="translate(73.498209 198.245154) scale(0.2 -0.2)">
       <defs>
        <path id="CMSY10-0" d="M 4218 1472 
C 4326 1472 4442 1472 4442 1600 
C 4442 1728 4326 1728 4218 1728 
L 755 1728 
C 646 1728 531 1728 531 1600 
C 531 1472 646 1472 755 1472 
L 4218 1472 
z
" transform="scale(0.015625)"/>
        <path id="CMR17-31" d="M 1702 4058 
C 1702 4192 1696 4192 1606 4192 
C 1357 3916 979 3827 621 3827 
C 602 3827 570 3827 563 3808 
C 557 3795 557 3782 557 3648 
C 755 3648 1088 3686 1344 3839 
L 1344 461 
C 1344 236 1331 160 781 160 
L 589 160 
L 589 0 
C 896 0 1216 0 1523 0 
C 1830 0 2150 0 2458 0 
L 2458 160 
L 2266 160 
C 1715 160 1702 230 1702 458 
L 1702 4058 
z
" transform="scale(0.015625)"/>
       </defs>
       <use xlink:href="#CMSY10-0" transform="scale(0.996264)"/>
       <use xlink:href="#CMR17-31" transform="translate(77.487468 0) scale(0.996264)"/>
      </g>
     </g>
    </g>
    <g id="xtick_2">
     <g id="line2d_3">
      <path d="M 371.983324 334.8 
L 371.983324 20.016315 
" clip-path="url(#paec47c560a)" style="fill: none; stroke-dasharray: 2.96,1.28; stroke-dashoffset: 0; stroke: #b0b0b0; stroke-opacity: 0.6; stroke-width: 0.8"/>
     </g>
     <g id="line2d_4">
      <g>
       <use xlink:href="#mdbdd8747a3" x="371.983324" y="177.408158" style="stroke: #000000; stroke-width: 0.8"/>
      </g>
     </g>
     <g id="text_2">
      <!-- $\mathdefault{1}$ -->
      <g transform="translate(367.414277 198.245154) scale(0.2 -0.2)">
       <use xlink:href="#CMR17-31" transform="scale(0.996264)"/>
      </g>
     </g>
    </g>
    <g id="text_3">
     <!-- $x$ -->
     <g transform="translate(435.913188 219.957785) scale(0.2 -0.2)">
      <defs>
       <path id="CMMI12-78" d="M 3034 2606 
C 2829 2567 2752 2414 2752 2293 
C 2752 2139 2874 2088 2963 2088 
C 3155 2088 3290 2254 3290 2427 
C 3290 2695 2982 2816 2714 2816 
C 2323 2816 2106 2433 2048 2312 
C 1901 2816 1504 2816 1389 2816 
C 736 2816 390 1980 390 1839 
C 390 1814 416 1782 461 1782 
C 512 1782 525 1820 538 1846 
C 755 2555 1184 2689 1370 2689 
C 1658 2689 1715 2420 1715 2267 
C 1715 2127 1677 1980 1600 1673 
L 1382 798 
C 1286 415 1101 64 762 64 
C 730 64 570 64 435 147 
C 666 192 717 383 717 460 
C 717 588 621 664 499 664 
C 346 664 179 530 179 326 
C 179 57 480 -64 755 -64 
C 1062 -64 1280 179 1414 441 
C 1517 64 1837 -64 2074 -64 
C 2726 -64 3072 773 3072 913 
C 3072 945 3046 971 3008 971 
C 2950 971 2944 939 2925 888 
C 2752 326 2381 64 2093 64 
C 1869 64 1747 230 1747 492 
C 1747 632 1773 734 1875 1156 
L 2099 2024 
C 2195 2408 2413 2689 2707 2689 
C 2720 2689 2899 2689 3034 2606 
z
" transform="scale(0.015625)"/>
      </defs>
      <use xlink:href="#CMMI12-78" transform="scale(0.996264)"/>
     </g>
    </g>
   </g>
   <g id="matplotlib.axis_2">
    <g id="ytick_1">
     <g id="line2d_5">
      <path d="M 10.8 320.491819 
L 447 320.491819 
" clip-path="url(#paec47c560a)" style="fill: none; stroke-dasharray: 2.96,1.28; stroke-dashoffset: 0; stroke: #b0b0b0; stroke-opacity: 0.6; stroke-width: 0.8"/>
     </g>
     <g id="line2d_6">
      <defs>
       <path id="m6d88d965a0" d="M 0 0 
L -3.5 0 
" style="stroke: #000000; stroke-width: 0.8"/>
      </defs>
      <g>
       <use xlink:href="#m6d88d965a0" x="228.899663" y="320.491819" style="stroke: #000000; stroke-width: 0.8"/>
      </g>
     </g>
     <g id="text_4">
      <!-- $\mathdefault{−1}$ -->
      <g transform="translate(197.26408 327.410318) scale(0.2 -0.2)">
       <use xlink:href="#CMSY10-0" transform="scale(0.996264)"/>
       <use xlink:href="#CMR17-31" transform="translate(77.487468 0) scale(0.996264)"/>
      </g>
     </g>
    </g>
    <g id="ytick_2">
     <g id="line2d_7">
      <path d="M 10.8 34.324496 
L 447 34.324496 
" clip-path="url(#paec47c560a)" style="fill: none; stroke-dasharray: 2.96,1.28; stroke-dashoffset: 0; stroke: #b0b0b0; stroke-opacity: 0.6; stroke-width: 0.8"/>
     </g>
     <g id="line2d_8">
      <g>
       <use xlink:href="#m6d88d965a0" x="228.899663" y="34.324496" style="stroke: #000000; stroke-width: 0.8"/>
      </g>
     </g>
     <g id="text_5">
      <!-- $\mathdefault{1}$ -->
      <g transform="translate(212.761567 41.242994) scale(0.2 -0.2)">
       <use xlink:href="#CMR17-31" transform="scale(0.996264)"/>
      </g>
     </g>
    </g>
    <g id="text_6">
     <!-- $y$ -->
     <g transform="translate(183.751245 16.140682) scale(0.2 -0.2)">
      <defs>
       <path id="CMMI12-79" d="M 1683 -700 
C 1510 -939 1261 -1152 947 -1152 
C 870 -1152 563 -1152 467 -889 
C 486 -895 518 -895 531 -895 
C 723 -895 851 -729 851 -582 
C 851 -435 730 -384 634 -384 
C 531 -384 307 -458 307 -759 
C 307 -1071 582 -1286 947 -1286 
C 1587 -1286 2234 -700 2413 6 
L 3040 2485 
C 3046 2517 3059 2556 3059 2594 
C 3059 2689 2982 2753 2886 2753 
C 2829 2753 2694 2727 2643 2535 
L 2170 658 
C 2138 543 2138 530 2086 460 
C 1958 281 1747 64 1440 64 
C 1082 64 1050 415 1050 588 
C 1050 952 1222 1443 1395 1903 
C 1466 2088 1504 2178 1504 2305 
C 1504 2574 1312 2816 998 2816 
C 410 2816 173 1890 173 1839 
C 173 1814 198 1782 243 1782 
C 301 1782 307 1807 333 1897 
C 486 2433 730 2689 979 2689 
C 1037 2689 1146 2689 1146 2478 
C 1146 2312 1075 2127 979 1884 
C 666 1047 666 837 666 683 
C 666 77 1101 -64 1421 -64 
C 1606 -64 1837 -6 2061 230 
L 2067 224 
C 1971 -147 1907 -392 1683 -700 
z
" transform="scale(0.015625)"/>
      </defs>
      <use xlink:href="#CMMI12-79" transform="scale(0.996264)"/>
     </g>
    </g>
   </g>
   <g id="line2d_9">
    <defs>
     <path id="mbf32bab5bd" d="M 3 0 
L -3 -3 
L -3 3 
z
" style="stroke: #000000; stroke-linejoin: miter"/>
    </defs>
    <g>
     <use xlink:href="#mbf32bab5bd" x="447" y="177.408158" style="stroke: #000000; stroke-linejoin: miter"/>
    </g>
   </g>
   <g id="line2d_10">
    <defs>
     <path id="mc603d62772" d="M 0 -3 
L -3 3 
L 3 3 
z
" style="stroke: #000000; stroke-linejoin: miter"/>
    </defs>
    <g>
     <use xlink:href="#mc603d62772" x="228.899663" y="20.016315" style="stroke: #000000; stroke-linejoin: miter"/>
    </g>
   </g>
   <g id="line2d_11">
    <path d="M 371.983324 177.408158 
L 371.886179 166.872 
L 371.594875 156.39305 
L 371.109808 146.028206 
L 370.431636 135.833744 
L 369.561281 125.865019 
L 368.499924 116.176156 
L 367.249006 106.819764 
L 365.810226 97.846644 
L 364.185538 89.305518 
L 362.691202 82.551442 
L 361.0707 76.155083 
L 359.32556 70.140564 
L 357.457428 64.530565 
L 355.468065 59.346242 
L 353.790545 55.518465 
L 352.037648 51.984905 
L 350.210433 48.754091 
L 348.310002 45.833823 
L 346.337501 43.231149 
L 344.294122 40.952351 
L 342.181098 39.002929 
L 340.551391 37.759878 
L 338.883778 36.706452 
L 337.178826 35.844083 
L 335.437113 35.17394 
L 333.65923 34.696935 
L 331.845782 34.413715 
L 329.997384 34.324664 
L 328.114663 34.429904 
L 326.198259 34.729291 
L 324.248822 35.22242 
L 322.267014 35.908619 
L 319.575412 37.122237 
L 316.829085 38.674477 
L 314.029688 40.561592 
L 311.178912 42.779027 
L 308.278477 45.32143 
L 305.330134 48.182663 
L 302.335662 51.355821 
L 298.530458 55.749174 
L 294.659593 60.601318 
L 290.726716 65.893957 
L 286.735535 71.607131 
L 281.874461 78.987603 
L 276.941453 86.902467 
L 271.94321 95.308749 
L 266.038536 105.676143 
L 259.206933 118.168974 
L 251.434764 132.900448 
L 241.844365 151.624918 
L 226.922406 181.362293 
L 212.021984 210.927861 
L 203.33256 227.719414 
L 195.593587 242.190538 
L 188.799187 254.395011 
L 182.932933 264.46839 
L 177.971925 272.593393 
L 173.08007 280.20157 
L 168.264012 287.251612 
L 164.313252 292.672581 
L 160.423397 297.658872 
L 156.598115 302.191681 
L 152.841015 306.253915 
L 149.886807 309.154533 
L 146.980288 311.737141 
L 144.123209 313.995506 
L 141.317297 315.924177 
L 138.564245 317.518497 
L 135.865713 318.77462 
L 133.878575 319.492915 
L 131.923697 320.018275 
L 130.001741 320.349988 
L 128.113362 320.487603 
L 126.259199 320.430932 
L 124.439883 320.180054 
L 122.656031 319.735309 
L 120.908248 319.0973 
L 119.197128 318.266894 
L 117.523252 317.245219 
L 115.887189 316.033661 
L 114.289493 314.633867 
L 112.21985 312.477983 
L 110.220629 309.996067 
L 108.293035 307.194111 
L 106.438232 304.078878 
L 104.657339 300.657888 
L 102.951432 296.939397 
L 101.32154 292.932382 
L 99.392565 287.532675 
L 97.585715 281.717674 
L 95.902696 275.509307 
L 94.345093 268.930989 
L 92.914376 262.007525 
L 91.366897 253.280625 
L 90.00617 244.141762 
L 88.834044 234.640556 
L 87.852111 224.828597 
L 87.061703 214.75916 
L 86.463895 204.486919 
L 86.059497 194.067648 
L 85.84906 183.557923 
L 85.832868 173.014805 
L 86.010944 162.495543 
L 86.383046 152.057251 
L 86.948668 141.756606 
L 87.707043 131.649538 
L 88.657141 121.790925 
L 89.797672 112.234296 
L 91.127087 103.03154 
L 92.64358 94.232625 
L 94.048754 87.243225 
L 95.581093 80.59385 
L 97.239153 74.309574 
L 99.021369 68.414097 
L 100.92606 62.92965 
L 102.951432 57.876918 
L 104.657339 54.158427 
L 106.438232 50.737437 
L 108.293035 47.622204 
L 110.220629 44.820248 
L 112.21985 42.338332 
L 114.289493 40.182449 
L 116.428308 38.3578 
L 118.077037 37.209366 
L 119.763392 36.251306 
L 121.486798 35.48492 
L 123.24667 34.911249 
L 125.042411 34.531072 
L 126.873412 34.344905 
L 128.739051 34.353001 
L 130.638694 34.555349 
L 132.571697 34.951674 
L 134.537403 35.541438 
L 136.535145 36.32384 
L 139.247461 37.664828 
L 142.013885 39.343129 
L 144.832749 41.354691 
L 147.70235 43.694659 
L 150.620958 46.357384 
L 153.586809 49.336439 
L 157.357832 53.494072 
L 161.196319 58.119001 
L 165.09865 63.193785 
L 169.061146 68.699287 
L 173.890294 75.845094 
L 178.794138 83.542357 
L 183.766019 91.74928 
L 189.643528 101.908588 
L 195.593587 112.625777 
L 202.468382 125.455359 
L 211.149634 142.18232 
L 222.530406 164.682271 
L 247.95695 215.183152 
L 256.62533 231.808495 
L 263.486309 244.530133 
L 269.421744 255.134311 
L 275.282287 265.164155 
L 280.237789 273.247737 
L 285.123579 280.81094 
L 289.933024 287.812699 
L 293.877861 293.191094 
L 297.761422 298.132855 
L 301.580047 302.619347 
L 305.330134 306.633652 
L 308.278477 309.494885 
L 311.178912 312.037288 
L 314.029688 314.254723 
L 316.829085 316.141838 
L 319.575412 317.694078 
L 322.267014 318.907696 
L 324.248822 319.593896 
L 326.198259 320.087024 
L 328.114663 320.386411 
L 329.997384 320.491651 
L 331.845782 320.4026 
L 333.65923 320.11938 
L 335.437113 319.642375 
L 337.178826 318.972233 
L 338.883778 318.109863 
L 340.551391 317.056437 
L 342.181098 315.813386 
L 343.772347 314.382396 
L 345.833254 312.185458 
L 347.823587 309.663194 
L 349.742145 306.821693 
L 351.58777 303.667813 
L 353.359347 300.209169 
L 355.055807 296.454107 
L 356.676128 292.411692 
L 358.59297 286.969513 
L 360.387511 281.114164 
L 362.058059 274.867725 
L 363.603037 268.253753 
L 365.020989 261.29719 
L 366.552983 252.534117 
L 367.89806 243.363135 
L 369.054393 233.834037 
L 370.020414 223.998566 
L 370.794809 213.910123 
L 371.376527 203.623486 
L 371.764778 193.194508 
L 371.959036 182.679816 
L 371.983324 177.408158 
L 371.983324 177.408158 
" clip-path="url(#paec47c560a)" style="fill: none; stroke: #800080; stroke-width: 2.5; stroke-linecap: square"/>
   </g>
   <g id="patch_3">
    <path d="M 228.899663 334.8 
L 228.899663 20.016315 
" style="fill: none; stroke: #000000; stroke-width: 0.8; stroke-linejoin: miter; stroke-linecap: square"/>
   </g>
   <g id="patch_4">
    <path d="M 447 334.8 
L 447 20.016315 
" style="fill: none"/>
   </g>
   <g id="patch_5">
    <path d="M 10.8 177.408158 
L 447 177.408158 
" style="fill: none; stroke: #000000; stroke-width: 0.8; stroke-linejoin: miter; stroke-linecap: square"/>
   </g>
   <g id="patch_6">
    <path d="M 10.8 20.016315 
L 447 20.016315 
" style="fill: none"/>
   </g>
  </g>
 </g>
 <defs>
  <clipPath id="paec47c560a">
   <rect x="10.8" y="20.016315" width="436.2" height="314.783685"/>
  </clipPath>
 </defs>
</svg>
