<?xml version="1.0" encoding="utf-8" standalone="no"?>
<!DOCTYPE svg PUBLIC "-//W3C//DTD SVG 1.1//EN"
  "http://www.w3.org/Graphics/SVG/1.1/DTD/svg11.dtd">
<svg xmlns:xlink="http://www.w3.org/1999/xlink" width="432pt" height="432pt" viewBox="0 0 432 432" xmlns="http://www.w3.org/2000/svg" version="1.1">
 <metadata>
  <rdf:RDF xmlns:dc="http://purl.org/dc/elements/1.1/" xmlns:cc="http://creativecommons.org/ns#" xmlns:rdf="http://www.w3.org/1999/02/22-rdf-syntax-ns#">
   <cc:Work>
    <dc:type rdf:resource="http://purl.org/dc/dcmitype/StillImage"/>
    <dc:date>2026-05-20T15:55:38.213714</dc:date>
    <dc:format>image/svg+xml</dc:format>
    <dc:creator>
     <cc:Agent>
      <dc:title>Matplotlib v3.10.8, https://matplotlib.org/</dc:title>
     </cc:Agent>
    </dc:creator>
   </cc:Work>
  </rdf:RDF>
 </metadata>
 <defs>
  <style type="text/css">*{stroke-linejoin: round; stroke-linecap: butt}</style>
 </defs>
 <g id="figure_1">
  <g id="patch_1">
   <path d="M 0 432 
L 432 432 
L 432 0 
L 0 0 
L 0 432 
z
" style="fill: none"/>
  </g>
  <g id="axes_1">
   <g id="patch_2">
    <path d="M 216 403.756789 
C 265.793682 403.756789 313.554648 383.973549 348.764098 348.764098 
C 383.973549 313.554648 403.756789 265.793682 403.756789 216 
C 403.756789 166.206318 383.973549 118.445352 348.764098 83.235902 
C 313.554648 48.026451 265.793682 28.243211 216 28.243211 
C 166.206318 28.243211 118.445352 48.026451 83.235902 83.235902 
C 48.026451 118.445352 28.243211 166.206318 28.243211 216 
C 28.243211 265.793682 48.026451 313.554648 83.235902 348.764098 
C 118.445352 383.973549 166.206318 403.756789 216 403.756789 
L 216 403.756789 
z
" clip-path="url(#pb6675b0e4a)" style="fill: none; stroke: #0072b2; stroke-width: 2.5; stroke-linejoin: miter"/>
   </g>
   <g id="line2d_1">
    <path d="M 403.756789 216 
L 174.220184 32.950666 
" clip-path="url(#pb6675b0e4a)" style="fill: none; stroke: #000000; stroke-width: 2.5; stroke-linecap: square"/>
   </g>
   <g id="line2d_2">
    <path d="M 174.220184 32.950666 
L 46.836979 297.464618 
" clip-path="url(#pb6675b0e4a)" style="fill: none; stroke: #000000; stroke-width: 2.5; stroke-linecap: square"/>
   </g>
   <g id="line2d_3">
    <path d="M 46.836979 297.464618 
L 333.064443 362.794168 
" clip-path="url(#pb6675b0e4a)" style="fill: none; stroke: #000000; stroke-width: 2.5; stroke-linecap: square"/>
   </g>
   <g id="line2d_4">
    <path d="M 333.064443 362.794168 
L 333.064443 69.205832 
" clip-path="url(#pb6675b0e4a)" style="fill: none; stroke: #000000; stroke-width: 2.5; stroke-linecap: square"/>
   </g>
   <g id="line2d_5">
    <path d="M 333.064443 69.205832 
L 46.836979 134.535382 
" clip-path="url(#pb6675b0e4a)" style="fill: none; stroke: #000000; stroke-width: 2.5; stroke-linecap: square"/>
   </g>
   <g id="line2d_6">
    <path d="M 46.836979 134.535382 
L 174.220184 399.049334 
" clip-path="url(#pb6675b0e4a)" style="fill: none; stroke: #000000; stroke-width: 2.5; stroke-linecap: square"/>
   </g>
   <g id="line2d_7">
    <path d="M 174.220184 399.049334 
L 403.756789 216 
" clip-path="url(#pb6675b0e4a)" style="fill: none; stroke: #000000; stroke-width: 2.5; stroke-linecap: square"/>
   </g>
   <g id="line2d_8">
    <path d="M 403.756789 216 
L 174.220184 32.950666 
" clip-path="url(#pb6675b0e4a)" style="fill: none; stroke: #000000; stroke-width: 2.5; stroke-linecap: square"/>
   </g>
  </g>
 </g>
 <defs>
  <clipPath id="pb6675b0e4a">
   <rect x="10.8" y="10.8" width="410.4" height="410.4"/>
  </clipPath>
 </defs>
</svg>
