<?xml version="1.0" encoding="utf-8" standalone="no"?>
<!DOCTYPE svg PUBLIC "-//W3C//DTD SVG 1.1//EN"
  "http://www.w3.org/Graphics/SVG/1.1/DTD/svg11.dtd">
<svg xmlns:xlink="http://www.w3.org/1999/xlink" width="460.8pt" height="345.6pt" viewBox="0 0 460.8 345.6" xmlns="http://www.w3.org/2000/svg" version="1.1">
 <metadata>
  <rdf:RDF xmlns:dc="http://purl.org/dc/elements/1.1/" xmlns:cc="http://creativecommons.org/ns#" xmlns:rdf="http://www.w3.org/1999/02/22-rdf-syntax-ns#">
   <cc:Work>
    <dc:type rdf:resource="http://purl.org/dc/dcmitype/StillImage"/>
    <dc:date>2025-12-06T22:02:08.797893</dc:date>
    <dc:format>image/svg+xml</dc:format>
    <dc:creator>
     <cc:Agent>
      <dc:title>Matplotlib v3.9.1, https://matplotlib.org/</dc:title>
     </cc:Agent>
    </dc:creator>
   </cc:Work>
  </rdf:RDF>
 </metadata>
 <defs>
  <style type="text/css">*{stroke-linejoin: round; stroke-linecap: butt}</style>
 </defs>
 <g id="figure_1">
  <g id="patch_1">
   <path d="M 0 345.6 
L 460.8 345.6 
L 460.8 0 
L 0 0 
L 0 345.6 
z
" style="fill: none"/>
  </g>
  <g id="axes_1">
   <g id="patch_2">
    <path d="M 10.8 334.8 
L 447 334.8 
L 447 22.673214 
L 10.8 22.673214 
L 10.8 334.8 
z
" style="fill: none"/>
   </g>
   <g id="matplotlib.axis_1">
    <g id="text_1">
     <!-- $x$ -->
     <g transform="translate(432.587145 200.724709) scale(0.26 -0.26)">
      <defs>
       <path id="CMMI12-78" d="M 3034 2606 
C 2829 2567 2752 2414 2752 2293 
C 2752 2139 2874 2088 2963 2088 
C 3155 2088 3290 2254 3290 2427 
C 3290 2695 2982 2816 2714 2816 
C 2323 2816 2106 2433 2048 2312 
C 1901 2816 1504 2816 1389 2816 
C 736 2816 390 1980 390 1839 
C 390 1814 416 1782 461 1782 
C 512 1782 525 1820 538 1846 
C 755 2555 1184 2689 1370 2689 
C 1658 2689 1715 2420 1715 2267 
C 1715 2127 1677 1980 1600 1673 
L 1382 798 
C 1286 415 1101 64 762 64 
C 730 64 570 64 435 147 
C 666 192 717 383 717 460 
C 717 588 621 664 499 664 
C 346 664 179 530 179 326 
C 179 57 480 -64 755 -64 
C 1062 -64 1280 179 1414 441 
C 1517 64 1837 -64 2074 -64 
C 2726 -64 3072 773 3072 913 
C 3072 945 3046 971 3008 971 
C 2950 971 2944 939 2925 888 
C 2752 326 2381 64 2093 64 
C 1869 64 1747 230 1747 492 
C 1747 632 1773 734 1875 1156 
L 2099 2024 
C 2195 2408 2413 2689 2707 2689 
C 2720 2689 2899 2689 3034 2606 
z
" transform="scale(0.015625)"/>
      </defs>
      <use xlink:href="#CMMI12-78" transform="scale(0.996264)"/>
     </g>
    </g>
   </g>
   <g id="matplotlib.axis_2">
    <g id="text_2">
     <!-- $y$ -->
     <g transform="translate(212.53332 17.634888) scale(0.26 -0.26)">
      <defs>
       <path id="CMMI12-79" d="M 1683 -700 
C 1510 -939 1261 -1152 947 -1152 
C 870 -1152 563 -1152 467 -889 
C 486 -895 518 -895 531 -895 
C 723 -895 851 -729 851 -582 
C 851 -435 730 -384 634 -384 
C 531 -384 307 -458 307 -759 
C 307 -1071 582 -1286 947 -1286 
C 1587 -1286 2234 -700 2413 6 
L 3040 2485 
C 3046 2517 3059 2556 3059 2594 
C 3059 2689 2982 2753 2886 2753 
C 2829 2753 2694 2727 2643 2535 
L 2170 658 
C 2138 543 2138 530 2086 460 
C 1958 281 1747 64 1440 64 
C 1082 64 1050 415 1050 588 
C 1050 952 1222 1443 1395 1903 
C 1466 2088 1504 2178 1504 2305 
C 1504 2574 1312 2816 998 2816 
C 410 2816 173 1890 173 1839 
C 173 1814 198 1782 243 1782 
C 301 1782 307 1807 333 1897 
C 486 2433 730 2689 979 2689 
C 1037 2689 1146 2689 1146 2478 
C 1146 2312 1075 2127 979 1884 
C 666 1047 666 837 666 683 
C 666 77 1101 -64 1421 -64 
C 1606 -64 1837 -6 2061 230 
L 2067 224 
C 1971 -147 1907 -392 1683 -700 
z
" transform="scale(0.015625)"/>
      </defs>
      <use xlink:href="#CMMI12-79" transform="scale(0.996264)"/>
     </g>
    </g>
   </g>
   <g id="line2d_1">
    <defs>
     <path id="m4a9cc99578" d="M 3 0 
L -3 -3 
L -3 3 
z
" style="stroke: #000000; stroke-linejoin: miter"/>
    </defs>
    <g>
     <use xlink:href="#m4a9cc99578" x="447" y="178.736607" style="stroke: #000000; stroke-linejoin: miter"/>
    </g>
   </g>
   <g id="line2d_2">
    <defs>
     <path id="m72f3e695c6" d="M 0 -3 
L -3 3 
L 3 3 
z
" style="stroke: #000000; stroke-linejoin: miter"/>
    </defs>
    <g>
     <use xlink:href="#m72f3e695c6" x="228.9" y="22.673214" style="stroke: #000000; stroke-linejoin: miter"/>
    </g>
   </g>
   <g id="line2d_3">
    <path d="M 10.8 178.728168 
L 34.767033 178.592077 
L 44.779927 178.322379 
L 51.597216 177.926577 
L 56.923223 177.404462 
L 61.39707 176.749897 
L 65.338315 175.950453 
L 68.85348 175.011288 
L 72.049084 173.929827 
L 75.031648 172.687477 
L 77.801172 171.300141 
L 80.464176 169.724892 
L 83.127179 167.885103 
L 85.683663 165.844573 
L 88.240147 163.511748 
L 90.79663 160.865387 
L 93.353114 157.887343 
L 95.909597 154.563812 
L 98.572601 150.725764 
L 101.342125 146.326416 
L 104.218168 141.32944 
L 107.307253 135.508406 
L 110.822418 128.387735 
L 115.189744 118.999875 
L 125.202637 97.272322 
L 128.185201 91.456404 
L 130.635165 87.159728 
L 132.765568 83.87359 
L 134.57641 81.469458 
L 136.280733 79.576338 
L 137.772015 78.242654 
L 139.156777 77.294571 
L 140.435018 76.682223 
L 141.60674 76.352851 
L 142.778462 76.253599 
L 143.950183 76.391376 
L 145.121905 76.771903 
L 146.293626 77.399615 
L 147.465348 78.277559 
L 148.74359 79.522521 
L 150.128352 81.209248 
L 151.619634 83.415217 
L 153.217436 86.217694 
L 154.921758 89.689696 
L 156.732601 93.894706 
L 158.756484 99.171921 
L 161.099927 105.948738 
L 163.869451 114.694545 
L 167.704176 127.626842 
L 173.882344 148.462721 
L 176.545348 156.631326 
L 178.782271 162.787892 
L 180.699634 167.418001 
L 182.403956 170.951694 
L 183.895238 173.546763 
L 185.28 175.510798 
L 186.451722 176.820726 
L 187.623443 177.796781 
L 188.688645 178.387682 
L 189.647326 178.674631 
L 190.606007 178.727931 
L 191.564689 178.547289 
L 192.52337 178.133717 
L 193.588571 177.403881 
L 194.653773 176.394492 
L 195.825495 174.969828 
L 197.103736 173.054168 
L 198.488498 170.575628 
L 200.0863 167.233432 
L 201.897143 162.887409 
L 204.027546 157.136034 
L 206.584029 149.55292 
L 211.164396 135.104488 
L 214.786081 124.010048 
L 217.129524 117.494063 
L 219.153407 112.51 
L 220.857729 108.88393 
L 222.349011 106.200151 
L 223.733773 104.154451 
L 225.012015 102.671631 
L 226.077216 101.74585 
L 227.142418 101.109593 
L 228.101099 100.78864 
L 229.05978 100.708261 
L 230.018462 100.868963 
L 230.977143 101.269732 
L 231.935824 101.908043 
L 233.001026 102.890936 
L 234.172747 104.295877 
L 235.450989 106.200151 
L 236.835751 108.676499 
L 238.433553 112.026341 
L 240.244396 116.389652 
L 242.374799 122.166028 
L 245.037802 130.103997 
L 254.944176 160.375981 
L 256.968059 165.511166 
L 258.778901 169.516707 
L 260.376703 172.518466 
L 261.761465 174.676294 
L 263.039707 176.278434 
L 264.211429 177.403881 
L 265.27663 178.133717 
L 266.235311 178.547289 
L 267.193993 178.727931 
L 268.152674 178.674631 
L 269.111355 178.387682 
L 270.070037 177.868664 
L 271.135238 177.023291 
L 272.30696 175.773361 
L 273.585201 174.039016 
L 274.969963 171.74219 
L 276.461245 168.810907 
L 278.165568 164.925961 
L 280.08293 159.948702 
L 282.213333 153.782168 
L 284.876337 145.352414 
L 288.817582 132.0234 
L 294.56967 112.617937 
L 297.445714 103.722282 
L 299.789158 97.160851 
L 301.91956 91.85202 
L 303.836923 87.676743 
L 305.541245 84.482444 
L 307.139048 81.951042 
L 308.63033 80.004152 
L 310.015092 78.560672 
L 311.293333 77.540562 
L 312.465055 76.867539 
L 313.636777 76.44236 
L 314.808498 76.260835 
L 315.98022 76.317472 
L 317.151941 76.605568 
L 318.323663 77.11732 
L 319.601905 77.920316 
L 320.986667 79.064111 
L 322.477949 80.594864 
L 324.075751 82.553023 
L 325.886593 85.132432 
L 327.910476 88.413639 
L 330.253919 92.654674 
L 333.023443 98.144499 
L 336.645128 105.84578 
L 349.001465 132.546103 
L 352.41011 139.174297 
L 355.499194 144.70825 
L 358.375238 149.416159 
L 361.144762 153.528035 
L 363.807766 157.089274 
L 366.364249 160.152595 
L 368.920733 162.880323 
L 371.477216 165.289641 
L 374.0337 167.401127 
L 376.696703 169.308512 
L 379.359707 170.944724 
L 382.129231 172.388455 
L 385.005275 173.641778 
L 388.094359 174.745851 
L 391.396484 175.690686 
L 395.018168 176.495891 
L 399.065934 177.167382 
L 403.752821 177.715324 
L 409.398388 178.142292 
L 416.535238 178.447756 
L 426.654652 178.639773 
L 444.869597 178.725547 
L 447 178.728168 
L 447 178.728168 
" clip-path="url(#p48d666897a)" style="fill: none; stroke: #0072b2; stroke-width: 3.5; stroke-linecap: square"/>
   </g>
   <g id="patch_3">
    <path d="M 228.9 334.8 
L 228.9 22.673214 
" style="fill: none; stroke: #000000; stroke-width: 0.8; stroke-linejoin: miter; stroke-linecap: square"/>
   </g>
   <g id="patch_4">
    <path d="M 447 334.8 
L 447 22.673214 
" style="fill: none"/>
   </g>
   <g id="patch_5">
    <path d="M 10.8 178.736607 
L 447 178.736607 
" style="fill: none; stroke: #000000; stroke-width: 0.8; stroke-linejoin: miter; stroke-linecap: square"/>
   </g>
   <g id="patch_6">
    <path d="M 10.8 22.673214 
L 447 22.673214 
" style="fill: none"/>
   </g>
   <g id="legend_1">
    <g id="patch_7">
     <path d="M 29 321.8 
L 131.468077 321.8 
Q 136.668077 321.8 136.668077 316.6 
L 136.668077 282.961673 
Q 136.668077 277.761673 131.468077 277.761673 
L 29 277.761673 
Q 23.8 277.761673 23.8 282.961673 
L 23.8 316.6 
Q 23.8 321.8 29 321.8 
z
" style="fill: #ffffff; opacity: 0.8; stroke: #cccccc; stroke-linejoin: miter"/>
    </g>
    <g id="line2d_4">
     <path d="M 34.2 297.261673 
L 60.2 297.261673 
L 86.2 297.261673 
" style="fill: none; stroke: #0072b2; stroke-width: 3.5; stroke-linecap: square"/>
    </g>
    <g id="text_3">
     <!-- $B$ -->
     <g transform="translate(107 306.361673) scale(0.26 -0.26)">
      <defs>
       <path id="CMMI12-42" d="M 2342 3921 
C 2400 4160 2426 4160 2675 4160 
L 3507 4160 
C 4230 4160 4230 3544 4230 3485 
C 4230 2966 3712 2304 2867 2304 
L 1946 2304 
L 2342 3921 
z
M 3424 2275 
C 4122 2402 4755 2886 4755 3473 
C 4755 3970 4314 4352 3590 4352 
L 1536 4352 
C 1414 4352 1357 4352 1357 4226 
C 1357 4160 1414 4160 1510 4160 
C 1901 4160 1901 4112 1901 4044 
C 1901 4032 1901 3993 1875 3897 
L 1011 472 
C 954 249 941 185 493 185 
C 371 185 307 185 307 70 
C 307 0 346 0 474 0 
L 2669 0 
C 3648 0 4403 739 4403 1383 
C 4403 1906 3942 2224 3424 2275 
z
M 2515 185 
L 1651 185 
C 1562 185 1549 185 1510 192 
C 1440 198 1434 211 1434 261 
C 1434 305 1446 343 1459 399 
L 1907 2176 
L 3110 2176 
C 3866 2176 3866 1483 3866 1433 
C 3866 828 3309 185 2515 185 
z
" transform="scale(0.015625)"/>
      </defs>
      <use xlink:href="#CMMI12-42" transform="scale(0.996264)"/>
     </g>
    </g>
   </g>
  </g>
 </g>
 <defs>
  <clipPath id="p48d666897a">
   <rect x="10.8" y="22.673214" width="436.2" height="312.126786"/>
  </clipPath>
 </defs>
</svg>
