<?xml version="1.0" encoding="utf-8" standalone="no"?>
<!DOCTYPE svg PUBLIC "-//W3C//DTD SVG 1.1//EN"
  "http://www.w3.org/Graphics/SVG/1.1/DTD/svg11.dtd">
<svg xmlns:xlink="http://www.w3.org/1999/xlink" width="460.8pt" height="345.6pt" viewBox="0 0 460.8 345.6" xmlns="http://www.w3.org/2000/svg" version="1.1">
 <metadata>
  <rdf:RDF xmlns:dc="http://purl.org/dc/elements/1.1/" xmlns:cc="http://creativecommons.org/ns#" xmlns:rdf="http://www.w3.org/1999/02/22-rdf-syntax-ns#">
   <cc:Work>
    <dc:type rdf:resource="http://purl.org/dc/dcmitype/StillImage"/>
    <dc:date>2025-11-24T21:15:04.650195</dc:date>
    <dc:format>image/svg+xml</dc:format>
    <dc:creator>
     <cc:Agent>
      <dc:title>Matplotlib v3.9.1, https://matplotlib.org/</dc:title>
     </cc:Agent>
    </dc:creator>
   </cc:Work>
  </rdf:RDF>
 </metadata>
 <defs>
  <style type="text/css">*{stroke-linejoin: round; stroke-linecap: butt}</style>
 </defs>
 <g id="figure_1">
  <g id="patch_1">
   <path d="M 0 345.6 
L 460.8 345.6 
L 460.8 0 
L 0 0 
L 0 345.6 
z
" style="fill: none"/>
  </g>
  <g id="axes_1">
   <g id="patch_2">
    <path d="M 10.8 334.8 
L 447 334.8 
L 447 20.016315 
L 10.8 20.016315 
L 10.8 334.8 
z
" style="fill: none"/>
   </g>
   <g id="matplotlib.axis_1">
    <g id="text_1">
     <!-- $x$ -->
     <g transform="translate(435.913188 195.245154) scale(0.2 -0.2)">
      <defs>
       <path id="CMMI12-78" d="M 3034 2606 
C 2829 2567 2752 2414 2752 2293 
C 2752 2139 2874 2088 2963 2088 
C 3155 2088 3290 2254 3290 2427 
C 3290 2695 2982 2816 2714 2816 
C 2323 2816 2106 2433 2048 2312 
C 1901 2816 1504 2816 1389 2816 
C 736 2816 390 1980 390 1839 
C 390 1814 416 1782 461 1782 
C 512 1782 525 1820 538 1846 
C 755 2555 1184 2689 1370 2689 
C 1658 2689 1715 2420 1715 2267 
C 1715 2127 1677 1980 1600 1673 
L 1382 798 
C 1286 415 1101 64 762 64 
C 730 64 570 64 435 147 
C 666 192 717 383 717 460 
C 717 588 621 664 499 664 
C 346 664 179 530 179 326 
C 179 57 480 -64 755 -64 
C 1062 -64 1280 179 1414 441 
C 1517 64 1837 -64 2074 -64 
C 2726 -64 3072 773 3072 913 
C 3072 945 3046 971 3008 971 
C 2950 971 2944 939 2925 888 
C 2752 326 2381 64 2093 64 
C 1869 64 1747 230 1747 492 
C 1747 632 1773 734 1875 1156 
L 2099 2024 
C 2195 2408 2413 2689 2707 2689 
C 2720 2689 2899 2689 3034 2606 
z
" transform="scale(0.015625)"/>
      </defs>
      <use xlink:href="#CMMI12-78" transform="scale(0.996264)"/>
     </g>
    </g>
   </g>
   <g id="matplotlib.axis_2">
    <g id="text_2">
     <!-- $y$ -->
     <g transform="translate(215.387165 16.140682) scale(0.2 -0.2)">
      <defs>
       <path id="CMMI12-79" d="M 1683 -700 
C 1510 -939 1261 -1152 947 -1152 
C 870 -1152 563 -1152 467 -889 
C 486 -895 518 -895 531 -895 
C 723 -895 851 -729 851 -582 
C 851 -435 730 -384 634 -384 
C 531 -384 307 -458 307 -759 
C 307 -1071 582 -1286 947 -1286 
C 1587 -1286 2234 -700 2413 6 
L 3040 2485 
C 3046 2517 3059 2556 3059 2594 
C 3059 2689 2982 2753 2886 2753 
C 2829 2753 2694 2727 2643 2535 
L 2170 658 
C 2138 543 2138 530 2086 460 
C 1958 281 1747 64 1440 64 
C 1082 64 1050 415 1050 588 
C 1050 952 1222 1443 1395 1903 
C 1466 2088 1504 2178 1504 2305 
C 1504 2574 1312 2816 998 2816 
C 410 2816 173 1890 173 1839 
C 173 1814 198 1782 243 1782 
C 301 1782 307 1807 333 1897 
C 486 2433 730 2689 979 2689 
C 1037 2689 1146 2689 1146 2478 
C 1146 2312 1075 2127 979 1884 
C 666 1047 666 837 666 683 
C 666 77 1101 -64 1421 -64 
C 1606 -64 1837 -6 2061 230 
L 2067 224 
C 1971 -147 1907 -392 1683 -700 
z
" transform="scale(0.015625)"/>
      </defs>
      <use xlink:href="#CMMI12-79" transform="scale(0.996264)"/>
     </g>
    </g>
   </g>
   <g id="line2d_1">
    <defs>
     <path id="m683db7c80d" d="M 3 0 
L -3 -3 
L -3 3 
z
" style="stroke: #000000; stroke-linejoin: miter"/>
    </defs>
    <g>
     <use xlink:href="#m683db7c80d" x="447" y="177.408158" style="stroke: #000000; stroke-linejoin: miter"/>
    </g>
   </g>
   <g id="line2d_2">
    <defs>
     <path id="m43abec795b" d="M 0 -3 
L -3 3 
L 3 3 
z
" style="stroke: #000000; stroke-linejoin: miter"/>
    </defs>
    <g>
     <use xlink:href="#m43abec795b" x="228.9" y="20.016315" style="stroke: #000000; stroke-linejoin: miter"/>
    </g>
   </g>
   <g id="line2d_3">
    <path d="M 172.229471 -1 
L 174.201905 28.062094 
L 176.119267 53.211905 
L 178.03663 75.580071 
L 179.953993 95.416434 
L 181.871355 112.950943 
L 183.788718 128.395119 
L 185.59956 141.237368 
L 187.410403 152.539519 
L 189.221245 162.440742 
L 190.925568 170.594852 
L 192.62989 177.720558 
L 194.334212 183.909291 
L 196.038535 189.245608 
L 197.636337 193.54382 
L 199.234139 197.221198 
L 200.831941 200.333048 
L 202.323223 202.772498 
L 203.814505 204.802731 
L 205.305788 206.459779 
L 206.79707 207.777156 
L 208.288352 208.78601 
L 209.779634 209.515273 
L 211.270916 209.991798 
L 212.762198 210.240489 
L 214.36 210.280303 
L 216.064322 210.093161 
L 217.875165 209.666512 
L 219.899048 208.950239 
L 222.135971 207.911002 
L 224.692454 206.464626 
L 227.675018 204.508392 
L 231.403223 201.778355 
L 236.835751 197.490267 
L 247.913846 188.70174 
L 253.026813 184.964967 
L 257.607179 181.88931 
L 261.974505 179.225562 
L 266.128791 176.947194 
L 270.283077 174.920251 
L 274.437363 173.140705 
L 278.591648 171.599905 
L 282.852454 170.255067 
L 287.21978 169.108139 
L 291.800147 168.137388 
L 296.593553 167.352476 
L 301.6 166.757823 
L 307.032527 166.340351 
L 312.891136 166.117281 
L 319.388864 166.098204 
L 326.738755 166.306246 
L 335.366886 166.78135 
L 346.338462 167.622282 
L 363.807766 169.217059 
L 391.289963 171.70062 
L 408.546227 173.021178 
L 425.26989 174.076312 
L 442.632674 174.946492 
L 447 175.132368 
L 447 175.132368 
" clip-path="url(#p8a5ee2f006)" style="fill: none; stroke: #0072b2; stroke-width: 2.5; stroke-linecap: square"/>
   </g>
   <g id="line2d_4">
    <defs>
     <path id="mdbfede8176" d="M 0 5 
C 1.326016 5 2.597899 4.473168 3.535534 3.535534 
C 4.473168 2.597899 5 1.326016 5 0 
C 5 -1.326016 4.473168 -2.597899 3.535534 -3.535534 
C 2.597899 -4.473168 1.326016 -5 0 -5 
C -1.326016 -5 -2.597899 -4.473168 -3.535534 -3.535534 
C -4.473168 -2.597899 -5 -1.326016 -5 0 
C -5 1.326016 -4.473168 2.597899 -3.535534 3.535534 
C -2.597899 4.473168 -1.326016 5 0 5 
z
" style="stroke: #000000; stroke-opacity: 0.8"/>
    </defs>
    <g clip-path="url(#p8a5ee2f006)">
     <use xlink:href="#mdbfede8176" x="364.560047" y="169.288082" style="fill-opacity: 0.8; stroke: #000000; stroke-opacity: 0.8"/>
    </g>
   </g>
   <g id="line2d_5">
    <g clip-path="url(#p8a5ee2f006)">
     <use xlink:href="#mdbfede8176" x="238.639953" y="196.03354" style="fill-opacity: 0.8; stroke: #000000; stroke-opacity: 0.8"/>
    </g>
   </g>
   <g id="patch_3">
    <path d="M 228.9 334.8 
L 228.9 20.016315 
" style="fill: none; stroke: #000000; stroke-width: 0.8; stroke-linejoin: miter; stroke-linecap: square"/>
   </g>
   <g id="patch_4">
    <path d="M 447 334.8 
L 447 20.016315 
" style="fill: none"/>
   </g>
   <g id="patch_5">
    <path d="M 10.8 177.408158 
L 447 177.408158 
" style="fill: none; stroke: #000000; stroke-width: 0.8; stroke-linejoin: miter; stroke-linecap: square"/>
   </g>
   <g id="patch_6">
    <path d="M 10.8 20.016315 
L 447 20.016315 
" style="fill: none"/>
   </g>
   <g id="legend_1">
    <g id="patch_7">
     <path d="M 359.383352 63.891949 
L 433 63.891949 
Q 437 63.891949 437 59.891949 
L 437 34.016315 
Q 437 30.016315 433 30.016315 
L 359.383352 30.016315 
Q 355.383352 30.016315 355.383352 34.016315 
L 355.383352 59.891949 
Q 355.383352 63.891949 359.383352 63.891949 
z
" style="fill: #ffffff; opacity: 0.8; stroke: #cccccc; stroke-linejoin: miter"/>
    </g>
    <g id="line2d_6">
     <path d="M 363.383352 45.016315 
L 383.383352 45.016315 
L 403.383352 45.016315 
" style="fill: none; stroke: #0072b2; stroke-width: 2.5; stroke-linecap: square"/>
    </g>
    <g id="text_3">
     <!-- $f$ -->
     <g transform="translate(419.383352 52.016315) scale(0.2 -0.2)">
      <defs>
       <path id="CMMI12-66" d="M 2854 2566 
C 2982 2566 3034 2566 3034 2688 
C 3034 2752 2982 2752 2867 2752 
L 2349 2752 
C 2470 3429 2560 3897 2611 4107 
C 2650 4265 2784 4416 2950 4416 
C 3085 4416 3219 4358 3283 4298 
C 3034 4272 2957 4082 2957 3969 
C 2957 3837 3053 3759 3174 3759 
C 3302 3759 3494 3870 3494 4119 
C 3494 4393 3226 4544 2944 4544 
C 2669 4544 2400 4334 2272 4078 
C 2157 3848 2093 3611 1946 2752 
L 1517 2752 
C 1395 2752 1331 2752 1331 2637 
C 1331 2566 1370 2566 1498 2566 
L 1907 2566 
C 1792 1976 1530 542 1382 -137 
C 1274 -689 1178 -1152 858 -1152 
C 838 -1152 653 -1152 538 -1031 
C 864 -1005 864 -726 864 -720 
C 864 -593 768 -517 646 -517 
C 518 -517 326 -625 326 -867 
C 326 -1140 608 -1280 858 -1280 
C 1510 -1280 1779 -118 1850 199 
C 1965 688 2278 2376 2310 2566 
L 2854 2566 
z
" transform="scale(0.015625)"/>
      </defs>
      <use xlink:href="#CMMI12-66" transform="scale(0.996264)"/>
     </g>
    </g>
   </g>
  </g>
 </g>
 <defs>
  <clipPath id="p8a5ee2f006">
   <rect x="10.8" y="20.016315" width="436.2" height="314.783685"/>
  </clipPath>
 </defs>
</svg>
