<?xml version="1.0" encoding="utf-8" standalone="no"?>
<!DOCTYPE svg PUBLIC "-//W3C//DTD SVG 1.1//EN"
  "http://www.w3.org/Graphics/SVG/1.1/DTD/svg11.dtd">
<svg xmlns:xlink="http://www.w3.org/1999/xlink" width="460.8pt" height="345.6pt" viewBox="0 0 460.8 345.6" xmlns="http://www.w3.org/2000/svg" version="1.1">
 <metadata>
  <rdf:RDF xmlns:dc="http://purl.org/dc/elements/1.1/" xmlns:cc="http://creativecommons.org/ns#" xmlns:rdf="http://www.w3.org/1999/02/22-rdf-syntax-ns#">
   <cc:Work>
    <dc:type rdf:resource="http://purl.org/dc/dcmitype/StillImage"/>
    <dc:date>2026-05-20T13:40:54.391210</dc:date>
    <dc:format>image/svg+xml</dc:format>
    <dc:creator>
     <cc:Agent>
      <dc:title>Matplotlib v3.10.8, https://matplotlib.org/</dc:title>
     </cc:Agent>
    </dc:creator>
   </cc:Work>
  </rdf:RDF>
 </metadata>
 <defs>
  <style type="text/css">*{stroke-linejoin: round; stroke-linecap: butt}</style>
 </defs>
 <g id="figure_1">
  <g id="patch_1">
   <path d="M 0 345.6 
L 460.8 345.6 
L 460.8 0 
L 0 0 
L 0 345.6 
z
" style="fill: none"/>
  </g>
  <g id="axes_1">
   <g id="patch_2">
    <path d="M 10.8 334.8 
L 447 334.8 
L 447 20.016315 
L 10.8 20.016315 
L 10.8 334.8 
z
" style="fill: none"/>
   </g>
   <g id="patch_3">
    <path d="M 228.9 320.491651 
C 266.846186 320.491651 303.243303 305.415471 330.075308 278.583466 
C 356.907314 251.75146 371.983493 215.354344 371.983493 177.408158 
C 371.983493 139.461972 356.907314 103.064855 330.075308 76.232849 
C 303.243303 49.400844 266.846186 34.324664 228.9 34.324664 
C 190.953814 34.324664 154.556697 49.400844 127.724692 76.232849 
C 100.892686 103.064855 85.816507 139.461972 85.816507 177.408158 
C 85.816507 215.354344 100.892686 251.75146 127.724692 278.583466 
C 154.556697 305.415471 190.953814 320.491651 228.9 320.491651 
L 228.9 320.491651 
z
" clip-path="url(#p025b9c1a14)" style="fill: none; stroke: #0072b2; stroke-width: 2.5; stroke-linejoin: miter"/>
   </g>
   <g id="matplotlib.axis_1">
    <g id="text_1">
     <!-- $x$ -->
     <g transform="translate(435.913188 195.245154) scale(0.2 -0.2)">
      <defs>
       <path id="CMMI12-78" d="M 3034 2606 
C 2829 2567 2752 2414 2752 2293 
C 2752 2139 2874 2088 2963 2088 
C 3155 2088 3290 2254 3290 2427 
C 3290 2695 2982 2816 2714 2816 
C 2323 2816 2106 2433 2048 2312 
C 1901 2816 1504 2816 1389 2816 
C 736 2816 390 1980 390 1839 
C 390 1814 416 1782 461 1782 
C 512 1782 525 1820 538 1846 
C 755 2555 1184 2689 1370 2689 
C 1658 2689 1715 2420 1715 2267 
C 1715 2127 1677 1980 1600 1673 
L 1382 798 
C 1286 415 1101 64 762 64 
C 730 64 570 64 435 147 
C 666 192 717 383 717 460 
C 717 588 621 664 499 664 
C 346 664 179 530 179 326 
C 179 57 480 -64 755 -64 
C 1062 -64 1280 179 1414 441 
C 1517 64 1837 -64 2074 -64 
C 2726 -64 3072 773 3072 913 
C 3072 945 3046 971 3008 971 
C 2950 971 2944 939 2925 888 
C 2752 326 2381 64 2093 64 
C 1869 64 1747 230 1747 492 
C 1747 632 1773 734 1875 1156 
L 2099 2024 
C 2195 2408 2413 2689 2707 2689 
C 2720 2689 2899 2689 3034 2606 
z
" transform="scale(0.015625)"/>
      </defs>
      <use xlink:href="#CMMI12-78" transform="scale(0.996264)"/>
     </g>
    </g>
   </g>
   <g id="matplotlib.axis_2">
    <g id="text_2">
     <!-- $y$ -->
     <g transform="translate(215.387165 16.140682) scale(0.2 -0.2)">
      <defs>
       <path id="CMMI12-79" d="M 1683 -700 
C 1510 -939 1261 -1152 947 -1152 
C 870 -1152 563 -1152 467 -889 
C 486 -895 518 -895 531 -895 
C 723 -895 851 -729 851 -582 
C 851 -435 730 -384 634 -384 
C 531 -384 307 -458 307 -759 
C 307 -1071 582 -1286 947 -1286 
C 1587 -1286 2234 -700 2413 6 
L 3040 2485 
C 3046 2517 3059 2556 3059 2594 
C 3059 2689 2982 2753 2886 2753 
C 2829 2753 2694 2727 2643 2535 
L 2170 658 
C 2138 543 2138 530 2086 460 
C 1958 281 1747 64 1440 64 
C 1082 64 1050 415 1050 588 
C 1050 952 1222 1443 1395 1903 
C 1466 2088 1504 2178 1504 2305 
C 1504 2574 1312 2816 998 2816 
C 410 2816 173 1890 173 1839 
C 173 1814 198 1782 243 1782 
C 301 1782 307 1807 333 1897 
C 486 2433 730 2689 979 2689 
C 1037 2689 1146 2689 1146 2478 
C 1146 2312 1075 2127 979 1884 
C 666 1047 666 837 666 683 
C 666 77 1101 -64 1421 -64 
C 1606 -64 1837 -6 2061 230 
L 2067 224 
C 1971 -147 1907 -392 1683 -700 
z
" transform="scale(0.015625)"/>
      </defs>
      <use xlink:href="#CMMI12-79" transform="scale(0.996264)"/>
     </g>
    </g>
   </g>
   <g id="line2d_1">
    <defs>
     <path id="mdfe1f2e59f" d="M 3 0 
L -3 -3 
L -3 3 
z
" style="stroke: #000000; stroke-linejoin: miter"/>
    </defs>
    <g>
     <use xlink:href="#mdfe1f2e59f" x="447" y="177.408158" style="stroke: #000000; stroke-linejoin: miter"/>
    </g>
   </g>
   <g id="line2d_2">
    <defs>
     <path id="m4a09625735" d="M 0 -3 
L -3 3 
L 3 3 
z
" style="stroke: #000000; stroke-linejoin: miter"/>
    </defs>
    <g>
     <use xlink:href="#m4a09625735" x="228.9" y="20.016315" style="stroke: #000000; stroke-linejoin: miter"/>
    </g>
   </g>
   <g id="line2d_3">
    <path d="M 286.133397 177.408158 
L 286.02548 173.895137 
L 285.702135 170.395365 
L 285.164581 166.922039 
L 284.414846 163.488257 
L 283.455757 160.106969 
L 282.290931 156.790926 
L 280.924761 153.552634 
L 279.362398 150.404304 
L 277.609735 147.357809 
L 275.673381 144.424638 
L 273.560639 141.615852 
L 271.279475 138.942044 
L 268.838492 136.413297 
L 266.246896 134.039147 
L 263.51446 131.828547 
L 260.651488 129.789834 
L 257.668777 127.930696 
L 254.577575 126.258144 
L 251.38954 124.778486 
L 248.116694 123.497301 
L 244.771378 122.419421 
L 241.36621 121.548912 
L 237.91403 120.889054 
L 234.427857 120.442338 
L 230.920837 120.210448 
L 227.406197 120.194258 
L 223.89719 120.393829 
L 220.407049 120.808409 
L 216.948936 121.436434 
L 213.535893 122.275536 
L 210.180789 123.32255 
L 206.896278 124.573529 
L 203.694747 126.023754 
L 200.588267 127.667756 
L 197.588555 129.499336 
L 194.706922 131.511587 
L 191.954237 133.69692 
L 189.340878 136.047093 
L 186.876702 138.553245 
L 184.571002 141.205924 
L 182.432473 143.995126 
L 180.469178 146.910334 
L 178.688523 149.940553 
L 177.097222 153.074355 
L 175.701276 156.299924 
L 174.50595 159.605095 
L 173.515751 162.977403 
L 172.734413 166.404132 
L 172.164883 169.872358 
L 171.809309 173.369003 
L 171.669032 176.880881 
L 171.74458 180.394746 
L 172.035669 183.897349 
L 172.541201 187.37548 
L 173.259269 190.816023 
L 174.187167 194.206003 
L 175.321393 197.532636 
L 176.657672 200.783378 
L 178.190963 203.945968 
L 179.915485 207.00848 
L 181.824735 209.959366 
L 183.911511 212.787496 
L 186.167945 215.482207 
L 188.585527 218.033335 
L 191.155141 220.43126 
L 193.867095 222.666939 
L 196.711163 224.731942 
L 199.67662 226.61848 
L 200.283301 226.973734 
L 200.283301 226.973734 
" clip-path="url(#p025b9c1a14)" style="fill: none; stroke: #000000; stroke-width: 2.5; stroke-linecap: square"/>
   </g>
   <g id="line2d_4">
    <path d="M 228.9 177.408158 
L 157.358253 301.322097 
" clip-path="url(#p025b9c1a14)" style="fill: none; stroke: #dc5e8b; stroke-width: 2.5; stroke-linecap: square"/>
   </g>
   <g id="line2d_5">
    <path d="M 157.358253 301.322097 
L 228.9 301.322097 
" clip-path="url(#p025b9c1a14)" style="fill: none; stroke-dasharray: 9.25,4; stroke-dashoffset: 0; stroke: #dc5e8b; stroke-width: 2.5"/>
   </g>
   <g id="line2d_6">
    <path d="M 157.358253 301.322097 
L 171.666603 301.322097 
" clip-path="url(#p025b9c1a14)" style="fill: none; stroke: #808080; stroke-width: 2.5; stroke-linecap: square"/>
   </g>
   <g id="line2d_7">
    <path d="M 157.358253 301.322097 
L 157.358253 287.013748 
" clip-path="url(#p025b9c1a14)" style="fill: none; stroke: #808080; stroke-width: 2.5; stroke-linecap: square"/>
   </g>
   <g id="patch_4">
    <path d="M 228.9 334.8 
L 228.9 20.016315 
" style="fill: none; stroke: #000000; stroke-width: 0.8; stroke-linejoin: miter; stroke-linecap: square"/>
   </g>
   <g id="patch_5">
    <path d="M 447 334.8 
L 447 20.016315 
" style="fill: none"/>
   </g>
   <g id="patch_6">
    <path d="M 10.8 177.408158 
L 447 177.408158 
" style="fill: none; stroke: #000000; stroke-width: 0.8; stroke-linejoin: miter; stroke-linecap: square"/>
   </g>
   <g id="patch_7">
    <path d="M 10.8 20.016315 
L 447 20.016315 
" style="fill: none"/>
   </g>
  </g>
 </g>
 <defs>
  <clipPath id="p025b9c1a14">
   <rect x="10.8" y="20.016315" width="436.2" height="314.783685"/>
  </clipPath>
 </defs>
</svg>
