<?xml version="1.0" encoding="utf-8" standalone="no"?>
<!DOCTYPE svg PUBLIC "-//W3C//DTD SVG 1.1//EN"
  "http://www.w3.org/Graphics/SVG/1.1/DTD/svg11.dtd">
<svg xmlns:xlink="http://www.w3.org/1999/xlink" width="432pt" height="432pt" viewBox="0 0 432 432" xmlns="http://www.w3.org/2000/svg" version="1.1">
 <metadata>
  <rdf:RDF xmlns:dc="http://purl.org/dc/elements/1.1/" xmlns:cc="http://creativecommons.org/ns#" xmlns:rdf="http://www.w3.org/1999/02/22-rdf-syntax-ns#">
   <cc:Work>
    <dc:type rdf:resource="http://purl.org/dc/dcmitype/StillImage"/>
    <dc:date>2026-01-29T19:26:48.098526</dc:date>
    <dc:format>image/svg+xml</dc:format>
    <dc:creator>
     <cc:Agent>
      <dc:title>Matplotlib v3.9.1, https://matplotlib.org/</dc:title>
     </cc:Agent>
    </dc:creator>
   </cc:Work>
  </rdf:RDF>
 </metadata>
 <defs>
  <style type="text/css">*{stroke-linejoin: round; stroke-linecap: butt}</style>
 </defs>
 <g id="figure_1">
  <g id="patch_1">
   <path d="M 0 432 
L 432 432 
L 432 0 
L 0 0 
L 0 432 
z
" style="fill: none"/>
  </g>
  <g id="axes_1">
   <g id="patch_2">
    <path d="M 69.428571 318.6 
L 362.571429 318.6 
L 362.571429 113.4 
L 69.428571 113.4 
L 69.428571 318.6 
z
" clip-path="url(#p796bccc302)" style="fill: none; opacity: 0"/>
   </g>
   <g id="line2d_1">
    <path d="M 69.428571 318.6 
L 362.571429 318.6 
L 362.571429 113.4 
L 69.428571 113.4 
L 69.428571 318.6 
" clip-path="url(#p796bccc302)" style="fill: none; stroke: #000000; stroke-width: 1.5; stroke-linecap: square"/>
   </g>
   <g id="patch_3">
    <path d="M 360.571995 359.64 
Q 216.002066 359.64 71.432137 359.64 
" style="fill: none; stroke: #000000; stroke-linecap: round"/>
    <path d="M 360.571995 364.64 
L 360.571995 364.64 
L 360.571995 354.64 
L 360.571995 354.64 
" style="fill: none; stroke: #000000; stroke-linecap: round"/>
    <path d="M 71.432137 354.64 
L 71.432137 354.64 
L 71.432137 364.64 
L 71.432137 364.64 
" style="fill: none; stroke: #000000; stroke-linecap: round"/>
   </g>
   <g id="patch_4">
    <path d="M 40.114286 115.400775 
Q 40.114286 216.000452 40.114286 316.60013 
" style="fill: none; stroke: #000000; stroke-linecap: round"/>
    <path d="M 45.114286 115.400775 
L 45.114286 115.400775 
L 35.114286 115.400775 
L 35.114286 115.400775 
" style="fill: none; stroke: #000000; stroke-linecap: round"/>
    <path d="M 35.114286 316.60013 
L 35.114286 316.60013 
L 45.114286 316.60013 
L 45.114286 316.60013 
" style="fill: none; stroke: #000000; stroke-linecap: round"/>
   </g>
   <g id="text_1">
    <!-- 5 -->
    <g transform="translate(211.315639 379.632997) scale(0.2 -0.2)">
     <defs>
      <path id="CMSS17-35" d="M 934 3752 
L 2502 3752 
L 2502 4160 
L 467 4160 
L 467 1781 
L 896 1781 
C 1011 2046 1248 2240 1555 2240 
C 1843 2240 2163 1989 2163 1266 
C 2163 493 1709 267 1376 267 
C 966 267 589 512 422 851 
L 218 499 
C 512 49 992 -128 1376 -128 
C 2118 -128 2701 497 2701 1253 
C 2701 2030 2182 2629 1562 2629 
C 1338 2629 1120 2553 934 2399 
L 934 3752 
z
" transform="scale(0.015625)"/>
     </defs>
     <use xlink:href="#CMSS17-35" transform="scale(0.996264)"/>
    </g>
   </g>
   <g id="text_2">
    <!-- 2 -->
    <g transform="translate(24.589564 220.980682) scale(0.2 -0.2)">
     <defs>
      <path id="CMSS17-32" d="M 1651 1357 
C 1830 1541 2099 1764 2285 1987 
C 2464 2204 2701 2511 2701 2957 
C 2701 3657 2227 4288 1421 4288 
C 787 4288 422 3893 250 3274 
L 499 2929 
C 640 3510 838 3880 1338 3880 
C 1888 3880 2195 3433 2195 2942 
C 2195 2355 1747 1901 1408 1563 
C 1030 1187 659 804 301 408 
L 301 0 
L 2701 0 
L 2701 433 
L 1613 433 
C 1536 433 1459 433 1382 433 
L 742 433 
L 742 439 
L 1651 1357 
z
" transform="scale(0.015625)"/>
     </defs>
     <use xlink:href="#CMSS17-32" transform="scale(0.996264)"/>
    </g>
   </g>
  </g>
 </g>
 <defs>
  <clipPath id="p796bccc302">
   <rect x="10.8" y="10.8" width="410.4" height="410.4"/>
  </clipPath>
 </defs>
</svg>
