<?xml version="1.0" encoding="utf-8" standalone="no"?>
<!DOCTYPE svg PUBLIC "-//W3C//DTD SVG 1.1//EN"
  "http://www.w3.org/Graphics/SVG/1.1/DTD/svg11.dtd">
<svg xmlns:xlink="http://www.w3.org/1999/xlink" viewBox="0 0 460.8 345.6" xmlns="http://www.w3.org/2000/svg" version="1.1" class="graph-inline-svg" role="img" aria-label="Tilpasset figur">
 <metadata>
  <rdf:RDF xmlns:dc="http://purl.org/dc/elements/1.1/" xmlns:cc="http://creativecommons.org/ns#" xmlns:rdf="http://www.w3.org/1999/02/22-rdf-syntax-ns#">
   <cc:Work>
    <dc:type rdf:resource="http://purl.org/dc/dcmitype/StillImage"/>
    <dc:date>2026-03-27T23:10:38.196282</dc:date>
    <dc:format>image/svg+xml</dc:format>
    <dc:creator>
     <cc:Agent>
      <dc:title>Matplotlib v3.10.8, https://matplotlib.org/</dc:title>
     </cc:Agent>
    </dc:creator>
   </cc:Work>
  </rdf:RDF>
 </metadata>
 <defs>
  <style type="text/css">*{stroke-linejoin: round; stroke-linecap: butt}</style>
 </defs>
 <g id="g1f0009_1da893_figure_1">
  <g id="g1f0009_1da893_patch_1">
   <path d="M 0 345.6 
L 460.8 345.6 
L 460.8 0 
L 0 0 
L 0 345.6 
z
" style="fill: none"/>
  </g>
  <g id="g1f0009_1da893_axes_1">
   <g id="g1f0009_1da893_patch_2">
    <path d="M 10.8 334.8 
L 447 334.8 
L 447 20.016315 
L 10.8 20.016315 
L 10.8 334.8 
z
" style="fill: none"/>
   </g>
   <g id="g1f0009_1da893_matplotlib.axis_1">
    <g id="g1f0009_1da893_xtick_1">
     <g id="g1f0009_1da893_line2d_1">
      <path d="M 47.15 334.8 
L 47.15 20.016315 
" clip-path="url(#g1f0009_1da893_p1930286966)" style="fill: none; stroke-dasharray: 2.96,1.28; stroke-dashoffset: 0; stroke: #b0b0b0; stroke-opacity: 0.6; stroke-width: 0.8"/>
     </g>
     <g id="g1f0009_1da893_line2d_2">
      <defs>
       <path id="g1f0009_1da893_ma371c88903" d="M 0 0 
L 0 3.5 
" style="stroke: #000000; stroke-width: 0.8"/>
      </defs>
      <g>
       <use xlink:href="#g1f0009_1da893_ma371c88903" x="47.15" y="177.408158" style="stroke: #000000; stroke-width: 0.8"/>
      </g>
     </g>
     <g id="g1f0009_1da893_text_1">
      <!-- $\mathdefault{−5}$ -->
      <g transform="translate(34.832209 198.245154) scale(0.2 -0.2)">
       <defs>
        <path id="g1f0009_1da893_CMSY10-0" d="M 4218 1472 
C 4326 1472 4442 1472 4442 1600 
C 4442 1728 4326 1728 4218 1728 
L 755 1728 
C 646 1728 531 1728 531 1600 
C 531 1472 646 1472 755 1472 
L 4218 1472 
z
" transform="scale(0.015625)"/>
        <path id="g1f0009_1da893_CMR17-35" d="M 730 3692 
C 794 3666 1056 3584 1325 3584 
C 1920 3584 2246 3911 2432 4100 
C 2432 4157 2432 4192 2394 4192 
C 2387 4192 2374 4192 2323 4163 
C 2099 4058 1837 3973 1517 3973 
C 1325 3973 1037 3999 723 4139 
C 653 4171 640 4171 634 4171 
C 602 4171 595 4164 595 4037 
L 595 2203 
C 595 2089 595 2057 659 2057 
C 691 2057 704 2070 736 2114 
C 941 2401 1222 2522 1542 2522 
C 1766 2522 2246 2382 2246 1289 
C 2246 1085 2246 715 2054 421 
C 1894 159 1645 25 1370 25 
C 947 25 518 320 403 814 
C 429 807 480 795 506 795 
C 589 795 749 840 749 1038 
C 749 1210 627 1280 506 1280 
C 358 1280 262 1190 262 1011 
C 262 454 704 -128 1382 -128 
C 2042 -128 2669 440 2669 1264 
C 2669 2030 2170 2624 1549 2624 
C 1222 2624 947 2503 730 2274 
L 730 3692 
z
" transform="scale(0.015625)"/>
       </defs>
       <use xlink:href="#g1f0009_1da893_CMSY10-0" transform="scale(0.996264)"/>
       <use xlink:href="#g1f0009_1da893_CMR17-35" transform="translate(77.487468 0) scale(0.996264)"/>
      </g>
     </g>
    </g>
    <g id="g1f0009_1da893_xtick_2">
     <g id="g1f0009_1da893_line2d_3">
      <path d="M 83.5 334.8 
L 83.5 20.016315 
" clip-path="url(#g1f0009_1da893_p1930286966)" style="fill: none; stroke-dasharray: 2.96,1.28; stroke-dashoffset: 0; stroke: #b0b0b0; stroke-opacity: 0.6; stroke-width: 0.8"/>
     </g>
     <g id="g1f0009_1da893_line2d_4">
      <g>
       <use xlink:href="#g1f0009_1da893_ma371c88903" x="83.5" y="177.408158" style="stroke: #000000; stroke-width: 0.8"/>
      </g>
     </g>
     <g id="g1f0009_1da893_text_2">
      <!-- $\mathdefault{−4}$ -->
      <g transform="translate(71.182209 198.245154) scale(0.2 -0.2)">
       <defs>
        <path id="g1f0009_1da893_CMR17-34" d="M 2150 4122 
C 2150 4256 2144 4256 2029 4256 
L 128 1254 
L 128 1088 
L 1779 1088 
L 1779 457 
C 1779 224 1766 160 1318 160 
L 1197 160 
L 1197 0 
C 1402 0 1747 0 1965 0 
C 2182 0 2528 0 2733 0 
L 2733 160 
L 2611 160 
C 2163 160 2150 224 2150 457 
L 2150 1088 
L 2803 1088 
L 2803 1254 
L 2150 1254 
L 2150 4122 
z
M 1798 3703 
L 1798 1254 
L 256 1254 
L 1798 3703 
z
" transform="scale(0.015625)"/>
       </defs>
       <use xlink:href="#g1f0009_1da893_CMSY10-0" transform="scale(0.996264)"/>
       <use xlink:href="#g1f0009_1da893_CMR17-34" transform="translate(77.487468 0) scale(0.996264)"/>
      </g>
     </g>
    </g>
    <g id="g1f0009_1da893_xtick_3">
     <g id="g1f0009_1da893_line2d_5">
      <path d="M 119.85 334.8 
L 119.85 20.016315 
" clip-path="url(#g1f0009_1da893_p1930286966)" style="fill: none; stroke-dasharray: 2.96,1.28; stroke-dashoffset: 0; stroke: #b0b0b0; stroke-opacity: 0.6; stroke-width: 0.8"/>
     </g>
     <g id="g1f0009_1da893_line2d_6">
      <g>
       <use xlink:href="#g1f0009_1da893_ma371c88903" x="119.85" y="177.408158" style="stroke: #000000; stroke-width: 0.8"/>
      </g>
     </g>
     <g id="g1f0009_1da893_text_3">
      <!-- $\mathdefault{−3}$ -->
      <g transform="translate(107.532209 198.245154) scale(0.2 -0.2)">
       <defs>
        <path id="g1f0009_1da893_CMR17-33" d="M 1414 2157 
C 1984 2157 2234 1662 2234 1090 
C 2234 320 1824 25 1453 25 
C 1114 25 563 194 390 693 
C 422 680 454 680 486 680 
C 640 680 755 782 755 948 
C 755 1133 614 1216 486 1216 
C 378 1216 211 1165 211 926 
C 211 335 787 -128 1466 -128 
C 2176 -128 2720 430 2720 1085 
C 2720 1707 2208 2157 1600 2227 
C 2086 2328 2554 2756 2554 3329 
C 2554 3820 2048 4179 1472 4179 
C 890 4179 378 3829 378 3329 
C 378 3110 544 3072 627 3072 
C 762 3072 877 3155 877 3321 
C 877 3486 762 3569 627 3569 
C 602 3569 570 3569 544 3557 
C 730 3959 1235 4032 1459 4032 
C 1683 4032 2106 3925 2106 3320 
C 2106 3143 2080 2828 1862 2550 
C 1670 2304 1453 2304 1242 2284 
C 1210 2284 1062 2269 1037 2269 
C 992 2263 966 2257 966 2208 
C 966 2163 973 2157 1101 2157 
L 1414 2157 
z
" transform="scale(0.015625)"/>
       </defs>
       <use xlink:href="#g1f0009_1da893_CMSY10-0" transform="scale(0.996264)"/>
       <use xlink:href="#g1f0009_1da893_CMR17-33" transform="translate(77.487468 0) scale(0.996264)"/>
      </g>
     </g>
    </g>
    <g id="g1f0009_1da893_xtick_4">
     <g id="g1f0009_1da893_line2d_7">
      <path d="M 156.2 334.8 
L 156.2 20.016315 
" clip-path="url(#g1f0009_1da893_p1930286966)" style="fill: none; stroke-dasharray: 2.96,1.28; stroke-dashoffset: 0; stroke: #b0b0b0; stroke-opacity: 0.6; stroke-width: 0.8"/>
     </g>
     <g id="g1f0009_1da893_line2d_8">
      <g>
       <use xlink:href="#g1f0009_1da893_ma371c88903" x="156.2" y="177.408158" style="stroke: #000000; stroke-width: 0.8"/>
      </g>
     </g>
     <g id="g1f0009_1da893_text_4">
      <!-- $\mathdefault{−2}$ -->
      <g transform="translate(143.882209 198.245154) scale(0.2 -0.2)">
       <defs>
        <path id="g1f0009_1da893_CMR17-32" d="M 2669 989 
L 2554 989 
C 2490 536 2438 459 2413 420 
C 2381 369 1920 369 1830 369 
L 602 369 
C 832 619 1280 1072 1824 1597 
C 2214 1967 2669 2402 2669 3035 
C 2669 3790 2067 4224 1395 4224 
C 691 4224 262 3604 262 3030 
C 262 2780 448 2748 525 2748 
C 589 2748 781 2787 781 3010 
C 781 3207 614 3264 525 3264 
C 486 3264 448 3258 422 3245 
C 544 3790 915 4058 1306 4058 
C 1862 4058 2227 3617 2227 3035 
C 2227 2479 1901 2000 1536 1584 
L 262 146 
L 262 0 
L 2515 0 
L 2669 989 
z
" transform="scale(0.015625)"/>
       </defs>
       <use xlink:href="#g1f0009_1da893_CMSY10-0" transform="scale(0.996264)"/>
       <use xlink:href="#g1f0009_1da893_CMR17-32" transform="translate(77.487468 0) scale(0.996264)"/>
      </g>
     </g>
    </g>
    <g id="g1f0009_1da893_xtick_5">
     <g id="g1f0009_1da893_line2d_9">
      <path d="M 192.55 334.8 
L 192.55 20.016315 
" clip-path="url(#g1f0009_1da893_p1930286966)" style="fill: none; stroke-dasharray: 2.96,1.28; stroke-dashoffset: 0; stroke: #b0b0b0; stroke-opacity: 0.6; stroke-width: 0.8"/>
     </g>
     <g id="g1f0009_1da893_line2d_10">
      <g>
       <use xlink:href="#g1f0009_1da893_ma371c88903" x="192.55" y="177.408158" style="stroke: #000000; stroke-width: 0.8"/>
      </g>
     </g>
     <g id="g1f0009_1da893_text_5">
      <!-- $\mathdefault{−1}$ -->
      <g transform="translate(180.232209 198.245154) scale(0.2 -0.2)">
       <defs>
        <path id="g1f0009_1da893_CMR17-31" d="M 1702 4058 
C 1702 4192 1696 4192 1606 4192 
C 1357 3916 979 3827 621 3827 
C 602 3827 570 3827 563 3808 
C 557 3795 557 3782 557 3648 
C 755 3648 1088 3686 1344 3839 
L 1344 461 
C 1344 236 1331 160 781 160 
L 589 160 
L 589 0 
C 896 0 1216 0 1523 0 
C 1830 0 2150 0 2458 0 
L 2458 160 
L 2266 160 
C 1715 160 1702 230 1702 458 
L 1702 4058 
z
" transform="scale(0.015625)"/>
       </defs>
       <use xlink:href="#g1f0009_1da893_CMSY10-0" transform="scale(0.996264)"/>
       <use xlink:href="#g1f0009_1da893_CMR17-31" transform="translate(77.487468 0) scale(0.996264)"/>
      </g>
     </g>
    </g>
    <g id="g1f0009_1da893_xtick_6">
     <g id="g1f0009_1da893_line2d_11">
      <path d="M 265.25 334.8 
L 265.25 20.016315 
" clip-path="url(#g1f0009_1da893_p1930286966)" style="fill: none; stroke-dasharray: 2.96,1.28; stroke-dashoffset: 0; stroke: #b0b0b0; stroke-opacity: 0.6; stroke-width: 0.8"/>
     </g>
     <g id="g1f0009_1da893_line2d_12">
      <g>
       <use xlink:href="#g1f0009_1da893_ma371c88903" x="265.25" y="177.408158" style="stroke: #000000; stroke-width: 0.8"/>
      </g>
     </g>
     <g id="g1f0009_1da893_text_6">
      <!-- $\mathdefault{1}$ -->
      <g transform="translate(260.680952 198.245154) scale(0.2 -0.2)">
       <use xlink:href="#g1f0009_1da893_CMR17-31" transform="scale(0.996264)"/>
      </g>
     </g>
    </g>
    <g id="g1f0009_1da893_xtick_7">
     <g id="g1f0009_1da893_line2d_13">
      <path d="M 301.6 334.8 
L 301.6 20.016315 
" clip-path="url(#g1f0009_1da893_p1930286966)" style="fill: none; stroke-dasharray: 2.96,1.28; stroke-dashoffset: 0; stroke: #b0b0b0; stroke-opacity: 0.6; stroke-width: 0.8"/>
     </g>
     <g id="g1f0009_1da893_line2d_14">
      <g>
       <use xlink:href="#g1f0009_1da893_ma371c88903" x="301.6" y="177.408158" style="stroke: #000000; stroke-width: 0.8"/>
      </g>
     </g>
     <g id="g1f0009_1da893_text_7">
      <!-- $\mathdefault{2}$ -->
      <g transform="translate(297.030952 198.245154) scale(0.2 -0.2)">
       <use xlink:href="#g1f0009_1da893_CMR17-32" transform="scale(0.996264)"/>
      </g>
     </g>
    </g>
    <g id="g1f0009_1da893_xtick_8">
     <g id="g1f0009_1da893_line2d_15">
      <path d="M 337.95 334.8 
L 337.95 20.016315 
" clip-path="url(#g1f0009_1da893_p1930286966)" style="fill: none; stroke-dasharray: 2.96,1.28; stroke-dashoffset: 0; stroke: #b0b0b0; stroke-opacity: 0.6; stroke-width: 0.8"/>
     </g>
     <g id="g1f0009_1da893_line2d_16">
      <g>
       <use xlink:href="#g1f0009_1da893_ma371c88903" x="337.95" y="177.408158" style="stroke: #000000; stroke-width: 0.8"/>
      </g>
     </g>
     <g id="g1f0009_1da893_text_8">
      <!-- $\mathdefault{3}$ -->
      <g transform="translate(333.380952 198.245154) scale(0.2 -0.2)">
       <use xlink:href="#g1f0009_1da893_CMR17-33" transform="scale(0.996264)"/>
      </g>
     </g>
    </g>
    <g id="g1f0009_1da893_xtick_9">
     <g id="g1f0009_1da893_line2d_17">
      <path d="M 374.3 334.8 
L 374.3 20.016315 
" clip-path="url(#g1f0009_1da893_p1930286966)" style="fill: none; stroke-dasharray: 2.96,1.28; stroke-dashoffset: 0; stroke: #b0b0b0; stroke-opacity: 0.6; stroke-width: 0.8"/>
     </g>
     <g id="g1f0009_1da893_line2d_18">
      <g>
       <use xlink:href="#g1f0009_1da893_ma371c88903" x="374.3" y="177.408158" style="stroke: #000000; stroke-width: 0.8"/>
      </g>
     </g>
     <g id="g1f0009_1da893_text_9">
      <!-- $\mathdefault{4}$ -->
      <g transform="translate(369.730952 198.245154) scale(0.2 -0.2)">
       <use xlink:href="#g1f0009_1da893_CMR17-34" transform="scale(0.996264)"/>
      </g>
     </g>
    </g>
    <g id="g1f0009_1da893_xtick_10">
     <g id="g1f0009_1da893_line2d_19">
      <path d="M 410.65 334.8 
L 410.65 20.016315 
" clip-path="url(#g1f0009_1da893_p1930286966)" style="fill: none; stroke-dasharray: 2.96,1.28; stroke-dashoffset: 0; stroke: #b0b0b0; stroke-opacity: 0.6; stroke-width: 0.8"/>
     </g>
     <g id="g1f0009_1da893_line2d_20">
      <g>
       <use xlink:href="#g1f0009_1da893_ma371c88903" x="410.65" y="177.408158" style="stroke: #000000; stroke-width: 0.8"/>
      </g>
     </g>
     <g id="g1f0009_1da893_text_10">
      <!-- $\mathdefault{5}$ -->
      <g transform="translate(406.080952 198.245154) scale(0.2 -0.2)">
       <use xlink:href="#g1f0009_1da893_CMR17-35" transform="scale(0.996264)"/>
      </g>
     </g>
    </g>
    <g id="g1f0009_1da893_text_11">
     <!-- $x$ -->
     <g transform="translate(435.913188 219.957785) scale(0.2 -0.2)">
      <defs>
       <path id="g1f0009_1da893_CMMI12-78" d="M 3034 2606 
C 2829 2567 2752 2414 2752 2293 
C 2752 2139 2874 2088 2963 2088 
C 3155 2088 3290 2254 3290 2427 
C 3290 2695 2982 2816 2714 2816 
C 2323 2816 2106 2433 2048 2312 
C 1901 2816 1504 2816 1389 2816 
C 736 2816 390 1980 390 1839 
C 390 1814 416 1782 461 1782 
C 512 1782 525 1820 538 1846 
C 755 2555 1184 2689 1370 2689 
C 1658 2689 1715 2420 1715 2267 
C 1715 2127 1677 1980 1600 1673 
L 1382 798 
C 1286 415 1101 64 762 64 
C 730 64 570 64 435 147 
C 666 192 717 383 717 460 
C 717 588 621 664 499 664 
C 346 664 179 530 179 326 
C 179 57 480 -64 755 -64 
C 1062 -64 1280 179 1414 441 
C 1517 64 1837 -64 2074 -64 
C 2726 -64 3072 773 3072 913 
C 3072 945 3046 971 3008 971 
C 2950 971 2944 939 2925 888 
C 2752 326 2381 64 2093 64 
C 1869 64 1747 230 1747 492 
C 1747 632 1773 734 1875 1156 
L 2099 2024 
C 2195 2408 2413 2689 2707 2689 
C 2720 2689 2899 2689 3034 2606 
z
" transform="scale(0.015625)"/>
      </defs>
      <use xlink:href="#g1f0009_1da893_CMMI12-78" transform="scale(0.996264)"/>
     </g>
    </g>
   </g>
   <g id="g1f0009_1da893_matplotlib.axis_2">
    <g id="g1f0009_1da893_ytick_1">
     <g id="g1f0009_1da893_line2d_21">
      <path d="M 10.8 308.568026 
L 447 308.568026 
" clip-path="url(#g1f0009_1da893_p1930286966)" style="fill: none; stroke-dasharray: 2.96,1.28; stroke-dashoffset: 0; stroke: #b0b0b0; stroke-opacity: 0.6; stroke-width: 0.8"/>
     </g>
     <g id="g1f0009_1da893_line2d_22">
      <defs>
       <path id="g1f0009_1da893_m118382cf26" d="M 0 0 
L -3.5 0 
" style="stroke: #000000; stroke-width: 0.8"/>
      </defs>
      <g>
       <use xlink:href="#g1f0009_1da893_m118382cf26" x="228.9" y="308.568026" style="stroke: #000000; stroke-width: 0.8"/>
      </g>
     </g>
     <g id="g1f0009_1da893_text_12">
      <!-- $\mathdefault{−5}$ -->
      <g transform="translate(197.264417 315.486525) scale(0.2 -0.2)">
       <use xlink:href="#g1f0009_1da893_CMSY10-0" transform="scale(0.996264)"/>
       <use xlink:href="#g1f0009_1da893_CMR17-35" transform="translate(77.487468 0) scale(0.996264)"/>
      </g>
     </g>
    </g>
    <g id="g1f0009_1da893_ytick_2">
     <g id="g1f0009_1da893_line2d_23">
      <path d="M 10.8 282.336053 
L 447 282.336053 
" clip-path="url(#g1f0009_1da893_p1930286966)" style="fill: none; stroke-dasharray: 2.96,1.28; stroke-dashoffset: 0; stroke: #b0b0b0; stroke-opacity: 0.6; stroke-width: 0.8"/>
     </g>
     <g id="g1f0009_1da893_line2d_24">
      <g>
       <use xlink:href="#g1f0009_1da893_m118382cf26" x="228.9" y="282.336053" style="stroke: #000000; stroke-width: 0.8"/>
      </g>
     </g>
     <g id="g1f0009_1da893_text_13">
      <!-- $\mathdefault{−4}$ -->
      <g transform="translate(197.264417 289.254551) scale(0.2 -0.2)">
       <use xlink:href="#g1f0009_1da893_CMSY10-0" transform="scale(0.996264)"/>
       <use xlink:href="#g1f0009_1da893_CMR17-34" transform="translate(77.487468 0) scale(0.996264)"/>
      </g>
     </g>
    </g>
    <g id="g1f0009_1da893_ytick_3">
     <g id="g1f0009_1da893_line2d_25">
      <path d="M 10.8 256.104079 
L 447 256.104079 
" clip-path="url(#g1f0009_1da893_p1930286966)" style="fill: none; stroke-dasharray: 2.96,1.28; stroke-dashoffset: 0; stroke: #b0b0b0; stroke-opacity: 0.6; stroke-width: 0.8"/>
     </g>
     <g id="g1f0009_1da893_line2d_26">
      <g>
       <use xlink:href="#g1f0009_1da893_m118382cf26" x="228.9" y="256.104079" style="stroke: #000000; stroke-width: 0.8"/>
      </g>
     </g>
     <g id="g1f0009_1da893_text_14">
      <!-- $\mathdefault{−3}$ -->
      <g transform="translate(197.264417 263.022577) scale(0.2 -0.2)">
       <use xlink:href="#g1f0009_1da893_CMSY10-0" transform="scale(0.996264)"/>
       <use xlink:href="#g1f0009_1da893_CMR17-33" transform="translate(77.487468 0) scale(0.996264)"/>
      </g>
     </g>
    </g>
    <g id="g1f0009_1da893_ytick_4">
     <g id="g1f0009_1da893_line2d_27">
      <path d="M 10.8 229.872105 
L 447 229.872105 
" clip-path="url(#g1f0009_1da893_p1930286966)" style="fill: none; stroke-dasharray: 2.96,1.28; stroke-dashoffset: 0; stroke: #b0b0b0; stroke-opacity: 0.6; stroke-width: 0.8"/>
     </g>
     <g id="g1f0009_1da893_line2d_28">
      <g>
       <use xlink:href="#g1f0009_1da893_m118382cf26" x="228.9" y="229.872105" style="stroke: #000000; stroke-width: 0.8"/>
      </g>
     </g>
     <g id="g1f0009_1da893_text_15">
      <!-- $\mathdefault{−2}$ -->
      <g transform="translate(197.264417 236.790603) scale(0.2 -0.2)">
       <use xlink:href="#g1f0009_1da893_CMSY10-0" transform="scale(0.996264)"/>
       <use xlink:href="#g1f0009_1da893_CMR17-32" transform="translate(77.487468 0) scale(0.996264)"/>
      </g>
     </g>
    </g>
    <g id="g1f0009_1da893_ytick_5">
     <g id="g1f0009_1da893_line2d_29">
      <path d="M 10.8 203.640131 
L 447 203.640131 
" clip-path="url(#g1f0009_1da893_p1930286966)" style="fill: none; stroke-dasharray: 2.96,1.28; stroke-dashoffset: 0; stroke: #b0b0b0; stroke-opacity: 0.6; stroke-width: 0.8"/>
     </g>
     <g id="g1f0009_1da893_line2d_30">
      <g>
       <use xlink:href="#g1f0009_1da893_m118382cf26" x="228.9" y="203.640131" style="stroke: #000000; stroke-width: 0.8"/>
      </g>
     </g>
     <g id="g1f0009_1da893_text_16">
      <!-- $\mathdefault{−1}$ -->
      <g transform="translate(197.264417 210.55863) scale(0.2 -0.2)">
       <use xlink:href="#g1f0009_1da893_CMSY10-0" transform="scale(0.996264)"/>
       <use xlink:href="#g1f0009_1da893_CMR17-31" transform="translate(77.487468 0) scale(0.996264)"/>
      </g>
     </g>
    </g>
    <g id="g1f0009_1da893_ytick_6">
     <g id="g1f0009_1da893_line2d_31">
      <path d="M 10.8 151.176184 
L 447 151.176184 
" clip-path="url(#g1f0009_1da893_p1930286966)" style="fill: none; stroke-dasharray: 2.96,1.28; stroke-dashoffset: 0; stroke: #b0b0b0; stroke-opacity: 0.6; stroke-width: 0.8"/>
     </g>
     <g id="g1f0009_1da893_line2d_32">
      <g>
       <use xlink:href="#g1f0009_1da893_m118382cf26" x="228.9" y="151.176184" style="stroke: #000000; stroke-width: 0.8"/>
      </g>
     </g>
     <g id="g1f0009_1da893_text_17">
      <!-- $\mathdefault{1}$ -->
      <g transform="translate(212.761905 158.094682) scale(0.2 -0.2)">
       <use xlink:href="#g1f0009_1da893_CMR17-31" transform="scale(0.996264)"/>
      </g>
     </g>
    </g>
    <g id="g1f0009_1da893_ytick_7">
     <g id="g1f0009_1da893_line2d_33">
      <path d="M 10.8 124.94421 
L 447 124.94421 
" clip-path="url(#g1f0009_1da893_p1930286966)" style="fill: none; stroke-dasharray: 2.96,1.28; stroke-dashoffset: 0; stroke: #b0b0b0; stroke-opacity: 0.6; stroke-width: 0.8"/>
     </g>
     <g id="g1f0009_1da893_line2d_34">
      <g>
       <use xlink:href="#g1f0009_1da893_m118382cf26" x="228.9" y="124.94421" style="stroke: #000000; stroke-width: 0.8"/>
      </g>
     </g>
     <g id="g1f0009_1da893_text_18">
      <!-- $\mathdefault{2}$ -->
      <g transform="translate(212.761905 131.862709) scale(0.2 -0.2)">
       <use xlink:href="#g1f0009_1da893_CMR17-32" transform="scale(0.996264)"/>
      </g>
     </g>
    </g>
    <g id="g1f0009_1da893_ytick_8">
     <g id="g1f0009_1da893_line2d_35">
      <path d="M 10.8 98.712236 
L 447 98.712236 
" clip-path="url(#g1f0009_1da893_p1930286966)" style="fill: none; stroke-dasharray: 2.96,1.28; stroke-dashoffset: 0; stroke: #b0b0b0; stroke-opacity: 0.6; stroke-width: 0.8"/>
     </g>
     <g id="g1f0009_1da893_line2d_36">
      <g>
       <use xlink:href="#g1f0009_1da893_m118382cf26" x="228.9" y="98.712236" style="stroke: #000000; stroke-width: 0.8"/>
      </g>
     </g>
     <g id="g1f0009_1da893_text_19">
      <!-- $\mathdefault{3}$ -->
      <g transform="translate(212.761905 105.630735) scale(0.2 -0.2)">
       <use xlink:href="#g1f0009_1da893_CMR17-33" transform="scale(0.996264)"/>
      </g>
     </g>
    </g>
    <g id="g1f0009_1da893_ytick_9">
     <g id="g1f0009_1da893_line2d_37">
      <path d="M 10.8 72.480263 
L 447 72.480263 
" clip-path="url(#g1f0009_1da893_p1930286966)" style="fill: none; stroke-dasharray: 2.96,1.28; stroke-dashoffset: 0; stroke: #b0b0b0; stroke-opacity: 0.6; stroke-width: 0.8"/>
     </g>
     <g id="g1f0009_1da893_line2d_38">
      <g>
       <use xlink:href="#g1f0009_1da893_m118382cf26" x="228.9" y="72.480263" style="stroke: #000000; stroke-width: 0.8"/>
      </g>
     </g>
     <g id="g1f0009_1da893_text_20">
      <!-- $\mathdefault{4}$ -->
      <g transform="translate(212.761905 79.398761) scale(0.2 -0.2)">
       <use xlink:href="#g1f0009_1da893_CMR17-34" transform="scale(0.996264)"/>
      </g>
     </g>
    </g>
    <g id="g1f0009_1da893_ytick_10">
     <g id="g1f0009_1da893_line2d_39">
      <path d="M 10.8 46.248289 
L 447 46.248289 
" clip-path="url(#g1f0009_1da893_p1930286966)" style="fill: none; stroke-dasharray: 2.96,1.28; stroke-dashoffset: 0; stroke: #b0b0b0; stroke-opacity: 0.6; stroke-width: 0.8"/>
     </g>
     <g id="g1f0009_1da893_line2d_40">
      <g>
       <use xlink:href="#g1f0009_1da893_m118382cf26" x="228.9" y="46.248289" style="stroke: #000000; stroke-width: 0.8"/>
      </g>
     </g>
     <g id="g1f0009_1da893_text_21">
      <!-- $\mathdefault{5}$ -->
      <g transform="translate(212.761905 53.166787) scale(0.2 -0.2)">
       <use xlink:href="#g1f0009_1da893_CMR17-35" transform="scale(0.996264)"/>
      </g>
     </g>
    </g>
    <g id="g1f0009_1da893_text_22">
     <!-- $y$ -->
     <g transform="translate(183.751583 16.140682) scale(0.2 -0.2)">
      <defs>
       <path id="g1f0009_1da893_CMMI12-79" d="M 1683 -700 
C 1510 -939 1261 -1152 947 -1152 
C 870 -1152 563 -1152 467 -889 
C 486 -895 518 -895 531 -895 
C 723 -895 851 -729 851 -582 
C 851 -435 730 -384 634 -384 
C 531 -384 307 -458 307 -759 
C 307 -1071 582 -1286 947 -1286 
C 1587 -1286 2234 -700 2413 6 
L 3040 2485 
C 3046 2517 3059 2556 3059 2594 
C 3059 2689 2982 2753 2886 2753 
C 2829 2753 2694 2727 2643 2535 
L 2170 658 
C 2138 543 2138 530 2086 460 
C 1958 281 1747 64 1440 64 
C 1082 64 1050 415 1050 588 
C 1050 952 1222 1443 1395 1903 
C 1466 2088 1504 2178 1504 2305 
C 1504 2574 1312 2816 998 2816 
C 410 2816 173 1890 173 1839 
C 173 1814 198 1782 243 1782 
C 301 1782 307 1807 333 1897 
C 486 2433 730 2689 979 2689 
C 1037 2689 1146 2689 1146 2478 
C 1146 2312 1075 2127 979 1884 
C 666 1047 666 837 666 683 
C 666 77 1101 -64 1421 -64 
C 1606 -64 1837 -6 2061 230 
L 2067 224 
C 1971 -147 1907 -392 1683 -700 
z
" transform="scale(0.015625)"/>
      </defs>
      <use xlink:href="#g1f0009_1da893_CMMI12-79" transform="scale(0.996264)"/>
     </g>
    </g>
   </g>
   <g id="g1f0009_1da893_line2d_41">
    <defs>
     <path id="g1f0009_1da893_ma0b27f656e" d="M 3 0 
L -3 -3 
L -3 3 
z
" style="stroke: #000000; stroke-linejoin: miter"/>
    </defs>
    <g>
     <use xlink:href="#g1f0009_1da893_ma0b27f656e" x="447" y="177.408158" style="stroke: #000000; stroke-linejoin: miter"/>
    </g>
   </g>
   <g id="g1f0009_1da893_line2d_42">
    <defs>
     <path id="g1f0009_1da893_m63035963bf" d="M 0 -3 
L -3 3 
L 3 3 
z
" style="stroke: #000000; stroke-linejoin: miter"/>
    </defs>
    <g>
     <use xlink:href="#g1f0009_1da893_m63035963bf" x="228.9" y="20.016315" style="stroke: #000000; stroke-linejoin: miter"/>
    </g>
   </g>
   <g id="g1f0009_1da893_line2d_43">
    <path d="M 10.8 182.505815 
L 15.379528 188.16068 
L 18.787548 192.026709 
L 21.716316 195.02105 
L 24.325581 197.379002 
L 26.721846 199.252035 
L 28.958359 200.723499 
L 31.061747 201.846979 
L 33.085259 202.677924 
L 35.028896 203.237458 
L 36.919282 203.552348 
L 38.783043 203.638697 
L 40.646805 203.501783 
L 42.510566 203.142772 
L 44.427577 202.54503 
L 46.397839 201.694887 
L 48.447977 200.565184 
L 50.604615 199.119687 
L 52.921003 197.292082 
L 55.423769 195.024521 
L 58.16616 192.230968 
L 61.281304 188.729657 
L 65.062077 184.127497 
L 70.946237 176.560036 
L 77.362901 168.411269 
L 81.063798 164.071401 
L 84.125691 160.812607 
L 86.841458 158.23868 
L 89.317598 156.192477 
L 91.607361 154.583182 
L 93.763999 153.335196 
L 95.814137 152.402961 
L 97.784398 151.749591 
L 99.70141 151.348082 
L 101.565171 151.182679 
L 103.428932 151.240495 
L 105.292694 151.521038 
L 107.18308 152.030654 
L 109.126717 152.786258 
L 111.150229 153.814934 
L 113.280242 155.15322 
L 115.54338 156.84579 
L 117.96627 158.943148 
L 120.602161 161.525301 
L 123.557554 164.739478 
L 127.04545 168.875549 
L 131.731478 174.808718 
L 141.396411 187.121966 
L 144.964182 191.253372 
L 147.972825 194.407186 
L 150.635342 196.886104 
L 153.084856 198.869021 
L 155.347995 200.421363 
L 157.478008 201.618945 
L 159.50152 202.50757 
L 161.445157 203.124123 
L 163.335543 203.49548 
L 165.199304 203.637991 
L 167.063065 203.557245 
L 168.926827 203.25393 
L 170.817213 202.721578 
L 172.76085 201.943184 
L 174.784362 200.891639 
L 176.914375 199.530474 
L 179.177513 197.815215 
L 181.627028 195.670922 
L 184.289544 193.03692 
L 187.298187 189.73661 
L 190.839333 185.50815 
L 195.711738 179.311945 
L 204.524666 168.074951 
L 208.145688 163.852291 
L 211.180956 160.642353 
L 213.870097 158.112183 
L 216.319612 156.103771 
L 218.609376 154.508932 
L 220.766014 153.275436 
L 222.816151 152.357611 
L 224.786413 151.71853 
L 226.703424 151.331209 
L 228.567185 151.179746 
L 230.430947 151.251528 
L 232.294708 151.545943 
L 234.185094 152.069412 
L 236.128731 152.838904 
L 238.152243 153.881519 
L 240.282256 155.233753 
L 242.545395 156.94016 
L 244.968284 159.051015 
L 247.6308 161.673742 
L 250.612818 164.933093 
L 254.127339 169.117259 
L 258.919868 175.200586 
L 268.078923 186.876626 
L 271.699945 191.087857 
L 274.735213 194.285136 
L 277.424355 196.801987 
L 279.873869 198.796751 
L 282.137008 200.360986 
L 284.267021 201.570458 
L 286.290533 202.470878 
L 288.260795 203.106074 
L 290.151181 203.485816 
L 292.014942 203.636676 
L 293.878704 203.564291 
L 295.742465 203.269276 
L 297.632851 202.745209 
L 299.576488 201.975118 
L 301.6 200.931901 
L 303.730013 199.579065 
L 305.993151 197.872061 
L 308.416041 195.760624 
L 311.078557 193.137336 
L 314.060575 189.877465 
L 317.575096 185.692847 
L 322.367625 179.609207 
L 331.52668 167.933586 
L 335.147702 163.722874 
L 338.18297 160.526169 
L 340.872111 158.009922 
L 343.321626 156.015776 
L 345.584765 154.452161 
L 347.714778 153.24331 
L 349.73829 152.343506 
L 351.708552 151.708928 
L 353.598938 151.329791 
L 355.462699 151.179534 
L 357.32646 151.252523 
L 359.190222 151.548136 
L 361.080608 152.072802 
L 363.024245 152.843493 
L 365.047757 153.887311 
L 367.17777 155.240749 
L 369.440908 156.948349 
L 371.863798 159.060368 
L 374.526314 161.684218 
L 377.508332 164.944609 
L 381.022853 169.129679 
L 385.815382 175.21363 
L 394.974437 186.888832 
L 398.595459 191.099025 
L 401.630727 194.295155 
L 404.319868 196.810798 
L 406.769383 198.804327 
L 409.032522 200.367321 
L 411.162534 201.575551 
L 413.186047 202.474739 
L 415.156308 203.108699 
L 417.046695 203.487231 
L 418.910456 203.636885 
L 420.774217 203.563293 
L 422.637978 203.26708 
L 424.528365 202.741816 
L 426.472001 201.970526 
L 428.495514 200.926105 
L 430.625526 199.572066 
L 432.888665 197.863869 
L 435.311555 195.751269 
L 437.974071 193.126858 
L 440.956089 189.865947 
L 444.47061 185.680426 
L 447 182.505815 
L 447 182.505815 
" clip-path="url(#g1f0009_1da893_p1930286966)" style="fill: none; stroke: #0072b2; stroke-width: 2.5; stroke-linecap: square"/>
   </g>
   <g id="g1f0009_1da893_patch_3">
    <path d="M 228.9 334.8 
L 228.9 20.016315 
" style="fill: none; stroke: #000000; stroke-width: 0.8; stroke-linejoin: miter; stroke-linecap: square"/>
   </g>
   <g id="g1f0009_1da893_patch_4">
    <path d="M 447 334.8 
L 447 20.016315 
" style="fill: none"/>
   </g>
   <g id="g1f0009_1da893_patch_5">
    <path d="M 10.8 177.408158 
L 447 177.408158 
" style="fill: none; stroke: #000000; stroke-width: 0.8; stroke-linejoin: miter; stroke-linecap: square"/>
   </g>
   <g id="g1f0009_1da893_patch_6">
    <path d="M 10.8 20.016315 
L 447 20.016315 
" style="fill: none"/>
   </g>
  </g>
 </g>
 <defs>
  <clipPath id="g1f0009_1da893_p1930286966">
   <rect x="10.8" y="20.016315" width="436.2" height="314.783685"/>
  </clipPath>
 </defs>
</svg>
