<?xml version="1.0" encoding="utf-8" standalone="no"?>
<!DOCTYPE svg PUBLIC "-//W3C//DTD SVG 1.1//EN"
  "http://www.w3.org/Graphics/SVG/1.1/DTD/svg11.dtd">
<svg xmlns:xlink="http://www.w3.org/1999/xlink" viewBox="0 0 460.8 345.6" xmlns="http://www.w3.org/2000/svg" version="1.1" class="graph-inline-svg" role="img" aria-label="Tilpasset figur">
 <metadata>
  <rdf:RDF xmlns:dc="http://purl.org/dc/elements/1.1/" xmlns:cc="http://creativecommons.org/ns#" xmlns:rdf="http://www.w3.org/1999/02/22-rdf-syntax-ns#">
   <cc:Work>
    <dc:type rdf:resource="http://purl.org/dc/dcmitype/StillImage"/>
    <dc:date>2026-03-27T23:10:39.267292</dc:date>
    <dc:format>image/svg+xml</dc:format>
    <dc:creator>
     <cc:Agent>
      <dc:title>Matplotlib v3.10.8, https://matplotlib.org/</dc:title>
     </cc:Agent>
    </dc:creator>
   </cc:Work>
  </rdf:RDF>
 </metadata>
 <defs>
  <style type="text/css">*{stroke-linejoin: round; stroke-linecap: butt}</style>
 </defs>
 <g id="g1f0018_8390c7_figure_1">
  <g id="g1f0018_8390c7_patch_1">
   <path d="M 0 345.6 
L 460.8 345.6 
L 460.8 0 
L 0 0 
L 0 345.6 
z
" style="fill: none"/>
  </g>
  <g id="g1f0018_8390c7_axes_1">
   <g id="g1f0018_8390c7_patch_2">
    <path d="M 10.8 334.8 
L 447 334.8 
L 447 20.016315 
L 10.8 20.016315 
L 10.8 334.8 
z
" style="fill: none"/>
   </g>
   <g id="g1f0018_8390c7_matplotlib.axis_1">
    <g id="g1f0018_8390c7_xtick_1">
     <g id="g1f0018_8390c7_line2d_1">
      <path d="M 47.15 334.8 
L 47.15 20.016315 
" clip-path="url(#g1f0018_8390c7_pc43b9be576)" style="fill: none; stroke-dasharray: 2.96,1.28; stroke-dashoffset: 0; stroke: #b0b0b0; stroke-opacity: 0.6; stroke-width: 0.8"/>
     </g>
     <g id="g1f0018_8390c7_line2d_2">
      <defs>
       <path id="g1f0018_8390c7_m04066a88aa" d="M 0 0 
L 0 3.5 
" style="stroke: #000000; stroke-width: 0.8"/>
      </defs>
      <g>
       <use xlink:href="#g1f0018_8390c7_m04066a88aa" x="47.15" y="177.408158" style="stroke: #000000; stroke-width: 0.8"/>
      </g>
     </g>
     <g id="g1f0018_8390c7_text_1">
      <!-- $\mathdefault{−5}$ -->
      <g transform="translate(34.832209 198.245154) scale(0.2 -0.2)">
       <defs>
        <path id="g1f0018_8390c7_CMSY10-0" d="M 4218 1472 
C 4326 1472 4442 1472 4442 1600 
C 4442 1728 4326 1728 4218 1728 
L 755 1728 
C 646 1728 531 1728 531 1600 
C 531 1472 646 1472 755 1472 
L 4218 1472 
z
" transform="scale(0.015625)"/>
        <path id="g1f0018_8390c7_CMR17-35" d="M 730 3692 
C 794 3666 1056 3584 1325 3584 
C 1920 3584 2246 3911 2432 4100 
C 2432 4157 2432 4192 2394 4192 
C 2387 4192 2374 4192 2323 4163 
C 2099 4058 1837 3973 1517 3973 
C 1325 3973 1037 3999 723 4139 
C 653 4171 640 4171 634 4171 
C 602 4171 595 4164 595 4037 
L 595 2203 
C 595 2089 595 2057 659 2057 
C 691 2057 704 2070 736 2114 
C 941 2401 1222 2522 1542 2522 
C 1766 2522 2246 2382 2246 1289 
C 2246 1085 2246 715 2054 421 
C 1894 159 1645 25 1370 25 
C 947 25 518 320 403 814 
C 429 807 480 795 506 795 
C 589 795 749 840 749 1038 
C 749 1210 627 1280 506 1280 
C 358 1280 262 1190 262 1011 
C 262 454 704 -128 1382 -128 
C 2042 -128 2669 440 2669 1264 
C 2669 2030 2170 2624 1549 2624 
C 1222 2624 947 2503 730 2274 
L 730 3692 
z
" transform="scale(0.015625)"/>
       </defs>
       <use xlink:href="#g1f0018_8390c7_CMSY10-0" transform="scale(0.996264)"/>
       <use xlink:href="#g1f0018_8390c7_CMR17-35" transform="translate(77.487468 0) scale(0.996264)"/>
      </g>
     </g>
    </g>
    <g id="g1f0018_8390c7_xtick_2">
     <g id="g1f0018_8390c7_line2d_3">
      <path d="M 83.5 334.8 
L 83.5 20.016315 
" clip-path="url(#g1f0018_8390c7_pc43b9be576)" style="fill: none; stroke-dasharray: 2.96,1.28; stroke-dashoffset: 0; stroke: #b0b0b0; stroke-opacity: 0.6; stroke-width: 0.8"/>
     </g>
     <g id="g1f0018_8390c7_line2d_4">
      <g>
       <use xlink:href="#g1f0018_8390c7_m04066a88aa" x="83.5" y="177.408158" style="stroke: #000000; stroke-width: 0.8"/>
      </g>
     </g>
     <g id="g1f0018_8390c7_text_2">
      <!-- $\mathdefault{−4}$ -->
      <g transform="translate(71.182209 198.245154) scale(0.2 -0.2)">
       <defs>
        <path id="g1f0018_8390c7_CMR17-34" d="M 2150 4122 
C 2150 4256 2144 4256 2029 4256 
L 128 1254 
L 128 1088 
L 1779 1088 
L 1779 457 
C 1779 224 1766 160 1318 160 
L 1197 160 
L 1197 0 
C 1402 0 1747 0 1965 0 
C 2182 0 2528 0 2733 0 
L 2733 160 
L 2611 160 
C 2163 160 2150 224 2150 457 
L 2150 1088 
L 2803 1088 
L 2803 1254 
L 2150 1254 
L 2150 4122 
z
M 1798 3703 
L 1798 1254 
L 256 1254 
L 1798 3703 
z
" transform="scale(0.015625)"/>
       </defs>
       <use xlink:href="#g1f0018_8390c7_CMSY10-0" transform="scale(0.996264)"/>
       <use xlink:href="#g1f0018_8390c7_CMR17-34" transform="translate(77.487468 0) scale(0.996264)"/>
      </g>
     </g>
    </g>
    <g id="g1f0018_8390c7_xtick_3">
     <g id="g1f0018_8390c7_line2d_5">
      <path d="M 119.85 334.8 
L 119.85 20.016315 
" clip-path="url(#g1f0018_8390c7_pc43b9be576)" style="fill: none; stroke-dasharray: 2.96,1.28; stroke-dashoffset: 0; stroke: #b0b0b0; stroke-opacity: 0.6; stroke-width: 0.8"/>
     </g>
     <g id="g1f0018_8390c7_line2d_6">
      <g>
       <use xlink:href="#g1f0018_8390c7_m04066a88aa" x="119.85" y="177.408158" style="stroke: #000000; stroke-width: 0.8"/>
      </g>
     </g>
     <g id="g1f0018_8390c7_text_3">
      <!-- $\mathdefault{−3}$ -->
      <g transform="translate(107.532209 198.245154) scale(0.2 -0.2)">
       <defs>
        <path id="g1f0018_8390c7_CMR17-33" d="M 1414 2157 
C 1984 2157 2234 1662 2234 1090 
C 2234 320 1824 25 1453 25 
C 1114 25 563 194 390 693 
C 422 680 454 680 486 680 
C 640 680 755 782 755 948 
C 755 1133 614 1216 486 1216 
C 378 1216 211 1165 211 926 
C 211 335 787 -128 1466 -128 
C 2176 -128 2720 430 2720 1085 
C 2720 1707 2208 2157 1600 2227 
C 2086 2328 2554 2756 2554 3329 
C 2554 3820 2048 4179 1472 4179 
C 890 4179 378 3829 378 3329 
C 378 3110 544 3072 627 3072 
C 762 3072 877 3155 877 3321 
C 877 3486 762 3569 627 3569 
C 602 3569 570 3569 544 3557 
C 730 3959 1235 4032 1459 4032 
C 1683 4032 2106 3925 2106 3320 
C 2106 3143 2080 2828 1862 2550 
C 1670 2304 1453 2304 1242 2284 
C 1210 2284 1062 2269 1037 2269 
C 992 2263 966 2257 966 2208 
C 966 2163 973 2157 1101 2157 
L 1414 2157 
z
" transform="scale(0.015625)"/>
       </defs>
       <use xlink:href="#g1f0018_8390c7_CMSY10-0" transform="scale(0.996264)"/>
       <use xlink:href="#g1f0018_8390c7_CMR17-33" transform="translate(77.487468 0) scale(0.996264)"/>
      </g>
     </g>
    </g>
    <g id="g1f0018_8390c7_xtick_4">
     <g id="g1f0018_8390c7_line2d_7">
      <path d="M 156.2 334.8 
L 156.2 20.016315 
" clip-path="url(#g1f0018_8390c7_pc43b9be576)" style="fill: none; stroke-dasharray: 2.96,1.28; stroke-dashoffset: 0; stroke: #b0b0b0; stroke-opacity: 0.6; stroke-width: 0.8"/>
     </g>
     <g id="g1f0018_8390c7_line2d_8">
      <g>
       <use xlink:href="#g1f0018_8390c7_m04066a88aa" x="156.2" y="177.408158" style="stroke: #000000; stroke-width: 0.8"/>
      </g>
     </g>
     <g id="g1f0018_8390c7_text_4">
      <!-- $\mathdefault{−2}$ -->
      <g transform="translate(143.882209 198.245154) scale(0.2 -0.2)">
       <defs>
        <path id="g1f0018_8390c7_CMR17-32" d="M 2669 989 
L 2554 989 
C 2490 536 2438 459 2413 420 
C 2381 369 1920 369 1830 369 
L 602 369 
C 832 619 1280 1072 1824 1597 
C 2214 1967 2669 2402 2669 3035 
C 2669 3790 2067 4224 1395 4224 
C 691 4224 262 3604 262 3030 
C 262 2780 448 2748 525 2748 
C 589 2748 781 2787 781 3010 
C 781 3207 614 3264 525 3264 
C 486 3264 448 3258 422 3245 
C 544 3790 915 4058 1306 4058 
C 1862 4058 2227 3617 2227 3035 
C 2227 2479 1901 2000 1536 1584 
L 262 146 
L 262 0 
L 2515 0 
L 2669 989 
z
" transform="scale(0.015625)"/>
       </defs>
       <use xlink:href="#g1f0018_8390c7_CMSY10-0" transform="scale(0.996264)"/>
       <use xlink:href="#g1f0018_8390c7_CMR17-32" transform="translate(77.487468 0) scale(0.996264)"/>
      </g>
     </g>
    </g>
    <g id="g1f0018_8390c7_xtick_5">
     <g id="g1f0018_8390c7_line2d_9">
      <path d="M 192.55 334.8 
L 192.55 20.016315 
" clip-path="url(#g1f0018_8390c7_pc43b9be576)" style="fill: none; stroke-dasharray: 2.96,1.28; stroke-dashoffset: 0; stroke: #b0b0b0; stroke-opacity: 0.6; stroke-width: 0.8"/>
     </g>
     <g id="g1f0018_8390c7_line2d_10">
      <g>
       <use xlink:href="#g1f0018_8390c7_m04066a88aa" x="192.55" y="177.408158" style="stroke: #000000; stroke-width: 0.8"/>
      </g>
     </g>
     <g id="g1f0018_8390c7_text_5">
      <!-- $\mathdefault{−1}$ -->
      <g transform="translate(180.232209 198.245154) scale(0.2 -0.2)">
       <defs>
        <path id="g1f0018_8390c7_CMR17-31" d="M 1702 4058 
C 1702 4192 1696 4192 1606 4192 
C 1357 3916 979 3827 621 3827 
C 602 3827 570 3827 563 3808 
C 557 3795 557 3782 557 3648 
C 755 3648 1088 3686 1344 3839 
L 1344 461 
C 1344 236 1331 160 781 160 
L 589 160 
L 589 0 
C 896 0 1216 0 1523 0 
C 1830 0 2150 0 2458 0 
L 2458 160 
L 2266 160 
C 1715 160 1702 230 1702 458 
L 1702 4058 
z
" transform="scale(0.015625)"/>
       </defs>
       <use xlink:href="#g1f0018_8390c7_CMSY10-0" transform="scale(0.996264)"/>
       <use xlink:href="#g1f0018_8390c7_CMR17-31" transform="translate(77.487468 0) scale(0.996264)"/>
      </g>
     </g>
    </g>
    <g id="g1f0018_8390c7_xtick_6">
     <g id="g1f0018_8390c7_line2d_11">
      <path d="M 265.25 334.8 
L 265.25 20.016315 
" clip-path="url(#g1f0018_8390c7_pc43b9be576)" style="fill: none; stroke-dasharray: 2.96,1.28; stroke-dashoffset: 0; stroke: #b0b0b0; stroke-opacity: 0.6; stroke-width: 0.8"/>
     </g>
     <g id="g1f0018_8390c7_line2d_12">
      <g>
       <use xlink:href="#g1f0018_8390c7_m04066a88aa" x="265.25" y="177.408158" style="stroke: #000000; stroke-width: 0.8"/>
      </g>
     </g>
     <g id="g1f0018_8390c7_text_6">
      <!-- $\mathdefault{1}$ -->
      <g transform="translate(260.680952 198.245154) scale(0.2 -0.2)">
       <use xlink:href="#g1f0018_8390c7_CMR17-31" transform="scale(0.996264)"/>
      </g>
     </g>
    </g>
    <g id="g1f0018_8390c7_xtick_7">
     <g id="g1f0018_8390c7_line2d_13">
      <path d="M 301.6 334.8 
L 301.6 20.016315 
" clip-path="url(#g1f0018_8390c7_pc43b9be576)" style="fill: none; stroke-dasharray: 2.96,1.28; stroke-dashoffset: 0; stroke: #b0b0b0; stroke-opacity: 0.6; stroke-width: 0.8"/>
     </g>
     <g id="g1f0018_8390c7_line2d_14">
      <g>
       <use xlink:href="#g1f0018_8390c7_m04066a88aa" x="301.6" y="177.408158" style="stroke: #000000; stroke-width: 0.8"/>
      </g>
     </g>
     <g id="g1f0018_8390c7_text_7">
      <!-- $\mathdefault{2}$ -->
      <g transform="translate(297.030952 198.245154) scale(0.2 -0.2)">
       <use xlink:href="#g1f0018_8390c7_CMR17-32" transform="scale(0.996264)"/>
      </g>
     </g>
    </g>
    <g id="g1f0018_8390c7_xtick_8">
     <g id="g1f0018_8390c7_line2d_15">
      <path d="M 337.95 334.8 
L 337.95 20.016315 
" clip-path="url(#g1f0018_8390c7_pc43b9be576)" style="fill: none; stroke-dasharray: 2.96,1.28; stroke-dashoffset: 0; stroke: #b0b0b0; stroke-opacity: 0.6; stroke-width: 0.8"/>
     </g>
     <g id="g1f0018_8390c7_line2d_16">
      <g>
       <use xlink:href="#g1f0018_8390c7_m04066a88aa" x="337.95" y="177.408158" style="stroke: #000000; stroke-width: 0.8"/>
      </g>
     </g>
     <g id="g1f0018_8390c7_text_8">
      <!-- $\mathdefault{3}$ -->
      <g transform="translate(333.380952 198.245154) scale(0.2 -0.2)">
       <use xlink:href="#g1f0018_8390c7_CMR17-33" transform="scale(0.996264)"/>
      </g>
     </g>
    </g>
    <g id="g1f0018_8390c7_xtick_9">
     <g id="g1f0018_8390c7_line2d_17">
      <path d="M 374.3 334.8 
L 374.3 20.016315 
" clip-path="url(#g1f0018_8390c7_pc43b9be576)" style="fill: none; stroke-dasharray: 2.96,1.28; stroke-dashoffset: 0; stroke: #b0b0b0; stroke-opacity: 0.6; stroke-width: 0.8"/>
     </g>
     <g id="g1f0018_8390c7_line2d_18">
      <g>
       <use xlink:href="#g1f0018_8390c7_m04066a88aa" x="374.3" y="177.408158" style="stroke: #000000; stroke-width: 0.8"/>
      </g>
     </g>
     <g id="g1f0018_8390c7_text_9">
      <!-- $\mathdefault{4}$ -->
      <g transform="translate(369.730952 198.245154) scale(0.2 -0.2)">
       <use xlink:href="#g1f0018_8390c7_CMR17-34" transform="scale(0.996264)"/>
      </g>
     </g>
    </g>
    <g id="g1f0018_8390c7_xtick_10">
     <g id="g1f0018_8390c7_line2d_19">
      <path d="M 410.65 334.8 
L 410.65 20.016315 
" clip-path="url(#g1f0018_8390c7_pc43b9be576)" style="fill: none; stroke-dasharray: 2.96,1.28; stroke-dashoffset: 0; stroke: #b0b0b0; stroke-opacity: 0.6; stroke-width: 0.8"/>
     </g>
     <g id="g1f0018_8390c7_line2d_20">
      <g>
       <use xlink:href="#g1f0018_8390c7_m04066a88aa" x="410.65" y="177.408158" style="stroke: #000000; stroke-width: 0.8"/>
      </g>
     </g>
     <g id="g1f0018_8390c7_text_10">
      <!-- $\mathdefault{5}$ -->
      <g transform="translate(406.080952 198.245154) scale(0.2 -0.2)">
       <use xlink:href="#g1f0018_8390c7_CMR17-35" transform="scale(0.996264)"/>
      </g>
     </g>
    </g>
    <g id="g1f0018_8390c7_text_11">
     <!-- $x$ -->
     <g transform="translate(435.913188 219.957785) scale(0.2 -0.2)">
      <defs>
       <path id="g1f0018_8390c7_CMMI12-78" d="M 3034 2606 
C 2829 2567 2752 2414 2752 2293 
C 2752 2139 2874 2088 2963 2088 
C 3155 2088 3290 2254 3290 2427 
C 3290 2695 2982 2816 2714 2816 
C 2323 2816 2106 2433 2048 2312 
C 1901 2816 1504 2816 1389 2816 
C 736 2816 390 1980 390 1839 
C 390 1814 416 1782 461 1782 
C 512 1782 525 1820 538 1846 
C 755 2555 1184 2689 1370 2689 
C 1658 2689 1715 2420 1715 2267 
C 1715 2127 1677 1980 1600 1673 
L 1382 798 
C 1286 415 1101 64 762 64 
C 730 64 570 64 435 147 
C 666 192 717 383 717 460 
C 717 588 621 664 499 664 
C 346 664 179 530 179 326 
C 179 57 480 -64 755 -64 
C 1062 -64 1280 179 1414 441 
C 1517 64 1837 -64 2074 -64 
C 2726 -64 3072 773 3072 913 
C 3072 945 3046 971 3008 971 
C 2950 971 2944 939 2925 888 
C 2752 326 2381 64 2093 64 
C 1869 64 1747 230 1747 492 
C 1747 632 1773 734 1875 1156 
L 2099 2024 
C 2195 2408 2413 2689 2707 2689 
C 2720 2689 2899 2689 3034 2606 
z
" transform="scale(0.015625)"/>
      </defs>
      <use xlink:href="#g1f0018_8390c7_CMMI12-78" transform="scale(0.996264)"/>
     </g>
    </g>
   </g>
   <g id="g1f0018_8390c7_matplotlib.axis_2">
    <g id="g1f0018_8390c7_ytick_1">
     <g id="g1f0018_8390c7_line2d_21">
      <path d="M 10.8 308.568026 
L 447 308.568026 
" clip-path="url(#g1f0018_8390c7_pc43b9be576)" style="fill: none; stroke-dasharray: 2.96,1.28; stroke-dashoffset: 0; stroke: #b0b0b0; stroke-opacity: 0.6; stroke-width: 0.8"/>
     </g>
     <g id="g1f0018_8390c7_line2d_22">
      <defs>
       <path id="g1f0018_8390c7_m21f602c235" d="M 0 0 
L -3.5 0 
" style="stroke: #000000; stroke-width: 0.8"/>
      </defs>
      <g>
       <use xlink:href="#g1f0018_8390c7_m21f602c235" x="228.9" y="308.568026" style="stroke: #000000; stroke-width: 0.8"/>
      </g>
     </g>
     <g id="g1f0018_8390c7_text_12">
      <!-- $\mathdefault{−5}$ -->
      <g transform="translate(197.264417 315.486525) scale(0.2 -0.2)">
       <use xlink:href="#g1f0018_8390c7_CMSY10-0" transform="scale(0.996264)"/>
       <use xlink:href="#g1f0018_8390c7_CMR17-35" transform="translate(77.487468 0) scale(0.996264)"/>
      </g>
     </g>
    </g>
    <g id="g1f0018_8390c7_ytick_2">
     <g id="g1f0018_8390c7_line2d_23">
      <path d="M 10.8 282.336053 
L 447 282.336053 
" clip-path="url(#g1f0018_8390c7_pc43b9be576)" style="fill: none; stroke-dasharray: 2.96,1.28; stroke-dashoffset: 0; stroke: #b0b0b0; stroke-opacity: 0.6; stroke-width: 0.8"/>
     </g>
     <g id="g1f0018_8390c7_line2d_24">
      <g>
       <use xlink:href="#g1f0018_8390c7_m21f602c235" x="228.9" y="282.336053" style="stroke: #000000; stroke-width: 0.8"/>
      </g>
     </g>
     <g id="g1f0018_8390c7_text_13">
      <!-- $\mathdefault{−4}$ -->
      <g transform="translate(197.264417 289.254551) scale(0.2 -0.2)">
       <use xlink:href="#g1f0018_8390c7_CMSY10-0" transform="scale(0.996264)"/>
       <use xlink:href="#g1f0018_8390c7_CMR17-34" transform="translate(77.487468 0) scale(0.996264)"/>
      </g>
     </g>
    </g>
    <g id="g1f0018_8390c7_ytick_3">
     <g id="g1f0018_8390c7_line2d_25">
      <path d="M 10.8 256.104079 
L 447 256.104079 
" clip-path="url(#g1f0018_8390c7_pc43b9be576)" style="fill: none; stroke-dasharray: 2.96,1.28; stroke-dashoffset: 0; stroke: #b0b0b0; stroke-opacity: 0.6; stroke-width: 0.8"/>
     </g>
     <g id="g1f0018_8390c7_line2d_26">
      <g>
       <use xlink:href="#g1f0018_8390c7_m21f602c235" x="228.9" y="256.104079" style="stroke: #000000; stroke-width: 0.8"/>
      </g>
     </g>
     <g id="g1f0018_8390c7_text_14">
      <!-- $\mathdefault{−3}$ -->
      <g transform="translate(197.264417 263.022577) scale(0.2 -0.2)">
       <use xlink:href="#g1f0018_8390c7_CMSY10-0" transform="scale(0.996264)"/>
       <use xlink:href="#g1f0018_8390c7_CMR17-33" transform="translate(77.487468 0) scale(0.996264)"/>
      </g>
     </g>
    </g>
    <g id="g1f0018_8390c7_ytick_4">
     <g id="g1f0018_8390c7_line2d_27">
      <path d="M 10.8 229.872105 
L 447 229.872105 
" clip-path="url(#g1f0018_8390c7_pc43b9be576)" style="fill: none; stroke-dasharray: 2.96,1.28; stroke-dashoffset: 0; stroke: #b0b0b0; stroke-opacity: 0.6; stroke-width: 0.8"/>
     </g>
     <g id="g1f0018_8390c7_line2d_28">
      <g>
       <use xlink:href="#g1f0018_8390c7_m21f602c235" x="228.9" y="229.872105" style="stroke: #000000; stroke-width: 0.8"/>
      </g>
     </g>
     <g id="g1f0018_8390c7_text_15">
      <!-- $\mathdefault{−2}$ -->
      <g transform="translate(197.264417 236.790603) scale(0.2 -0.2)">
       <use xlink:href="#g1f0018_8390c7_CMSY10-0" transform="scale(0.996264)"/>
       <use xlink:href="#g1f0018_8390c7_CMR17-32" transform="translate(77.487468 0) scale(0.996264)"/>
      </g>
     </g>
    </g>
    <g id="g1f0018_8390c7_ytick_5">
     <g id="g1f0018_8390c7_line2d_29">
      <path d="M 10.8 203.640131 
L 447 203.640131 
" clip-path="url(#g1f0018_8390c7_pc43b9be576)" style="fill: none; stroke-dasharray: 2.96,1.28; stroke-dashoffset: 0; stroke: #b0b0b0; stroke-opacity: 0.6; stroke-width: 0.8"/>
     </g>
     <g id="g1f0018_8390c7_line2d_30">
      <g>
       <use xlink:href="#g1f0018_8390c7_m21f602c235" x="228.9" y="203.640131" style="stroke: #000000; stroke-width: 0.8"/>
      </g>
     </g>
     <g id="g1f0018_8390c7_text_16">
      <!-- $\mathdefault{−1}$ -->
      <g transform="translate(197.264417 210.55863) scale(0.2 -0.2)">
       <use xlink:href="#g1f0018_8390c7_CMSY10-0" transform="scale(0.996264)"/>
       <use xlink:href="#g1f0018_8390c7_CMR17-31" transform="translate(77.487468 0) scale(0.996264)"/>
      </g>
     </g>
    </g>
    <g id="g1f0018_8390c7_ytick_6">
     <g id="g1f0018_8390c7_line2d_31">
      <path d="M 10.8 151.176184 
L 447 151.176184 
" clip-path="url(#g1f0018_8390c7_pc43b9be576)" style="fill: none; stroke-dasharray: 2.96,1.28; stroke-dashoffset: 0; stroke: #b0b0b0; stroke-opacity: 0.6; stroke-width: 0.8"/>
     </g>
     <g id="g1f0018_8390c7_line2d_32">
      <g>
       <use xlink:href="#g1f0018_8390c7_m21f602c235" x="228.9" y="151.176184" style="stroke: #000000; stroke-width: 0.8"/>
      </g>
     </g>
     <g id="g1f0018_8390c7_text_17">
      <!-- $\mathdefault{1}$ -->
      <g transform="translate(212.761905 158.094682) scale(0.2 -0.2)">
       <use xlink:href="#g1f0018_8390c7_CMR17-31" transform="scale(0.996264)"/>
      </g>
     </g>
    </g>
    <g id="g1f0018_8390c7_ytick_7">
     <g id="g1f0018_8390c7_line2d_33">
      <path d="M 10.8 124.94421 
L 447 124.94421 
" clip-path="url(#g1f0018_8390c7_pc43b9be576)" style="fill: none; stroke-dasharray: 2.96,1.28; stroke-dashoffset: 0; stroke: #b0b0b0; stroke-opacity: 0.6; stroke-width: 0.8"/>
     </g>
     <g id="g1f0018_8390c7_line2d_34">
      <g>
       <use xlink:href="#g1f0018_8390c7_m21f602c235" x="228.9" y="124.94421" style="stroke: #000000; stroke-width: 0.8"/>
      </g>
     </g>
     <g id="g1f0018_8390c7_text_18">
      <!-- $\mathdefault{2}$ -->
      <g transform="translate(212.761905 131.862709) scale(0.2 -0.2)">
       <use xlink:href="#g1f0018_8390c7_CMR17-32" transform="scale(0.996264)"/>
      </g>
     </g>
    </g>
    <g id="g1f0018_8390c7_ytick_8">
     <g id="g1f0018_8390c7_line2d_35">
      <path d="M 10.8 98.712236 
L 447 98.712236 
" clip-path="url(#g1f0018_8390c7_pc43b9be576)" style="fill: none; stroke-dasharray: 2.96,1.28; stroke-dashoffset: 0; stroke: #b0b0b0; stroke-opacity: 0.6; stroke-width: 0.8"/>
     </g>
     <g id="g1f0018_8390c7_line2d_36">
      <g>
       <use xlink:href="#g1f0018_8390c7_m21f602c235" x="228.9" y="98.712236" style="stroke: #000000; stroke-width: 0.8"/>
      </g>
     </g>
     <g id="g1f0018_8390c7_text_19">
      <!-- $\mathdefault{3}$ -->
      <g transform="translate(212.761905 105.630735) scale(0.2 -0.2)">
       <use xlink:href="#g1f0018_8390c7_CMR17-33" transform="scale(0.996264)"/>
      </g>
     </g>
    </g>
    <g id="g1f0018_8390c7_ytick_9">
     <g id="g1f0018_8390c7_line2d_37">
      <path d="M 10.8 72.480263 
L 447 72.480263 
" clip-path="url(#g1f0018_8390c7_pc43b9be576)" style="fill: none; stroke-dasharray: 2.96,1.28; stroke-dashoffset: 0; stroke: #b0b0b0; stroke-opacity: 0.6; stroke-width: 0.8"/>
     </g>
     <g id="g1f0018_8390c7_line2d_38">
      <g>
       <use xlink:href="#g1f0018_8390c7_m21f602c235" x="228.9" y="72.480263" style="stroke: #000000; stroke-width: 0.8"/>
      </g>
     </g>
     <g id="g1f0018_8390c7_text_20">
      <!-- $\mathdefault{4}$ -->
      <g transform="translate(212.761905 79.398761) scale(0.2 -0.2)">
       <use xlink:href="#g1f0018_8390c7_CMR17-34" transform="scale(0.996264)"/>
      </g>
     </g>
    </g>
    <g id="g1f0018_8390c7_ytick_10">
     <g id="g1f0018_8390c7_line2d_39">
      <path d="M 10.8 46.248289 
L 447 46.248289 
" clip-path="url(#g1f0018_8390c7_pc43b9be576)" style="fill: none; stroke-dasharray: 2.96,1.28; stroke-dashoffset: 0; stroke: #b0b0b0; stroke-opacity: 0.6; stroke-width: 0.8"/>
     </g>
     <g id="g1f0018_8390c7_line2d_40">
      <g>
       <use xlink:href="#g1f0018_8390c7_m21f602c235" x="228.9" y="46.248289" style="stroke: #000000; stroke-width: 0.8"/>
      </g>
     </g>
     <g id="g1f0018_8390c7_text_21">
      <!-- $\mathdefault{5}$ -->
      <g transform="translate(212.761905 53.166787) scale(0.2 -0.2)">
       <use xlink:href="#g1f0018_8390c7_CMR17-35" transform="scale(0.996264)"/>
      </g>
     </g>
    </g>
    <g id="g1f0018_8390c7_text_22">
     <!-- $y$ -->
     <g transform="translate(183.751583 16.140682) scale(0.2 -0.2)">
      <defs>
       <path id="g1f0018_8390c7_CMMI12-79" d="M 1683 -700 
C 1510 -939 1261 -1152 947 -1152 
C 870 -1152 563 -1152 467 -889 
C 486 -895 518 -895 531 -895 
C 723 -895 851 -729 851 -582 
C 851 -435 730 -384 634 -384 
C 531 -384 307 -458 307 -759 
C 307 -1071 582 -1286 947 -1286 
C 1587 -1286 2234 -700 2413 6 
L 3040 2485 
C 3046 2517 3059 2556 3059 2594 
C 3059 2689 2982 2753 2886 2753 
C 2829 2753 2694 2727 2643 2535 
L 2170 658 
C 2138 543 2138 530 2086 460 
C 1958 281 1747 64 1440 64 
C 1082 64 1050 415 1050 588 
C 1050 952 1222 1443 1395 1903 
C 1466 2088 1504 2178 1504 2305 
C 1504 2574 1312 2816 998 2816 
C 410 2816 173 1890 173 1839 
C 173 1814 198 1782 243 1782 
C 301 1782 307 1807 333 1897 
C 486 2433 730 2689 979 2689 
C 1037 2689 1146 2689 1146 2478 
C 1146 2312 1075 2127 979 1884 
C 666 1047 666 837 666 683 
C 666 77 1101 -64 1421 -64 
C 1606 -64 1837 -6 2061 230 
L 2067 224 
C 1971 -147 1907 -392 1683 -700 
z
" transform="scale(0.015625)"/>
      </defs>
      <use xlink:href="#g1f0018_8390c7_CMMI12-79" transform="scale(0.996264)"/>
     </g>
    </g>
   </g>
   <g id="g1f0018_8390c7_line2d_41">
    <defs>
     <path id="g1f0018_8390c7_ma6e0e01862" d="M 3 0 
L -3 -3 
L -3 3 
z
" style="stroke: #000000; stroke-linejoin: miter"/>
    </defs>
    <g>
     <use xlink:href="#g1f0018_8390c7_ma6e0e01862" x="447" y="177.408158" style="stroke: #000000; stroke-linejoin: miter"/>
    </g>
   </g>
   <g id="g1f0018_8390c7_line2d_42">
    <defs>
     <path id="g1f0018_8390c7_m931351d8a0" d="M 0 -3 
L -3 3 
L 3 3 
z
" style="stroke: #000000; stroke-linejoin: miter"/>
    </defs>
    <g>
     <use xlink:href="#g1f0018_8390c7_m931351d8a0" x="228.9" y="20.016315" style="stroke: #000000; stroke-linejoin: miter"/>
    </g>
   </g>
   <g id="g1f0018_8390c7_line2d_43">
    <path d="M 10.8 201.658877 
L 11.944882 200.371618 
L 13.22289 198.58723 
L 14.660648 196.176414 
L 16.284783 192.998991 
L 18.201795 188.737673 
L 20.70456 182.586953 
L 28.053104 164.168521 
L 29.996741 160.080796 
L 31.6475 157.106357 
L 33.085259 154.954423 
L 34.363267 153.421986 
L 35.534774 152.353872 
L 36.59978 151.674906 
L 37.584911 151.301391 
L 38.516792 151.176574 
L 39.448672 151.275028 
L 40.380553 151.595916 
L 41.365684 152.173947 
L 42.43069 153.068613 
L 43.575572 154.331759 
L 44.85358 156.090957 
L 46.264713 158.428281 
L 47.862223 161.518229 
L 49.752609 165.680668 
L 52.175499 171.593249 
L 60.083172 191.33386 
L 61.973558 195.228192 
L 63.571068 198.038535 
L 64.982201 200.09433 
L 66.260209 201.575364 
L 67.405091 202.574363 
L 68.443472 203.201197 
L 69.428603 203.544022 
L 70.360483 203.639549 
L 71.292364 203.511806 
L 72.25087 203.148643 
L 73.236001 202.533912 
L 74.301007 201.60074 
L 75.472514 200.264168 
L 76.750522 198.456319 
L 78.188281 196.021631 
L 79.83904 192.765007 
L 81.782677 188.412884 
L 84.338693 182.098555 
L 91.261234 164.698173 
L 93.258121 160.437271 
L 94.935506 157.363262 
L 96.39989 155.128272 
L 97.704523 153.529908 
L 98.87603 152.43323 
L 99.941036 151.727359 
L 100.926167 151.328431 
L 101.884673 151.178354 
L 102.816554 151.258884 
L 103.748434 151.561985 
L 104.733565 152.121529 
L 105.771947 152.971541 
L 106.916828 154.207582 
L 108.168211 155.898755 
L 109.579344 158.200114 
L 111.176854 161.254749 
L 113.040615 165.322529 
L 115.410255 171.067686 
L 123.823805 191.983605 
L 125.660941 195.689361 
L 127.231826 198.383564 
L 128.616334 200.339909 
L 129.867717 201.738623 
L 130.985973 202.673278 
L 132.024355 203.264168 
L 133.009485 203.572273 
L 133.941366 203.634702 
L 134.873247 203.473902 
L 135.831752 203.077078 
L 136.843509 202.407558 
L 137.93514 201.404164 
L 139.106647 200.016037 
L 140.41128 198.113375 
L 141.875664 195.568328 
L 143.553049 192.188137 
L 145.576561 187.578251 
L 148.292327 180.78717 
L 154.229738 165.789502 
L 156.306501 161.2312 
L 158.037136 157.946186 
L 159.528145 155.570233 
L 160.859403 153.849158 
L 162.057535 152.649118 
L 163.149167 151.858554 
L 164.160923 151.392083 
L 165.119429 151.190867 
L 166.051309 151.221566 
L 166.98319 151.475154 
L 167.968321 151.983167 
L 169.006702 152.780298 
L 170.124959 153.929468 
L 171.349716 155.51755 
L 172.707599 157.65313 
L 174.251859 160.512937 
L 176.035744 164.302693 
L 178.245633 169.549027 
L 181.786779 178.62568 
L 185.540927 188.062117 
L 187.72419 192.956853 
L 189.48145 196.380281 
L 190.999084 198.878961 
L 192.356968 200.705698 
L 193.581725 201.993258 
L 194.699982 202.853722 
L 195.711738 203.363796 
L 196.670244 203.606887 
L 197.602124 203.617064 
L 198.534005 203.404161 
L 199.492511 202.954369 
L 200.504267 202.230147 
L 201.595898 201.169744 
L 202.79403 199.68706 
L 204.125288 197.673216 
L 205.616297 195.001998 
L 207.346933 191.425639 
L 209.45032 186.537066 
L 212.458964 178.91506 
L 217.304743 166.653499 
L 219.461381 161.826355 
L 221.218641 158.407653 
L 222.736275 155.913751 
L 224.094159 154.091743 
L 225.318916 152.808744 
L 226.437173 151.952629 
L 227.448929 151.446597 
L 228.407435 151.20739 
L 229.339315 151.201008 
L 230.271196 151.41769 
L 231.229702 151.871321 
L 232.241458 152.599502 
L 233.333089 153.664026 
L 234.531221 155.150995 
L 235.862479 157.169241 
L 237.380114 159.896286 
L 239.110749 163.484032 
L 241.214137 168.382736 
L 244.249405 176.080464 
L 248.988683 188.074077 
L 251.171947 192.967393 
L 252.929207 196.389319 
L 254.446841 198.886478 
L 255.804724 200.711711 
L 257.029482 201.99782 
L 258.147739 202.8569 
L 259.159495 203.365688 
L 260.118 203.607543 
L 261.049881 203.616511 
L 261.981762 203.402406 
L 262.940267 202.951392 
L 263.952023 202.22591 
L 265.043655 201.164195 
L 266.241787 199.680147 
L 267.573045 197.664901 
L 269.064054 194.992286 
L 270.79469 191.414573 
L 272.898077 186.524793 
L 275.90672 178.901991 
L 280.725874 166.704675 
L 282.882512 161.871506 
L 284.639773 158.446362 
L 286.157407 155.945947 
L 287.51529 154.117492 
L 288.740048 152.828275 
L 289.858304 151.966231 
L 290.87006 151.454688 
L 291.828566 151.210184 
L 292.760447 151.198629 
L 293.692327 151.410157 
L 294.650833 151.858554 
L 295.662589 152.581337 
L 296.754221 153.640242 
L 297.952353 155.121366 
L 299.283611 157.13361 
L 300.77462 159.803231 
L 302.505255 163.378042 
L 304.608643 168.265235 
L 307.617286 175.88633 
L 312.463065 188.149178 
L 314.619703 192.97793 
L 316.376964 196.398351 
L 317.894598 198.89399 
L 319.252481 200.717718 
L 320.477239 202.002376 
L 321.595495 202.860071 
L 322.607251 203.367573 
L 323.565757 203.608192 
L 324.497638 203.615953 
L 325.429518 203.400645 
L 326.388024 202.948409 
L 327.39978 202.221667 
L 328.491412 201.158641 
L 329.689544 199.673229 
L 331.020802 197.656582 
L 332.511811 194.982571 
L 334.242446 191.403504 
L 336.345834 186.512518 
L 339.354477 178.888923 
L 344.173631 166.692725 
L 346.330269 161.860961 
L 348.08753 158.437319 
L 349.605164 155.938424 
L 350.963047 154.111473 
L 352.187804 152.823706 
L 353.306061 151.963046 
L 354.317817 151.452788 
L 355.276323 151.209521 
L 356.208204 151.199174 
L 357.140084 151.411905 
L 358.09859 151.861523 
L 359.110346 152.585567 
L 360.201978 153.645783 
L 361.40011 155.128272 
L 362.731368 157.141918 
L 364.222377 159.812937 
L 365.953012 163.389103 
L 368.0564 168.277505 
L 371.065043 175.899398 
L 375.910822 188.161119 
L 378.06746 192.988463 
L 379.824721 196.407379 
L 381.342355 198.901497 
L 382.700238 200.723719 
L 383.924995 202.006925 
L 385.043252 202.863237 
L 386.055008 203.369452 
L 387.013514 203.608834 
L 387.945395 203.615388 
L 388.877275 203.398877 
L 389.835781 202.94542 
L 390.847537 202.217418 
L 391.939169 201.153081 
L 393.137301 199.666305 
L 394.468559 197.648258 
L 395.986193 194.921415 
L 397.716828 191.33386 
L 399.820216 186.435327 
L 402.855484 178.737709 
L 407.594763 166.743938 
L 409.778026 161.85042 
L 411.535287 158.428281 
L 413.052921 155.930905 
L 414.410804 154.105459 
L 415.635561 152.819144 
L 416.753818 151.959867 
L 417.765574 151.450896 
L 418.72408 151.208865 
L 419.65596 151.199725 
L 420.587841 151.413659 
L 421.546347 151.864499 
L 422.558103 152.589803 
L 423.649734 153.651331 
L 424.847867 155.135185 
L 426.179125 157.150231 
L 427.670134 159.822648 
L 429.400769 163.400169 
L 431.504157 168.289777 
L 434.5128 175.912466 
L 439.331954 188.109942 
L 441.488592 192.94331 
L 443.245852 196.368668 
L 444.763487 198.869298 
L 446.12137 200.697967 
L 447 201.658877 
L 447 201.658877 
" clip-path="url(#g1f0018_8390c7_pc43b9be576)" style="fill: none; stroke: #0072b2; stroke-width: 2.5; stroke-linecap: square"/>
   </g>
   <g id="g1f0018_8390c7_patch_3">
    <path d="M 228.9 334.8 
L 228.9 20.016315 
" style="fill: none; stroke: #000000; stroke-width: 0.8; stroke-linejoin: miter; stroke-linecap: square"/>
   </g>
   <g id="g1f0018_8390c7_patch_4">
    <path d="M 447 334.8 
L 447 20.016315 
" style="fill: none"/>
   </g>
   <g id="g1f0018_8390c7_patch_5">
    <path d="M 10.8 177.408158 
L 447 177.408158 
" style="fill: none; stroke: #000000; stroke-width: 0.8; stroke-linejoin: miter; stroke-linecap: square"/>
   </g>
   <g id="g1f0018_8390c7_patch_6">
    <path d="M 10.8 20.016315 
L 447 20.016315 
" style="fill: none"/>
   </g>
  </g>
 </g>
 <defs>
  <clipPath id="g1f0018_8390c7_pc43b9be576">
   <rect x="10.8" y="20.016315" width="436.2" height="314.783685"/>
  </clipPath>
 </defs>
</svg>
