<?xml version="1.0" encoding="utf-8" standalone="no"?>
<!DOCTYPE svg PUBLIC "-//W3C//DTD SVG 1.1//EN"
  "http://www.w3.org/Graphics/SVG/1.1/DTD/svg11.dtd">
<svg xmlns:xlink="http://www.w3.org/1999/xlink" viewBox="0 0 460.8 345.6" xmlns="http://www.w3.org/2000/svg" version="1.1" class="graph-inline-svg" role="img" aria-label="Tilpasset figur">
 <metadata>
  <rdf:RDF xmlns:dc="http://purl.org/dc/elements/1.1/" xmlns:cc="http://creativecommons.org/ns#" xmlns:rdf="http://www.w3.org/1999/02/22-rdf-syntax-ns#">
   <cc:Work>
    <dc:type rdf:resource="http://purl.org/dc/dcmitype/StillImage"/>
    <dc:date>2026-03-27T23:10:38.871348</dc:date>
    <dc:format>image/svg+xml</dc:format>
    <dc:creator>
     <cc:Agent>
      <dc:title>Matplotlib v3.10.8, https://matplotlib.org/</dc:title>
     </cc:Agent>
    </dc:creator>
   </cc:Work>
  </rdf:RDF>
 </metadata>
 <defs>
  <style type="text/css">*{stroke-linejoin: round; stroke-linecap: butt}</style>
 </defs>
 <g id="g1f0015_9859a6_figure_1">
  <g id="g1f0015_9859a6_patch_1">
   <path d="M 0 345.6 
L 460.8 345.6 
L 460.8 0 
L 0 0 
L 0 345.6 
z
" style="fill: none"/>
  </g>
  <g id="g1f0015_9859a6_axes_1">
   <g id="g1f0015_9859a6_patch_2">
    <path d="M 10.8 334.8 
L 447 334.8 
L 447 20.016315 
L 10.8 20.016315 
L 10.8 334.8 
z
" style="fill: none"/>
   </g>
   <g id="g1f0015_9859a6_matplotlib.axis_1">
    <g id="g1f0015_9859a6_xtick_1">
     <g id="g1f0015_9859a6_line2d_1">
      <path d="M 47.15 334.8 
L 47.15 20.016315 
" clip-path="url(#g1f0015_9859a6_peb44ff77e8)" style="fill: none; stroke-dasharray: 2.96,1.28; stroke-dashoffset: 0; stroke: #b0b0b0; stroke-opacity: 0.6; stroke-width: 0.8"/>
     </g>
     <g id="g1f0015_9859a6_line2d_2">
      <defs>
       <path id="g1f0015_9859a6_mdafb72132f" d="M 0 0 
L 0 3.5 
" style="stroke: #000000; stroke-width: 0.8"/>
      </defs>
      <g>
       <use xlink:href="#g1f0015_9859a6_mdafb72132f" x="47.15" y="177.408158" style="stroke: #000000; stroke-width: 0.8"/>
      </g>
     </g>
     <g id="g1f0015_9859a6_text_1">
      <!-- $\mathdefault{−5}$ -->
      <g transform="translate(34.832209 198.245154) scale(0.2 -0.2)">
       <defs>
        <path id="g1f0015_9859a6_CMSY10-0" d="M 4218 1472 
C 4326 1472 4442 1472 4442 1600 
C 4442 1728 4326 1728 4218 1728 
L 755 1728 
C 646 1728 531 1728 531 1600 
C 531 1472 646 1472 755 1472 
L 4218 1472 
z
" transform="scale(0.015625)"/>
        <path id="g1f0015_9859a6_CMR17-35" d="M 730 3692 
C 794 3666 1056 3584 1325 3584 
C 1920 3584 2246 3911 2432 4100 
C 2432 4157 2432 4192 2394 4192 
C 2387 4192 2374 4192 2323 4163 
C 2099 4058 1837 3973 1517 3973 
C 1325 3973 1037 3999 723 4139 
C 653 4171 640 4171 634 4171 
C 602 4171 595 4164 595 4037 
L 595 2203 
C 595 2089 595 2057 659 2057 
C 691 2057 704 2070 736 2114 
C 941 2401 1222 2522 1542 2522 
C 1766 2522 2246 2382 2246 1289 
C 2246 1085 2246 715 2054 421 
C 1894 159 1645 25 1370 25 
C 947 25 518 320 403 814 
C 429 807 480 795 506 795 
C 589 795 749 840 749 1038 
C 749 1210 627 1280 506 1280 
C 358 1280 262 1190 262 1011 
C 262 454 704 -128 1382 -128 
C 2042 -128 2669 440 2669 1264 
C 2669 2030 2170 2624 1549 2624 
C 1222 2624 947 2503 730 2274 
L 730 3692 
z
" transform="scale(0.015625)"/>
       </defs>
       <use xlink:href="#g1f0015_9859a6_CMSY10-0" transform="scale(0.996264)"/>
       <use xlink:href="#g1f0015_9859a6_CMR17-35" transform="translate(77.487468 0) scale(0.996264)"/>
      </g>
     </g>
    </g>
    <g id="g1f0015_9859a6_xtick_2">
     <g id="g1f0015_9859a6_line2d_3">
      <path d="M 83.5 334.8 
L 83.5 20.016315 
" clip-path="url(#g1f0015_9859a6_peb44ff77e8)" style="fill: none; stroke-dasharray: 2.96,1.28; stroke-dashoffset: 0; stroke: #b0b0b0; stroke-opacity: 0.6; stroke-width: 0.8"/>
     </g>
     <g id="g1f0015_9859a6_line2d_4">
      <g>
       <use xlink:href="#g1f0015_9859a6_mdafb72132f" x="83.5" y="177.408158" style="stroke: #000000; stroke-width: 0.8"/>
      </g>
     </g>
     <g id="g1f0015_9859a6_text_2">
      <!-- $\mathdefault{−4}$ -->
      <g transform="translate(71.182209 198.245154) scale(0.2 -0.2)">
       <defs>
        <path id="g1f0015_9859a6_CMR17-34" d="M 2150 4122 
C 2150 4256 2144 4256 2029 4256 
L 128 1254 
L 128 1088 
L 1779 1088 
L 1779 457 
C 1779 224 1766 160 1318 160 
L 1197 160 
L 1197 0 
C 1402 0 1747 0 1965 0 
C 2182 0 2528 0 2733 0 
L 2733 160 
L 2611 160 
C 2163 160 2150 224 2150 457 
L 2150 1088 
L 2803 1088 
L 2803 1254 
L 2150 1254 
L 2150 4122 
z
M 1798 3703 
L 1798 1254 
L 256 1254 
L 1798 3703 
z
" transform="scale(0.015625)"/>
       </defs>
       <use xlink:href="#g1f0015_9859a6_CMSY10-0" transform="scale(0.996264)"/>
       <use xlink:href="#g1f0015_9859a6_CMR17-34" transform="translate(77.487468 0) scale(0.996264)"/>
      </g>
     </g>
    </g>
    <g id="g1f0015_9859a6_xtick_3">
     <g id="g1f0015_9859a6_line2d_5">
      <path d="M 119.85 334.8 
L 119.85 20.016315 
" clip-path="url(#g1f0015_9859a6_peb44ff77e8)" style="fill: none; stroke-dasharray: 2.96,1.28; stroke-dashoffset: 0; stroke: #b0b0b0; stroke-opacity: 0.6; stroke-width: 0.8"/>
     </g>
     <g id="g1f0015_9859a6_line2d_6">
      <g>
       <use xlink:href="#g1f0015_9859a6_mdafb72132f" x="119.85" y="177.408158" style="stroke: #000000; stroke-width: 0.8"/>
      </g>
     </g>
     <g id="g1f0015_9859a6_text_3">
      <!-- $\mathdefault{−3}$ -->
      <g transform="translate(107.532209 198.245154) scale(0.2 -0.2)">
       <defs>
        <path id="g1f0015_9859a6_CMR17-33" d="M 1414 2157 
C 1984 2157 2234 1662 2234 1090 
C 2234 320 1824 25 1453 25 
C 1114 25 563 194 390 693 
C 422 680 454 680 486 680 
C 640 680 755 782 755 948 
C 755 1133 614 1216 486 1216 
C 378 1216 211 1165 211 926 
C 211 335 787 -128 1466 -128 
C 2176 -128 2720 430 2720 1085 
C 2720 1707 2208 2157 1600 2227 
C 2086 2328 2554 2756 2554 3329 
C 2554 3820 2048 4179 1472 4179 
C 890 4179 378 3829 378 3329 
C 378 3110 544 3072 627 3072 
C 762 3072 877 3155 877 3321 
C 877 3486 762 3569 627 3569 
C 602 3569 570 3569 544 3557 
C 730 3959 1235 4032 1459 4032 
C 1683 4032 2106 3925 2106 3320 
C 2106 3143 2080 2828 1862 2550 
C 1670 2304 1453 2304 1242 2284 
C 1210 2284 1062 2269 1037 2269 
C 992 2263 966 2257 966 2208 
C 966 2163 973 2157 1101 2157 
L 1414 2157 
z
" transform="scale(0.015625)"/>
       </defs>
       <use xlink:href="#g1f0015_9859a6_CMSY10-0" transform="scale(0.996264)"/>
       <use xlink:href="#g1f0015_9859a6_CMR17-33" transform="translate(77.487468 0) scale(0.996264)"/>
      </g>
     </g>
    </g>
    <g id="g1f0015_9859a6_xtick_4">
     <g id="g1f0015_9859a6_line2d_7">
      <path d="M 156.2 334.8 
L 156.2 20.016315 
" clip-path="url(#g1f0015_9859a6_peb44ff77e8)" style="fill: none; stroke-dasharray: 2.96,1.28; stroke-dashoffset: 0; stroke: #b0b0b0; stroke-opacity: 0.6; stroke-width: 0.8"/>
     </g>
     <g id="g1f0015_9859a6_line2d_8">
      <g>
       <use xlink:href="#g1f0015_9859a6_mdafb72132f" x="156.2" y="177.408158" style="stroke: #000000; stroke-width: 0.8"/>
      </g>
     </g>
     <g id="g1f0015_9859a6_text_4">
      <!-- $\mathdefault{−2}$ -->
      <g transform="translate(143.882209 198.245154) scale(0.2 -0.2)">
       <defs>
        <path id="g1f0015_9859a6_CMR17-32" d="M 2669 989 
L 2554 989 
C 2490 536 2438 459 2413 420 
C 2381 369 1920 369 1830 369 
L 602 369 
C 832 619 1280 1072 1824 1597 
C 2214 1967 2669 2402 2669 3035 
C 2669 3790 2067 4224 1395 4224 
C 691 4224 262 3604 262 3030 
C 262 2780 448 2748 525 2748 
C 589 2748 781 2787 781 3010 
C 781 3207 614 3264 525 3264 
C 486 3264 448 3258 422 3245 
C 544 3790 915 4058 1306 4058 
C 1862 4058 2227 3617 2227 3035 
C 2227 2479 1901 2000 1536 1584 
L 262 146 
L 262 0 
L 2515 0 
L 2669 989 
z
" transform="scale(0.015625)"/>
       </defs>
       <use xlink:href="#g1f0015_9859a6_CMSY10-0" transform="scale(0.996264)"/>
       <use xlink:href="#g1f0015_9859a6_CMR17-32" transform="translate(77.487468 0) scale(0.996264)"/>
      </g>
     </g>
    </g>
    <g id="g1f0015_9859a6_xtick_5">
     <g id="g1f0015_9859a6_line2d_9">
      <path d="M 192.55 334.8 
L 192.55 20.016315 
" clip-path="url(#g1f0015_9859a6_peb44ff77e8)" style="fill: none; stroke-dasharray: 2.96,1.28; stroke-dashoffset: 0; stroke: #b0b0b0; stroke-opacity: 0.6; stroke-width: 0.8"/>
     </g>
     <g id="g1f0015_9859a6_line2d_10">
      <g>
       <use xlink:href="#g1f0015_9859a6_mdafb72132f" x="192.55" y="177.408158" style="stroke: #000000; stroke-width: 0.8"/>
      </g>
     </g>
     <g id="g1f0015_9859a6_text_5">
      <!-- $\mathdefault{−1}$ -->
      <g transform="translate(180.232209 198.245154) scale(0.2 -0.2)">
       <defs>
        <path id="g1f0015_9859a6_CMR17-31" d="M 1702 4058 
C 1702 4192 1696 4192 1606 4192 
C 1357 3916 979 3827 621 3827 
C 602 3827 570 3827 563 3808 
C 557 3795 557 3782 557 3648 
C 755 3648 1088 3686 1344 3839 
L 1344 461 
C 1344 236 1331 160 781 160 
L 589 160 
L 589 0 
C 896 0 1216 0 1523 0 
C 1830 0 2150 0 2458 0 
L 2458 160 
L 2266 160 
C 1715 160 1702 230 1702 458 
L 1702 4058 
z
" transform="scale(0.015625)"/>
       </defs>
       <use xlink:href="#g1f0015_9859a6_CMSY10-0" transform="scale(0.996264)"/>
       <use xlink:href="#g1f0015_9859a6_CMR17-31" transform="translate(77.487468 0) scale(0.996264)"/>
      </g>
     </g>
    </g>
    <g id="g1f0015_9859a6_xtick_6">
     <g id="g1f0015_9859a6_line2d_11">
      <path d="M 265.25 334.8 
L 265.25 20.016315 
" clip-path="url(#g1f0015_9859a6_peb44ff77e8)" style="fill: none; stroke-dasharray: 2.96,1.28; stroke-dashoffset: 0; stroke: #b0b0b0; stroke-opacity: 0.6; stroke-width: 0.8"/>
     </g>
     <g id="g1f0015_9859a6_line2d_12">
      <g>
       <use xlink:href="#g1f0015_9859a6_mdafb72132f" x="265.25" y="177.408158" style="stroke: #000000; stroke-width: 0.8"/>
      </g>
     </g>
     <g id="g1f0015_9859a6_text_6">
      <!-- $\mathdefault{1}$ -->
      <g transform="translate(260.680952 198.245154) scale(0.2 -0.2)">
       <use xlink:href="#g1f0015_9859a6_CMR17-31" transform="scale(0.996264)"/>
      </g>
     </g>
    </g>
    <g id="g1f0015_9859a6_xtick_7">
     <g id="g1f0015_9859a6_line2d_13">
      <path d="M 301.6 334.8 
L 301.6 20.016315 
" clip-path="url(#g1f0015_9859a6_peb44ff77e8)" style="fill: none; stroke-dasharray: 2.96,1.28; stroke-dashoffset: 0; stroke: #b0b0b0; stroke-opacity: 0.6; stroke-width: 0.8"/>
     </g>
     <g id="g1f0015_9859a6_line2d_14">
      <g>
       <use xlink:href="#g1f0015_9859a6_mdafb72132f" x="301.6" y="177.408158" style="stroke: #000000; stroke-width: 0.8"/>
      </g>
     </g>
     <g id="g1f0015_9859a6_text_7">
      <!-- $\mathdefault{2}$ -->
      <g transform="translate(297.030952 198.245154) scale(0.2 -0.2)">
       <use xlink:href="#g1f0015_9859a6_CMR17-32" transform="scale(0.996264)"/>
      </g>
     </g>
    </g>
    <g id="g1f0015_9859a6_xtick_8">
     <g id="g1f0015_9859a6_line2d_15">
      <path d="M 337.95 334.8 
L 337.95 20.016315 
" clip-path="url(#g1f0015_9859a6_peb44ff77e8)" style="fill: none; stroke-dasharray: 2.96,1.28; stroke-dashoffset: 0; stroke: #b0b0b0; stroke-opacity: 0.6; stroke-width: 0.8"/>
     </g>
     <g id="g1f0015_9859a6_line2d_16">
      <g>
       <use xlink:href="#g1f0015_9859a6_mdafb72132f" x="337.95" y="177.408158" style="stroke: #000000; stroke-width: 0.8"/>
      </g>
     </g>
     <g id="g1f0015_9859a6_text_8">
      <!-- $\mathdefault{3}$ -->
      <g transform="translate(333.380952 198.245154) scale(0.2 -0.2)">
       <use xlink:href="#g1f0015_9859a6_CMR17-33" transform="scale(0.996264)"/>
      </g>
     </g>
    </g>
    <g id="g1f0015_9859a6_xtick_9">
     <g id="g1f0015_9859a6_line2d_17">
      <path d="M 374.3 334.8 
L 374.3 20.016315 
" clip-path="url(#g1f0015_9859a6_peb44ff77e8)" style="fill: none; stroke-dasharray: 2.96,1.28; stroke-dashoffset: 0; stroke: #b0b0b0; stroke-opacity: 0.6; stroke-width: 0.8"/>
     </g>
     <g id="g1f0015_9859a6_line2d_18">
      <g>
       <use xlink:href="#g1f0015_9859a6_mdafb72132f" x="374.3" y="177.408158" style="stroke: #000000; stroke-width: 0.8"/>
      </g>
     </g>
     <g id="g1f0015_9859a6_text_9">
      <!-- $\mathdefault{4}$ -->
      <g transform="translate(369.730952 198.245154) scale(0.2 -0.2)">
       <use xlink:href="#g1f0015_9859a6_CMR17-34" transform="scale(0.996264)"/>
      </g>
     </g>
    </g>
    <g id="g1f0015_9859a6_xtick_10">
     <g id="g1f0015_9859a6_line2d_19">
      <path d="M 410.65 334.8 
L 410.65 20.016315 
" clip-path="url(#g1f0015_9859a6_peb44ff77e8)" style="fill: none; stroke-dasharray: 2.96,1.28; stroke-dashoffset: 0; stroke: #b0b0b0; stroke-opacity: 0.6; stroke-width: 0.8"/>
     </g>
     <g id="g1f0015_9859a6_line2d_20">
      <g>
       <use xlink:href="#g1f0015_9859a6_mdafb72132f" x="410.65" y="177.408158" style="stroke: #000000; stroke-width: 0.8"/>
      </g>
     </g>
     <g id="g1f0015_9859a6_text_10">
      <!-- $\mathdefault{5}$ -->
      <g transform="translate(406.080952 198.245154) scale(0.2 -0.2)">
       <use xlink:href="#g1f0015_9859a6_CMR17-35" transform="scale(0.996264)"/>
      </g>
     </g>
    </g>
    <g id="g1f0015_9859a6_text_11">
     <!-- $x$ -->
     <g transform="translate(435.913188 219.957785) scale(0.2 -0.2)">
      <defs>
       <path id="g1f0015_9859a6_CMMI12-78" d="M 3034 2606 
C 2829 2567 2752 2414 2752 2293 
C 2752 2139 2874 2088 2963 2088 
C 3155 2088 3290 2254 3290 2427 
C 3290 2695 2982 2816 2714 2816 
C 2323 2816 2106 2433 2048 2312 
C 1901 2816 1504 2816 1389 2816 
C 736 2816 390 1980 390 1839 
C 390 1814 416 1782 461 1782 
C 512 1782 525 1820 538 1846 
C 755 2555 1184 2689 1370 2689 
C 1658 2689 1715 2420 1715 2267 
C 1715 2127 1677 1980 1600 1673 
L 1382 798 
C 1286 415 1101 64 762 64 
C 730 64 570 64 435 147 
C 666 192 717 383 717 460 
C 717 588 621 664 499 664 
C 346 664 179 530 179 326 
C 179 57 480 -64 755 -64 
C 1062 -64 1280 179 1414 441 
C 1517 64 1837 -64 2074 -64 
C 2726 -64 3072 773 3072 913 
C 3072 945 3046 971 3008 971 
C 2950 971 2944 939 2925 888 
C 2752 326 2381 64 2093 64 
C 1869 64 1747 230 1747 492 
C 1747 632 1773 734 1875 1156 
L 2099 2024 
C 2195 2408 2413 2689 2707 2689 
C 2720 2689 2899 2689 3034 2606 
z
" transform="scale(0.015625)"/>
      </defs>
      <use xlink:href="#g1f0015_9859a6_CMMI12-78" transform="scale(0.996264)"/>
     </g>
    </g>
   </g>
   <g id="g1f0015_9859a6_matplotlib.axis_2">
    <g id="g1f0015_9859a6_ytick_1">
     <g id="g1f0015_9859a6_line2d_21">
      <path d="M 10.8 308.568026 
L 447 308.568026 
" clip-path="url(#g1f0015_9859a6_peb44ff77e8)" style="fill: none; stroke-dasharray: 2.96,1.28; stroke-dashoffset: 0; stroke: #b0b0b0; stroke-opacity: 0.6; stroke-width: 0.8"/>
     </g>
     <g id="g1f0015_9859a6_line2d_22">
      <defs>
       <path id="g1f0015_9859a6_mad6052602b" d="M 0 0 
L -3.5 0 
" style="stroke: #000000; stroke-width: 0.8"/>
      </defs>
      <g>
       <use xlink:href="#g1f0015_9859a6_mad6052602b" x="228.9" y="308.568026" style="stroke: #000000; stroke-width: 0.8"/>
      </g>
     </g>
     <g id="g1f0015_9859a6_text_12">
      <!-- $\mathdefault{−5}$ -->
      <g transform="translate(197.264417 315.486525) scale(0.2 -0.2)">
       <use xlink:href="#g1f0015_9859a6_CMSY10-0" transform="scale(0.996264)"/>
       <use xlink:href="#g1f0015_9859a6_CMR17-35" transform="translate(77.487468 0) scale(0.996264)"/>
      </g>
     </g>
    </g>
    <g id="g1f0015_9859a6_ytick_2">
     <g id="g1f0015_9859a6_line2d_23">
      <path d="M 10.8 282.336053 
L 447 282.336053 
" clip-path="url(#g1f0015_9859a6_peb44ff77e8)" style="fill: none; stroke-dasharray: 2.96,1.28; stroke-dashoffset: 0; stroke: #b0b0b0; stroke-opacity: 0.6; stroke-width: 0.8"/>
     </g>
     <g id="g1f0015_9859a6_line2d_24">
      <g>
       <use xlink:href="#g1f0015_9859a6_mad6052602b" x="228.9" y="282.336053" style="stroke: #000000; stroke-width: 0.8"/>
      </g>
     </g>
     <g id="g1f0015_9859a6_text_13">
      <!-- $\mathdefault{−4}$ -->
      <g transform="translate(197.264417 289.254551) scale(0.2 -0.2)">
       <use xlink:href="#g1f0015_9859a6_CMSY10-0" transform="scale(0.996264)"/>
       <use xlink:href="#g1f0015_9859a6_CMR17-34" transform="translate(77.487468 0) scale(0.996264)"/>
      </g>
     </g>
    </g>
    <g id="g1f0015_9859a6_ytick_3">
     <g id="g1f0015_9859a6_line2d_25">
      <path d="M 10.8 256.104079 
L 447 256.104079 
" clip-path="url(#g1f0015_9859a6_peb44ff77e8)" style="fill: none; stroke-dasharray: 2.96,1.28; stroke-dashoffset: 0; stroke: #b0b0b0; stroke-opacity: 0.6; stroke-width: 0.8"/>
     </g>
     <g id="g1f0015_9859a6_line2d_26">
      <g>
       <use xlink:href="#g1f0015_9859a6_mad6052602b" x="228.9" y="256.104079" style="stroke: #000000; stroke-width: 0.8"/>
      </g>
     </g>
     <g id="g1f0015_9859a6_text_14">
      <!-- $\mathdefault{−3}$ -->
      <g transform="translate(197.264417 263.022577) scale(0.2 -0.2)">
       <use xlink:href="#g1f0015_9859a6_CMSY10-0" transform="scale(0.996264)"/>
       <use xlink:href="#g1f0015_9859a6_CMR17-33" transform="translate(77.487468 0) scale(0.996264)"/>
      </g>
     </g>
    </g>
    <g id="g1f0015_9859a6_ytick_4">
     <g id="g1f0015_9859a6_line2d_27">
      <path d="M 10.8 229.872105 
L 447 229.872105 
" clip-path="url(#g1f0015_9859a6_peb44ff77e8)" style="fill: none; stroke-dasharray: 2.96,1.28; stroke-dashoffset: 0; stroke: #b0b0b0; stroke-opacity: 0.6; stroke-width: 0.8"/>
     </g>
     <g id="g1f0015_9859a6_line2d_28">
      <g>
       <use xlink:href="#g1f0015_9859a6_mad6052602b" x="228.9" y="229.872105" style="stroke: #000000; stroke-width: 0.8"/>
      </g>
     </g>
     <g id="g1f0015_9859a6_text_15">
      <!-- $\mathdefault{−2}$ -->
      <g transform="translate(197.264417 236.790603) scale(0.2 -0.2)">
       <use xlink:href="#g1f0015_9859a6_CMSY10-0" transform="scale(0.996264)"/>
       <use xlink:href="#g1f0015_9859a6_CMR17-32" transform="translate(77.487468 0) scale(0.996264)"/>
      </g>
     </g>
    </g>
    <g id="g1f0015_9859a6_ytick_5">
     <g id="g1f0015_9859a6_line2d_29">
      <path d="M 10.8 203.640131 
L 447 203.640131 
" clip-path="url(#g1f0015_9859a6_peb44ff77e8)" style="fill: none; stroke-dasharray: 2.96,1.28; stroke-dashoffset: 0; stroke: #b0b0b0; stroke-opacity: 0.6; stroke-width: 0.8"/>
     </g>
     <g id="g1f0015_9859a6_line2d_30">
      <g>
       <use xlink:href="#g1f0015_9859a6_mad6052602b" x="228.9" y="203.640131" style="stroke: #000000; stroke-width: 0.8"/>
      </g>
     </g>
     <g id="g1f0015_9859a6_text_16">
      <!-- $\mathdefault{−1}$ -->
      <g transform="translate(197.264417 210.55863) scale(0.2 -0.2)">
       <use xlink:href="#g1f0015_9859a6_CMSY10-0" transform="scale(0.996264)"/>
       <use xlink:href="#g1f0015_9859a6_CMR17-31" transform="translate(77.487468 0) scale(0.996264)"/>
      </g>
     </g>
    </g>
    <g id="g1f0015_9859a6_ytick_6">
     <g id="g1f0015_9859a6_line2d_31">
      <path d="M 10.8 151.176184 
L 447 151.176184 
" clip-path="url(#g1f0015_9859a6_peb44ff77e8)" style="fill: none; stroke-dasharray: 2.96,1.28; stroke-dashoffset: 0; stroke: #b0b0b0; stroke-opacity: 0.6; stroke-width: 0.8"/>
     </g>
     <g id="g1f0015_9859a6_line2d_32">
      <g>
       <use xlink:href="#g1f0015_9859a6_mad6052602b" x="228.9" y="151.176184" style="stroke: #000000; stroke-width: 0.8"/>
      </g>
     </g>
     <g id="g1f0015_9859a6_text_17">
      <!-- $\mathdefault{1}$ -->
      <g transform="translate(212.761905 158.094682) scale(0.2 -0.2)">
       <use xlink:href="#g1f0015_9859a6_CMR17-31" transform="scale(0.996264)"/>
      </g>
     </g>
    </g>
    <g id="g1f0015_9859a6_ytick_7">
     <g id="g1f0015_9859a6_line2d_33">
      <path d="M 10.8 124.94421 
L 447 124.94421 
" clip-path="url(#g1f0015_9859a6_peb44ff77e8)" style="fill: none; stroke-dasharray: 2.96,1.28; stroke-dashoffset: 0; stroke: #b0b0b0; stroke-opacity: 0.6; stroke-width: 0.8"/>
     </g>
     <g id="g1f0015_9859a6_line2d_34">
      <g>
       <use xlink:href="#g1f0015_9859a6_mad6052602b" x="228.9" y="124.94421" style="stroke: #000000; stroke-width: 0.8"/>
      </g>
     </g>
     <g id="g1f0015_9859a6_text_18">
      <!-- $\mathdefault{2}$ -->
      <g transform="translate(212.761905 131.862709) scale(0.2 -0.2)">
       <use xlink:href="#g1f0015_9859a6_CMR17-32" transform="scale(0.996264)"/>
      </g>
     </g>
    </g>
    <g id="g1f0015_9859a6_ytick_8">
     <g id="g1f0015_9859a6_line2d_35">
      <path d="M 10.8 98.712236 
L 447 98.712236 
" clip-path="url(#g1f0015_9859a6_peb44ff77e8)" style="fill: none; stroke-dasharray: 2.96,1.28; stroke-dashoffset: 0; stroke: #b0b0b0; stroke-opacity: 0.6; stroke-width: 0.8"/>
     </g>
     <g id="g1f0015_9859a6_line2d_36">
      <g>
       <use xlink:href="#g1f0015_9859a6_mad6052602b" x="228.9" y="98.712236" style="stroke: #000000; stroke-width: 0.8"/>
      </g>
     </g>
     <g id="g1f0015_9859a6_text_19">
      <!-- $\mathdefault{3}$ -->
      <g transform="translate(212.761905 105.630735) scale(0.2 -0.2)">
       <use xlink:href="#g1f0015_9859a6_CMR17-33" transform="scale(0.996264)"/>
      </g>
     </g>
    </g>
    <g id="g1f0015_9859a6_ytick_9">
     <g id="g1f0015_9859a6_line2d_37">
      <path d="M 10.8 72.480263 
L 447 72.480263 
" clip-path="url(#g1f0015_9859a6_peb44ff77e8)" style="fill: none; stroke-dasharray: 2.96,1.28; stroke-dashoffset: 0; stroke: #b0b0b0; stroke-opacity: 0.6; stroke-width: 0.8"/>
     </g>
     <g id="g1f0015_9859a6_line2d_38">
      <g>
       <use xlink:href="#g1f0015_9859a6_mad6052602b" x="228.9" y="72.480263" style="stroke: #000000; stroke-width: 0.8"/>
      </g>
     </g>
     <g id="g1f0015_9859a6_text_20">
      <!-- $\mathdefault{4}$ -->
      <g transform="translate(212.761905 79.398761) scale(0.2 -0.2)">
       <use xlink:href="#g1f0015_9859a6_CMR17-34" transform="scale(0.996264)"/>
      </g>
     </g>
    </g>
    <g id="g1f0015_9859a6_ytick_10">
     <g id="g1f0015_9859a6_line2d_39">
      <path d="M 10.8 46.248289 
L 447 46.248289 
" clip-path="url(#g1f0015_9859a6_peb44ff77e8)" style="fill: none; stroke-dasharray: 2.96,1.28; stroke-dashoffset: 0; stroke: #b0b0b0; stroke-opacity: 0.6; stroke-width: 0.8"/>
     </g>
     <g id="g1f0015_9859a6_line2d_40">
      <g>
       <use xlink:href="#g1f0015_9859a6_mad6052602b" x="228.9" y="46.248289" style="stroke: #000000; stroke-width: 0.8"/>
      </g>
     </g>
     <g id="g1f0015_9859a6_text_21">
      <!-- $\mathdefault{5}$ -->
      <g transform="translate(212.761905 53.166787) scale(0.2 -0.2)">
       <use xlink:href="#g1f0015_9859a6_CMR17-35" transform="scale(0.996264)"/>
      </g>
     </g>
    </g>
    <g id="g1f0015_9859a6_text_22">
     <!-- $y$ -->
     <g transform="translate(183.751583 16.140682) scale(0.2 -0.2)">
      <defs>
       <path id="g1f0015_9859a6_CMMI12-79" d="M 1683 -700 
C 1510 -939 1261 -1152 947 -1152 
C 870 -1152 563 -1152 467 -889 
C 486 -895 518 -895 531 -895 
C 723 -895 851 -729 851 -582 
C 851 -435 730 -384 634 -384 
C 531 -384 307 -458 307 -759 
C 307 -1071 582 -1286 947 -1286 
C 1587 -1286 2234 -700 2413 6 
L 3040 2485 
C 3046 2517 3059 2556 3059 2594 
C 3059 2689 2982 2753 2886 2753 
C 2829 2753 2694 2727 2643 2535 
L 2170 658 
C 2138 543 2138 530 2086 460 
C 1958 281 1747 64 1440 64 
C 1082 64 1050 415 1050 588 
C 1050 952 1222 1443 1395 1903 
C 1466 2088 1504 2178 1504 2305 
C 1504 2574 1312 2816 998 2816 
C 410 2816 173 1890 173 1839 
C 173 1814 198 1782 243 1782 
C 301 1782 307 1807 333 1897 
C 486 2433 730 2689 979 2689 
C 1037 2689 1146 2689 1146 2478 
C 1146 2312 1075 2127 979 1884 
C 666 1047 666 837 666 683 
C 666 77 1101 -64 1421 -64 
C 1606 -64 1837 -6 2061 230 
L 2067 224 
C 1971 -147 1907 -392 1683 -700 
z
" transform="scale(0.015625)"/>
      </defs>
      <use xlink:href="#g1f0015_9859a6_CMMI12-79" transform="scale(0.996264)"/>
     </g>
    </g>
   </g>
   <g id="g1f0015_9859a6_line2d_41">
    <defs>
     <path id="g1f0015_9859a6_m710391bdec" d="M 3 0 
L -3 -3 
L -3 3 
z
" style="stroke: #000000; stroke-linejoin: miter"/>
    </defs>
    <g>
     <use xlink:href="#g1f0015_9859a6_m710391bdec" x="447" y="177.408158" style="stroke: #000000; stroke-linejoin: miter"/>
    </g>
   </g>
   <g id="g1f0015_9859a6_line2d_42">
    <defs>
     <path id="g1f0015_9859a6_m6a10641cc9" d="M 0 -3 
L -3 3 
L 3 3 
z
" style="stroke: #000000; stroke-linejoin: miter"/>
    </defs>
    <g>
     <use xlink:href="#g1f0015_9859a6_m6a10641cc9" x="228.9" y="20.016315" style="stroke: #000000; stroke-linejoin: miter"/>
    </g>
   </g>
   <g id="g1f0015_9859a6_line2d_43">
    <path d="M 10.8 160.086747 
L 12.770262 163.504494 
L 15.113276 168.038262 
L 18.33492 174.80561 
L 24.645083 188.13822 
L 27.067973 192.679109 
L 29.06486 195.971383 
L 30.82212 198.4551 
L 32.393005 200.302666 
L 33.804138 201.635461 
L 35.108771 202.575989 
L 36.333529 203.193816 
L 37.505036 203.538523 
L 38.623292 203.639895 
L 39.741549 203.517994 
L 40.886431 203.162975 
L 42.057938 202.561893 
L 43.309321 201.660479 
L 44.640579 200.418077 
L 46.078337 198.765141 
L 47.675847 196.577431 
L 49.459733 193.743218 
L 51.50987 190.053645 
L 54.03926 185.016159 
L 58.006409 176.538552 
L 62.399561 167.296264 
L 64.902326 162.547078 
L 66.952463 159.119248 
L 68.736349 156.558494 
L 70.307233 154.675431 
L 71.744992 153.28571 
L 73.07625 152.301061 
L 74.301007 151.662377 
L 75.472514 151.297334 
L 76.590771 151.176379 
L 77.709028 151.278697 
L 78.827284 151.603417 
L 79.998791 152.179104 
L 81.223549 153.032815 
L 82.554807 154.242646 
L 83.992565 155.862524 
L 85.56345 157.977861 
L 87.32071 160.728769 
L 89.344223 164.326314 
L 91.793737 169.158057 
L 95.414759 176.854984 
L 100.446914 187.483529 
L 102.94968 192.236614 
L 104.999817 195.66868 
L 106.783703 198.233785 
L 108.354587 200.121113 
L 109.792346 201.515031 
L 111.123604 202.503762 
L 112.348361 203.146326 
L 113.519868 203.515153 
L 114.638125 203.639754 
L 115.756382 203.541084 
L 116.874638 203.219982 
L 118.046145 202.648019 
L 119.270903 201.798094 
L 120.602161 200.592208 
L 122.039919 198.976338 
L 123.610804 196.865016 
L 125.368064 194.118067 
L 127.391577 190.524283 
L 129.841091 185.69581 
L 133.435488 178.058517 
L 138.520894 167.316102 
L 141.023659 162.564796 
L 143.073796 159.134664 
L 144.857682 156.571546 
L 146.428566 154.686165 
L 147.866325 153.294164 
L 149.197583 152.307297 
L 150.42234 151.666505 
L 151.593847 151.299406 
L 152.712104 151.17647 
L 153.830361 151.276807 
L 154.948617 151.599561 
L 156.120125 152.173225 
L 157.344882 153.02488 
L 158.67614 154.232568 
L 160.113899 155.850269 
L 161.684783 157.963426 
L 163.442044 160.712184 
L 165.465556 164.307687 
L 167.91507 169.137655 
L 171.536092 176.833493 
L 176.568248 187.463679 
L 179.071013 192.218878 
L 181.12115 195.653242 
L 182.905036 198.220708 
L 184.47592 200.110351 
L 185.913679 201.506548 
L 187.244937 202.497496 
L 188.469694 203.142167 
L 189.641201 203.513049 
L 190.759458 203.63963 
L 191.877715 203.542941 
L 192.995971 203.223805 
L 194.167478 202.653867 
L 195.392236 201.805998 
L 196.723494 200.602257 
L 198.161253 198.988566 
L 199.732137 196.879426 
L 201.489398 194.134631 
L 203.51291 190.542895 
L 205.962424 185.716201 
L 209.556821 178.080005 
L 214.642227 167.335946 
L 217.144992 162.582524 
L 219.195129 159.150092 
L 220.979015 156.584611 
L 222.549899 154.696914 
L 223.987658 153.302633 
L 225.318916 152.313549 
L 226.543673 151.67065 
L 227.71518 151.301496 
L 228.833437 151.17658 
L 229.951694 151.274935 
L 231.069951 151.595724 
L 232.241458 152.167364 
L 233.466215 153.016962 
L 234.797473 154.222506 
L 236.235232 155.838029 
L 237.806116 157.949004 
L 239.563377 160.69561 
L 241.586889 164.289068 
L 244.036404 169.117259 
L 247.6308 176.754377 
L 252.716206 187.497054 
L 255.218971 192.248698 
L 257.269108 195.679196 
L 259.052994 198.24269 
L 260.623878 200.12844 
L 262.061637 201.520804 
L 263.392895 202.508024 
L 264.617652 203.149152 
L 265.789159 203.516577 
L 266.907416 203.639829 
L 268.025673 203.539808 
L 269.14393 203.217366 
L 270.315437 202.644024 
L 271.540194 201.792697 
L 272.871452 200.58535 
L 274.309211 198.967996 
L 275.880095 196.855186 
L 277.637356 194.10677 
L 279.660868 190.511593 
L 282.110383 185.681908 
L 285.731405 177.986243 
L 290.76356 167.355798 
L 293.266325 162.600262 
L 295.316462 159.165532 
L 297.100348 156.59769 
L 298.671232 154.707679 
L 300.108991 153.31112 
L 301.440249 152.319819 
L 302.665006 151.674813 
L 303.836513 151.303603 
L 304.95477 151.176707 
L 306.073027 151.27308 
L 307.191284 151.591903 
L 308.362791 152.161519 
L 309.587548 153.00906 
L 310.918806 154.21246 
L 312.356565 155.825804 
L 313.927449 157.934596 
L 315.68471 160.679048 
L 317.708222 164.270458 
L 320.157737 169.096868 
L 323.752133 176.732889 
L 328.837539 187.477209 
L 331.340304 192.230968 
L 333.390441 195.663766 
L 335.174327 198.229623 
L 336.745211 200.117688 
L 338.18297 201.512332 
L 339.514228 202.501769 
L 340.738986 203.145004 
L 341.910493 203.514485 
L 343.028749 203.639716 
L 344.147006 203.541677 
L 345.265263 203.221201 
L 346.43677 202.649883 
L 347.661527 201.800612 
L 348.992785 200.595409 
L 350.430544 198.980233 
L 352.001428 196.869606 
L 353.758689 194.123343 
L 355.782201 190.53021 
L 358.231716 185.702303 
L 361.826112 178.065359 
L 366.911518 167.32242 
L 369.414283 162.57044 
L 371.46442 159.139575 
L 373.248306 156.575704 
L 374.819191 154.689586 
L 376.256949 153.296859 
L 377.588207 152.309286 
L 378.812965 151.667823 
L 379.984472 151.30007 
L 381.102728 151.176503 
L 382.220985 151.276209 
L 383.339242 151.598338 
L 384.510749 152.171357 
L 385.735506 153.022357 
L 387.066764 154.229363 
L 388.504523 155.84637 
L 390.075407 157.958832 
L 391.832668 160.706906 
L 393.85618 164.301757 
L 396.305695 169.13116 
L 399.926717 176.826651 
L 404.958872 187.457357 
L 407.461637 192.213228 
L 409.511774 195.648323 
L 411.29566 198.216541 
L 412.89317 200.135759 
L 414.330928 201.52657 
L 415.662186 202.512278 
L 416.886944 203.151969 
L 418.058451 203.517994 
L 419.176708 203.639895 
L 420.294964 203.538523 
L 421.413221 203.214742 
L 422.584728 202.640021 
L 423.809485 201.787292 
L 425.140743 200.578485 
L 426.578502 198.959646 
L 428.149387 196.845351 
L 429.906647 194.095469 
L 431.930159 190.498899 
L 434.379674 185.668003 
L 438.000696 177.971596 
L 443.032851 167.342266 
L 445.535616 162.588171 
L 447 160.086747 
L 447 160.086747 
" clip-path="url(#g1f0015_9859a6_peb44ff77e8)" style="fill: none; stroke: #0072b2; stroke-width: 2.5; stroke-linecap: square"/>
   </g>
   <g id="g1f0015_9859a6_patch_3">
    <path d="M 228.9 334.8 
L 228.9 20.016315 
" style="fill: none; stroke: #000000; stroke-width: 0.8; stroke-linejoin: miter; stroke-linecap: square"/>
   </g>
   <g id="g1f0015_9859a6_patch_4">
    <path d="M 447 334.8 
L 447 20.016315 
" style="fill: none"/>
   </g>
   <g id="g1f0015_9859a6_patch_5">
    <path d="M 10.8 177.408158 
L 447 177.408158 
" style="fill: none; stroke: #000000; stroke-width: 0.8; stroke-linejoin: miter; stroke-linecap: square"/>
   </g>
   <g id="g1f0015_9859a6_patch_6">
    <path d="M 10.8 20.016315 
L 447 20.016315 
" style="fill: none"/>
   </g>
  </g>
 </g>
 <defs>
  <clipPath id="g1f0015_9859a6_peb44ff77e8">
   <rect x="10.8" y="20.016315" width="436.2" height="314.783685"/>
  </clipPath>
 </defs>
</svg>
