<?xml version="1.0" encoding="utf-8" standalone="no"?>
<!DOCTYPE svg PUBLIC "-//W3C//DTD SVG 1.1//EN"
  "http://www.w3.org/Graphics/SVG/1.1/DTD/svg11.dtd">
<svg xmlns:xlink="http://www.w3.org/1999/xlink" viewBox="0 0 460.8 345.6" xmlns="http://www.w3.org/2000/svg" version="1.1" class="graph-inline-svg" role="img" aria-label="Tilpasset figur">
 <metadata>
  <rdf:RDF xmlns:dc="http://purl.org/dc/elements/1.1/" xmlns:cc="http://creativecommons.org/ns#" xmlns:rdf="http://www.w3.org/1999/02/22-rdf-syntax-ns#">
   <cc:Work>
    <dc:type rdf:resource="http://purl.org/dc/dcmitype/StillImage"/>
    <dc:date>2026-03-27T23:10:38.081643</dc:date>
    <dc:format>image/svg+xml</dc:format>
    <dc:creator>
     <cc:Agent>
      <dc:title>Matplotlib v3.10.8, https://matplotlib.org/</dc:title>
     </cc:Agent>
    </dc:creator>
   </cc:Work>
  </rdf:RDF>
 </metadata>
 <defs>
  <style type="text/css">*{stroke-linejoin: round; stroke-linecap: butt}</style>
 </defs>
 <g id="g1f0008_9bb75e_figure_1">
  <g id="g1f0008_9bb75e_patch_1">
   <path d="M 0 345.6 
L 460.8 345.6 
L 460.8 0 
L 0 0 
L 0 345.6 
z
" style="fill: none"/>
  </g>
  <g id="g1f0008_9bb75e_axes_1">
   <g id="g1f0008_9bb75e_patch_2">
    <path d="M 10.8 334.8 
L 447 334.8 
L 447 20.016315 
L 10.8 20.016315 
L 10.8 334.8 
z
" style="fill: none"/>
   </g>
   <g id="g1f0008_9bb75e_matplotlib.axis_1">
    <g id="g1f0008_9bb75e_xtick_1">
     <g id="g1f0008_9bb75e_line2d_1">
      <path d="M 47.15 334.8 
L 47.15 20.016315 
" clip-path="url(#g1f0008_9bb75e_p1c05120892)" style="fill: none; stroke-dasharray: 2.96,1.28; stroke-dashoffset: 0; stroke: #b0b0b0; stroke-opacity: 0.6; stroke-width: 0.8"/>
     </g>
     <g id="g1f0008_9bb75e_line2d_2">
      <defs>
       <path id="g1f0008_9bb75e_me9c6aa58b3" d="M 0 0 
L 0 3.5 
" style="stroke: #000000; stroke-width: 0.8"/>
      </defs>
      <g>
       <use xlink:href="#g1f0008_9bb75e_me9c6aa58b3" x="47.15" y="177.408158" style="stroke: #000000; stroke-width: 0.8"/>
      </g>
     </g>
     <g id="g1f0008_9bb75e_text_1">
      <!-- $\mathdefault{−5}$ -->
      <g transform="translate(34.832209 198.245154) scale(0.2 -0.2)">
       <defs>
        <path id="g1f0008_9bb75e_CMSY10-0" d="M 4218 1472 
C 4326 1472 4442 1472 4442 1600 
C 4442 1728 4326 1728 4218 1728 
L 755 1728 
C 646 1728 531 1728 531 1600 
C 531 1472 646 1472 755 1472 
L 4218 1472 
z
" transform="scale(0.015625)"/>
        <path id="g1f0008_9bb75e_CMR17-35" d="M 730 3692 
C 794 3666 1056 3584 1325 3584 
C 1920 3584 2246 3911 2432 4100 
C 2432 4157 2432 4192 2394 4192 
C 2387 4192 2374 4192 2323 4163 
C 2099 4058 1837 3973 1517 3973 
C 1325 3973 1037 3999 723 4139 
C 653 4171 640 4171 634 4171 
C 602 4171 595 4164 595 4037 
L 595 2203 
C 595 2089 595 2057 659 2057 
C 691 2057 704 2070 736 2114 
C 941 2401 1222 2522 1542 2522 
C 1766 2522 2246 2382 2246 1289 
C 2246 1085 2246 715 2054 421 
C 1894 159 1645 25 1370 25 
C 947 25 518 320 403 814 
C 429 807 480 795 506 795 
C 589 795 749 840 749 1038 
C 749 1210 627 1280 506 1280 
C 358 1280 262 1190 262 1011 
C 262 454 704 -128 1382 -128 
C 2042 -128 2669 440 2669 1264 
C 2669 2030 2170 2624 1549 2624 
C 1222 2624 947 2503 730 2274 
L 730 3692 
z
" transform="scale(0.015625)"/>
       </defs>
       <use xlink:href="#g1f0008_9bb75e_CMSY10-0" transform="scale(0.996264)"/>
       <use xlink:href="#g1f0008_9bb75e_CMR17-35" transform="translate(77.487468 0) scale(0.996264)"/>
      </g>
     </g>
    </g>
    <g id="g1f0008_9bb75e_xtick_2">
     <g id="g1f0008_9bb75e_line2d_3">
      <path d="M 83.5 334.8 
L 83.5 20.016315 
" clip-path="url(#g1f0008_9bb75e_p1c05120892)" style="fill: none; stroke-dasharray: 2.96,1.28; stroke-dashoffset: 0; stroke: #b0b0b0; stroke-opacity: 0.6; stroke-width: 0.8"/>
     </g>
     <g id="g1f0008_9bb75e_line2d_4">
      <g>
       <use xlink:href="#g1f0008_9bb75e_me9c6aa58b3" x="83.5" y="177.408158" style="stroke: #000000; stroke-width: 0.8"/>
      </g>
     </g>
     <g id="g1f0008_9bb75e_text_2">
      <!-- $\mathdefault{−4}$ -->
      <g transform="translate(71.182209 198.245154) scale(0.2 -0.2)">
       <defs>
        <path id="g1f0008_9bb75e_CMR17-34" d="M 2150 4122 
C 2150 4256 2144 4256 2029 4256 
L 128 1254 
L 128 1088 
L 1779 1088 
L 1779 457 
C 1779 224 1766 160 1318 160 
L 1197 160 
L 1197 0 
C 1402 0 1747 0 1965 0 
C 2182 0 2528 0 2733 0 
L 2733 160 
L 2611 160 
C 2163 160 2150 224 2150 457 
L 2150 1088 
L 2803 1088 
L 2803 1254 
L 2150 1254 
L 2150 4122 
z
M 1798 3703 
L 1798 1254 
L 256 1254 
L 1798 3703 
z
" transform="scale(0.015625)"/>
       </defs>
       <use xlink:href="#g1f0008_9bb75e_CMSY10-0" transform="scale(0.996264)"/>
       <use xlink:href="#g1f0008_9bb75e_CMR17-34" transform="translate(77.487468 0) scale(0.996264)"/>
      </g>
     </g>
    </g>
    <g id="g1f0008_9bb75e_xtick_3">
     <g id="g1f0008_9bb75e_line2d_5">
      <path d="M 119.85 334.8 
L 119.85 20.016315 
" clip-path="url(#g1f0008_9bb75e_p1c05120892)" style="fill: none; stroke-dasharray: 2.96,1.28; stroke-dashoffset: 0; stroke: #b0b0b0; stroke-opacity: 0.6; stroke-width: 0.8"/>
     </g>
     <g id="g1f0008_9bb75e_line2d_6">
      <g>
       <use xlink:href="#g1f0008_9bb75e_me9c6aa58b3" x="119.85" y="177.408158" style="stroke: #000000; stroke-width: 0.8"/>
      </g>
     </g>
     <g id="g1f0008_9bb75e_text_3">
      <!-- $\mathdefault{−3}$ -->
      <g transform="translate(107.532209 198.245154) scale(0.2 -0.2)">
       <defs>
        <path id="g1f0008_9bb75e_CMR17-33" d="M 1414 2157 
C 1984 2157 2234 1662 2234 1090 
C 2234 320 1824 25 1453 25 
C 1114 25 563 194 390 693 
C 422 680 454 680 486 680 
C 640 680 755 782 755 948 
C 755 1133 614 1216 486 1216 
C 378 1216 211 1165 211 926 
C 211 335 787 -128 1466 -128 
C 2176 -128 2720 430 2720 1085 
C 2720 1707 2208 2157 1600 2227 
C 2086 2328 2554 2756 2554 3329 
C 2554 3820 2048 4179 1472 4179 
C 890 4179 378 3829 378 3329 
C 378 3110 544 3072 627 3072 
C 762 3072 877 3155 877 3321 
C 877 3486 762 3569 627 3569 
C 602 3569 570 3569 544 3557 
C 730 3959 1235 4032 1459 4032 
C 1683 4032 2106 3925 2106 3320 
C 2106 3143 2080 2828 1862 2550 
C 1670 2304 1453 2304 1242 2284 
C 1210 2284 1062 2269 1037 2269 
C 992 2263 966 2257 966 2208 
C 966 2163 973 2157 1101 2157 
L 1414 2157 
z
" transform="scale(0.015625)"/>
       </defs>
       <use xlink:href="#g1f0008_9bb75e_CMSY10-0" transform="scale(0.996264)"/>
       <use xlink:href="#g1f0008_9bb75e_CMR17-33" transform="translate(77.487468 0) scale(0.996264)"/>
      </g>
     </g>
    </g>
    <g id="g1f0008_9bb75e_xtick_4">
     <g id="g1f0008_9bb75e_line2d_7">
      <path d="M 156.2 334.8 
L 156.2 20.016315 
" clip-path="url(#g1f0008_9bb75e_p1c05120892)" style="fill: none; stroke-dasharray: 2.96,1.28; stroke-dashoffset: 0; stroke: #b0b0b0; stroke-opacity: 0.6; stroke-width: 0.8"/>
     </g>
     <g id="g1f0008_9bb75e_line2d_8">
      <g>
       <use xlink:href="#g1f0008_9bb75e_me9c6aa58b3" x="156.2" y="177.408158" style="stroke: #000000; stroke-width: 0.8"/>
      </g>
     </g>
     <g id="g1f0008_9bb75e_text_4">
      <!-- $\mathdefault{−2}$ -->
      <g transform="translate(143.882209 198.245154) scale(0.2 -0.2)">
       <defs>
        <path id="g1f0008_9bb75e_CMR17-32" d="M 2669 989 
L 2554 989 
C 2490 536 2438 459 2413 420 
C 2381 369 1920 369 1830 369 
L 602 369 
C 832 619 1280 1072 1824 1597 
C 2214 1967 2669 2402 2669 3035 
C 2669 3790 2067 4224 1395 4224 
C 691 4224 262 3604 262 3030 
C 262 2780 448 2748 525 2748 
C 589 2748 781 2787 781 3010 
C 781 3207 614 3264 525 3264 
C 486 3264 448 3258 422 3245 
C 544 3790 915 4058 1306 4058 
C 1862 4058 2227 3617 2227 3035 
C 2227 2479 1901 2000 1536 1584 
L 262 146 
L 262 0 
L 2515 0 
L 2669 989 
z
" transform="scale(0.015625)"/>
       </defs>
       <use xlink:href="#g1f0008_9bb75e_CMSY10-0" transform="scale(0.996264)"/>
       <use xlink:href="#g1f0008_9bb75e_CMR17-32" transform="translate(77.487468 0) scale(0.996264)"/>
      </g>
     </g>
    </g>
    <g id="g1f0008_9bb75e_xtick_5">
     <g id="g1f0008_9bb75e_line2d_9">
      <path d="M 192.55 334.8 
L 192.55 20.016315 
" clip-path="url(#g1f0008_9bb75e_p1c05120892)" style="fill: none; stroke-dasharray: 2.96,1.28; stroke-dashoffset: 0; stroke: #b0b0b0; stroke-opacity: 0.6; stroke-width: 0.8"/>
     </g>
     <g id="g1f0008_9bb75e_line2d_10">
      <g>
       <use xlink:href="#g1f0008_9bb75e_me9c6aa58b3" x="192.55" y="177.408158" style="stroke: #000000; stroke-width: 0.8"/>
      </g>
     </g>
     <g id="g1f0008_9bb75e_text_5">
      <!-- $\mathdefault{−1}$ -->
      <g transform="translate(180.232209 198.245154) scale(0.2 -0.2)">
       <defs>
        <path id="g1f0008_9bb75e_CMR17-31" d="M 1702 4058 
C 1702 4192 1696 4192 1606 4192 
C 1357 3916 979 3827 621 3827 
C 602 3827 570 3827 563 3808 
C 557 3795 557 3782 557 3648 
C 755 3648 1088 3686 1344 3839 
L 1344 461 
C 1344 236 1331 160 781 160 
L 589 160 
L 589 0 
C 896 0 1216 0 1523 0 
C 1830 0 2150 0 2458 0 
L 2458 160 
L 2266 160 
C 1715 160 1702 230 1702 458 
L 1702 4058 
z
" transform="scale(0.015625)"/>
       </defs>
       <use xlink:href="#g1f0008_9bb75e_CMSY10-0" transform="scale(0.996264)"/>
       <use xlink:href="#g1f0008_9bb75e_CMR17-31" transform="translate(77.487468 0) scale(0.996264)"/>
      </g>
     </g>
    </g>
    <g id="g1f0008_9bb75e_xtick_6">
     <g id="g1f0008_9bb75e_line2d_11">
      <path d="M 265.25 334.8 
L 265.25 20.016315 
" clip-path="url(#g1f0008_9bb75e_p1c05120892)" style="fill: none; stroke-dasharray: 2.96,1.28; stroke-dashoffset: 0; stroke: #b0b0b0; stroke-opacity: 0.6; stroke-width: 0.8"/>
     </g>
     <g id="g1f0008_9bb75e_line2d_12">
      <g>
       <use xlink:href="#g1f0008_9bb75e_me9c6aa58b3" x="265.25" y="177.408158" style="stroke: #000000; stroke-width: 0.8"/>
      </g>
     </g>
     <g id="g1f0008_9bb75e_text_6">
      <!-- $\mathdefault{1}$ -->
      <g transform="translate(260.680952 198.245154) scale(0.2 -0.2)">
       <use xlink:href="#g1f0008_9bb75e_CMR17-31" transform="scale(0.996264)"/>
      </g>
     </g>
    </g>
    <g id="g1f0008_9bb75e_xtick_7">
     <g id="g1f0008_9bb75e_line2d_13">
      <path d="M 301.6 334.8 
L 301.6 20.016315 
" clip-path="url(#g1f0008_9bb75e_p1c05120892)" style="fill: none; stroke-dasharray: 2.96,1.28; stroke-dashoffset: 0; stroke: #b0b0b0; stroke-opacity: 0.6; stroke-width: 0.8"/>
     </g>
     <g id="g1f0008_9bb75e_line2d_14">
      <g>
       <use xlink:href="#g1f0008_9bb75e_me9c6aa58b3" x="301.6" y="177.408158" style="stroke: #000000; stroke-width: 0.8"/>
      </g>
     </g>
     <g id="g1f0008_9bb75e_text_7">
      <!-- $\mathdefault{2}$ -->
      <g transform="translate(297.030952 198.245154) scale(0.2 -0.2)">
       <use xlink:href="#g1f0008_9bb75e_CMR17-32" transform="scale(0.996264)"/>
      </g>
     </g>
    </g>
    <g id="g1f0008_9bb75e_xtick_8">
     <g id="g1f0008_9bb75e_line2d_15">
      <path d="M 337.95 334.8 
L 337.95 20.016315 
" clip-path="url(#g1f0008_9bb75e_p1c05120892)" style="fill: none; stroke-dasharray: 2.96,1.28; stroke-dashoffset: 0; stroke: #b0b0b0; stroke-opacity: 0.6; stroke-width: 0.8"/>
     </g>
     <g id="g1f0008_9bb75e_line2d_16">
      <g>
       <use xlink:href="#g1f0008_9bb75e_me9c6aa58b3" x="337.95" y="177.408158" style="stroke: #000000; stroke-width: 0.8"/>
      </g>
     </g>
     <g id="g1f0008_9bb75e_text_8">
      <!-- $\mathdefault{3}$ -->
      <g transform="translate(333.380952 198.245154) scale(0.2 -0.2)">
       <use xlink:href="#g1f0008_9bb75e_CMR17-33" transform="scale(0.996264)"/>
      </g>
     </g>
    </g>
    <g id="g1f0008_9bb75e_xtick_9">
     <g id="g1f0008_9bb75e_line2d_17">
      <path d="M 374.3 334.8 
L 374.3 20.016315 
" clip-path="url(#g1f0008_9bb75e_p1c05120892)" style="fill: none; stroke-dasharray: 2.96,1.28; stroke-dashoffset: 0; stroke: #b0b0b0; stroke-opacity: 0.6; stroke-width: 0.8"/>
     </g>
     <g id="g1f0008_9bb75e_line2d_18">
      <g>
       <use xlink:href="#g1f0008_9bb75e_me9c6aa58b3" x="374.3" y="177.408158" style="stroke: #000000; stroke-width: 0.8"/>
      </g>
     </g>
     <g id="g1f0008_9bb75e_text_9">
      <!-- $\mathdefault{4}$ -->
      <g transform="translate(369.730952 198.245154) scale(0.2 -0.2)">
       <use xlink:href="#g1f0008_9bb75e_CMR17-34" transform="scale(0.996264)"/>
      </g>
     </g>
    </g>
    <g id="g1f0008_9bb75e_xtick_10">
     <g id="g1f0008_9bb75e_line2d_19">
      <path d="M 410.65 334.8 
L 410.65 20.016315 
" clip-path="url(#g1f0008_9bb75e_p1c05120892)" style="fill: none; stroke-dasharray: 2.96,1.28; stroke-dashoffset: 0; stroke: #b0b0b0; stroke-opacity: 0.6; stroke-width: 0.8"/>
     </g>
     <g id="g1f0008_9bb75e_line2d_20">
      <g>
       <use xlink:href="#g1f0008_9bb75e_me9c6aa58b3" x="410.65" y="177.408158" style="stroke: #000000; stroke-width: 0.8"/>
      </g>
     </g>
     <g id="g1f0008_9bb75e_text_10">
      <!-- $\mathdefault{5}$ -->
      <g transform="translate(406.080952 198.245154) scale(0.2 -0.2)">
       <use xlink:href="#g1f0008_9bb75e_CMR17-35" transform="scale(0.996264)"/>
      </g>
     </g>
    </g>
    <g id="g1f0008_9bb75e_text_11">
     <!-- $x$ -->
     <g transform="translate(435.913188 219.957785) scale(0.2 -0.2)">
      <defs>
       <path id="g1f0008_9bb75e_CMMI12-78" d="M 3034 2606 
C 2829 2567 2752 2414 2752 2293 
C 2752 2139 2874 2088 2963 2088 
C 3155 2088 3290 2254 3290 2427 
C 3290 2695 2982 2816 2714 2816 
C 2323 2816 2106 2433 2048 2312 
C 1901 2816 1504 2816 1389 2816 
C 736 2816 390 1980 390 1839 
C 390 1814 416 1782 461 1782 
C 512 1782 525 1820 538 1846 
C 755 2555 1184 2689 1370 2689 
C 1658 2689 1715 2420 1715 2267 
C 1715 2127 1677 1980 1600 1673 
L 1382 798 
C 1286 415 1101 64 762 64 
C 730 64 570 64 435 147 
C 666 192 717 383 717 460 
C 717 588 621 664 499 664 
C 346 664 179 530 179 326 
C 179 57 480 -64 755 -64 
C 1062 -64 1280 179 1414 441 
C 1517 64 1837 -64 2074 -64 
C 2726 -64 3072 773 3072 913 
C 3072 945 3046 971 3008 971 
C 2950 971 2944 939 2925 888 
C 2752 326 2381 64 2093 64 
C 1869 64 1747 230 1747 492 
C 1747 632 1773 734 1875 1156 
L 2099 2024 
C 2195 2408 2413 2689 2707 2689 
C 2720 2689 2899 2689 3034 2606 
z
" transform="scale(0.015625)"/>
      </defs>
      <use xlink:href="#g1f0008_9bb75e_CMMI12-78" transform="scale(0.996264)"/>
     </g>
    </g>
   </g>
   <g id="g1f0008_9bb75e_matplotlib.axis_2">
    <g id="g1f0008_9bb75e_ytick_1">
     <g id="g1f0008_9bb75e_line2d_21">
      <path d="M 10.8 308.568026 
L 447 308.568026 
" clip-path="url(#g1f0008_9bb75e_p1c05120892)" style="fill: none; stroke-dasharray: 2.96,1.28; stroke-dashoffset: 0; stroke: #b0b0b0; stroke-opacity: 0.6; stroke-width: 0.8"/>
     </g>
     <g id="g1f0008_9bb75e_line2d_22">
      <defs>
       <path id="g1f0008_9bb75e_m386c749350" d="M 0 0 
L -3.5 0 
" style="stroke: #000000; stroke-width: 0.8"/>
      </defs>
      <g>
       <use xlink:href="#g1f0008_9bb75e_m386c749350" x="228.9" y="308.568026" style="stroke: #000000; stroke-width: 0.8"/>
      </g>
     </g>
     <g id="g1f0008_9bb75e_text_12">
      <!-- $\mathdefault{−5}$ -->
      <g transform="translate(197.264417 315.486525) scale(0.2 -0.2)">
       <use xlink:href="#g1f0008_9bb75e_CMSY10-0" transform="scale(0.996264)"/>
       <use xlink:href="#g1f0008_9bb75e_CMR17-35" transform="translate(77.487468 0) scale(0.996264)"/>
      </g>
     </g>
    </g>
    <g id="g1f0008_9bb75e_ytick_2">
     <g id="g1f0008_9bb75e_line2d_23">
      <path d="M 10.8 282.336053 
L 447 282.336053 
" clip-path="url(#g1f0008_9bb75e_p1c05120892)" style="fill: none; stroke-dasharray: 2.96,1.28; stroke-dashoffset: 0; stroke: #b0b0b0; stroke-opacity: 0.6; stroke-width: 0.8"/>
     </g>
     <g id="g1f0008_9bb75e_line2d_24">
      <g>
       <use xlink:href="#g1f0008_9bb75e_m386c749350" x="228.9" y="282.336053" style="stroke: #000000; stroke-width: 0.8"/>
      </g>
     </g>
     <g id="g1f0008_9bb75e_text_13">
      <!-- $\mathdefault{−4}$ -->
      <g transform="translate(197.264417 289.254551) scale(0.2 -0.2)">
       <use xlink:href="#g1f0008_9bb75e_CMSY10-0" transform="scale(0.996264)"/>
       <use xlink:href="#g1f0008_9bb75e_CMR17-34" transform="translate(77.487468 0) scale(0.996264)"/>
      </g>
     </g>
    </g>
    <g id="g1f0008_9bb75e_ytick_3">
     <g id="g1f0008_9bb75e_line2d_25">
      <path d="M 10.8 256.104079 
L 447 256.104079 
" clip-path="url(#g1f0008_9bb75e_p1c05120892)" style="fill: none; stroke-dasharray: 2.96,1.28; stroke-dashoffset: 0; stroke: #b0b0b0; stroke-opacity: 0.6; stroke-width: 0.8"/>
     </g>
     <g id="g1f0008_9bb75e_line2d_26">
      <g>
       <use xlink:href="#g1f0008_9bb75e_m386c749350" x="228.9" y="256.104079" style="stroke: #000000; stroke-width: 0.8"/>
      </g>
     </g>
     <g id="g1f0008_9bb75e_text_14">
      <!-- $\mathdefault{−3}$ -->
      <g transform="translate(197.264417 263.022577) scale(0.2 -0.2)">
       <use xlink:href="#g1f0008_9bb75e_CMSY10-0" transform="scale(0.996264)"/>
       <use xlink:href="#g1f0008_9bb75e_CMR17-33" transform="translate(77.487468 0) scale(0.996264)"/>
      </g>
     </g>
    </g>
    <g id="g1f0008_9bb75e_ytick_4">
     <g id="g1f0008_9bb75e_line2d_27">
      <path d="M 10.8 229.872105 
L 447 229.872105 
" clip-path="url(#g1f0008_9bb75e_p1c05120892)" style="fill: none; stroke-dasharray: 2.96,1.28; stroke-dashoffset: 0; stroke: #b0b0b0; stroke-opacity: 0.6; stroke-width: 0.8"/>
     </g>
     <g id="g1f0008_9bb75e_line2d_28">
      <g>
       <use xlink:href="#g1f0008_9bb75e_m386c749350" x="228.9" y="229.872105" style="stroke: #000000; stroke-width: 0.8"/>
      </g>
     </g>
     <g id="g1f0008_9bb75e_text_15">
      <!-- $\mathdefault{−2}$ -->
      <g transform="translate(197.264417 236.790603) scale(0.2 -0.2)">
       <use xlink:href="#g1f0008_9bb75e_CMSY10-0" transform="scale(0.996264)"/>
       <use xlink:href="#g1f0008_9bb75e_CMR17-32" transform="translate(77.487468 0) scale(0.996264)"/>
      </g>
     </g>
    </g>
    <g id="g1f0008_9bb75e_ytick_5">
     <g id="g1f0008_9bb75e_line2d_29">
      <path d="M 10.8 203.640131 
L 447 203.640131 
" clip-path="url(#g1f0008_9bb75e_p1c05120892)" style="fill: none; stroke-dasharray: 2.96,1.28; stroke-dashoffset: 0; stroke: #b0b0b0; stroke-opacity: 0.6; stroke-width: 0.8"/>
     </g>
     <g id="g1f0008_9bb75e_line2d_30">
      <g>
       <use xlink:href="#g1f0008_9bb75e_m386c749350" x="228.9" y="203.640131" style="stroke: #000000; stroke-width: 0.8"/>
      </g>
     </g>
     <g id="g1f0008_9bb75e_text_16">
      <!-- $\mathdefault{−1}$ -->
      <g transform="translate(197.264417 210.55863) scale(0.2 -0.2)">
       <use xlink:href="#g1f0008_9bb75e_CMSY10-0" transform="scale(0.996264)"/>
       <use xlink:href="#g1f0008_9bb75e_CMR17-31" transform="translate(77.487468 0) scale(0.996264)"/>
      </g>
     </g>
    </g>
    <g id="g1f0008_9bb75e_ytick_6">
     <g id="g1f0008_9bb75e_line2d_31">
      <path d="M 10.8 151.176184 
L 447 151.176184 
" clip-path="url(#g1f0008_9bb75e_p1c05120892)" style="fill: none; stroke-dasharray: 2.96,1.28; stroke-dashoffset: 0; stroke: #b0b0b0; stroke-opacity: 0.6; stroke-width: 0.8"/>
     </g>
     <g id="g1f0008_9bb75e_line2d_32">
      <g>
       <use xlink:href="#g1f0008_9bb75e_m386c749350" x="228.9" y="151.176184" style="stroke: #000000; stroke-width: 0.8"/>
      </g>
     </g>
     <g id="g1f0008_9bb75e_text_17">
      <!-- $\mathdefault{1}$ -->
      <g transform="translate(212.761905 158.094682) scale(0.2 -0.2)">
       <use xlink:href="#g1f0008_9bb75e_CMR17-31" transform="scale(0.996264)"/>
      </g>
     </g>
    </g>
    <g id="g1f0008_9bb75e_ytick_7">
     <g id="g1f0008_9bb75e_line2d_33">
      <path d="M 10.8 124.94421 
L 447 124.94421 
" clip-path="url(#g1f0008_9bb75e_p1c05120892)" style="fill: none; stroke-dasharray: 2.96,1.28; stroke-dashoffset: 0; stroke: #b0b0b0; stroke-opacity: 0.6; stroke-width: 0.8"/>
     </g>
     <g id="g1f0008_9bb75e_line2d_34">
      <g>
       <use xlink:href="#g1f0008_9bb75e_m386c749350" x="228.9" y="124.94421" style="stroke: #000000; stroke-width: 0.8"/>
      </g>
     </g>
     <g id="g1f0008_9bb75e_text_18">
      <!-- $\mathdefault{2}$ -->
      <g transform="translate(212.761905 131.862709) scale(0.2 -0.2)">
       <use xlink:href="#g1f0008_9bb75e_CMR17-32" transform="scale(0.996264)"/>
      </g>
     </g>
    </g>
    <g id="g1f0008_9bb75e_ytick_8">
     <g id="g1f0008_9bb75e_line2d_35">
      <path d="M 10.8 98.712236 
L 447 98.712236 
" clip-path="url(#g1f0008_9bb75e_p1c05120892)" style="fill: none; stroke-dasharray: 2.96,1.28; stroke-dashoffset: 0; stroke: #b0b0b0; stroke-opacity: 0.6; stroke-width: 0.8"/>
     </g>
     <g id="g1f0008_9bb75e_line2d_36">
      <g>
       <use xlink:href="#g1f0008_9bb75e_m386c749350" x="228.9" y="98.712236" style="stroke: #000000; stroke-width: 0.8"/>
      </g>
     </g>
     <g id="g1f0008_9bb75e_text_19">
      <!-- $\mathdefault{3}$ -->
      <g transform="translate(212.761905 105.630735) scale(0.2 -0.2)">
       <use xlink:href="#g1f0008_9bb75e_CMR17-33" transform="scale(0.996264)"/>
      </g>
     </g>
    </g>
    <g id="g1f0008_9bb75e_ytick_9">
     <g id="g1f0008_9bb75e_line2d_37">
      <path d="M 10.8 72.480263 
L 447 72.480263 
" clip-path="url(#g1f0008_9bb75e_p1c05120892)" style="fill: none; stroke-dasharray: 2.96,1.28; stroke-dashoffset: 0; stroke: #b0b0b0; stroke-opacity: 0.6; stroke-width: 0.8"/>
     </g>
     <g id="g1f0008_9bb75e_line2d_38">
      <g>
       <use xlink:href="#g1f0008_9bb75e_m386c749350" x="228.9" y="72.480263" style="stroke: #000000; stroke-width: 0.8"/>
      </g>
     </g>
     <g id="g1f0008_9bb75e_text_20">
      <!-- $\mathdefault{4}$ -->
      <g transform="translate(212.761905 79.398761) scale(0.2 -0.2)">
       <use xlink:href="#g1f0008_9bb75e_CMR17-34" transform="scale(0.996264)"/>
      </g>
     </g>
    </g>
    <g id="g1f0008_9bb75e_ytick_10">
     <g id="g1f0008_9bb75e_line2d_39">
      <path d="M 10.8 46.248289 
L 447 46.248289 
" clip-path="url(#g1f0008_9bb75e_p1c05120892)" style="fill: none; stroke-dasharray: 2.96,1.28; stroke-dashoffset: 0; stroke: #b0b0b0; stroke-opacity: 0.6; stroke-width: 0.8"/>
     </g>
     <g id="g1f0008_9bb75e_line2d_40">
      <g>
       <use xlink:href="#g1f0008_9bb75e_m386c749350" x="228.9" y="46.248289" style="stroke: #000000; stroke-width: 0.8"/>
      </g>
     </g>
     <g id="g1f0008_9bb75e_text_21">
      <!-- $\mathdefault{5}$ -->
      <g transform="translate(212.761905 53.166787) scale(0.2 -0.2)">
       <use xlink:href="#g1f0008_9bb75e_CMR17-35" transform="scale(0.996264)"/>
      </g>
     </g>
    </g>
    <g id="g1f0008_9bb75e_text_22">
     <!-- $y$ -->
     <g transform="translate(183.751583 16.140682) scale(0.2 -0.2)">
      <defs>
       <path id="g1f0008_9bb75e_CMMI12-79" d="M 1683 -700 
C 1510 -939 1261 -1152 947 -1152 
C 870 -1152 563 -1152 467 -889 
C 486 -895 518 -895 531 -895 
C 723 -895 851 -729 851 -582 
C 851 -435 730 -384 634 -384 
C 531 -384 307 -458 307 -759 
C 307 -1071 582 -1286 947 -1286 
C 1587 -1286 2234 -700 2413 6 
L 3040 2485 
C 3046 2517 3059 2556 3059 2594 
C 3059 2689 2982 2753 2886 2753 
C 2829 2753 2694 2727 2643 2535 
L 2170 658 
C 2138 543 2138 530 2086 460 
C 1958 281 1747 64 1440 64 
C 1082 64 1050 415 1050 588 
C 1050 952 1222 1443 1395 1903 
C 1466 2088 1504 2178 1504 2305 
C 1504 2574 1312 2816 998 2816 
C 410 2816 173 1890 173 1839 
C 173 1814 198 1782 243 1782 
C 301 1782 307 1807 333 1897 
C 486 2433 730 2689 979 2689 
C 1037 2689 1146 2689 1146 2478 
C 1146 2312 1075 2127 979 1884 
C 666 1047 666 837 666 683 
C 666 77 1101 -64 1421 -64 
C 1606 -64 1837 -6 2061 230 
L 2067 224 
C 1971 -147 1907 -392 1683 -700 
z
" transform="scale(0.015625)"/>
      </defs>
      <use xlink:href="#g1f0008_9bb75e_CMMI12-79" transform="scale(0.996264)"/>
     </g>
    </g>
   </g>
   <g id="g1f0008_9bb75e_line2d_41">
    <defs>
     <path id="g1f0008_9bb75e_m4411c2fc1c" d="M 3 0 
L -3 -3 
L -3 3 
z
" style="stroke: #000000; stroke-linejoin: miter"/>
    </defs>
    <g>
     <use xlink:href="#g1f0008_9bb75e_m4411c2fc1c" x="447" y="177.408158" style="stroke: #000000; stroke-linejoin: miter"/>
    </g>
   </g>
   <g id="g1f0008_9bb75e_line2d_42">
    <defs>
     <path id="g1f0008_9bb75e_ma2eb36e1b5" d="M 0 -3 
L -3 3 
L 3 3 
z
" style="stroke: #000000; stroke-linejoin: miter"/>
    </defs>
    <g>
     <use xlink:href="#g1f0008_9bb75e_ma2eb36e1b5" x="228.9" y="20.016315" style="stroke: #000000; stroke-linejoin: miter"/>
    </g>
   </g>
   <g id="g1f0008_9bb75e_line2d_43">
    <path d="M 10.8 203.238464 
L 12.930013 203.553132 
L 15.0334 203.63851 
L 17.136788 203.499209 
L 19.240176 203.136421 
L 21.396814 202.535671 
L 23.606702 201.685437 
L 25.896466 200.562476 
L 28.29273 199.135849 
L 30.82212 197.368331 
L 33.564512 195.173483 
L 36.54653 192.494588 
L 39.9013 189.173067 
L 43.895074 184.891371 
L 49.539608 178.479073 
L 58.272661 168.572092 
L 62.319685 164.335372 
L 65.70108 161.107464 
L 68.709723 158.53638 
L 71.452115 156.479682 
L 74.00813 154.836448 
L 76.404395 153.554779 
L 78.694159 152.577617 
L 80.904047 151.873437 
L 83.060685 151.418944 
L 85.164073 151.201076 
L 87.26746 151.207689 
L 89.370848 151.438726 
L 91.500861 151.899358 
L 93.657499 152.594005 
L 95.894012 153.550284 
L 98.210401 154.784125 
L 100.659916 156.344204 
L 103.269181 158.274623 
L 106.091448 160.645586 
L 109.206592 163.560954 
L 112.774364 167.215763 
L 117.19414 172.080705 
L 132.956235 189.736928 
L 136.444131 193.132723 
L 139.506025 195.811353 
L 142.301666 197.966684 
L 144.884307 199.682177 
L 147.307196 201.030516 
L 149.623585 202.068788 
L 151.833474 202.820701 
L 153.990112 203.322895 
L 156.093499 203.587934 
L 158.196887 203.628727 
L 160.300275 203.444924 
L 162.403662 203.038099 
L 164.5603 202.393075 
L 166.770189 201.498809 
L 169.086578 200.31713 
L 171.509467 198.826744 
L 174.092108 196.970577 
L 176.861124 194.700645 
L 179.896393 191.919043 
L 183.357663 188.434463 
L 187.537814 183.893543 
L 194.114228 176.36838 
L 201.010145 168.581477 
L 205.057169 164.344014 
L 208.438564 161.115274 
L 211.447207 158.543304 
L 214.189599 156.485693 
L 216.745614 154.841528 
L 219.141879 153.558928 
L 221.431643 152.580833 
L 223.641531 151.875721 
L 225.798169 151.420298 
L 227.901556 151.201512 
L 230.004944 151.207203 
L 232.108332 151.437321 
L 234.238345 151.897036 
L 236.394983 152.590775 
L 238.631496 153.546142 
L 240.947885 154.779082 
L 243.3974 156.338265 
L 246.006665 158.267806 
L 248.828932 160.637921 
L 251.944076 163.55249 
L 255.511848 167.20658 
L 259.931624 172.070946 
L 275.720344 189.755262 
L 279.20824 193.149347 
L 282.270134 195.826152 
L 285.065775 197.979582 
L 287.648416 199.693144 
L 290.071306 201.039542 
L 292.387695 202.075863 
L 294.597583 202.825846 
L 296.754221 203.326108 
L 298.857608 203.589236 
L 300.960996 203.628106 
L 303.064384 203.442386 
L 305.167771 203.033666 
L 307.324409 202.386737 
L 309.534298 201.49058 
L 311.850687 200.307003 
L 314.273576 198.814743 
L 316.856217 196.95673 
L 319.625233 194.685018 
L 322.660502 191.901731 
L 326.121773 188.415609 
L 330.301923 183.873411 
L 336.904962 176.316905 
L 343.774254 168.561916 
L 347.821278 164.326002 
L 351.202674 161.098997 
L 354.211317 158.528874 
L 356.953708 156.473168 
L 359.509723 154.830943 
L 361.905988 153.550284 
L 364.195752 152.574133 
L 366.40564 151.870964 
L 368.562278 151.417479 
L 370.665666 151.200608 
L 372.769053 151.208221 
L 374.872441 151.440253 
L 377.002454 151.901881 
L 379.159092 152.597513 
L 381.395605 153.554779 
L 383.711994 154.789597 
L 386.161509 156.350647 
L 388.770775 158.282018 
L 391.593042 160.653901 
L 394.708185 163.570135 
L 398.275957 167.225723 
L 402.695733 172.091289 
L 418.431203 189.719329 
L 421.919099 193.116762 
L 424.980992 195.797142 
L 427.776634 197.954297 
L 430.359275 199.671642 
L 432.782164 201.021842 
L 435.098553 202.061986 
L 437.335067 202.82338 
L 439.491705 203.324568 
L 441.595092 203.588613 
L 443.69848 203.628406 
L 445.801868 203.443605 
L 447 203.238464 
L 447 203.238464 
" clip-path="url(#g1f0008_9bb75e_p1c05120892)" style="fill: none; stroke: #0072b2; stroke-width: 2.5; stroke-linecap: square"/>
   </g>
   <g id="g1f0008_9bb75e_patch_3">
    <path d="M 228.9 334.8 
L 228.9 20.016315 
" style="fill: none; stroke: #000000; stroke-width: 0.8; stroke-linejoin: miter; stroke-linecap: square"/>
   </g>
   <g id="g1f0008_9bb75e_patch_4">
    <path d="M 447 334.8 
L 447 20.016315 
" style="fill: none"/>
   </g>
   <g id="g1f0008_9bb75e_patch_5">
    <path d="M 10.8 177.408158 
L 447 177.408158 
" style="fill: none; stroke: #000000; stroke-width: 0.8; stroke-linejoin: miter; stroke-linecap: square"/>
   </g>
   <g id="g1f0008_9bb75e_patch_6">
    <path d="M 10.8 20.016315 
L 447 20.016315 
" style="fill: none"/>
   </g>
  </g>
 </g>
 <defs>
  <clipPath id="g1f0008_9bb75e_p1c05120892">
   <rect x="10.8" y="20.016315" width="436.2" height="314.783685"/>
  </clipPath>
 </defs>
</svg>
