<?xml version="1.0" encoding="utf-8" standalone="no"?>
<!DOCTYPE svg PUBLIC "-//W3C//DTD SVG 1.1//EN"
  "http://www.w3.org/Graphics/SVG/1.1/DTD/svg11.dtd">
<svg xmlns:xlink="http://www.w3.org/1999/xlink" viewBox="0 0 460.8 345.6" xmlns="http://www.w3.org/2000/svg" version="1.1" class="graph-inline-svg" role="img" aria-label="Tilpasset figur">
 <metadata>
  <rdf:RDF xmlns:dc="http://purl.org/dc/elements/1.1/" xmlns:cc="http://creativecommons.org/ns#" xmlns:rdf="http://www.w3.org/1999/02/22-rdf-syntax-ns#">
   <cc:Work>
    <dc:type rdf:resource="http://purl.org/dc/dcmitype/StillImage"/>
    <dc:date>2026-03-27T23:10:39.527339</dc:date>
    <dc:format>image/svg+xml</dc:format>
    <dc:creator>
     <cc:Agent>
      <dc:title>Matplotlib v3.10.8, https://matplotlib.org/</dc:title>
     </cc:Agent>
    </dc:creator>
   </cc:Work>
  </rdf:RDF>
 </metadata>
 <defs>
  <style type="text/css">*{stroke-linejoin: round; stroke-linecap: butt}</style>
 </defs>
 <g id="g1f0020_7ca329_figure_1">
  <g id="g1f0020_7ca329_patch_1">
   <path d="M 0 345.6 
L 460.8 345.6 
L 460.8 0 
L 0 0 
L 0 345.6 
z
" style="fill: none"/>
  </g>
  <g id="g1f0020_7ca329_axes_1">
   <g id="g1f0020_7ca329_patch_2">
    <path d="M 10.8 334.8 
L 447 334.8 
L 447 20.016315 
L 10.8 20.016315 
L 10.8 334.8 
z
" style="fill: none"/>
   </g>
   <g id="g1f0020_7ca329_matplotlib.axis_1">
    <g id="g1f0020_7ca329_xtick_1">
     <g id="g1f0020_7ca329_line2d_1">
      <path d="M 47.15 334.8 
L 47.15 20.016315 
" clip-path="url(#g1f0020_7ca329_pb5039ea041)" style="fill: none; stroke-dasharray: 2.96,1.28; stroke-dashoffset: 0; stroke: #b0b0b0; stroke-opacity: 0.6; stroke-width: 0.8"/>
     </g>
     <g id="g1f0020_7ca329_line2d_2">
      <defs>
       <path id="g1f0020_7ca329_m137d9346a3" d="M 0 0 
L 0 3.5 
" style="stroke: #000000; stroke-width: 0.8"/>
      </defs>
      <g>
       <use xlink:href="#g1f0020_7ca329_m137d9346a3" x="47.15" y="177.408158" style="stroke: #000000; stroke-width: 0.8"/>
      </g>
     </g>
     <g id="g1f0020_7ca329_text_1">
      <!-- $\mathdefault{−5}$ -->
      <g transform="translate(34.832209 198.245154) scale(0.2 -0.2)">
       <defs>
        <path id="g1f0020_7ca329_CMSY10-0" d="M 4218 1472 
C 4326 1472 4442 1472 4442 1600 
C 4442 1728 4326 1728 4218 1728 
L 755 1728 
C 646 1728 531 1728 531 1600 
C 531 1472 646 1472 755 1472 
L 4218 1472 
z
" transform="scale(0.015625)"/>
        <path id="g1f0020_7ca329_CMR17-35" d="M 730 3692 
C 794 3666 1056 3584 1325 3584 
C 1920 3584 2246 3911 2432 4100 
C 2432 4157 2432 4192 2394 4192 
C 2387 4192 2374 4192 2323 4163 
C 2099 4058 1837 3973 1517 3973 
C 1325 3973 1037 3999 723 4139 
C 653 4171 640 4171 634 4171 
C 602 4171 595 4164 595 4037 
L 595 2203 
C 595 2089 595 2057 659 2057 
C 691 2057 704 2070 736 2114 
C 941 2401 1222 2522 1542 2522 
C 1766 2522 2246 2382 2246 1289 
C 2246 1085 2246 715 2054 421 
C 1894 159 1645 25 1370 25 
C 947 25 518 320 403 814 
C 429 807 480 795 506 795 
C 589 795 749 840 749 1038 
C 749 1210 627 1280 506 1280 
C 358 1280 262 1190 262 1011 
C 262 454 704 -128 1382 -128 
C 2042 -128 2669 440 2669 1264 
C 2669 2030 2170 2624 1549 2624 
C 1222 2624 947 2503 730 2274 
L 730 3692 
z
" transform="scale(0.015625)"/>
       </defs>
       <use xlink:href="#g1f0020_7ca329_CMSY10-0" transform="scale(0.996264)"/>
       <use xlink:href="#g1f0020_7ca329_CMR17-35" transform="translate(77.487468 0) scale(0.996264)"/>
      </g>
     </g>
    </g>
    <g id="g1f0020_7ca329_xtick_2">
     <g id="g1f0020_7ca329_line2d_3">
      <path d="M 83.5 334.8 
L 83.5 20.016315 
" clip-path="url(#g1f0020_7ca329_pb5039ea041)" style="fill: none; stroke-dasharray: 2.96,1.28; stroke-dashoffset: 0; stroke: #b0b0b0; stroke-opacity: 0.6; stroke-width: 0.8"/>
     </g>
     <g id="g1f0020_7ca329_line2d_4">
      <g>
       <use xlink:href="#g1f0020_7ca329_m137d9346a3" x="83.5" y="177.408158" style="stroke: #000000; stroke-width: 0.8"/>
      </g>
     </g>
     <g id="g1f0020_7ca329_text_2">
      <!-- $\mathdefault{−4}$ -->
      <g transform="translate(71.182209 198.245154) scale(0.2 -0.2)">
       <defs>
        <path id="g1f0020_7ca329_CMR17-34" d="M 2150 4122 
C 2150 4256 2144 4256 2029 4256 
L 128 1254 
L 128 1088 
L 1779 1088 
L 1779 457 
C 1779 224 1766 160 1318 160 
L 1197 160 
L 1197 0 
C 1402 0 1747 0 1965 0 
C 2182 0 2528 0 2733 0 
L 2733 160 
L 2611 160 
C 2163 160 2150 224 2150 457 
L 2150 1088 
L 2803 1088 
L 2803 1254 
L 2150 1254 
L 2150 4122 
z
M 1798 3703 
L 1798 1254 
L 256 1254 
L 1798 3703 
z
" transform="scale(0.015625)"/>
       </defs>
       <use xlink:href="#g1f0020_7ca329_CMSY10-0" transform="scale(0.996264)"/>
       <use xlink:href="#g1f0020_7ca329_CMR17-34" transform="translate(77.487468 0) scale(0.996264)"/>
      </g>
     </g>
    </g>
    <g id="g1f0020_7ca329_xtick_3">
     <g id="g1f0020_7ca329_line2d_5">
      <path d="M 119.85 334.8 
L 119.85 20.016315 
" clip-path="url(#g1f0020_7ca329_pb5039ea041)" style="fill: none; stroke-dasharray: 2.96,1.28; stroke-dashoffset: 0; stroke: #b0b0b0; stroke-opacity: 0.6; stroke-width: 0.8"/>
     </g>
     <g id="g1f0020_7ca329_line2d_6">
      <g>
       <use xlink:href="#g1f0020_7ca329_m137d9346a3" x="119.85" y="177.408158" style="stroke: #000000; stroke-width: 0.8"/>
      </g>
     </g>
     <g id="g1f0020_7ca329_text_3">
      <!-- $\mathdefault{−3}$ -->
      <g transform="translate(107.532209 198.245154) scale(0.2 -0.2)">
       <defs>
        <path id="g1f0020_7ca329_CMR17-33" d="M 1414 2157 
C 1984 2157 2234 1662 2234 1090 
C 2234 320 1824 25 1453 25 
C 1114 25 563 194 390 693 
C 422 680 454 680 486 680 
C 640 680 755 782 755 948 
C 755 1133 614 1216 486 1216 
C 378 1216 211 1165 211 926 
C 211 335 787 -128 1466 -128 
C 2176 -128 2720 430 2720 1085 
C 2720 1707 2208 2157 1600 2227 
C 2086 2328 2554 2756 2554 3329 
C 2554 3820 2048 4179 1472 4179 
C 890 4179 378 3829 378 3329 
C 378 3110 544 3072 627 3072 
C 762 3072 877 3155 877 3321 
C 877 3486 762 3569 627 3569 
C 602 3569 570 3569 544 3557 
C 730 3959 1235 4032 1459 4032 
C 1683 4032 2106 3925 2106 3320 
C 2106 3143 2080 2828 1862 2550 
C 1670 2304 1453 2304 1242 2284 
C 1210 2284 1062 2269 1037 2269 
C 992 2263 966 2257 966 2208 
C 966 2163 973 2157 1101 2157 
L 1414 2157 
z
" transform="scale(0.015625)"/>
       </defs>
       <use xlink:href="#g1f0020_7ca329_CMSY10-0" transform="scale(0.996264)"/>
       <use xlink:href="#g1f0020_7ca329_CMR17-33" transform="translate(77.487468 0) scale(0.996264)"/>
      </g>
     </g>
    </g>
    <g id="g1f0020_7ca329_xtick_4">
     <g id="g1f0020_7ca329_line2d_7">
      <path d="M 156.2 334.8 
L 156.2 20.016315 
" clip-path="url(#g1f0020_7ca329_pb5039ea041)" style="fill: none; stroke-dasharray: 2.96,1.28; stroke-dashoffset: 0; stroke: #b0b0b0; stroke-opacity: 0.6; stroke-width: 0.8"/>
     </g>
     <g id="g1f0020_7ca329_line2d_8">
      <g>
       <use xlink:href="#g1f0020_7ca329_m137d9346a3" x="156.2" y="177.408158" style="stroke: #000000; stroke-width: 0.8"/>
      </g>
     </g>
     <g id="g1f0020_7ca329_text_4">
      <!-- $\mathdefault{−2}$ -->
      <g transform="translate(143.882209 198.245154) scale(0.2 -0.2)">
       <defs>
        <path id="g1f0020_7ca329_CMR17-32" d="M 2669 989 
L 2554 989 
C 2490 536 2438 459 2413 420 
C 2381 369 1920 369 1830 369 
L 602 369 
C 832 619 1280 1072 1824 1597 
C 2214 1967 2669 2402 2669 3035 
C 2669 3790 2067 4224 1395 4224 
C 691 4224 262 3604 262 3030 
C 262 2780 448 2748 525 2748 
C 589 2748 781 2787 781 3010 
C 781 3207 614 3264 525 3264 
C 486 3264 448 3258 422 3245 
C 544 3790 915 4058 1306 4058 
C 1862 4058 2227 3617 2227 3035 
C 2227 2479 1901 2000 1536 1584 
L 262 146 
L 262 0 
L 2515 0 
L 2669 989 
z
" transform="scale(0.015625)"/>
       </defs>
       <use xlink:href="#g1f0020_7ca329_CMSY10-0" transform="scale(0.996264)"/>
       <use xlink:href="#g1f0020_7ca329_CMR17-32" transform="translate(77.487468 0) scale(0.996264)"/>
      </g>
     </g>
    </g>
    <g id="g1f0020_7ca329_xtick_5">
     <g id="g1f0020_7ca329_line2d_9">
      <path d="M 192.55 334.8 
L 192.55 20.016315 
" clip-path="url(#g1f0020_7ca329_pb5039ea041)" style="fill: none; stroke-dasharray: 2.96,1.28; stroke-dashoffset: 0; stroke: #b0b0b0; stroke-opacity: 0.6; stroke-width: 0.8"/>
     </g>
     <g id="g1f0020_7ca329_line2d_10">
      <g>
       <use xlink:href="#g1f0020_7ca329_m137d9346a3" x="192.55" y="177.408158" style="stroke: #000000; stroke-width: 0.8"/>
      </g>
     </g>
     <g id="g1f0020_7ca329_text_5">
      <!-- $\mathdefault{−1}$ -->
      <g transform="translate(180.232209 198.245154) scale(0.2 -0.2)">
       <defs>
        <path id="g1f0020_7ca329_CMR17-31" d="M 1702 4058 
C 1702 4192 1696 4192 1606 4192 
C 1357 3916 979 3827 621 3827 
C 602 3827 570 3827 563 3808 
C 557 3795 557 3782 557 3648 
C 755 3648 1088 3686 1344 3839 
L 1344 461 
C 1344 236 1331 160 781 160 
L 589 160 
L 589 0 
C 896 0 1216 0 1523 0 
C 1830 0 2150 0 2458 0 
L 2458 160 
L 2266 160 
C 1715 160 1702 230 1702 458 
L 1702 4058 
z
" transform="scale(0.015625)"/>
       </defs>
       <use xlink:href="#g1f0020_7ca329_CMSY10-0" transform="scale(0.996264)"/>
       <use xlink:href="#g1f0020_7ca329_CMR17-31" transform="translate(77.487468 0) scale(0.996264)"/>
      </g>
     </g>
    </g>
    <g id="g1f0020_7ca329_xtick_6">
     <g id="g1f0020_7ca329_line2d_11">
      <path d="M 265.25 334.8 
L 265.25 20.016315 
" clip-path="url(#g1f0020_7ca329_pb5039ea041)" style="fill: none; stroke-dasharray: 2.96,1.28; stroke-dashoffset: 0; stroke: #b0b0b0; stroke-opacity: 0.6; stroke-width: 0.8"/>
     </g>
     <g id="g1f0020_7ca329_line2d_12">
      <g>
       <use xlink:href="#g1f0020_7ca329_m137d9346a3" x="265.25" y="177.408158" style="stroke: #000000; stroke-width: 0.8"/>
      </g>
     </g>
     <g id="g1f0020_7ca329_text_6">
      <!-- $\mathdefault{1}$ -->
      <g transform="translate(260.680952 198.245154) scale(0.2 -0.2)">
       <use xlink:href="#g1f0020_7ca329_CMR17-31" transform="scale(0.996264)"/>
      </g>
     </g>
    </g>
    <g id="g1f0020_7ca329_xtick_7">
     <g id="g1f0020_7ca329_line2d_13">
      <path d="M 301.6 334.8 
L 301.6 20.016315 
" clip-path="url(#g1f0020_7ca329_pb5039ea041)" style="fill: none; stroke-dasharray: 2.96,1.28; stroke-dashoffset: 0; stroke: #b0b0b0; stroke-opacity: 0.6; stroke-width: 0.8"/>
     </g>
     <g id="g1f0020_7ca329_line2d_14">
      <g>
       <use xlink:href="#g1f0020_7ca329_m137d9346a3" x="301.6" y="177.408158" style="stroke: #000000; stroke-width: 0.8"/>
      </g>
     </g>
     <g id="g1f0020_7ca329_text_7">
      <!-- $\mathdefault{2}$ -->
      <g transform="translate(297.030952 198.245154) scale(0.2 -0.2)">
       <use xlink:href="#g1f0020_7ca329_CMR17-32" transform="scale(0.996264)"/>
      </g>
     </g>
    </g>
    <g id="g1f0020_7ca329_xtick_8">
     <g id="g1f0020_7ca329_line2d_15">
      <path d="M 337.95 334.8 
L 337.95 20.016315 
" clip-path="url(#g1f0020_7ca329_pb5039ea041)" style="fill: none; stroke-dasharray: 2.96,1.28; stroke-dashoffset: 0; stroke: #b0b0b0; stroke-opacity: 0.6; stroke-width: 0.8"/>
     </g>
     <g id="g1f0020_7ca329_line2d_16">
      <g>
       <use xlink:href="#g1f0020_7ca329_m137d9346a3" x="337.95" y="177.408158" style="stroke: #000000; stroke-width: 0.8"/>
      </g>
     </g>
     <g id="g1f0020_7ca329_text_8">
      <!-- $\mathdefault{3}$ -->
      <g transform="translate(333.380952 198.245154) scale(0.2 -0.2)">
       <use xlink:href="#g1f0020_7ca329_CMR17-33" transform="scale(0.996264)"/>
      </g>
     </g>
    </g>
    <g id="g1f0020_7ca329_xtick_9">
     <g id="g1f0020_7ca329_line2d_17">
      <path d="M 374.3 334.8 
L 374.3 20.016315 
" clip-path="url(#g1f0020_7ca329_pb5039ea041)" style="fill: none; stroke-dasharray: 2.96,1.28; stroke-dashoffset: 0; stroke: #b0b0b0; stroke-opacity: 0.6; stroke-width: 0.8"/>
     </g>
     <g id="g1f0020_7ca329_line2d_18">
      <g>
       <use xlink:href="#g1f0020_7ca329_m137d9346a3" x="374.3" y="177.408158" style="stroke: #000000; stroke-width: 0.8"/>
      </g>
     </g>
     <g id="g1f0020_7ca329_text_9">
      <!-- $\mathdefault{4}$ -->
      <g transform="translate(369.730952 198.245154) scale(0.2 -0.2)">
       <use xlink:href="#g1f0020_7ca329_CMR17-34" transform="scale(0.996264)"/>
      </g>
     </g>
    </g>
    <g id="g1f0020_7ca329_xtick_10">
     <g id="g1f0020_7ca329_line2d_19">
      <path d="M 410.65 334.8 
L 410.65 20.016315 
" clip-path="url(#g1f0020_7ca329_pb5039ea041)" style="fill: none; stroke-dasharray: 2.96,1.28; stroke-dashoffset: 0; stroke: #b0b0b0; stroke-opacity: 0.6; stroke-width: 0.8"/>
     </g>
     <g id="g1f0020_7ca329_line2d_20">
      <g>
       <use xlink:href="#g1f0020_7ca329_m137d9346a3" x="410.65" y="177.408158" style="stroke: #000000; stroke-width: 0.8"/>
      </g>
     </g>
     <g id="g1f0020_7ca329_text_10">
      <!-- $\mathdefault{5}$ -->
      <g transform="translate(406.080952 198.245154) scale(0.2 -0.2)">
       <use xlink:href="#g1f0020_7ca329_CMR17-35" transform="scale(0.996264)"/>
      </g>
     </g>
    </g>
    <g id="g1f0020_7ca329_text_11">
     <!-- $x$ -->
     <g transform="translate(435.913188 219.957785) scale(0.2 -0.2)">
      <defs>
       <path id="g1f0020_7ca329_CMMI12-78" d="M 3034 2606 
C 2829 2567 2752 2414 2752 2293 
C 2752 2139 2874 2088 2963 2088 
C 3155 2088 3290 2254 3290 2427 
C 3290 2695 2982 2816 2714 2816 
C 2323 2816 2106 2433 2048 2312 
C 1901 2816 1504 2816 1389 2816 
C 736 2816 390 1980 390 1839 
C 390 1814 416 1782 461 1782 
C 512 1782 525 1820 538 1846 
C 755 2555 1184 2689 1370 2689 
C 1658 2689 1715 2420 1715 2267 
C 1715 2127 1677 1980 1600 1673 
L 1382 798 
C 1286 415 1101 64 762 64 
C 730 64 570 64 435 147 
C 666 192 717 383 717 460 
C 717 588 621 664 499 664 
C 346 664 179 530 179 326 
C 179 57 480 -64 755 -64 
C 1062 -64 1280 179 1414 441 
C 1517 64 1837 -64 2074 -64 
C 2726 -64 3072 773 3072 913 
C 3072 945 3046 971 3008 971 
C 2950 971 2944 939 2925 888 
C 2752 326 2381 64 2093 64 
C 1869 64 1747 230 1747 492 
C 1747 632 1773 734 1875 1156 
L 2099 2024 
C 2195 2408 2413 2689 2707 2689 
C 2720 2689 2899 2689 3034 2606 
z
" transform="scale(0.015625)"/>
      </defs>
      <use xlink:href="#g1f0020_7ca329_CMMI12-78" transform="scale(0.996264)"/>
     </g>
    </g>
   </g>
   <g id="g1f0020_7ca329_matplotlib.axis_2">
    <g id="g1f0020_7ca329_ytick_1">
     <g id="g1f0020_7ca329_line2d_21">
      <path d="M 10.8 308.568026 
L 447 308.568026 
" clip-path="url(#g1f0020_7ca329_pb5039ea041)" style="fill: none; stroke-dasharray: 2.96,1.28; stroke-dashoffset: 0; stroke: #b0b0b0; stroke-opacity: 0.6; stroke-width: 0.8"/>
     </g>
     <g id="g1f0020_7ca329_line2d_22">
      <defs>
       <path id="g1f0020_7ca329_me070457b92" d="M 0 0 
L -3.5 0 
" style="stroke: #000000; stroke-width: 0.8"/>
      </defs>
      <g>
       <use xlink:href="#g1f0020_7ca329_me070457b92" x="228.9" y="308.568026" style="stroke: #000000; stroke-width: 0.8"/>
      </g>
     </g>
     <g id="g1f0020_7ca329_text_12">
      <!-- $\mathdefault{−5}$ -->
      <g transform="translate(197.264417 315.486525) scale(0.2 -0.2)">
       <use xlink:href="#g1f0020_7ca329_CMSY10-0" transform="scale(0.996264)"/>
       <use xlink:href="#g1f0020_7ca329_CMR17-35" transform="translate(77.487468 0) scale(0.996264)"/>
      </g>
     </g>
    </g>
    <g id="g1f0020_7ca329_ytick_2">
     <g id="g1f0020_7ca329_line2d_23">
      <path d="M 10.8 282.336053 
L 447 282.336053 
" clip-path="url(#g1f0020_7ca329_pb5039ea041)" style="fill: none; stroke-dasharray: 2.96,1.28; stroke-dashoffset: 0; stroke: #b0b0b0; stroke-opacity: 0.6; stroke-width: 0.8"/>
     </g>
     <g id="g1f0020_7ca329_line2d_24">
      <g>
       <use xlink:href="#g1f0020_7ca329_me070457b92" x="228.9" y="282.336053" style="stroke: #000000; stroke-width: 0.8"/>
      </g>
     </g>
     <g id="g1f0020_7ca329_text_13">
      <!-- $\mathdefault{−4}$ -->
      <g transform="translate(197.264417 289.254551) scale(0.2 -0.2)">
       <use xlink:href="#g1f0020_7ca329_CMSY10-0" transform="scale(0.996264)"/>
       <use xlink:href="#g1f0020_7ca329_CMR17-34" transform="translate(77.487468 0) scale(0.996264)"/>
      </g>
     </g>
    </g>
    <g id="g1f0020_7ca329_ytick_3">
     <g id="g1f0020_7ca329_line2d_25">
      <path d="M 10.8 256.104079 
L 447 256.104079 
" clip-path="url(#g1f0020_7ca329_pb5039ea041)" style="fill: none; stroke-dasharray: 2.96,1.28; stroke-dashoffset: 0; stroke: #b0b0b0; stroke-opacity: 0.6; stroke-width: 0.8"/>
     </g>
     <g id="g1f0020_7ca329_line2d_26">
      <g>
       <use xlink:href="#g1f0020_7ca329_me070457b92" x="228.9" y="256.104079" style="stroke: #000000; stroke-width: 0.8"/>
      </g>
     </g>
     <g id="g1f0020_7ca329_text_14">
      <!-- $\mathdefault{−3}$ -->
      <g transform="translate(197.264417 263.022577) scale(0.2 -0.2)">
       <use xlink:href="#g1f0020_7ca329_CMSY10-0" transform="scale(0.996264)"/>
       <use xlink:href="#g1f0020_7ca329_CMR17-33" transform="translate(77.487468 0) scale(0.996264)"/>
      </g>
     </g>
    </g>
    <g id="g1f0020_7ca329_ytick_4">
     <g id="g1f0020_7ca329_line2d_27">
      <path d="M 10.8 229.872105 
L 447 229.872105 
" clip-path="url(#g1f0020_7ca329_pb5039ea041)" style="fill: none; stroke-dasharray: 2.96,1.28; stroke-dashoffset: 0; stroke: #b0b0b0; stroke-opacity: 0.6; stroke-width: 0.8"/>
     </g>
     <g id="g1f0020_7ca329_line2d_28">
      <g>
       <use xlink:href="#g1f0020_7ca329_me070457b92" x="228.9" y="229.872105" style="stroke: #000000; stroke-width: 0.8"/>
      </g>
     </g>
     <g id="g1f0020_7ca329_text_15">
      <!-- $\mathdefault{−2}$ -->
      <g transform="translate(197.264417 236.790603) scale(0.2 -0.2)">
       <use xlink:href="#g1f0020_7ca329_CMSY10-0" transform="scale(0.996264)"/>
       <use xlink:href="#g1f0020_7ca329_CMR17-32" transform="translate(77.487468 0) scale(0.996264)"/>
      </g>
     </g>
    </g>
    <g id="g1f0020_7ca329_ytick_5">
     <g id="g1f0020_7ca329_line2d_29">
      <path d="M 10.8 203.640131 
L 447 203.640131 
" clip-path="url(#g1f0020_7ca329_pb5039ea041)" style="fill: none; stroke-dasharray: 2.96,1.28; stroke-dashoffset: 0; stroke: #b0b0b0; stroke-opacity: 0.6; stroke-width: 0.8"/>
     </g>
     <g id="g1f0020_7ca329_line2d_30">
      <g>
       <use xlink:href="#g1f0020_7ca329_me070457b92" x="228.9" y="203.640131" style="stroke: #000000; stroke-width: 0.8"/>
      </g>
     </g>
     <g id="g1f0020_7ca329_text_16">
      <!-- $\mathdefault{−1}$ -->
      <g transform="translate(197.264417 210.55863) scale(0.2 -0.2)">
       <use xlink:href="#g1f0020_7ca329_CMSY10-0" transform="scale(0.996264)"/>
       <use xlink:href="#g1f0020_7ca329_CMR17-31" transform="translate(77.487468 0) scale(0.996264)"/>
      </g>
     </g>
    </g>
    <g id="g1f0020_7ca329_ytick_6">
     <g id="g1f0020_7ca329_line2d_31">
      <path d="M 10.8 151.176184 
L 447 151.176184 
" clip-path="url(#g1f0020_7ca329_pb5039ea041)" style="fill: none; stroke-dasharray: 2.96,1.28; stroke-dashoffset: 0; stroke: #b0b0b0; stroke-opacity: 0.6; stroke-width: 0.8"/>
     </g>
     <g id="g1f0020_7ca329_line2d_32">
      <g>
       <use xlink:href="#g1f0020_7ca329_me070457b92" x="228.9" y="151.176184" style="stroke: #000000; stroke-width: 0.8"/>
      </g>
     </g>
     <g id="g1f0020_7ca329_text_17">
      <!-- $\mathdefault{1}$ -->
      <g transform="translate(212.761905 158.094682) scale(0.2 -0.2)">
       <use xlink:href="#g1f0020_7ca329_CMR17-31" transform="scale(0.996264)"/>
      </g>
     </g>
    </g>
    <g id="g1f0020_7ca329_ytick_7">
     <g id="g1f0020_7ca329_line2d_33">
      <path d="M 10.8 124.94421 
L 447 124.94421 
" clip-path="url(#g1f0020_7ca329_pb5039ea041)" style="fill: none; stroke-dasharray: 2.96,1.28; stroke-dashoffset: 0; stroke: #b0b0b0; stroke-opacity: 0.6; stroke-width: 0.8"/>
     </g>
     <g id="g1f0020_7ca329_line2d_34">
      <g>
       <use xlink:href="#g1f0020_7ca329_me070457b92" x="228.9" y="124.94421" style="stroke: #000000; stroke-width: 0.8"/>
      </g>
     </g>
     <g id="g1f0020_7ca329_text_18">
      <!-- $\mathdefault{2}$ -->
      <g transform="translate(212.761905 131.862709) scale(0.2 -0.2)">
       <use xlink:href="#g1f0020_7ca329_CMR17-32" transform="scale(0.996264)"/>
      </g>
     </g>
    </g>
    <g id="g1f0020_7ca329_ytick_8">
     <g id="g1f0020_7ca329_line2d_35">
      <path d="M 10.8 98.712236 
L 447 98.712236 
" clip-path="url(#g1f0020_7ca329_pb5039ea041)" style="fill: none; stroke-dasharray: 2.96,1.28; stroke-dashoffset: 0; stroke: #b0b0b0; stroke-opacity: 0.6; stroke-width: 0.8"/>
     </g>
     <g id="g1f0020_7ca329_line2d_36">
      <g>
       <use xlink:href="#g1f0020_7ca329_me070457b92" x="228.9" y="98.712236" style="stroke: #000000; stroke-width: 0.8"/>
      </g>
     </g>
     <g id="g1f0020_7ca329_text_19">
      <!-- $\mathdefault{3}$ -->
      <g transform="translate(212.761905 105.630735) scale(0.2 -0.2)">
       <use xlink:href="#g1f0020_7ca329_CMR17-33" transform="scale(0.996264)"/>
      </g>
     </g>
    </g>
    <g id="g1f0020_7ca329_ytick_9">
     <g id="g1f0020_7ca329_line2d_37">
      <path d="M 10.8 72.480263 
L 447 72.480263 
" clip-path="url(#g1f0020_7ca329_pb5039ea041)" style="fill: none; stroke-dasharray: 2.96,1.28; stroke-dashoffset: 0; stroke: #b0b0b0; stroke-opacity: 0.6; stroke-width: 0.8"/>
     </g>
     <g id="g1f0020_7ca329_line2d_38">
      <g>
       <use xlink:href="#g1f0020_7ca329_me070457b92" x="228.9" y="72.480263" style="stroke: #000000; stroke-width: 0.8"/>
      </g>
     </g>
     <g id="g1f0020_7ca329_text_20">
      <!-- $\mathdefault{4}$ -->
      <g transform="translate(212.761905 79.398761) scale(0.2 -0.2)">
       <use xlink:href="#g1f0020_7ca329_CMR17-34" transform="scale(0.996264)"/>
      </g>
     </g>
    </g>
    <g id="g1f0020_7ca329_ytick_10">
     <g id="g1f0020_7ca329_line2d_39">
      <path d="M 10.8 46.248289 
L 447 46.248289 
" clip-path="url(#g1f0020_7ca329_pb5039ea041)" style="fill: none; stroke-dasharray: 2.96,1.28; stroke-dashoffset: 0; stroke: #b0b0b0; stroke-opacity: 0.6; stroke-width: 0.8"/>
     </g>
     <g id="g1f0020_7ca329_line2d_40">
      <g>
       <use xlink:href="#g1f0020_7ca329_me070457b92" x="228.9" y="46.248289" style="stroke: #000000; stroke-width: 0.8"/>
      </g>
     </g>
     <g id="g1f0020_7ca329_text_21">
      <!-- $\mathdefault{5}$ -->
      <g transform="translate(212.761905 53.166787) scale(0.2 -0.2)">
       <use xlink:href="#g1f0020_7ca329_CMR17-35" transform="scale(0.996264)"/>
      </g>
     </g>
    </g>
    <g id="g1f0020_7ca329_text_22">
     <!-- $y$ -->
     <g transform="translate(183.751583 16.140682) scale(0.2 -0.2)">
      <defs>
       <path id="g1f0020_7ca329_CMMI12-79" d="M 1683 -700 
C 1510 -939 1261 -1152 947 -1152 
C 870 -1152 563 -1152 467 -889 
C 486 -895 518 -895 531 -895 
C 723 -895 851 -729 851 -582 
C 851 -435 730 -384 634 -384 
C 531 -384 307 -458 307 -759 
C 307 -1071 582 -1286 947 -1286 
C 1587 -1286 2234 -700 2413 6 
L 3040 2485 
C 3046 2517 3059 2556 3059 2594 
C 3059 2689 2982 2753 2886 2753 
C 2829 2753 2694 2727 2643 2535 
L 2170 658 
C 2138 543 2138 530 2086 460 
C 1958 281 1747 64 1440 64 
C 1082 64 1050 415 1050 588 
C 1050 952 1222 1443 1395 1903 
C 1466 2088 1504 2178 1504 2305 
C 1504 2574 1312 2816 998 2816 
C 410 2816 173 1890 173 1839 
C 173 1814 198 1782 243 1782 
C 301 1782 307 1807 333 1897 
C 486 2433 730 2689 979 2689 
C 1037 2689 1146 2689 1146 2478 
C 1146 2312 1075 2127 979 1884 
C 666 1047 666 837 666 683 
C 666 77 1101 -64 1421 -64 
C 1606 -64 1837 -6 2061 230 
L 2067 224 
C 1971 -147 1907 -392 1683 -700 
z
" transform="scale(0.015625)"/>
      </defs>
      <use xlink:href="#g1f0020_7ca329_CMMI12-79" transform="scale(0.996264)"/>
     </g>
    </g>
   </g>
   <g id="g1f0020_7ca329_line2d_41">
    <defs>
     <path id="g1f0020_7ca329_m217c5e5238" d="M 3 0 
L -3 -3 
L -3 3 
z
" style="stroke: #000000; stroke-linejoin: miter"/>
    </defs>
    <g>
     <use xlink:href="#g1f0020_7ca329_m217c5e5238" x="447" y="177.408158" style="stroke: #000000; stroke-linejoin: miter"/>
    </g>
   </g>
   <g id="g1f0020_7ca329_line2d_42">
    <defs>
     <path id="g1f0020_7ca329_m946d7bc3c4" d="M 0 -3 
L -3 3 
L 3 3 
z
" style="stroke: #000000; stroke-linejoin: miter"/>
    </defs>
    <g>
     <use xlink:href="#g1f0020_7ca329_m946d7bc3c4" x="228.9" y="20.016315" style="stroke: #000000; stroke-linejoin: miter"/>
    </g>
   </g>
   <g id="g1f0020_7ca329_line2d_43">
    <path d="M 10.8 166.281105 
L 13.196264 172.857306 
L 19.426552 190.241968 
L 21.290313 194.632274 
L 22.834572 197.730133 
L 24.16583 199.933691 
L 25.363963 201.505456 
L 26.428969 202.552126 
L 27.387475 203.19951 
L 28.29273 203.547795 
L 29.144735 203.638865 
L 29.970115 203.507367 
L 30.82212 203.145979 
L 31.727376 202.514402 
L 32.712507 201.544526 
L 33.804138 200.139416 
L 35.002271 198.221001 
L 36.360154 195.612128 
L 37.931038 192.092155 
L 39.84805 187.215152 
L 42.537191 179.693919 
L 47.38297 166.092996 
L 49.353232 161.266958 
L 50.977367 157.848099 
L 52.361875 155.421957 
L 53.586632 153.698801 
L 54.678264 152.524595 
L 55.663395 151.772436 
L 56.56865 151.346466 
L 57.420656 151.181561 
L 58.246036 151.24149 
L 59.098041 151.529591 
L 59.976671 152.064726 
L 60.935177 152.918266 
L 61.973558 154.149731 
L 63.145065 155.902261 
L 64.449698 158.272487 
L 65.940707 161.460197 
L 67.724593 165.828707 
L 70.040982 172.137865 
L 76.803772 190.937644 
L 78.614283 195.117922 
L 80.131917 198.08828 
L 81.463175 200.222502 
L 82.634682 201.697609 
L 83.673064 202.668718 
L 84.631569 203.272929 
L 85.5102 203.574354 
L 86.362205 203.633239 
L 87.187585 203.470606 
L 88.03959 203.0774 
L 88.944845 202.412682 
L 89.929976 201.407898 
L 91.021608 199.965997 
L 92.246365 197.962432 
L 93.630873 195.250828 
L 95.228383 191.612918 
L 97.198645 186.536391 
L 100.074162 178.430716 
L 104.334188 166.477885 
L 106.3577 161.481659 
L 107.981835 158.029902 
L 109.392968 155.528607 
L 110.617726 153.782641 
L 111.709357 152.58681 
L 112.721113 151.797617 
L 113.626369 151.360102 
L 114.478374 151.184205 
L 115.303754 151.233462 
L 116.155759 151.510618 
L 117.034389 152.034641 
L 117.992895 152.876383 
L 119.031276 154.095596 
L 120.176158 155.791527 
L 121.480791 158.140029 
L 122.9718 161.306271 
L 124.729061 165.585914 
L 127.018824 171.797303 
L 134.047867 191.296084 
L 135.831752 195.369851 
L 137.322761 198.251297 
L 138.627394 200.315609 
L 139.798901 201.768672 
L 140.837283 202.719245 
L 141.795788 203.303908 
L 142.674419 203.587105 
L 143.526424 203.6282 
L 144.378429 203.438986 
L 145.257059 203.004418 
L 146.18894 202.282375 
L 147.200696 201.202859 
L 148.318953 199.667576 
L 149.570335 197.551669 
L 150.981469 194.710486 
L 152.632229 190.863908 
L 154.682366 185.485874 
L 157.983886 176.089699 
L 161.445157 166.445036 
L 163.468669 161.452952 
L 165.092804 158.005557 
L 166.503937 155.508688 
L 167.728694 153.766955 
L 168.820326 152.575139 
L 169.805457 151.806456 
L 170.710712 151.364945 
L 171.562717 151.185243 
L 172.388097 151.230805 
L 173.240103 151.504169 
L 174.118733 152.024342 
L 175.077239 152.861995 
L 176.11562 154.07696 
L 177.260502 155.768491 
L 178.565135 158.112427 
L 180.056144 161.274153 
L 181.813404 165.549587 
L 184.076543 171.682515 
L 191.185461 191.391821 
L 192.969346 195.45204 
L 194.460355 198.319716 
L 195.764988 200.370456 
L 196.90987 201.782057 
L 197.948251 202.728714 
L 198.906757 203.309652 
L 199.785387 203.589378 
L 200.637392 203.627085 
L 201.489398 203.434494 
L 202.368028 202.996484 
L 203.299908 202.270873 
L 204.311665 201.187621 
L 205.429921 199.64843 
L 206.681304 197.528495 
L 208.092437 194.683301 
L 209.743197 190.832866 
L 211.793335 185.451476 
L 215.094854 176.0536 
L 218.556125 166.412208 
L 220.553012 161.485285 
L 222.177147 158.032978 
L 223.588281 155.531125 
L 224.813038 153.784624 
L 225.931295 152.563516 
L 226.916426 151.798605 
L 227.821681 151.360642 
L 228.673686 151.184318 
L 229.499066 151.233161 
L 230.351071 151.509892 
L 231.229702 152.033484 
L 232.188207 152.874767 
L 233.226589 154.093504 
L 234.37147 155.788942 
L 235.676103 158.136933 
L 237.167112 161.302669 
L 238.924373 165.581841 
L 241.214137 171.792846 
L 248.243179 191.292213 
L 250.027065 195.366525 
L 251.518074 198.248526 
L 252.822706 200.313385 
L 253.994214 201.766979 
L 255.032595 202.718046 
L 255.991101 203.303179 
L 256.869731 203.586815 
L 257.721736 203.628338 
L 258.573741 203.43955 
L 259.452371 203.005416 
L 260.384252 202.283823 
L 261.396008 201.204779 
L 262.514265 199.66999 
L 263.765647 197.554592 
L 265.176781 194.713915 
L 266.827541 190.867824 
L 268.877678 185.490215 
L 272.152573 176.171022 
L 275.640469 166.449181 
L 277.663981 161.456574 
L 279.288116 158.008629 
L 280.699249 155.5112 
L 281.924007 153.768933 
L 283.015638 152.57661 
L 284.000769 151.807451 
L 284.906025 151.365492 
L 285.75803 151.185363 
L 286.58341 151.230511 
L 287.435415 151.50345 
L 288.314045 152.023192 
L 289.272551 152.860386 
L 290.310932 154.074874 
L 291.455814 155.765912 
L 292.760447 158.109336 
L 294.251456 161.270555 
L 296.008716 165.545517 
L 298.271855 171.678062 
L 305.407398 191.452933 
L 307.164658 195.448728 
L 308.655667 198.316961 
L 309.9603 200.36825 
L 311.105182 201.78037 
L 312.143563 202.727522 
L 313.102069 203.30893 
L 313.9807 203.589094 
L 314.832705 203.627229 
L 315.68471 203.435064 
L 316.56334 202.997488 
L 317.495221 202.272327 
L 318.506977 201.189547 
L 319.625233 199.650849 
L 320.876616 197.531423 
L 322.287749 194.686734 
L 323.938509 190.836786 
L 325.988647 185.455819 
L 329.290167 176.058157 
L 332.751437 166.416351 
L 334.77495 161.427894 
L 336.399084 157.984316 
L 337.810218 155.491317 
L 339.034975 153.753286 
L 340.126607 152.564981 
L 341.111738 151.799593 
L 342.016993 151.361182 
L 342.868998 151.184432 
L 343.694378 151.232861 
L 344.546383 151.509167 
L 345.425014 152.032327 
L 346.38352 152.873152 
L 347.421901 154.091413 
L 348.566783 155.786358 
L 349.871415 158.133837 
L 351.362424 161.299068 
L 353.119685 165.577768 
L 355.409449 171.788389 
L 362.438491 191.288341 
L 364.222377 195.363198 
L 365.713386 198.245755 
L 367.018019 200.311161 
L 368.189526 201.765286 
L 369.227907 202.716847 
L 370.186413 203.30245 
L 371.065043 203.586524 
L 371.917048 203.628474 
L 372.769053 203.440113 
L 373.647684 203.006413 
L 374.579564 202.285271 
L 375.59132 201.206699 
L 376.709577 199.672403 
L 377.96096 197.557514 
L 379.372093 194.717344 
L 381.022853 190.871741 
L 383.07299 185.494556 
L 386.347885 176.17558 
L 389.835781 166.453327 
L 391.859293 161.460197 
L 393.483428 158.0117 
L 394.894561 155.513713 
L 396.119319 153.770911 
L 397.21095 152.578081 
L 398.196081 151.808446 
L 399.101337 151.36604 
L 399.953342 151.185484 
L 400.778722 151.230218 
L 401.630727 151.502732 
L 402.509357 152.022042 
L 403.467863 152.858778 
L 404.506244 154.07279 
L 405.651126 155.763334 
L 406.955759 158.106246 
L 408.446768 161.266958 
L 410.204029 165.541448 
L 412.467167 171.673609 
L 419.60271 191.449079 
L 421.359971 195.445415 
L 422.85098 198.314205 
L 424.155613 200.366043 
L 425.300494 201.778682 
L 426.338876 202.726328 
L 427.297381 203.308206 
L 428.176012 203.588809 
L 429.028017 203.627372 
L 429.880022 203.435633 
L 430.758652 202.998492 
L 431.690533 202.273781 
L 432.702289 201.191472 
L 433.820546 199.653268 
L 435.071928 197.53435 
L 436.483062 194.690167 
L 438.133822 190.840706 
L 440.183959 185.460162 
L 443.485479 176.062714 
L 446.94675 166.420494 
L 447 166.281105 
L 447 166.281105 
" clip-path="url(#g1f0020_7ca329_pb5039ea041)" style="fill: none; stroke: #0072b2; stroke-width: 2.5; stroke-linecap: square"/>
   </g>
   <g id="g1f0020_7ca329_patch_3">
    <path d="M 228.9 334.8 
L 228.9 20.016315 
" style="fill: none; stroke: #000000; stroke-width: 0.8; stroke-linejoin: miter; stroke-linecap: square"/>
   </g>
   <g id="g1f0020_7ca329_patch_4">
    <path d="M 447 334.8 
L 447 20.016315 
" style="fill: none"/>
   </g>
   <g id="g1f0020_7ca329_patch_5">
    <path d="M 10.8 177.408158 
L 447 177.408158 
" style="fill: none; stroke: #000000; stroke-width: 0.8; stroke-linejoin: miter; stroke-linecap: square"/>
   </g>
   <g id="g1f0020_7ca329_patch_6">
    <path d="M 10.8 20.016315 
L 447 20.016315 
" style="fill: none"/>
   </g>
  </g>
 </g>
 <defs>
  <clipPath id="g1f0020_7ca329_pb5039ea041">
   <rect x="10.8" y="20.016315" width="436.2" height="314.783685"/>
  </clipPath>
 </defs>
</svg>
