<?xml version="1.0" encoding="utf-8" standalone="no"?>
<!DOCTYPE svg PUBLIC "-//W3C//DTD SVG 1.1//EN"
  "http://www.w3.org/Graphics/SVG/1.1/DTD/svg11.dtd">
<svg xmlns:xlink="http://www.w3.org/1999/xlink" width="247.802513pt" height="314.4pt" viewBox="0 0 247.802513 314.4" xmlns="http://www.w3.org/2000/svg" version="1.1">
 <metadata>
  <rdf:RDF xmlns:dc="http://purl.org/dc/elements/1.1/" xmlns:cc="http://creativecommons.org/ns#" xmlns:rdf="http://www.w3.org/1999/02/22-rdf-syntax-ns#">
   <cc:Work>
    <dc:type rdf:resource="http://purl.org/dc/dcmitype/StillImage"/>
    <dc:date>2025-11-12T00:29:39.603862</dc:date>
    <dc:format>image/svg+xml</dc:format>
    <dc:creator>
     <cc:Agent>
      <dc:title>Matplotlib v3.9.1, https://matplotlib.org/</dc:title>
     </cc:Agent>
    </dc:creator>
   </cc:Work>
  </rdf:RDF>
 </metadata>
 <defs>
  <style type="text/css">*{stroke-linejoin: round; stroke-linecap: butt}</style>
 </defs>
 <g id="figure_1">
  <g id="patch_1">
   <path d="M 0 314.4 
L 247.802513 314.4 
L 247.802513 0 
L 0 0 
L 0 314.4 
z
" style="fill: none"/>
  </g>
  <g id="axes_1">
   <g id="line2d_1">
    <path d="M 80.138285 73.866667 
L 50.962971 115.533333 
" clip-path="url(#pfde71f8ef3)" style="fill: none; stroke: #455a64; stroke-width: 1.2; stroke-linecap: square"/>
   </g>
   <g id="line2d_2">
    <path d="M 80.138285 73.866667 
L 109.313599 115.533333 
" clip-path="url(#pfde71f8ef3)" style="fill: none; stroke: #455a64; stroke-width: 1.2; stroke-linecap: square"/>
   </g>
   <g id="line2d_3">
    <path d="M 109.313599 115.533333 
L 80.138285 157.2 
" clip-path="url(#pfde71f8ef3)" style="fill: none; stroke: #455a64; stroke-width: 1.2; stroke-linecap: square"/>
   </g>
   <g id="line2d_4">
    <path d="M 109.313599 115.533333 
L 138.488913 157.2 
" clip-path="url(#pfde71f8ef3)" style="fill: none; stroke: #455a64; stroke-width: 1.2; stroke-linecap: square"/>
   </g>
   <g id="line2d_5">
    <path d="M 138.488913 157.2 
L 109.313599 198.866667 
" clip-path="url(#pfde71f8ef3)" style="fill: none; stroke: #455a64; stroke-width: 1.2; stroke-linecap: square"/>
   </g>
   <g id="line2d_6">
    <path d="M 138.488913 157.2 
L 167.664228 198.866667 
" clip-path="url(#pfde71f8ef3)" style="fill: none; stroke: #455a64; stroke-width: 1.2; stroke-linecap: square"/>
   </g>
   <g id="line2d_7">
    <path d="M 167.664228 198.866667 
L 138.488913 240.533333 
" clip-path="url(#pfde71f8ef3)" style="fill: none; stroke: #455a64; stroke-width: 1.2; stroke-linecap: square"/>
   </g>
   <g id="line2d_8">
    <path d="M 167.664228 198.866667 
L 196.839542 240.533333 
" clip-path="url(#pfde71f8ef3)" style="fill: none; stroke: #455a64; stroke-width: 1.2; stroke-linecap: square"/>
   </g>
   <g id="text_1">
    <g id="patch_2">
     <path d="M 80.138285 98.966667 
C 86.794883 98.966667 93.17974 96.321972 97.886665 91.615047 
C 102.593591 86.908121 105.238285 80.523264 105.238285 73.866667 
C 105.238285 67.210069 102.593591 60.825212 97.886665 56.118286 
C 93.17974 51.411361 86.794883 48.766667 80.138285 48.766667 
C 73.481687 48.766667 67.09683 51.411361 62.389905 56.118286 
C 57.68298 60.825212 55.038285 67.210069 55.038285 73.866667 
C 55.038285 80.523264 57.68298 86.908121 62.389905 91.615047 
C 67.09683 96.321972 73.481687 98.966667 80.138285 98.966667 
z
" style="fill: #e0f7fa; stroke: #0072b2; stroke-width: 1.5; stroke-linejoin: miter"/>
    </g>
    <!-- $180$ -->
    <g transform="translate(61.038285 79.385417) scale(0.2 -0.2)">
     <defs>
      <path id="DejaVuSans-31" d="M 794 531 
L 1825 531 
L 1825 4091 
L 703 3866 
L 703 4441 
L 1819 4666 
L 2450 4666 
L 2450 531 
L 3481 531 
L 3481 0 
L 794 0 
L 794 531 
z
" transform="scale(0.015625)"/>
      <path id="DejaVuSans-38" d="M 2034 2216 
Q 1584 2216 1326 1975 
Q 1069 1734 1069 1313 
Q 1069 891 1326 650 
Q 1584 409 2034 409 
Q 2484 409 2743 651 
Q 3003 894 3003 1313 
Q 3003 1734 2745 1975 
Q 2488 2216 2034 2216 
z
M 1403 2484 
Q 997 2584 770 2862 
Q 544 3141 544 3541 
Q 544 4100 942 4425 
Q 1341 4750 2034 4750 
Q 2731 4750 3128 4425 
Q 3525 4100 3525 3541 
Q 3525 3141 3298 2862 
Q 3072 2584 2669 2484 
Q 3125 2378 3379 2068 
Q 3634 1759 3634 1313 
Q 3634 634 3220 271 
Q 2806 -91 2034 -91 
Q 1263 -91 848 271 
Q 434 634 434 1313 
Q 434 1759 690 2068 
Q 947 2378 1403 2484 
z
M 1172 3481 
Q 1172 3119 1398 2916 
Q 1625 2713 2034 2713 
Q 2441 2713 2670 2916 
Q 2900 3119 2900 3481 
Q 2900 3844 2670 4047 
Q 2441 4250 2034 4250 
Q 1625 4250 1398 4047 
Q 1172 3844 1172 3481 
z
" transform="scale(0.015625)"/>
      <path id="DejaVuSans-30" d="M 2034 4250 
Q 1547 4250 1301 3770 
Q 1056 3291 1056 2328 
Q 1056 1369 1301 889 
Q 1547 409 2034 409 
Q 2525 409 2770 889 
Q 3016 1369 3016 2328 
Q 3016 3291 2770 3770 
Q 2525 4250 2034 4250 
z
M 2034 4750 
Q 2819 4750 3233 4129 
Q 3647 3509 3647 2328 
Q 3647 1150 3233 529 
Q 2819 -91 2034 -91 
Q 1250 -91 836 529 
Q 422 1150 422 2328 
Q 422 3509 836 4129 
Q 1250 4750 2034 4750 
z
" transform="scale(0.015625)"/>
     </defs>
     <use xlink:href="#DejaVuSans-31" transform="translate(0 0.78125)"/>
     <use xlink:href="#DejaVuSans-38" transform="translate(63.623047 0.78125)"/>
     <use xlink:href="#DejaVuSans-30" transform="translate(127.246094 0.78125)"/>
    </g>
   </g>
   <g id="text_2">
    <g id="patch_3">
     <path d="M 50.962971 131.211458 
C 55.120858 131.211458 59.109009 129.559512 62.04908 126.619442 
C 64.98915 123.679371 66.641096 119.691221 66.641096 115.533333 
C 66.641096 111.375446 64.98915 107.387295 62.04908 104.447225 
C 59.109009 101.507154 55.120858 99.855208 50.962971 99.855208 
C 46.805084 99.855208 42.816933 101.507154 39.876863 104.447225 
C 36.936792 107.387295 35.284846 111.375446 35.284846 115.533333 
C 35.284846 119.691221 36.936792 123.679371 39.876863 126.619442 
C 42.816933 129.559512 46.805084 131.211458 50.962971 131.211458 
z
" style="fill: #e0f7fa; stroke: #0072b2; stroke-width: 1.5; stroke-linejoin: miter"/>
    </g>
    <!-- $2$ -->
    <g transform="translate(44.562971 121.052083) scale(0.2 -0.2)">
     <defs>
      <path id="DejaVuSans-32" d="M 1228 531 
L 3431 531 
L 3431 0 
L 469 0 
L 469 531 
Q 828 903 1448 1529 
Q 2069 2156 2228 2338 
Q 2531 2678 2651 2914 
Q 2772 3150 2772 3378 
Q 2772 3750 2511 3984 
Q 2250 4219 1831 4219 
Q 1534 4219 1204 4116 
Q 875 4013 500 3803 
L 500 4441 
Q 881 4594 1212 4672 
Q 1544 4750 1819 4750 
Q 2544 4750 2975 4387 
Q 3406 4025 3406 3419 
Q 3406 3131 3298 2873 
Q 3191 2616 2906 2266 
Q 2828 2175 2409 1742 
Q 1991 1309 1228 531 
z
" transform="scale(0.015625)"/>
     </defs>
     <use xlink:href="#DejaVuSans-32" transform="translate(0 0.78125)"/>
    </g>
   </g>
   <g id="text_3">
    <g id="patch_4">
     <path d="M 109.313599 134.333333 
C 114.299418 134.333333 119.081701 132.352447 122.607207 128.826941 
C 126.132713 125.301435 128.113599 120.519152 128.113599 115.533333 
C 128.113599 110.547515 126.132713 105.765232 122.607207 102.239726 
C 119.081701 98.71422 114.299418 96.733333 109.313599 96.733333 
C 104.327781 96.733333 99.545498 98.71422 96.019992 102.239726 
C 92.494486 105.765232 90.513599 110.547515 90.513599 115.533333 
C 90.513599 120.519152 92.494486 125.301435 96.019992 128.826941 
C 99.545498 132.352447 104.327781 134.333333 109.313599 134.333333 
z
" style="fill: #e0f7fa; stroke: #0072b2; stroke-width: 1.5; stroke-linejoin: miter"/>
    </g>
    <!-- $90$ -->
    <g transform="translate(96.513599 121.052083) scale(0.2 -0.2)">
     <defs>
      <path id="DejaVuSans-39" d="M 703 97 
L 703 672 
Q 941 559 1184 500 
Q 1428 441 1663 441 
Q 2288 441 2617 861 
Q 2947 1281 2994 2138 
Q 2813 1869 2534 1725 
Q 2256 1581 1919 1581 
Q 1219 1581 811 2004 
Q 403 2428 403 3163 
Q 403 3881 828 4315 
Q 1253 4750 1959 4750 
Q 2769 4750 3195 4129 
Q 3622 3509 3622 2328 
Q 3622 1225 3098 567 
Q 2575 -91 1691 -91 
Q 1453 -91 1209 -44 
Q 966 3 703 97 
z
M 1959 2075 
Q 2384 2075 2632 2365 
Q 2881 2656 2881 3163 
Q 2881 3666 2632 3958 
Q 2384 4250 1959 4250 
Q 1534 4250 1286 3958 
Q 1038 3666 1038 3163 
Q 1038 2656 1286 2365 
Q 1534 2075 1959 2075 
z
" transform="scale(0.015625)"/>
     </defs>
     <use xlink:href="#DejaVuSans-39" transform="translate(0 0.78125)"/>
     <use xlink:href="#DejaVuSans-30" transform="translate(63.623047 0.78125)"/>
    </g>
   </g>
   <g id="text_4">
    <g id="patch_5">
     <path d="M 80.138285 172.878125 
C 84.296173 172.878125 88.284323 171.226179 91.224394 168.286109 
C 94.164464 165.346038 95.81641 161.357887 95.81641 157.2 
C 95.81641 153.042113 94.164464 149.053962 91.224394 146.113891 
C 88.284323 143.173821 84.296173 141.521875 80.138285 141.521875 
C 75.980398 141.521875 71.992247 143.173821 69.052177 146.113891 
C 66.112106 149.053962 64.46016 153.042113 64.46016 157.2 
C 64.46016 161.357887 66.112106 165.346038 69.052177 168.286109 
C 71.992247 171.226179 75.980398 172.878125 80.138285 172.878125 
z
" style="fill: #e0f7fa; stroke: #0072b2; stroke-width: 1.5; stroke-linejoin: miter"/>
    </g>
    <!-- $2$ -->
    <g transform="translate(73.738285 162.71875) scale(0.2 -0.2)">
     <use xlink:href="#DejaVuSans-32" transform="translate(0 0.78125)"/>
    </g>
   </g>
   <g id="text_5">
    <g id="patch_6">
     <path d="M 138.488913 176 
C 143.474732 176 148.257015 174.019113 151.782521 170.493607 
C 155.308027 166.968102 157.288913 162.185818 157.288913 157.2 
C 157.288913 152.214182 155.308027 147.431898 151.782521 143.906393 
C 148.257015 140.380887 143.474732 138.4 138.488913 138.4 
C 133.503095 138.4 128.720812 140.380887 125.195306 143.906393 
C 121.6698 147.431898 119.688913 152.214182 119.688913 157.2 
C 119.688913 162.185818 121.6698 166.968102 125.195306 170.493607 
C 128.720812 174.019113 133.503095 176 138.488913 176 
z
" style="fill: #e0f7fa; stroke: #0072b2; stroke-width: 1.5; stroke-linejoin: miter"/>
    </g>
    <!-- $45$ -->
    <g transform="translate(125.688913 162.71875) scale(0.2 -0.2)">
     <defs>
      <path id="DejaVuSans-34" d="M 2419 4116 
L 825 1625 
L 2419 1625 
L 2419 4116 
z
M 2253 4666 
L 3047 4666 
L 3047 1625 
L 3713 1625 
L 3713 1100 
L 3047 1100 
L 3047 0 
L 2419 0 
L 2419 1100 
L 313 1100 
L 313 1709 
L 2253 4666 
z
" transform="scale(0.015625)"/>
      <path id="DejaVuSans-35" d="M 691 4666 
L 3169 4666 
L 3169 4134 
L 1269 4134 
L 1269 2991 
Q 1406 3038 1543 3061 
Q 1681 3084 1819 3084 
Q 2600 3084 3056 2656 
Q 3513 2228 3513 1497 
Q 3513 744 3044 326 
Q 2575 -91 1722 -91 
Q 1428 -91 1123 -41 
Q 819 9 494 109 
L 494 744 
Q 775 591 1075 516 
Q 1375 441 1709 441 
Q 2250 441 2565 725 
Q 2881 1009 2881 1497 
Q 2881 1984 2565 2268 
Q 2250 2553 1709 2553 
Q 1456 2553 1204 2497 
Q 953 2441 691 2322 
L 691 4666 
z
" transform="scale(0.015625)"/>
     </defs>
     <use xlink:href="#DejaVuSans-34" transform="translate(0 0.09375)"/>
     <use xlink:href="#DejaVuSans-35" transform="translate(63.623047 0.09375)"/>
    </g>
   </g>
   <g id="text_6">
    <g id="patch_7">
     <path d="M 109.313599 214.544792 
C 113.471487 214.544792 117.459637 212.892846 120.399708 209.952775 
C 123.339778 207.012705 124.991724 203.024554 124.991724 198.866667 
C 124.991724 194.708779 123.339778 190.720629 120.399708 187.780558 
C 117.459637 184.840488 113.471487 183.188542 109.313599 183.188542 
C 105.155712 183.188542 101.167561 184.840488 98.227491 187.780558 
C 95.28742 190.720629 93.635474 194.708779 93.635474 198.866667 
C 93.635474 203.024554 95.28742 207.012705 98.227491 209.952775 
C 101.167561 212.892846 105.155712 214.544792 109.313599 214.544792 
z
" style="fill: #e0f7fa; stroke: #0072b2; stroke-width: 1.5; stroke-linejoin: miter"/>
    </g>
    <!-- $3$ -->
    <g transform="translate(102.913599 204.385417) scale(0.2 -0.2)">
     <defs>
      <path id="DejaVuSans-33" d="M 2597 2516 
Q 3050 2419 3304 2112 
Q 3559 1806 3559 1356 
Q 3559 666 3084 287 
Q 2609 -91 1734 -91 
Q 1441 -91 1130 -33 
Q 819 25 488 141 
L 488 750 
Q 750 597 1062 519 
Q 1375 441 1716 441 
Q 2309 441 2620 675 
Q 2931 909 2931 1356 
Q 2931 1769 2642 2001 
Q 2353 2234 1838 2234 
L 1294 2234 
L 1294 2753 
L 1863 2753 
Q 2328 2753 2575 2939 
Q 2822 3125 2822 3475 
Q 2822 3834 2567 4026 
Q 2313 4219 1838 4219 
Q 1578 4219 1281 4162 
Q 984 4106 628 3988 
L 628 4550 
Q 988 4650 1302 4700 
Q 1616 4750 1894 4750 
Q 2613 4750 3031 4423 
Q 3450 4097 3450 3541 
Q 3450 3153 3228 2886 
Q 3006 2619 2597 2516 
z
" transform="scale(0.015625)"/>
     </defs>
     <use xlink:href="#DejaVuSans-33" transform="translate(0 0.78125)"/>
    </g>
   </g>
   <g id="text_7">
    <g id="patch_8">
     <path d="M 167.664228 217.666667 
C 172.650046 217.666667 177.432329 215.68578 180.957835 212.160274 
C 184.483341 208.634768 186.464228 203.852485 186.464228 198.866667 
C 186.464228 193.880848 184.483341 189.098565 180.957835 185.573059 
C 177.432329 182.047553 172.650046 180.066667 167.664228 180.066667 
C 162.678409 180.066667 157.896126 182.047553 154.37062 185.573059 
C 150.845114 189.098565 148.864228 193.880848 148.864228 198.866667 
C 148.864228 203.852485 150.845114 208.634768 154.37062 212.160274 
C 157.896126 215.68578 162.678409 217.666667 167.664228 217.666667 
z
" style="fill: #e0f7fa; stroke: #0072b2; stroke-width: 1.5; stroke-linejoin: miter"/>
    </g>
    <!-- $15$ -->
    <g transform="translate(154.864228 204.385417) scale(0.2 -0.2)">
     <use xlink:href="#DejaVuSans-31" transform="translate(0 0.09375)"/>
     <use xlink:href="#DejaVuSans-35" transform="translate(63.623047 0.09375)"/>
    </g>
   </g>
   <g id="text_8">
    <g id="patch_9">
     <path d="M 138.488913 256.211458 
C 142.646801 256.211458 146.634952 254.559512 149.575022 251.619442 
C 152.515092 248.679371 154.167038 244.691221 154.167038 240.533333 
C 154.167038 236.375446 152.515092 232.387295 149.575022 229.447225 
C 146.634952 226.507154 142.646801 224.855208 138.488913 224.855208 
C 134.331026 224.855208 130.342875 226.507154 127.402805 229.447225 
C 124.462735 232.387295 122.810788 236.375446 122.810788 240.533333 
C 122.810788 244.691221 124.462735 248.679371 127.402805 251.619442 
C 130.342875 254.559512 134.331026 256.211458 138.488913 256.211458 
z
" style="fill: #e0f7fa; stroke: #0072b2; stroke-width: 1.5; stroke-linejoin: miter"/>
    </g>
    <!-- $3$ -->
    <g transform="translate(132.088913 246.052083) scale(0.2 -0.2)">
     <use xlink:href="#DejaVuSans-33" transform="translate(0 0.78125)"/>
    </g>
   </g>
   <g id="text_9">
    <g id="patch_10">
     <path d="M 196.839542 256.211458 
C 200.997429 256.211458 204.98558 254.559512 207.92565 251.619442 
C 210.86572 248.679371 212.517667 244.691221 212.517667 240.533333 
C 212.517667 236.375446 210.86572 232.387295 207.92565 229.447225 
C 204.98558 226.507154 200.997429 224.855208 196.839542 224.855208 
C 192.681654 224.855208 188.693503 226.507154 185.753433 229.447225 
C 182.813363 232.387295 181.161417 236.375446 181.161417 240.533333 
C 181.161417 244.691221 182.813363 248.679371 185.753433 251.619442 
C 188.693503 254.559512 192.681654 256.211458 196.839542 256.211458 
z
" style="fill: #e0f7fa; stroke: #0072b2; stroke-width: 1.5; stroke-linejoin: miter"/>
    </g>
    <!-- $5$ -->
    <g transform="translate(190.439542 246.052083) scale(0.2 -0.2)">
     <use xlink:href="#DejaVuSans-35" transform="translate(0 0.09375)"/>
    </g>
   </g>
  </g>
 </g>
 <defs>
  <clipPath id="pfde71f8ef3">
   <rect x="7.2" y="7.2" width="233.402513" height="300"/>
  </clipPath>
 </defs>
</svg>
