<?xml version="1.0" encoding="utf-8" standalone="no"?>
<!DOCTYPE svg PUBLIC "-//W3C//DTD SVG 1.1//EN"
  "http://www.w3.org/Graphics/SVG/1.1/DTD/svg11.dtd">
<svg xmlns:xlink="http://www.w3.org/1999/xlink" width="139.107658pt" height="208.8pt" viewBox="0 0 139.107658 208.8" xmlns="http://www.w3.org/2000/svg" version="1.1">
 <metadata>
  <rdf:RDF xmlns:dc="http://purl.org/dc/elements/1.1/" xmlns:cc="http://creativecommons.org/ns#" xmlns:rdf="http://www.w3.org/1999/02/22-rdf-syntax-ns#">
   <cc:Work>
    <dc:type rdf:resource="http://purl.org/dc/dcmitype/StillImage"/>
    <dc:date>2025-11-12T00:29:39.491042</dc:date>
    <dc:format>image/svg+xml</dc:format>
    <dc:creator>
     <cc:Agent>
      <dc:title>Matplotlib v3.9.1, https://matplotlib.org/</dc:title>
     </cc:Agent>
    </dc:creator>
   </cc:Work>
  </rdf:RDF>
 </metadata>
 <defs>
  <style type="text/css">*{stroke-linejoin: round; stroke-linecap: butt}</style>
 </defs>
 <g id="figure_1">
  <g id="patch_1">
   <path d="M 0 208.8 
L 139.107658 208.8 
L 139.107658 0 
L 0 0 
L 0 208.8 
z
" style="fill: none"/>
  </g>
  <g id="axes_1">
   <g id="line2d_1">
    <path d="M 46.171143 50.4 
L 30.582686 77.4 
" clip-path="url(#p0b32a3d308)" style="fill: none; stroke: #455a64; stroke-width: 1.2; stroke-linecap: square"/>
   </g>
   <g id="line2d_2">
    <path d="M 46.171143 50.4 
L 61.7596 77.4 
" clip-path="url(#p0b32a3d308)" style="fill: none; stroke: #455a64; stroke-width: 1.2; stroke-linecap: square"/>
   </g>
   <g id="line2d_3">
    <path d="M 61.7596 77.4 
L 46.171143 104.4 
" clip-path="url(#p0b32a3d308)" style="fill: none; stroke: #455a64; stroke-width: 1.2; stroke-linecap: square"/>
   </g>
   <g id="line2d_4">
    <path d="M 61.7596 77.4 
L 77.348058 104.4 
" clip-path="url(#p0b32a3d308)" style="fill: none; stroke: #455a64; stroke-width: 1.2; stroke-linecap: square"/>
   </g>
   <g id="line2d_5">
    <path d="M 77.348058 104.4 
L 61.7596 131.4 
" clip-path="url(#p0b32a3d308)" style="fill: none; stroke: #455a64; stroke-width: 1.2; stroke-linecap: square"/>
   </g>
   <g id="line2d_6">
    <path d="M 77.348058 104.4 
L 92.936515 131.4 
" clip-path="url(#p0b32a3d308)" style="fill: none; stroke: #455a64; stroke-width: 1.2; stroke-linecap: square"/>
   </g>
   <g id="line2d_7">
    <path d="M 92.936515 131.4 
L 77.348058 158.4 
" clip-path="url(#p0b32a3d308)" style="fill: none; stroke: #455a64; stroke-width: 1.2; stroke-linecap: square"/>
   </g>
   <g id="line2d_8">
    <path d="M 92.936515 131.4 
L 108.524972 158.4 
" clip-path="url(#p0b32a3d308)" style="fill: none; stroke: #455a64; stroke-width: 1.2; stroke-linecap: square"/>
   </g>
   <g id="text_1">
    <g id="patch_2">
     <path d="M 46.171143 67.32 
C 50.65838 67.32 54.962435 65.537202 58.13539 62.364247 
C 61.308345 59.191291 63.091143 54.887236 63.091143 50.4 
C 63.091143 45.912764 61.308345 41.608709 58.13539 38.435753 
C 54.962435 35.262798 50.65838 33.48 46.171143 33.48 
C 41.683907 33.48 37.379852 35.262798 34.206896 38.435753 
C 31.033941 41.608709 29.251143 45.912764 29.251143 50.4 
C 29.251143 54.887236 31.033941 59.191291 34.206896 62.364247 
C 37.379852 65.537202 41.683907 67.32 46.171143 67.32 
z
" style="fill: #e0f7fa; stroke: #0072b2; stroke-width: 1.5; stroke-linejoin: miter"/>
    </g>
    <!-- $48$ -->
    <g transform="translate(34.651143 55.366875) scale(0.18 -0.18)">
     <defs>
      <path id="DejaVuSans-34" d="M 2419 4116 
L 825 1625 
L 2419 1625 
L 2419 4116 
z
M 2253 4666 
L 3047 4666 
L 3047 1625 
L 3713 1625 
L 3713 1100 
L 3047 1100 
L 3047 0 
L 2419 0 
L 2419 1100 
L 313 1100 
L 313 1709 
L 2253 4666 
z
" transform="scale(0.015625)"/>
      <path id="DejaVuSans-38" d="M 2034 2216 
Q 1584 2216 1326 1975 
Q 1069 1734 1069 1313 
Q 1069 891 1326 650 
Q 1584 409 2034 409 
Q 2484 409 2743 651 
Q 3003 894 3003 1313 
Q 3003 1734 2745 1975 
Q 2488 2216 2034 2216 
z
M 1403 2484 
Q 997 2584 770 2862 
Q 544 3141 544 3541 
Q 544 4100 942 4425 
Q 1341 4750 2034 4750 
Q 2731 4750 3128 4425 
Q 3525 4100 3525 3541 
Q 3525 3141 3298 2862 
Q 3072 2584 2669 2484 
Q 3125 2378 3379 2068 
Q 3634 1759 3634 1313 
Q 3634 634 3220 271 
Q 2806 -91 2034 -91 
Q 1263 -91 848 271 
Q 434 634 434 1313 
Q 434 1759 690 2068 
Q 947 2378 1403 2484 
z
M 1172 3481 
Q 1172 3119 1398 2916 
Q 1625 2713 2034 2713 
Q 2441 2713 2670 2916 
Q 2900 3119 2900 3481 
Q 2900 3844 2670 4047 
Q 2441 4250 2034 4250 
Q 1625 4250 1398 4047 
Q 1172 3844 1172 3481 
z
" transform="scale(0.015625)"/>
     </defs>
     <use xlink:href="#DejaVuSans-34" transform="translate(0 0.78125)"/>
     <use xlink:href="#DejaVuSans-38" transform="translate(63.623047 0.78125)"/>
    </g>
   </g>
   <g id="text_2">
    <g id="patch_3">
     <path d="M 30.582686 91.510312 
C 34.324785 91.510312 37.91412 90.023561 40.560184 87.377498 
C 43.206247 84.731434 44.692998 81.142099 44.692998 77.4 
C 44.692998 73.657901 43.206247 70.068566 40.560184 67.422502 
C 37.91412 64.776439 34.324785 63.289687 30.582686 63.289687 
C 26.840587 63.289687 23.251252 64.776439 20.605188 67.422502 
C 17.959125 70.068566 16.472373 73.657901 16.472373 77.4 
C 16.472373 81.142099 17.959125 84.731434 20.605188 87.377498 
C 23.251252 90.023561 26.840587 91.510312 30.582686 91.510312 
z
" style="fill: #e0f7fa; stroke: #0072b2; stroke-width: 1.5; stroke-linejoin: miter"/>
    </g>
    <!-- $2$ -->
    <g transform="translate(24.822686 82.366875) scale(0.18 -0.18)">
     <defs>
      <path id="DejaVuSans-32" d="M 1228 531 
L 3431 531 
L 3431 0 
L 469 0 
L 469 531 
Q 828 903 1448 1529 
Q 2069 2156 2228 2338 
Q 2531 2678 2651 2914 
Q 2772 3150 2772 3378 
Q 2772 3750 2511 3984 
Q 2250 4219 1831 4219 
Q 1534 4219 1204 4116 
Q 875 4013 500 3803 
L 500 4441 
Q 881 4594 1212 4672 
Q 1544 4750 1819 4750 
Q 2544 4750 2975 4387 
Q 3406 4025 3406 3419 
Q 3406 3131 3298 2873 
Q 3191 2616 2906 2266 
Q 2828 2175 2409 1742 
Q 1991 1309 1228 531 
z
" transform="scale(0.015625)"/>
     </defs>
     <use xlink:href="#DejaVuSans-32" transform="translate(0 0.78125)"/>
    </g>
   </g>
   <g id="text_3">
    <g id="patch_4">
     <path d="M 61.7596 94.32 
C 66.246837 94.32 70.550892 92.537202 73.723847 89.364247 
C 76.896803 86.191291 78.6796 81.887236 78.6796 77.4 
C 78.6796 72.912764 76.896803 68.608709 73.723847 65.435753 
C 70.550892 62.262798 66.246837 60.48 61.7596 60.48 
C 57.272364 60.48 52.968309 62.262798 49.795354 65.435753 
C 46.622398 68.608709 44.8396 72.912764 44.8396 77.4 
C 44.8396 81.887236 46.622398 86.191291 49.795354 89.364247 
C 52.968309 92.537202 57.272364 94.32 61.7596 94.32 
z
" style="fill: #e0f7fa; stroke: #0072b2; stroke-width: 1.5; stroke-linejoin: miter"/>
    </g>
    <!-- $24$ -->
    <g transform="translate(50.2396 82.366875) scale(0.18 -0.18)">
     <use xlink:href="#DejaVuSans-32" transform="translate(0 0.78125)"/>
     <use xlink:href="#DejaVuSans-34" transform="translate(63.623047 0.78125)"/>
    </g>
   </g>
   <g id="text_4">
    <g id="patch_5">
     <path d="M 46.171143 118.510312 
C 49.913242 118.510312 53.502578 117.023561 56.148641 114.377498 
C 58.794704 111.731434 60.281456 108.142099 60.281456 104.4 
C 60.281456 100.657901 58.794704 97.068566 56.148641 94.422502 
C 53.502578 91.776439 49.913242 90.289687 46.171143 90.289687 
C 42.429045 90.289687 38.839709 91.776439 36.193646 94.422502 
C 33.547582 97.068566 32.060831 100.657901 32.060831 104.4 
C 32.060831 108.142099 33.547582 111.731434 36.193646 114.377498 
C 38.839709 117.023561 42.429045 118.510312 46.171143 118.510312 
z
" style="fill: #e0f7fa; stroke: #0072b2; stroke-width: 1.5; stroke-linejoin: miter"/>
    </g>
    <!-- $2$ -->
    <g transform="translate(40.411143 109.366875) scale(0.18 -0.18)">
     <use xlink:href="#DejaVuSans-32" transform="translate(0 0.78125)"/>
    </g>
   </g>
   <g id="text_5">
    <g id="patch_6">
     <path d="M 77.348058 121.32 
C 81.835294 121.32 86.139349 119.537202 89.312304 116.364247 
C 92.48526 113.191291 94.268058 108.887236 94.268058 104.4 
C 94.268058 99.912764 92.48526 95.608709 89.312304 92.435753 
C 86.139349 89.262798 81.835294 87.48 77.348058 87.48 
C 72.860821 87.48 68.556766 89.262798 65.383811 92.435753 
C 62.210856 95.608709 60.428058 99.912764 60.428058 104.4 
C 60.428058 108.887236 62.210856 113.191291 65.383811 116.364247 
C 68.556766 119.537202 72.860821 121.32 77.348058 121.32 
z
" style="fill: #e0f7fa; stroke: #0072b2; stroke-width: 1.5; stroke-linejoin: miter"/>
    </g>
    <!-- $12$ -->
    <g transform="translate(65.828058 109.366875) scale(0.18 -0.18)">
     <defs>
      <path id="DejaVuSans-31" d="M 794 531 
L 1825 531 
L 1825 4091 
L 703 3866 
L 703 4441 
L 1819 4666 
L 2450 4666 
L 2450 531 
L 3481 531 
L 3481 0 
L 794 0 
L 794 531 
z
" transform="scale(0.015625)"/>
     </defs>
     <use xlink:href="#DejaVuSans-31" transform="translate(0 0.78125)"/>
     <use xlink:href="#DejaVuSans-32" transform="translate(63.623047 0.78125)"/>
    </g>
   </g>
   <g id="text_6">
    <g id="patch_7">
     <path d="M 61.7596 145.510312 
C 65.501699 145.510312 69.091035 144.023561 71.737098 141.377498 
C 74.383161 138.731434 75.869913 135.142099 75.869913 131.4 
C 75.869913 127.657901 74.383161 124.068566 71.737098 121.422502 
C 69.091035 118.776439 65.501699 117.289687 61.7596 117.289687 
C 58.017502 117.289687 54.428166 118.776439 51.782103 121.422502 
C 49.136039 124.068566 47.649288 127.657901 47.649288 131.4 
C 47.649288 135.142099 49.136039 138.731434 51.782103 141.377498 
C 54.428166 144.023561 58.017502 145.510312 61.7596 145.510312 
z
" style="fill: #e0f7fa; stroke: #0072b2; stroke-width: 1.5; stroke-linejoin: miter"/>
    </g>
    <!-- $2$ -->
    <g transform="translate(55.9996 136.366875) scale(0.18 -0.18)">
     <use xlink:href="#DejaVuSans-32" transform="translate(0 0.78125)"/>
    </g>
   </g>
   <g id="text_7">
    <g id="patch_8">
     <path d="M 92.936515 145.510312 
C 96.678614 145.510312 100.267949 144.023561 102.914013 141.377498 
C 105.560076 138.731434 107.046827 135.142099 107.046827 131.4 
C 107.046827 127.657901 105.560076 124.068566 102.914013 121.422502 
C 100.267949 118.776439 96.678614 117.289687 92.936515 117.289687 
C 89.194416 117.289687 85.605081 118.776439 82.959017 121.422502 
C 80.312954 124.068566 78.826202 127.657901 78.826202 131.4 
C 78.826202 135.142099 80.312954 138.731434 82.959017 141.377498 
C 85.605081 144.023561 89.194416 145.510312 92.936515 145.510312 
z
" style="fill: #e0f7fa; stroke: #0072b2; stroke-width: 1.5; stroke-linejoin: miter"/>
    </g>
    <!-- $6$ -->
    <g transform="translate(87.176515 136.366875) scale(0.18 -0.18)">
     <defs>
      <path id="DejaVuSans-36" d="M 2113 2584 
Q 1688 2584 1439 2293 
Q 1191 2003 1191 1497 
Q 1191 994 1439 701 
Q 1688 409 2113 409 
Q 2538 409 2786 701 
Q 3034 994 3034 1497 
Q 3034 2003 2786 2293 
Q 2538 2584 2113 2584 
z
M 3366 4563 
L 3366 3988 
Q 3128 4100 2886 4159 
Q 2644 4219 2406 4219 
Q 1781 4219 1451 3797 
Q 1122 3375 1075 2522 
Q 1259 2794 1537 2939 
Q 1816 3084 2150 3084 
Q 2853 3084 3261 2657 
Q 3669 2231 3669 1497 
Q 3669 778 3244 343 
Q 2819 -91 2113 -91 
Q 1303 -91 875 529 
Q 447 1150 447 2328 
Q 447 3434 972 4092 
Q 1497 4750 2381 4750 
Q 2619 4750 2861 4703 
Q 3103 4656 3366 4563 
z
" transform="scale(0.015625)"/>
     </defs>
     <use xlink:href="#DejaVuSans-36" transform="translate(0 0.78125)"/>
    </g>
   </g>
   <g id="text_8">
    <g id="patch_9">
     <path d="M 77.348058 172.510312 
C 81.090156 172.510312 84.679492 171.023561 87.325555 168.377498 
C 89.971619 165.731434 91.45837 162.142099 91.45837 158.4 
C 91.45837 154.657901 89.971619 151.068566 87.325555 148.422502 
C 84.679492 145.776439 81.090156 144.289687 77.348058 144.289687 
C 73.605959 144.289687 70.016623 145.776439 67.37056 148.422502 
C 64.724497 151.068566 63.237745 154.657901 63.237745 158.4 
C 63.237745 162.142099 64.724497 165.731434 67.37056 168.377498 
C 70.016623 171.023561 73.605959 172.510312 77.348058 172.510312 
z
" style="fill: #e0f7fa; stroke: #0072b2; stroke-width: 1.5; stroke-linejoin: miter"/>
    </g>
    <!-- $2$ -->
    <g transform="translate(71.588058 163.366875) scale(0.18 -0.18)">
     <use xlink:href="#DejaVuSans-32" transform="translate(0 0.78125)"/>
    </g>
   </g>
   <g id="text_9">
    <g id="patch_10">
     <path d="M 108.524972 172.510312 
C 112.267071 172.510312 115.856407 171.023561 118.50247 168.377498 
C 121.148533 165.731434 122.635285 162.142099 122.635285 158.4 
C 122.635285 154.657901 121.148533 151.068566 118.50247 148.422502 
C 115.856407 145.776439 112.267071 144.289687 108.524972 144.289687 
C 104.782874 144.289687 101.193538 145.776439 98.547475 148.422502 
C 95.901411 151.068566 94.41466 154.657901 94.41466 158.4 
C 94.41466 162.142099 95.901411 165.731434 98.547475 168.377498 
C 101.193538 171.023561 104.782874 172.510312 108.524972 172.510312 
z
" style="fill: #e0f7fa; stroke: #0072b2; stroke-width: 1.5; stroke-linejoin: miter"/>
    </g>
    <!-- $3$ -->
    <g transform="translate(102.764972 163.366875) scale(0.18 -0.18)">
     <defs>
      <path id="DejaVuSans-33" d="M 2597 2516 
Q 3050 2419 3304 2112 
Q 3559 1806 3559 1356 
Q 3559 666 3084 287 
Q 2609 -91 1734 -91 
Q 1441 -91 1130 -33 
Q 819 25 488 141 
L 488 750 
Q 750 597 1062 519 
Q 1375 441 1716 441 
Q 2309 441 2620 675 
Q 2931 909 2931 1356 
Q 2931 1769 2642 2001 
Q 2353 2234 1838 2234 
L 1294 2234 
L 1294 2753 
L 1863 2753 
Q 2328 2753 2575 2939 
Q 2822 3125 2822 3475 
Q 2822 3834 2567 4026 
Q 2313 4219 1838 4219 
Q 1578 4219 1281 4162 
Q 984 4106 628 3988 
L 628 4550 
Q 988 4650 1302 4700 
Q 1616 4750 1894 4750 
Q 2613 4750 3031 4423 
Q 3450 4097 3450 3541 
Q 3450 3153 3228 2886 
Q 3006 2619 2597 2516 
z
" transform="scale(0.015625)"/>
     </defs>
     <use xlink:href="#DejaVuSans-33" transform="translate(0 0.78125)"/>
    </g>
   </g>
  </g>
 </g>
 <defs>
  <clipPath id="p0b32a3d308">
   <rect x="7.2" y="7.2" width="124.707658" height="194.4"/>
  </clipPath>
 </defs>
</svg>
