<?xml version="1.0" encoding="utf-8" standalone="no"?>
<!DOCTYPE svg PUBLIC "-//W3C//DTD SVG 1.1//EN"
  "http://www.w3.org/Graphics/SVG/1.1/DTD/svg11.dtd">
<svg xmlns:xlink="http://www.w3.org/1999/xlink" width="188.3957pt" height="208.8pt" viewBox="0 0 188.3957 208.8" xmlns="http://www.w3.org/2000/svg" version="1.1">
 <metadata>
  <rdf:RDF xmlns:dc="http://purl.org/dc/elements/1.1/" xmlns:cc="http://creativecommons.org/ns#" xmlns:rdf="http://www.w3.org/1999/02/22-rdf-syntax-ns#">
   <cc:Work>
    <dc:type rdf:resource="http://purl.org/dc/dcmitype/StillImage"/>
    <dc:date>2025-11-12T00:29:39.376669</dc:date>
    <dc:format>image/svg+xml</dc:format>
    <dc:creator>
     <cc:Agent>
      <dc:title>Matplotlib v3.9.1, https://matplotlib.org/</dc:title>
     </cc:Agent>
    </dc:creator>
   </cc:Work>
  </rdf:RDF>
 </metadata>
 <defs>
  <style type="text/css">*{stroke-linejoin: round; stroke-linecap: butt}</style>
 </defs>
 <g id="figure_1">
  <g id="patch_1">
   <path d="M 0 208.8 
L 188.3957 208.8 
L 188.3957 0 
L 0 0 
L 0 208.8 
z
" style="fill: none"/>
  </g>
  <g id="axes_1">
   <g id="line2d_1">
    <path d="M 57.948746 50.4 
L 39.824194 72 
" clip-path="url(#p8040e81bc4)" style="fill: none; stroke: #455a64; stroke-width: 1.2; stroke-linecap: square"/>
   </g>
   <g id="line2d_2">
    <path d="M 57.948746 50.4 
L 76.073298 72 
" clip-path="url(#p8040e81bc4)" style="fill: none; stroke: #455a64; stroke-width: 1.2; stroke-linecap: square"/>
   </g>
   <g id="line2d_3">
    <path d="M 76.073298 72 
L 57.948746 93.6 
" clip-path="url(#p8040e81bc4)" style="fill: none; stroke: #455a64; stroke-width: 1.2; stroke-linecap: square"/>
   </g>
   <g id="line2d_4">
    <path d="M 76.073298 72 
L 94.19785 93.6 
" clip-path="url(#p8040e81bc4)" style="fill: none; stroke: #455a64; stroke-width: 1.2; stroke-linecap: square"/>
   </g>
   <g id="line2d_5">
    <path d="M 94.19785 93.6 
L 76.073298 115.2 
" clip-path="url(#p8040e81bc4)" style="fill: none; stroke: #455a64; stroke-width: 1.2; stroke-linecap: square"/>
   </g>
   <g id="line2d_6">
    <path d="M 94.19785 93.6 
L 112.322402 115.2 
" clip-path="url(#p8040e81bc4)" style="fill: none; stroke: #455a64; stroke-width: 1.2; stroke-linecap: square"/>
   </g>
   <g id="line2d_7">
    <path d="M 112.322402 115.2 
L 94.19785 136.8 
" clip-path="url(#p8040e81bc4)" style="fill: none; stroke: #455a64; stroke-width: 1.2; stroke-linecap: square"/>
   </g>
   <g id="line2d_8">
    <path d="M 112.322402 115.2 
L 130.446954 136.8 
" clip-path="url(#p8040e81bc4)" style="fill: none; stroke: #455a64; stroke-width: 1.2; stroke-linecap: square"/>
   </g>
   <g id="line2d_9">
    <path d="M 130.446954 136.8 
L 112.322402 158.4 
" clip-path="url(#p8040e81bc4)" style="fill: none; stroke: #455a64; stroke-width: 1.2; stroke-linecap: square"/>
   </g>
   <g id="line2d_10">
    <path d="M 130.446954 136.8 
L 148.571506 158.4 
" clip-path="url(#p8040e81bc4)" style="fill: none; stroke: #455a64; stroke-width: 1.2; stroke-linecap: square"/>
   </g>
   <g id="text_1">
    <g id="patch_2">
     <path d="M 57.948746 67.32 
C 62.435982 67.32 66.740037 65.537202 69.912992 62.364247 
C 73.085948 59.191291 74.868746 54.887236 74.868746 50.4 
C 74.868746 45.912764 73.085948 41.608709 69.912992 38.435753 
C 66.740037 35.262798 62.435982 33.48 57.948746 33.48 
C 53.461509 33.48 49.157454 35.262798 45.984499 38.435753 
C 42.811544 41.608709 41.028746 45.912764 41.028746 50.4 
C 41.028746 54.887236 42.811544 59.191291 45.984499 62.364247 
C 49.157454 65.537202 53.461509 67.32 57.948746 67.32 
z
" style="fill: #e0f7fa; stroke: #0072b2; stroke-width: 1.5; stroke-linejoin: miter"/>
    </g>
    <!-- $96$ -->
    <g transform="translate(46.428746 55.366875) scale(0.18 -0.18)">
     <defs>
      <path id="DejaVuSans-39" d="M 703 97 
L 703 672 
Q 941 559 1184 500 
Q 1428 441 1663 441 
Q 2288 441 2617 861 
Q 2947 1281 2994 2138 
Q 2813 1869 2534 1725 
Q 2256 1581 1919 1581 
Q 1219 1581 811 2004 
Q 403 2428 403 3163 
Q 403 3881 828 4315 
Q 1253 4750 1959 4750 
Q 2769 4750 3195 4129 
Q 3622 3509 3622 2328 
Q 3622 1225 3098 567 
Q 2575 -91 1691 -91 
Q 1453 -91 1209 -44 
Q 966 3 703 97 
z
M 1959 2075 
Q 2384 2075 2632 2365 
Q 2881 2656 2881 3163 
Q 2881 3666 2632 3958 
Q 2384 4250 1959 4250 
Q 1534 4250 1286 3958 
Q 1038 3666 1038 3163 
Q 1038 2656 1286 2365 
Q 1534 2075 1959 2075 
z
" transform="scale(0.015625)"/>
      <path id="DejaVuSans-36" d="M 2113 2584 
Q 1688 2584 1439 2293 
Q 1191 2003 1191 1497 
Q 1191 994 1439 701 
Q 1688 409 2113 409 
Q 2538 409 2786 701 
Q 3034 994 3034 1497 
Q 3034 2003 2786 2293 
Q 2538 2584 2113 2584 
z
M 3366 4563 
L 3366 3988 
Q 3128 4100 2886 4159 
Q 2644 4219 2406 4219 
Q 1781 4219 1451 3797 
Q 1122 3375 1075 2522 
Q 1259 2794 1537 2939 
Q 1816 3084 2150 3084 
Q 2853 3084 3261 2657 
Q 3669 2231 3669 1497 
Q 3669 778 3244 343 
Q 2819 -91 2113 -91 
Q 1303 -91 875 529 
Q 447 1150 447 2328 
Q 447 3434 972 4092 
Q 1497 4750 2381 4750 
Q 2619 4750 2861 4703 
Q 3103 4656 3366 4563 
z
" transform="scale(0.015625)"/>
     </defs>
     <use xlink:href="#DejaVuSans-39" transform="translate(0 0.78125)"/>
     <use xlink:href="#DejaVuSans-36" transform="translate(63.623047 0.78125)"/>
    </g>
   </g>
   <g id="text_2">
    <g id="patch_3">
     <path d="M 39.824194 86.110312 
C 43.566292 86.110312 47.155628 84.623561 49.801691 81.977498 
C 52.447755 79.331434 53.934506 75.742099 53.934506 72 
C 53.934506 68.257901 52.447755 64.668566 49.801691 62.022502 
C 47.155628 59.376439 43.566292 57.889687 39.824194 57.889687 
C 36.082095 57.889687 32.492759 59.376439 29.846696 62.022502 
C 27.200633 64.668566 25.713881 68.257901 25.713881 72 
C 25.713881 75.742099 27.200633 79.331434 29.846696 81.977498 
C 32.492759 84.623561 36.082095 86.110312 39.824194 86.110312 
z
" style="fill: #e0f7fa; stroke: #0072b2; stroke-width: 1.5; stroke-linejoin: miter"/>
    </g>
    <!-- $2$ -->
    <g transform="translate(34.064194 76.966875) scale(0.18 -0.18)">
     <defs>
      <path id="DejaVuSans-32" d="M 1228 531 
L 3431 531 
L 3431 0 
L 469 0 
L 469 531 
Q 828 903 1448 1529 
Q 2069 2156 2228 2338 
Q 2531 2678 2651 2914 
Q 2772 3150 2772 3378 
Q 2772 3750 2511 3984 
Q 2250 4219 1831 4219 
Q 1534 4219 1204 4116 
Q 875 4013 500 3803 
L 500 4441 
Q 881 4594 1212 4672 
Q 1544 4750 1819 4750 
Q 2544 4750 2975 4387 
Q 3406 4025 3406 3419 
Q 3406 3131 3298 2873 
Q 3191 2616 2906 2266 
Q 2828 2175 2409 1742 
Q 1991 1309 1228 531 
z
" transform="scale(0.015625)"/>
     </defs>
     <use xlink:href="#DejaVuSans-32" transform="translate(0 0.78125)"/>
    </g>
   </g>
   <g id="text_3">
    <g id="patch_4">
     <path d="M 76.073298 88.92 
C 80.560534 88.92 84.864589 87.137202 88.037544 83.964247 
C 91.2105 80.791291 92.993298 76.487236 92.993298 72 
C 92.993298 67.512764 91.2105 63.208709 88.037544 60.035753 
C 84.864589 56.862798 80.560534 55.08 76.073298 55.08 
C 71.586061 55.08 67.282006 56.862798 64.109051 60.035753 
C 60.936096 63.208709 59.153298 67.512764 59.153298 72 
C 59.153298 76.487236 60.936096 80.791291 64.109051 83.964247 
C 67.282006 87.137202 71.586061 88.92 76.073298 88.92 
z
" style="fill: #e0f7fa; stroke: #0072b2; stroke-width: 1.5; stroke-linejoin: miter"/>
    </g>
    <!-- $48$ -->
    <g transform="translate(64.553298 76.966875) scale(0.18 -0.18)">
     <defs>
      <path id="DejaVuSans-34" d="M 2419 4116 
L 825 1625 
L 2419 1625 
L 2419 4116 
z
M 2253 4666 
L 3047 4666 
L 3047 1625 
L 3713 1625 
L 3713 1100 
L 3047 1100 
L 3047 0 
L 2419 0 
L 2419 1100 
L 313 1100 
L 313 1709 
L 2253 4666 
z
" transform="scale(0.015625)"/>
      <path id="DejaVuSans-38" d="M 2034 2216 
Q 1584 2216 1326 1975 
Q 1069 1734 1069 1313 
Q 1069 891 1326 650 
Q 1584 409 2034 409 
Q 2484 409 2743 651 
Q 3003 894 3003 1313 
Q 3003 1734 2745 1975 
Q 2488 2216 2034 2216 
z
M 1403 2484 
Q 997 2584 770 2862 
Q 544 3141 544 3541 
Q 544 4100 942 4425 
Q 1341 4750 2034 4750 
Q 2731 4750 3128 4425 
Q 3525 4100 3525 3541 
Q 3525 3141 3298 2862 
Q 3072 2584 2669 2484 
Q 3125 2378 3379 2068 
Q 3634 1759 3634 1313 
Q 3634 634 3220 271 
Q 2806 -91 2034 -91 
Q 1263 -91 848 271 
Q 434 634 434 1313 
Q 434 1759 690 2068 
Q 947 2378 1403 2484 
z
M 1172 3481 
Q 1172 3119 1398 2916 
Q 1625 2713 2034 2713 
Q 2441 2713 2670 2916 
Q 2900 3119 2900 3481 
Q 2900 3844 2670 4047 
Q 2441 4250 2034 4250 
Q 1625 4250 1398 4047 
Q 1172 3844 1172 3481 
z
" transform="scale(0.015625)"/>
     </defs>
     <use xlink:href="#DejaVuSans-34" transform="translate(0 0.78125)"/>
     <use xlink:href="#DejaVuSans-38" transform="translate(63.623047 0.78125)"/>
    </g>
   </g>
   <g id="text_4">
    <g id="patch_5">
     <path d="M 57.948746 107.710312 
C 61.690844 107.710312 65.28018 106.223561 67.926243 103.577498 
C 70.572307 100.931434 72.059058 97.342099 72.059058 93.6 
C 72.059058 89.857901 70.572307 86.268566 67.926243 83.622502 
C 65.28018 80.976439 61.690844 79.489688 57.948746 79.489688 
C 54.206647 79.489688 50.617311 80.976439 47.971248 83.622502 
C 45.325185 86.268566 43.838433 89.857901 43.838433 93.6 
C 43.838433 97.342099 45.325185 100.931434 47.971248 103.577498 
C 50.617311 106.223561 54.206647 107.710312 57.948746 107.710312 
z
" style="fill: #e0f7fa; stroke: #0072b2; stroke-width: 1.5; stroke-linejoin: miter"/>
    </g>
    <!-- $2$ -->
    <g transform="translate(52.188746 98.566875) scale(0.18 -0.18)">
     <use xlink:href="#DejaVuSans-32" transform="translate(0 0.78125)"/>
    </g>
   </g>
   <g id="text_5">
    <g id="patch_6">
     <path d="M 94.19785 110.52 
C 98.685086 110.52 102.989141 108.737202 106.162096 105.564247 
C 109.335052 102.391291 111.11785 98.087236 111.11785 93.6 
C 111.11785 89.112764 109.335052 84.808709 106.162096 81.635753 
C 102.989141 78.462798 98.685086 76.68 94.19785 76.68 
C 89.710613 76.68 85.406558 78.462798 82.233603 81.635753 
C 79.060648 84.808709 77.27785 89.112764 77.27785 93.6 
C 77.27785 98.087236 79.060648 102.391291 82.233603 105.564247 
C 85.406558 108.737202 89.710613 110.52 94.19785 110.52 
z
" style="fill: #e0f7fa; stroke: #0072b2; stroke-width: 1.5; stroke-linejoin: miter"/>
    </g>
    <!-- $24$ -->
    <g transform="translate(82.67785 98.566875) scale(0.18 -0.18)">
     <use xlink:href="#DejaVuSans-32" transform="translate(0 0.78125)"/>
     <use xlink:href="#DejaVuSans-34" transform="translate(63.623047 0.78125)"/>
    </g>
   </g>
   <g id="text_6">
    <g id="patch_7">
     <path d="M 76.073298 129.310312 
C 79.815396 129.310312 83.404732 127.823561 86.050795 125.177498 
C 88.696859 122.531434 90.18361 118.942099 90.18361 115.2 
C 90.18361 111.457901 88.696859 107.868566 86.050795 105.222502 
C 83.404732 102.576439 79.815396 101.089687 76.073298 101.089687 
C 72.331199 101.089687 68.741863 102.576439 66.0958 105.222502 
C 63.449737 107.868566 61.962985 111.457901 61.962985 115.2 
C 61.962985 118.942099 63.449737 122.531434 66.0958 125.177498 
C 68.741863 127.823561 72.331199 129.310312 76.073298 129.310312 
z
" style="fill: #e0f7fa; stroke: #0072b2; stroke-width: 1.5; stroke-linejoin: miter"/>
    </g>
    <!-- $2$ -->
    <g transform="translate(70.313298 120.166875) scale(0.18 -0.18)">
     <use xlink:href="#DejaVuSans-32" transform="translate(0 0.78125)"/>
    </g>
   </g>
   <g id="text_7">
    <g id="patch_8">
     <path d="M 112.322402 132.12 
C 116.809638 132.12 121.113693 130.337202 124.286649 127.164247 
C 127.459604 123.991291 129.242402 119.687236 129.242402 115.2 
C 129.242402 110.712764 127.459604 106.408709 124.286649 103.235753 
C 121.113693 100.062798 116.809638 98.28 112.322402 98.28 
C 107.835165 98.28 103.53111 100.062798 100.358155 103.235753 
C 97.1852 106.408709 95.402402 110.712764 95.402402 115.2 
C 95.402402 119.687236 97.1852 123.991291 100.358155 127.164247 
C 103.53111 130.337202 107.835165 132.12 112.322402 132.12 
z
" style="fill: #e0f7fa; stroke: #0072b2; stroke-width: 1.5; stroke-linejoin: miter"/>
    </g>
    <!-- $12$ -->
    <g transform="translate(100.802402 120.166875) scale(0.18 -0.18)">
     <defs>
      <path id="DejaVuSans-31" d="M 794 531 
L 1825 531 
L 1825 4091 
L 703 3866 
L 703 4441 
L 1819 4666 
L 2450 4666 
L 2450 531 
L 3481 531 
L 3481 0 
L 794 0 
L 794 531 
z
" transform="scale(0.015625)"/>
     </defs>
     <use xlink:href="#DejaVuSans-31" transform="translate(0 0.78125)"/>
     <use xlink:href="#DejaVuSans-32" transform="translate(63.623047 0.78125)"/>
    </g>
   </g>
   <g id="text_8">
    <g id="patch_9">
     <path d="M 94.19785 150.910313 
C 97.939948 150.910313 101.529284 149.423561 104.175347 146.777498 
C 106.821411 144.131434 108.308162 140.542099 108.308162 136.8 
C 108.308162 133.057901 106.821411 129.468566 104.175347 126.822502 
C 101.529284 124.176439 97.939948 122.689687 94.19785 122.689687 
C 90.455751 122.689687 86.866415 124.176439 84.220352 126.822502 
C 81.574289 129.468566 80.087537 133.057901 80.087537 136.8 
C 80.087537 140.542099 81.574289 144.131434 84.220352 146.777498 
C 86.866415 149.423561 90.455751 150.910313 94.19785 150.910313 
z
" style="fill: #e0f7fa; stroke: #0072b2; stroke-width: 1.5; stroke-linejoin: miter"/>
    </g>
    <!-- $2$ -->
    <g transform="translate(88.43785 141.766875) scale(0.18 -0.18)">
     <use xlink:href="#DejaVuSans-32" transform="translate(0 0.78125)"/>
    </g>
   </g>
   <g id="text_9">
    <g id="patch_10">
     <path d="M 130.446954 150.910313 
C 134.189052 150.910313 137.778388 149.423561 140.424451 146.777498 
C 143.070515 144.131434 144.557266 140.542099 144.557266 136.8 
C 144.557266 133.057901 143.070515 129.468566 140.424451 126.822502 
C 137.778388 124.176439 134.189052 122.689687 130.446954 122.689687 
C 126.704855 122.689687 123.115519 124.176439 120.469456 126.822502 
C 117.823393 129.468566 116.336641 133.057901 116.336641 136.8 
C 116.336641 140.542099 117.823393 144.131434 120.469456 146.777498 
C 123.115519 149.423561 126.704855 150.910313 130.446954 150.910313 
z
" style="fill: #e0f7fa; stroke: #0072b2; stroke-width: 1.5; stroke-linejoin: miter"/>
    </g>
    <!-- $6$ -->
    <g transform="translate(124.686954 141.766875) scale(0.18 -0.18)">
     <use xlink:href="#DejaVuSans-36" transform="translate(0 0.78125)"/>
    </g>
   </g>
   <g id="text_10">
    <g id="patch_11">
     <path d="M 112.322402 172.510312 
C 116.0645 172.510312 119.653836 171.023561 122.299899 168.377498 
C 124.945963 165.731434 126.432714 162.142099 126.432714 158.4 
C 126.432714 154.657901 124.945963 151.068566 122.299899 148.422502 
C 119.653836 145.776439 116.0645 144.289687 112.322402 144.289687 
C 108.580303 144.289687 104.990967 145.776439 102.344904 148.422502 
C 99.698841 151.068566 98.212089 154.657901 98.212089 158.4 
C 98.212089 162.142099 99.698841 165.731434 102.344904 168.377498 
C 104.990967 171.023561 108.580303 172.510312 112.322402 172.510312 
z
" style="fill: #e0f7fa; stroke: #0072b2; stroke-width: 1.5; stroke-linejoin: miter"/>
    </g>
    <!-- $2$ -->
    <g transform="translate(106.562402 163.366875) scale(0.18 -0.18)">
     <use xlink:href="#DejaVuSans-32" transform="translate(0 0.78125)"/>
    </g>
   </g>
   <g id="text_11">
    <g id="patch_12">
     <path d="M 148.571506 172.510312 
C 152.313604 172.510312 155.90294 171.023561 158.549004 168.377498 
C 161.195067 165.731434 162.681818 162.142099 162.681818 158.4 
C 162.681818 154.657901 161.195067 151.068566 158.549004 148.422502 
C 155.90294 145.776439 152.313604 144.289687 148.571506 144.289687 
C 144.829407 144.289687 141.240072 145.776439 138.594008 148.422502 
C 135.947945 151.068566 134.461193 154.657901 134.461193 158.4 
C 134.461193 162.142099 135.947945 165.731434 138.594008 168.377498 
C 141.240072 171.023561 144.829407 172.510312 148.571506 172.510312 
z
" style="fill: #e0f7fa; stroke: #0072b2; stroke-width: 1.5; stroke-linejoin: miter"/>
    </g>
    <!-- $3$ -->
    <g transform="translate(142.811506 163.366875) scale(0.18 -0.18)">
     <defs>
      <path id="DejaVuSans-33" d="M 2597 2516 
Q 3050 2419 3304 2112 
Q 3559 1806 3559 1356 
Q 3559 666 3084 287 
Q 2609 -91 1734 -91 
Q 1441 -91 1130 -33 
Q 819 25 488 141 
L 488 750 
Q 750 597 1062 519 
Q 1375 441 1716 441 
Q 2309 441 2620 675 
Q 2931 909 2931 1356 
Q 2931 1769 2642 2001 
Q 2353 2234 1838 2234 
L 1294 2234 
L 1294 2753 
L 1863 2753 
Q 2328 2753 2575 2939 
Q 2822 3125 2822 3475 
Q 2822 3834 2567 4026 
Q 2313 4219 1838 4219 
Q 1578 4219 1281 4162 
Q 984 4106 628 3988 
L 628 4550 
Q 988 4650 1302 4700 
Q 1616 4750 1894 4750 
Q 2613 4750 3031 4423 
Q 3450 4097 3450 3541 
Q 3450 3153 3228 2886 
Q 3006 2619 2597 2516 
z
" transform="scale(0.015625)"/>
     </defs>
     <use xlink:href="#DejaVuSans-33" transform="translate(0 0.78125)"/>
    </g>
   </g>
  </g>
 </g>
 <defs>
  <clipPath id="p8040e81bc4">
   <rect x="7.2" y="7.2" width="173.9957" height="194.4"/>
  </clipPath>
 </defs>
</svg>
