<?xml version='1.0' encoding='ASCII' standalone='yes'?>
<svg xmlns="http://www.w3.org/2000/svg" xmlns:xlink="http://www.w3.org/1999/xlink" version="1.1" width="1152.0px" viewBox="0 0 1152.0 864.0000000000001" height="864.0000000000001px">
  <g>
    <g transform="translate(0, 0) scale(1 1) translate(0, 0) scale(1.25 1.25) "><metadata>
  <rdf:RDF xmlns:dc="http://purl.org/dc/elements/1.1/" xmlns:cc="http://creativecommons.org/ns#" xmlns:rdf="http://www.w3.org/1999/02/22-rdf-syntax-ns#">
   <cc:Work>
    <dc:type rdf:resource="http://purl.org/dc/dcmitype/StillImage"/>
    <dc:date>2025-11-01T23:20:35.766525</dc:date>
    <dc:format>image/svg+xml</dc:format>
    <dc:creator>
     <cc:Agent>
      <dc:title>Matplotlib v3.9.1, https://matplotlib.org/</dc:title>
     </cc:Agent>
    </dc:creator>
   </cc:Work>
  </rdf:RDF>
 </metadata>
 <defs>
  <style type="text/css">*{stroke-linejoin: round; stroke-linecap: butt}</style>
 </defs>
 <g id="figure_1">
  <g id="patch_1">
   <path d="M 0 345.6  L 460.8 345.6  L 460.8 0  L 0 0  L 0 345.6  z " style="fill: none"/>
  </g>
  <g id="axes_1">
   <g id="patch_2">
    <path d="M 10.8 334.8  L 447 334.8  L 447 24.264473  L 10.8 24.264473  L 10.8 334.8  z " style="fill: none"/>
   </g>
   <g id="matplotlib.axis_1">
    <g id="text_1">
     <!-- $x$ -->
     <g transform="translate(430.369782 152.53181) scale(0.3 -0.3)">
      <defs>
       <path id="CMMI12-78" d="M 3034 2606  C 2829 2567 2752 2414 2752 2293  C 2752 2139 2874 2088 2963 2088  C 3155 2088 3290 2254 3290 2427  C 3290 2695 2982 2816 2714 2816  C 2323 2816 2106 2433 2048 2312  C 1901 2816 1504 2816 1389 2816  C 736 2816 390 1980 390 1839  C 390 1814 416 1782 461 1782  C 512 1782 525 1820 538 1846  C 755 2555 1184 2689 1370 2689  C 1658 2689 1715 2420 1715 2267  C 1715 2127 1677 1980 1600 1673  L 1382 798  C 1286 415 1101 64 762 64  C 730 64 570 64 435 147  C 666 192 717 383 717 460  C 717 588 621 664 499 664  C 346 664 179 530 179 326  C 179 57 480 -64 755 -64  C 1062 -64 1280 179 1414 441  C 1517 64 1837 -64 2074 -64  C 2726 -64 3072 773 3072 913  C 3072 945 3046 971 3008 971  C 2950 971 2944 939 2925 888  C 2752 326 2381 64 2093 64  C 1869 64 1747 230 1747 492  C 1747 632 1773 734 1875 1156  L 2099 2024  C 2195 2408 2413 2689 2707 2689  C 2720 2689 2899 2689 3034 2606  z " transform="scale(0.015625)"/>
      </defs>
      <use xlink:href="#CMMI12-78" transform="scale(0.996264)"/>
     </g>
    </g>
   </g>
   <g id="matplotlib.axis_2">
    <g id="text_2">
     <!-- $y$ -->
     <g transform="translate(137.930756 18.451022) scale(0.3 -0.3)">
      <defs>
       <path id="CMMI12-79" d="M 1683 -700  C 1510 -939 1261 -1152 947 -1152  C 870 -1152 563 -1152 467 -889  C 486 -895 518 -895 531 -895  C 723 -895 851 -729 851 -582  C 851 -435 730 -384 634 -384  C 531 -384 307 -458 307 -759  C 307 -1071 582 -1286 947 -1286  C 1587 -1286 2234 -700 2413 6  L 3040 2485  C 3046 2517 3059 2556 3059 2594  C 3059 2689 2982 2753 2886 2753  C 2829 2753 2694 2727 2643 2535  L 2170 658  C 2138 543 2138 530 2086 460  C 1958 281 1747 64 1440 64  C 1082 64 1050 415 1050 588  C 1050 952 1222 1443 1395 1903  C 1466 2088 1504 2178 1504 2305  C 1504 2574 1312 2816 998 2816  C 410 2816 173 1890 173 1839  C 173 1814 198 1782 243 1782  C 301 1782 307 1807 333 1897  C 486 2433 730 2689 979 2689  C 1037 2689 1146 2689 1146 2478  C 1146 2312 1075 2127 979 1884  C 666 1047 666 837 666 683  C 666 77 1101 -64 1421 -64  C 1606 -64 1837 -6 2061 230  L 2067 224  C 1971 -147 1907 -392 1683 -700  z " transform="scale(0.015625)"/>
      </defs>
      <use xlink:href="#CMMI12-79" transform="scale(0.996264)"/>
     </g>
    </g>
   </g>
   <g id="line2d_1">
    <defs>
     <path id="m5c1824e63b" d="M 3 0  L -3 -3  L -3 3  z " style="stroke: #000000; stroke-linejoin: miter"/>
    </defs>
    <g>
     <use xlink:href="#m5c1824e63b" x="447" y="127.776315" style="stroke: #000000; stroke-linejoin: miter"/>
    </g>
   </g>
   <g id="line2d_2">
    <defs>
     <path id="m6d97ae4001" d="M 0 -3  L -3 3  L 3 3  z " style="stroke: #000000; stroke-linejoin: miter"/>
    </defs>
    <g>
     <use xlink:href="#m6d97ae4001" x="156.2" y="24.264473" style="stroke: #000000; stroke-linejoin: miter"/>
    </g>
   </g>
   <g id="line2d_3">
    <path d="M 61.016653 346.6  L 65.123115 326.223956  L 69.155983 307.324247  L 73.115103 289.821863  L 77.000345 273.64063  L 80.811606 258.707155  L 84.548807 244.950804  L 88.211922 232.303571  L 91.800951 220.700151  L 95.315973 210.077744  L 98.75713 200.376093  L 102.124669 191.537369  L 105.418942 183.506181  L 108.640429 176.229526  L 111.78978 169.656718  L 114.86784 163.739379  L 117.875715 158.431366  L 120.814768 153.688842  L 123.68673 149.470182  L 126.493732 145.736028  L 129.238375 142.449318  L 131.923829 139.575303  L 134.553904 137.08164  L 137.133124 134.9385  L 139.666832 133.118671  L 142.161228 131.597745  L 144.623476 130.354265  L 147.061649 129.369981  L 149.484755 128.630022  L 151.902661 128.12311  L 154.326 127.841726  L 156.765993 127.782232  L 159.234338 127.944926  L 161.743021 128.33404  L 164.30421 128.957679  L 166.930204 129.827743  L 169.633377 130.959818  L 172.4263 132.373132  L 175.321869 134.090548  L 178.333579 136.13869  L 181.47591 138.548236  L 184.764879 141.354452  L 188.218854 144.598142  L 191.859713 148.327165  L 195.714666 152.598987  L 199.819253 157.485097  L 204.222602 163.078988  L 208.9976 169.511911  L 214.263289 176.987901  L 220.244783 185.878149  L 227.500581 197.080065  L 239.483928 216.064857  L 249.918794 232.426079  L 256.411726 242.199649  L 261.744298 249.83642  L 266.389026 256.109811  L 270.545938 261.359594  L 274.324712 265.781768  L 277.794572 269.507643  L 281.003553 272.63406  L 283.987417 275.237132  L 286.774413 277.379298  L 289.388043 279.113159  L 291.848796 280.483621  L 294.175249 281.529047  L 296.384846 282.28184  L 298.494358 282.768617  L 300.520152 283.010159  L 302.478217 283.021237  L 304.384036 282.810436  L 306.252311 282.380073  L 308.096654 281.726258  L 309.929206 280.839148  L 311.760432 279.703319  L 313.598925 278.29826  L 315.451367 276.59888  L 317.322528 274.576059  L 319.215399 272.197084  L 321.131254 269.426157  L 323.069754 266.224851  L 325.029041 262.552591  L 327.005748 258.367267  L 328.994986 253.625993  L 330.990269 248.286142  L 332.983368 242.306776  L 334.964131 235.650551  L 336.920168 228.286568  L 338.836477 220.194368  L 340.695003 211.369473  L 342.474165 201.830948  L 344.148315 191.632227  L 345.687358 180.875507  L 347.056741 169.730559  L 348.218063 158.459737  L 349.130738 147.453144  L 349.754805 137.294913  L 350.051889 129.026588  L 350.06667 127.780527  L 350.127924 131.005147  L 350.471963 139.19614  L 351.153113 149.967959  L 352.211788 163.082926  L 353.716356 178.869986  L 355.791172 198.207502  L 358.694502 223.074529  L 363.179866 259.395449  L 374.144532 346.6  L 374.144532 346.6  " clip-path="url(#p34fa2ce34a)" style="fill: none; stroke: #0072b2; stroke-width: 2.5; stroke-linecap: square"/>
   </g>
   <g id="patch_3">
    <path d="M 156.2 334.8  L 156.2 24.264473  " style="fill: none; stroke: #000000; stroke-width: 0.8; stroke-linejoin: miter; stroke-linecap: square"/>
   </g>
   <g id="patch_4">
    <path d="M 447 334.8  L 447 24.264473  " style="fill: none"/>
   </g>
   <g id="patch_5">
    <path d="M 10.8 127.776315  L 447 127.776315  " style="fill: none; stroke: #000000; stroke-width: 0.8; stroke-linejoin: miter; stroke-linecap: square"/>
   </g>
   <g id="patch_6">
    <path d="M 10.8 24.264473  L 447 24.264473  " style="fill: none"/>
   </g>
   <g id="text_3">
    <g id="patch_7">
     <path d="M 350.066667 56.329897  L 368.732023 56.329897  Q 377.732023 56.329897 377.732023 47.329897  L 377.732023 20.760951  Q 377.732023 11.760951 368.732023 11.760951  L 350.066667 11.760951  Q 341.066667 11.760951 341.066667 20.760951  L 341.066667 47.329897  Q 341.066667 56.329897 350.066667 56.329897  z " style="fill: #ffffff; stroke: #000000; stroke-linejoin: miter"/>
    </g>
    <!-- A -->
    <g transform="translate(350.066667 41.516447) scale(0.3 -0.3)">
     <defs>
      <path id="CMSS17-41" d="M 2272 4416  L 1722 4416  L 166 0  L 653 0  L 1101 1280  L 2816 1280  L 3270 0  L 3827 0  L 2272 4416  z M 2694 1637  L 1222 1637  C 1530 2528 1914 3638 1958 3925  L 1965 3925  C 2010 3663 2138 3281 2246 2956  L 2694 1637  z " transform="scale(0.015625)"/>
     </defs>
     <use xlink:href="#CMSS17-41" transform="scale(0.996264)"/>
    </g>
   </g>
  </g>
 </g>
 <defs>
  <clipPath id="p34fa2ce34a">
   <rect x="10.8" y="24.264473" width="436.2" height="310.535527"/>
  </clipPath>
 </defs>
</g>
    <g transform="translate(576.0, 0) scale(1 1) translate(0, 0) scale(1.25 1.25) "><metadata>
  <rdf:RDF xmlns:dc="http://purl.org/dc/elements/1.1/" xmlns:cc="http://creativecommons.org/ns#" xmlns:rdf="http://www.w3.org/1999/02/22-rdf-syntax-ns#">
   <cc:Work>
    <dc:type rdf:resource="http://purl.org/dc/dcmitype/StillImage"/>
    <dc:date>2025-11-01T23:20:40.832525</dc:date>
    <dc:format>image/svg+xml</dc:format>
    <dc:creator>
     <cc:Agent>
      <dc:title>Matplotlib v3.9.1, https://matplotlib.org/</dc:title>
     </cc:Agent>
    </dc:creator>
   </cc:Work>
  </rdf:RDF>
 </metadata>
 <defs>
  <style type="text/css">*{stroke-linejoin: round; stroke-linecap: butt}</style>
 </defs>
 <g id="figure_1">
  <g id="patch_1">
   <path d="M 0 345.6  L 460.8 345.6  L 460.8 0  L 0 0  L 0 345.6  z " style="fill: none"/>
  </g>
  <g id="axes_1">
   <g id="patch_2">
    <path d="M 10.8 334.8  L 447 334.8  L 447 24.264473  L 10.8 24.264473  L 10.8 334.8  z " style="fill: none"/>
   </g>
   <g id="matplotlib.axis_1">
    <g id="text_1">
     <!-- $x$ -->
     <g transform="translate(430.369782 256.043653) scale(0.3 -0.3)">
      <defs>
       <path id="CMMI12-78" d="M 3034 2606  C 2829 2567 2752 2414 2752 2293  C 2752 2139 2874 2088 2963 2088  C 3155 2088 3290 2254 3290 2427  C 3290 2695 2982 2816 2714 2816  C 2323 2816 2106 2433 2048 2312  C 1901 2816 1504 2816 1389 2816  C 736 2816 390 1980 390 1839  C 390 1814 416 1782 461 1782  C 512 1782 525 1820 538 1846  C 755 2555 1184 2689 1370 2689  C 1658 2689 1715 2420 1715 2267  C 1715 2127 1677 1980 1600 1673  L 1382 798  C 1286 415 1101 64 762 64  C 730 64 570 64 435 147  C 666 192 717 383 717 460  C 717 588 621 664 499 664  C 346 664 179 530 179 326  C 179 57 480 -64 755 -64  C 1062 -64 1280 179 1414 441  C 1517 64 1837 -64 2074 -64  C 2726 -64 3072 773 3072 913  C 3072 945 3046 971 3008 971  C 2950 971 2944 939 2925 888  C 2752 326 2381 64 2093 64  C 1869 64 1747 230 1747 492  C 1747 632 1773 734 1875 1156  L 2099 2024  C 2195 2408 2413 2689 2707 2689  C 2720 2689 2899 2689 3034 2606  z " transform="scale(0.015625)"/>
      </defs>
      <use xlink:href="#CMMI12-78" transform="scale(0.996264)"/>
     </g>
    </g>
   </g>
   <g id="matplotlib.axis_2">
    <g id="text_2">
     <!-- $y$ -->
     <g transform="translate(137.930756 18.451022) scale(0.3 -0.3)">
      <defs>
       <path id="CMMI12-79" d="M 1683 -700  C 1510 -939 1261 -1152 947 -1152  C 870 -1152 563 -1152 467 -889  C 486 -895 518 -895 531 -895  C 723 -895 851 -729 851 -582  C 851 -435 730 -384 634 -384  C 531 -384 307 -458 307 -759  C 307 -1071 582 -1286 947 -1286  C 1587 -1286 2234 -700 2413 6  L 3040 2485  C 3046 2517 3059 2556 3059 2594  C 3059 2689 2982 2753 2886 2753  C 2829 2753 2694 2727 2643 2535  L 2170 658  C 2138 543 2138 530 2086 460  C 1958 281 1747 64 1440 64  C 1082 64 1050 415 1050 588  C 1050 952 1222 1443 1395 1903  C 1466 2088 1504 2178 1504 2305  C 1504 2574 1312 2816 998 2816  C 410 2816 173 1890 173 1839  C 173 1814 198 1782 243 1782  C 301 1782 307 1807 333 1897  C 486 2433 730 2689 979 2689  C 1037 2689 1146 2689 1146 2478  C 1146 2312 1075 2127 979 1884  C 666 1047 666 837 666 683  C 666 77 1101 -64 1421 -64  C 1606 -64 1837 -6 2061 230  L 2067 224  C 1971 -147 1907 -392 1683 -700  z " transform="scale(0.015625)"/>
      </defs>
      <use xlink:href="#CMMI12-79" transform="scale(0.996264)"/>
     </g>
    </g>
   </g>
   <g id="line2d_1">
    <defs>
     <path id="mdd86328442" d="M 3 0  L -3 -3  L -3 3  z " style="stroke: #000000; stroke-linejoin: miter"/>
    </defs>
    <g>
     <use xlink:href="#mdd86328442" x="447" y="231.288158" style="stroke: #000000; stroke-linejoin: miter"/>
    </g>
   </g>
   <g id="line2d_2">
    <defs>
     <path id="m9b1ac15019" d="M 0 -3  L -3 3  L 3 3  z " style="stroke: #000000; stroke-linejoin: miter"/>
    </defs>
    <g>
     <use xlink:href="#m9b1ac15019" x="156.2" y="24.264473" style="stroke: #000000; stroke-linejoin: miter"/>
    </g>
   </g>
   <g id="line2d_3">
    <path d="M 58.423516 -1  L 62.575719 20.336231  L 66.654423 40.145452  L 70.659459 58.508434  L 74.590694 75.503183  L 78.448013 91.204833  L 82.231324 105.68574  L 85.940549 119.015471  L 89.575689 131.261067  L 93.136769 142.486873  L 96.62388 152.754691  L 100.037218 162.123899  L 103.377041 170.651337  L 106.643767 178.39154  L 109.837929 185.396612  L 112.960253 191.716382  L 116.011677 197.398377  L 118.993383 202.487843  L 121.906892 207.027823  L 124.754051 211.059046  L 127.537172 214.620029  L 130.259065 217.746969  L 132.923121 220.473706  L 135.533424 222.83166  L 138.094782 224.849677  L 140.612864 226.553937  L 143.094235 227.96776  L 145.546382 229.111406  L 147.977756 230.001886  L 150.397703 230.652733  L 152.816376 231.073819  L 155.244655 231.271212  L 157.693969 231.247064  L 160.176119 230.999592  L 162.703197 230.523088  L 165.287409 229.808007  L 167.941079 228.841046  L 170.676647 227.605241  L 173.506776 226.08  L 176.444556 224.241061  L 179.503805 222.06031  L 182.699514 219.505416  L 186.048463 216.539164  L 189.57018 213.118315  L 193.288297 209.191754  L 197.23274 204.697365  L 201.443367 199.556593  L 205.976674 193.664182  L 210.919214 186.867302  L 216.419197 178.91596  L 222.780337 169.315012  L 230.908536 156.618076  L 252.262081 123.0616  L 258.279546 114.143539  L 263.35146 107.013261  L 267.818 101.108008  L 271.839662 96.150886  L 275.509394 91.972582  L 278.887957 88.455453  L 282.018602 85.510619  L 284.934178 83.067105  L 287.66114 81.066042  L 290.22181 79.457586  L 292.635946 78.199092  L 294.92167 77.254223  L 297.096168 76.592501  L 299.176054 76.189234  L 301.17759 76.025616  L 303.116597 76.088915  L 305.00835 76.372626  L 306.867227 76.876512  L 308.706382 77.606478  L 310.537427 78.574269  L 312.370213 79.797057  L 314.212696 81.296932  L 316.070923 83.100382  L 317.949052 85.237766  L 319.849502 87.742883  L 321.772988 90.652439  L 323.718677 94.005658  L 325.684204 97.843696  L 327.665694 102.209001  L 329.65774 107.144503  L 331.653297 112.69245  L 333.643536 118.892883  L 335.617577 125.781303  L 337.562214 133.385653  L 339.46148 141.721789  L 341.296216 150.787383  L 343.043542 160.5533  L 344.676353 170.95165  L 346.163059 181.860181  L 347.467716 193.081495  L 348.550948 204.315435  L 349.37204 215.118033  L 349.89181 224.806765  L 350.06667 231.283946  L 350.130836 227.957696  L 350.479854 219.719646  L 351.166489 208.91166  L 352.231457 195.758928  L 353.743707 179.925311  L 355.828845 160.521594  L 358.748555 135.541236  L 363.273165 98.926208  L 375.807102 -1  L 375.807102 -1  " clip-path="url(#p0ebc60ff2f)" style="fill: none; stroke: #0072b2; stroke-width: 2.5; stroke-linecap: square"/>
   </g>
   <g id="patch_3">
    <path d="M 156.2 334.8  L 156.2 24.264473  " style="fill: none; stroke: #000000; stroke-width: 0.8; stroke-linejoin: miter; stroke-linecap: square"/>
   </g>
   <g id="patch_4">
    <path d="M 447 334.8  L 447 24.264473  " style="fill: none"/>
   </g>
   <g id="patch_5">
    <path d="M 10.8 231.288158  L 447 231.288158  " style="fill: none; stroke: #000000; stroke-width: 0.8; stroke-linejoin: miter; stroke-linecap: square"/>
   </g>
   <g id="patch_6">
    <path d="M 10.8 24.264473  L 447 24.264473  " style="fill: none"/>
   </g>
   <g id="text_3">
    <g id="patch_7">
     <path d="M 398.533333 125.337792  L 417.234733 125.337792  Q 426.234733 125.337792 426.234733 116.337792  L 426.234733 89.768846  Q 426.234733 80.768846 417.234733 80.768846  L 398.533333 80.768846  Q 389.533333 80.768846 389.533333 89.768846  L 389.533333 116.337792  Q 389.533333 125.337792 398.533333 125.337792  z " style="fill: #ffffff; stroke: #000000; stroke-linejoin: miter"/>
    </g>
    <!-- B -->
    <g transform="translate(398.533333 110.524341) scale(0.3 -0.3)">
     <defs>
      <path id="CMSS17-42" d="M 570 4416  L 570 0  L 2163 0  C 3034 0 3667 574 3667 1200  C 3667 1685 3251 2176 2502 2317  C 3334 2558 3501 3040 3501 3313  C 3501 3883 2874 4416 1997 4416  L 570 4416  z M 1088 2496  L 1088 4059  L 1824 4059  C 2483 4059 3002 3724 3002 3306  C 3002 2926 2592 2496 1766 2496  L 1088 2496  z M 1088 357  L 1088 2107  L 1939 2107  C 2630 2107 3162 1679 3162 1206  C 3162 772 2694 357 1984 357  L 1088 357  z " transform="scale(0.015625)"/>
     </defs>
     <use xlink:href="#CMSS17-42" transform="scale(0.996264)"/>
    </g>
   </g>
  </g>
 </g>
 <defs>
  <clipPath id="p0ebc60ff2f">
   <rect x="10.8" y="24.264473" width="436.2" height="310.535527"/>
  </clipPath>
 </defs>
</g>
    <g transform="translate(0, 432.00000000000006) scale(1 1) translate(0, 0) scale(1.25 1.25) "><metadata>
  <rdf:RDF xmlns:dc="http://purl.org/dc/elements/1.1/" xmlns:cc="http://creativecommons.org/ns#" xmlns:rdf="http://www.w3.org/1999/02/22-rdf-syntax-ns#">
   <cc:Work>
    <dc:type rdf:resource="http://purl.org/dc/dcmitype/StillImage"/>
    <dc:date>2025-11-01T23:23:44.442019</dc:date>
    <dc:format>image/svg+xml</dc:format>
    <dc:creator>
     <cc:Agent>
      <dc:title>Matplotlib v3.9.1, https://matplotlib.org/</dc:title>
     </cc:Agent>
    </dc:creator>
   </cc:Work>
  </rdf:RDF>
 </metadata>
 <defs>
  <style type="text/css">*{stroke-linejoin: round; stroke-linecap: butt}</style>
 </defs>
 <g id="figure_1">
  <g id="patch_1">
   <path d="M 0 345.6  L 460.8 345.6  L 460.8 0  L 0 0  L 0 345.6  z " style="fill: none"/>
  </g>
  <g id="axes_1">
   <g id="patch_2">
    <path d="M 10.8 334.8  L 447 334.8  L 447 24.264473  L 10.8 24.264473  L 10.8 334.8  z " style="fill: none"/>
   </g>
   <g id="matplotlib.axis_1">
    <g id="text_1">
     <!-- $x$ -->
     <g transform="translate(430.369782 152.53181) scale(0.3 -0.3)">
      <defs>
       <path id="CMMI12-78" d="M 3034 2606  C 2829 2567 2752 2414 2752 2293  C 2752 2139 2874 2088 2963 2088  C 3155 2088 3290 2254 3290 2427  C 3290 2695 2982 2816 2714 2816  C 2323 2816 2106 2433 2048 2312  C 1901 2816 1504 2816 1389 2816  C 736 2816 390 1980 390 1839  C 390 1814 416 1782 461 1782  C 512 1782 525 1820 538 1846  C 755 2555 1184 2689 1370 2689  C 1658 2689 1715 2420 1715 2267  C 1715 2127 1677 1980 1600 1673  L 1382 798  C 1286 415 1101 64 762 64  C 730 64 570 64 435 147  C 666 192 717 383 717 460  C 717 588 621 664 499 664  C 346 664 179 530 179 326  C 179 57 480 -64 755 -64  C 1062 -64 1280 179 1414 441  C 1517 64 1837 -64 2074 -64  C 2726 -64 3072 773 3072 913  C 3072 945 3046 971 3008 971  C 2950 971 2944 939 2925 888  C 2752 326 2381 64 2093 64  C 1869 64 1747 230 1747 492  C 1747 632 1773 734 1875 1156  L 2099 2024  C 2195 2408 2413 2689 2707 2689  C 2720 2689 2899 2689 3034 2606  z " transform="scale(0.015625)"/>
      </defs>
      <use xlink:href="#CMMI12-78" transform="scale(0.996264)"/>
     </g>
    </g>
   </g>
   <g id="matplotlib.axis_2">
    <g id="text_2">
     <!-- $y$ -->
     <g transform="translate(137.930756 18.451022) scale(0.3 -0.3)">
      <defs>
       <path id="CMMI12-79" d="M 1683 -700  C 1510 -939 1261 -1152 947 -1152  C 870 -1152 563 -1152 467 -889  C 486 -895 518 -895 531 -895  C 723 -895 851 -729 851 -582  C 851 -435 730 -384 634 -384  C 531 -384 307 -458 307 -759  C 307 -1071 582 -1286 947 -1286  C 1587 -1286 2234 -700 2413 6  L 3040 2485  C 3046 2517 3059 2556 3059 2594  C 3059 2689 2982 2753 2886 2753  C 2829 2753 2694 2727 2643 2535  L 2170 658  C 2138 543 2138 530 2086 460  C 1958 281 1747 64 1440 64  C 1082 64 1050 415 1050 588  C 1050 952 1222 1443 1395 1903  C 1466 2088 1504 2178 1504 2305  C 1504 2574 1312 2816 998 2816  C 410 2816 173 1890 173 1839  C 173 1814 198 1782 243 1782  C 301 1782 307 1807 333 1897  C 486 2433 730 2689 979 2689  C 1037 2689 1146 2689 1146 2478  C 1146 2312 1075 2127 979 1884  C 666 1047 666 837 666 683  C 666 77 1101 -64 1421 -64  C 1606 -64 1837 -6 2061 230  L 2067 224  C 1971 -147 1907 -392 1683 -700  z " transform="scale(0.015625)"/>
      </defs>
      <use xlink:href="#CMMI12-79" transform="scale(0.996264)"/>
     </g>
    </g>
   </g>
   <g id="line2d_1">
    <defs>
     <path id="m15bbbf67b5" d="M 3 0  L -3 -3  L -3 3  z " style="stroke: #000000; stroke-linejoin: miter"/>
    </defs>
    <g>
     <use xlink:href="#m15bbbf67b5" x="447" y="127.776315" style="stroke: #000000; stroke-linejoin: miter"/>
    </g>
   </g>
   <g id="line2d_2">
    <defs>
     <path id="m85bb9474b6" d="M 0 -3  L -3 3  L 3 3  z " style="stroke: #000000; stroke-linejoin: miter"/>
    </defs>
    <g>
     <use xlink:href="#m85bb9474b6" x="156.2" y="24.264473" style="stroke: #000000; stroke-linejoin: miter"/>
    </g>
   </g>
   <g id="line2d_3">
    <path d="M 30.169303 346.6  L 35.159731 328.558544  L 40.065961 311.646533  L 44.888155 295.813546  L 49.626572 281.010361  L 54.281444 267.189371  L 58.853118 254.304143  L 63.34194 242.309771  L 67.748372 231.162563  L 72.072905 220.820285  L 76.316147 211.241962  L 80.47879 202.387965  L 84.561643 194.21998  L 88.56566 186.700973  L 92.491938 179.795232  L 96.34172 173.468398  L 100.116508 167.687321  L 103.817976 162.420256  L 107.448091 157.636744  L 111.009075 153.307721  L 114.50353 149.405449  L 117.934373 145.903664  L 121.304954 142.777542  L 124.619058 140.003791  L 127.880961 137.560707  L 131.095459 135.428257  L 134.267895 133.588174  L 137.404162 132.02406  L 140.510761 130.721472  L 143.594683 129.668075  L 146.663496 128.853696  L 149.725261 128.270443  L 152.788441 127.912796  L 155.861847 127.777649  L 158.954609 127.864357  L 162.076028 128.174744  L 165.23555 128.713098  L 168.44271 129.486137  L 171.707097 130.502977  L 175.038333 131.77508  L 178.44618 133.316259  L 181.940519 135.142644  L 185.531577 137.272776  L 189.229983 139.727653  L 193.04715 142.531017  L 196.995499 145.709623  L 201.088983 149.293794  L 205.343838 153.318336  L 209.779447 157.82374  L 214.419991 162.858402  L 219.296928 168.482177  L 224.453216 174.772549  L 229.951398 181.836561  L 235.890272 189.835704  L 242.446202 199.047889  L 250.005455 210.066785  L 259.93006 224.957254  L 278.32159 252.606718  L 284.90924 262.056581  L 290.218058 269.295754  L 294.748277 275.108242  L 298.71887 279.850949  L 302.252671 283.734721  L 305.428804 286.903562  L 308.303228 289.465279  L 310.918435 291.505568  L 313.308603 293.095115  L 315.502704 294.293441  L 317.526451 295.150858  L 319.403503 295.709313  L 321.156277 296.002569  L 322.806237 296.05593  L 324.373923 295.885808  L 325.878459 295.499366  L 327.337063 294.894434  L 328.764322 294.059853  L 330.171764 292.976137  L 331.567622 291.616348  L 332.956865 289.946996  L 334.341427 287.928811  L 335.720472 285.517453  L 337.090764 282.66395  L 338.446929 279.315163  L 339.781803 275.413879  L 341.086576 270.899205  L 342.351079 265.706364  L 343.563871 259.766967  L 344.71256 253.00804  L 345.783972 245.350967  L 346.764502 236.708202  L 347.640398 226.97782  L 348.398284 216.030566  L 349.025653 203.684126  L 349.511614 189.639473  L 349.847557 173.315233  L 350.028745 153.201886  L 350.067889 119.682168  L 350.192629 89.775892  L 350.495263 70.442327  L 350.976255 53.731994  L 351.643923 38.208927  L 352.512019 23.188991  L 353.600563 8.216255  L 354.379312 -1  L 354.379312 -1  " clip-path="url(#p054b97fa1f)" style="fill: none; stroke: #0072b2; stroke-width: 2.5; stroke-linecap: square"/>
   </g>
   <g id="patch_3">
    <path d="M 156.2 334.8  L 156.2 24.264473  " style="fill: none; stroke: #000000; stroke-width: 0.8; stroke-linejoin: miter; stroke-linecap: square"/>
   </g>
   <g id="patch_4">
    <path d="M 447 334.8  L 447 24.264473  " style="fill: none"/>
   </g>
   <g id="patch_5">
    <path d="M 10.8 127.776315  L 447 127.776315  " style="fill: none; stroke: #000000; stroke-width: 0.8; stroke-linejoin: miter; stroke-linecap: square"/>
   </g>
   <g id="patch_6">
    <path d="M 10.8 24.264473  L 447 24.264473  " style="fill: none"/>
   </g>
   <g id="text_3">
    <g id="patch_7">
     <path d="M 398.533333 56.329897  L 416.490059 56.329897  Q 425.490059 56.329897 425.490059 47.329897  L 425.490059 20.760951  Q 425.490059 11.760951 416.490059 11.760951  L 398.533333 11.760951  Q 389.533333 11.760951 389.533333 20.760951  L 389.533333 47.329897  Q 389.533333 56.329897 398.533333 56.329897  z " style="fill: #ffffff; stroke: #000000; stroke-linejoin: miter"/>
    </g>
    <!-- C -->
    <g transform="translate(398.533333 41.516447) scale(0.3 -0.3)">
     <defs>
      <path id="CMSS17-43" d="M 3501 714  C 3072 427 2874 344 2355 344  C 1459 344 934 1303 934 2179  C 934 3112 1472 4032 2381 4032  C 2790 4032 3059 3918 3386 3715  L 3475 4217  C 3168 4370 2778 4440 2387 4440  C 1158 4440 397 3316 397 2179  C 397 927 1299 -64 2323 -64  C 2874 -64 3066 -19 3539 280  L 3501 714  z " transform="scale(0.015625)"/>
     </defs>
     <use xlink:href="#CMSS17-43" transform="scale(0.996264)"/>
    </g>
   </g>
  </g>
 </g>
 <defs>
  <clipPath id="p054b97fa1f">
   <rect x="10.8" y="24.264473" width="436.2" height="310.535527"/>
  </clipPath>
 </defs>
</g>
    <g transform="translate(576.0, 432.00000000000006) scale(1 1) translate(0, 0) scale(1.25 1.25) "><metadata>
  <rdf:RDF xmlns:dc="http://purl.org/dc/elements/1.1/" xmlns:cc="http://creativecommons.org/ns#" xmlns:rdf="http://www.w3.org/1999/02/22-rdf-syntax-ns#">
   <cc:Work>
    <dc:type rdf:resource="http://purl.org/dc/dcmitype/StillImage"/>
    <dc:date>2025-11-01T23:25:53.247162</dc:date>
    <dc:format>image/svg+xml</dc:format>
    <dc:creator>
     <cc:Agent>
      <dc:title>Matplotlib v3.9.1, https://matplotlib.org/</dc:title>
     </cc:Agent>
    </dc:creator>
   </cc:Work>
  </rdf:RDF>
 </metadata>
 <defs>
  <style type="text/css">*{stroke-linejoin: round; stroke-linecap: butt}</style>
 </defs>
 <g id="figure_1">
  <g id="patch_1">
   <path d="M 0 345.6  L 460.8 345.6  L 460.8 0  L 0 0  L 0 345.6  z " style="fill: none"/>
  </g>
  <g id="axes_1">
   <g id="patch_2">
    <path d="M 10.8 334.8  L 447 334.8  L 447 24.264473  L 10.8 24.264473  L 10.8 334.8  z " style="fill: none"/>
   </g>
   <g id="matplotlib.axis_1">
    <g id="text_1">
     <!-- $x$ -->
     <g transform="translate(430.369782 256.043653) scale(0.3 -0.3)">
      <defs>
       <path id="CMMI12-78" d="M 3034 2606  C 2829 2567 2752 2414 2752 2293  C 2752 2139 2874 2088 2963 2088  C 3155 2088 3290 2254 3290 2427  C 3290 2695 2982 2816 2714 2816  C 2323 2816 2106 2433 2048 2312  C 1901 2816 1504 2816 1389 2816  C 736 2816 390 1980 390 1839  C 390 1814 416 1782 461 1782  C 512 1782 525 1820 538 1846  C 755 2555 1184 2689 1370 2689  C 1658 2689 1715 2420 1715 2267  C 1715 2127 1677 1980 1600 1673  L 1382 798  C 1286 415 1101 64 762 64  C 730 64 570 64 435 147  C 666 192 717 383 717 460  C 717 588 621 664 499 664  C 346 664 179 530 179 326  C 179 57 480 -64 755 -64  C 1062 -64 1280 179 1414 441  C 1517 64 1837 -64 2074 -64  C 2726 -64 3072 773 3072 913  C 3072 945 3046 971 3008 971  C 2950 971 2944 939 2925 888  C 2752 326 2381 64 2093 64  C 1869 64 1747 230 1747 492  C 1747 632 1773 734 1875 1156  L 2099 2024  C 2195 2408 2413 2689 2707 2689  C 2720 2689 2899 2689 3034 2606  z " transform="scale(0.015625)"/>
      </defs>
      <use xlink:href="#CMMI12-78" transform="scale(0.996264)"/>
     </g>
    </g>
   </g>
   <g id="matplotlib.axis_2">
    <g id="text_2">
     <!-- $y$ -->
     <g transform="translate(137.930756 18.451022) scale(0.3 -0.3)">
      <defs>
       <path id="CMMI12-79" d="M 1683 -700  C 1510 -939 1261 -1152 947 -1152  C 870 -1152 563 -1152 467 -889  C 486 -895 518 -895 531 -895  C 723 -895 851 -729 851 -582  C 851 -435 730 -384 634 -384  C 531 -384 307 -458 307 -759  C 307 -1071 582 -1286 947 -1286  C 1587 -1286 2234 -700 2413 6  L 3040 2485  C 3046 2517 3059 2556 3059 2594  C 3059 2689 2982 2753 2886 2753  C 2829 2753 2694 2727 2643 2535  L 2170 658  C 2138 543 2138 530 2086 460  C 1958 281 1747 64 1440 64  C 1082 64 1050 415 1050 588  C 1050 952 1222 1443 1395 1903  C 1466 2088 1504 2178 1504 2305  C 1504 2574 1312 2816 998 2816  C 410 2816 173 1890 173 1839  C 173 1814 198 1782 243 1782  C 301 1782 307 1807 333 1897  C 486 2433 730 2689 979 2689  C 1037 2689 1146 2689 1146 2478  C 1146 2312 1075 2127 979 1884  C 666 1047 666 837 666 683  C 666 77 1101 -64 1421 -64  C 1606 -64 1837 -6 2061 230  L 2067 224  C 1971 -147 1907 -392 1683 -700  z " transform="scale(0.015625)"/>
      </defs>
      <use xlink:href="#CMMI12-79" transform="scale(0.996264)"/>
     </g>
    </g>
   </g>
   <g id="line2d_1">
    <defs>
     <path id="mb7989f6523" d="M 3 0  L -3 -3  L -3 3  z " style="stroke: #000000; stroke-linejoin: miter"/>
    </defs>
    <g>
     <use xlink:href="#mb7989f6523" x="447" y="231.288158" style="stroke: #000000; stroke-linejoin: miter"/>
    </g>
   </g>
   <g id="line2d_2">
    <defs>
     <path id="m46d84d8f4a" d="M 0 -3  L -3 3  L 3 3  z " style="stroke: #000000; stroke-linejoin: miter"/>
    </defs>
    <g>
     <use xlink:href="#m46d84d8f4a" x="156.2" y="24.264473" style="stroke: #000000; stroke-linejoin: miter"/>
    </g>
   </g>
   <g id="line2d_3">
    <path d="M 26.590332 -1  L 31.640374 17.871165  L 36.606115 35.576355  L 41.487703 52.167025  L 46.285312 67.693193  L 50.999204 82.20364  L 55.629665 95.7457  L 60.177015 108.365272  L 64.641657 120.106975  L 69.024025 131.013974  L 73.324668 141.128202  L 77.544221 150.490246  L 81.683378 159.13928  L 85.743034 167.11334  L 89.724142 174.44899  L 93.627858 181.181582  L 97.455512 187.345142  L 101.208633 192.972376  L 104.888984 198.094664  L 108.498588 202.742038  L 112.039813 206.943226  L 115.515317 210.725498  L 118.928133 214.114696  L 122.281757 217.135225  L 125.580088 219.809896  L 128.827576 222.159956  L 132.029189 224.204934  L 135.190387 225.962535  L 138.317266 227.448611  L 141.41647 228.676994  L 144.495163 229.6594  L 147.561058 230.405339  L 150.622332 230.922015  L 153.687592 231.214251  L 156.765736 231.28443  L 159.865922 231.132474  L 162.997538 230.755834  L 166.170032 230.149511  L 169.392964 229.306077  L 172.675927 228.215731  L 176.028598 226.866313  L 179.46074 225.24334  L 182.98235 223.329973  L 186.60374 221.106968  L 190.335744 218.552545  L 194.190003 215.642141  L 198.179345 212.348014  L 202.318328 208.638616  L 206.62394 204.477683  L 211.116835 199.822623  L 215.822984 194.622163  L 220.776649 188.812109  L 226.025466 182.307895  L 231.640242 174.990052  L 237.736298 166.672296  L 244.529604 157.017204  L 252.539226 145.231062  L 264.343685 127.414318  L 277.350016 107.884033  L 284.171748 98.043354  L 289.603025 90.585957  L 294.215633 84.619133  L 298.248221 79.75611  L 301.831681 75.773782  L 305.049124 72.522002  L 307.958763 69.889397  L 310.604361 67.788049  L 313.02099 66.145605  L 315.238145 64.901288  L 317.281853 64.003707  L 319.176007 63.409879  L 320.943139 63.085017  L 322.604827 63.002741  L 324.1817 63.145497  L 325.69314 63.504957  L 327.156626 64.08213  L 328.587092 64.887075  L 329.996498 65.938303  L 331.393483 67.261872  L 332.78339 68.890475  L 334.16853 70.862707  L 335.548384 73.222283  L 336.920004 76.017619  L 338.278307 79.30144  L 339.616302 83.130382  L 340.925379 87.564909  L 342.195515 92.669249  L 343.415442 98.511428  L 344.572856 105.163698  L 345.654668 112.70386  L 346.647302 121.218004  L 347.537006 130.805727  L 348.310348 141.591958  L 348.954704 153.750706  L 349.458864 167.559043  L 349.813931 183.546198  L 350.014532 203.020692  L 350.066646 229.225543  L 350.17804 267.755467  L 350.468368 287.381351  L 350.936707 304.213786  L 351.590942 319.793218  L 352.444449 334.831836  L 353.269208 346.6  L 353.269208 346.6  " clip-path="url(#p8c9947c2fc)" style="fill: none; stroke: #0072b2; stroke-width: 2.5; stroke-linecap: square"/>
   </g>
   <g id="patch_3">
    <path d="M 156.2 334.8  L 156.2 24.264473  " style="fill: none; stroke: #000000; stroke-width: 0.8; stroke-linejoin: miter; stroke-linecap: square"/>
   </g>
   <g id="patch_4">
    <path d="M 447 334.8  L 447 24.264473  " style="fill: none"/>
   </g>
   <g id="patch_5">
    <path d="M 10.8 231.288158  L 447 231.288158  " style="fill: none; stroke: #000000; stroke-width: 0.8; stroke-linejoin: miter; stroke-linecap: square"/>
   </g>
   <g id="patch_6">
    <path d="M 10.8 24.264473  L 447 24.264473  " style="fill: none"/>
   </g>
   <g id="text_3">
    <g id="patch_7">
     <path d="M 398.533333 73.581871  L 418.796184 73.581871  Q 427.796184 73.581871 427.796184 64.581871  L 427.796184 38.012925  Q 427.796184 29.012925 418.796184 29.012925  L 398.533333 29.012925  Q 389.533333 29.012925 389.533333 38.012925  L 389.533333 64.581871  Q 389.533333 73.581871 398.533333 73.581871  z " style="fill: #ffffff; stroke: #000000; stroke-linejoin: miter"/>
    </g>
    <!-- D -->
    <g transform="translate(398.533333 58.76842) scale(0.3 -0.3)">
     <defs>
      <path id="CMSS17-44" d="M 570 4416  L 570 0  L 2144 0  C 3194 0 4000 980 4000 2170  C 4000 3398 3194 4416 2144 4416  L 570 4416  z M 1094 357  L 1094 4059  L 2003 4059  C 2861 4059 3475 3277 3475 2170  C 3475 1107 2867 357 2003 357  L 1094 357  z " transform="scale(0.015625)"/>
     </defs>
     <use xlink:href="#CMSS17-44" transform="scale(0.996264)"/>
    </g>
   </g>
  </g>
 </g>
 <defs>
  <clipPath id="p8c9947c2fc">
   <rect x="10.8" y="24.264473" width="436.2" height="310.535527"/>
  </clipPath>
 </defs>
</g>
  </g>
</svg>
