<?xml version="1.0" encoding="utf-8" standalone="no"?>
<!DOCTYPE svg PUBLIC "-//W3C//DTD SVG 1.1//EN"
  "http://www.w3.org/Graphics/SVG/1.1/DTD/svg11.dtd">
<svg xmlns:xlink="http://www.w3.org/1999/xlink" width="222.800353pt" height="352.8pt" viewBox="0 0 222.800353 352.8" xmlns="http://www.w3.org/2000/svg" version="1.1">
 <metadata>
  <rdf:RDF xmlns:dc="http://purl.org/dc/elements/1.1/" xmlns:cc="http://creativecommons.org/ns#" xmlns:rdf="http://www.w3.org/1999/02/22-rdf-syntax-ns#">
   <cc:Work>
    <dc:type rdf:resource="http://purl.org/dc/dcmitype/StillImage"/>
    <dc:date>2025-11-12T00:29:39.637479</dc:date>
    <dc:format>image/svg+xml</dc:format>
    <dc:creator>
     <cc:Agent>
      <dc:title>Matplotlib v3.9.1, https://matplotlib.org/</dc:title>
     </cc:Agent>
    </dc:creator>
   </cc:Work>
  </rdf:RDF>
 </metadata>
 <defs>
  <style type="text/css">*{stroke-linejoin: round; stroke-linecap: butt}</style>
 </defs>
 <g id="figure_1">
  <g id="patch_1">
   <path d="M 0 352.8 
L 222.800353 352.8 
L 222.800353 0 
L 0 0 
L 0 352.8 
z
" style="fill: none"/>
  </g>
  <g id="axes_1">
   <g id="line2d_1">
    <path d="M 67.983436 82.4 
L 46.275066 120 
" clip-path="url(#p255dfd9c73)" style="fill: none; stroke: #455a64; stroke-width: 1.2; stroke-linecap: square"/>
   </g>
   <g id="line2d_2">
    <path d="M 67.983436 82.4 
L 89.691806 120 
" clip-path="url(#p255dfd9c73)" style="fill: none; stroke: #455a64; stroke-width: 1.2; stroke-linecap: square"/>
   </g>
   <g id="line2d_3">
    <path d="M 89.691806 120 
L 67.983436 157.6 
" clip-path="url(#p255dfd9c73)" style="fill: none; stroke: #455a64; stroke-width: 1.2; stroke-linecap: square"/>
   </g>
   <g id="line2d_4">
    <path d="M 89.691806 120 
L 111.400177 157.6 
" clip-path="url(#p255dfd9c73)" style="fill: none; stroke: #455a64; stroke-width: 1.2; stroke-linecap: square"/>
   </g>
   <g id="line2d_5">
    <path d="M 111.400177 157.6 
L 89.691806 195.2 
" clip-path="url(#p255dfd9c73)" style="fill: none; stroke: #455a64; stroke-width: 1.2; stroke-linecap: square"/>
   </g>
   <g id="line2d_6">
    <path d="M 111.400177 157.6 
L 133.108547 195.2 
" clip-path="url(#p255dfd9c73)" style="fill: none; stroke: #455a64; stroke-width: 1.2; stroke-linecap: square"/>
   </g>
   <g id="line2d_7">
    <path d="M 133.108547 195.2 
L 111.400177 232.8 
" clip-path="url(#p255dfd9c73)" style="fill: none; stroke: #455a64; stroke-width: 1.2; stroke-linecap: square"/>
   </g>
   <g id="line2d_8">
    <path d="M 133.108547 195.2 
L 154.816917 232.8 
" clip-path="url(#p255dfd9c73)" style="fill: none; stroke: #455a64; stroke-width: 1.2; stroke-linecap: square"/>
   </g>
   <g id="line2d_9">
    <path d="M 154.816917 232.8 
L 133.108547 270.4 
" clip-path="url(#p255dfd9c73)" style="fill: none; stroke: #455a64; stroke-width: 1.2; stroke-linecap: square"/>
   </g>
   <g id="line2d_10">
    <path d="M 154.816917 232.8 
L 176.525287 270.4 
" clip-path="url(#p255dfd9c73)" style="fill: none; stroke: #455a64; stroke-width: 1.2; stroke-linecap: square"/>
   </g>
   <g id="text_1">
    <g id="patch_2">
     <path d="M 67.983436 104.99 
C 73.974374 104.99 79.720746 102.609775 83.956979 98.373542 
C 88.193211 94.137309 90.573436 88.390938 90.573436 82.4 
C 90.573436 76.409062 88.193211 70.662691 83.956979 66.426458 
C 79.720746 62.190225 73.974374 59.81 67.983436 59.81 
C 61.992498 59.81 56.246127 62.190225 52.009894 66.426458 
C 47.773661 70.662691 45.393436 76.409062 45.393436 82.4 
C 45.393436 88.390938 47.773661 94.137309 52.009894 98.373542 
C 56.246127 102.609775 61.992498 104.99 67.983436 104.99 
z
" style="fill: #e0f7fa; stroke: #0072b2; stroke-width: 1.5; stroke-linejoin: miter"/>
    </g>
    <!-- $360$ -->
    <g transform="translate(50.793436 87.366875) scale(0.18 -0.18)">
     <defs>
      <path id="DejaVuSans-33" d="M 2597 2516 
Q 3050 2419 3304 2112 
Q 3559 1806 3559 1356 
Q 3559 666 3084 287 
Q 2609 -91 1734 -91 
Q 1441 -91 1130 -33 
Q 819 25 488 141 
L 488 750 
Q 750 597 1062 519 
Q 1375 441 1716 441 
Q 2309 441 2620 675 
Q 2931 909 2931 1356 
Q 2931 1769 2642 2001 
Q 2353 2234 1838 2234 
L 1294 2234 
L 1294 2753 
L 1863 2753 
Q 2328 2753 2575 2939 
Q 2822 3125 2822 3475 
Q 2822 3834 2567 4026 
Q 2313 4219 1838 4219 
Q 1578 4219 1281 4162 
Q 984 4106 628 3988 
L 628 4550 
Q 988 4650 1302 4700 
Q 1616 4750 1894 4750 
Q 2613 4750 3031 4423 
Q 3450 4097 3450 3541 
Q 3450 3153 3228 2886 
Q 3006 2619 2597 2516 
z
" transform="scale(0.015625)"/>
      <path id="DejaVuSans-36" d="M 2113 2584 
Q 1688 2584 1439 2293 
Q 1191 2003 1191 1497 
Q 1191 994 1439 701 
Q 1688 409 2113 409 
Q 2538 409 2786 701 
Q 3034 994 3034 1497 
Q 3034 2003 2786 2293 
Q 2538 2584 2113 2584 
z
M 3366 4563 
L 3366 3988 
Q 3128 4100 2886 4159 
Q 2644 4219 2406 4219 
Q 1781 4219 1451 3797 
Q 1122 3375 1075 2522 
Q 1259 2794 1537 2939 
Q 1816 3084 2150 3084 
Q 2853 3084 3261 2657 
Q 3669 2231 3669 1497 
Q 3669 778 3244 343 
Q 2819 -91 2113 -91 
Q 1303 -91 875 529 
Q 447 1150 447 2328 
Q 447 3434 972 4092 
Q 1497 4750 2381 4750 
Q 2619 4750 2861 4703 
Q 3103 4656 3366 4563 
z
" transform="scale(0.015625)"/>
      <path id="DejaVuSans-30" d="M 2034 4250 
Q 1547 4250 1301 3770 
Q 1056 3291 1056 2328 
Q 1056 1369 1301 889 
Q 1547 409 2034 409 
Q 2525 409 2770 889 
Q 3016 1369 3016 2328 
Q 3016 3291 2770 3770 
Q 2525 4250 2034 4250 
z
M 2034 4750 
Q 2819 4750 3233 4129 
Q 3647 3509 3647 2328 
Q 3647 1150 3233 529 
Q 2819 -91 2034 -91 
Q 1250 -91 836 529 
Q 422 1150 422 2328 
Q 422 3509 836 4129 
Q 1250 4750 2034 4750 
z
" transform="scale(0.015625)"/>
     </defs>
     <use xlink:href="#DejaVuSans-33" transform="translate(0 0.78125)"/>
     <use xlink:href="#DejaVuSans-36" transform="translate(63.623047 0.78125)"/>
     <use xlink:href="#DejaVuSans-30" transform="translate(127.246094 0.78125)"/>
    </g>
   </g>
   <g id="text_2">
    <g id="patch_3">
     <path d="M 46.275066 134.110313 
C 50.017165 134.110313 53.606501 132.623561 56.252564 129.977498 
C 58.898627 127.331434 60.385379 123.742099 60.385379 120 
C 60.385379 116.257901 58.898627 112.668566 56.252564 110.022502 
C 53.606501 107.376439 50.017165 105.889688 46.275066 105.889688 
C 42.532968 105.889688 38.943632 107.376439 36.297569 110.022502 
C 33.651505 112.668566 32.164754 116.257901 32.164754 120 
C 32.164754 123.742099 33.651505 127.331434 36.297569 129.977498 
C 38.943632 132.623561 42.532968 134.110313 46.275066 134.110313 
z
" style="fill: #e0f7fa; stroke: #0072b2; stroke-width: 1.5; stroke-linejoin: miter"/>
    </g>
    <!-- $2$ -->
    <g transform="translate(40.515066 124.966875) scale(0.18 -0.18)">
     <defs>
      <path id="DejaVuSans-32" d="M 1228 531 
L 3431 531 
L 3431 0 
L 469 0 
L 469 531 
Q 828 903 1448 1529 
Q 2069 2156 2228 2338 
Q 2531 2678 2651 2914 
Q 2772 3150 2772 3378 
Q 2772 3750 2511 3984 
Q 2250 4219 1831 4219 
Q 1534 4219 1204 4116 
Q 875 4013 500 3803 
L 500 4441 
Q 881 4594 1212 4672 
Q 1544 4750 1819 4750 
Q 2544 4750 2975 4387 
Q 3406 4025 3406 3419 
Q 3406 3131 3298 2873 
Q 3191 2616 2906 2266 
Q 2828 2175 2409 1742 
Q 1991 1309 1228 531 
z
" transform="scale(0.015625)"/>
     </defs>
     <use xlink:href="#DejaVuSans-32" transform="translate(0 0.78125)"/>
    </g>
   </g>
   <g id="text_3">
    <g id="patch_4">
     <path d="M 89.691806 142.59 
C 95.682744 142.59 101.429116 140.209775 105.665349 135.973542 
C 109.901582 131.737309 112.281806 125.990938 112.281806 120 
C 112.281806 114.009062 109.901582 108.262691 105.665349 104.026458 
C 101.429116 99.790225 95.682744 97.41 89.691806 97.41 
C 83.700868 97.41 77.954497 99.790225 73.718264 104.026458 
C 69.482031 108.262691 67.101806 114.009062 67.101806 120 
C 67.101806 125.990938 69.482031 131.737309 73.718264 135.973542 
C 77.954497 140.209775 83.700868 142.59 89.691806 142.59 
z
" style="fill: #e0f7fa; stroke: #0072b2; stroke-width: 1.5; stroke-linejoin: miter"/>
    </g>
    <!-- $180$ -->
    <g transform="translate(72.501806 124.966875) scale(0.18 -0.18)">
     <defs>
      <path id="DejaVuSans-31" d="M 794 531 
L 1825 531 
L 1825 4091 
L 703 3866 
L 703 4441 
L 1819 4666 
L 2450 4666 
L 2450 531 
L 3481 531 
L 3481 0 
L 794 0 
L 794 531 
z
" transform="scale(0.015625)"/>
      <path id="DejaVuSans-38" d="M 2034 2216 
Q 1584 2216 1326 1975 
Q 1069 1734 1069 1313 
Q 1069 891 1326 650 
Q 1584 409 2034 409 
Q 2484 409 2743 651 
Q 3003 894 3003 1313 
Q 3003 1734 2745 1975 
Q 2488 2216 2034 2216 
z
M 1403 2484 
Q 997 2584 770 2862 
Q 544 3141 544 3541 
Q 544 4100 942 4425 
Q 1341 4750 2034 4750 
Q 2731 4750 3128 4425 
Q 3525 4100 3525 3541 
Q 3525 3141 3298 2862 
Q 3072 2584 2669 2484 
Q 3125 2378 3379 2068 
Q 3634 1759 3634 1313 
Q 3634 634 3220 271 
Q 2806 -91 2034 -91 
Q 1263 -91 848 271 
Q 434 634 434 1313 
Q 434 1759 690 2068 
Q 947 2378 1403 2484 
z
M 1172 3481 
Q 1172 3119 1398 2916 
Q 1625 2713 2034 2713 
Q 2441 2713 2670 2916 
Q 2900 3119 2900 3481 
Q 2900 3844 2670 4047 
Q 2441 4250 2034 4250 
Q 1625 4250 1398 4047 
Q 1172 3844 1172 3481 
z
" transform="scale(0.015625)"/>
     </defs>
     <use xlink:href="#DejaVuSans-31" transform="translate(0 0.78125)"/>
     <use xlink:href="#DejaVuSans-38" transform="translate(63.623047 0.78125)"/>
     <use xlink:href="#DejaVuSans-30" transform="translate(127.246094 0.78125)"/>
    </g>
   </g>
   <g id="text_4">
    <g id="patch_5">
     <path d="M 67.983436 171.710313 
C 71.725535 171.710313 75.314871 170.223561 77.960934 167.577498 
C 80.606997 164.931434 82.093749 161.342099 82.093749 157.6 
C 82.093749 153.857901 80.606997 150.268566 77.960934 147.622502 
C 75.314871 144.976439 71.725535 143.489688 67.983436 143.489688 
C 64.241338 143.489688 60.652002 144.976439 58.005939 147.622502 
C 55.359875 150.268566 53.873124 153.857901 53.873124 157.6 
C 53.873124 161.342099 55.359875 164.931434 58.005939 167.577498 
C 60.652002 170.223561 64.241338 171.710313 67.983436 171.710313 
z
" style="fill: #e0f7fa; stroke: #0072b2; stroke-width: 1.5; stroke-linejoin: miter"/>
    </g>
    <!-- $2$ -->
    <g transform="translate(62.223436 162.566875) scale(0.18 -0.18)">
     <use xlink:href="#DejaVuSans-32" transform="translate(0 0.78125)"/>
    </g>
   </g>
   <g id="text_5">
    <g id="patch_6">
     <path d="M 111.400177 174.52 
C 115.887413 174.52 120.191468 172.737202 123.364423 169.564247 
C 126.537379 166.391291 128.320177 162.087236 128.320177 157.6 
C 128.320177 153.112764 126.537379 148.808709 123.364423 145.635753 
C 120.191468 142.462798 115.887413 140.68 111.400177 140.68 
C 106.91294 140.68 102.608885 142.462798 99.43593 145.635753 
C 96.262975 148.808709 94.480177 153.112764 94.480177 157.6 
C 94.480177 162.087236 96.262975 166.391291 99.43593 169.564247 
C 102.608885 172.737202 106.91294 174.52 111.400177 174.52 
z
" style="fill: #e0f7fa; stroke: #0072b2; stroke-width: 1.5; stroke-linejoin: miter"/>
    </g>
    <!-- $90$ -->
    <g transform="translate(99.880177 162.566875) scale(0.18 -0.18)">
     <defs>
      <path id="DejaVuSans-39" d="M 703 97 
L 703 672 
Q 941 559 1184 500 
Q 1428 441 1663 441 
Q 2288 441 2617 861 
Q 2947 1281 2994 2138 
Q 2813 1869 2534 1725 
Q 2256 1581 1919 1581 
Q 1219 1581 811 2004 
Q 403 2428 403 3163 
Q 403 3881 828 4315 
Q 1253 4750 1959 4750 
Q 2769 4750 3195 4129 
Q 3622 3509 3622 2328 
Q 3622 1225 3098 567 
Q 2575 -91 1691 -91 
Q 1453 -91 1209 -44 
Q 966 3 703 97 
z
M 1959 2075 
Q 2384 2075 2632 2365 
Q 2881 2656 2881 3163 
Q 2881 3666 2632 3958 
Q 2384 4250 1959 4250 
Q 1534 4250 1286 3958 
Q 1038 3666 1038 3163 
Q 1038 2656 1286 2365 
Q 1534 2075 1959 2075 
z
" transform="scale(0.015625)"/>
     </defs>
     <use xlink:href="#DejaVuSans-39" transform="translate(0 0.78125)"/>
     <use xlink:href="#DejaVuSans-30" transform="translate(63.623047 0.78125)"/>
    </g>
   </g>
   <g id="text_6">
    <g id="patch_7">
     <path d="M 89.691806 209.310313 
C 93.433905 209.310313 97.023241 207.823561 99.669304 205.177498 
C 102.315367 202.531434 103.802119 198.942099 103.802119 195.2 
C 103.802119 191.457901 102.315367 187.868566 99.669304 185.222502 
C 97.023241 182.576439 93.433905 181.089688 89.691806 181.089688 
C 85.949708 181.089688 82.360372 182.576439 79.714309 185.222502 
C 77.068246 187.868566 75.581494 191.457901 75.581494 195.2 
C 75.581494 198.942099 77.068246 202.531434 79.714309 205.177498 
C 82.360372 207.823561 85.949708 209.310313 89.691806 209.310313 
z
" style="fill: #e0f7fa; stroke: #0072b2; stroke-width: 1.5; stroke-linejoin: miter"/>
    </g>
    <!-- $2$ -->
    <g transform="translate(83.931806 200.166875) scale(0.18 -0.18)">
     <use xlink:href="#DejaVuSans-32" transform="translate(0 0.78125)"/>
    </g>
   </g>
   <g id="text_7">
    <g id="patch_8">
     <path d="M 133.108547 212.12 
C 137.595783 212.12 141.899838 210.337202 145.072793 207.164247 
C 148.245749 203.991291 150.028547 199.687236 150.028547 195.2 
C 150.028547 190.712764 148.245749 186.408709 145.072793 183.235753 
C 141.899838 180.062798 137.595783 178.28 133.108547 178.28 
C 128.62131 178.28 124.317255 180.062798 121.1443 183.235753 
C 117.971345 186.408709 116.188547 190.712764 116.188547 195.2 
C 116.188547 199.687236 117.971345 203.991291 121.1443 207.164247 
C 124.317255 210.337202 128.62131 212.12 133.108547 212.12 
z
" style="fill: #e0f7fa; stroke: #0072b2; stroke-width: 1.5; stroke-linejoin: miter"/>
    </g>
    <!-- $45$ -->
    <g transform="translate(121.588547 200.166875) scale(0.18 -0.18)">
     <defs>
      <path id="DejaVuSans-34" d="M 2419 4116 
L 825 1625 
L 2419 1625 
L 2419 4116 
z
M 2253 4666 
L 3047 4666 
L 3047 1625 
L 3713 1625 
L 3713 1100 
L 3047 1100 
L 3047 0 
L 2419 0 
L 2419 1100 
L 313 1100 
L 313 1709 
L 2253 4666 
z
" transform="scale(0.015625)"/>
      <path id="DejaVuSans-35" d="M 691 4666 
L 3169 4666 
L 3169 4134 
L 1269 4134 
L 1269 2991 
Q 1406 3038 1543 3061 
Q 1681 3084 1819 3084 
Q 2600 3084 3056 2656 
Q 3513 2228 3513 1497 
Q 3513 744 3044 326 
Q 2575 -91 1722 -91 
Q 1428 -91 1123 -41 
Q 819 9 494 109 
L 494 744 
Q 775 591 1075 516 
Q 1375 441 1709 441 
Q 2250 441 2565 725 
Q 2881 1009 2881 1497 
Q 2881 1984 2565 2268 
Q 2250 2553 1709 2553 
Q 1456 2553 1204 2497 
Q 953 2441 691 2322 
L 691 4666 
z
" transform="scale(0.015625)"/>
     </defs>
     <use xlink:href="#DejaVuSans-34" transform="translate(0 0.09375)"/>
     <use xlink:href="#DejaVuSans-35" transform="translate(63.623047 0.09375)"/>
    </g>
   </g>
   <g id="text_8">
    <g id="patch_9">
     <path d="M 111.400177 246.910313 
C 115.142275 246.910313 118.731611 245.423561 121.377674 242.777498 
C 124.023738 240.131434 125.510489 236.542099 125.510489 232.8 
C 125.510489 229.057901 124.023738 225.468566 121.377674 222.822502 
C 118.731611 220.176439 115.142275 218.689687 111.400177 218.689687 
C 107.658078 218.689687 104.068742 220.176439 101.422679 222.822502 
C 98.776616 225.468566 97.289864 229.057901 97.289864 232.8 
C 97.289864 236.542099 98.776616 240.131434 101.422679 242.777498 
C 104.068742 245.423561 107.658078 246.910313 111.400177 246.910313 
z
" style="fill: #e0f7fa; stroke: #0072b2; stroke-width: 1.5; stroke-linejoin: miter"/>
    </g>
    <!-- $3$ -->
    <g transform="translate(105.640177 237.766875) scale(0.18 -0.18)">
     <use xlink:href="#DejaVuSans-33" transform="translate(0 0.78125)"/>
    </g>
   </g>
   <g id="text_9">
    <g id="patch_10">
     <path d="M 154.816917 249.72 
C 159.304153 249.72 163.608208 247.937202 166.781164 244.764247 
C 169.954119 241.591291 171.736917 237.287236 171.736917 232.8 
C 171.736917 228.312764 169.954119 224.008709 166.781164 220.835753 
C 163.608208 217.662798 159.304153 215.88 154.816917 215.88 
C 150.32968 215.88 146.025625 217.662798 142.85267 220.835753 
C 139.679715 224.008709 137.896917 228.312764 137.896917 232.8 
C 137.896917 237.287236 139.679715 241.591291 142.85267 244.764247 
C 146.025625 247.937202 150.32968 249.72 154.816917 249.72 
z
" style="fill: #e0f7fa; stroke: #0072b2; stroke-width: 1.5; stroke-linejoin: miter"/>
    </g>
    <!-- $15$ -->
    <g transform="translate(143.296917 237.766875) scale(0.18 -0.18)">
     <use xlink:href="#DejaVuSans-31" transform="translate(0 0.09375)"/>
     <use xlink:href="#DejaVuSans-35" transform="translate(63.623047 0.09375)"/>
    </g>
   </g>
   <g id="text_10">
    <g id="patch_11">
     <path d="M 133.108547 284.510312 
C 136.850645 284.510312 140.439981 283.023561 143.086044 280.377498 
C 145.732108 277.731434 147.218859 274.142099 147.218859 270.4 
C 147.218859 266.657901 145.732108 263.068566 143.086044 260.422502 
C 140.439981 257.776439 136.850645 256.289688 133.108547 256.289688 
C 129.366448 256.289688 125.777112 257.776439 123.131049 260.422502 
C 120.484986 263.068566 118.998234 266.657901 118.998234 270.4 
C 118.998234 274.142099 120.484986 277.731434 123.131049 280.377498 
C 125.777112 283.023561 129.366448 284.510312 133.108547 284.510312 
z
" style="fill: #e0f7fa; stroke: #0072b2; stroke-width: 1.5; stroke-linejoin: miter"/>
    </g>
    <!-- $3$ -->
    <g transform="translate(127.348547 275.366875) scale(0.18 -0.18)">
     <use xlink:href="#DejaVuSans-33" transform="translate(0 0.78125)"/>
    </g>
   </g>
   <g id="text_11">
    <g id="patch_12">
     <path d="M 176.525287 284.510312 
C 180.267386 284.510312 183.856721 283.023561 186.502785 280.377498 
C 189.148848 277.731434 190.635599 274.142099 190.635599 270.4 
C 190.635599 266.657901 189.148848 263.068566 186.502785 260.422502 
C 183.856721 257.776439 180.267386 256.289688 176.525287 256.289688 
C 172.783188 256.289688 169.193853 257.776439 166.547789 260.422502 
C 163.901726 263.068566 162.414974 266.657901 162.414974 270.4 
C 162.414974 274.142099 163.901726 277.731434 166.547789 280.377498 
C 169.193853 283.023561 172.783188 284.510312 176.525287 284.510312 
z
" style="fill: #e0f7fa; stroke: #0072b2; stroke-width: 1.5; stroke-linejoin: miter"/>
    </g>
    <!-- $5$ -->
    <g transform="translate(170.765287 275.366875) scale(0.18 -0.18)">
     <use xlink:href="#DejaVuSans-35" transform="translate(0 0.09375)"/>
    </g>
   </g>
  </g>
 </g>
 <defs>
  <clipPath id="p255dfd9c73">
   <rect x="7.2" y="7.2" width="208.400353" height="338.4"/>
  </clipPath>
 </defs>
</svg>
