<?xml version="1.0" encoding="utf-8" standalone="no"?>
<!DOCTYPE svg PUBLIC "-//W3C//DTD SVG 1.1//EN"
  "http://www.w3.org/Graphics/SVG/1.1/DTD/svg11.dtd">
<svg xmlns:xlink="http://www.w3.org/1999/xlink" width="147.421502pt" height="208.8pt" viewBox="0 0 147.421502 208.8" xmlns="http://www.w3.org/2000/svg" version="1.1">
 <metadata>
  <rdf:RDF xmlns:dc="http://purl.org/dc/elements/1.1/" xmlns:cc="http://creativecommons.org/ns#" xmlns:rdf="http://www.w3.org/1999/02/22-rdf-syntax-ns#">
   <cc:Work>
    <dc:type rdf:resource="http://purl.org/dc/dcmitype/StillImage"/>
    <dc:date>2025-11-12T00:29:39.463612</dc:date>
    <dc:format>image/svg+xml</dc:format>
    <dc:creator>
     <cc:Agent>
      <dc:title>Matplotlib v3.9.1, https://matplotlib.org/</dc:title>
     </cc:Agent>
    </dc:creator>
   </cc:Work>
  </rdf:RDF>
 </metadata>
 <defs>
  <style type="text/css">*{stroke-linejoin: round; stroke-linecap: butt}</style>
 </defs>
 <g id="figure_1">
  <g id="patch_1">
   <path d="M 0 208.8 
L 147.421502 208.8 
L 147.421502 0 
L 0 0 
L 0 208.8 
z
" style="fill: none"/>
  </g>
  <g id="axes_1">
   <g id="line2d_1">
    <path d="M 52.926141 50.4 
L 32.141532 86.4 
" clip-path="url(#p4cf2f3b811)" style="fill: none; stroke: #455a64; stroke-width: 1.2; stroke-linecap: square"/>
   </g>
   <g id="line2d_2">
    <path d="M 52.926141 50.4 
L 73.710751 86.4 
" clip-path="url(#p4cf2f3b811)" style="fill: none; stroke: #455a64; stroke-width: 1.2; stroke-linecap: square"/>
   </g>
   <g id="line2d_3">
    <path d="M 73.710751 86.4 
L 52.926141 122.4 
" clip-path="url(#p4cf2f3b811)" style="fill: none; stroke: #455a64; stroke-width: 1.2; stroke-linecap: square"/>
   </g>
   <g id="line2d_4">
    <path d="M 73.710751 86.4 
L 94.495361 122.4 
" clip-path="url(#p4cf2f3b811)" style="fill: none; stroke: #455a64; stroke-width: 1.2; stroke-linecap: square"/>
   </g>
   <g id="line2d_5">
    <path d="M 94.495361 122.4 
L 73.710751 158.4 
" clip-path="url(#p4cf2f3b811)" style="fill: none; stroke: #455a64; stroke-width: 1.2; stroke-linecap: square"/>
   </g>
   <g id="line2d_6">
    <path d="M 94.495361 122.4 
L 115.27997 158.4 
" clip-path="url(#p4cf2f3b811)" style="fill: none; stroke: #455a64; stroke-width: 1.2; stroke-linecap: square"/>
   </g>
   <g id="text_1">
    <g id="patch_2">
     <path d="M 52.926141 67.32 
C 57.413378 67.32 61.717433 65.537202 64.890388 62.364247 
C 68.063343 59.191291 69.846141 54.887236 69.846141 50.4 
C 69.846141 45.912764 68.063343 41.608709 64.890388 38.435753 
C 61.717433 35.262798 57.413378 33.48 52.926141 33.48 
C 48.438905 33.48 44.13485 35.262798 40.961895 38.435753 
C 37.788939 41.608709 36.006141 45.912764 36.006141 50.4 
C 36.006141 54.887236 37.788939 59.191291 40.961895 62.364247 
C 44.13485 65.537202 48.438905 67.32 52.926141 67.32 
z
" style="fill: #e0f7fa; stroke: #0072b2; stroke-width: 1.5; stroke-linejoin: miter"/>
    </g>
    <!-- $60$ -->
    <g transform="translate(41.406141 55.366875) scale(0.18 -0.18)">
     <defs>
      <path id="DejaVuSans-36" d="M 2113 2584 
Q 1688 2584 1439 2293 
Q 1191 2003 1191 1497 
Q 1191 994 1439 701 
Q 1688 409 2113 409 
Q 2538 409 2786 701 
Q 3034 994 3034 1497 
Q 3034 2003 2786 2293 
Q 2538 2584 2113 2584 
z
M 3366 4563 
L 3366 3988 
Q 3128 4100 2886 4159 
Q 2644 4219 2406 4219 
Q 1781 4219 1451 3797 
Q 1122 3375 1075 2522 
Q 1259 2794 1537 2939 
Q 1816 3084 2150 3084 
Q 2853 3084 3261 2657 
Q 3669 2231 3669 1497 
Q 3669 778 3244 343 
Q 2819 -91 2113 -91 
Q 1303 -91 875 529 
Q 447 1150 447 2328 
Q 447 3434 972 4092 
Q 1497 4750 2381 4750 
Q 2619 4750 2861 4703 
Q 3103 4656 3366 4563 
z
" transform="scale(0.015625)"/>
      <path id="DejaVuSans-30" d="M 2034 4250 
Q 1547 4250 1301 3770 
Q 1056 3291 1056 2328 
Q 1056 1369 1301 889 
Q 1547 409 2034 409 
Q 2525 409 2770 889 
Q 3016 1369 3016 2328 
Q 3016 3291 2770 3770 
Q 2525 4250 2034 4250 
z
M 2034 4750 
Q 2819 4750 3233 4129 
Q 3647 3509 3647 2328 
Q 3647 1150 3233 529 
Q 2819 -91 2034 -91 
Q 1250 -91 836 529 
Q 422 1150 422 2328 
Q 422 3509 836 4129 
Q 1250 4750 2034 4750 
z
" transform="scale(0.015625)"/>
     </defs>
     <use xlink:href="#DejaVuSans-36" transform="translate(0 0.78125)"/>
     <use xlink:href="#DejaVuSans-30" transform="translate(63.623047 0.78125)"/>
    </g>
   </g>
   <g id="text_2">
    <g id="patch_3">
     <path d="M 32.141532 100.510312 
C 35.88363 100.510312 39.472966 99.023561 42.119029 96.377498 
C 44.765093 93.731434 46.251844 90.142099 46.251844 86.4 
C 46.251844 82.657901 44.765093 79.068566 42.119029 76.422502 
C 39.472966 73.776439 35.88363 72.289687 32.141532 72.289687 
C 28.399433 72.289687 24.810097 73.776439 22.164034 76.422502 
C 19.517971 79.068566 18.031219 82.657901 18.031219 86.4 
C 18.031219 90.142099 19.517971 93.731434 22.164034 96.377498 
C 24.810097 99.023561 28.399433 100.510312 32.141532 100.510312 
z
" style="fill: #e0f7fa; stroke: #0072b2; stroke-width: 1.5; stroke-linejoin: miter"/>
    </g>
    <!-- $2$ -->
    <g transform="translate(26.381532 91.366875) scale(0.18 -0.18)">
     <defs>
      <path id="DejaVuSans-32" d="M 1228 531 
L 3431 531 
L 3431 0 
L 469 0 
L 469 531 
Q 828 903 1448 1529 
Q 2069 2156 2228 2338 
Q 2531 2678 2651 2914 
Q 2772 3150 2772 3378 
Q 2772 3750 2511 3984 
Q 2250 4219 1831 4219 
Q 1534 4219 1204 4116 
Q 875 4013 500 3803 
L 500 4441 
Q 881 4594 1212 4672 
Q 1544 4750 1819 4750 
Q 2544 4750 2975 4387 
Q 3406 4025 3406 3419 
Q 3406 3131 3298 2873 
Q 3191 2616 2906 2266 
Q 2828 2175 2409 1742 
Q 1991 1309 1228 531 
z
" transform="scale(0.015625)"/>
     </defs>
     <use xlink:href="#DejaVuSans-32" transform="translate(0 0.78125)"/>
    </g>
   </g>
   <g id="text_3">
    <g id="patch_4">
     <path d="M 73.710751 103.32 
C 78.197987 103.32 82.502042 101.537202 85.674998 98.364247 
C 88.847953 95.191291 90.630751 90.887236 90.630751 86.4 
C 90.630751 81.912764 88.847953 77.608709 85.674998 74.435753 
C 82.502042 71.262798 78.197987 69.48 73.710751 69.48 
C 69.223515 69.48 64.91946 71.262798 61.746504 74.435753 
C 58.573549 77.608709 56.790751 81.912764 56.790751 86.4 
C 56.790751 90.887236 58.573549 95.191291 61.746504 98.364247 
C 64.91946 101.537202 69.223515 103.32 73.710751 103.32 
z
" style="fill: #e0f7fa; stroke: #0072b2; stroke-width: 1.5; stroke-linejoin: miter"/>
    </g>
    <!-- $30$ -->
    <g transform="translate(62.190751 91.366875) scale(0.18 -0.18)">
     <defs>
      <path id="DejaVuSans-33" d="M 2597 2516 
Q 3050 2419 3304 2112 
Q 3559 1806 3559 1356 
Q 3559 666 3084 287 
Q 2609 -91 1734 -91 
Q 1441 -91 1130 -33 
Q 819 25 488 141 
L 488 750 
Q 750 597 1062 519 
Q 1375 441 1716 441 
Q 2309 441 2620 675 
Q 2931 909 2931 1356 
Q 2931 1769 2642 2001 
Q 2353 2234 1838 2234 
L 1294 2234 
L 1294 2753 
L 1863 2753 
Q 2328 2753 2575 2939 
Q 2822 3125 2822 3475 
Q 2822 3834 2567 4026 
Q 2313 4219 1838 4219 
Q 1578 4219 1281 4162 
Q 984 4106 628 3988 
L 628 4550 
Q 988 4650 1302 4700 
Q 1616 4750 1894 4750 
Q 2613 4750 3031 4423 
Q 3450 4097 3450 3541 
Q 3450 3153 3228 2886 
Q 3006 2619 2597 2516 
z
" transform="scale(0.015625)"/>
     </defs>
     <use xlink:href="#DejaVuSans-33" transform="translate(0 0.78125)"/>
     <use xlink:href="#DejaVuSans-30" transform="translate(63.623047 0.78125)"/>
    </g>
   </g>
   <g id="text_4">
    <g id="patch_5">
     <path d="M 52.926141 136.510312 
C 56.66824 136.510312 60.257576 135.023561 62.903639 132.377498 
C 65.549702 129.731434 67.036454 126.142099 67.036454 122.4 
C 67.036454 118.657901 65.549702 115.068566 62.903639 112.422502 
C 60.257576 109.776439 56.66824 108.289687 52.926141 108.289687 
C 49.184043 108.289687 45.594707 109.776439 42.948644 112.422502 
C 40.30258 115.068566 38.815829 118.657901 38.815829 122.4 
C 38.815829 126.142099 40.30258 129.731434 42.948644 132.377498 
C 45.594707 135.023561 49.184043 136.510312 52.926141 136.510312 
z
" style="fill: #e0f7fa; stroke: #0072b2; stroke-width: 1.5; stroke-linejoin: miter"/>
    </g>
    <!-- $2$ -->
    <g transform="translate(47.166141 127.366875) scale(0.18 -0.18)">
     <use xlink:href="#DejaVuSans-32" transform="translate(0 0.78125)"/>
    </g>
   </g>
   <g id="text_5">
    <g id="patch_6">
     <path d="M 94.495361 139.32 
C 98.982597 139.32 103.286652 137.537202 106.459607 134.364247 
C 109.632563 131.191291 111.415361 126.887236 111.415361 122.4 
C 111.415361 117.912764 109.632563 113.608709 106.459607 110.435753 
C 103.286652 107.262798 98.982597 105.48 94.495361 105.48 
C 90.008124 105.48 85.704069 107.262798 82.531114 110.435753 
C 79.358159 113.608709 77.575361 117.912764 77.575361 122.4 
C 77.575361 126.887236 79.358159 131.191291 82.531114 134.364247 
C 85.704069 137.537202 90.008124 139.32 94.495361 139.32 
z
" style="fill: #e0f7fa; stroke: #0072b2; stroke-width: 1.5; stroke-linejoin: miter"/>
    </g>
    <!-- $15$ -->
    <g transform="translate(82.975361 127.366875) scale(0.18 -0.18)">
     <defs>
      <path id="DejaVuSans-31" d="M 794 531 
L 1825 531 
L 1825 4091 
L 703 3866 
L 703 4441 
L 1819 4666 
L 2450 4666 
L 2450 531 
L 3481 531 
L 3481 0 
L 794 0 
L 794 531 
z
" transform="scale(0.015625)"/>
      <path id="DejaVuSans-35" d="M 691 4666 
L 3169 4666 
L 3169 4134 
L 1269 4134 
L 1269 2991 
Q 1406 3038 1543 3061 
Q 1681 3084 1819 3084 
Q 2600 3084 3056 2656 
Q 3513 2228 3513 1497 
Q 3513 744 3044 326 
Q 2575 -91 1722 -91 
Q 1428 -91 1123 -41 
Q 819 9 494 109 
L 494 744 
Q 775 591 1075 516 
Q 1375 441 1709 441 
Q 2250 441 2565 725 
Q 2881 1009 2881 1497 
Q 2881 1984 2565 2268 
Q 2250 2553 1709 2553 
Q 1456 2553 1204 2497 
Q 953 2441 691 2322 
L 691 4666 
z
" transform="scale(0.015625)"/>
     </defs>
     <use xlink:href="#DejaVuSans-31" transform="translate(0 0.09375)"/>
     <use xlink:href="#DejaVuSans-35" transform="translate(63.623047 0.09375)"/>
    </g>
   </g>
   <g id="text_6">
    <g id="patch_7">
     <path d="M 73.710751 172.510312 
C 77.45285 172.510312 81.042185 171.023561 83.688249 168.377498 
C 86.334312 165.731434 87.821064 162.142099 87.821064 158.4 
C 87.821064 154.657901 86.334312 151.068566 83.688249 148.422502 
C 81.042185 145.776439 77.45285 144.289687 73.710751 144.289687 
C 69.968652 144.289687 66.379317 145.776439 63.733253 148.422502 
C 61.08719 151.068566 59.600439 154.657901 59.600439 158.4 
C 59.600439 162.142099 61.08719 165.731434 63.733253 168.377498 
C 66.379317 171.023561 69.968652 172.510312 73.710751 172.510312 
z
" style="fill: #e0f7fa; stroke: #0072b2; stroke-width: 1.5; stroke-linejoin: miter"/>
    </g>
    <!-- $3$ -->
    <g transform="translate(67.950751 163.366875) scale(0.18 -0.18)">
     <use xlink:href="#DejaVuSans-33" transform="translate(0 0.78125)"/>
    </g>
   </g>
   <g id="text_7">
    <g id="patch_8">
     <path d="M 115.27997 172.510312 
C 119.022069 172.510312 122.611405 171.023561 125.257468 168.377498 
C 127.903531 165.731434 129.390283 162.142099 129.390283 158.4 
C 129.390283 154.657901 127.903531 151.068566 125.257468 148.422502 
C 122.611405 145.776439 119.022069 144.289687 115.27997 144.289687 
C 111.537872 144.289687 107.948536 145.776439 105.302473 148.422502 
C 102.656409 151.068566 101.169658 154.657901 101.169658 158.4 
C 101.169658 162.142099 102.656409 165.731434 105.302473 168.377498 
C 107.948536 171.023561 111.537872 172.510312 115.27997 172.510312 
z
" style="fill: #e0f7fa; stroke: #0072b2; stroke-width: 1.5; stroke-linejoin: miter"/>
    </g>
    <!-- $5$ -->
    <g transform="translate(109.51997 163.366875) scale(0.18 -0.18)">
     <use xlink:href="#DejaVuSans-35" transform="translate(0 0.09375)"/>
    </g>
   </g>
  </g>
 </g>
 <defs>
  <clipPath id="p4cf2f3b811">
   <rect x="7.2" y="7.2" width="133.021502" height="194.4"/>
  </clipPath>
 </defs>
</svg>
