<?xml version="1.0" encoding="utf-8" standalone="no"?>
<!DOCTYPE svg PUBLIC "-//W3C//DTD SVG 1.1//EN"
  "http://www.w3.org/Graphics/SVG/1.1/DTD/svg11.dtd">
<svg xmlns:xlink="http://www.w3.org/1999/xlink" width="134.488856pt" height="201.6pt" viewBox="0 0 134.488856 201.6" xmlns="http://www.w3.org/2000/svg" version="1.1">
 <metadata>
  <rdf:RDF xmlns:dc="http://purl.org/dc/elements/1.1/" xmlns:cc="http://creativecommons.org/ns#" xmlns:rdf="http://www.w3.org/1999/02/22-rdf-syntax-ns#">
   <cc:Work>
    <dc:type rdf:resource="http://purl.org/dc/dcmitype/StillImage"/>
    <dc:date>2025-11-12T00:29:39.407100</dc:date>
    <dc:format>image/svg+xml</dc:format>
    <dc:creator>
     <cc:Agent>
      <dc:title>Matplotlib v3.9.1, https://matplotlib.org/</dc:title>
     </cc:Agent>
    </dc:creator>
   </cc:Work>
  </rdf:RDF>
 </metadata>
 <defs>
  <style type="text/css">*{stroke-linejoin: round; stroke-linecap: butt}</style>
 </defs>
 <g id="figure_1">
  <g id="patch_1">
   <path d="M 0 201.6 
L 134.488856 201.6 
L 134.488856 0 
L 0 0 
L 0 201.6 
z
" style="fill: none"/>
  </g>
  <g id="axes_1">
   <g id="line2d_1">
    <path d="M 44.727767 48.8 
L 29.71666 74.8 
" clip-path="url(#p1d812639aa)" style="fill: none; stroke: #455a64; stroke-width: 1.2; stroke-linecap: square"/>
   </g>
   <g id="line2d_2">
    <path d="M 44.727767 48.8 
L 59.738874 74.8 
" clip-path="url(#p1d812639aa)" style="fill: none; stroke: #455a64; stroke-width: 1.2; stroke-linecap: square"/>
   </g>
   <g id="line2d_3">
    <path d="M 59.738874 74.8 
L 44.727767 100.8 
" clip-path="url(#p1d812639aa)" style="fill: none; stroke: #455a64; stroke-width: 1.2; stroke-linecap: square"/>
   </g>
   <g id="line2d_4">
    <path d="M 59.738874 74.8 
L 74.749981 100.8 
" clip-path="url(#p1d812639aa)" style="fill: none; stroke: #455a64; stroke-width: 1.2; stroke-linecap: square"/>
   </g>
   <g id="line2d_5">
    <path d="M 74.749981 100.8 
L 59.738874 126.8 
" clip-path="url(#p1d812639aa)" style="fill: none; stroke: #455a64; stroke-width: 1.2; stroke-linecap: square"/>
   </g>
   <g id="line2d_6">
    <path d="M 74.749981 100.8 
L 89.761088 126.8 
" clip-path="url(#p1d812639aa)" style="fill: none; stroke: #455a64; stroke-width: 1.2; stroke-linecap: square"/>
   </g>
   <g id="line2d_7">
    <path d="M 89.761088 126.8 
L 74.749981 152.8 
" clip-path="url(#p1d812639aa)" style="fill: none; stroke: #455a64; stroke-width: 1.2; stroke-linecap: square"/>
   </g>
   <g id="line2d_8">
    <path d="M 89.761088 126.8 
L 104.772195 152.8 
" clip-path="url(#p1d812639aa)" style="fill: none; stroke: #455a64; stroke-width: 1.2; stroke-linecap: square"/>
   </g>
   <g id="text_1">
    <g id="patch_2">
     <path d="M 44.727767 71.36 
C 50.710749 71.36 56.449489 68.982936 60.680096 64.752329 
C 64.910704 60.521722 67.287767 54.782982 67.287767 48.8 
C 67.287767 42.817018 64.910704 37.078278 60.680096 32.847671 
C 56.449489 28.617064 50.710749 26.24 44.727767 26.24 
C 38.744786 26.24 33.006046 28.617064 28.775439 32.847671 
C 24.544831 37.078278 22.167767 42.817018 22.167767 48.8 
C 22.167767 54.782982 24.544831 60.521722 28.775439 64.752329 
C 33.006046 68.982936 38.744786 71.36 44.727767 71.36 
z
" style="fill: #e0f7fa; stroke: #0072b2; stroke-width: 1.5; stroke-linejoin: miter"/>
    </g>
    <!-- $72$ -->
    <g transform="translate(29.367767 55.4225) scale(0.24 -0.24)">
     <defs>
      <path id="DejaVuSans-37" d="M 525 4666 
L 3525 4666 
L 3525 4397 
L 1831 0 
L 1172 0 
L 2766 4134 
L 525 4134 
L 525 4666 
z
" transform="scale(0.015625)"/>
      <path id="DejaVuSans-32" d="M 1228 531 
L 3431 531 
L 3431 0 
L 469 0 
L 469 531 
Q 828 903 1448 1529 
Q 2069 2156 2228 2338 
Q 2531 2678 2651 2914 
Q 2772 3150 2772 3378 
Q 2772 3750 2511 3984 
Q 2250 4219 1831 4219 
Q 1534 4219 1204 4116 
Q 875 4013 500 3803 
L 500 4441 
Q 881 4594 1212 4672 
Q 1544 4750 1819 4750 
Q 2544 4750 2975 4387 
Q 3406 4025 3406 3419 
Q 3406 3131 3298 2873 
Q 3191 2616 2906 2266 
Q 2828 2175 2409 1742 
Q 1991 1309 1228 531 
z
" transform="scale(0.015625)"/>
     </defs>
     <use xlink:href="#DejaVuSans-37" transform="translate(0 0.78125)"/>
     <use xlink:href="#DejaVuSans-32" transform="translate(63.623047 0.78125)"/>
    </g>
   </g>
   <g id="text_2">
    <g id="patch_3">
     <path d="M 29.71666 93.61375 
C 34.706125 93.61375 39.491906 91.631415 43.019991 88.10333 
C 46.548075 84.575246 48.53041 79.789465 48.53041 74.8 
C 48.53041 69.810535 46.548075 65.024754 43.019991 61.49667 
C 39.491906 57.968585 34.706125 55.98625 29.71666 55.98625 
C 24.727196 55.98625 19.941415 57.968585 16.41333 61.49667 
C 12.885246 65.024754 10.90291 69.810535 10.90291 74.8 
C 10.90291 79.789465 12.885246 84.575246 16.41333 88.10333 
C 19.941415 91.631415 24.727196 93.61375 29.71666 93.61375 
z
" style="fill: #e0f7fa; stroke: #0072b2; stroke-width: 1.5; stroke-linejoin: miter"/>
    </g>
    <!-- $2$ -->
    <g transform="translate(22.03666 81.4225) scale(0.24 -0.24)">
     <use xlink:href="#DejaVuSans-32" transform="translate(0 0.78125)"/>
    </g>
   </g>
   <g id="text_3">
    <g id="patch_4">
     <path d="M 59.738874 97.36 
C 65.721856 97.36 71.460596 94.982936 75.691203 90.752329 
C 79.921811 86.521722 82.298874 80.782982 82.298874 74.8 
C 82.298874 68.817018 79.921811 63.078278 75.691203 58.847671 
C 71.460596 54.617064 65.721856 52.24 59.738874 52.24 
C 53.755893 52.24 48.017153 54.617064 43.786546 58.847671 
C 39.555938 63.078278 37.178874 68.817018 37.178874 74.8 
C 37.178874 80.782982 39.555938 86.521722 43.786546 90.752329 
C 48.017153 94.982936 53.755893 97.36 59.738874 97.36 
z
" style="fill: #e0f7fa; stroke: #0072b2; stroke-width: 1.5; stroke-linejoin: miter"/>
    </g>
    <!-- $36$ -->
    <g transform="translate(44.378874 81.4225) scale(0.24 -0.24)">
     <defs>
      <path id="DejaVuSans-33" d="M 2597 2516 
Q 3050 2419 3304 2112 
Q 3559 1806 3559 1356 
Q 3559 666 3084 287 
Q 2609 -91 1734 -91 
Q 1441 -91 1130 -33 
Q 819 25 488 141 
L 488 750 
Q 750 597 1062 519 
Q 1375 441 1716 441 
Q 2309 441 2620 675 
Q 2931 909 2931 1356 
Q 2931 1769 2642 2001 
Q 2353 2234 1838 2234 
L 1294 2234 
L 1294 2753 
L 1863 2753 
Q 2328 2753 2575 2939 
Q 2822 3125 2822 3475 
Q 2822 3834 2567 4026 
Q 2313 4219 1838 4219 
Q 1578 4219 1281 4162 
Q 984 4106 628 3988 
L 628 4550 
Q 988 4650 1302 4700 
Q 1616 4750 1894 4750 
Q 2613 4750 3031 4423 
Q 3450 4097 3450 3541 
Q 3450 3153 3228 2886 
Q 3006 2619 2597 2516 
z
" transform="scale(0.015625)"/>
      <path id="DejaVuSans-36" d="M 2113 2584 
Q 1688 2584 1439 2293 
Q 1191 2003 1191 1497 
Q 1191 994 1439 701 
Q 1688 409 2113 409 
Q 2538 409 2786 701 
Q 3034 994 3034 1497 
Q 3034 2003 2786 2293 
Q 2538 2584 2113 2584 
z
M 3366 4563 
L 3366 3988 
Q 3128 4100 2886 4159 
Q 2644 4219 2406 4219 
Q 1781 4219 1451 3797 
Q 1122 3375 1075 2522 
Q 1259 2794 1537 2939 
Q 1816 3084 2150 3084 
Q 2853 3084 3261 2657 
Q 3669 2231 3669 1497 
Q 3669 778 3244 343 
Q 2819 -91 2113 -91 
Q 1303 -91 875 529 
Q 447 1150 447 2328 
Q 447 3434 972 4092 
Q 1497 4750 2381 4750 
Q 2619 4750 2861 4703 
Q 3103 4656 3366 4563 
z
" transform="scale(0.015625)"/>
     </defs>
     <use xlink:href="#DejaVuSans-33" transform="translate(0 0.78125)"/>
     <use xlink:href="#DejaVuSans-36" transform="translate(63.623047 0.78125)"/>
    </g>
   </g>
   <g id="text_4">
    <g id="patch_5">
     <path d="M 44.727767 119.61375 
C 49.717232 119.61375 54.503013 117.631415 58.031098 114.10333 
C 61.559182 110.575246 63.541517 105.789465 63.541517 100.8 
C 63.541517 95.810535 61.559182 91.024754 58.031098 87.49667 
C 54.503013 83.968585 49.717232 81.98625 44.727767 81.98625 
C 39.738303 81.98625 34.952522 83.968585 31.424437 87.49667 
C 27.896353 91.024754 25.914017 95.810535 25.914017 100.8 
C 25.914017 105.789465 27.896353 110.575246 31.424437 114.10333 
C 34.952522 117.631415 39.738303 119.61375 44.727767 119.61375 
z
" style="fill: #e0f7fa; stroke: #0072b2; stroke-width: 1.5; stroke-linejoin: miter"/>
    </g>
    <!-- $2$ -->
    <g transform="translate(37.047767 107.4225) scale(0.24 -0.24)">
     <use xlink:href="#DejaVuSans-32" transform="translate(0 0.78125)"/>
    </g>
   </g>
   <g id="text_5">
    <g id="patch_6">
     <path d="M 74.749981 123.36 
C 80.732963 123.36 86.471703 120.982936 90.70231 116.752329 
C 94.932918 112.521722 97.309981 106.782982 97.309981 100.8 
C 97.309981 94.817018 94.932918 89.078278 90.70231 84.847671 
C 86.471703 80.617064 80.732963 78.24 74.749981 78.24 
C 68.767 78.24 63.02826 80.617064 58.797653 84.847671 
C 54.567045 89.078278 52.189981 94.817018 52.189981 100.8 
C 52.189981 106.782982 54.567045 112.521722 58.797653 116.752329 
C 63.02826 120.982936 68.767 123.36 74.749981 123.36 
z
" style="fill: #e0f7fa; stroke: #0072b2; stroke-width: 1.5; stroke-linejoin: miter"/>
    </g>
    <!-- $18$ -->
    <g transform="translate(59.389981 107.4225) scale(0.24 -0.24)">
     <defs>
      <path id="DejaVuSans-31" d="M 794 531 
L 1825 531 
L 1825 4091 
L 703 3866 
L 703 4441 
L 1819 4666 
L 2450 4666 
L 2450 531 
L 3481 531 
L 3481 0 
L 794 0 
L 794 531 
z
" transform="scale(0.015625)"/>
      <path id="DejaVuSans-38" d="M 2034 2216 
Q 1584 2216 1326 1975 
Q 1069 1734 1069 1313 
Q 1069 891 1326 650 
Q 1584 409 2034 409 
Q 2484 409 2743 651 
Q 3003 894 3003 1313 
Q 3003 1734 2745 1975 
Q 2488 2216 2034 2216 
z
M 1403 2484 
Q 997 2584 770 2862 
Q 544 3141 544 3541 
Q 544 4100 942 4425 
Q 1341 4750 2034 4750 
Q 2731 4750 3128 4425 
Q 3525 4100 3525 3541 
Q 3525 3141 3298 2862 
Q 3072 2584 2669 2484 
Q 3125 2378 3379 2068 
Q 3634 1759 3634 1313 
Q 3634 634 3220 271 
Q 2806 -91 2034 -91 
Q 1263 -91 848 271 
Q 434 634 434 1313 
Q 434 1759 690 2068 
Q 947 2378 1403 2484 
z
M 1172 3481 
Q 1172 3119 1398 2916 
Q 1625 2713 2034 2713 
Q 2441 2713 2670 2916 
Q 2900 3119 2900 3481 
Q 2900 3844 2670 4047 
Q 2441 4250 2034 4250 
Q 1625 4250 1398 4047 
Q 1172 3844 1172 3481 
z
" transform="scale(0.015625)"/>
     </defs>
     <use xlink:href="#DejaVuSans-31" transform="translate(0 0.78125)"/>
     <use xlink:href="#DejaVuSans-38" transform="translate(63.623047 0.78125)"/>
    </g>
   </g>
   <g id="text_6">
    <g id="patch_7">
     <path d="M 59.738874 145.61375 
C 64.728339 145.61375 69.51412 143.631415 73.042205 140.10333 
C 76.570289 136.575246 78.552624 131.789465 78.552624 126.8 
C 78.552624 121.810535 76.570289 117.024754 73.042205 113.49667 
C 69.51412 109.968585 64.728339 107.98625 59.738874 107.98625 
C 54.74941 107.98625 49.963629 109.968585 46.435544 113.49667 
C 42.90746 117.024754 40.925124 121.810535 40.925124 126.8 
C 40.925124 131.789465 42.90746 136.575246 46.435544 140.10333 
C 49.963629 143.631415 54.74941 145.61375 59.738874 145.61375 
z
" style="fill: #e0f7fa; stroke: #0072b2; stroke-width: 1.5; stroke-linejoin: miter"/>
    </g>
    <!-- $2$ -->
    <g transform="translate(52.058874 133.4225) scale(0.24 -0.24)">
     <use xlink:href="#DejaVuSans-32" transform="translate(0 0.78125)"/>
    </g>
   </g>
   <g id="text_7">
    <g id="patch_8">
     <path d="M 89.761088 145.61375 
C 94.750553 145.61375 99.536334 143.631415 103.064419 140.10333 
C 106.592503 136.575246 108.574838 131.789465 108.574838 126.8 
C 108.574838 121.810535 106.592503 117.024754 103.064419 113.49667 
C 99.536334 109.968585 94.750553 107.98625 89.761088 107.98625 
C 84.771624 107.98625 79.985843 109.968585 76.457758 113.49667 
C 72.929674 117.024754 70.947338 121.810535 70.947338 126.8 
C 70.947338 131.789465 72.929674 136.575246 76.457758 140.10333 
C 79.985843 143.631415 84.771624 145.61375 89.761088 145.61375 
z
" style="fill: #e0f7fa; stroke: #0072b2; stroke-width: 1.5; stroke-linejoin: miter"/>
    </g>
    <!-- $9$ -->
    <g transform="translate(82.081088 133.4225) scale(0.24 -0.24)">
     <defs>
      <path id="DejaVuSans-39" d="M 703 97 
L 703 672 
Q 941 559 1184 500 
Q 1428 441 1663 441 
Q 2288 441 2617 861 
Q 2947 1281 2994 2138 
Q 2813 1869 2534 1725 
Q 2256 1581 1919 1581 
Q 1219 1581 811 2004 
Q 403 2428 403 3163 
Q 403 3881 828 4315 
Q 1253 4750 1959 4750 
Q 2769 4750 3195 4129 
Q 3622 3509 3622 2328 
Q 3622 1225 3098 567 
Q 2575 -91 1691 -91 
Q 1453 -91 1209 -44 
Q 966 3 703 97 
z
M 1959 2075 
Q 2384 2075 2632 2365 
Q 2881 2656 2881 3163 
Q 2881 3666 2632 3958 
Q 2384 4250 1959 4250 
Q 1534 4250 1286 3958 
Q 1038 3666 1038 3163 
Q 1038 2656 1286 2365 
Q 1534 2075 1959 2075 
z
" transform="scale(0.015625)"/>
     </defs>
     <use xlink:href="#DejaVuSans-39" transform="translate(0 0.78125)"/>
    </g>
   </g>
   <g id="text_8">
    <g id="patch_9">
     <path d="M 74.749981 171.61375 
C 79.739446 171.61375 84.525227 169.631415 88.053312 166.10333 
C 91.581396 162.575246 93.563731 157.789465 93.563731 152.8 
C 93.563731 147.810535 91.581396 143.024754 88.053312 139.49667 
C 84.525227 135.968585 79.739446 133.98625 74.749981 133.98625 
C 69.760517 133.98625 64.974736 135.968585 61.446651 139.49667 
C 57.918567 143.024754 55.936231 147.810535 55.936231 152.8 
C 55.936231 157.789465 57.918567 162.575246 61.446651 166.10333 
C 64.974736 169.631415 69.760517 171.61375 74.749981 171.61375 
z
" style="fill: #e0f7fa; stroke: #0072b2; stroke-width: 1.5; stroke-linejoin: miter"/>
    </g>
    <!-- $3$ -->
    <g transform="translate(67.069981 159.4225) scale(0.24 -0.24)">
     <use xlink:href="#DejaVuSans-33" transform="translate(0 0.78125)"/>
    </g>
   </g>
   <g id="text_9">
    <g id="patch_10">
     <path d="M 104.772195 171.61375 
C 109.76166 171.61375 114.547441 169.631415 118.075526 166.10333 
C 121.60361 162.575246 123.585945 157.789465 123.585945 152.8 
C 123.585945 147.810535 121.60361 143.024754 118.075526 139.49667 
C 114.547441 135.968585 109.76166 133.98625 104.772195 133.98625 
C 99.782731 133.98625 94.99695 135.968585 91.468865 139.49667 
C 87.940781 143.024754 85.958445 147.810535 85.958445 152.8 
C 85.958445 157.789465 87.940781 162.575246 91.468865 166.10333 
C 94.99695 169.631415 99.782731 171.61375 104.772195 171.61375 
z
" style="fill: #e0f7fa; stroke: #0072b2; stroke-width: 1.5; stroke-linejoin: miter"/>
    </g>
    <!-- $3$ -->
    <g transform="translate(97.092195 159.4225) scale(0.24 -0.24)">
     <use xlink:href="#DejaVuSans-33" transform="translate(0 0.78125)"/>
    </g>
   </g>
  </g>
 </g>
 <defs>
  <clipPath id="p1d812639aa">
   <rect x="7.2" y="7.2" width="120.088856" height="187.2"/>
  </clipPath>
 </defs>
</svg>
