<?xml version="1.0" encoding="utf-8" standalone="no"?>
<!DOCTYPE svg PUBLIC "-//W3C//DTD SVG 1.1//EN"
  "http://www.w3.org/Graphics/SVG/1.1/DTD/svg11.dtd">
<svg xmlns:xlink="http://www.w3.org/1999/xlink" width="134.119352pt" height="208.8pt" viewBox="0 0 134.119352 208.8" xmlns="http://www.w3.org/2000/svg" version="1.1">
 <metadata>
  <rdf:RDF xmlns:dc="http://purl.org/dc/elements/1.1/" xmlns:cc="http://creativecommons.org/ns#" xmlns:rdf="http://www.w3.org/1999/02/22-rdf-syntax-ns#">
   <cc:Work>
    <dc:type rdf:resource="http://purl.org/dc/dcmitype/StillImage"/>
    <dc:date>2025-11-12T00:29:39.569108</dc:date>
    <dc:format>image/svg+xml</dc:format>
    <dc:creator>
     <cc:Agent>
      <dc:title>Matplotlib v3.9.1, https://matplotlib.org/</dc:title>
     </cc:Agent>
    </dc:creator>
   </cc:Work>
  </rdf:RDF>
 </metadata>
 <defs>
  <style type="text/css">*{stroke-linejoin: round; stroke-linecap: butt}</style>
 </defs>
 <g id="figure_1">
  <g id="patch_1">
   <path d="M 0 208.8 
L 134.119352 208.8 
L 134.119352 0 
L 0 0 
L 0 208.8 
z
" style="fill: none"/>
  </g>
  <g id="axes_1">
   <g id="line2d_1">
    <path d="M 42.118144 50.4 
L 29.647378 72 
" clip-path="url(#pa353d2d7bf)" style="fill: none; stroke: #455a64; stroke-width: 1.2; stroke-linecap: square"/>
   </g>
   <g id="line2d_2">
    <path d="M 42.118144 50.4 
L 54.58891 72 
" clip-path="url(#pa353d2d7bf)" style="fill: none; stroke: #455a64; stroke-width: 1.2; stroke-linecap: square"/>
   </g>
   <g id="line2d_3">
    <path d="M 54.58891 72 
L 42.118144 93.6 
" clip-path="url(#pa353d2d7bf)" style="fill: none; stroke: #455a64; stroke-width: 1.2; stroke-linecap: square"/>
   </g>
   <g id="line2d_4">
    <path d="M 54.58891 72 
L 67.059676 93.6 
" clip-path="url(#pa353d2d7bf)" style="fill: none; stroke: #455a64; stroke-width: 1.2; stroke-linecap: square"/>
   </g>
   <g id="line2d_5">
    <path d="M 67.059676 93.6 
L 54.58891 115.2 
" clip-path="url(#pa353d2d7bf)" style="fill: none; stroke: #455a64; stroke-width: 1.2; stroke-linecap: square"/>
   </g>
   <g id="line2d_6">
    <path d="M 67.059676 93.6 
L 79.530442 115.2 
" clip-path="url(#pa353d2d7bf)" style="fill: none; stroke: #455a64; stroke-width: 1.2; stroke-linecap: square"/>
   </g>
   <g id="line2d_7">
    <path d="M 79.530442 115.2 
L 67.059676 136.8 
" clip-path="url(#pa353d2d7bf)" style="fill: none; stroke: #455a64; stroke-width: 1.2; stroke-linecap: square"/>
   </g>
   <g id="line2d_8">
    <path d="M 79.530442 115.2 
L 92.001208 136.8 
" clip-path="url(#pa353d2d7bf)" style="fill: none; stroke: #455a64; stroke-width: 1.2; stroke-linecap: square"/>
   </g>
   <g id="line2d_9">
    <path d="M 92.001208 136.8 
L 79.530442 158.4 
" clip-path="url(#pa353d2d7bf)" style="fill: none; stroke: #455a64; stroke-width: 1.2; stroke-linecap: square"/>
   </g>
   <g id="line2d_10">
    <path d="M 92.001208 136.8 
L 104.471973 158.4 
" clip-path="url(#pa353d2d7bf)" style="fill: none; stroke: #455a64; stroke-width: 1.2; stroke-linecap: square"/>
   </g>
   <g id="text_1">
    <g id="patch_2">
     <path d="M 42.118144 72.99 
C 48.109082 72.99 53.855454 70.609775 58.091686 66.373542 
C 62.327919 62.137309 64.708144 56.390938 64.708144 50.4 
C 64.708144 44.409062 62.327919 38.662691 58.091686 34.426458 
C 53.855454 30.190225 48.109082 27.81 42.118144 27.81 
C 36.127206 27.81 30.380835 30.190225 26.144602 34.426458 
C 21.908369 38.662691 19.528144 44.409062 19.528144 50.4 
C 19.528144 56.390938 21.908369 62.137309 26.144602 66.373542 
C 30.380835 70.609775 36.127206 72.99 42.118144 72.99 
z
" style="fill: #e0f7fa; stroke: #0072b2; stroke-width: 1.5; stroke-linejoin: miter"/>
    </g>
    <!-- $144$ -->
    <g transform="translate(24.928144 55.366875) scale(0.18 -0.18)">
     <defs>
      <path id="DejaVuSans-31" d="M 794 531 
L 1825 531 
L 1825 4091 
L 703 3866 
L 703 4441 
L 1819 4666 
L 2450 4666 
L 2450 531 
L 3481 531 
L 3481 0 
L 794 0 
L 794 531 
z
" transform="scale(0.015625)"/>
      <path id="DejaVuSans-34" d="M 2419 4116 
L 825 1625 
L 2419 1625 
L 2419 4116 
z
M 2253 4666 
L 3047 4666 
L 3047 1625 
L 3713 1625 
L 3713 1100 
L 3047 1100 
L 3047 0 
L 2419 0 
L 2419 1100 
L 313 1100 
L 313 1709 
L 2253 4666 
z
" transform="scale(0.015625)"/>
     </defs>
     <use xlink:href="#DejaVuSans-31" transform="translate(0 0.09375)"/>
     <use xlink:href="#DejaVuSans-34" transform="translate(63.623047 0.09375)"/>
     <use xlink:href="#DejaVuSans-34" transform="translate(127.246094 0.09375)"/>
    </g>
   </g>
   <g id="text_2">
    <g id="patch_3">
     <path d="M 29.647378 86.110312 
C 33.389477 86.110312 36.978813 84.623561 39.624876 81.977498 
C 42.270939 79.331434 43.757691 75.742099 43.757691 72 
C 43.757691 68.257901 42.270939 64.668566 39.624876 62.022502 
C 36.978813 59.376439 33.389477 57.889687 29.647378 57.889687 
C 25.90528 57.889687 22.315944 59.376439 19.669881 62.022502 
C 17.023818 64.668566 15.537066 68.257901 15.537066 72 
C 15.537066 75.742099 17.023818 79.331434 19.669881 81.977498 
C 22.315944 84.623561 25.90528 86.110312 29.647378 86.110312 
z
" style="fill: #e0f7fa; stroke: #0072b2; stroke-width: 1.5; stroke-linejoin: miter"/>
    </g>
    <!-- $2$ -->
    <g transform="translate(23.887378 76.966875) scale(0.18 -0.18)">
     <defs>
      <path id="DejaVuSans-32" d="M 1228 531 
L 3431 531 
L 3431 0 
L 469 0 
L 469 531 
Q 828 903 1448 1529 
Q 2069 2156 2228 2338 
Q 2531 2678 2651 2914 
Q 2772 3150 2772 3378 
Q 2772 3750 2511 3984 
Q 2250 4219 1831 4219 
Q 1534 4219 1204 4116 
Q 875 4013 500 3803 
L 500 4441 
Q 881 4594 1212 4672 
Q 1544 4750 1819 4750 
Q 2544 4750 2975 4387 
Q 3406 4025 3406 3419 
Q 3406 3131 3298 2873 
Q 3191 2616 2906 2266 
Q 2828 2175 2409 1742 
Q 1991 1309 1228 531 
z
" transform="scale(0.015625)"/>
     </defs>
     <use xlink:href="#DejaVuSans-32" transform="translate(0 0.78125)"/>
    </g>
   </g>
   <g id="text_3">
    <g id="patch_4">
     <path d="M 54.58891 88.92 
C 59.076147 88.92 63.380202 87.137202 66.553157 83.964247 
C 69.726112 80.791291 71.50891 76.487236 71.50891 72 
C 71.50891 67.512764 69.726112 63.208709 66.553157 60.035753 
C 63.380202 56.862798 59.076147 55.08 54.58891 55.08 
C 50.101674 55.08 45.797619 56.862798 42.624663 60.035753 
C 39.451708 63.208709 37.66891 67.512764 37.66891 72 
C 37.66891 76.487236 39.451708 80.791291 42.624663 83.964247 
C 45.797619 87.137202 50.101674 88.92 54.58891 88.92 
z
" style="fill: #e0f7fa; stroke: #0072b2; stroke-width: 1.5; stroke-linejoin: miter"/>
    </g>
    <!-- $72$ -->
    <g transform="translate(43.06891 76.966875) scale(0.18 -0.18)">
     <defs>
      <path id="DejaVuSans-37" d="M 525 4666 
L 3525 4666 
L 3525 4397 
L 1831 0 
L 1172 0 
L 2766 4134 
L 525 4134 
L 525 4666 
z
" transform="scale(0.015625)"/>
     </defs>
     <use xlink:href="#DejaVuSans-37" transform="translate(0 0.78125)"/>
     <use xlink:href="#DejaVuSans-32" transform="translate(63.623047 0.78125)"/>
    </g>
   </g>
   <g id="text_4">
    <g id="patch_5">
     <path d="M 42.118144 107.710312 
C 45.860243 107.710312 49.449579 106.223561 52.095642 103.577498 
C 54.741705 100.931434 56.228457 97.342099 56.228457 93.6 
C 56.228457 89.857901 54.741705 86.268566 52.095642 83.622502 
C 49.449579 80.976439 45.860243 79.489688 42.118144 79.489688 
C 38.376046 79.489688 34.78671 80.976439 32.140647 83.622502 
C 29.494583 86.268566 28.007832 89.857901 28.007832 93.6 
C 28.007832 97.342099 29.494583 100.931434 32.140647 103.577498 
C 34.78671 106.223561 38.376046 107.710312 42.118144 107.710312 
z
" style="fill: #e0f7fa; stroke: #0072b2; stroke-width: 1.5; stroke-linejoin: miter"/>
    </g>
    <!-- $2$ -->
    <g transform="translate(36.358144 98.566875) scale(0.18 -0.18)">
     <use xlink:href="#DejaVuSans-32" transform="translate(0 0.78125)"/>
    </g>
   </g>
   <g id="text_5">
    <g id="patch_6">
     <path d="M 67.059676 110.52 
C 71.546912 110.52 75.850967 108.737202 79.023923 105.564247 
C 82.196878 102.391291 83.979676 98.087236 83.979676 93.6 
C 83.979676 89.112764 82.196878 84.808709 79.023923 81.635753 
C 75.850967 78.462798 71.546912 76.68 67.059676 76.68 
C 62.572439 76.68 58.268384 78.462798 55.095429 81.635753 
C 51.922474 84.808709 50.139676 89.112764 50.139676 93.6 
C 50.139676 98.087236 51.922474 102.391291 55.095429 105.564247 
C 58.268384 108.737202 62.572439 110.52 67.059676 110.52 
z
" style="fill: #e0f7fa; stroke: #0072b2; stroke-width: 1.5; stroke-linejoin: miter"/>
    </g>
    <!-- $36$ -->
    <g transform="translate(55.539676 98.566875) scale(0.18 -0.18)">
     <defs>
      <path id="DejaVuSans-33" d="M 2597 2516 
Q 3050 2419 3304 2112 
Q 3559 1806 3559 1356 
Q 3559 666 3084 287 
Q 2609 -91 1734 -91 
Q 1441 -91 1130 -33 
Q 819 25 488 141 
L 488 750 
Q 750 597 1062 519 
Q 1375 441 1716 441 
Q 2309 441 2620 675 
Q 2931 909 2931 1356 
Q 2931 1769 2642 2001 
Q 2353 2234 1838 2234 
L 1294 2234 
L 1294 2753 
L 1863 2753 
Q 2328 2753 2575 2939 
Q 2822 3125 2822 3475 
Q 2822 3834 2567 4026 
Q 2313 4219 1838 4219 
Q 1578 4219 1281 4162 
Q 984 4106 628 3988 
L 628 4550 
Q 988 4650 1302 4700 
Q 1616 4750 1894 4750 
Q 2613 4750 3031 4423 
Q 3450 4097 3450 3541 
Q 3450 3153 3228 2886 
Q 3006 2619 2597 2516 
z
" transform="scale(0.015625)"/>
      <path id="DejaVuSans-36" d="M 2113 2584 
Q 1688 2584 1439 2293 
Q 1191 2003 1191 1497 
Q 1191 994 1439 701 
Q 1688 409 2113 409 
Q 2538 409 2786 701 
Q 3034 994 3034 1497 
Q 3034 2003 2786 2293 
Q 2538 2584 2113 2584 
z
M 3366 4563 
L 3366 3988 
Q 3128 4100 2886 4159 
Q 2644 4219 2406 4219 
Q 1781 4219 1451 3797 
Q 1122 3375 1075 2522 
Q 1259 2794 1537 2939 
Q 1816 3084 2150 3084 
Q 2853 3084 3261 2657 
Q 3669 2231 3669 1497 
Q 3669 778 3244 343 
Q 2819 -91 2113 -91 
Q 1303 -91 875 529 
Q 447 1150 447 2328 
Q 447 3434 972 4092 
Q 1497 4750 2381 4750 
Q 2619 4750 2861 4703 
Q 3103 4656 3366 4563 
z
" transform="scale(0.015625)"/>
     </defs>
     <use xlink:href="#DejaVuSans-33" transform="translate(0 0.78125)"/>
     <use xlink:href="#DejaVuSans-36" transform="translate(63.623047 0.78125)"/>
    </g>
   </g>
   <g id="text_6">
    <g id="patch_7">
     <path d="M 54.58891 129.310312 
C 58.331009 129.310312 61.920344 127.823561 64.566408 125.177498 
C 67.212471 122.531434 68.699223 118.942099 68.699223 115.2 
C 68.699223 111.457901 67.212471 107.868566 64.566408 105.222502 
C 61.920344 102.576439 58.331009 101.089687 54.58891 101.089687 
C 50.846811 101.089687 47.257476 102.576439 44.611412 105.222502 
C 41.965349 107.868566 40.478598 111.457901 40.478598 115.2 
C 40.478598 118.942099 41.965349 122.531434 44.611412 125.177498 
C 47.257476 127.823561 50.846811 129.310312 54.58891 129.310312 
z
" style="fill: #e0f7fa; stroke: #0072b2; stroke-width: 1.5; stroke-linejoin: miter"/>
    </g>
    <!-- $2$ -->
    <g transform="translate(48.82891 120.166875) scale(0.18 -0.18)">
     <use xlink:href="#DejaVuSans-32" transform="translate(0 0.78125)"/>
    </g>
   </g>
   <g id="text_7">
    <g id="patch_8">
     <path d="M 79.530442 132.12 
C 84.017678 132.12 88.321733 130.337202 91.494688 127.164247 
C 94.667644 123.991291 96.450442 119.687236 96.450442 115.2 
C 96.450442 110.712764 94.667644 106.408709 91.494688 103.235753 
C 88.321733 100.062798 84.017678 98.28 79.530442 98.28 
C 75.043205 98.28 70.73915 100.062798 67.566195 103.235753 
C 64.39324 106.408709 62.610442 110.712764 62.610442 115.2 
C 62.610442 119.687236 64.39324 123.991291 67.566195 127.164247 
C 70.73915 130.337202 75.043205 132.12 79.530442 132.12 
z
" style="fill: #e0f7fa; stroke: #0072b2; stroke-width: 1.5; stroke-linejoin: miter"/>
    </g>
    <!-- $18$ -->
    <g transform="translate(68.010442 120.166875) scale(0.18 -0.18)">
     <defs>
      <path id="DejaVuSans-38" d="M 2034 2216 
Q 1584 2216 1326 1975 
Q 1069 1734 1069 1313 
Q 1069 891 1326 650 
Q 1584 409 2034 409 
Q 2484 409 2743 651 
Q 3003 894 3003 1313 
Q 3003 1734 2745 1975 
Q 2488 2216 2034 2216 
z
M 1403 2484 
Q 997 2584 770 2862 
Q 544 3141 544 3541 
Q 544 4100 942 4425 
Q 1341 4750 2034 4750 
Q 2731 4750 3128 4425 
Q 3525 4100 3525 3541 
Q 3525 3141 3298 2862 
Q 3072 2584 2669 2484 
Q 3125 2378 3379 2068 
Q 3634 1759 3634 1313 
Q 3634 634 3220 271 
Q 2806 -91 2034 -91 
Q 1263 -91 848 271 
Q 434 634 434 1313 
Q 434 1759 690 2068 
Q 947 2378 1403 2484 
z
M 1172 3481 
Q 1172 3119 1398 2916 
Q 1625 2713 2034 2713 
Q 2441 2713 2670 2916 
Q 2900 3119 2900 3481 
Q 2900 3844 2670 4047 
Q 2441 4250 2034 4250 
Q 1625 4250 1398 4047 
Q 1172 3844 1172 3481 
z
" transform="scale(0.015625)"/>
     </defs>
     <use xlink:href="#DejaVuSans-31" transform="translate(0 0.78125)"/>
     <use xlink:href="#DejaVuSans-38" transform="translate(63.623047 0.78125)"/>
    </g>
   </g>
   <g id="text_8">
    <g id="patch_9">
     <path d="M 67.059676 150.910313 
C 70.801775 150.910313 74.39111 149.423561 77.037174 146.777498 
C 79.683237 144.131434 81.169988 140.542099 81.169988 136.8 
C 81.169988 133.057901 79.683237 129.468566 77.037174 126.822502 
C 74.39111 124.176439 70.801775 122.689687 67.059676 122.689687 
C 63.317577 122.689687 59.728242 124.176439 57.082178 126.822502 
C 54.436115 129.468566 52.949363 133.057901 52.949363 136.8 
C 52.949363 140.542099 54.436115 144.131434 57.082178 146.777498 
C 59.728242 149.423561 63.317577 150.910313 67.059676 150.910313 
z
" style="fill: #e0f7fa; stroke: #0072b2; stroke-width: 1.5; stroke-linejoin: miter"/>
    </g>
    <!-- $2$ -->
    <g transform="translate(61.299676 141.766875) scale(0.18 -0.18)">
     <use xlink:href="#DejaVuSans-32" transform="translate(0 0.78125)"/>
    </g>
   </g>
   <g id="text_9">
    <g id="patch_10">
     <path d="M 92.001208 150.910313 
C 95.743306 150.910313 99.332642 149.423561 101.978705 146.777498 
C 104.624768 144.131434 106.11152 140.542099 106.11152 136.8 
C 106.11152 133.057901 104.624768 129.468566 101.978705 126.822502 
C 99.332642 124.176439 95.743306 122.689687 92.001208 122.689687 
C 88.259109 122.689687 84.669773 124.176439 82.02371 126.822502 
C 79.377647 129.468566 77.890895 133.057901 77.890895 136.8 
C 77.890895 140.542099 79.377647 144.131434 82.02371 146.777498 
C 84.669773 149.423561 88.259109 150.910313 92.001208 150.910313 
z
" style="fill: #e0f7fa; stroke: #0072b2; stroke-width: 1.5; stroke-linejoin: miter"/>
    </g>
    <!-- $9$ -->
    <g transform="translate(86.241208 141.766875) scale(0.18 -0.18)">
     <defs>
      <path id="DejaVuSans-39" d="M 703 97 
L 703 672 
Q 941 559 1184 500 
Q 1428 441 1663 441 
Q 2288 441 2617 861 
Q 2947 1281 2994 2138 
Q 2813 1869 2534 1725 
Q 2256 1581 1919 1581 
Q 1219 1581 811 2004 
Q 403 2428 403 3163 
Q 403 3881 828 4315 
Q 1253 4750 1959 4750 
Q 2769 4750 3195 4129 
Q 3622 3509 3622 2328 
Q 3622 1225 3098 567 
Q 2575 -91 1691 -91 
Q 1453 -91 1209 -44 
Q 966 3 703 97 
z
M 1959 2075 
Q 2384 2075 2632 2365 
Q 2881 2656 2881 3163 
Q 2881 3666 2632 3958 
Q 2384 4250 1959 4250 
Q 1534 4250 1286 3958 
Q 1038 3666 1038 3163 
Q 1038 2656 1286 2365 
Q 1534 2075 1959 2075 
z
" transform="scale(0.015625)"/>
     </defs>
     <use xlink:href="#DejaVuSans-39" transform="translate(0 0.78125)"/>
    </g>
   </g>
   <g id="text_10">
    <g id="patch_11">
     <path d="M 79.530442 172.510312 
C 83.27254 172.510312 86.861876 171.023561 89.507939 168.377498 
C 92.154003 165.731434 93.640754 162.142099 93.640754 158.4 
C 93.640754 154.657901 92.154003 151.068566 89.507939 148.422502 
C 86.861876 145.776439 83.27254 144.289687 79.530442 144.289687 
C 75.788343 144.289687 72.199007 145.776439 69.552944 148.422502 
C 66.906881 151.068566 65.420129 154.657901 65.420129 158.4 
C 65.420129 162.142099 66.906881 165.731434 69.552944 168.377498 
C 72.199007 171.023561 75.788343 172.510312 79.530442 172.510312 
z
" style="fill: #e0f7fa; stroke: #0072b2; stroke-width: 1.5; stroke-linejoin: miter"/>
    </g>
    <!-- $3$ -->
    <g transform="translate(73.770442 163.366875) scale(0.18 -0.18)">
     <use xlink:href="#DejaVuSans-33" transform="translate(0 0.78125)"/>
    </g>
   </g>
   <g id="text_11">
    <g id="patch_12">
     <path d="M 104.471973 172.510312 
C 108.214072 172.510312 111.803408 171.023561 114.449471 168.377498 
C 117.095534 165.731434 118.582286 162.142099 118.582286 158.4 
C 118.582286 154.657901 117.095534 151.068566 114.449471 148.422502 
C 111.803408 145.776439 108.214072 144.289687 104.471973 144.289687 
C 100.729875 144.289687 97.140539 145.776439 94.494476 148.422502 
C 91.848412 151.068566 90.361661 154.657901 90.361661 158.4 
C 90.361661 162.142099 91.848412 165.731434 94.494476 168.377498 
C 97.140539 171.023561 100.729875 172.510312 104.471973 172.510312 
z
" style="fill: #e0f7fa; stroke: #0072b2; stroke-width: 1.5; stroke-linejoin: miter"/>
    </g>
    <!-- $3$ -->
    <g transform="translate(98.711973 163.366875) scale(0.18 -0.18)">
     <use xlink:href="#DejaVuSans-33" transform="translate(0 0.78125)"/>
    </g>
   </g>
  </g>
 </g>
 <defs>
  <clipPath id="pa353d2d7bf">
   <rect x="7.2" y="7.2" width="119.719352" height="194.4"/>
  </clipPath>
 </defs>
</svg>
