<?xml version="1.0" encoding="utf-8" standalone="no"?>
<!DOCTYPE svg PUBLIC "-//W3C//DTD SVG 1.1//EN"
  "http://www.w3.org/Graphics/SVG/1.1/DTD/svg11.dtd">
<svg xmlns:xlink="http://www.w3.org/1999/xlink" width="185.29568pt" height="280.8pt" viewBox="0 0 185.29568 280.8" xmlns="http://www.w3.org/2000/svg" version="1.1">
 <metadata>
  <rdf:RDF xmlns:dc="http://purl.org/dc/elements/1.1/" xmlns:cc="http://creativecommons.org/ns#" xmlns:rdf="http://www.w3.org/1999/02/22-rdf-syntax-ns#">
   <cc:Work>
    <dc:type rdf:resource="http://purl.org/dc/dcmitype/StillImage"/>
    <dc:date>2025-11-12T00:29:39.434867</dc:date>
    <dc:format>image/svg+xml</dc:format>
    <dc:creator>
     <cc:Agent>
      <dc:title>Matplotlib v3.9.1, https://matplotlib.org/</dc:title>
     </cc:Agent>
    </dc:creator>
   </cc:Work>
  </rdf:RDF>
 </metadata>
 <defs>
  <style type="text/css">*{stroke-linejoin: round; stroke-linecap: butt}</style>
 </defs>
 <g id="figure_1">
  <g id="patch_1">
   <path d="M 0 280.8 
L 185.29568 280.8 
L 185.29568 0 
L 0 0 
L 0 280.8 
z
" style="fill: none"/>
  </g>
  <g id="axes_1">
   <g id="line2d_1">
    <path d="M 60.6049 66.4 
L 39.24294 103.4 
" clip-path="url(#p9cb85a62bb)" style="fill: none; stroke: #455a64; stroke-width: 1.2; stroke-linecap: square"/>
   </g>
   <g id="line2d_2">
    <path d="M 60.6049 66.4 
L 81.96686 103.4 
" clip-path="url(#p9cb85a62bb)" style="fill: none; stroke: #455a64; stroke-width: 1.2; stroke-linecap: square"/>
   </g>
   <g id="line2d_3">
    <path d="M 81.96686 103.4 
L 60.6049 140.4 
" clip-path="url(#p9cb85a62bb)" style="fill: none; stroke: #455a64; stroke-width: 1.2; stroke-linecap: square"/>
   </g>
   <g id="line2d_4">
    <path d="M 81.96686 103.4 
L 103.32882 140.4 
" clip-path="url(#p9cb85a62bb)" style="fill: none; stroke: #455a64; stroke-width: 1.2; stroke-linecap: square"/>
   </g>
   <g id="line2d_5">
    <path d="M 103.32882 140.4 
L 81.96686 177.4 
" clip-path="url(#p9cb85a62bb)" style="fill: none; stroke: #455a64; stroke-width: 1.2; stroke-linecap: square"/>
   </g>
   <g id="line2d_6">
    <path d="M 103.32882 140.4 
L 124.69078 177.4 
" clip-path="url(#p9cb85a62bb)" style="fill: none; stroke: #455a64; stroke-width: 1.2; stroke-linecap: square"/>
   </g>
   <g id="line2d_7">
    <path d="M 124.69078 177.4 
L 103.32882 214.4 
" clip-path="url(#p9cb85a62bb)" style="fill: none; stroke: #455a64; stroke-width: 1.2; stroke-linecap: square"/>
   </g>
   <g id="line2d_8">
    <path d="M 124.69078 177.4 
L 146.05274 214.4 
" clip-path="url(#p9cb85a62bb)" style="fill: none; stroke: #455a64; stroke-width: 1.2; stroke-linecap: square"/>
   </g>
   <g id="text_1">
    <g id="patch_2">
     <path d="M 60.6049 88.99 
C 66.595838 88.99 72.342209 86.609775 76.578442 82.373542 
C 80.814675 78.137309 83.1949 72.390938 83.1949 66.4 
C 83.1949 60.409062 80.814675 54.662691 76.578442 50.426458 
C 72.342209 46.190225 66.595838 43.81 60.6049 43.81 
C 54.613962 43.81 48.867591 46.190225 44.631358 50.426458 
C 40.395125 54.662691 38.0149 60.409062 38.0149 66.4 
C 38.0149 72.390938 40.395125 78.137309 44.631358 82.373542 
C 48.867591 86.609775 54.613962 88.99 60.6049 88.99 
z
" style="fill: #e0f7fa; stroke: #0072b2; stroke-width: 1.5; stroke-linejoin: miter"/>
    </g>
    <!-- $108$ -->
    <g transform="translate(43.4149 71.366875) scale(0.18 -0.18)">
     <defs>
      <path id="DejaVuSans-31" d="M 794 531 
L 1825 531 
L 1825 4091 
L 703 3866 
L 703 4441 
L 1819 4666 
L 2450 4666 
L 2450 531 
L 3481 531 
L 3481 0 
L 794 0 
L 794 531 
z
" transform="scale(0.015625)"/>
      <path id="DejaVuSans-30" d="M 2034 4250 
Q 1547 4250 1301 3770 
Q 1056 3291 1056 2328 
Q 1056 1369 1301 889 
Q 1547 409 2034 409 
Q 2525 409 2770 889 
Q 3016 1369 3016 2328 
Q 3016 3291 2770 3770 
Q 2525 4250 2034 4250 
z
M 2034 4750 
Q 2819 4750 3233 4129 
Q 3647 3509 3647 2328 
Q 3647 1150 3233 529 
Q 2819 -91 2034 -91 
Q 1250 -91 836 529 
Q 422 1150 422 2328 
Q 422 3509 836 4129 
Q 1250 4750 2034 4750 
z
" transform="scale(0.015625)"/>
      <path id="DejaVuSans-38" d="M 2034 2216 
Q 1584 2216 1326 1975 
Q 1069 1734 1069 1313 
Q 1069 891 1326 650 
Q 1584 409 2034 409 
Q 2484 409 2743 651 
Q 3003 894 3003 1313 
Q 3003 1734 2745 1975 
Q 2488 2216 2034 2216 
z
M 1403 2484 
Q 997 2584 770 2862 
Q 544 3141 544 3541 
Q 544 4100 942 4425 
Q 1341 4750 2034 4750 
Q 2731 4750 3128 4425 
Q 3525 4100 3525 3541 
Q 3525 3141 3298 2862 
Q 3072 2584 2669 2484 
Q 3125 2378 3379 2068 
Q 3634 1759 3634 1313 
Q 3634 634 3220 271 
Q 2806 -91 2034 -91 
Q 1263 -91 848 271 
Q 434 634 434 1313 
Q 434 1759 690 2068 
Q 947 2378 1403 2484 
z
M 1172 3481 
Q 1172 3119 1398 2916 
Q 1625 2713 2034 2713 
Q 2441 2713 2670 2916 
Q 2900 3119 2900 3481 
Q 2900 3844 2670 4047 
Q 2441 4250 2034 4250 
Q 1625 4250 1398 4047 
Q 1172 3844 1172 3481 
z
" transform="scale(0.015625)"/>
     </defs>
     <use xlink:href="#DejaVuSans-31" transform="translate(0 0.78125)"/>
     <use xlink:href="#DejaVuSans-30" transform="translate(63.623047 0.78125)"/>
     <use xlink:href="#DejaVuSans-38" transform="translate(127.246094 0.78125)"/>
    </g>
   </g>
   <g id="text_2">
    <g id="patch_3">
     <path d="M 39.24294 117.510312 
C 42.985039 117.510312 46.574374 116.023561 49.220438 113.377498 
C 51.866501 110.731434 53.353252 107.142099 53.353252 103.4 
C 53.353252 99.657901 51.866501 96.068566 49.220438 93.422502 
C 46.574374 90.776439 42.985039 89.289687 39.24294 89.289687 
C 35.500841 89.289687 31.911506 90.776439 29.265442 93.422502 
C 26.619379 96.068566 25.132627 99.657901 25.132627 103.4 
C 25.132627 107.142099 26.619379 110.731434 29.265442 113.377498 
C 31.911506 116.023561 35.500841 117.510312 39.24294 117.510312 
z
" style="fill: #e0f7fa; stroke: #0072b2; stroke-width: 1.5; stroke-linejoin: miter"/>
    </g>
    <!-- $2$ -->
    <g transform="translate(33.48294 108.366875) scale(0.18 -0.18)">
     <defs>
      <path id="DejaVuSans-32" d="M 1228 531 
L 3431 531 
L 3431 0 
L 469 0 
L 469 531 
Q 828 903 1448 1529 
Q 2069 2156 2228 2338 
Q 2531 2678 2651 2914 
Q 2772 3150 2772 3378 
Q 2772 3750 2511 3984 
Q 2250 4219 1831 4219 
Q 1534 4219 1204 4116 
Q 875 4013 500 3803 
L 500 4441 
Q 881 4594 1212 4672 
Q 1544 4750 1819 4750 
Q 2544 4750 2975 4387 
Q 3406 4025 3406 3419 
Q 3406 3131 3298 2873 
Q 3191 2616 2906 2266 
Q 2828 2175 2409 1742 
Q 1991 1309 1228 531 
z
" transform="scale(0.015625)"/>
     </defs>
     <use xlink:href="#DejaVuSans-32" transform="translate(0 0.78125)"/>
    </g>
   </g>
   <g id="text_3">
    <g id="patch_4">
     <path d="M 81.96686 120.32 
C 86.454096 120.32 90.758151 118.537202 93.931107 115.364247 
C 97.104062 112.191291 98.88686 107.887236 98.88686 103.4 
C 98.88686 98.912764 97.104062 94.608709 93.931107 91.435753 
C 90.758151 88.262798 86.454096 86.48 81.96686 86.48 
C 77.479623 86.48 73.175568 88.262798 70.002613 91.435753 
C 66.829658 94.608709 65.04686 98.912764 65.04686 103.4 
C 65.04686 107.887236 66.829658 112.191291 70.002613 115.364247 
C 73.175568 118.537202 77.479623 120.32 81.96686 120.32 
z
" style="fill: #e0f7fa; stroke: #0072b2; stroke-width: 1.5; stroke-linejoin: miter"/>
    </g>
    <!-- $54$ -->
    <g transform="translate(70.44686 108.366875) scale(0.18 -0.18)">
     <defs>
      <path id="DejaVuSans-35" d="M 691 4666 
L 3169 4666 
L 3169 4134 
L 1269 4134 
L 1269 2991 
Q 1406 3038 1543 3061 
Q 1681 3084 1819 3084 
Q 2600 3084 3056 2656 
Q 3513 2228 3513 1497 
Q 3513 744 3044 326 
Q 2575 -91 1722 -91 
Q 1428 -91 1123 -41 
Q 819 9 494 109 
L 494 744 
Q 775 591 1075 516 
Q 1375 441 1709 441 
Q 2250 441 2565 725 
Q 2881 1009 2881 1497 
Q 2881 1984 2565 2268 
Q 2250 2553 1709 2553 
Q 1456 2553 1204 2497 
Q 953 2441 691 2322 
L 691 4666 
z
" transform="scale(0.015625)"/>
      <path id="DejaVuSans-34" d="M 2419 4116 
L 825 1625 
L 2419 1625 
L 2419 4116 
z
M 2253 4666 
L 3047 4666 
L 3047 1625 
L 3713 1625 
L 3713 1100 
L 3047 1100 
L 3047 0 
L 2419 0 
L 2419 1100 
L 313 1100 
L 313 1709 
L 2253 4666 
z
" transform="scale(0.015625)"/>
     </defs>
     <use xlink:href="#DejaVuSans-35" transform="translate(0 0.09375)"/>
     <use xlink:href="#DejaVuSans-34" transform="translate(63.623047 0.09375)"/>
    </g>
   </g>
   <g id="text_4">
    <g id="patch_5">
     <path d="M 60.6049 154.510312 
C 64.346999 154.510312 67.936334 153.023561 70.582398 150.377498 
C 73.228461 147.731434 74.715212 144.142099 74.715212 140.4 
C 74.715212 136.657901 73.228461 133.068566 70.582398 130.422502 
C 67.936334 127.776439 64.346999 126.289687 60.6049 126.289687 
C 56.862801 126.289687 53.273466 127.776439 50.627402 130.422502 
C 47.981339 133.068566 46.494587 136.657901 46.494587 140.4 
C 46.494587 144.142099 47.981339 147.731434 50.627402 150.377498 
C 53.273466 153.023561 56.862801 154.510312 60.6049 154.510312 
z
" style="fill: #e0f7fa; stroke: #0072b2; stroke-width: 1.5; stroke-linejoin: miter"/>
    </g>
    <!-- $2$ -->
    <g transform="translate(54.8449 145.366875) scale(0.18 -0.18)">
     <use xlink:href="#DejaVuSans-32" transform="translate(0 0.78125)"/>
    </g>
   </g>
   <g id="text_5">
    <g id="patch_6">
     <path d="M 103.32882 157.32 
C 107.816056 157.32 112.120111 155.537202 115.293067 152.364247 
C 118.466022 149.191291 120.24882 144.887236 120.24882 140.4 
C 120.24882 135.912764 118.466022 131.608709 115.293067 128.435753 
C 112.120111 125.262798 107.816056 123.48 103.32882 123.48 
C 98.841583 123.48 94.537528 125.262798 91.364573 128.435753 
C 88.191618 131.608709 86.40882 135.912764 86.40882 140.4 
C 86.40882 144.887236 88.191618 149.191291 91.364573 152.364247 
C 94.537528 155.537202 98.841583 157.32 103.32882 157.32 
z
" style="fill: #e0f7fa; stroke: #0072b2; stroke-width: 1.5; stroke-linejoin: miter"/>
    </g>
    <!-- $27$ -->
    <g transform="translate(91.80882 145.366875) scale(0.18 -0.18)">
     <defs>
      <path id="DejaVuSans-37" d="M 525 4666 
L 3525 4666 
L 3525 4397 
L 1831 0 
L 1172 0 
L 2766 4134 
L 525 4134 
L 525 4666 
z
" transform="scale(0.015625)"/>
     </defs>
     <use xlink:href="#DejaVuSans-32" transform="translate(0 0.78125)"/>
     <use xlink:href="#DejaVuSans-37" transform="translate(63.623047 0.78125)"/>
    </g>
   </g>
   <g id="text_6">
    <g id="patch_7">
     <path d="M 81.96686 191.510312 
C 85.708958 191.510312 89.298294 190.023561 91.944358 187.377498 
C 94.590421 184.731434 96.077172 181.142099 96.077172 177.4 
C 96.077172 173.657901 94.590421 170.068566 91.944358 167.422502 
C 89.298294 164.776439 85.708958 163.289687 81.96686 163.289687 
C 78.224761 163.289687 74.635426 164.776439 71.989362 167.422502 
C 69.343299 170.068566 67.856547 173.657901 67.856547 177.4 
C 67.856547 181.142099 69.343299 184.731434 71.989362 187.377498 
C 74.635426 190.023561 78.224761 191.510312 81.96686 191.510312 
z
" style="fill: #e0f7fa; stroke: #0072b2; stroke-width: 1.5; stroke-linejoin: miter"/>
    </g>
    <!-- $3$ -->
    <g transform="translate(76.20686 182.366875) scale(0.18 -0.18)">
     <defs>
      <path id="DejaVuSans-33" d="M 2597 2516 
Q 3050 2419 3304 2112 
Q 3559 1806 3559 1356 
Q 3559 666 3084 287 
Q 2609 -91 1734 -91 
Q 1441 -91 1130 -33 
Q 819 25 488 141 
L 488 750 
Q 750 597 1062 519 
Q 1375 441 1716 441 
Q 2309 441 2620 675 
Q 2931 909 2931 1356 
Q 2931 1769 2642 2001 
Q 2353 2234 1838 2234 
L 1294 2234 
L 1294 2753 
L 1863 2753 
Q 2328 2753 2575 2939 
Q 2822 3125 2822 3475 
Q 2822 3834 2567 4026 
Q 2313 4219 1838 4219 
Q 1578 4219 1281 4162 
Q 984 4106 628 3988 
L 628 4550 
Q 988 4650 1302 4700 
Q 1616 4750 1894 4750 
Q 2613 4750 3031 4423 
Q 3450 4097 3450 3541 
Q 3450 3153 3228 2886 
Q 3006 2619 2597 2516 
z
" transform="scale(0.015625)"/>
     </defs>
     <use xlink:href="#DejaVuSans-33" transform="translate(0 0.78125)"/>
    </g>
   </g>
   <g id="text_7">
    <g id="patch_8">
     <path d="M 124.69078 191.510312 
C 128.432878 191.510312 132.022214 190.023561 134.668277 187.377498 
C 137.314341 184.731434 138.801092 181.142099 138.801092 177.4 
C 138.801092 173.657901 137.314341 170.068566 134.668277 167.422502 
C 132.022214 164.776439 128.432878 163.289687 124.69078 163.289687 
C 120.948681 163.289687 117.359345 164.776439 114.713282 167.422502 
C 112.067219 170.068566 110.580467 173.657901 110.580467 177.4 
C 110.580467 181.142099 112.067219 184.731434 114.713282 187.377498 
C 117.359345 190.023561 120.948681 191.510312 124.69078 191.510312 
z
" style="fill: #e0f7fa; stroke: #0072b2; stroke-width: 1.5; stroke-linejoin: miter"/>
    </g>
    <!-- $9$ -->
    <g transform="translate(118.93078 182.366875) scale(0.18 -0.18)">
     <defs>
      <path id="DejaVuSans-39" d="M 703 97 
L 703 672 
Q 941 559 1184 500 
Q 1428 441 1663 441 
Q 2288 441 2617 861 
Q 2947 1281 2994 2138 
Q 2813 1869 2534 1725 
Q 2256 1581 1919 1581 
Q 1219 1581 811 2004 
Q 403 2428 403 3163 
Q 403 3881 828 4315 
Q 1253 4750 1959 4750 
Q 2769 4750 3195 4129 
Q 3622 3509 3622 2328 
Q 3622 1225 3098 567 
Q 2575 -91 1691 -91 
Q 1453 -91 1209 -44 
Q 966 3 703 97 
z
M 1959 2075 
Q 2384 2075 2632 2365 
Q 2881 2656 2881 3163 
Q 2881 3666 2632 3958 
Q 2384 4250 1959 4250 
Q 1534 4250 1286 3958 
Q 1038 3666 1038 3163 
Q 1038 2656 1286 2365 
Q 1534 2075 1959 2075 
z
" transform="scale(0.015625)"/>
     </defs>
     <use xlink:href="#DejaVuSans-39" transform="translate(0 0.78125)"/>
    </g>
   </g>
   <g id="text_8">
    <g id="patch_9">
     <path d="M 103.32882 228.510313 
C 107.070918 228.510313 110.660254 227.023561 113.306317 224.377498 
C 115.952381 221.731434 117.439132 218.142099 117.439132 214.4 
C 117.439132 210.657901 115.952381 207.068566 113.306317 204.422502 
C 110.660254 201.776439 107.070918 200.289688 103.32882 200.289688 
C 99.586721 200.289688 95.997385 201.776439 93.351322 204.422502 
C 90.705259 207.068566 89.218507 210.657901 89.218507 214.4 
C 89.218507 218.142099 90.705259 221.731434 93.351322 224.377498 
C 95.997385 227.023561 99.586721 228.510313 103.32882 228.510313 
z
" style="fill: #e0f7fa; stroke: #0072b2; stroke-width: 1.5; stroke-linejoin: miter"/>
    </g>
    <!-- $3$ -->
    <g transform="translate(97.56882 219.366875) scale(0.18 -0.18)">
     <use xlink:href="#DejaVuSans-33" transform="translate(0 0.78125)"/>
    </g>
   </g>
   <g id="text_9">
    <g id="patch_10">
     <path d="M 146.05274 228.510313 
C 149.794838 228.510313 153.384174 227.023561 156.030237 224.377498 
C 158.676301 221.731434 160.163052 218.142099 160.163052 214.4 
C 160.163052 210.657901 158.676301 207.068566 156.030237 204.422502 
C 153.384174 201.776439 149.794838 200.289688 146.05274 200.289688 
C 142.310641 200.289688 138.721305 201.776439 136.075242 204.422502 
C 133.429179 207.068566 131.942427 210.657901 131.942427 214.4 
C 131.942427 218.142099 133.429179 221.731434 136.075242 224.377498 
C 138.721305 227.023561 142.310641 228.510313 146.05274 228.510313 
z
" style="fill: #e0f7fa; stroke: #0072b2; stroke-width: 1.5; stroke-linejoin: miter"/>
    </g>
    <!-- $3$ -->
    <g transform="translate(140.29274 219.366875) scale(0.18 -0.18)">
     <use xlink:href="#DejaVuSans-33" transform="translate(0 0.78125)"/>
    </g>
   </g>
  </g>
 </g>
 <defs>
  <clipPath id="p9cb85a62bb">
   <rect x="7.2" y="7.2" width="170.89568" height="266.4"/>
  </clipPath>
 </defs>
</svg>
