<svg xmlns:xlink="http://www.w3.org/1999/xlink" xmlns="http://www.w3.org/2000/svg" width="506.610602pt" height="337.242826pt" viewBox="0 0 506.610602 337.242826" version="1.1">
 
 <defs>
  <style type="text/css">*{stroke-linejoin: round; stroke-linecap: butt}</style>
 </defs>
 <g id="figure_1">
  <g id="patch_1">
   <path d="M 0 337.242826  L 506.610602 337.242826  L 506.610602 0  L 0 0  L 0 337.242826  z " style="fill: none; opacity: 0" id="mb_auto_path_0"/>
  </g>
  <g id="axes_1">
   <g id="patch_2">
    <path d="M 7.2 300.005675  L 443.4 300.005675  L 443.4 18.327581  L 7.2 18.327581  L 7.2 300.005675  z " style="fill: none; opacity: 0" id="mb_auto_path_1"/>
   </g>
   <g id="matplotlib.axis_1">
    <g id="xtick_1">
     <g id="line2d_1">
      <path d="M 131.828571 300.005675  L 131.828571 18.327581  " clip-path="url(#p142a77aede)" style="fill: none; stroke-dasharray: 2.96,1.28; stroke-dashoffset: 0; stroke: #b0b0b0; stroke-opacity: 0.6; stroke-width: 0.8" id="mb_auto_path_2"/>
     </g>
     <g id="line2d_2">
      <defs>
       <path id="m97c87420e8" d="M 0 0  L 0 3.5  " style="stroke: #000000; stroke-width: 0.8"/>
      </defs>
      <g id="mb_auto_g_0">
       <use xlink:href="#m97c87420e8" x="131.828571" y="276.5325" style="stroke: #000000; stroke-width: 0.8" id="mb_auto_use_0"/>
      </g>
     </g>
     <g id="text_1">
      <!-- $\mathdefault{1}$ -->
      <g transform="translate(126.345714 300.136906) scale(0.24 -0.24)" id="mb_auto_g_1">
       <defs>
        <path id="CMR17-31" d="M 1702 4058  C 1702 4192 1696 4192 1606 4192  C 1357 3916 979 3827 621 3827  C 602 3827 570 3827 563 3808  C 557 3795 557 3782 557 3648  C 755 3648 1088 3686 1344 3839  L 1344 461  C 1344 236 1331 160 781 160  L 589 160  L 589 0  C 896 0 1216 0 1523 0  C 1830 0 2150 0 2458 0  L 2458 160  L 2266 160  C 1715 160 1702 230 1702 458  L 1702 4058  z " transform="scale(0.015625)"/>
       </defs>
       <use xlink:href="#CMR17-31" transform="scale(0.996264)" id="mb_auto_use_1"/>
      </g>
     </g>
    </g>
    <g id="xtick_2">
     <g id="line2d_3">
      <path d="M 194.142857 300.005675  L 194.142857 18.327581  " clip-path="url(#p142a77aede)" style="fill: none; stroke-dasharray: 2.96,1.28; stroke-dashoffset: 0; stroke: #b0b0b0; stroke-opacity: 0.6; stroke-width: 0.8" id="mb_auto_path_3"/>
     </g>
     <g id="line2d_4">
      <g id="mb_auto_g_2">
       <use xlink:href="#m97c87420e8" x="194.142857" y="276.5325" style="stroke: #000000; stroke-width: 0.8" id="mb_auto_use_2"/>
      </g>
     </g>
     <g id="text_2">
      <!-- $\mathdefault{2}$ -->
      <g transform="translate(188.66 300.136906) scale(0.24 -0.24)" id="mb_auto_g_3">
       <defs>
        <path id="CMR17-32" d="M 2669 989  L 2554 989  C 2490 536 2438 459 2413 420  C 2381 369 1920 369 1830 369  L 602 369  C 832 619 1280 1072 1824 1597  C 2214 1967 2669 2402 2669 3035  C 2669 3790 2067 4224 1395 4224  C 691 4224 262 3604 262 3030  C 262 2780 448 2748 525 2748  C 589 2748 781 2787 781 3010  C 781 3207 614 3264 525 3264  C 486 3264 448 3258 422 3245  C 544 3790 915 4058 1306 4058  C 1862 4058 2227 3617 2227 3035  C 2227 2479 1901 2000 1536 1584  L 262 146  L 262 0  L 2515 0  L 2669 989  z " transform="scale(0.015625)"/>
       </defs>
       <use xlink:href="#CMR17-32" transform="scale(0.996264)" id="mb_auto_use_3"/>
      </g>
     </g>
    </g>
    <g id="xtick_3">
     <g id="line2d_5">
      <path d="M 256.457143 300.005675  L 256.457143 18.327581  " clip-path="url(#p142a77aede)" style="fill: none; stroke-dasharray: 2.96,1.28; stroke-dashoffset: 0; stroke: #b0b0b0; stroke-opacity: 0.6; stroke-width: 0.8" id="mb_auto_path_4"/>
     </g>
     <g id="line2d_6">
      <g id="mb_auto_g_4">
       <use xlink:href="#m97c87420e8" x="256.457143" y="276.5325" style="stroke: #000000; stroke-width: 0.8" id="mb_auto_use_4"/>
      </g>
     </g>
     <g id="text_3">
      <!-- $\mathdefault{3}$ -->
      <g transform="translate(250.974286 300.136906) scale(0.24 -0.24)" id="mb_auto_g_5">
       <defs>
        <path id="CMR17-33" d="M 1414 2157  C 1984 2157 2234 1662 2234 1090  C 2234 320 1824 25 1453 25  C 1114 25 563 194 390 693  C 422 680 454 680 486 680  C 640 680 755 782 755 948  C 755 1133 614 1216 486 1216  C 378 1216 211 1165 211 926  C 211 335 787 -128 1466 -128  C 2176 -128 2720 430 2720 1085  C 2720 1707 2208 2157 1600 2227  C 2086 2328 2554 2756 2554 3329  C 2554 3820 2048 4179 1472 4179  C 890 4179 378 3829 378 3329  C 378 3110 544 3072 627 3072  C 762 3072 877 3155 877 3321  C 877 3486 762 3569 627 3569  C 602 3569 570 3569 544 3557  C 730 3959 1235 4032 1459 4032  C 1683 4032 2106 3925 2106 3320  C 2106 3143 2080 2828 1862 2550  C 1670 2304 1453 2304 1242 2284  C 1210 2284 1062 2269 1037 2269  C 992 2263 966 2257 966 2208  C 966 2163 973 2157 1101 2157  L 1414 2157  z " transform="scale(0.015625)"/>
       </defs>
       <use xlink:href="#CMR17-33" transform="scale(0.996264)" id="mb_auto_use_5"/>
      </g>
     </g>
    </g>
    <g id="xtick_4">
     <g id="line2d_7">
      <path d="M 318.771429 300.005675  L 318.771429 18.327581  " clip-path="url(#p142a77aede)" style="fill: none; stroke-dasharray: 2.96,1.28; stroke-dashoffset: 0; stroke: #b0b0b0; stroke-opacity: 0.6; stroke-width: 0.8" id="mb_auto_path_5"/>
     </g>
     <g id="line2d_8">
      <g id="mb_auto_g_6">
       <use xlink:href="#m97c87420e8" x="318.771429" y="276.5325" style="stroke: #000000; stroke-width: 0.8" id="mb_auto_use_6"/>
      </g>
     </g>
     <g id="text_4">
      <!-- $\mathdefault{4}$ -->
      <g transform="translate(313.288571 300.136906) scale(0.24 -0.24)" id="mb_auto_g_7">
       <defs>
        <path id="CMR17-34" d="M 2150 4122  C 2150 4256 2144 4256 2029 4256  L 128 1254  L 128 1088  L 1779 1088  L 1779 457  C 1779 224 1766 160 1318 160  L 1197 160  L 1197 0  C 1402 0 1747 0 1965 0  C 2182 0 2528 0 2733 0  L 2733 160  L 2611 160  C 2163 160 2150 224 2150 457  L 2150 1088  L 2803 1088  L 2803 1254  L 2150 1254  L 2150 4122  z M 1798 3703  L 1798 1254  L 256 1254  L 1798 3703  z " transform="scale(0.015625)"/>
       </defs>
       <use xlink:href="#CMR17-34" transform="scale(0.996264)" id="mb_auto_use_7"/>
      </g>
     </g>
    </g>
    <g id="xtick_5">
     <g id="line2d_9">
      <path d="M 381.085714 300.005675  L 381.085714 18.327581  " clip-path="url(#p142a77aede)" style="fill: none; stroke-dasharray: 2.96,1.28; stroke-dashoffset: 0; stroke: #b0b0b0; stroke-opacity: 0.6; stroke-width: 0.8" id="mb_auto_path_6"/>
     </g>
     <g id="line2d_10">
      <g id="mb_auto_g_8">
       <use xlink:href="#m97c87420e8" x="381.085714" y="276.5325" style="stroke: #000000; stroke-width: 0.8" id="mb_auto_use_8"/>
      </g>
     </g>
     <g id="text_5">
      <!-- $\mathdefault{5}$ -->
      <g transform="translate(375.602857 300.136906) scale(0.24 -0.24)" id="mb_auto_g_9">
       <defs>
        <path id="CMR17-35" d="M 730 3692  C 794 3666 1056 3584 1325 3584  C 1920 3584 2246 3911 2432 4100  C 2432 4157 2432 4192 2394 4192  C 2387 4192 2374 4192 2323 4163  C 2099 4058 1837 3973 1517 3973  C 1325 3973 1037 3999 723 4139  C 653 4171 640 4171 634 4171  C 602 4171 595 4164 595 4037  L 595 2203  C 595 2089 595 2057 659 2057  C 691 2057 704 2070 736 2114  C 941 2401 1222 2522 1542 2522  C 1766 2522 2246 2382 2246 1289  C 2246 1085 2246 715 2054 421  C 1894 159 1645 25 1370 25  C 947 25 518 320 403 814  C 429 807 480 795 506 795  C 589 795 749 840 749 1038  C 749 1210 627 1280 506 1280  C 358 1280 262 1190 262 1011  C 262 454 704 -128 1382 -128  C 2042 -128 2669 440 2669 1264  C 2669 2030 2170 2624 1549 2624  C 1222 2624 947 2503 730 2274  L 730 3692  z " transform="scale(0.015625)"/>
       </defs>
       <use xlink:href="#CMR17-35" transform="scale(0.996264)" id="mb_auto_use_9"/>
      </g>
     </g>
    </g>
    <g id="text_6">
     <!-- $x$ -->
     <g transform="translate(430.095826 325.392068) scale(0.24 -0.24)" id="mb_auto_g_10">
      <defs>
       <path id="CMMI12-78" d="M 3034 2606  C 2829 2567 2752 2414 2752 2293  C 2752 2139 2874 2088 2963 2088  C 3155 2088 3290 2254 3290 2427  C 3290 2695 2982 2816 2714 2816  C 2323 2816 2106 2433 2048 2312  C 1901 2816 1504 2816 1389 2816  C 736 2816 390 1980 390 1839  C 390 1814 416 1782 461 1782  C 512 1782 525 1820 538 1846  C 755 2555 1184 2689 1370 2689  C 1658 2689 1715 2420 1715 2267  C 1715 2127 1677 1980 1600 1673  L 1382 798  C 1286 415 1101 64 762 64  C 730 64 570 64 435 147  C 666 192 717 383 717 460  C 717 588 621 664 499 664  C 346 664 179 530 179 326  C 179 57 480 -64 755 -64  C 1062 -64 1280 179 1414 441  C 1517 64 1837 -64 2074 -64  C 2726 -64 3072 773 3072 913  C 3072 945 3046 971 3008 971  C 2950 971 2944 939 2925 888  C 2752 326 2381 64 2093 64  C 1869 64 1747 230 1747 492  C 1747 632 1773 734 1875 1156  L 2099 2024  C 2195 2408 2413 2689 2707 2689  C 2720 2689 2899 2689 3034 2606  z " transform="scale(0.015625)"/>
      </defs>
      <use xlink:href="#CMMI12-78" transform="scale(0.996264)" id="mb_auto_use_10"/>
     </g>
    </g>
   </g>
   <g id="matplotlib.axis_2">
    <g id="ytick_1">
     <g id="line2d_11">
      <path d="M 7.2 253.059326  L 443.4 253.059326  " clip-path="url(#p142a77aede)" style="fill: none; stroke-dasharray: 2.96,1.28; stroke-dashoffset: 0; stroke: #b0b0b0; stroke-opacity: 0.6; stroke-width: 0.8" id="mb_auto_path_7"/>
     </g>
     <g id="line2d_12">
      <defs>
       <path id="m275f712a15" d="M 0 0  L -3.5 0  " style="stroke: #000000; stroke-width: 0.8"/>
      </defs>
      <g id="mb_auto_g_11">
       <use xlink:href="#m275f712a15" x="69.514286" y="253.059326" style="stroke: #000000; stroke-width: 0.8" id="mb_auto_use_11"/>
      </g>
     </g>
     <g id="text_7">
      <!-- $\mathdefault{1}$ -->
      <g transform="translate(51.548571 261.361529) scale(0.24 -0.24)" id="mb_auto_g_12">
       <use xlink:href="#CMR17-31" transform="scale(0.996264)" id="mb_auto_use_12"/>
      </g>
     </g>
    </g>
    <g id="ytick_2">
     <g id="line2d_13">
      <path d="M 7.2 229.586152  L 443.4 229.586152  " clip-path="url(#p142a77aede)" style="fill: none; stroke-dasharray: 2.96,1.28; stroke-dashoffset: 0; stroke: #b0b0b0; stroke-opacity: 0.6; stroke-width: 0.8" id="mb_auto_path_8"/>
     </g>
     <g id="line2d_14">
      <g id="mb_auto_g_13">
       <use xlink:href="#m275f712a15" x="69.514286" y="229.586152" style="stroke: #000000; stroke-width: 0.8" id="mb_auto_use_13"/>
      </g>
     </g>
     <g id="text_8">
      <!-- $\mathdefault{2}$ -->
      <g transform="translate(51.548571 237.888354) scale(0.24 -0.24)" id="mb_auto_g_14">
       <use xlink:href="#CMR17-32" transform="scale(0.996264)" id="mb_auto_use_14"/>
      </g>
     </g>
    </g>
    <g id="ytick_3">
     <g id="line2d_15">
      <path d="M 7.2 206.112977  L 443.4 206.112977  " clip-path="url(#p142a77aede)" style="fill: none; stroke-dasharray: 2.96,1.28; stroke-dashoffset: 0; stroke: #b0b0b0; stroke-opacity: 0.6; stroke-width: 0.8" id="mb_auto_path_9"/>
     </g>
     <g id="line2d_16">
      <g id="mb_auto_g_15">
       <use xlink:href="#m275f712a15" x="69.514286" y="206.112977" style="stroke: #000000; stroke-width: 0.8" id="mb_auto_use_15"/>
      </g>
     </g>
     <g id="text_9">
      <!-- $\mathdefault{3}$ -->
      <g transform="translate(51.548571 214.41518) scale(0.24 -0.24)" id="mb_auto_g_16">
       <use xlink:href="#CMR17-33" transform="scale(0.996264)" id="mb_auto_use_16"/>
      </g>
     </g>
    </g>
    <g id="ytick_4">
     <g id="line2d_17">
      <path d="M 7.2 182.639803  L 443.4 182.639803  " clip-path="url(#p142a77aede)" style="fill: none; stroke-dasharray: 2.96,1.28; stroke-dashoffset: 0; stroke: #b0b0b0; stroke-opacity: 0.6; stroke-width: 0.8" id="mb_auto_path_10"/>
     </g>
     <g id="line2d_18">
      <g id="mb_auto_g_17">
       <use xlink:href="#m275f712a15" x="69.514286" y="182.639803" style="stroke: #000000; stroke-width: 0.8" id="mb_auto_use_17"/>
      </g>
     </g>
     <g id="text_10">
      <!-- $\mathdefault{4}$ -->
      <g transform="translate(51.548571 190.942005) scale(0.24 -0.24)" id="mb_auto_g_18">
       <use xlink:href="#CMR17-34" transform="scale(0.996264)" id="mb_auto_use_18"/>
      </g>
     </g>
    </g>
    <g id="ytick_5">
     <g id="line2d_19">
      <path d="M 7.2 159.166628  L 443.4 159.166628  " clip-path="url(#p142a77aede)" style="fill: none; stroke-dasharray: 2.96,1.28; stroke-dashoffset: 0; stroke: #b0b0b0; stroke-opacity: 0.6; stroke-width: 0.8" id="mb_auto_path_11"/>
     </g>
     <g id="line2d_20">
      <g id="mb_auto_g_19">
       <use xlink:href="#m275f712a15" x="69.514286" y="159.166628" style="stroke: #000000; stroke-width: 0.8" id="mb_auto_use_19"/>
      </g>
     </g>
     <g id="text_11">
      <!-- $\mathdefault{5}$ -->
      <g transform="translate(51.548571 167.468831) scale(0.24 -0.24)" id="mb_auto_g_20">
       <use xlink:href="#CMR17-35" transform="scale(0.996264)" id="mb_auto_use_20"/>
      </g>
     </g>
    </g>
    <g id="ytick_6">
     <g id="line2d_21">
      <path d="M 7.2 135.693454  L 443.4 135.693454  " clip-path="url(#p142a77aede)" style="fill: none; stroke-dasharray: 2.96,1.28; stroke-dashoffset: 0; stroke: #b0b0b0; stroke-opacity: 0.6; stroke-width: 0.8" id="mb_auto_path_12"/>
     </g>
     <g id="line2d_22">
      <g id="mb_auto_g_21">
       <use xlink:href="#m275f712a15" x="69.514286" y="135.693454" style="stroke: #000000; stroke-width: 0.8" id="mb_auto_use_21"/>
      </g>
     </g>
     <g id="text_12">
      <!-- $\mathdefault{6}$ -->
      <g transform="translate(51.548571 143.995656) scale(0.24 -0.24)" id="mb_auto_g_22">
       <defs>
        <path id="CMR17-36" d="M 678 2176  C 678 3690 1395 4032 1811 4032  C 1946 4032 2272 4009 2400 3776  C 2298 3776 2106 3776 2106 3553  C 2106 3381 2246 3323 2336 3323  C 2394 3323 2566 3348 2566 3560  C 2566 3954 2246 4179 1805 4179  C 1043 4179 243 3390 243 1984  C 243 253 966 -128 1478 -128  C 2099 -128 2688 427 2688 1283  C 2688 2081 2170 2662 1517 2662  C 1126 2662 838 2407 678 1960  L 678 2176  z M 1478 25  C 691 25 691 1200 691 1436  C 691 1896 909 2560 1504 2560  C 1613 2560 1926 2560 2138 2120  C 2253 1870 2253 1609 2253 1289  C 2253 944 2253 690 2118 434  C 1978 171 1773 25 1478 25  z " transform="scale(0.015625)"/>
       </defs>
       <use xlink:href="#CMR17-36" transform="scale(0.996264)" id="mb_auto_use_22"/>
      </g>
     </g>
    </g>
    <g id="ytick_7">
     <g id="line2d_23">
      <path d="M 7.2 112.220279  L 443.4 112.220279  " clip-path="url(#p142a77aede)" style="fill: none; stroke-dasharray: 2.96,1.28; stroke-dashoffset: 0; stroke: #b0b0b0; stroke-opacity: 0.6; stroke-width: 0.8" id="mb_auto_path_13"/>
     </g>
     <g id="line2d_24">
      <g id="mb_auto_g_23">
       <use xlink:href="#m275f712a15" x="69.514286" y="112.220279" style="stroke: #000000; stroke-width: 0.8" id="mb_auto_use_23"/>
      </g>
     </g>
     <g id="text_13">
      <!-- $\mathdefault{7}$ -->
      <g transform="translate(51.548571 120.522482) scale(0.24 -0.24)" id="mb_auto_g_24">
       <defs>
        <path id="CMR17-37" d="M 2886 3941  L 2886 4081  L 1382 4081  C 634 4081 621 4165 595 4288  L 480 4288  L 294 3094  L 410 3094  C 429 3215 474 3540 550 3661  C 589 3712 1062 3712 1171 3712  L 2579 3712  L 1869 2661  C 1395 1954 1069 999 1069 165  C 1069 89 1069 -128 1299 -128  C 1530 -128 1530 89 1530 171  L 1530 465  C 1530 1508 1709 2196 2003 2636  L 2886 3941  z " transform="scale(0.015625)"/>
       </defs>
       <use xlink:href="#CMR17-37" transform="scale(0.996264)" id="mb_auto_use_24"/>
      </g>
     </g>
    </g>
    <g id="ytick_8">
     <g id="line2d_25">
      <path d="M 7.2 88.747105  L 443.4 88.747105  " clip-path="url(#p142a77aede)" style="fill: none; stroke-dasharray: 2.96,1.28; stroke-dashoffset: 0; stroke: #b0b0b0; stroke-opacity: 0.6; stroke-width: 0.8" id="mb_auto_path_14"/>
     </g>
     <g id="line2d_26">
      <g id="mb_auto_g_25">
       <use xlink:href="#m275f712a15" x="69.514286" y="88.747105" style="stroke: #000000; stroke-width: 0.8" id="mb_auto_use_25"/>
      </g>
     </g>
     <g id="text_14">
      <!-- $\mathdefault{8}$ -->
      <g transform="translate(51.548571 97.049307) scale(0.24 -0.24)" id="mb_auto_g_26">
       <defs>
        <path id="CMR17-38" d="M 1741 2264  C 2144 2467 2554 2773 2554 3263  C 2554 3841 1990 4179 1472 4179  C 890 4179 378 3759 378 3180  C 378 3021 416 2747 666 2505  C 730 2442 998 2251 1171 2130  C 883 1983 211 1634 211 934  C 211 279 838 -128 1459 -128  C 2144 -128 2720 362 2720 1010  C 2720 1590 2330 1857 2074 2029  L 1741 2264  z M 902 2822  C 851 2854 595 3051 595 3351  C 595 3739 998 4032 1459 4032  C 1965 4032 2336 3676 2336 3262  C 2336 2669 1670 2331 1638 2331  C 1632 2331 1626 2331 1574 2370  L 902 2822  z M 2080 1519  C 2176 1449 2483 1240 2483 851  C 2483 381 2010 25 1472 25  C 890 25 448 438 448 940  C 448 1443 838 1862 1280 2060  L 2080 1519  z " transform="scale(0.015625)"/>
       </defs>
       <use xlink:href="#CMR17-38" transform="scale(0.996264)" id="mb_auto_use_26"/>
      </g>
     </g>
    </g>
    <g id="ytick_9">
     <g id="line2d_27">
      <path d="M 7.2 65.27393  L 443.4 65.27393  " clip-path="url(#p142a77aede)" style="fill: none; stroke-dasharray: 2.96,1.28; stroke-dashoffset: 0; stroke: #b0b0b0; stroke-opacity: 0.6; stroke-width: 0.8" id="mb_auto_path_15"/>
     </g>
     <g id="line2d_28">
      <g id="mb_auto_g_27">
       <use xlink:href="#m275f712a15" x="69.514286" y="65.27393" style="stroke: #000000; stroke-width: 0.8" id="mb_auto_use_27"/>
      </g>
     </g>
     <g id="text_15">
      <!-- $\mathdefault{9}$ -->
      <g transform="translate(51.548571 73.576133) scale(0.24 -0.24)" id="mb_auto_g_28">
       <defs>
        <path id="CMR17-39" d="M 2253 1864  C 2253 464 1670 31 1190 31  C 1043 31 685 31 538 294  C 704 268 826 357 826 518  C 826 692 685 749 595 749  C 538 749 365 723 365 506  C 365 71 742 -128 1203 -128  C 1939 -128 2688 674 2688 2073  C 2688 3817 1971 4179 1485 4179  C 851 4179 243 3628 243 2778  C 243 1991 762 1408 1414 1408  C 1952 1408 2189 1903 2253 2112  L 2253 1864  z M 1427 1510  C 1254 1510 1011 1542 813 1922  C 678 2169 678 2461 678 2771  C 678 3146 678 3405 858 3684  C 947 3817 1114 4032 1485 4032  C 2240 4032 2240 2885 2240 2632  C 2240 2182 2035 1510 1427 1510  z " transform="scale(0.015625)"/>
       </defs>
       <use xlink:href="#CMR17-39" transform="scale(0.996264)" id="mb_auto_use_28"/>
      </g>
     </g>
    </g>
    <g id="ytick_10">
     <g id="line2d_29">
      <path d="M 7.2 41.800756  L 443.4 41.800756  " clip-path="url(#p142a77aede)" style="fill: none; stroke-dasharray: 2.96,1.28; stroke-dashoffset: 0; stroke: #b0b0b0; stroke-opacity: 0.6; stroke-width: 0.8" id="mb_auto_path_16"/>
     </g>
     <g id="line2d_30">
      <g id="mb_auto_g_29">
       <use xlink:href="#m275f712a15" x="69.514286" y="41.800756" style="stroke: #000000; stroke-width: 0.8" id="mb_auto_use_29"/>
      </g>
     </g>
     <g id="text_16">
      <!-- $\mathdefault{10}$ -->
      <g transform="translate(40.582857 50.102958) scale(0.24 -0.24)" id="mb_auto_g_30">
       <defs>
        <path id="CMR17-30" d="M 2688 2025  C 2688 2416 2682 3080 2413 3591  C 2176 4039 1798 4198 1466 4198  C 1158 4198 768 4058 525 3597  C 269 3118 243 2524 243 2025  C 243 1661 250 1106 448 619  C 723 -39 1216 -128 1466 -128  C 1760 -128 2208 -7 2470 600  C 2662 1042 2688 1559 2688 2025  z M 1466 -26  C 1056 -26 813 325 723 812  C 653 1188 653 1738 653 2096  C 653 2588 653 2997 736 3387  C 858 3929 1216 4096 1466 4096  C 1728 4096 2067 3923 2189 3400  C 2272 3036 2278 2607 2278 2096  C 2278 1680 2278 1169 2202 792  C 2067 95 1690 -26 1466 -26  z " transform="scale(0.015625)"/>
       </defs>
       <use xlink:href="#CMR17-31" transform="scale(0.996264)" id="mb_auto_use_30"/>
       <use xlink:href="#CMR17-30" transform="translate(45.690477 0) scale(0.996264)" id="mb_auto_use_31"/>
      </g>
     </g>
    </g>
    <g id="text_17">
     <!-- $y$ -->
     <g transform="translate(25.167458 13.676824) scale(0.24 -0.24)" id="mb_auto_g_31">
      <defs>
       <path id="CMMI12-79" d="M 1683 -700  C 1510 -939 1261 -1152 947 -1152  C 870 -1152 563 -1152 467 -889  C 486 -895 518 -895 531 -895  C 723 -895 851 -729 851 -582  C 851 -435 730 -384 634 -384  C 531 -384 307 -458 307 -759  C 307 -1071 582 -1286 947 -1286  C 1587 -1286 2234 -700 2413 6  L 3040 2485  C 3046 2517 3059 2556 3059 2594  C 3059 2689 2982 2753 2886 2753  C 2829 2753 2694 2727 2643 2535  L 2170 658  C 2138 543 2138 530 2086 460  C 1958 281 1747 64 1440 64  C 1082 64 1050 415 1050 588  C 1050 952 1222 1443 1395 1903  C 1466 2088 1504 2178 1504 2305  C 1504 2574 1312 2816 998 2816  C 410 2816 173 1890 173 1839  C 173 1814 198 1782 243 1782  C 301 1782 307 1807 333 1897  C 486 2433 730 2689 979 2689  C 1037 2689 1146 2689 1146 2478  C 1146 2312 1075 2127 979 1884  C 666 1047 666 837 666 683  C 666 77 1101 -64 1421 -64  C 1606 -64 1837 -6 2061 230  L 2067 224  C 1971 -147 1907 -392 1683 -700  z " transform="scale(0.015625)"/>
      </defs>
      <use xlink:href="#CMMI12-79" transform="scale(0.996264)" id="mb_auto_use_32"/>
     </g>
    </g>
   </g>
   <g id="line2d_31">
    <defs>
     <path id="mee91190540" d="M 3 0  L -3 -3  L -3 3  z " style="stroke: #000000; stroke-linejoin: miter"/>
    </defs>
    <g id="mb_auto_g_32">
     <use xlink:href="#mee91190540" x="443.4" y="276.5325" style="stroke: #000000; stroke-linejoin: miter" id="mb_auto_use_33"/>
    </g>
   </g>
   <g id="line2d_32">
    <defs>
     <path id="m6445be79e4" d="M 0 -3  L -3 3  L 3 3  z " style="stroke: #000000; stroke-linejoin: miter"/>
    </defs>
    <g id="mb_auto_g_33">
     <use xlink:href="#m6445be79e4" x="69.514286" y="18.327581" style="stroke: #000000; stroke-linejoin: miter" id="mb_auto_use_34"/>
    </g>
   </g>
   <g id="line2d_33">
    <path d="M 69.514286 41.800756  L 73.169083 56.44865  L 76.823879 70.182476  L 80.478676 83.059275  L 84.133473 95.132526  L 87.78827 106.452374  L 91.443067 117.065833  L 95.097863 127.016983  L 98.75266 136.347155  L 102.407457 145.095099  L 106.062254 153.297147  L 109.717051 160.987366  L 113.371848 168.197694  L 117.331211 175.502027  L 121.290574 182.313874  L 125.249937 188.666442  L 129.2093 194.590696  L 133.168664 200.115515  L 137.128027 205.267831  L 141.08739 210.072758  L 145.35132 214.885626  L 149.615249 219.349957  L 153.879179 223.490991  L 158.143109 227.33214  L 162.711605 231.139518  L 167.280101 234.652261  L 171.848597 237.89317  L 176.721659 241.074189  L 181.594721 243.993327  L 186.77235 246.832052  L 191.949979 249.423125  L 197.432174 251.920663  L 203.218936 254.307766  L 209.310264 256.570817  L 215.706158 258.699444  L 222.406619 260.6864  L 229.411646 262.527372  L 236.72124 264.220751  L 244.639966 265.824989  L 253.167826 267.319664  L 262.304818 268.690367  L 272.050943 269.928438  L 282.710767 271.05992  L 294.588856 272.093908  L 307.685212 273.009031  L 322.608965 273.824156  L 339.664684 274.527504  L 359.766066 275.125794  L 381.085714 275.566526  L 381.085714 275.566526  " clip-path="url(#p142a77aede)" style="fill: none; stroke: #0072b2; stroke-width: 2.5; stroke-linecap: square" id="mb_auto_path_17"/>
   </g>
   <g id="patch_3">
    <path d="M 69.514286 300.005675  L 69.514286 18.327581  " style="fill: none; stroke: #000000; stroke-width: 0.8; stroke-linejoin: miter; stroke-linecap: square" id="mb_auto_path_18"/>
   </g>
   <g id="patch_4">
    <path d="M 443.4 300.005675  L 443.4 18.327581  " style="fill: none" id="mb_auto_path_19"/>
   </g>
   <g id="patch_5">
    <path d="M 7.2 276.5325  L 443.4 276.5325  " style="fill: none; stroke: #000000; stroke-width: 0.8; stroke-linejoin: miter; stroke-linecap: square" id="mb_auto_path_20"/>
   </g>
   <g id="patch_6">
    <path d="M 7.2 18.327581  L 443.4 18.327581  " style="fill: none" id="mb_auto_path_21"/>
   </g>
   <g id="text_18">
    <g id="patch_7">
     <path d="M 387.389398 176.994209  L 499.410602 176.994209  Q 506.610602 176.994209 506.610602 169.794209  L 506.610602 148.539047  Q 506.610602 141.339047 499.410602 141.339047  L 387.389398 141.339047  Q 380.189398 141.339047 380.189398 148.539047  L 380.189398 169.794209  Q 380.189398 176.994209 387.389398 176.994209  z " style="fill: #ffffff; opacity: 0.8" id="mb_auto_path_22"/>
    </g>
    <!-- 1 rektangler -->
    <g transform="translate(387.389398 165.143452) scale(0.24 -0.24)" id="mb_auto_g_34">
     <defs>
      <path id="CMSS17-31" d="M 1818 4288  L 1696 4288  C 1350 3940 947 3890 538 3890  L 538 3520  C 723 3520 1024 3520 1325 3667  L 1325 369  L 570 369  L 570 0  L 2573 0  L 2573 369  L 1818 369  L 1818 4288  z " transform="scale(0.015625)"/>
      <path id="CMSS17-72" d="M 954 1363  C 954 1965 1395 2368 1958 2368  L 1958 2789  C 1549 2789 1165 2585 934 2253  L 934 2758  L 480 2758  L 480 0  L 954 0  L 954 1363  z " transform="scale(0.015625)"/>
      <path id="CMSS17-65" d="M 2502 1377  C 2502 1590 2490 2003 2285 2345  C 2061 2713 1696 2816 1421 2816  C 755 2816 192 2188 192 1375  C 192 582 774 -64 1510 -64  C 1798 -64 2150 19 2470 248  C 2470 274 2458 414 2451 420  C 2451 433 2432 630 2432 656  C 2125 407 1773 325 1517 325  C 1107 325 666 667 646 1377  L 2502 1377  z M 698 1728  C 781 2084 1062 2421 1421 2421  C 1517 2421 1965 2421 2080 1728  L 698 1728  z " transform="scale(0.015625)"/>
      <path id="CMSS17-6b" d="M 1696 1688  L 2688 2739  L 2074 2739  L 954 1554  L 954 4416  L 480 4416  L 480 0  L 947 0  L 947 892  L 1376 1344  L 2278 0  L 2822 0  L 1696 1688  z " transform="scale(0.015625)"/>
      <path id="CMSS17-74" d="M 1069 2368  L 1901 2368  L 1901 2737  L 1069 2737  L 1069 3520  L 614 3520  L 614 2737  L 109 2737  L 109 2368  L 602 2368  L 602 749  C 602 384 685 -64 1107 -64  C 1427 -64 1722 25 2003 172  L 1901 548  C 1747 414 1562 337 1363 337  C 1082 337 1069 696 1069 856  L 1069 2368  z " transform="scale(0.015625)"/>
      <path id="CMSS17-61" d="M 2406 1791  C 2406 2392 1978 2808 1402 2808  C 1120 2808 813 2757 461 2553  L 499 2135  C 659 2248 934 2432 1395 2432  C 1722 2432 1920 2180 1920 1782  L 1920 1536  C 896 1536 256 1238 256 726  C 256 461 416 -64 947 -64  C 1043 -64 1562 -64 1933 217  L 1933 -19  L 2406 -19  L 2406 1791  z M 1920 816  C 1920 701 1920 548 1728 434  C 1562 325 1350 325 1261 325  C 941 325 723 511 723 744  C 723 1211 1722 1211 1920 1211  L 1920 816  z " transform="scale(0.015625)"/>
      <path id="CMSS17-6e" d="M 2618 1877  C 2618 2283 2522 2816 1798 2816  C 1389 2816 1120 2606 941 2389  L 941 2758  L 474 2758  L 474 0  L 960 0  L 960 1559  C 960 1964 1114 2428 1549 2428  C 2112 2428 2131 2048 2131 1829  L 2131 0  L 2618 0  L 2618 1877  z " transform="scale(0.015625)"/>
      <path id="CMSS17-67" d="M 2848 2808  C 2483 2808 2170 2738 1914 2617  C 1702 2777 1485 2808 1338 2808  C 781 2808 358 2349 358 1814  C 358 1468 550 1207 563 1195  C 448 1035 384 863 384 672  C 384 448 474 289 544 200  C 211 -3 166 -314 166 -435  C 166 -898 749 -1280 1498 -1280  C 2253 -1280 2835 -898 2835 -428  C 2835 448 1856 448 1587 448  L 1069 448  C 973 448 717 448 717 791  C 717 921 774 1004 781 1010  C 877 940 1075 832 1338 832  C 1869 832 2310 1278 2310 1827  C 2310 2132 2170 2355 2112 2432  L 2131 2432  C 2150 2432 2419 2432 2515 2432  C 2720 2432 2739 2429 2918 2419  L 2848 2808  z M 1338 1182  C 1120 1182 813 1315 813 1823  C 813 2375 1165 2464 1331 2464  C 1549 2464 1856 2331 1856 1823  C 1856 1271 1504 1182 1338 1182  z M 1581 -10  C 1734 -10 2381 -10 2381 -442  C 2381 -714 1984 -929 1504 -929  C 1018 -929 621 -720 621 -435  C 621 -403 621 -10 1062 -10  L 1581 -10  z " transform="scale(0.015625)"/>
      <path id="CMSS17-6c" d="M 947 4416  L 474 4416  L 474 0  L 947 0  L 947 4416  z " transform="scale(0.015625)"/>
     </defs>
     <use xlink:href="#CMSS17-31" transform="scale(0.996264)" id="mb_auto_use_35"/>
     <use xlink:href="#CMSS17-72" transform="translate(78.072736 0) scale(0.996264)" id="mb_auto_use_36"/>
     <use xlink:href="#CMSS17-65" transform="translate(109.982509 0) scale(0.996264)" id="mb_auto_use_37"/>
     <use xlink:href="#CMSS17-6b" transform="translate(151.621331 0) scale(0.996264)" id="mb_auto_use_38"/>
     <use xlink:href="#CMSS17-74" transform="translate(197.22382 0) scale(0.996264)" id="mb_auto_use_39"/>
     <use xlink:href="#CMSS17-61" transform="translate(231.055387 0) scale(0.996264)" id="mb_auto_use_40"/>
     <use xlink:href="#CMSS17-6e" transform="translate(275.977307 0) scale(0.996264)" id="mb_auto_use_41"/>
     <use xlink:href="#CMSS17-67" transform="translate(324.182251 0) scale(0.996264)" id="mb_auto_use_42"/>
     <use xlink:href="#CMSS17-6c" transform="translate(371.025874 0) scale(0.996264)" id="mb_auto_use_43"/>
     <use xlink:href="#CMSS17-65" transform="translate(393.206597 0) scale(0.996264)" id="mb_auto_use_44"/>
     <use xlink:href="#CMSS17-72" transform="translate(434.845419 0) scale(0.996264)" id="mb_auto_use_45"/>
    </g>
   </g>
  </g>
 </g>
 <defs>
  <clipPath id="p142a77aede">
   <rect x="7.2" y="18.327581" width="436.2" height="281.678094" id="mb_auto_rect_0"/>
  </clipPath>
 </defs>
</svg>