<svg xmlns:xlink="http://www.w3.org/1999/xlink" xmlns="http://www.w3.org/2000/svg" width="453.6pt" height="338.54pt" viewBox="0 0 453.6 338.54" version="1.1">
 
 <defs>
  <style type="text/css">*{stroke-linejoin: round; stroke-linecap: butt}</style>
 </defs>
 <g id="figure_1">
  <g id="patch_1">
   <path d="M 0 338.54  L 453.6 338.54  L 453.6 0  L 0 0  L 0 338.54  z " style="fill: none; opacity: 0" id="mb_auto_path_0"/>
  </g>
  <g id="axes_1">
   <g id="patch_2">
    <path d="M 7.2 331.34  L 443.4 331.34  L 443.4 16.556315  L 7.2 16.556315  L 7.2 331.34  z " style="fill: none; opacity: 0" id="mb_auto_path_1"/>
   </g>
   <g id="matplotlib.axis_1">
    <g id="xtick_1">
     <g id="line2d_1">
      <path d="M 46.854545 331.34  L 46.854545 16.556315  " clip-path="url(#pd9b855baba)" style="fill: none; stroke-dasharray: 2.96,1.28; stroke-dashoffset: 0; stroke: #b0b0b0; stroke-opacity: 0.6; stroke-width: 0.8" id="mb_auto_path_2"/>
     </g>
     <g id="line2d_2">
      <defs>
       <path id="m0230ec9033" d="M 0 0  L 0 3.5  " style="stroke: #000000; stroke-width: 0.8"/>
      </defs>
      <g id="mb_auto_g_0">
       <use xlink:href="#m0230ec9033" x="46.854545" y="261.38807" style="stroke: #000000; stroke-width: 0.8" id="mb_auto_use_0"/>
      </g>
     </g>
     <g id="text_1">
      <!-- $\mathdefault{−1}$ -->
      <g transform="translate(34.536754 282.225067) scale(0.2 -0.2)" id="mb_auto_g_1">
       <defs>
        <path id="CMSY10-0" d="M 4218 1472  C 4326 1472 4442 1472 4442 1600  C 4442 1728 4326 1728 4218 1728  L 755 1728  C 646 1728 531 1728 531 1600  C 531 1472 646 1472 755 1472  L 4218 1472  z " transform="scale(0.015625)"/>
        <path id="CMR17-31" d="M 1702 4058  C 1702 4192 1696 4192 1606 4192  C 1357 3916 979 3827 621 3827  C 602 3827 570 3827 563 3808  C 557 3795 557 3782 557 3648  C 755 3648 1088 3686 1344 3839  L 1344 461  C 1344 236 1331 160 781 160  L 589 160  L 589 0  C 896 0 1216 0 1523 0  C 1830 0 2150 0 2458 0  L 2458 160  L 2266 160  C 1715 160 1702 230 1702 458  L 1702 4058  z " transform="scale(0.015625)"/>
       </defs>
       <use xlink:href="#CMSY10-0" transform="scale(0.996264)" id="mb_auto_use_1"/>
       <use xlink:href="#CMR17-31" transform="translate(77.487468 0) scale(0.996264)" id="mb_auto_use_2"/>
      </g>
     </g>
    </g>
    <g id="xtick_2">
     <g id="line2d_3">
      <path d="M 126.163636 331.34  L 126.163636 16.556315  " clip-path="url(#pd9b855baba)" style="fill: none; stroke-dasharray: 2.96,1.28; stroke-dashoffset: 0; stroke: #b0b0b0; stroke-opacity: 0.6; stroke-width: 0.8" id="mb_auto_path_3"/>
     </g>
     <g id="line2d_4">
      <g id="mb_auto_g_2">
       <use xlink:href="#m0230ec9033" x="126.163636" y="261.38807" style="stroke: #000000; stroke-width: 0.8" id="mb_auto_use_3"/>
      </g>
     </g>
     <g id="text_2">
      <!-- $\mathdefault{1}$ -->
      <g transform="translate(121.594589 282.225067) scale(0.2 -0.2)" id="mb_auto_g_3">
       <use xlink:href="#CMR17-31" transform="scale(0.996264)" id="mb_auto_use_4"/>
      </g>
     </g>
    </g>
    <g id="xtick_3">
     <g id="line2d_5">
      <path d="M 165.818182 331.34  L 165.818182 16.556315  " clip-path="url(#pd9b855baba)" style="fill: none; stroke-dasharray: 2.96,1.28; stroke-dashoffset: 0; stroke: #b0b0b0; stroke-opacity: 0.6; stroke-width: 0.8" id="mb_auto_path_4"/>
     </g>
     <g id="line2d_6">
      <g id="mb_auto_g_4">
       <use xlink:href="#m0230ec9033" x="165.818182" y="261.38807" style="stroke: #000000; stroke-width: 0.8" id="mb_auto_use_5"/>
      </g>
     </g>
     <g id="text_3">
      <!-- $\mathdefault{2}$ -->
      <g transform="translate(161.249134 282.225067) scale(0.2 -0.2)" id="mb_auto_g_5">
       <defs>
        <path id="CMR17-32" d="M 2669 989  L 2554 989  C 2490 536 2438 459 2413 420  C 2381 369 1920 369 1830 369  L 602 369  C 832 619 1280 1072 1824 1597  C 2214 1967 2669 2402 2669 3035  C 2669 3790 2067 4224 1395 4224  C 691 4224 262 3604 262 3030  C 262 2780 448 2748 525 2748  C 589 2748 781 2787 781 3010  C 781 3207 614 3264 525 3264  C 486 3264 448 3258 422 3245  C 544 3790 915 4058 1306 4058  C 1862 4058 2227 3617 2227 3035  C 2227 2479 1901 2000 1536 1584  L 262 146  L 262 0  L 2515 0  L 2669 989  z " transform="scale(0.015625)"/>
       </defs>
       <use xlink:href="#CMR17-32" transform="scale(0.996264)" id="mb_auto_use_6"/>
      </g>
     </g>
    </g>
    <g id="xtick_4">
     <g id="line2d_7">
      <path d="M 205.472727 331.34  L 205.472727 16.556315  " clip-path="url(#pd9b855baba)" style="fill: none; stroke-dasharray: 2.96,1.28; stroke-dashoffset: 0; stroke: #b0b0b0; stroke-opacity: 0.6; stroke-width: 0.8" id="mb_auto_path_5"/>
     </g>
     <g id="line2d_8">
      <g id="mb_auto_g_6">
       <use xlink:href="#m0230ec9033" x="205.472727" y="261.38807" style="stroke: #000000; stroke-width: 0.8" id="mb_auto_use_7"/>
      </g>
     </g>
     <g id="text_4">
      <!-- $\mathdefault{3}$ -->
      <g transform="translate(200.90368 282.225067) scale(0.2 -0.2)" id="mb_auto_g_7">
       <defs>
        <path id="CMR17-33" d="M 1414 2157  C 1984 2157 2234 1662 2234 1090  C 2234 320 1824 25 1453 25  C 1114 25 563 194 390 693  C 422 680 454 680 486 680  C 640 680 755 782 755 948  C 755 1133 614 1216 486 1216  C 378 1216 211 1165 211 926  C 211 335 787 -128 1466 -128  C 2176 -128 2720 430 2720 1085  C 2720 1707 2208 2157 1600 2227  C 2086 2328 2554 2756 2554 3329  C 2554 3820 2048 4179 1472 4179  C 890 4179 378 3829 378 3329  C 378 3110 544 3072 627 3072  C 762 3072 877 3155 877 3321  C 877 3486 762 3569 627 3569  C 602 3569 570 3569 544 3557  C 730 3959 1235 4032 1459 4032  C 1683 4032 2106 3925 2106 3320  C 2106 3143 2080 2828 1862 2550  C 1670 2304 1453 2304 1242 2284  C 1210 2284 1062 2269 1037 2269  C 992 2263 966 2257 966 2208  C 966 2163 973 2157 1101 2157  L 1414 2157  z " transform="scale(0.015625)"/>
       </defs>
       <use xlink:href="#CMR17-33" transform="scale(0.996264)" id="mb_auto_use_8"/>
      </g>
     </g>
    </g>
    <g id="xtick_5">
     <g id="line2d_9">
      <path d="M 245.127273 331.34  L 245.127273 16.556315  " clip-path="url(#pd9b855baba)" style="fill: none; stroke-dasharray: 2.96,1.28; stroke-dashoffset: 0; stroke: #b0b0b0; stroke-opacity: 0.6; stroke-width: 0.8" id="mb_auto_path_6"/>
     </g>
     <g id="line2d_10">
      <g id="mb_auto_g_8">
       <use xlink:href="#m0230ec9033" x="245.127273" y="261.38807" style="stroke: #000000; stroke-width: 0.8" id="mb_auto_use_9"/>
      </g>
     </g>
     <g id="text_5">
      <!-- $\mathdefault{4}$ -->
      <g transform="translate(240.558225 282.225067) scale(0.2 -0.2)" id="mb_auto_g_9">
       <defs>
        <path id="CMR17-34" d="M 2150 4122  C 2150 4256 2144 4256 2029 4256  L 128 1254  L 128 1088  L 1779 1088  L 1779 457  C 1779 224 1766 160 1318 160  L 1197 160  L 1197 0  C 1402 0 1747 0 1965 0  C 2182 0 2528 0 2733 0  L 2733 160  L 2611 160  C 2163 160 2150 224 2150 457  L 2150 1088  L 2803 1088  L 2803 1254  L 2150 1254  L 2150 4122  z M 1798 3703  L 1798 1254  L 256 1254  L 1798 3703  z " transform="scale(0.015625)"/>
       </defs>
       <use xlink:href="#CMR17-34" transform="scale(0.996264)" id="mb_auto_use_10"/>
      </g>
     </g>
    </g>
    <g id="xtick_6">
     <g id="line2d_11">
      <path d="M 284.781818 331.34  L 284.781818 16.556315  " clip-path="url(#pd9b855baba)" style="fill: none; stroke-dasharray: 2.96,1.28; stroke-dashoffset: 0; stroke: #b0b0b0; stroke-opacity: 0.6; stroke-width: 0.8" id="mb_auto_path_7"/>
     </g>
     <g id="line2d_12">
      <g id="mb_auto_g_10">
       <use xlink:href="#m0230ec9033" x="284.781818" y="261.38807" style="stroke: #000000; stroke-width: 0.8" id="mb_auto_use_11"/>
      </g>
     </g>
     <g id="text_6">
      <!-- $\mathdefault{5}$ -->
      <g transform="translate(280.21277 282.225067) scale(0.2 -0.2)" id="mb_auto_g_11">
       <defs>
        <path id="CMR17-35" d="M 730 3692  C 794 3666 1056 3584 1325 3584  C 1920 3584 2246 3911 2432 4100  C 2432 4157 2432 4192 2394 4192  C 2387 4192 2374 4192 2323 4163  C 2099 4058 1837 3973 1517 3973  C 1325 3973 1037 3999 723 4139  C 653 4171 640 4171 634 4171  C 602 4171 595 4164 595 4037  L 595 2203  C 595 2089 595 2057 659 2057  C 691 2057 704 2070 736 2114  C 941 2401 1222 2522 1542 2522  C 1766 2522 2246 2382 2246 1289  C 2246 1085 2246 715 2054 421  C 1894 159 1645 25 1370 25  C 947 25 518 320 403 814  C 429 807 480 795 506 795  C 589 795 749 840 749 1038  C 749 1210 627 1280 506 1280  C 358 1280 262 1190 262 1011  C 262 454 704 -128 1382 -128  C 2042 -128 2669 440 2669 1264  C 2669 2030 2170 2624 1549 2624  C 1222 2624 947 2503 730 2274  L 730 3692  z " transform="scale(0.015625)"/>
       </defs>
       <use xlink:href="#CMR17-35" transform="scale(0.996264)" id="mb_auto_use_12"/>
      </g>
     </g>
    </g>
    <g id="xtick_7">
     <g id="line2d_13">
      <path d="M 324.436364 331.34  L 324.436364 16.556315  " clip-path="url(#pd9b855baba)" style="fill: none; stroke-dasharray: 2.96,1.28; stroke-dashoffset: 0; stroke: #b0b0b0; stroke-opacity: 0.6; stroke-width: 0.8" id="mb_auto_path_8"/>
     </g>
     <g id="line2d_14">
      <g id="mb_auto_g_12">
       <use xlink:href="#m0230ec9033" x="324.436364" y="261.38807" style="stroke: #000000; stroke-width: 0.8" id="mb_auto_use_13"/>
      </g>
     </g>
     <g id="text_7">
      <!-- $\mathdefault{6}$ -->
      <g transform="translate(319.867316 282.225067) scale(0.2 -0.2)" id="mb_auto_g_13">
       <defs>
        <path id="CMR17-36" d="M 678 2176  C 678 3690 1395 4032 1811 4032  C 1946 4032 2272 4009 2400 3776  C 2298 3776 2106 3776 2106 3553  C 2106 3381 2246 3323 2336 3323  C 2394 3323 2566 3348 2566 3560  C 2566 3954 2246 4179 1805 4179  C 1043 4179 243 3390 243 1984  C 243 253 966 -128 1478 -128  C 2099 -128 2688 427 2688 1283  C 2688 2081 2170 2662 1517 2662  C 1126 2662 838 2407 678 1960  L 678 2176  z M 1478 25  C 691 25 691 1200 691 1436  C 691 1896 909 2560 1504 2560  C 1613 2560 1926 2560 2138 2120  C 2253 1870 2253 1609 2253 1289  C 2253 944 2253 690 2118 434  C 1978 171 1773 25 1478 25  z " transform="scale(0.015625)"/>
       </defs>
       <use xlink:href="#CMR17-36" transform="scale(0.996264)" id="mb_auto_use_14"/>
      </g>
     </g>
    </g>
    <g id="xtick_8">
     <g id="line2d_15">
      <path d="M 364.090909 331.34  L 364.090909 16.556315  " clip-path="url(#pd9b855baba)" style="fill: none; stroke-dasharray: 2.96,1.28; stroke-dashoffset: 0; stroke: #b0b0b0; stroke-opacity: 0.6; stroke-width: 0.8" id="mb_auto_path_9"/>
     </g>
     <g id="line2d_16">
      <g id="mb_auto_g_14">
       <use xlink:href="#m0230ec9033" x="364.090909" y="261.38807" style="stroke: #000000; stroke-width: 0.8" id="mb_auto_use_15"/>
      </g>
     </g>
     <g id="text_8">
      <!-- $\mathdefault{7}$ -->
      <g transform="translate(359.521861 282.225067) scale(0.2 -0.2)" id="mb_auto_g_15">
       <defs>
        <path id="CMR17-37" d="M 2886 3941  L 2886 4081  L 1382 4081  C 634 4081 621 4165 595 4288  L 480 4288  L 294 3094  L 410 3094  C 429 3215 474 3540 550 3661  C 589 3712 1062 3712 1171 3712  L 2579 3712  L 1869 2661  C 1395 1954 1069 999 1069 165  C 1069 89 1069 -128 1299 -128  C 1530 -128 1530 89 1530 171  L 1530 465  C 1530 1508 1709 2196 2003 2636  L 2886 3941  z " transform="scale(0.015625)"/>
       </defs>
       <use xlink:href="#CMR17-37" transform="scale(0.996264)" id="mb_auto_use_16"/>
      </g>
     </g>
    </g>
    <g id="xtick_9">
     <g id="line2d_17">
      <path d="M 403.745455 331.34  L 403.745455 16.556315  " clip-path="url(#pd9b855baba)" style="fill: none; stroke-dasharray: 2.96,1.28; stroke-dashoffset: 0; stroke: #b0b0b0; stroke-opacity: 0.6; stroke-width: 0.8" id="mb_auto_path_10"/>
     </g>
     <g id="line2d_18">
      <g id="mb_auto_g_16">
       <use xlink:href="#m0230ec9033" x="403.745455" y="261.38807" style="stroke: #000000; stroke-width: 0.8" id="mb_auto_use_17"/>
      </g>
     </g>
     <g id="text_9">
      <!-- $\mathdefault{8}$ -->
      <g transform="translate(399.176407 282.225067) scale(0.2 -0.2)" id="mb_auto_g_17">
       <defs>
        <path id="CMR17-38" d="M 1741 2264  C 2144 2467 2554 2773 2554 3263  C 2554 3841 1990 4179 1472 4179  C 890 4179 378 3759 378 3180  C 378 3021 416 2747 666 2505  C 730 2442 998 2251 1171 2130  C 883 1983 211 1634 211 934  C 211 279 838 -128 1459 -128  C 2144 -128 2720 362 2720 1010  C 2720 1590 2330 1857 2074 2029  L 1741 2264  z M 902 2822  C 851 2854 595 3051 595 3351  C 595 3739 998 4032 1459 4032  C 1965 4032 2336 3676 2336 3262  C 2336 2669 1670 2331 1638 2331  C 1632 2331 1626 2331 1574 2370  L 902 2822  z M 2080 1519  C 2176 1449 2483 1240 2483 851  C 2483 381 2010 25 1472 25  C 890 25 448 438 448 940  C 448 1443 838 1862 1280 2060  L 2080 1519  z " transform="scale(0.015625)"/>
       </defs>
       <use xlink:href="#CMR17-38" transform="scale(0.996264)" id="mb_auto_use_18"/>
      </g>
     </g>
    </g>
    <g id="text_10">
     <!-- $x$ -->
     <g transform="translate(432.313188 303.937697) scale(0.2 -0.2)" id="mb_auto_g_18">
      <defs>
       <path id="CMMI12-78" d="M 3034 2606  C 2829 2567 2752 2414 2752 2293  C 2752 2139 2874 2088 2963 2088  C 3155 2088 3290 2254 3290 2427  C 3290 2695 2982 2816 2714 2816  C 2323 2816 2106 2433 2048 2312  C 1901 2816 1504 2816 1389 2816  C 736 2816 390 1980 390 1839  C 390 1814 416 1782 461 1782  C 512 1782 525 1820 538 1846  C 755 2555 1184 2689 1370 2689  C 1658 2689 1715 2420 1715 2267  C 1715 2127 1677 1980 1600 1673  L 1382 798  C 1286 415 1101 64 762 64  C 730 64 570 64 435 147  C 666 192 717 383 717 460  C 717 588 621 664 499 664  C 346 664 179 530 179 326  C 179 57 480 -64 755 -64  C 1062 -64 1280 179 1414 441  C 1517 64 1837 -64 2074 -64  C 2726 -64 3072 773 3072 913  C 3072 945 3046 971 3008 971  C 2950 971 2944 939 2925 888  C 2752 326 2381 64 2093 64  C 1869 64 1747 230 1747 492  C 1747 632 1773 734 1875 1156  L 2099 2024  C 2195 2408 2413 2689 2707 2689  C 2720 2689 2899 2689 3034 2606  z " transform="scale(0.015625)"/>
      </defs>
      <use xlink:href="#CMMI12-78" transform="scale(0.996264)" id="mb_auto_use_19"/>
     </g>
    </g>
   </g>
   <g id="matplotlib.axis_2">
    <g id="ytick_1">
     <g id="line2d_19">
      <path d="M 7.2 296.364035  L 443.4 296.364035  " clip-path="url(#pd9b855baba)" style="fill: none; stroke-dasharray: 2.96,1.28; stroke-dashoffset: 0; stroke: #b0b0b0; stroke-opacity: 0.6; stroke-width: 0.8" id="mb_auto_path_11"/>
     </g>
     <g id="line2d_20">
      <defs>
       <path id="m3c9bca7913" d="M 0 0  L -3.5 0  " style="stroke: #000000; stroke-width: 0.8"/>
      </defs>
      <g id="mb_auto_g_19">
       <use xlink:href="#m3c9bca7913" x="86.509091" y="296.364035" style="stroke: #000000; stroke-width: 0.8" id="mb_auto_use_20"/>
      </g>
     </g>
     <g id="text_11">
      <!-- $\mathdefault{−1}$ -->
      <g transform="translate(54.873508 303.282533) scale(0.2 -0.2)" id="mb_auto_g_20">
       <use xlink:href="#CMSY10-0" transform="scale(0.996264)" id="mb_auto_use_21"/>
       <use xlink:href="#CMR17-31" transform="translate(77.487468 0) scale(0.996264)" id="mb_auto_use_22"/>
      </g>
     </g>
    </g>
    <g id="ytick_2">
     <g id="line2d_21">
      <path d="M 7.2 226.412105  L 443.4 226.412105  " clip-path="url(#pd9b855baba)" style="fill: none; stroke-dasharray: 2.96,1.28; stroke-dashoffset: 0; stroke: #b0b0b0; stroke-opacity: 0.6; stroke-width: 0.8" id="mb_auto_path_12"/>
     </g>
     <g id="line2d_22">
      <g id="mb_auto_g_21">
       <use xlink:href="#m3c9bca7913" x="86.509091" y="226.412105" style="stroke: #000000; stroke-width: 0.8" id="mb_auto_use_23"/>
      </g>
     </g>
     <g id="text_12">
      <!-- $\mathdefault{1}$ -->
      <g transform="translate(70.370995 233.330603) scale(0.2 -0.2)" id="mb_auto_g_22">
       <use xlink:href="#CMR17-31" transform="scale(0.996264)" id="mb_auto_use_24"/>
      </g>
     </g>
    </g>
    <g id="ytick_3">
     <g id="line2d_23">
      <path d="M 7.2 191.43614  L 443.4 191.43614  " clip-path="url(#pd9b855baba)" style="fill: none; stroke-dasharray: 2.96,1.28; stroke-dashoffset: 0; stroke: #b0b0b0; stroke-opacity: 0.6; stroke-width: 0.8" id="mb_auto_path_13"/>
     </g>
     <g id="line2d_24">
      <g id="mb_auto_g_23">
       <use xlink:href="#m3c9bca7913" x="86.509091" y="191.43614" style="stroke: #000000; stroke-width: 0.8" id="mb_auto_use_25"/>
      </g>
     </g>
     <g id="text_13">
      <!-- $\mathdefault{2}$ -->
      <g transform="translate(70.370995 198.354638) scale(0.2 -0.2)" id="mb_auto_g_24">
       <use xlink:href="#CMR17-32" transform="scale(0.996264)" id="mb_auto_use_26"/>
      </g>
     </g>
    </g>
    <g id="ytick_4">
     <g id="line2d_25">
      <path d="M 7.2 156.460175  L 443.4 156.460175  " clip-path="url(#pd9b855baba)" style="fill: none; stroke-dasharray: 2.96,1.28; stroke-dashoffset: 0; stroke: #b0b0b0; stroke-opacity: 0.6; stroke-width: 0.8" id="mb_auto_path_14"/>
     </g>
     <g id="line2d_26">
      <g id="mb_auto_g_25">
       <use xlink:href="#m3c9bca7913" x="86.509091" y="156.460175" style="stroke: #000000; stroke-width: 0.8" id="mb_auto_use_27"/>
      </g>
     </g>
     <g id="text_14">
      <!-- $\mathdefault{3}$ -->
      <g transform="translate(70.370995 163.378673) scale(0.2 -0.2)" id="mb_auto_g_26">
       <use xlink:href="#CMR17-33" transform="scale(0.996264)" id="mb_auto_use_28"/>
      </g>
     </g>
    </g>
    <g id="ytick_5">
     <g id="line2d_27">
      <path d="M 7.2 121.48421  L 443.4 121.48421  " clip-path="url(#pd9b855baba)" style="fill: none; stroke-dasharray: 2.96,1.28; stroke-dashoffset: 0; stroke: #b0b0b0; stroke-opacity: 0.6; stroke-width: 0.8" id="mb_auto_path_15"/>
     </g>
     <g id="line2d_28">
      <g id="mb_auto_g_27">
       <use xlink:href="#m3c9bca7913" x="86.509091" y="121.48421" style="stroke: #000000; stroke-width: 0.8" id="mb_auto_use_29"/>
      </g>
     </g>
     <g id="text_15">
      <!-- $\mathdefault{4}$ -->
      <g transform="translate(70.370995 128.402709) scale(0.2 -0.2)" id="mb_auto_g_28">
       <use xlink:href="#CMR17-34" transform="scale(0.996264)" id="mb_auto_use_30"/>
      </g>
     </g>
    </g>
    <g id="ytick_6">
     <g id="line2d_29">
      <path d="M 7.2 86.508245  L 443.4 86.508245  " clip-path="url(#pd9b855baba)" style="fill: none; stroke-dasharray: 2.96,1.28; stroke-dashoffset: 0; stroke: #b0b0b0; stroke-opacity: 0.6; stroke-width: 0.8" id="mb_auto_path_16"/>
     </g>
     <g id="line2d_30">
      <g id="mb_auto_g_29">
       <use xlink:href="#m3c9bca7913" x="86.509091" y="86.508245" style="stroke: #000000; stroke-width: 0.8" id="mb_auto_use_31"/>
      </g>
     </g>
     <g id="text_16">
      <!-- $\mathdefault{5}$ -->
      <g transform="translate(70.370995 93.426744) scale(0.2 -0.2)" id="mb_auto_g_30">
       <use xlink:href="#CMR17-35" transform="scale(0.996264)" id="mb_auto_use_32"/>
      </g>
     </g>
    </g>
    <g id="ytick_7">
     <g id="line2d_31">
      <path d="M 7.2 51.53228  L 443.4 51.53228  " clip-path="url(#pd9b855baba)" style="fill: none; stroke-dasharray: 2.96,1.28; stroke-dashoffset: 0; stroke: #b0b0b0; stroke-opacity: 0.6; stroke-width: 0.8" id="mb_auto_path_17"/>
     </g>
     <g id="line2d_32">
      <g id="mb_auto_g_31">
       <use xlink:href="#m3c9bca7913" x="86.509091" y="51.53228" style="stroke: #000000; stroke-width: 0.8" id="mb_auto_use_33"/>
      </g>
     </g>
     <g id="text_17">
      <!-- $\mathdefault{6}$ -->
      <g transform="translate(70.370995 58.450779) scale(0.2 -0.2)" id="mb_auto_g_32">
       <use xlink:href="#CMR17-36" transform="scale(0.996264)" id="mb_auto_use_34"/>
      </g>
     </g>
    </g>
    <g id="text_18">
     <!-- $y$ -->
     <g transform="translate(41.360673 12.680682) scale(0.2 -0.2)" id="mb_auto_g_33">
      <defs>
       <path id="CMMI12-79" d="M 1683 -700  C 1510 -939 1261 -1152 947 -1152  C 870 -1152 563 -1152 467 -889  C 486 -895 518 -895 531 -895  C 723 -895 851 -729 851 -582  C 851 -435 730 -384 634 -384  C 531 -384 307 -458 307 -759  C 307 -1071 582 -1286 947 -1286  C 1587 -1286 2234 -700 2413 6  L 3040 2485  C 3046 2517 3059 2556 3059 2594  C 3059 2689 2982 2753 2886 2753  C 2829 2753 2694 2727 2643 2535  L 2170 658  C 2138 543 2138 530 2086 460  C 1958 281 1747 64 1440 64  C 1082 64 1050 415 1050 588  C 1050 952 1222 1443 1395 1903  C 1466 2088 1504 2178 1504 2305  C 1504 2574 1312 2816 998 2816  C 410 2816 173 1890 173 1839  C 173 1814 198 1782 243 1782  C 301 1782 307 1807 333 1897  C 486 2433 730 2689 979 2689  C 1037 2689 1146 2689 1146 2478  C 1146 2312 1075 2127 979 1884  C 666 1047 666 837 666 683  C 666 77 1101 -64 1421 -64  C 1606 -64 1837 -6 2061 230  L 2067 224  C 1971 -147 1907 -392 1683 -700  z " transform="scale(0.015625)"/>
      </defs>
      <use xlink:href="#CMMI12-79" transform="scale(0.996264)" id="mb_auto_use_35"/>
     </g>
    </g>
   </g>
   <g id="line2d_33">
    <defs>
     <path id="ma5c4fe55a1" d="M 3 0  L -3 -3  L -3 3  z " style="stroke: #000000; stroke-linejoin: miter"/>
    </defs>
    <g id="mb_auto_g_34">
     <use xlink:href="#ma5c4fe55a1" x="443.4" y="261.38807" style="stroke: #000000; stroke-linejoin: miter" id="mb_auto_use_36"/>
    </g>
   </g>
   <g id="line2d_34">
    <defs>
     <path id="m10fe69a143" d="M 0 -3  L -3 3  L 3 3  z " style="stroke: #000000; stroke-linejoin: miter"/>
    </defs>
    <g id="mb_auto_g_35">
     <use xlink:href="#m10fe69a143" x="86.509091" y="16.556315" style="stroke: #000000; stroke-linejoin: miter" id="mb_auto_use_37"/>
    </g>
   </g>
   <g id="line2d_35">
    <path d="M 32.174178 339.54  L 36.194721 316.584597  L 40.458651 293.533413  L 44.722581 271.783825  L 48.560117 253.2981  L 52.397654 235.822054  L 56.235191 219.334553  L 60.072727 203.814465  L 63.910264 189.240657  L 67.747801 175.591996  L 71.158944 164.219436  L 74.570088 153.546317  L 77.981232 143.557796  L 81.392375 134.239031  L 84.803519 125.575181  L 88.214663 117.551402  L 91.625806 110.152853  L 94.610557 104.180338  L 97.595308 98.665207  L 100.580059 93.597518  L 103.564809 88.967328  L 106.54956 84.764692  L 109.534311 80.979669  L 112.092669 78.060211  L 114.651026 75.434004  L 117.209384 73.094785  L 119.767742 71.036293  L 122.3261 69.252267  L 124.884457 67.736445  L 127.442815 66.482565  L 130.001173 65.484366  L 132.559531 64.735587  L 135.117889 64.229965  L 137.676246 63.961239  L 140.234604 63.923148  L 142.792962 64.109429  L 145.35132 64.513823  L 147.909677 65.130066  L 150.468035 65.951897  L 153.452786 67.162187  L 156.437537 68.63384  L 159.422287 70.356913  L 162.407038 72.321461  L 165.818182 74.84959  L 169.229326 77.665287  L 172.640469 80.753711  L 176.478006 84.5357  L 180.315543 88.622941  L 184.579472 93.496628  L 189.269795 99.228217  L 193.960117 105.310571  L 199.076833 112.300572  L 205.046334 120.858304  L 211.442229 130.42242  L 219.117302 142.304013  L 230.203519 159.919544  L 246.832845 186.330592  L 254.507918 198.103912  L 260.903812 207.541927  L 266.873314 215.952541  L 271.990029 222.79383  L 276.680352 228.721528  L 281.370674 234.280925  L 285.634604 238.982853  L 289.472141 242.903118  L 293.309677 246.506392  L 296.720821 249.426101  L 300.131965 252.063807  L 303.543109 254.404669  L 306.527859 256.197749  L 309.51261 257.742251  L 312.497361 259.028231  L 315.482111 260.045746  L 318.040469 260.696688  L 320.598827 261.136824  L 323.157185 261.359893  L 325.715543 261.359632  L 328.2739 261.12978  L 330.832258 260.664076  L 333.390616 259.956257  L 335.948974 259.000063  L 338.507331 257.789232  L 341.065689 256.317502  L 343.624047 254.578611  L 346.182405 252.566298  L 348.740762 250.274302  L 351.29912 247.696361  L 353.857478 244.826213  L 356.415836 241.657597  L 359.400587 237.575294  L 362.385337 233.068276  L 365.370088 228.126602  L 368.354839 222.740326  L 371.339589 216.899507  L 374.32434 210.594201  L 377.309091 203.814465  L 380.720235 195.472506  L 384.131378 186.483053  L 387.542522 176.831266  L 390.953666 166.502301  L 394.364809 155.481317  L 397.775953 143.75347  L 401.61349 129.696242  L 405.451026 114.704474  L 409.288563 98.757034  L 413.1261 81.832789  L 416.963636 63.910605  L 420.801173 44.969351  L 424.63871 24.987893  L 428.902639 1.540578  L 429.350544 -1  L 429.350544 -1  " clip-path="url(#pd9b855baba)" style="fill: none; stroke: #0072b2; stroke-width: 2.5; stroke-linecap: square" id="mb_auto_path_18"/>
   </g>
   <g id="line2d_36">
    <defs>
     <path id="mb56a3b71ec" d="M 0 5  C 1.326016 5 2.597899 4.473168 3.535534 3.535534  C 4.473168 2.597899 5 1.326016 5 0  C 5 -1.326016 4.473168 -2.597899 3.535534 -3.535534  C 2.597899 -4.473168 1.326016 -5 0 -5  C -1.326016 -5 -2.597899 -4.473168 -3.535534 -3.535534  C -4.473168 -2.597899 -5 -1.326016 -5 0  C -5 1.326016 -4.473168 2.597899 -3.535534 3.535534  C -2.597899 4.473168 -1.326016 5 0 5  z " style="stroke: #000000; stroke-opacity: 0.8"/>
    </defs>
    <g clip-path="url(#pd9b855baba)" id="mb_auto_g_36">
     <use xlink:href="#mb56a3b71ec" x="165.818182" y="74.84959" style="fill-opacity: 0.8; stroke: #000000; stroke-opacity: 0.8" id="mb_auto_use_38"/>
    </g>
   </g>
   <g id="patch_3">
    <path d="M 86.509091 331.34  L 86.509091 16.556315  " style="fill: none; stroke: #000000; stroke-width: 0.8; stroke-linejoin: miter; stroke-linecap: square" id="mb_auto_path_19"/>
   </g>
   <g id="patch_4">
    <path d="M 443.4 331.34  L 443.4 16.556315  " style="fill: none" id="mb_auto_path_20"/>
   </g>
   <g id="patch_5">
    <path d="M 7.2 261.38807  L 443.4 261.38807  " style="fill: none; stroke: #000000; stroke-width: 0.8; stroke-linejoin: miter; stroke-linecap: square" id="mb_auto_path_21"/>
   </g>
   <g id="patch_6">
    <path d="M 7.2 16.556315  L 443.4 16.556315  " style="fill: none" id="mb_auto_path_22"/>
   </g>
  </g>
 </g>
 <defs>
  <clipPath id="pd9b855baba">
   <rect x="7.2" y="16.556315" width="436.2" height="314.783685" id="mb_auto_rect_0"/>
  </clipPath>
 </defs>
</svg>