<?xml version="1.0" encoding="utf-8" standalone="no"?>
<!DOCTYPE svg PUBLIC "-//W3C//DTD SVG 1.1//EN"
  "http://www.w3.org/Graphics/SVG/1.1/DTD/svg11.dtd">
<svg xmlns:xlink="http://www.w3.org/1999/xlink" width="432pt" height="432pt" viewBox="0 0 432 432" xmlns="http://www.w3.org/2000/svg" version="1.1">
 <metadata>
  <rdf:RDF xmlns:dc="http://purl.org/dc/elements/1.1/" xmlns:cc="http://creativecommons.org/ns#" xmlns:rdf="http://www.w3.org/1999/02/22-rdf-syntax-ns#">
   <cc:Work>
    <dc:type rdf:resource="http://purl.org/dc/dcmitype/StillImage"/>
    <dc:date>2026-06-02T18:34:43.448496</dc:date>
    <dc:format>image/svg+xml</dc:format>
    <dc:creator>
     <cc:Agent>
      <dc:title>Matplotlib v3.10.8, https://matplotlib.org/</dc:title>
     </cc:Agent>
    </dc:creator>
   </cc:Work>
  </rdf:RDF>
 </metadata>
 <defs>
  <style type="text/css">*{stroke-linejoin: round; stroke-linecap: butt}
    /* plot3d: counteract dark-mode colour inversion on sphere fills */
    @media (prefers-color-scheme: dark) { #sphere_fill_14275500 { filter: invert(1) hue-rotate(180deg); } }
    [data-theme="dark"] #sphere_fill_14275500,
    .dark #sphere_fill_14275500 { filter: invert(1) hue-rotate(180deg); }
  </style>
 
  <radialGradient id="sg_sphere_fill_14275500" cx="0.38" cy="0.38" r="0.72" fx="0.28" fy="0.28" gradientUnits="objectBoundingBox">
    <stop offset="0%"   stop-color="#e78182" stop-opacity="0.420"/>
    <stop offset="45%"  stop-color="#d62728" stop-opacity="0.400"/>
    <stop offset="100%" stop-color="#6f1414" stop-opacity="0.140"/>
  </radialGradient>
 </defs>
 <g id="figure_1">
  <g id="patch_1">
   <path d="M 0 432 
L 432 432 
L 432 0 
L 0 0 
L 0 432 
z
" style="fill: none"/>
  </g>
  <g id="axes_1">
   <g id="line2d_1">
    <path d="M 205.166716 258.876824 
L 332.71294 151.852834 
" clip-path="url(#p9684090e3d)" style="fill: none; stroke-dasharray: 7,7; stroke-dashoffset: 0; stroke: #333333; stroke-opacity: 0.4; stroke-width: 1.75"/>
   </g>
   <g id="line2d_2">
    <path d="M 205.166716 258.876824 
L 21.454545 258.876824 
" clip-path="url(#p9684090e3d)" style="fill: none; stroke-dasharray: 7,7; stroke-dashoffset: 0; stroke: #333333; stroke-opacity: 0.4; stroke-width: 1.75"/>
   </g>
   <g id="patch_2">
    <path d="M 352.136453 148.649521 
L 352.130857 148.008277 
L 352.11407 147.367229 
L 352.086098 146.726571 
L 352.04695 146.086499 
L 351.996637 145.447207 
L 351.935174 144.808891 
L 351.86258 144.171745 
L 351.778878 143.535963 
L 351.684092 142.901738 
L 351.578253 142.269265 
L 351.461391 141.638734 
L 351.333542 141.01034 
L 351.194747 140.384272 
L 351.045045 139.760722 
L 350.884485 139.13988 
L 350.713113 138.521934 
L 350.530983 137.907073 
L 350.33815 137.295485 
L 350.134673 136.687355 
L 349.920613 136.082869 
L 349.696036 135.482211 
L 349.46101 134.885563 
L 349.215608 134.293109 
L 348.959902 133.705027 
L 348.693973 133.121498 
L 348.4179 132.542698 
L 348.131767 131.968805 
L 347.835662 131.399993 
L 347.529676 130.836436 
L 347.2139 130.278304 
L 346.888432 129.725769 
L 346.55337 129.178998 
L 346.208817 128.638158 
L 345.854877 128.103413 
L 345.491659 127.574927 
L 345.119272 127.05286 
L 344.737831 126.537373 
L 344.347452 126.02862 
L 343.948253 125.526758 
L 343.540356 125.03194 
L 343.123886 124.544316 
L 342.698968 124.064034 
L 342.265734 123.591242 
L 341.824314 123.126082 
L 341.374843 122.668697 
L 340.917458 122.219226 
L 340.452298 121.777806 
L 339.979506 121.344572 
L 339.499224 120.919654 
L 339.0116 120.503184 
L 338.516782 120.095287 
L 338.01492 119.696088 
L 337.506167 119.305709 
L 336.990679 118.924268 
L 336.468613 118.551881 
L 335.940127 118.188663 
L 335.405382 117.834723 
L 334.864542 117.49017 
L 334.317771 117.155108 
L 333.765236 116.82964 
L 333.207104 116.513864 
L 332.643547 116.207878 
L 332.074735 115.911773 
L 331.500842 115.62564 
L 330.922042 115.349567 
L 330.338513 115.083638 
L 329.750431 114.827932 
L 329.157977 114.58253 
L 328.561329 114.347504 
L 327.960671 114.122927 
L 327.356185 113.908867 
L 326.748055 113.70539 
L 326.136467 113.512557 
L 325.521606 113.330427 
L 324.90366 113.159055 
L 324.282818 112.998495 
L 323.659268 112.848793 
L 323.0332 112.709998 
L 322.404806 112.582149 
L 321.774275 112.465287 
L 321.141802 112.359448 
L 320.507577 112.264662 
L 319.871795 112.18096 
L 319.234649 112.108366 
L 318.596333 112.046903 
L 317.957041 111.99659 
L 317.316969 111.957441 
L 316.676311 111.92947 
L 316.035262 111.912683 
L 315.394019 111.907087 
L 314.752775 111.912683 
L 314.111726 111.92947 
L 313.471068 111.957441 
L 312.830996 111.99659 
L 312.191704 112.046903 
L 311.553388 112.108366 
L 310.916242 112.18096 
L 310.28046 112.264662 
L 309.646236 112.359448 
L 309.013762 112.465287 
L 308.383232 112.582149 
L 307.754837 112.709998 
L 307.128769 112.848793 
L 306.505219 112.998495 
L 305.884377 113.159055 
L 305.266431 113.330427 
L 304.65157 113.512557 
L 304.039982 113.70539 
L 303.431852 113.908867 
L 302.827366 114.122927 
L 302.226708 114.347504 
L 301.63006 114.58253 
L 301.037606 114.827932 
L 300.449524 115.083638 
L 299.865995 115.349567 
L 299.287196 115.62564 
L 298.713303 115.911773 
L 298.144491 116.207878 
L 297.580933 116.513864 
L 297.022802 116.82964 
L 296.470266 117.155108 
L 295.923495 117.49017 
L 295.382655 117.834723 
L 294.84791 118.188663 
L 294.319424 118.551881 
L 293.797358 118.924268 
L 293.28187 119.305709 
L 292.773117 119.696088 
L 292.271256 120.095287 
L 291.776437 120.503184 
L 291.288813 120.919654 
L 290.808531 121.344572 
L 290.335739 121.777806 
L 289.870579 122.219226 
L 289.413194 122.668697 
L 288.963723 123.126082 
L 288.522303 123.591242 
L 288.089069 124.064034 
L 287.664152 124.544316 
L 287.247681 125.03194 
L 286.839784 125.526758 
L 286.440585 126.02862 
L 286.050206 126.537373 
L 285.668765 127.05286 
L 285.296379 127.574927 
L 284.93316 128.103413 
L 284.57922 128.638158 
L 284.234667 129.178998 
L 283.899605 129.725769 
L 283.574137 130.278304 
L 283.258362 130.836436 
L 282.952375 131.399993 
L 282.65627 131.968805 
L 282.370138 132.542698 
L 282.094064 133.121498 
L 281.828135 133.705027 
L 281.57243 134.293109 
L 281.327027 134.885563 
L 281.092001 135.482211 
L 280.867424 136.082869 
L 280.653365 136.687355 
L 280.449887 137.295485 
L 280.257054 137.907073 
L 280.074924 138.521934 
L 279.903553 139.13988 
L 279.742992 139.760722 
L 279.593291 140.384272 
L 279.454495 141.01034 
L 279.326646 141.638734 
L 279.209785 142.269265 
L 279.103945 142.901738 
L 279.009159 143.535963 
L 278.925457 144.171745 
L 278.852863 144.808891 
L 278.7914 145.447207 
L 278.741087 146.086499 
L 278.701939 146.726571 
L 278.673967 147.367229 
L 278.65718 148.008277 
L 278.651584 148.649521 
L 278.65718 149.290765 
L 278.673967 149.931814 
L 278.701939 150.572472 
L 278.741087 151.212544 
L 278.7914 151.851836 
L 278.852863 152.490152 
L 278.925457 153.127298 
L 279.009159 153.76308 
L 279.103945 154.397304 
L 279.209785 155.029778 
L 279.326646 155.660308 
L 279.454495 156.288703 
L 279.593291 156.914771 
L 279.742992 157.538321 
L 279.903553 158.159163 
L 280.074924 158.777109 
L 280.257054 159.391969 
L 280.449887 160.003558 
L 280.653365 160.611688 
L 280.867424 161.216174 
L 281.092001 161.816832 
L 281.327027 162.413479 
L 281.57243 163.005934 
L 281.828135 163.594016 
L 282.094064 164.177545 
L 282.370138 164.756344 
L 282.65627 165.330237 
L 282.952375 165.899049 
L 283.258362 166.462607 
L 283.574137 167.020738 
L 283.899605 167.573274 
L 284.234667 168.120045 
L 284.57922 168.660885 
L 284.93316 169.19563 
L 285.296379 169.724116 
L 285.668765 170.246182 
L 286.050206 170.76167 
L 286.440585 171.270423 
L 286.839784 171.772284 
L 287.247681 172.267103 
L 287.664152 172.754727 
L 288.089069 173.235009 
L 288.522303 173.707801 
L 288.963723 174.172961 
L 289.413194 174.630346 
L 289.870579 175.079817 
L 290.335739 175.521237 
L 290.808531 175.954471 
L 291.288813 176.379388 
L 291.776437 176.795859 
L 292.271256 177.203756 
L 292.773117 177.602955 
L 293.28187 177.993334 
L 293.797358 178.374775 
L 294.319424 178.747161 
L 294.84791 179.11038 
L 295.382655 179.464319 
L 295.923495 179.808873 
L 296.470266 180.143934 
L 297.022802 180.469403 
L 297.580933 180.785178 
L 298.144491 181.091165 
L 298.713303 181.38727 
L 299.287196 181.673402 
L 299.865995 181.949476 
L 300.449524 182.215405 
L 301.037606 182.47111 
L 301.63006 182.716513 
L 302.226708 182.951539 
L 302.827366 183.176116 
L 303.431852 183.390175 
L 304.039982 183.593653 
L 304.65157 183.786486 
L 305.266431 183.968616 
L 305.884377 184.139987 
L 306.505219 184.300548 
L 307.128769 184.450249 
L 307.754837 184.589045 
L 308.383232 184.716894 
L 309.013762 184.833755 
L 309.646236 184.939595 
L 310.28046 185.034381 
L 310.916242 185.118083 
L 311.553388 185.190677 
L 312.191704 185.252139 
L 312.830996 185.302453 
L 313.471068 185.341601 
L 314.111726 185.369573 
L 314.752775 185.386359 
L 315.394019 185.391956 
L 316.035262 185.386359 
L 316.676311 185.369573 
L 317.316969 185.341601 
L 317.957041 185.302453 
L 318.596333 185.252139 
L 319.234649 185.190677 
L 319.871795 185.118083 
L 320.507577 185.034381 
L 321.141802 184.939595 
L 321.774275 184.833755 
L 322.404806 184.716894 
L 323.0332 184.589045 
L 323.659268 184.450249 
L 324.282818 184.300548 
L 324.90366 184.139987 
L 325.521606 183.968616 
L 326.136467 183.786486 
L 326.748055 183.593653 
L 327.356185 183.390175 
L 327.960671 183.176116 
L 328.561329 182.951539 
L 329.157977 182.716513 
L 329.750431 182.47111 
L 330.338513 182.215405 
L 330.922042 181.949476 
L 331.500842 181.673402 
L 332.074735 181.38727 
L 332.643547 181.091165 
L 333.207104 180.785178 
L 333.765236 180.469403 
L 334.317771 180.143934 
L 334.864542 179.808873 
L 335.405382 179.464319 
L 335.940127 179.11038 
L 336.468613 178.747161 
L 336.990679 178.374775 
L 337.506167 177.993334 
L 338.01492 177.602955 
L 338.516782 177.203756 
L 339.0116 176.795859 
L 339.499224 176.379388 
L 339.979506 175.954471 
L 340.452298 175.521237 
L 340.917458 175.079817 
L 341.374843 174.630346 
L 341.824314 174.172961 
L 342.265734 173.707801 
L 342.698968 173.235009 
L 343.123886 172.754727 
L 343.540356 172.267103 
L 343.948253 171.772284 
L 344.347452 171.270423 
L 344.737831 170.76167 
L 345.119272 170.246182 
L 345.491659 169.724116 
L 345.854877 169.19563 
L 346.208817 168.660885 
L 346.55337 168.120045 
L 346.888432 167.573274 
L 347.2139 167.020738 
L 347.529676 166.462607 
L 347.835662 165.899049 
L 348.131767 165.330237 
L 348.4179 164.756344 
L 348.693973 164.177545 
L 348.959902 163.594016 
L 349.215608 163.005934 
L 349.46101 162.413479 
L 349.696036 161.816832 
L 349.920613 161.216174 
L 350.134673 160.611688 
L 350.33815 160.003558 
L 350.530983 159.391969 
L 350.713113 158.777109 
L 350.884485 158.159163 
L 351.045045 157.538321 
L 351.194747 156.914771 
L 351.333542 156.288703 
L 351.461391 155.660308 
L 351.578253 155.029778 
L 351.684092 154.397304 
L 351.778878 153.76308 
L 351.86258 153.127298 
L 351.935174 152.490152 
L 351.996637 151.851836 
L 352.04695 151.212544 
L 352.086098 150.572472 
L 352.11407 149.931814 
L 352.130857 149.290765 
L 352.136453 148.649521 
z
" clip-path="url(#p9684090e3d)" style="fill: #d62728; opacity: 0.1125; stroke: #d62728; stroke-linejoin: miter"/>
   </g>
   <g id="line2d_3">
    <path d="M 352.136453 148.649521 
L 352.04695 146.086499 
L 351.778878 143.535963 
L 351.333542 141.01034 
L 350.713113 138.521934 
L 349.920613 136.082869 
L 348.959902 133.705027 
L 347.835662 131.399993 
L 346.55337 129.178998 
L 345.119272 127.05286 
L 343.540356 125.03194 
L 341.824314 123.126082 
L 339.979506 121.344572 
L 338.01492 119.696088 
L 335.940127 118.188663 
L 333.765236 116.82964 
L 331.500842 115.62564 
L 329.157977 114.58253 
L 326.748055 113.70539 
L 324.282818 112.998495 
L 321.774275 112.465287 
L 319.234649 112.108366 
L 316.676311 111.92947 
L 314.111726 111.92947 
L 311.553388 112.108366 
L 309.013762 112.465287 
L 306.505219 112.998495 
L 304.039982 113.70539 
L 301.63006 114.58253 
L 299.287196 115.62564 
L 297.022802 116.82964 
L 294.84791 118.188663 
L 292.773117 119.696088 
L 290.808531 121.344572 
L 288.963723 123.126082 
L 287.247681 125.03194 
L 285.668765 127.05286 
L 284.234667 129.178998 
L 282.952375 131.399993 
L 281.828135 133.705027 
L 280.867424 136.082869 
L 280.074924 138.521934 
L 279.454495 141.01034 
L 279.009159 143.535963 
L 278.741087 146.086499 
L 278.651584 148.649521 
L 278.741087 151.212544 
L 279.009159 153.76308 
L 279.454495 156.288703 
L 280.074924 158.777109 
L 280.867424 161.216174 
L 281.828135 163.594016 
L 282.952375 165.899049 
L 284.234667 168.120045 
L 285.668765 170.246182 
L 287.247681 172.267103 
L 288.963723 174.172961 
L 290.808531 175.954471 
L 292.773117 177.602955 
L 294.84791 179.11038 
L 297.022802 180.469403 
L 299.287196 181.673402 
L 301.63006 182.716513 
L 304.039982 183.593653 
L 306.505219 184.300548 
L 309.013762 184.833755 
L 311.553388 185.190677 
L 314.111726 185.369573 
L 316.676311 185.369573 
L 319.234649 185.190677 
L 321.774275 184.833755 
L 324.282818 184.300548 
L 326.748055 183.593653 
L 329.157977 182.716513 
L 331.500842 181.673402 
L 333.765236 180.469403 
L 335.940127 179.11038 
L 338.01492 177.602955 
L 339.979506 175.954471 
L 341.824314 174.172961 
L 343.540356 172.267103 
L 345.119272 170.246182 
L 346.55337 168.120045 
L 347.835662 165.899049 
L 348.959902 163.594016 
L 349.920613 161.216174 
L 350.713113 158.777109 
L 351.333542 156.288703 
L 351.778878 153.76308 
L 352.04695 151.212544 
L 352.136453 148.649521 
L 352.136453 148.649521 
" clip-path="url(#p9684090e3d)" style="fill: none; stroke-dasharray: 7,7; stroke-dashoffset: 0; stroke: #d62728; stroke-opacity: 0.25; stroke-width: 1.75"/>
   </g>
   <g id="line2d_4">
    <path d="M 238.866284 212.863915 
L 315.394019 148.649521 
" clip-path="url(#p9684090e3d)" style="fill: none; stroke-dasharray: 6,6; stroke-dashoffset: 0; stroke: #d62728; stroke-opacity: 0.25; stroke-width: 1.5"/>
   </g>
   <g id="patch_3">
    <path d="M 203.634355 260.162627 
Q 133.741237 318.809917 65.989278 375.66056 
" clip-path="url(#p9684090e3d)" style="fill: none; stroke: #333333; stroke-width: 2.5; stroke-linecap: round"/>
    <path d="M 71.208982 374.413687 
L 65.989278 375.66056 
L 68.123602 370.736673 
z
" clip-path="url(#p9684090e3d)" style="fill: #333333; stroke: #333333; stroke-width: 2.5; stroke-linecap: round"/>
   </g>
   <g id="patch_4">
    <path d="M 207.166649 258.876824 
Q 308.045924 258.876824 406.130114 258.876824 
" clip-path="url(#p9684090e3d)" style="fill: none; stroke: #333333; stroke-width: 2.5; stroke-linecap: round"/>
    <path d="M 401.330114 256.476824 
L 406.130114 258.876824 
L 401.330114 261.276824 
z
" clip-path="url(#p9684090e3d)" style="fill: #333333; stroke: #333333; stroke-width: 2.5; stroke-linecap: round"/>
   </g>
   <g id="patch_5">
    <path d="M 205.166716 256.876891 
Q 205.166716 155.997616 205.166716 57.913426 
" clip-path="url(#p9684090e3d)" style="fill: none; stroke: #333333; stroke-width: 2.5; stroke-linecap: round"/>
    <path d="M 202.766716 62.713426 
L 205.166716 57.913426 
L 207.566716 62.713426 
z
" clip-path="url(#p9684090e3d)" style="fill: #333333; stroke: #333333; stroke-width: 2.5; stroke-linecap: round"/>
   </g>
   <g id="line2d_5">
    <path d="M 332.71294 159.201321 
L 332.71294 144.504347 
" clip-path="url(#p9684090e3d)" style="fill: none; stroke: #555555; stroke-width: 0.8; stroke-linecap: square"/>
   </g>
   <g id="line2d_6">
    <path d="M 307.203696 180.606119 
L 307.203696 165.909145 
" clip-path="url(#p9684090e3d)" style="fill: none; stroke: #555555; stroke-width: 0.8; stroke-linecap: square"/>
   </g>
   <g id="line2d_7">
    <path d="M 281.694451 202.010917 
L 281.694451 187.313943 
" clip-path="url(#p9684090e3d)" style="fill: none; stroke: #555555; stroke-width: 0.8; stroke-linecap: square"/>
   </g>
   <g id="line2d_8">
    <path d="M 256.185206 223.415715 
L 256.185206 208.718741 
" clip-path="url(#p9684090e3d)" style="fill: none; stroke: #555555; stroke-width: 0.8; stroke-linecap: square"/>
   </g>
   <g id="line2d_9">
    <path d="M 230.675961 244.820513 
L 230.675961 230.123539 
" clip-path="url(#p9684090e3d)" style="fill: none; stroke: #555555; stroke-width: 0.8; stroke-linecap: square"/>
   </g>
   <g id="line2d_10">
    <path d="M 179.657471 287.630109 
L 179.657471 272.933135 
" clip-path="url(#p9684090e3d)" style="fill: none; stroke: #555555; stroke-width: 0.8; stroke-linecap: square"/>
   </g>
   <g id="line2d_11">
    <path d="M 154.148226 309.034907 
L 154.148226 294.337933 
" clip-path="url(#p9684090e3d)" style="fill: none; stroke: #555555; stroke-width: 0.8; stroke-linecap: square"/>
   </g>
   <g id="line2d_12">
    <path d="M 128.638982 330.439704 
L 128.638982 315.742731 
" clip-path="url(#p9684090e3d)" style="fill: none; stroke: #555555; stroke-width: 0.8; stroke-linecap: square"/>
   </g>
   <g id="line2d_13">
    <path d="M 103.129737 351.844502 
L 103.129737 337.147529 
" clip-path="url(#p9684090e3d)" style="fill: none; stroke: #555555; stroke-width: 0.8; stroke-linecap: square"/>
   </g>
   <g id="line2d_14">
    <path d="M 77.620492 373.2493 
L 77.620492 358.552327 
" clip-path="url(#p9684090e3d)" style="fill: none; stroke: #555555; stroke-width: 0.8; stroke-linecap: square"/>
   </g>
   <g id="line2d_15">
    <path d="M 21.454545 266.225311 
L 21.454545 251.528337 
" clip-path="url(#p9684090e3d)" style="fill: none; stroke: #555555; stroke-width: 0.8; stroke-linecap: square"/>
   </g>
   <g id="line2d_16">
    <path d="M 58.19698 266.225311 
L 58.19698 251.528337 
" clip-path="url(#p9684090e3d)" style="fill: none; stroke: #555555; stroke-width: 0.8; stroke-linecap: square"/>
   </g>
   <g id="line2d_17">
    <path d="M 94.939414 266.225311 
L 94.939414 251.528337 
" clip-path="url(#p9684090e3d)" style="fill: none; stroke: #555555; stroke-width: 0.8; stroke-linecap: square"/>
   </g>
   <g id="line2d_18">
    <path d="M 131.681848 266.225311 
L 131.681848 251.528337 
" clip-path="url(#p9684090e3d)" style="fill: none; stroke: #555555; stroke-width: 0.8; stroke-linecap: square"/>
   </g>
   <g id="line2d_19">
    <path d="M 168.424282 266.225311 
L 168.424282 251.528337 
" clip-path="url(#p9684090e3d)" style="fill: none; stroke: #555555; stroke-width: 0.8; stroke-linecap: square"/>
   </g>
   <g id="line2d_20">
    <path d="M 241.90915 266.225311 
L 241.90915 251.528337 
" clip-path="url(#p9684090e3d)" style="fill: none; stroke: #555555; stroke-width: 0.8; stroke-linecap: square"/>
   </g>
   <g id="line2d_21">
    <path d="M 278.651584 266.225311 
L 278.651584 251.528337 
" clip-path="url(#p9684090e3d)" style="fill: none; stroke: #555555; stroke-width: 0.8; stroke-linecap: square"/>
   </g>
   <g id="line2d_22">
    <path d="M 315.394019 266.225311 
L 315.394019 251.528337 
" clip-path="url(#p9684090e3d)" style="fill: none; stroke: #555555; stroke-width: 0.8; stroke-linecap: square"/>
   </g>
   <g id="line2d_23">
    <path d="M 352.136453 266.225311 
L 352.136453 251.528337 
" clip-path="url(#p9684090e3d)" style="fill: none; stroke: #555555; stroke-width: 0.8; stroke-linecap: square"/>
   </g>
   <g id="line2d_24">
    <path d="M 388.878887 266.225311 
L 388.878887 251.528337 
" clip-path="url(#p9684090e3d)" style="fill: none; stroke: #555555; stroke-width: 0.8; stroke-linecap: square"/>
   </g>
   <g id="line2d_25">
    <path d="M 197.818229 222.13439 
L 212.515203 222.13439 
" clip-path="url(#p9684090e3d)" style="fill: none; stroke: #555555; stroke-width: 0.8; stroke-linecap: square"/>
   </g>
   <g id="line2d_26">
    <path d="M 197.818229 185.391956 
L 212.515203 185.391956 
" clip-path="url(#p9684090e3d)" style="fill: none; stroke: #555555; stroke-width: 0.8; stroke-linecap: square"/>
   </g>
   <g id="line2d_27">
    <path d="M 197.818229 148.649521 
L 212.515203 148.649521 
" clip-path="url(#p9684090e3d)" style="fill: none; stroke: #555555; stroke-width: 0.8; stroke-linecap: square"/>
   </g>
   <g id="line2d_28">
    <path d="M 197.818229 111.907087 
L 212.515203 111.907087 
" clip-path="url(#p9684090e3d)" style="fill: none; stroke: #555555; stroke-width: 0.8; stroke-linecap: square"/>
   </g>
   <g id="line2d_29">
    <path d="M 197.818229 75.164653 
L 212.515203 75.164653 
" clip-path="url(#p9684090e3d)" style="fill: none; stroke: #555555; stroke-width: 0.8; stroke-linecap: square"/>
   </g>
   <g id="sphere_fill_14275500">
    <path d="M 238.866284 249.606349 
C 248.610491 249.606349 257.956913 245.734935 264.847108 238.84474 
C 271.737304 231.954544 275.608718 222.608123 275.608718 212.863915 
C 275.608718 203.119708 271.737304 193.773286 264.847108 186.883091 
C 257.956913 179.992896 248.610491 176.121481 238.866284 176.121481 
C 229.122077 176.121481 219.775655 179.992896 212.88546 186.883091 
C 205.995265 193.773286 202.12385 203.119708 202.12385 212.863915 
C 202.12385 222.608123 205.995265 231.954544 212.88546 238.84474 
C 219.775655 245.734935 229.122077 249.606349 238.866284 249.606349 
z
" clip-path="url(#p9684090e3d)" style="fill: url(#sg_sphere_fill_14275500)"/>
   </g>
   <g id="line2d_30">
    <path d="M 283.595426 200.586627 
L 283.474006 199.393439 
L 283.135262 198.265878 
L 282.580844 197.209437 
L 281.813454 196.229263 
L 280.836829 195.330131 
L 279.493988 194.420917 
L 277.900664 193.62541 
L 276.066681 192.948515 
L 273.760467 192.340573 
L 271.188686 191.888825 
L 268.076417 191.576375 
L 264.695192 191.459932 
L 260.736483 191.557661 
L 256.53816 191.888825 
L 252.14622 192.449797 
L 247.225644 193.309659 
L 242.197598 194.420917 
L 237.126724 195.769283 
L 232.078214 197.337423 
L 227.116973 199.105176 
L 222.306785 201.049816 
L 217.70949 203.14634 
L 213.384194 205.367797 
L 209.681188 207.504582 
L 206.29794 209.700085 
L 203.271518 211.930251 
L 200.839153 213.984156 
L 198.756927 216.027746 
L 197.184031 217.860766 
L 195.928362 219.655757 
L 195.077439 221.227436 
L 194.496488 222.747551 
L 194.189092 224.20673 
L 194.137142 225.141203 
L 194.137142 225.141203 
" clip-path="url(#p3a88c693b3)" style="fill: none; stroke-dasharray: 3.375,4.5; stroke-dashoffset: 0; stroke: #d62728; stroke-opacity: 0.3; stroke-width: 1.125"/>
   </g>
   <g id="line2d_31">
    <path d="M 251.813204 170.341806 
L 253.314879 170.459702 
L 254.746162 170.784187 
L 256.10008 171.313679 
L 257.370036 172.045601 
L 258.549844 172.976385 
L 259.633756 174.101497 
L 260.616491 175.415456 
L 261.595188 177.111385 
L 262.433753 179.02774 
L 263.127018 181.152706 
L 263.721729 183.742472 
L 264.127275 186.553869 
L 264.340569 189.565501 
L 264.35125 193.082172 
L 264.127275 196.780986 
L 263.670706 200.627884 
L 262.985749 204.587448 
L 261.985511 208.992604 
L 260.731975 213.440175 
L 259.238873 217.881432 
L 257.522565 222.267717 
L 255.601854 226.550971 
L 253.497786 230.684268 
L 251.233411 234.62232 
L 248.83354 238.321983 
L 246.537062 241.469251 
L 244.169954 244.353131 
L 241.754013 246.947072 
L 239.311482 249.227188 
L 237.086849 251.00997 
L 234.875759 252.502437 
L 232.695039 253.693231 
L 230.772082 254.499477 
L 228.899028 255.049025 
L 227.087426 255.338488 
L 225.919364 255.386024 
L 225.919364 255.386024 
" clip-path="url(#p3a88c693b3)" style="fill: none; stroke-dasharray: 3.375,4.5; stroke-dashoffset: 0; stroke: #d62728; stroke-opacity: 0.3; stroke-width: 1.125"/>
   </g>
   <g id="text_1">
    <!-- $x$ -->
    <g style="fill: #333333" transform="translate(48.417445 387.570079) scale(0.17 -0.17)">
     <defs>
      <path id="CMMI12-78" d="M 3034 2606 
C 2829 2567 2752 2414 2752 2293 
C 2752 2139 2874 2088 2963 2088 
C 3155 2088 3290 2254 3290 2427 
C 3290 2695 2982 2816 2714 2816 
C 2323 2816 2106 2433 2048 2312 
C 1901 2816 1504 2816 1389 2816 
C 736 2816 390 1980 390 1839 
C 390 1814 416 1782 461 1782 
C 512 1782 525 1820 538 1846 
C 755 2555 1184 2689 1370 2689 
C 1658 2689 1715 2420 1715 2267 
C 1715 2127 1677 1980 1600 1673 
L 1382 798 
C 1286 415 1101 64 762 64 
C 730 64 570 64 435 147 
C 666 192 717 383 717 460 
C 717 588 621 664 499 664 
C 346 664 179 530 179 326 
C 179 57 480 -64 755 -64 
C 1062 -64 1280 179 1414 441 
C 1517 64 1837 -64 2074 -64 
C 2726 -64 3072 773 3072 913 
C 3072 945 3046 971 3008 971 
C 2950 971 2944 939 2925 888 
C 2752 326 2381 64 2093 64 
C 1869 64 1747 230 1747 492 
C 1747 632 1773 734 1875 1156 
L 2099 2024 
C 2195 2408 2413 2689 2707 2689 
C 2720 2689 2899 2689 3034 2606 
z
" transform="scale(0.015625)"/>
     </defs>
     <use xlink:href="#CMMI12-78" transform="scale(0.996264)"/>
    </g>
   </g>
   <g id="text_2">
    <!-- $y$ -->
    <g style="fill: #333333" transform="translate(416.067004 263.110406) scale(0.17 -0.17)">
     <defs>
      <path id="CMMI12-79" d="M 1683 -700 
C 1510 -939 1261 -1152 947 -1152 
C 870 -1152 563 -1152 467 -889 
C 486 -895 518 -895 531 -895 
C 723 -895 851 -729 851 -582 
C 851 -435 730 -384 634 -384 
C 531 -384 307 -458 307 -759 
C 307 -1071 582 -1286 947 -1286 
C 1587 -1286 2234 -700 2413 6 
L 3040 2485 
C 3046 2517 3059 2556 3059 2594 
C 3059 2689 2982 2753 2886 2753 
C 2829 2753 2694 2727 2643 2535 
L 2170 658 
C 2138 543 2138 530 2086 460 
C 1958 281 1747 64 1440 64 
C 1082 64 1050 415 1050 588 
C 1050 952 1222 1443 1395 1903 
C 1466 2088 1504 2178 1504 2305 
C 1504 2574 1312 2816 998 2816 
C 410 2816 173 1890 173 1839 
C 173 1814 198 1782 243 1782 
C 301 1782 307 1807 333 1897 
C 486 2433 730 2689 979 2689 
C 1037 2689 1146 2689 1146 2478 
C 1146 2312 1075 2127 979 1884 
C 666 1047 666 837 666 683 
C 666 77 1101 -64 1421 -64 
C 1606 -64 1837 -6 2061 230 
L 2067 224 
C 1971 -147 1907 -392 1683 -700 
z
" transform="scale(0.015625)"/>
     </defs>
     <use xlink:href="#CMMI12-79" transform="scale(0.996264)"/>
    </g>
   </g>
   <g id="text_3">
    <!-- $z$ -->
    <g style="fill: #333333" transform="translate(201.314881 48.167166) scale(0.17 -0.17)">
     <defs>
      <path id="CMMI12-7a" d="M 813 486 
C 1088 803 1312 1004 1632 1296 
C 2016 1632 2182 1793 2272 1891 
C 2720 2338 2944 2713 2944 2764 
C 2944 2816 2893 2816 2880 2816 
C 2835 2816 2822 2793 2790 2750 
C 2630 2494 2477 2367 2310 2367 
C 2176 2367 2106 2421 1984 2565 
C 1850 2715 1741 2816 1555 2816 
C 1088 2816 806 2257 806 2128 
C 806 2108 813 2068 870 2068 
C 922 2068 928 2091 947 2133 
C 1056 2372 1363 2414 1485 2414 
C 1619 2414 1747 2376 1882 2327 
C 2125 2240 2227 2240 2291 2240 
C 2336 2240 2362 2240 2394 2246 
C 2182 1994 1837 1683 1549 1418 
L 902 816 
C 512 415 275 33 275 -12 
C 275 -51 307 -64 346 -64 
C 384 -64 390 -57 435 14 
C 538 163 742 384 979 384 
C 1114 384 1178 342 1306 193 
C 1427 61 1536 -64 1741 -64 
C 2368 -64 2726 732 2726 876 
C 2726 903 2720 942 2656 942 
C 2605 942 2598 917 2579 855 
C 2438 488 2061 338 1811 338 
C 1677 338 1549 376 1414 425 
C 1158 512 1088 512 1005 512 
C 941 512 870 512 813 486 
z
" transform="scale(0.015625)"/>
     </defs>
     <use xlink:href="#CMMI12-7a" transform="scale(0.996264)"/>
    </g>
   </g>
   <g id="line2d_32">
    <defs>
     <path id="m04cdff70ed" d="M 0 1.5 
C 0.397805 1.5 0.77937 1.341951 1.06066 1.06066 
C 1.341951 0.77937 1.5 0.397805 1.5 0 
C 1.5 -0.397805 1.341951 -0.77937 1.06066 -1.06066 
C 0.77937 -1.341951 0.397805 -1.5 0 -1.5 
C -0.397805 -1.5 -0.77937 -1.341951 -1.06066 -1.06066 
C -1.341951 -0.77937 -1.5 -0.397805 -1.5 0 
C -1.5 0.397805 -1.341951 0.77937 -1.06066 1.06066 
C -0.77937 1.341951 -0.397805 1.5 0 1.5 
z
" style="stroke: #333333"/>
    </defs>
    <g clip-path="url(#p9684090e3d)">
     <use xlink:href="#m04cdff70ed" x="205.166716" y="258.876824" style="fill: #333333; stroke: #333333"/>
    </g>
   </g>
   <g id="text_4">
    <!-- -5 -->
    <g style="fill: #555555" transform="translate(337.122033 154.59256) scale(0.11 -0.11)">
     <defs>
      <path id="CMSS17-2d" d="M 1664 1216 
L 1664 1585 
L 64 1585 
L 64 1216 
L 1664 1216 
z
" transform="scale(0.015625)"/>
      <path id="CMSS17-35" d="M 934 3752 
L 2502 3752 
L 2502 4160 
L 467 4160 
L 467 1781 
L 896 1781 
C 1011 2046 1248 2240 1555 2240 
C 1843 2240 2163 1989 2163 1266 
C 2163 493 1709 267 1376 267 
C 966 267 589 512 422 851 
L 218 499 
C 512 49 992 -128 1376 -128 
C 2118 -128 2701 497 2701 1253 
C 2701 2030 2182 2629 1562 2629 
C 1338 2629 1120 2553 934 2399 
L 934 3752 
z
" transform="scale(0.015625)"/>
     </defs>
     <use xlink:href="#CMSS17-2d" transform="scale(0.996264)"/>
     <use xlink:href="#CMSS17-35" transform="translate(31.229113 0) scale(0.996264)"/>
    </g>
   </g>
   <g id="text_5">
    <!-- -4 -->
    <g style="fill: #555555" transform="translate(311.612788 175.997358) scale(0.11 -0.11)">
     <defs>
      <path id="CMSS17-34" d="M 2253 1088 
L 2835 1088 
L 2835 1477 
L 2253 1477 
L 2253 4192 
L 1690 4192 
L 166 1477 
L 166 1088 
L 1747 1088 
L 1747 0 
L 2253 0 
L 2253 1088 
z
M 659 1477 
C 1030 2127 1766 3439 1766 3885 
L 1766 1477 
L 659 1477 
z
" transform="scale(0.015625)"/>
     </defs>
     <use xlink:href="#CMSS17-2d" transform="scale(0.996264)"/>
     <use xlink:href="#CMSS17-34" transform="translate(31.229113 0) scale(0.996264)"/>
    </g>
   </g>
   <g id="text_6">
    <!-- -3 -->
    <g style="fill: #555555" transform="translate(286.103543 197.402156) scale(0.11 -0.11)">
     <defs>
      <path id="CMSS17-33" d="M 1005 2025 
L 1440 2025 
C 2042 2025 2214 1507 2214 1146 
C 2214 653 1933 267 1472 267 
C 1114 267 608 444 320 912 
C 275 691 275 678 250 526 
C 550 88 1037 -128 1485 -128 
C 2214 -128 2752 473 2752 1138 
C 2752 1638 2400 2057 1920 2215 
C 2304 2424 2586 2816 2586 3273 
C 2586 3805 2093 4229 1491 4229 
C 941 4229 512 3892 333 3530 
C 378 3468 493 3284 550 3189 
C 691 3562 1056 3840 1485 3840 
C 1843 3840 2080 3607 2080 3271 
C 2080 2923 1856 2543 1478 2455 
C 1453 2455 1056 2417 1005 2411 
L 1005 2025 
z
" transform="scale(0.015625)"/>
     </defs>
     <use xlink:href="#CMSS17-2d" transform="scale(0.996264)"/>
     <use xlink:href="#CMSS17-33" transform="translate(31.229113 0) scale(0.996264)"/>
    </g>
   </g>
   <g id="text_7">
    <!-- -2 -->
    <g style="fill: #555555" transform="translate(260.594298 218.806954) scale(0.11 -0.11)">
     <defs>
      <path id="CMSS17-32" d="M 1651 1357 
C 1830 1541 2099 1764 2285 1987 
C 2464 2204 2701 2511 2701 2957 
C 2701 3657 2227 4288 1421 4288 
C 787 4288 422 3893 250 3274 
L 499 2929 
C 640 3510 838 3880 1338 3880 
C 1888 3880 2195 3433 2195 2942 
C 2195 2355 1747 1901 1408 1563 
C 1030 1187 659 804 301 408 
L 301 0 
L 2701 0 
L 2701 433 
L 1613 433 
C 1536 433 1459 433 1382 433 
L 742 433 
L 742 439 
L 1651 1357 
z
" transform="scale(0.015625)"/>
     </defs>
     <use xlink:href="#CMSS17-2d" transform="scale(0.996264)"/>
     <use xlink:href="#CMSS17-32" transform="translate(31.229113 0) scale(0.996264)"/>
    </g>
   </g>
   <g id="text_8">
    <!-- -1 -->
    <g style="fill: #555555" transform="translate(235.085053 240.211752) scale(0.11 -0.11)">
     <defs>
      <path id="CMSS17-31" d="M 1818 4288 
L 1696 4288 
C 1350 3940 947 3890 538 3890 
L 538 3520 
C 723 3520 1024 3520 1325 3667 
L 1325 369 
L 570 369 
L 570 0 
L 2573 0 
L 2573 369 
L 1818 369 
L 1818 4288 
z
" transform="scale(0.015625)"/>
     </defs>
     <use xlink:href="#CMSS17-2d" transform="scale(0.996264)"/>
     <use xlink:href="#CMSS17-31" transform="translate(31.229113 0) scale(0.996264)"/>
    </g>
   </g>
   <g id="text_9">
    <!-- 1 -->
    <g style="fill: #555555" transform="translate(169.768912 283.021348) scale(0.11 -0.11)">
     <use xlink:href="#CMSS17-31" transform="scale(0.996264)"/>
    </g>
   </g>
   <g id="text_10">
    <!-- 2 -->
    <g style="fill: #555555" transform="translate(144.259667 304.426146) scale(0.11 -0.11)">
     <use xlink:href="#CMSS17-32" transform="scale(0.996264)"/>
    </g>
   </g>
   <g id="text_11">
    <!-- 3 -->
    <g style="fill: #555555" transform="translate(118.750422 325.830944) scale(0.11 -0.11)">
     <use xlink:href="#CMSS17-33" transform="scale(0.996264)"/>
    </g>
   </g>
   <g id="text_12">
    <!-- 4 -->
    <g style="fill: #555555" transform="translate(93.241177 347.235742) scale(0.11 -0.11)">
     <use xlink:href="#CMSS17-34" transform="scale(0.996264)"/>
    </g>
   </g>
   <g id="text_13">
    <!-- 5 -->
    <g style="fill: #555555" transform="translate(67.731933 368.64054) scale(0.11 -0.11)">
     <use xlink:href="#CMSS17-35" transform="scale(0.996264)"/>
    </g>
   </g>
   <g id="text_14">
    <!-- -5 -->
    <g style="fill: #555555" transform="translate(16.888325 272.36596) scale(0.11 -0.11)">
     <use xlink:href="#CMSS17-2d" transform="scale(0.996264)"/>
     <use xlink:href="#CMSS17-35" transform="translate(31.229113 0) scale(0.996264)"/>
    </g>
   </g>
   <g id="text_15">
    <!-- -4 -->
    <g style="fill: #555555" transform="translate(53.630759 272.36596) scale(0.11 -0.11)">
     <use xlink:href="#CMSS17-2d" transform="scale(0.996264)"/>
     <use xlink:href="#CMSS17-34" transform="translate(31.229113 0) scale(0.996264)"/>
    </g>
   </g>
   <g id="text_16">
    <!-- -3 -->
    <g style="fill: #555555" transform="translate(90.373194 272.36596) scale(0.11 -0.11)">
     <use xlink:href="#CMSS17-2d" transform="scale(0.996264)"/>
     <use xlink:href="#CMSS17-33" transform="translate(31.229113 0) scale(0.996264)"/>
    </g>
   </g>
   <g id="text_17">
    <!-- -2 -->
    <g style="fill: #555555" transform="translate(127.115628 272.36596) scale(0.11 -0.11)">
     <use xlink:href="#CMSS17-2d" transform="scale(0.996264)"/>
     <use xlink:href="#CMSS17-32" transform="translate(31.229113 0) scale(0.996264)"/>
    </g>
   </g>
   <g id="text_18">
    <!-- -1 -->
    <g style="fill: #555555" transform="translate(163.858062 272.36596) scale(0.11 -0.11)">
     <use xlink:href="#CMSS17-2d" transform="scale(0.996264)"/>
     <use xlink:href="#CMSS17-31" transform="translate(31.229113 0) scale(0.996264)"/>
    </g>
   </g>
   <g id="text_19">
    <!-- 1 -->
    <g style="fill: #555555" transform="translate(239.169417 272.36596) scale(0.11 -0.11)">
     <use xlink:href="#CMSS17-31" transform="scale(0.996264)"/>
    </g>
   </g>
   <g id="text_20">
    <!-- 2 -->
    <g style="fill: #555555" transform="translate(275.911851 272.36596) scale(0.11 -0.11)">
     <use xlink:href="#CMSS17-32" transform="scale(0.996264)"/>
    </g>
   </g>
   <g id="text_21">
    <!-- 3 -->
    <g style="fill: #555555" transform="translate(312.654285 272.36596) scale(0.11 -0.11)">
     <use xlink:href="#CMSS17-33" transform="scale(0.996264)"/>
    </g>
   </g>
   <g id="text_22">
    <!-- 4 -->
    <g style="fill: #555555" transform="translate(349.396719 272.36596) scale(0.11 -0.11)">
     <use xlink:href="#CMSS17-34" transform="scale(0.996264)"/>
    </g>
   </g>
   <g id="text_23">
    <!-- 5 -->
    <g style="fill: #555555" transform="translate(386.139153 272.36596) scale(0.11 -0.11)">
     <use xlink:href="#CMSS17-35" transform="scale(0.996264)"/>
    </g>
   </g>
   <g id="text_24">
    <!-- 1 -->
    <g style="fill: #555555" transform="translate(190.50164 224.874116) scale(0.11 -0.11)">
     <use xlink:href="#CMSS17-31" transform="scale(0.996264)"/>
    </g>
   </g>
   <g id="text_25">
    <!-- 2 -->
    <g style="fill: #555555" transform="translate(190.50164 188.131682) scale(0.11 -0.11)">
     <use xlink:href="#CMSS17-32" transform="scale(0.996264)"/>
    </g>
   </g>
   <g id="text_26">
    <!-- 3 -->
    <g style="fill: #555555" transform="translate(190.50164 151.389247) scale(0.11 -0.11)">
     <use xlink:href="#CMSS17-33" transform="scale(0.996264)"/>
    </g>
   </g>
   <g id="text_27">
    <!-- 4 -->
    <g style="fill: #555555" transform="translate(190.50164 114.646813) scale(0.11 -0.11)">
     <use xlink:href="#CMSS17-34" transform="scale(0.996264)"/>
    </g>
   </g>
   <g id="text_28">
    <!-- 5 -->
    <g style="fill: #555555" transform="translate(190.50164 77.904379) scale(0.11 -0.11)">
     <use xlink:href="#CMSS17-35" transform="scale(0.996264)"/>
    </g>
   </g>
   <g id="line2d_33">
    <path d="M 213.357039 234.268713 
L 217.337412 234.151455 
L 221.553659 233.800967 
L 225.959587 233.221088 
L 230.890698 232.341452 
L 235.924346 231.211408 
L 240.995816 229.845483 
L 246.039908 228.261238 
L 250.991774 226.479041 
L 255.787752 224.521804 
L 260.366182 222.414689 
L 264.668203 220.184787 
L 268.346066 218.042205 
L 271.700943 215.842887 
L 274.696076 213.610932 
L 277.097488 211.557184 
L 279.146883 209.515467 
L 280.688556 207.685626 
L 281.911936 205.895195 
L 282.733091 204.328772 
L 283.283793 202.814971 
L 283.560646 201.363126 
L 283.595426 200.586627 
L 283.595426 200.586627 
" clip-path="url(#p3a88c693b3)" style="fill: none; stroke: #d62728; stroke-opacity: 0.7; stroke-width: 1.625; stroke-linecap: round"/>
   </g>
   <g id="line2d_34">
    <path d="M 194.137142 225.141203 
L 194.140404 225.293745 
L 194.147072 225.44534 
L 194.157146 225.595977 
L 194.170625 225.745644 
L 194.187507 225.894331 
L 194.207791 226.042025 
L 194.231477 226.188715 
L 194.258562 226.334391 
L 194.289044 226.479041 
L 194.32292 226.622654 
L 194.360189 226.765219 
L 194.400847 226.906726 
L 194.444891 227.047163 
L 194.492318 227.186521 
L 194.543124 227.324787 
L 194.597306 227.461952 
L 194.654859 227.598006 
L 194.715778 227.732937 
L 194.78006 227.866736 
L 194.8477 227.999393 
L 194.918691 228.130897 
L 194.993029 228.261238 
L 195.070709 228.390407 
L 195.151724 228.518393 
L 195.236067 228.645188 
L 195.323733 228.77078 
L 195.414716 228.895161 
L 195.509007 229.018321 
L 195.6066 229.140251 
L 195.707487 229.260942 
L 195.811661 229.380384 
L 195.919114 229.498567 
L 196.029838 229.615485 
L 196.143824 229.731126 
L 196.261063 229.845483 
L 196.381546 229.958547 
L 196.505265 230.070309 
L 196.63221 230.180761 
L 196.762372 230.289893 
L 196.89574 230.397699 
L 197.032303 230.50417 
L 197.172053 230.609297 
L 197.314978 230.713073 
L 197.461067 230.815489 
L 197.61031 230.916539 
L 197.762694 231.016213 
L 197.918208 231.114506 
L 198.076841 231.211408 
L 198.23858 231.306913 
L 198.403413 231.401014 
L 198.571327 231.493703 
L 198.74231 231.584973 
L 198.916349 231.674818 
L 199.09343 231.76323 
L 199.273539 231.850203 
L 199.456664 231.93573 
L 199.642791 232.019804 
L 199.831904 232.10242 
L 200.023989 232.183571 
L 200.219033 232.26325 
L 200.41702 232.341452 
L 200.617935 232.418171 
L 200.821763 232.493401 
L 201.028488 232.567136 
L 201.238094 232.63937 
L 201.450566 232.710098 
L 201.665887 232.779315 
L 201.884042 232.847016 
L 202.105012 232.913194 
L 202.328782 232.977846 
L 202.555335 233.040966 
L 202.784653 233.102549 
L 203.016718 233.162591 
L 203.251514 233.221088 
L 203.489022 233.278034 
L 203.729224 233.333425 
L 203.972102 233.387258 
L 204.217637 233.439528 
L 204.46581 233.49023 
L 204.716604 233.539362 
L 204.969998 233.58692 
L 205.225973 233.632899 
L 205.484511 233.677297 
L 205.74559 233.72011 
L 206.009192 233.761334 
L 206.275296 233.800967 
L 206.543882 233.839006 
L 206.814929 233.875447 
L 207.088417 233.910288 
L 207.364325 233.943526 
L 207.642632 233.975159 
L 207.923317 234.005185 
L 208.206359 234.0336 
L 208.491735 234.060403 
L 208.779424 234.085592 
L 209.069405 234.109165 
L 209.361655 234.13112 
L 209.656151 234.151455 
L 209.952872 234.17017 
L 210.251795 234.187261 
L 210.552897 234.202729 
L 210.856156 234.216572 
L 211.161547 234.228789 
L 211.469048 234.239379 
L 211.778636 234.248341 
L 212.090286 234.255674 
L 212.403976 234.261378 
L 212.71968 234.265453 
L 213.037376 234.267898 
L 213.357039 234.268713 
" clip-path="url(#p3a88c693b3)" style="fill: none; stroke: #d62728; stroke-opacity: 0.7; stroke-width: 1.625; stroke-linecap: round"/>
   </g>
   <g id="line2d_35">
    <path d="M 213.357039 234.268713 
L 213.474479 230.648563 
L 213.825716 226.86466 
L 214.407517 222.951843 
L 215.214524 218.94614 
L 216.342958 214.513702 
L 217.718162 210.063189 
L 219.325069 205.64336 
L 221.146074 201.302642 
L 223.161225 197.088591 
L 225.348444 193.047379 
L 227.683767 189.22328 
L 229.932758 185.944417 
L 232.264006 182.913419 
L 234.656044 180.158192 
L 237.086849 177.704107 
L 239.311482 175.753512 
L 241.532726 174.085349 
L 243.733677 172.712315 
L 245.683333 171.737603 
L 247.59096 171.016449 
L 249.444795 170.553298 
L 251.233411 170.351006 
L 251.813204 170.341806 
L 251.813204 170.341806 
" clip-path="url(#p3a88c693b3)" style="fill: none; stroke: #d62728; stroke-opacity: 0.7; stroke-width: 1.625; stroke-linecap: round"/>
   </g>
   <g id="line2d_36">
    <path d="M 225.919364 255.386024 
L 225.728052 255.382614 
L 225.53774 255.375967 
L 225.348444 255.366081 
L 225.160177 255.352959 
L 224.972954 255.336602 
L 224.786788 255.31701 
L 224.601695 255.294185 
L 224.417689 255.268128 
L 224.234782 255.238843 
L 224.05299 255.20633 
L 223.872326 255.170593 
L 223.692804 255.131635 
L 223.514437 255.089457 
L 223.33724 255.044063 
L 223.161225 254.995458 
L 222.986406 254.943644 
L 222.812796 254.888625 
L 222.640409 254.830406 
L 222.469257 254.768992 
L 222.299355 254.704386 
L 222.130714 254.636593 
L 221.963347 254.56562 
L 221.797268 254.49147 
L 221.632488 254.414151 
L 221.469021 254.333668 
L 221.306879 254.250026 
L 221.146074 254.163233 
L 220.986618 254.073294 
L 220.828524 253.980217 
L 220.671804 253.884009 
L 220.516469 253.784678 
L 220.362532 253.68223 
L 220.210003 253.576673 
L 220.058896 253.468016 
L 219.909221 253.356267 
L 219.760989 253.241435 
L 219.614213 253.123527 
L 219.468902 253.002553 
L 219.325069 252.878523 
L 219.182724 252.751446 
L 219.041877 252.621331 
L 218.902541 252.488188 
L 218.764725 252.352027 
L 218.628439 252.21286 
L 218.493695 252.070696 
L 218.360503 251.925546 
L 218.228871 251.777421 
L 218.098812 251.626333 
L 217.970334 251.472294 
L 217.843447 251.315314 
L 217.718162 251.155405 
L 217.594486 250.992581 
L 217.472431 250.826853 
L 217.352005 250.658234 
L 217.233217 250.486737 
L 217.116077 250.312375 
L 217.000593 250.135161 
L 216.886775 249.955108 
L 216.77463 249.772231 
L 216.664167 249.586543 
L 216.555396 249.398059 
L 216.448323 249.206792 
L 216.342958 249.012758 
L 216.239307 248.815971 
L 216.13738 248.616446 
L 216.037184 248.414198 
L 215.938727 248.209243 
L 215.842015 248.001596 
L 215.747057 247.791274 
L 215.653859 247.578292 
L 215.562429 247.362665 
L 215.472774 247.144412 
L 215.3849 246.923548 
L 215.298815 246.700091 
L 215.214524 246.474056 
L 215.132034 246.245462 
L 215.051352 246.014326 
L 214.972484 245.780666 
L 214.895435 245.544498 
L 214.820211 245.305842 
L 214.746819 245.064716 
L 214.675264 244.821137 
L 214.60555 244.575124 
L 214.537685 244.326697 
L 214.471672 244.075873 
L 214.407517 243.822673 
L 214.345224 243.567115 
L 214.284799 243.309219 
L 214.226246 243.049004 
L 214.169569 242.786491 
L 214.114773 242.521699 
L 214.061862 242.254648 
L 214.010839 241.985359 
L 213.96171 241.713852 
L 213.914477 241.440149 
L 213.869145 241.164269 
L 213.825716 240.886234 
L 213.784194 240.606065 
L 213.744582 240.323783 
L 213.706883 240.03941 
L 213.6711 239.752968 
L 213.637236 239.464477 
L 213.605293 239.173962 
L 213.575274 238.881442 
L 213.547181 238.586941 
L 213.521016 238.290482 
L 213.496781 237.992086 
L 213.474479 237.691776 
L 213.45411 237.389576 
L 213.435676 237.085507 
L 213.419178 236.779595 
L 213.404619 236.471861 
L 213.391999 236.162329 
L 213.381318 235.851023 
L 213.372579 235.537966 
L 213.365781 235.223183 
L 213.360924 234.906697 
L 213.35801 234.588532 
L 213.357039 234.268713 
" clip-path="url(#p3a88c693b3)" style="fill: none; stroke: #d62728; stroke-opacity: 0.7; stroke-width: 1.625; stroke-linecap: round"/>
   </g>
   <g id="patch_6">
    <path d="M 238.866284 249.606349 
C 248.610491 249.606349 257.956913 245.734935 264.847108 238.84474 
C 271.737304 231.954544 275.608718 222.608123 275.608718 212.863915 
C 275.608718 203.119708 271.737304 193.773286 264.847108 186.883091 
C 257.956913 179.992896 248.610491 176.121481 238.866284 176.121481 
C 229.122077 176.121481 219.775655 179.992896 212.88546 186.883091 
C 205.995265 193.773286 202.12385 203.119708 202.12385 212.863915 
C 202.12385 222.608123 205.995265 231.954544 212.88546 238.84474 
C 219.775655 245.734935 229.122077 249.606349 238.866284 249.606349 
L 238.866284 249.606349 
z
" clip-path="url(#p9684090e3d)" style="fill: none; stroke: #d62728; stroke-width: 2.5; stroke-linejoin: miter"/>
   </g>
  </g>
 </g>
 <defs>
  <clipPath id="p9684090e3d">
   <rect x="2" y="37.250334" width="428" height="357.499333"/>
  </clipPath>
  <clipPath id="p3a88c693b3">
   <path d="M 238.866284 249.606349 
C 248.610491 249.606349 257.956913 245.734935 264.847108 238.84474 
C 271.737304 231.954544 275.608718 222.608123 275.608718 212.863915 
C 275.608718 203.119708 271.737304 193.773286 264.847108 186.883091 
C 257.956913 179.992896 248.610491 176.121481 238.866284 176.121481 
C 229.122077 176.121481 219.775655 179.992896 212.88546 186.883091 
C 205.995265 193.773286 202.12385 203.119708 202.12385 212.863915 
C 202.12385 222.608123 205.995265 231.954544 212.88546 238.84474 
C 219.775655 245.734935 229.122077 249.606349 238.866284 249.606349 
z
"/>
  </clipPath>
 </defs>
</svg>
