<?xml version="1.0" encoding="utf-8" standalone="no"?>
<!DOCTYPE svg PUBLIC "-//W3C//DTD SVG 1.1//EN"
  "http://www.w3.org/Graphics/SVG/1.1/DTD/svg11.dtd">
<svg xmlns:xlink="http://www.w3.org/1999/xlink" width="432pt" height="432pt" viewBox="0 0 432 432" xmlns="http://www.w3.org/2000/svg" version="1.1">
 <metadata>
  <rdf:RDF xmlns:dc="http://purl.org/dc/elements/1.1/" xmlns:cc="http://creativecommons.org/ns#" xmlns:rdf="http://www.w3.org/1999/02/22-rdf-syntax-ns#">
   <cc:Work>
    <dc:type rdf:resource="http://purl.org/dc/dcmitype/StillImage"/>
    <dc:date>2026-06-02T18:34:43.251337</dc:date>
    <dc:format>image/svg+xml</dc:format>
    <dc:creator>
     <cc:Agent>
      <dc:title>Matplotlib v3.10.8, https://matplotlib.org/</dc:title>
     </cc:Agent>
    </dc:creator>
   </cc:Work>
  </rdf:RDF>
 </metadata>
 <defs>
  <style type="text/css">*{stroke-linejoin: round; stroke-linecap: butt}</style>
 </defs>
 <g id="figure_1">
  <g id="patch_1">
   <path d="M 0 432 
L 432 432 
L 432 0 
L 0 0 
L 0 432 
z
" style="fill: none"/>
  </g>
  <g id="axes_1">
   <g id="line2d_1">
    <path d="M 205.166716 279.452577 
L 332.71294 172.428587 
" clip-path="url(#p7f8fba615f)" style="fill: none; stroke-dasharray: 7,7; stroke-dashoffset: 0; stroke: #333333; stroke-opacity: 0.4; stroke-width: 1.75"/>
   </g>
   <g id="line2d_2">
    <path d="M 205.166716 279.452577 
L 21.454545 279.452577 
" clip-path="url(#p7f8fba615f)" style="fill: none; stroke-dasharray: 7,7; stroke-dashoffset: 0; stroke: #333333; stroke-opacity: 0.4; stroke-width: 1.75"/>
   </g>
   <g id="patch_2">
    <path d="M 205.166716 279.452577 
L 77.620492 386.476566 
L 205.166716 95.740406 
z
" clip-path="url(#p7f8fba615f)" style="fill: #1f77b4; opacity: 0.024"/>
   </g>
   <g id="patch_3">
    <path d="M 176.614605 365.071768 
L 205.166716 279.452577 
L 205.166716 95.740406 
z
" clip-path="url(#p7f8fba615f)" style="fill: #1f77b4; opacity: 0.149691"/>
   </g>
   <g id="patch_4">
    <path d="M 205.166716 279.452577 
L 77.620492 386.476566 
L 176.614605 365.071768 
z
" clip-path="url(#p7f8fba615f)" style="fill: #1f77b4; opacity: 0.024"/>
   </g>
   <g id="patch_5">
    <path d="M 77.620492 386.476566 
L 176.614605 365.071768 
L 205.166716 95.740406 
z
" clip-path="url(#p7f8fba615f)" style="fill: #1f77b4; opacity: 0.120117"/>
   </g>
   <g id="patch_6">
    <path d="M 203.634355 280.73838 
Q 133.741237 339.38567 65.989278 396.236313 
" clip-path="url(#p7f8fba615f)" style="fill: none; stroke: #333333; stroke-width: 2.5; stroke-linecap: round"/>
    <path d="M 71.208982 394.989439 
L 65.989278 396.236313 
L 68.123602 391.312426 
z
" clip-path="url(#p7f8fba615f)" style="fill: #333333; stroke: #333333; stroke-width: 2.5; stroke-linecap: round"/>
   </g>
   <g id="patch_7">
    <path d="M 207.166649 279.452577 
Q 308.045924 279.452577 406.130114 279.452577 
" clip-path="url(#p7f8fba615f)" style="fill: none; stroke: #333333; stroke-width: 2.5; stroke-linecap: round"/>
    <path d="M 401.330114 277.052577 
L 406.130114 279.452577 
L 401.330114 281.852577 
z
" clip-path="url(#p7f8fba615f)" style="fill: #333333; stroke: #333333; stroke-width: 2.5; stroke-linecap: round"/>
   </g>
   <g id="patch_8">
    <path d="M 205.166716 277.452016 
Q 205.166716 155.997367 205.166716 37.337804 
" clip-path="url(#p7f8fba615f)" style="fill: none; stroke: #333333; stroke-width: 2.5; stroke-linecap: round"/>
    <path d="M 202.766716 42.137804 
L 205.166716 37.337804 
L 207.566716 42.137804 
z
" clip-path="url(#p7f8fba615f)" style="fill: #333333; stroke: #333333; stroke-width: 2.5; stroke-linecap: round"/>
   </g>
   <g id="text_1">
    <!-- $x$ -->
    <g style="fill: #333333" transform="translate(48.417445 408.145832) scale(0.17 -0.17)">
     <defs>
      <path id="CMMI12-78" d="M 3034 2606 
C 2829 2567 2752 2414 2752 2293 
C 2752 2139 2874 2088 2963 2088 
C 3155 2088 3290 2254 3290 2427 
C 3290 2695 2982 2816 2714 2816 
C 2323 2816 2106 2433 2048 2312 
C 1901 2816 1504 2816 1389 2816 
C 736 2816 390 1980 390 1839 
C 390 1814 416 1782 461 1782 
C 512 1782 525 1820 538 1846 
C 755 2555 1184 2689 1370 2689 
C 1658 2689 1715 2420 1715 2267 
C 1715 2127 1677 1980 1600 1673 
L 1382 798 
C 1286 415 1101 64 762 64 
C 730 64 570 64 435 147 
C 666 192 717 383 717 460 
C 717 588 621 664 499 664 
C 346 664 179 530 179 326 
C 179 57 480 -64 755 -64 
C 1062 -64 1280 179 1414 441 
C 1517 64 1837 -64 2074 -64 
C 2726 -64 3072 773 3072 913 
C 3072 945 3046 971 3008 971 
C 2950 971 2944 939 2925 888 
C 2752 326 2381 64 2093 64 
C 1869 64 1747 230 1747 492 
C 1747 632 1773 734 1875 1156 
L 2099 2024 
C 2195 2408 2413 2689 2707 2689 
C 2720 2689 2899 2689 3034 2606 
z
" transform="scale(0.015625)"/>
     </defs>
     <use xlink:href="#CMMI12-78" transform="scale(0.996264)"/>
    </g>
   </g>
   <g id="text_2">
    <!-- $y$ -->
    <g style="fill: #333333" transform="translate(416.067004 283.686159) scale(0.17 -0.17)">
     <defs>
      <path id="CMMI12-79" d="M 1683 -700 
C 1510 -939 1261 -1152 947 -1152 
C 870 -1152 563 -1152 467 -889 
C 486 -895 518 -895 531 -895 
C 723 -895 851 -729 851 -582 
C 851 -435 730 -384 634 -384 
C 531 -384 307 -458 307 -759 
C 307 -1071 582 -1286 947 -1286 
C 1587 -1286 2234 -700 2413 6 
L 3040 2485 
C 3046 2517 3059 2556 3059 2594 
C 3059 2689 2982 2753 2886 2753 
C 2829 2753 2694 2727 2643 2535 
L 2170 658 
C 2138 543 2138 530 2086 460 
C 1958 281 1747 64 1440 64 
C 1082 64 1050 415 1050 588 
C 1050 952 1222 1443 1395 1903 
C 1466 2088 1504 2178 1504 2305 
C 1504 2574 1312 2816 998 2816 
C 410 2816 173 1890 173 1839 
C 173 1814 198 1782 243 1782 
C 301 1782 307 1807 333 1897 
C 486 2433 730 2689 979 2689 
C 1037 2689 1146 2689 1146 2478 
C 1146 2312 1075 2127 979 1884 
C 666 1047 666 837 666 683 
C 666 77 1101 -64 1421 -64 
C 1606 -64 1837 -6 2061 230 
L 2067 224 
C 1971 -147 1907 -392 1683 -700 
z
" transform="scale(0.015625)"/>
     </defs>
     <use xlink:href="#CMMI12-79" transform="scale(0.996264)"/>
    </g>
   </g>
   <g id="text_3">
    <!-- $z$ -->
    <g style="fill: #333333" transform="translate(201.314881 27.591393) scale(0.17 -0.17)">
     <defs>
      <path id="CMMI12-7a" d="M 813 486 
C 1088 803 1312 1004 1632 1296 
C 2016 1632 2182 1793 2272 1891 
C 2720 2338 2944 2713 2944 2764 
C 2944 2816 2893 2816 2880 2816 
C 2835 2816 2822 2793 2790 2750 
C 2630 2494 2477 2367 2310 2367 
C 2176 2367 2106 2421 1984 2565 
C 1850 2715 1741 2816 1555 2816 
C 1088 2816 806 2257 806 2128 
C 806 2108 813 2068 870 2068 
C 922 2068 928 2091 947 2133 
C 1056 2372 1363 2414 1485 2414 
C 1619 2414 1747 2376 1882 2327 
C 2125 2240 2227 2240 2291 2240 
C 2336 2240 2362 2240 2394 2246 
C 2182 1994 1837 1683 1549 1418 
L 902 816 
C 512 415 275 33 275 -12 
C 275 -51 307 -64 346 -64 
C 384 -64 390 -57 435 14 
C 538 163 742 384 979 384 
C 1114 384 1178 342 1306 193 
C 1427 61 1536 -64 1741 -64 
C 2368 -64 2726 732 2726 876 
C 2726 903 2720 942 2656 942 
C 2605 942 2598 917 2579 855 
C 2438 488 2061 338 1811 338 
C 1677 338 1549 376 1414 425 
C 1158 512 1088 512 1005 512 
C 941 512 870 512 813 486 
z
" transform="scale(0.015625)"/>
     </defs>
     <use xlink:href="#CMMI12-7a" transform="scale(0.996264)"/>
    </g>
   </g>
   <g id="line2d_3">
    <defs>
     <path id="mb3ae88e55b" d="M 0 1.5 
C 0.397805 1.5 0.77937 1.341951 1.06066 1.06066 
C 1.341951 0.77937 1.5 0.397805 1.5 0 
C 1.5 -0.397805 1.341951 -0.77937 1.06066 -1.06066 
C 0.77937 -1.341951 0.397805 -1.5 0 -1.5 
C -0.397805 -1.5 -0.77937 -1.341951 -1.06066 -1.06066 
C -1.341951 -0.77937 -1.5 -0.397805 -1.5 0 
C -1.5 0.397805 -1.341951 0.77937 -1.06066 1.06066 
C -0.77937 1.341951 -0.397805 1.5 0 1.5 
z
" style="stroke: #333333"/>
    </defs>
    <g clip-path="url(#p7f8fba615f)">
     <use xlink:href="#mb3ae88e55b" x="205.166716" y="279.452577" style="fill: #333333; stroke: #333333"/>
    </g>
   </g>
   <g id="line2d_4">
    <path d="M 205.166716 279.452577 
L 77.620492 386.476566 
" clip-path="url(#p7f8fba615f)" style="fill: none; stroke: #1f77b4; stroke-width: 2.5; stroke-linecap: round"/>
   </g>
   <g id="line2d_5">
    <path d="M 77.620492 386.476566 
L 176.614605 365.071768 
" clip-path="url(#p7f8fba615f)" style="fill: none; stroke: #1f77b4; stroke-width: 2.5; stroke-linecap: round"/>
   </g>
   <g id="line2d_6">
    <path d="M 176.614605 365.071768 
L 205.166716 279.452577 
" clip-path="url(#p7f8fba615f)" style="fill: none; stroke: #1f77b4; stroke-width: 2.5; stroke-linecap: round"/>
   </g>
   <g id="line2d_7">
    <path d="M 205.166716 279.452577 
L 205.166716 95.740406 
" clip-path="url(#p7f8fba615f)" style="fill: none; stroke: #1f77b4; stroke-width: 2.5; stroke-linecap: round"/>
   </g>
   <g id="line2d_8">
    <path d="M 77.620492 386.476566 
L 205.166716 95.740406 
" clip-path="url(#p7f8fba615f)" style="fill: none; stroke: #1f77b4; stroke-width: 2.5; stroke-linecap: round"/>
   </g>
   <g id="line2d_9">
    <path d="M 176.614605 365.071768 
L 205.166716 95.740406 
" clip-path="url(#p7f8fba615f)" style="fill: none; stroke: #1f77b4; stroke-width: 2.5; stroke-linecap: round"/>
   </g>
  </g>
 </g>
 <defs>
  <clipPath id="p7f8fba615f">
   <rect x="2" y="14.617005" width="428" height="402.765989"/>
  </clipPath>
 </defs>
</svg>
