<?xml version="1.0" encoding="utf-8" standalone="no"?>
<!DOCTYPE svg PUBLIC "-//W3C//DTD SVG 1.1//EN"
  "http://www.w3.org/Graphics/SVG/1.1/DTD/svg11.dtd">
<svg xmlns:xlink="http://www.w3.org/1999/xlink" width="432pt" height="432pt" viewBox="0 0 432 432" xmlns="http://www.w3.org/2000/svg" version="1.1">
 <metadata>
  <rdf:RDF xmlns:dc="http://purl.org/dc/elements/1.1/" xmlns:cc="http://creativecommons.org/ns#" xmlns:rdf="http://www.w3.org/1999/02/22-rdf-syntax-ns#">
   <cc:Work>
    <dc:type rdf:resource="http://purl.org/dc/dcmitype/StillImage"/>
    <dc:date>2026-06-02T20:02:15.099435</dc:date>
    <dc:format>image/svg+xml</dc:format>
    <dc:creator>
     <cc:Agent>
      <dc:title>Matplotlib v3.10.8, https://matplotlib.org/</dc:title>
     </cc:Agent>
    </dc:creator>
   </cc:Work>
  </rdf:RDF>
 </metadata>
 <defs>
  <style type="text/css">*{stroke-linejoin: round; stroke-linecap: butt}</style>
 </defs>
 <g id="figure_1">
  <g id="patch_1">
   <path d="M 0 432 
L 432 432 
L 432 0 
L 0 0 
L 0 432 
z
" style="fill: none"/>
  </g>
  <g id="axes_1">
   <g id="patch_2">
    <path d="M 86.986601 237.139612 
L 240.533756 237.139612 
L 349.10799 128.565378 
L 195.560835 128.565378 
z
" style="fill: #1f77b4; opacity: 0.25; stroke: #1f77b4; stroke-width: 2; stroke-linejoin: miter"/>
   </g>
   <g id="patch_3">
    <path d="M 123.178013 368.10917 
L 276.725167 368.10917 
L 276.725167 117.367716 
L 123.178013 117.367716 
z
" style="fill: #d62728; opacity: 0.25; stroke: #d62728; stroke-width: 2; stroke-linejoin: miter"/>
   </g>
   <g id="patch_4">
    <path d="M 88.984414 404.300581 
Q 201.633441 404.300581 311.487384 404.300581 
" clip-path="url(#p496913dd85)" style="fill: none; stroke: #333333; stroke-width: 2.5; stroke-linecap: round"/>
    <path d="M 306.687384 401.900581 
L 311.487384 404.300581 
L 306.687384 406.700581 
z
" clip-path="url(#p496913dd85)" style="fill: #333333; stroke: #333333; stroke-width: 2.5; stroke-linecap: round"/>
   </g>
   <g id="patch_5">
    <path d="M 88.399268 402.887914 
Q 168.054159 323.233023 245.732627 245.554555 
" clip-path="url(#p496913dd85)" style="fill: none; stroke: #333333; stroke-width: 2.5; stroke-linecap: round"/>
    <path d="M 240.641458 247.251611 
L 245.732627 245.554555 
L 244.035571 250.645724 
z
" clip-path="url(#p496913dd85)" style="fill: #333333; stroke: #333333; stroke-width: 2.5; stroke-linecap: round"/>
   </g>
   <g id="patch_6">
    <path d="M 86.986601 402.297996 
Q 86.986601 217.077782 86.986601 34.652654 
" clip-path="url(#p496913dd85)" style="fill: none; stroke: #333333; stroke-width: 2.5; stroke-linecap: round"/>
    <path d="M 84.586601 39.452654 
L 86.986601 34.652654 
L 89.386601 39.452654 
z
" clip-path="url(#p496913dd85)" style="fill: #333333; stroke: #333333; stroke-width: 2.5; stroke-linecap: round"/>
   </g>
   <g id="line2d_1">
    <path d="M 138.168986 410.98702 
L 138.168986 397.614142 
" clip-path="url(#p496913dd85)" style="fill: none; stroke: #555555; stroke-width: 0.8; stroke-linecap: square"/>
   </g>
   <g id="line2d_2">
    <path d="M 189.351371 410.98702 
L 189.351371 397.614142 
" clip-path="url(#p496913dd85)" style="fill: none; stroke: #555555; stroke-width: 0.8; stroke-linecap: square"/>
   </g>
   <g id="line2d_3">
    <path d="M 240.533756 410.98702 
L 240.533756 397.614142 
" clip-path="url(#p496913dd85)" style="fill: none; stroke: #555555; stroke-width: 0.8; stroke-linecap: square"/>
   </g>
   <g id="line2d_4">
    <path d="M 291.71614 410.98702 
L 291.71614 397.614142 
" clip-path="url(#p496913dd85)" style="fill: none; stroke: #555555; stroke-width: 0.8; stroke-linecap: square"/>
   </g>
   <g id="line2d_5">
    <path d="M 123.178013 374.795608 
L 123.178013 361.422731 
" clip-path="url(#p496913dd85)" style="fill: none; stroke: #555555; stroke-width: 0.8; stroke-linecap: square"/>
   </g>
   <g id="line2d_6">
    <path d="M 159.369424 338.604197 
L 159.369424 325.231319 
" clip-path="url(#p496913dd85)" style="fill: none; stroke: #555555; stroke-width: 0.8; stroke-linecap: square"/>
   </g>
   <g id="line2d_7">
    <path d="M 195.560835 302.412786 
L 195.560835 289.039908 
" clip-path="url(#p496913dd85)" style="fill: none; stroke: #555555; stroke-width: 0.8; stroke-linecap: square"/>
   </g>
   <g id="line2d_8">
    <path d="M 231.752247 266.221374 
L 231.752247 252.848497 
" clip-path="url(#p496913dd85)" style="fill: none; stroke: #555555; stroke-width: 0.8; stroke-linecap: square"/>
   </g>
   <g id="line2d_9">
    <path d="M 82.89201 320.720097 
L 91.081192 320.720097 
" clip-path="url(#p496913dd85)" style="fill: none; stroke: #555555; stroke-width: 0.8; stroke-linecap: square"/>
   </g>
   <g id="line2d_10">
    <path d="M 82.89201 237.139612 
L 91.081192 237.139612 
" clip-path="url(#p496913dd85)" style="fill: none; stroke: #555555; stroke-width: 0.8; stroke-linecap: square"/>
   </g>
   <g id="line2d_11">
    <path d="M 82.89201 153.559128 
L 91.081192 153.559128 
" clip-path="url(#p496913dd85)" style="fill: none; stroke: #555555; stroke-width: 0.8; stroke-linecap: square"/>
   </g>
   <g id="line2d_12">
    <path d="M 82.89201 69.978643 
L 91.081192 69.978643 
" clip-path="url(#p496913dd85)" style="fill: none; stroke: #555555; stroke-width: 0.8; stroke-linecap: square"/>
   </g>
   <g id="text_1">
    <!-- $x$ -->
    <g style="fill: #333333" transform="translate(332.466915 414.8027) scale(0.17 -0.17)">
     <defs>
      <path id="CMMI12-78" d="M 3034 2606 
C 2829 2567 2752 2414 2752 2293 
C 2752 2139 2874 2088 2963 2088 
C 3155 2088 3290 2254 3290 2427 
C 3290 2695 2982 2816 2714 2816 
C 2323 2816 2106 2433 2048 2312 
C 1901 2816 1504 2816 1389 2816 
C 736 2816 390 1980 390 1839 
C 390 1814 416 1782 461 1782 
C 512 1782 525 1820 538 1846 
C 755 2555 1184 2689 1370 2689 
C 1658 2689 1715 2420 1715 2267 
C 1715 2127 1677 1980 1600 1673 
L 1382 798 
C 1286 415 1101 64 762 64 
C 730 64 570 64 435 147 
C 666 192 717 383 717 460 
C 717 588 621 664 499 664 
C 346 664 179 530 179 326 
C 179 57 480 -64 755 -64 
C 1062 -64 1280 179 1414 441 
C 1517 64 1837 -64 2074 -64 
C 2726 -64 3072 773 3072 913 
C 3072 945 3046 971 3008 971 
C 2950 971 2944 939 2925 888 
C 2752 326 2381 64 2093 64 
C 1869 64 1747 230 1747 492 
C 1747 632 1773 734 1875 1156 
L 2099 2024 
C 2195 2408 2413 2689 2707 2689 
C 2720 2689 2899 2689 3034 2606 
z
" transform="scale(0.015625)"/>
     </defs>
     <use xlink:href="#CMMI12-78" transform="scale(0.996264)"/>
    </g>
   </g>
   <g id="text_2">
    <!-- $y$ -->
    <g style="fill: #333333" transform="translate(259.707757 231.770056) scale(0.17 -0.17)">
     <defs>
      <path id="CMMI12-79" d="M 1683 -700 
C 1510 -939 1261 -1152 947 -1152 
C 870 -1152 563 -1152 467 -889 
C 486 -895 518 -895 531 -895 
C 723 -895 851 -729 851 -582 
C 851 -435 730 -384 634 -384 
C 531 -384 307 -458 307 -759 
C 307 -1071 582 -1286 947 -1286 
C 1587 -1286 2234 -700 2413 6 
L 3040 2485 
C 3046 2517 3059 2556 3059 2594 
C 3059 2689 2982 2753 2886 2753 
C 2829 2753 2694 2727 2643 2535 
L 2170 658 
C 2138 543 2138 530 2086 460 
C 1958 281 1747 64 1440 64 
C 1082 64 1050 415 1050 588 
C 1050 952 1222 1443 1395 1903 
C 1466 2088 1504 2178 1504 2305 
C 1504 2574 1312 2816 998 2816 
C 410 2816 173 1890 173 1839 
C 173 1814 198 1782 243 1782 
C 301 1782 307 1807 333 1897 
C 486 2433 730 2689 979 2689 
C 1037 2689 1146 2689 1146 2478 
C 1146 2312 1075 2127 979 1884 
C 666 1047 666 837 666 683 
C 666 77 1101 -64 1421 -64 
C 1606 -64 1837 -6 2061 230 
L 2067 224 
C 1971 -147 1907 -392 1683 -700 
z
" transform="scale(0.015625)"/>
     </defs>
     <use xlink:href="#CMMI12-79" transform="scale(0.996264)"/>
    </g>
   </g>
   <g id="text_3">
    <!-- $z$ -->
    <g style="fill: #333333" transform="translate(83.134766 13.198472) scale(0.17 -0.17)">
     <defs>
      <path id="CMMI12-7a" d="M 813 486 
C 1088 803 1312 1004 1632 1296 
C 2016 1632 2182 1793 2272 1891 
C 2720 2338 2944 2713 2944 2764 
C 2944 2816 2893 2816 2880 2816 
C 2835 2816 2822 2793 2790 2750 
C 2630 2494 2477 2367 2310 2367 
C 2176 2367 2106 2421 1984 2565 
C 1850 2715 1741 2816 1555 2816 
C 1088 2816 806 2257 806 2128 
C 806 2108 813 2068 870 2068 
C 922 2068 928 2091 947 2133 
C 1056 2372 1363 2414 1485 2414 
C 1619 2414 1747 2376 1882 2327 
C 2125 2240 2227 2240 2291 2240 
C 2336 2240 2362 2240 2394 2246 
C 2182 1994 1837 1683 1549 1418 
L 902 816 
C 512 415 275 33 275 -12 
C 275 -51 307 -64 346 -64 
C 384 -64 390 -57 435 14 
C 538 163 742 384 979 384 
C 1114 384 1178 342 1306 193 
C 1427 61 1536 -64 1741 -64 
C 2368 -64 2726 732 2726 876 
C 2726 903 2720 942 2656 942 
C 2605 942 2598 917 2579 855 
C 2438 488 2061 338 1811 338 
C 1677 338 1549 376 1414 425 
C 1158 512 1088 512 1005 512 
C 941 512 870 512 813 486 
z
" transform="scale(0.015625)"/>
     </defs>
     <use xlink:href="#CMMI12-7a" transform="scale(0.996264)"/>
    </g>
   </g>
   <g id="line2d_13">
    <defs>
     <path id="mc90f8d1ef1" d="M 0 1.5 
C 0.397805 1.5 0.77937 1.341951 1.06066 1.06066 
C 1.341951 0.77937 1.5 0.397805 1.5 0 
C 1.5 -0.397805 1.341951 -0.77937 1.06066 -1.06066 
C 0.77937 -1.341951 0.397805 -1.5 0 -1.5 
C -0.397805 -1.5 -0.77937 -1.341951 -1.06066 -1.06066 
C -1.341951 -0.77937 -1.5 -0.397805 -1.5 0 
C -1.5 0.397805 -1.341951 0.77937 -1.06066 1.06066 
C -0.77937 1.341951 -0.397805 1.5 0 1.5 
z
" style="stroke: #333333"/>
    </defs>
    <g clip-path="url(#p496913dd85)">
     <use xlink:href="#mc90f8d1ef1" x="86.986601" y="404.300581" style="fill: #333333; stroke: #333333"/>
    </g>
   </g>
   <g id="text_4">
    <!-- 1 -->
    <g style="fill: #555555" transform="translate(135.429252 417.260079) scale(0.11 -0.11)">
     <defs>
      <path id="CMSS17-31" d="M 1818 4288 
L 1696 4288 
C 1350 3940 947 3890 538 3890 
L 538 3520 
C 723 3520 1024 3520 1325 3667 
L 1325 369 
L 570 369 
L 570 0 
L 2573 0 
L 2573 369 
L 1818 369 
L 1818 4288 
z
" transform="scale(0.015625)"/>
     </defs>
     <use xlink:href="#CMSS17-31" transform="scale(0.996264)"/>
    </g>
   </g>
   <g id="text_5">
    <!-- 2 -->
    <g style="fill: #555555" transform="translate(186.611637 417.260079) scale(0.11 -0.11)">
     <defs>
      <path id="CMSS17-32" d="M 1651 1357 
C 1830 1541 2099 1764 2285 1987 
C 2464 2204 2701 2511 2701 2957 
C 2701 3657 2227 4288 1421 4288 
C 787 4288 422 3893 250 3274 
L 499 2929 
C 640 3510 838 3880 1338 3880 
C 1888 3880 2195 3433 2195 2942 
C 2195 2355 1747 1901 1408 1563 
C 1030 1187 659 804 301 408 
L 301 0 
L 2701 0 
L 2701 433 
L 1613 433 
C 1536 433 1459 433 1382 433 
L 742 433 
L 742 439 
L 1651 1357 
z
" transform="scale(0.015625)"/>
     </defs>
     <use xlink:href="#CMSS17-32" transform="scale(0.996264)"/>
    </g>
   </g>
   <g id="text_6">
    <!-- 3 -->
    <g style="fill: #555555" transform="translate(237.794022 417.260079) scale(0.11 -0.11)">
     <defs>
      <path id="CMSS17-33" d="M 1005 2025 
L 1440 2025 
C 2042 2025 2214 1507 2214 1146 
C 2214 653 1933 267 1472 267 
C 1114 267 608 444 320 912 
C 275 691 275 678 250 526 
C 550 88 1037 -128 1485 -128 
C 2214 -128 2752 473 2752 1138 
C 2752 1638 2400 2057 1920 2215 
C 2304 2424 2586 2816 2586 3273 
C 2586 3805 2093 4229 1491 4229 
C 941 4229 512 3892 333 3530 
C 378 3468 493 3284 550 3189 
C 691 3562 1056 3840 1485 3840 
C 1843 3840 2080 3607 2080 3271 
C 2080 2923 1856 2543 1478 2455 
C 1453 2455 1056 2417 1005 2411 
L 1005 2025 
z
" transform="scale(0.015625)"/>
     </defs>
     <use xlink:href="#CMSS17-33" transform="scale(0.996264)"/>
    </g>
   </g>
   <g id="text_7">
    <!-- 4 -->
    <g style="fill: #555555" transform="translate(288.976407 417.260079) scale(0.11 -0.11)">
     <defs>
      <path id="CMSS17-34" d="M 2253 1088 
L 2835 1088 
L 2835 1477 
L 2253 1477 
L 2253 4192 
L 1690 4192 
L 166 1477 
L 166 1088 
L 1747 1088 
L 1747 0 
L 2253 0 
L 2253 1088 
z
M 659 1477 
C 1030 2127 1766 3439 1766 3885 
L 1766 1477 
L 659 1477 
z
" transform="scale(0.015625)"/>
     </defs>
     <use xlink:href="#CMSS17-34" transform="scale(0.996264)"/>
    </g>
   </g>
   <g id="text_8">
    <!-- 1 -->
    <g style="fill: #555555" transform="translate(126.521232 381.068667) scale(0.11 -0.11)">
     <use xlink:href="#CMSS17-31" transform="scale(0.996264)"/>
    </g>
   </g>
   <g id="text_9">
    <!-- 2 -->
    <g style="fill: #555555" transform="translate(162.712643 344.877256) scale(0.11 -0.11)">
     <use xlink:href="#CMSS17-32" transform="scale(0.996264)"/>
    </g>
   </g>
   <g id="text_10">
    <!-- 3 -->
    <g style="fill: #555555" transform="translate(198.904055 308.685845) scale(0.11 -0.11)">
     <use xlink:href="#CMSS17-33" transform="scale(0.996264)"/>
    </g>
   </g>
   <g id="text_11">
    <!-- 4 -->
    <g style="fill: #555555" transform="translate(235.095466 272.494433) scale(0.11 -0.11)">
     <use xlink:href="#CMSS17-34" transform="scale(0.996264)"/>
    </g>
   </g>
   <g id="text_12">
    <!-- 1 -->
    <g style="fill: #555555" transform="translate(73.233519 323.459823) scale(0.11 -0.11)">
     <use xlink:href="#CMSS17-31" transform="scale(0.996264)"/>
    </g>
   </g>
   <g id="text_13">
    <!-- 2 -->
    <g style="fill: #555555" transform="translate(73.233519 239.879338) scale(0.11 -0.11)">
     <use xlink:href="#CMSS17-32" transform="scale(0.996264)"/>
    </g>
   </g>
   <g id="text_14">
    <!-- 3 -->
    <g style="fill: #555555" transform="translate(73.233519 156.298854) scale(0.11 -0.11)">
     <use xlink:href="#CMSS17-33" transform="scale(0.996264)"/>
    </g>
   </g>
   <g id="text_15">
    <!-- 4 -->
    <g style="fill: #555555" transform="translate(73.233519 72.71837) scale(0.11 -0.11)">
     <use xlink:href="#CMSS17-34" transform="scale(0.996264)"/>
    </g>
   </g>
  </g>
 </g>
 <defs>
  <clipPath id="p496913dd85">
   <rect x="69.581211" y="11.714433" width="292.837577" height="418.285567"/>
  </clipPath>
 </defs>
</svg>
