<?xml version="1.0" encoding="utf-8" standalone="no"?>
<!DOCTYPE svg PUBLIC "-//W3C//DTD SVG 1.1//EN"
  "http://www.w3.org/Graphics/SVG/1.1/DTD/svg11.dtd">
<svg xmlns:xlink="http://www.w3.org/1999/xlink" width="432pt" height="432pt" viewBox="0 0 432 432" xmlns="http://www.w3.org/2000/svg" version="1.1">
 <metadata>
  <rdf:RDF xmlns:dc="http://purl.org/dc/elements/1.1/" xmlns:cc="http://creativecommons.org/ns#" xmlns:rdf="http://www.w3.org/1999/02/22-rdf-syntax-ns#">
   <cc:Work>
    <dc:type rdf:resource="http://purl.org/dc/dcmitype/StillImage"/>
    <dc:date>2026-06-02T18:34:42.934629</dc:date>
    <dc:format>image/svg+xml</dc:format>
    <dc:creator>
     <cc:Agent>
      <dc:title>Matplotlib v3.10.8, https://matplotlib.org/</dc:title>
     </cc:Agent>
    </dc:creator>
   </cc:Work>
  </rdf:RDF>
 </metadata>
 <defs>
  <style type="text/css">*{stroke-linejoin: round; stroke-linecap: butt}
    /* plot3d: counteract dark-mode colour inversion on sphere fills */
    @media (prefers-color-scheme: dark) { #sphere_fill_1405b840 { filter: invert(1) hue-rotate(180deg); } }
    [data-theme="dark"] #sphere_fill_1405b840,
    .dark #sphere_fill_1405b840 { filter: invert(1) hue-rotate(180deg); }
  </style>
 
  <radialGradient id="sg_sphere_fill_1405b840" cx="0.38" cy="0.38" r="0.72" fx="0.28" fy="0.28" gradientUnits="objectBoundingBox">
    <stop offset="0%"   stop-color="#7db0d3" stop-opacity="0.420"/>
    <stop offset="45%"  stop-color="#1f77b4" stop-opacity="0.400"/>
    <stop offset="100%" stop-color="#103d5d" stop-opacity="0.140"/>
  </radialGradient>
 </defs>
 <g id="figure_1">
  <g id="patch_1">
   <path d="M 0 432 
L 432 432 
L 432 0 
L 0 0 
L 0 432 
z
" style="fill: none"/>
  </g>
  <g id="axes_1">
   <g id="line2d_1">
    <path d="M 205.166716 226.832175 
L 332.71294 119.808185 
" clip-path="url(#p966111f496)" style="fill: none; stroke-dasharray: 7,7; stroke-dashoffset: 0; stroke: #333333; stroke-opacity: 0.4; stroke-width: 1.75"/>
   </g>
   <g id="line2d_2">
    <path d="M 205.166716 226.832175 
L 21.454545 226.832175 
" clip-path="url(#p966111f496)" style="fill: none; stroke-dasharray: 7,7; stroke-dashoffset: 0; stroke: #333333; stroke-opacity: 0.4; stroke-width: 1.75"/>
   </g>
   <g id="line2d_3">
    <path d="M 205.166716 226.832175 
L 205.166716 410.544346 
" clip-path="url(#p966111f496)" style="fill: none; stroke-dasharray: 7,7; stroke-dashoffset: 0; stroke: #333333; stroke-opacity: 0.4; stroke-width: 1.75"/>
   </g>
   <g id="patch_2">
    <path d="M 203.634355 228.117978 
Q 133.741237 286.765268 65.989278 343.615912 
" clip-path="url(#p966111f496)" style="fill: none; stroke: #333333; stroke-width: 2.5; stroke-linecap: round"/>
    <path d="M 71.208982 342.369038 
L 65.989278 343.615912 
L 68.123602 338.692024 
z
" clip-path="url(#p966111f496)" style="fill: #333333; stroke: #333333; stroke-width: 2.5; stroke-linecap: round"/>
   </g>
   <g id="patch_3">
    <path d="M 207.166649 226.832175 
Q 308.045924 226.832175 406.130114 226.832175 
" clip-path="url(#p966111f496)" style="fill: none; stroke: #333333; stroke-width: 2.5; stroke-linecap: round"/>
    <path d="M 401.330114 224.432175 
L 406.130114 226.832175 
L 401.330114 229.232175 
z
" clip-path="url(#p966111f496)" style="fill: #333333; stroke: #333333; stroke-width: 2.5; stroke-linecap: round"/>
   </g>
   <g id="patch_4">
    <path d="M 205.166716 224.832242 
Q 205.166716 123.952967 205.166716 25.868777 
" clip-path="url(#p966111f496)" style="fill: none; stroke: #333333; stroke-width: 2.5; stroke-linecap: round"/>
    <path d="M 202.766716 30.668777 
L 205.166716 25.868777 
L 207.566716 30.668777 
z
" clip-path="url(#p966111f496)" style="fill: #333333; stroke: #333333; stroke-width: 2.5; stroke-linecap: round"/>
   </g>
   <g id="line2d_4">
    <path d="M 332.71294 127.156672 
L 332.71294 112.459698 
" clip-path="url(#p966111f496)" style="fill: none; stroke: #555555; stroke-width: 0.8; stroke-linecap: square"/>
   </g>
   <g id="line2d_5">
    <path d="M 307.203696 148.56147 
L 307.203696 133.864496 
" clip-path="url(#p966111f496)" style="fill: none; stroke: #555555; stroke-width: 0.8; stroke-linecap: square"/>
   </g>
   <g id="line2d_6">
    <path d="M 281.694451 169.966268 
L 281.694451 155.269294 
" clip-path="url(#p966111f496)" style="fill: none; stroke: #555555; stroke-width: 0.8; stroke-linecap: square"/>
   </g>
   <g id="line2d_7">
    <path d="M 256.185206 191.371066 
L 256.185206 176.674092 
" clip-path="url(#p966111f496)" style="fill: none; stroke: #555555; stroke-width: 0.8; stroke-linecap: square"/>
   </g>
   <g id="line2d_8">
    <path d="M 230.675961 212.775864 
L 230.675961 198.07889 
" clip-path="url(#p966111f496)" style="fill: none; stroke: #555555; stroke-width: 0.8; stroke-linecap: square"/>
   </g>
   <g id="line2d_9">
    <path d="M 179.657471 255.58546 
L 179.657471 240.888486 
" clip-path="url(#p966111f496)" style="fill: none; stroke: #555555; stroke-width: 0.8; stroke-linecap: square"/>
   </g>
   <g id="line2d_10">
    <path d="M 154.148226 276.990258 
L 154.148226 262.293284 
" clip-path="url(#p966111f496)" style="fill: none; stroke: #555555; stroke-width: 0.8; stroke-linecap: square"/>
   </g>
   <g id="line2d_11">
    <path d="M 128.638982 298.395056 
L 128.638982 283.698082 
" clip-path="url(#p966111f496)" style="fill: none; stroke: #555555; stroke-width: 0.8; stroke-linecap: square"/>
   </g>
   <g id="line2d_12">
    <path d="M 103.129737 319.799854 
L 103.129737 305.10288 
" clip-path="url(#p966111f496)" style="fill: none; stroke: #555555; stroke-width: 0.8; stroke-linecap: square"/>
   </g>
   <g id="line2d_13">
    <path d="M 77.620492 341.204651 
L 77.620492 326.507678 
" clip-path="url(#p966111f496)" style="fill: none; stroke: #555555; stroke-width: 0.8; stroke-linecap: square"/>
   </g>
   <g id="line2d_14">
    <path d="M 21.454545 234.180662 
L 21.454545 219.483688 
" clip-path="url(#p966111f496)" style="fill: none; stroke: #555555; stroke-width: 0.8; stroke-linecap: square"/>
   </g>
   <g id="line2d_15">
    <path d="M 58.19698 234.180662 
L 58.19698 219.483688 
" clip-path="url(#p966111f496)" style="fill: none; stroke: #555555; stroke-width: 0.8; stroke-linecap: square"/>
   </g>
   <g id="line2d_16">
    <path d="M 94.939414 234.180662 
L 94.939414 219.483688 
" clip-path="url(#p966111f496)" style="fill: none; stroke: #555555; stroke-width: 0.8; stroke-linecap: square"/>
   </g>
   <g id="line2d_17">
    <path d="M 131.681848 234.180662 
L 131.681848 219.483688 
" clip-path="url(#p966111f496)" style="fill: none; stroke: #555555; stroke-width: 0.8; stroke-linecap: square"/>
   </g>
   <g id="line2d_18">
    <path d="M 168.424282 234.180662 
L 168.424282 219.483688 
" clip-path="url(#p966111f496)" style="fill: none; stroke: #555555; stroke-width: 0.8; stroke-linecap: square"/>
   </g>
   <g id="line2d_19">
    <path d="M 241.90915 234.180662 
L 241.90915 219.483688 
" clip-path="url(#p966111f496)" style="fill: none; stroke: #555555; stroke-width: 0.8; stroke-linecap: square"/>
   </g>
   <g id="line2d_20">
    <path d="M 278.651584 234.180662 
L 278.651584 219.483688 
" clip-path="url(#p966111f496)" style="fill: none; stroke: #555555; stroke-width: 0.8; stroke-linecap: square"/>
   </g>
   <g id="line2d_21">
    <path d="M 315.394019 234.180662 
L 315.394019 219.483688 
" clip-path="url(#p966111f496)" style="fill: none; stroke: #555555; stroke-width: 0.8; stroke-linecap: square"/>
   </g>
   <g id="line2d_22">
    <path d="M 352.136453 234.180662 
L 352.136453 219.483688 
" clip-path="url(#p966111f496)" style="fill: none; stroke: #555555; stroke-width: 0.8; stroke-linecap: square"/>
   </g>
   <g id="line2d_23">
    <path d="M 388.878887 234.180662 
L 388.878887 219.483688 
" clip-path="url(#p966111f496)" style="fill: none; stroke: #555555; stroke-width: 0.8; stroke-linecap: square"/>
   </g>
   <g id="line2d_24">
    <path d="M 197.818229 410.544346 
L 212.515203 410.544346 
" clip-path="url(#p966111f496)" style="fill: none; stroke: #555555; stroke-width: 0.8; stroke-linecap: square"/>
   </g>
   <g id="line2d_25">
    <path d="M 197.818229 373.801911 
L 212.515203 373.801911 
" clip-path="url(#p966111f496)" style="fill: none; stroke: #555555; stroke-width: 0.8; stroke-linecap: square"/>
   </g>
   <g id="line2d_26">
    <path d="M 197.818229 337.059477 
L 212.515203 337.059477 
" clip-path="url(#p966111f496)" style="fill: none; stroke: #555555; stroke-width: 0.8; stroke-linecap: square"/>
   </g>
   <g id="line2d_27">
    <path d="M 197.818229 300.317043 
L 212.515203 300.317043 
" clip-path="url(#p966111f496)" style="fill: none; stroke: #555555; stroke-width: 0.8; stroke-linecap: square"/>
   </g>
   <g id="line2d_28">
    <path d="M 197.818229 263.574609 
L 212.515203 263.574609 
" clip-path="url(#p966111f496)" style="fill: none; stroke: #555555; stroke-width: 0.8; stroke-linecap: square"/>
   </g>
   <g id="line2d_29">
    <path d="M 197.818229 190.089741 
L 212.515203 190.089741 
" clip-path="url(#p966111f496)" style="fill: none; stroke: #555555; stroke-width: 0.8; stroke-linecap: square"/>
   </g>
   <g id="line2d_30">
    <path d="M 197.818229 153.347307 
L 212.515203 153.347307 
" clip-path="url(#p966111f496)" style="fill: none; stroke: #555555; stroke-width: 0.8; stroke-linecap: square"/>
   </g>
   <g id="line2d_31">
    <path d="M 197.818229 116.604873 
L 212.515203 116.604873 
" clip-path="url(#p966111f496)" style="fill: none; stroke: #555555; stroke-width: 0.8; stroke-linecap: square"/>
   </g>
   <g id="line2d_32">
    <path d="M 197.818229 79.862438 
L 212.515203 79.862438 
" clip-path="url(#p966111f496)" style="fill: none; stroke: #555555; stroke-width: 0.8; stroke-linecap: square"/>
   </g>
   <g id="line2d_33">
    <path d="M 197.818229 43.120004 
L 212.515203 43.120004 
" clip-path="url(#p966111f496)" style="fill: none; stroke: #555555; stroke-width: 0.8; stroke-linecap: square"/>
   </g>
   <g id="sphere_fill_1405b840">
    <path d="M 264.375529 159.414468 
C 274.119736 159.414468 283.466158 155.543054 290.356353 148.652859 
C 297.246548 141.762663 301.117963 132.416242 301.117963 122.672034 
C 301.117963 112.927827 297.246548 103.581405 290.356353 96.69121 
C 283.466158 89.801015 274.119736 85.9296 264.375529 85.9296 
C 254.631321 85.9296 245.2849 89.801015 238.394705 96.69121 
C 231.504509 103.581405 227.633095 112.927827 227.633095 122.672034 
C 227.633095 132.416242 231.504509 141.762663 238.394705 148.652859 
C 245.2849 155.543054 254.631321 159.414468 264.375529 159.414468 
z
" clip-path="url(#p966111f496)" style="fill: url(#sg_sphere_fill_1405b840)"/>
   </g>
   <g id="line2d_34">
    <path d="M 309.104671 110.394747 
L 308.983251 109.201558 
L 308.644507 108.073997 
L 308.090089 107.017556 
L 307.322699 106.037382 
L 306.346073 105.13825 
L 305.003233 104.229036 
L 303.409909 103.433529 
L 301.575926 102.756634 
L 299.269711 102.148692 
L 296.697931 101.696944 
L 293.585662 101.384494 
L 290.204437 101.268051 
L 286.245728 101.36578 
L 282.047405 101.696944 
L 277.655465 102.257916 
L 272.734889 103.117778 
L 267.706843 104.229036 
L 262.635969 105.577403 
L 257.587459 107.145542 
L 252.626218 108.913295 
L 247.81603 110.857935 
L 243.218735 112.954459 
L 238.893438 115.175916 
L 235.190433 117.312701 
L 231.807185 119.508204 
L 228.780763 121.73837 
L 226.348398 123.792275 
L 224.266172 125.835865 
L 222.693276 127.668885 
L 221.437607 129.463876 
L 220.586684 131.035555 
L 220.005733 132.55567 
L 219.698337 134.014849 
L 219.646387 134.949322 
L 219.646387 134.949322 
" clip-path="url(#p449780fb69)" style="fill: none; stroke-dasharray: 3.375,4.5; stroke-dashoffset: 0; stroke: #1f77b4; stroke-opacity: 0.3; stroke-width: 1.125"/>
   </g>
   <g id="line2d_35">
    <path d="M 277.322449 80.149925 
L 278.824124 80.267821 
L 280.255407 80.592306 
L 281.609325 81.121798 
L 282.879281 81.85372 
L 284.059089 82.784504 
L 285.143001 83.909616 
L 286.125736 85.223575 
L 287.104432 86.919504 
L 287.942998 88.835859 
L 288.636262 90.960825 
L 289.230973 93.550591 
L 289.63652 96.361988 
L 289.849814 99.37362 
L 289.860495 102.890291 
L 289.63652 106.589105 
L 289.179951 110.436003 
L 288.494994 114.395567 
L 287.494756 118.800723 
L 286.241219 123.248294 
L 284.748118 127.689551 
L 283.03181 132.075836 
L 281.111099 136.35909 
L 279.007031 140.492387 
L 276.742656 144.430439 
L 274.342785 148.130102 
L 272.046307 151.27737 
L 269.679199 154.16125 
L 267.263257 156.755191 
L 264.820727 159.035307 
L 262.596094 160.818089 
L 260.385004 162.310556 
L 258.204284 163.50135 
L 256.281327 164.307596 
L 254.408273 164.857144 
L 252.59667 165.146607 
L 251.428608 165.194143 
L 251.428608 165.194143 
" clip-path="url(#p449780fb69)" style="fill: none; stroke-dasharray: 3.375,4.5; stroke-dashoffset: 0; stroke: #1f77b4; stroke-opacity: 0.3; stroke-width: 1.125"/>
   </g>
   <g id="text_1">
    <!-- $x$ -->
    <g style="fill: #333333" transform="translate(48.417445 355.52543) scale(0.17 -0.17)">
     <defs>
      <path id="CMMI12-78" d="M 3034 2606 
C 2829 2567 2752 2414 2752 2293 
C 2752 2139 2874 2088 2963 2088 
C 3155 2088 3290 2254 3290 2427 
C 3290 2695 2982 2816 2714 2816 
C 2323 2816 2106 2433 2048 2312 
C 1901 2816 1504 2816 1389 2816 
C 736 2816 390 1980 390 1839 
C 390 1814 416 1782 461 1782 
C 512 1782 525 1820 538 1846 
C 755 2555 1184 2689 1370 2689 
C 1658 2689 1715 2420 1715 2267 
C 1715 2127 1677 1980 1600 1673 
L 1382 798 
C 1286 415 1101 64 762 64 
C 730 64 570 64 435 147 
C 666 192 717 383 717 460 
C 717 588 621 664 499 664 
C 346 664 179 530 179 326 
C 179 57 480 -64 755 -64 
C 1062 -64 1280 179 1414 441 
C 1517 64 1837 -64 2074 -64 
C 2726 -64 3072 773 3072 913 
C 3072 945 3046 971 3008 971 
C 2950 971 2944 939 2925 888 
C 2752 326 2381 64 2093 64 
C 1869 64 1747 230 1747 492 
C 1747 632 1773 734 1875 1156 
L 2099 2024 
C 2195 2408 2413 2689 2707 2689 
C 2720 2689 2899 2689 3034 2606 
z
" transform="scale(0.015625)"/>
     </defs>
     <use xlink:href="#CMMI12-78" transform="scale(0.996264)"/>
    </g>
   </g>
   <g id="text_2">
    <!-- $y$ -->
    <g style="fill: #333333" transform="translate(416.067004 231.065757) scale(0.17 -0.17)">
     <defs>
      <path id="CMMI12-79" d="M 1683 -700 
C 1510 -939 1261 -1152 947 -1152 
C 870 -1152 563 -1152 467 -889 
C 486 -895 518 -895 531 -895 
C 723 -895 851 -729 851 -582 
C 851 -435 730 -384 634 -384 
C 531 -384 307 -458 307 -759 
C 307 -1071 582 -1286 947 -1286 
C 1587 -1286 2234 -700 2413 6 
L 3040 2485 
C 3046 2517 3059 2556 3059 2594 
C 3059 2689 2982 2753 2886 2753 
C 2829 2753 2694 2727 2643 2535 
L 2170 658 
C 2138 543 2138 530 2086 460 
C 1958 281 1747 64 1440 64 
C 1082 64 1050 415 1050 588 
C 1050 952 1222 1443 1395 1903 
C 1466 2088 1504 2178 1504 2305 
C 1504 2574 1312 2816 998 2816 
C 410 2816 173 1890 173 1839 
C 173 1814 198 1782 243 1782 
C 301 1782 307 1807 333 1897 
C 486 2433 730 2689 979 2689 
C 1037 2689 1146 2689 1146 2478 
C 1146 2312 1075 2127 979 1884 
C 666 1047 666 837 666 683 
C 666 77 1101 -64 1421 -64 
C 1606 -64 1837 -6 2061 230 
L 2067 224 
C 1971 -147 1907 -392 1683 -700 
z
" transform="scale(0.015625)"/>
     </defs>
     <use xlink:href="#CMMI12-79" transform="scale(0.996264)"/>
    </g>
   </g>
   <g id="text_3">
    <!-- $z$ -->
    <g style="fill: #333333" transform="translate(201.314881 16.122518) scale(0.17 -0.17)">
     <defs>
      <path id="CMMI12-7a" d="M 813 486 
C 1088 803 1312 1004 1632 1296 
C 2016 1632 2182 1793 2272 1891 
C 2720 2338 2944 2713 2944 2764 
C 2944 2816 2893 2816 2880 2816 
C 2835 2816 2822 2793 2790 2750 
C 2630 2494 2477 2367 2310 2367 
C 2176 2367 2106 2421 1984 2565 
C 1850 2715 1741 2816 1555 2816 
C 1088 2816 806 2257 806 2128 
C 806 2108 813 2068 870 2068 
C 922 2068 928 2091 947 2133 
C 1056 2372 1363 2414 1485 2414 
C 1619 2414 1747 2376 1882 2327 
C 2125 2240 2227 2240 2291 2240 
C 2336 2240 2362 2240 2394 2246 
C 2182 1994 1837 1683 1549 1418 
L 902 816 
C 512 415 275 33 275 -12 
C 275 -51 307 -64 346 -64 
C 384 -64 390 -57 435 14 
C 538 163 742 384 979 384 
C 1114 384 1178 342 1306 193 
C 1427 61 1536 -64 1741 -64 
C 2368 -64 2726 732 2726 876 
C 2726 903 2720 942 2656 942 
C 2605 942 2598 917 2579 855 
C 2438 488 2061 338 1811 338 
C 1677 338 1549 376 1414 425 
C 1158 512 1088 512 1005 512 
C 941 512 870 512 813 486 
z
" transform="scale(0.015625)"/>
     </defs>
     <use xlink:href="#CMMI12-7a" transform="scale(0.996264)"/>
    </g>
   </g>
   <g id="line2d_36">
    <defs>
     <path id="m7c1810fa9b" d="M 0 1.5 
C 0.397805 1.5 0.77937 1.341951 1.06066 1.06066 
C 1.341951 0.77937 1.5 0.397805 1.5 0 
C 1.5 -0.397805 1.341951 -0.77937 1.06066 -1.06066 
C 0.77937 -1.341951 0.397805 -1.5 0 -1.5 
C -0.397805 -1.5 -0.77937 -1.341951 -1.06066 -1.06066 
C -1.341951 -0.77937 -1.5 -0.397805 -1.5 0 
C -1.5 0.397805 -1.341951 0.77937 -1.06066 1.06066 
C -0.77937 1.341951 -0.397805 1.5 0 1.5 
z
" style="stroke: #333333"/>
    </defs>
    <g clip-path="url(#p966111f496)">
     <use xlink:href="#m7c1810fa9b" x="205.166716" y="226.832175" style="fill: #333333; stroke: #333333"/>
    </g>
   </g>
   <g id="text_4">
    <!-- -5 -->
    <g style="fill: #555555" transform="translate(337.122033 122.547911) scale(0.11 -0.11)">
     <defs>
      <path id="CMSS17-2d" d="M 1664 1216 
L 1664 1585 
L 64 1585 
L 64 1216 
L 1664 1216 
z
" transform="scale(0.015625)"/>
      <path id="CMSS17-35" d="M 934 3752 
L 2502 3752 
L 2502 4160 
L 467 4160 
L 467 1781 
L 896 1781 
C 1011 2046 1248 2240 1555 2240 
C 1843 2240 2163 1989 2163 1266 
C 2163 493 1709 267 1376 267 
C 966 267 589 512 422 851 
L 218 499 
C 512 49 992 -128 1376 -128 
C 2118 -128 2701 497 2701 1253 
C 2701 2030 2182 2629 1562 2629 
C 1338 2629 1120 2553 934 2399 
L 934 3752 
z
" transform="scale(0.015625)"/>
     </defs>
     <use xlink:href="#CMSS17-2d" transform="scale(0.996264)"/>
     <use xlink:href="#CMSS17-35" transform="translate(31.229113 0) scale(0.996264)"/>
    </g>
   </g>
   <g id="text_5">
    <!-- -4 -->
    <g style="fill: #555555" transform="translate(311.612788 143.952709) scale(0.11 -0.11)">
     <defs>
      <path id="CMSS17-34" d="M 2253 1088 
L 2835 1088 
L 2835 1477 
L 2253 1477 
L 2253 4192 
L 1690 4192 
L 166 1477 
L 166 1088 
L 1747 1088 
L 1747 0 
L 2253 0 
L 2253 1088 
z
M 659 1477 
C 1030 2127 1766 3439 1766 3885 
L 1766 1477 
L 659 1477 
z
" transform="scale(0.015625)"/>
     </defs>
     <use xlink:href="#CMSS17-2d" transform="scale(0.996264)"/>
     <use xlink:href="#CMSS17-34" transform="translate(31.229113 0) scale(0.996264)"/>
    </g>
   </g>
   <g id="text_6">
    <!-- -3 -->
    <g style="fill: #555555" transform="translate(286.103543 165.357507) scale(0.11 -0.11)">
     <defs>
      <path id="CMSS17-33" d="M 1005 2025 
L 1440 2025 
C 2042 2025 2214 1507 2214 1146 
C 2214 653 1933 267 1472 267 
C 1114 267 608 444 320 912 
C 275 691 275 678 250 526 
C 550 88 1037 -128 1485 -128 
C 2214 -128 2752 473 2752 1138 
C 2752 1638 2400 2057 1920 2215 
C 2304 2424 2586 2816 2586 3273 
C 2586 3805 2093 4229 1491 4229 
C 941 4229 512 3892 333 3530 
C 378 3468 493 3284 550 3189 
C 691 3562 1056 3840 1485 3840 
C 1843 3840 2080 3607 2080 3271 
C 2080 2923 1856 2543 1478 2455 
C 1453 2455 1056 2417 1005 2411 
L 1005 2025 
z
" transform="scale(0.015625)"/>
     </defs>
     <use xlink:href="#CMSS17-2d" transform="scale(0.996264)"/>
     <use xlink:href="#CMSS17-33" transform="translate(31.229113 0) scale(0.996264)"/>
    </g>
   </g>
   <g id="text_7">
    <!-- -2 -->
    <g style="fill: #555555" transform="translate(260.594298 186.762305) scale(0.11 -0.11)">
     <defs>
      <path id="CMSS17-32" d="M 1651 1357 
C 1830 1541 2099 1764 2285 1987 
C 2464 2204 2701 2511 2701 2957 
C 2701 3657 2227 4288 1421 4288 
C 787 4288 422 3893 250 3274 
L 499 2929 
C 640 3510 838 3880 1338 3880 
C 1888 3880 2195 3433 2195 2942 
C 2195 2355 1747 1901 1408 1563 
C 1030 1187 659 804 301 408 
L 301 0 
L 2701 0 
L 2701 433 
L 1613 433 
C 1536 433 1459 433 1382 433 
L 742 433 
L 742 439 
L 1651 1357 
z
" transform="scale(0.015625)"/>
     </defs>
     <use xlink:href="#CMSS17-2d" transform="scale(0.996264)"/>
     <use xlink:href="#CMSS17-32" transform="translate(31.229113 0) scale(0.996264)"/>
    </g>
   </g>
   <g id="text_8">
    <!-- -1 -->
    <g style="fill: #555555" transform="translate(235.085053 208.167103) scale(0.11 -0.11)">
     <defs>
      <path id="CMSS17-31" d="M 1818 4288 
L 1696 4288 
C 1350 3940 947 3890 538 3890 
L 538 3520 
C 723 3520 1024 3520 1325 3667 
L 1325 369 
L 570 369 
L 570 0 
L 2573 0 
L 2573 369 
L 1818 369 
L 1818 4288 
z
" transform="scale(0.015625)"/>
     </defs>
     <use xlink:href="#CMSS17-2d" transform="scale(0.996264)"/>
     <use xlink:href="#CMSS17-31" transform="translate(31.229113 0) scale(0.996264)"/>
    </g>
   </g>
   <g id="text_9">
    <!-- 1 -->
    <g style="fill: #555555" transform="translate(169.768912 250.976699) scale(0.11 -0.11)">
     <use xlink:href="#CMSS17-31" transform="scale(0.996264)"/>
    </g>
   </g>
   <g id="text_10">
    <!-- 2 -->
    <g style="fill: #555555" transform="translate(144.259667 272.381497) scale(0.11 -0.11)">
     <use xlink:href="#CMSS17-32" transform="scale(0.996264)"/>
    </g>
   </g>
   <g id="text_11">
    <!-- 3 -->
    <g style="fill: #555555" transform="translate(118.750422 293.786295) scale(0.11 -0.11)">
     <use xlink:href="#CMSS17-33" transform="scale(0.996264)"/>
    </g>
   </g>
   <g id="text_12">
    <!-- 4 -->
    <g style="fill: #555555" transform="translate(93.241177 315.191093) scale(0.11 -0.11)">
     <use xlink:href="#CMSS17-34" transform="scale(0.996264)"/>
    </g>
   </g>
   <g id="text_13">
    <!-- 5 -->
    <g style="fill: #555555" transform="translate(67.731933 336.595891) scale(0.11 -0.11)">
     <use xlink:href="#CMSS17-35" transform="scale(0.996264)"/>
    </g>
   </g>
   <g id="text_14">
    <!-- -5 -->
    <g style="fill: #555555" transform="translate(16.888325 240.321311) scale(0.11 -0.11)">
     <use xlink:href="#CMSS17-2d" transform="scale(0.996264)"/>
     <use xlink:href="#CMSS17-35" transform="translate(31.229113 0) scale(0.996264)"/>
    </g>
   </g>
   <g id="text_15">
    <!-- -4 -->
    <g style="fill: #555555" transform="translate(53.630759 240.321311) scale(0.11 -0.11)">
     <use xlink:href="#CMSS17-2d" transform="scale(0.996264)"/>
     <use xlink:href="#CMSS17-34" transform="translate(31.229113 0) scale(0.996264)"/>
    </g>
   </g>
   <g id="text_16">
    <!-- -3 -->
    <g style="fill: #555555" transform="translate(90.373194 240.321311) scale(0.11 -0.11)">
     <use xlink:href="#CMSS17-2d" transform="scale(0.996264)"/>
     <use xlink:href="#CMSS17-33" transform="translate(31.229113 0) scale(0.996264)"/>
    </g>
   </g>
   <g id="text_17">
    <!-- -2 -->
    <g style="fill: #555555" transform="translate(127.115628 240.321311) scale(0.11 -0.11)">
     <use xlink:href="#CMSS17-2d" transform="scale(0.996264)"/>
     <use xlink:href="#CMSS17-32" transform="translate(31.229113 0) scale(0.996264)"/>
    </g>
   </g>
   <g id="text_18">
    <!-- -1 -->
    <g style="fill: #555555" transform="translate(163.858062 240.321311) scale(0.11 -0.11)">
     <use xlink:href="#CMSS17-2d" transform="scale(0.996264)"/>
     <use xlink:href="#CMSS17-31" transform="translate(31.229113 0) scale(0.996264)"/>
    </g>
   </g>
   <g id="text_19">
    <!-- 1 -->
    <g style="fill: #555555" transform="translate(239.169417 240.321311) scale(0.11 -0.11)">
     <use xlink:href="#CMSS17-31" transform="scale(0.996264)"/>
    </g>
   </g>
   <g id="text_20">
    <!-- 2 -->
    <g style="fill: #555555" transform="translate(275.911851 240.321311) scale(0.11 -0.11)">
     <use xlink:href="#CMSS17-32" transform="scale(0.996264)"/>
    </g>
   </g>
   <g id="text_21">
    <!-- 3 -->
    <g style="fill: #555555" transform="translate(312.654285 240.321311) scale(0.11 -0.11)">
     <use xlink:href="#CMSS17-33" transform="scale(0.996264)"/>
    </g>
   </g>
   <g id="text_22">
    <!-- 4 -->
    <g style="fill: #555555" transform="translate(349.396719 240.321311) scale(0.11 -0.11)">
     <use xlink:href="#CMSS17-34" transform="scale(0.996264)"/>
    </g>
   </g>
   <g id="text_23">
    <!-- 5 -->
    <g style="fill: #555555" transform="translate(386.139153 240.321311) scale(0.11 -0.11)">
     <use xlink:href="#CMSS17-35" transform="scale(0.996264)"/>
    </g>
   </g>
   <g id="text_24">
    <!-- -5 -->
    <g style="fill: #555555" transform="translate(186.848667 413.284072) scale(0.11 -0.11)">
     <use xlink:href="#CMSS17-2d" transform="scale(0.996264)"/>
     <use xlink:href="#CMSS17-35" transform="translate(31.229113 0) scale(0.996264)"/>
    </g>
   </g>
   <g id="text_25">
    <!-- -4 -->
    <g style="fill: #555555" transform="translate(186.848667 376.541638) scale(0.11 -0.11)">
     <use xlink:href="#CMSS17-2d" transform="scale(0.996264)"/>
     <use xlink:href="#CMSS17-34" transform="translate(31.229113 0) scale(0.996264)"/>
    </g>
   </g>
   <g id="text_26">
    <!-- -3 -->
    <g style="fill: #555555" transform="translate(186.848667 339.799203) scale(0.11 -0.11)">
     <use xlink:href="#CMSS17-2d" transform="scale(0.996264)"/>
     <use xlink:href="#CMSS17-33" transform="translate(31.229113 0) scale(0.996264)"/>
    </g>
   </g>
   <g id="text_27">
    <!-- -2 -->
    <g style="fill: #555555" transform="translate(186.848667 303.056769) scale(0.11 -0.11)">
     <use xlink:href="#CMSS17-2d" transform="scale(0.996264)"/>
     <use xlink:href="#CMSS17-32" transform="translate(31.229113 0) scale(0.996264)"/>
    </g>
   </g>
   <g id="text_28">
    <!-- -1 -->
    <g style="fill: #555555" transform="translate(186.848667 266.314335) scale(0.11 -0.11)">
     <use xlink:href="#CMSS17-2d" transform="scale(0.996264)"/>
     <use xlink:href="#CMSS17-31" transform="translate(31.229113 0) scale(0.996264)"/>
    </g>
   </g>
   <g id="text_29">
    <!-- 1 -->
    <g style="fill: #555555" transform="translate(190.50164 192.829467) scale(0.11 -0.11)">
     <use xlink:href="#CMSS17-31" transform="scale(0.996264)"/>
    </g>
   </g>
   <g id="text_30">
    <!-- 2 -->
    <g style="fill: #555555" transform="translate(190.50164 156.087033) scale(0.11 -0.11)">
     <use xlink:href="#CMSS17-32" transform="scale(0.996264)"/>
    </g>
   </g>
   <g id="text_31">
    <!-- 3 -->
    <g style="fill: #555555" transform="translate(190.50164 119.344599) scale(0.11 -0.11)">
     <use xlink:href="#CMSS17-33" transform="scale(0.996264)"/>
    </g>
   </g>
   <g id="text_32">
    <!-- 4 -->
    <g style="fill: #555555" transform="translate(190.50164 82.602164) scale(0.11 -0.11)">
     <use xlink:href="#CMSS17-34" transform="scale(0.996264)"/>
    </g>
   </g>
   <g id="text_33">
    <!-- 5 -->
    <g style="fill: #555555" transform="translate(190.50164 45.85973) scale(0.11 -0.11)">
     <use xlink:href="#CMSS17-35" transform="scale(0.996264)"/>
    </g>
   </g>
   <g id="line2d_37">
    <path d="M 238.866284 144.076832 
L 242.846657 143.959574 
L 247.062904 143.609086 
L 251.468832 143.029207 
L 256.399943 142.149571 
L 261.433591 141.019527 
L 266.505061 139.653602 
L 271.549153 138.069357 
L 276.501019 136.28716 
L 281.296996 134.329923 
L 285.875426 132.222808 
L 290.177448 129.992906 
L 293.855311 127.850324 
L 297.210187 125.651006 
L 300.205321 123.419051 
L 302.606733 121.365303 
L 304.656128 119.323586 
L 306.197801 117.493745 
L 307.421181 115.703314 
L 308.242336 114.136891 
L 308.793038 112.62309 
L 309.069891 111.171245 
L 309.104671 110.394747 
L 309.104671 110.394747 
" clip-path="url(#p449780fb69)" style="fill: none; stroke: #1f77b4; stroke-opacity: 0.7; stroke-width: 1.625; stroke-linecap: round"/>
   </g>
   <g id="line2d_38">
    <path d="M 219.646387 134.949322 
L 219.649649 135.101864 
L 219.656317 135.253459 
L 219.666391 135.404096 
L 219.679869 135.553763 
L 219.696752 135.70245 
L 219.717036 135.850144 
L 219.740722 135.996834 
L 219.767807 136.14251 
L 219.798288 136.28716 
L 219.832165 136.430773 
L 219.869433 136.573339 
L 219.910091 136.714845 
L 219.954136 136.855283 
L 220.001563 136.99464 
L 220.052369 137.132906 
L 220.106551 137.270071 
L 220.164103 137.406125 
L 220.225023 137.541056 
L 220.289305 137.674855 
L 220.356945 137.807512 
L 220.427936 137.939016 
L 220.502274 138.069357 
L 220.579954 138.198526 
L 220.660968 138.326512 
L 220.745312 138.453307 
L 220.832978 138.578899 
L 220.923961 138.70328 
L 221.018252 138.82644 
L 221.115845 138.94837 
L 221.216732 139.069061 
L 221.320906 139.188503 
L 221.428359 139.306687 
L 221.539083 139.423604 
L 221.653068 139.539245 
L 221.770308 139.653602 
L 221.890791 139.766666 
L 222.01451 139.878428 
L 222.141455 139.98888 
L 222.271617 140.098012 
L 222.404984 140.205818 
L 222.541548 140.312289 
L 222.681298 140.417416 
L 222.824223 140.521192 
L 222.970312 140.623608 
L 223.119555 140.724658 
L 223.271939 140.824332 
L 223.427453 140.922625 
L 223.586086 141.019527 
L 223.747825 141.115032 
L 223.912658 141.209133 
L 224.080572 141.301822 
L 224.251555 141.393092 
L 224.425594 141.482937 
L 224.602675 141.571349 
L 224.782784 141.658322 
L 224.965909 141.743849 
L 225.152035 141.827923 
L 225.341148 141.910539 
L 225.533234 141.99169 
L 225.728278 142.071369 
L 225.926265 142.149571 
L 226.12718 142.22629 
L 226.331007 142.30152 
L 226.537732 142.375255 
L 226.747339 142.447489 
L 226.959811 142.518217 
L 227.175132 142.587434 
L 227.393286 142.655135 
L 227.614257 142.721313 
L 227.838027 142.785965 
L 228.06458 142.849085 
L 228.293898 142.910668 
L 228.525963 142.97071 
L 228.760759 143.029207 
L 228.998267 143.086153 
L 229.238469 143.141544 
L 229.481346 143.195377 
L 229.726882 143.247647 
L 229.975055 143.298349 
L 230.225849 143.347481 
L 230.479243 143.395039 
L 230.735218 143.441018 
L 230.993756 143.485416 
L 231.254835 143.528229 
L 231.518437 143.569453 
L 231.784541 143.609086 
L 232.053126 143.647125 
L 232.324174 143.683566 
L 232.597662 143.718407 
L 232.87357 143.751645 
L 233.151877 143.783278 
L 233.432562 143.813304 
L 233.715603 143.841719 
L 234.00098 143.868522 
L 234.288669 143.893711 
L 234.57865 143.917284 
L 234.8709 143.939239 
L 235.165396 143.959574 
L 235.462117 143.978289 
L 235.76104 143.99538 
L 236.062142 144.010848 
L 236.365401 144.024691 
L 236.670792 144.036908 
L 236.978293 144.047498 
L 237.287881 144.05646 
L 237.599531 144.063793 
L 237.913221 144.069497 
L 238.228925 144.073572 
L 238.546621 144.076017 
L 238.866284 144.076832 
" clip-path="url(#p449780fb69)" style="fill: none; stroke: #1f77b4; stroke-opacity: 0.7; stroke-width: 1.625; stroke-linecap: round"/>
   </g>
   <g id="line2d_39">
    <path d="M 238.866284 144.076832 
L 238.983724 140.456683 
L 239.334961 136.672779 
L 239.916761 132.759962 
L 240.723769 128.754259 
L 241.852203 124.321821 
L 243.227406 119.871308 
L 244.834314 115.451479 
L 246.655318 111.110761 
L 248.67047 106.896711 
L 250.857689 102.855498 
L 253.193012 99.031399 
L 255.442003 95.752536 
L 257.77325 92.721538 
L 260.165289 89.966311 
L 262.596094 87.512226 
L 264.820727 85.561631 
L 267.041971 83.893468 
L 269.242922 82.520434 
L 271.192578 81.545722 
L 273.100204 80.824568 
L 274.95404 80.361417 
L 276.742656 80.159125 
L 277.322449 80.149925 
L 277.322449 80.149925 
" clip-path="url(#p449780fb69)" style="fill: none; stroke: #1f77b4; stroke-opacity: 0.7; stroke-width: 1.625; stroke-linecap: round"/>
   </g>
   <g id="line2d_40">
    <path d="M 251.428608 165.194143 
L 251.237297 165.190733 
L 251.046985 165.184086 
L 250.857689 165.1742 
L 250.669422 165.161078 
L 250.482198 165.144721 
L 250.296033 165.125129 
L 250.11094 165.102304 
L 249.926933 165.076248 
L 249.744027 165.046962 
L 249.562235 165.01445 
L 249.381571 164.978712 
L 249.202049 164.939754 
L 249.023682 164.897576 
L 248.846485 164.852183 
L 248.67047 164.803577 
L 248.495651 164.751763 
L 248.322041 164.696744 
L 248.149654 164.638525 
L 247.978502 164.577111 
L 247.8086 164.512505 
L 247.639958 164.444712 
L 247.472592 164.373739 
L 247.306512 164.299589 
L 247.141733 164.22227 
L 246.978266 164.141787 
L 246.816123 164.058145 
L 246.655318 163.971352 
L 246.495863 163.881413 
L 246.337769 163.788336 
L 246.181049 163.692128 
L 246.025714 163.592797 
L 245.871776 163.490349 
L 245.719248 163.384792 
L 245.568141 163.276135 
L 245.418466 163.164386 
L 245.270234 163.049554 
L 245.123457 162.931646 
L 244.978147 162.810672 
L 244.834314 162.686642 
L 244.691968 162.559565 
L 244.551122 162.42945 
L 244.411786 162.296307 
L 244.27397 162.160146 
L 244.137684 162.020979 
L 244.00294 161.878815 
L 243.869747 161.733665 
L 243.738116 161.58554 
L 243.608057 161.434453 
L 243.479579 161.280413 
L 243.352692 161.123433 
L 243.227406 160.963524 
L 243.103731 160.8007 
L 242.981676 160.634972 
L 242.86125 160.466353 
L 242.742462 160.294856 
L 242.625322 160.120494 
L 242.509838 159.94328 
L 242.39602 159.763227 
L 242.283875 159.58035 
L 242.173412 159.394662 
L 242.064641 159.206178 
L 241.957568 159.014911 
L 241.852203 158.820877 
L 241.748552 158.62409 
L 241.646625 158.424565 
L 241.546429 158.222317 
L 241.447971 158.017362 
L 241.35126 157.809716 
L 241.256302 157.599393 
L 241.163104 157.386411 
L 241.071674 157.170785 
L 240.982019 156.952531 
L 240.894145 156.731667 
L 240.80806 156.50821 
L 240.723769 156.282175 
L 240.641279 156.053581 
L 240.560597 155.822445 
L 240.481729 155.588785 
L 240.40468 155.352618 
L 240.329456 155.113961 
L 240.256064 154.872835 
L 240.184509 154.629256 
L 240.114795 154.383243 
L 240.04693 154.134816 
L 239.980917 153.883992 
L 239.916761 153.630792 
L 239.854469 153.375234 
L 239.794044 153.117338 
L 239.73549 152.857123 
L 239.678814 152.59461 
L 239.624018 152.329818 
L 239.571106 152.062767 
L 239.520084 151.793478 
L 239.470955 151.521971 
L 239.423722 151.248268 
L 239.37839 150.972388 
L 239.334961 150.694353 
L 239.293439 150.414184 
L 239.253827 150.131902 
L 239.216128 149.847529 
L 239.180345 149.561087 
L 239.146481 149.272597 
L 239.114538 148.982081 
L 239.084519 148.689561 
L 239.056426 148.39506 
L 239.030261 148.098601 
L 239.006026 147.800205 
L 238.983724 147.499895 
L 238.963354 147.197695 
L 238.944921 146.893627 
L 238.928423 146.587714 
L 238.913864 146.27998 
L 238.901244 145.970448 
L 238.890563 145.659142 
L 238.881824 145.346085 
L 238.875025 145.031302 
L 238.870169 144.714816 
L 238.867255 144.396651 
L 238.866284 144.076832 
" clip-path="url(#p449780fb69)" style="fill: none; stroke: #1f77b4; stroke-opacity: 0.7; stroke-width: 1.625; stroke-linecap: round"/>
   </g>
   <g id="patch_5">
    <path d="M 264.375529 159.414468 
C 274.119736 159.414468 283.466158 155.543054 290.356353 148.652859 
C 297.246548 141.762663 301.117963 132.416242 301.117963 122.672034 
C 301.117963 112.927827 297.246548 103.581405 290.356353 96.69121 
C 283.466158 89.801015 274.119736 85.9296 264.375529 85.9296 
C 254.631321 85.9296 245.2849 89.801015 238.394705 96.69121 
C 231.504509 103.581405 227.633095 112.927827 227.633095 122.672034 
C 227.633095 132.416242 231.504509 141.762663 238.394705 148.652859 
C 245.2849 155.543054 254.631321 159.414468 264.375529 159.414468 
L 264.375529 159.414468 
z
" clip-path="url(#p966111f496)" style="fill: none; stroke: #1f77b4; stroke-width: 2.5; stroke-linejoin: miter"/>
   </g>
  </g>
 </g>
 <defs>
  <clipPath id="p966111f496">
   <rect x="2" y="2.00122" width="428" height="427.99756"/>
  </clipPath>
  <clipPath id="p449780fb69">
   <path d="M 264.375529 159.414468 
C 274.119736 159.414468 283.466158 155.543054 290.356353 148.652859 
C 297.246548 141.762663 301.117963 132.416242 301.117963 122.672034 
C 301.117963 112.927827 297.246548 103.581405 290.356353 96.69121 
C 283.466158 89.801015 274.119736 85.9296 264.375529 85.9296 
C 254.631321 85.9296 245.2849 89.801015 238.394705 96.69121 
C 231.504509 103.581405 227.633095 112.927827 227.633095 122.672034 
C 227.633095 132.416242 231.504509 141.762663 238.394705 148.652859 
C 245.2849 155.543054 254.631321 159.414468 264.375529 159.414468 
z
"/>
  </clipPath>
 </defs>
</svg>
