<?xml version="1.0" encoding="utf-8" standalone="no"?>
<!DOCTYPE svg PUBLIC "-//W3C//DTD SVG 1.1//EN"
  "http://www.w3.org/Graphics/SVG/1.1/DTD/svg11.dtd">
<svg xmlns:xlink="http://www.w3.org/1999/xlink" width="432pt" height="432pt" viewBox="0 0 432 432" xmlns="http://www.w3.org/2000/svg" version="1.1">
 <metadata>
  <rdf:RDF xmlns:dc="http://purl.org/dc/elements/1.1/" xmlns:cc="http://creativecommons.org/ns#" xmlns:rdf="http://www.w3.org/1999/02/22-rdf-syntax-ns#">
   <cc:Work>
    <dc:type rdf:resource="http://purl.org/dc/dcmitype/StillImage"/>
    <dc:date>2026-06-02T18:34:43.022865</dc:date>
    <dc:format>image/svg+xml</dc:format>
    <dc:creator>
     <cc:Agent>
      <dc:title>Matplotlib v3.10.8, https://matplotlib.org/</dc:title>
     </cc:Agent>
    </dc:creator>
   </cc:Work>
  </rdf:RDF>
 </metadata>
 <defs>
  <style type="text/css">*{stroke-linejoin: round; stroke-linecap: butt}
    /* plot3d: counteract dark-mode colour inversion on sphere fills */
    @media (prefers-color-scheme: dark) { #sphere_fill_1417a000, #sphere_fill_13fe5f00, #sphere_fill_141c1440, #sphere_fill_141c1c80 { filter: invert(1) hue-rotate(180deg); } }
    [data-theme="dark"] #sphere_fill_1417a000, #sphere_fill_13fe5f00, #sphere_fill_141c1440, #sphere_fill_141c1c80,
    .dark #sphere_fill_1417a000, #sphere_fill_13fe5f00, #sphere_fill_141c1440, #sphere_fill_141c1c80 { filter: invert(1) hue-rotate(180deg); }
  </style>
 
  <radialGradient id="sg_sphere_fill_1417a000" cx="0.38" cy="0.38" r="0.72" fx="0.28" fy="0.28" gradientUnits="objectBoundingBox">
    <stop offset="0%"   stop-color="#7db0d3" stop-opacity="0.420"/>
    <stop offset="45%"  stop-color="#1f77b4" stop-opacity="0.400"/>
    <stop offset="100%" stop-color="#103d5d" stop-opacity="0.140"/>
  </radialGradient>
  <radialGradient id="sg_sphere_fill_13fe5f00" cx="0.38" cy="0.38" r="0.72" fx="0.28" fy="0.28" gradientUnits="objectBoundingBox">
    <stop offset="0%"   stop-color="#78d9e3" stop-opacity="0.420"/>
    <stop offset="45%"  stop-color="#17becf" stop-opacity="0.400"/>
    <stop offset="100%" stop-color="#0b626b" stop-opacity="0.140"/>
  </radialGradient>
  <radialGradient id="sg_sphere_fill_141c1440" cx="0.38" cy="0.38" r="0.72" fx="0.28" fy="0.28" gradientUnits="objectBoundingBox">
    <stop offset="0%"   stop-color="#c0a6d8" stop-opacity="0.420"/>
    <stop offset="45%"  stop-color="#9467bd" stop-opacity="0.400"/>
    <stop offset="100%" stop-color="#4c3562" stop-opacity="0.140"/>
  </radialGradient>
  <radialGradient id="sg_sphere_fill_141c1c80" cx="0.38" cy="0.38" r="0.72" fx="0.28" fy="0.28" gradientUnits="objectBoundingBox">
    <stop offset="0%"   stop-color="#e78182" stop-opacity="0.420"/>
    <stop offset="45%"  stop-color="#d62728" stop-opacity="0.400"/>
    <stop offset="100%" stop-color="#6f1414" stop-opacity="0.140"/>
  </radialGradient>
 </defs>
 <g id="figure_1">
  <g id="patch_1">
   <path d="M 0 432 
L 432 432 
L 432 0 
L 0 0 
L 0 432 
z
" style="fill: none"/>
  </g>
  <g id="axes_1">
   <g id="line2d_1">
    <path d="M 216 216 
L 322.816039 126.370701 
" clip-path="url(#p3afed6aa23)" style="fill: none; stroke-dasharray: 7,7; stroke-dashoffset: 0; stroke: #333333; stroke-opacity: 0.4; stroke-width: 1.75"/>
   </g>
   <g id="line2d_2">
    <path d="M 216 216 
L 62.146708 216 
" clip-path="url(#p3afed6aa23)" style="fill: none; stroke-dasharray: 7,7; stroke-dashoffset: 0; stroke: #333333; stroke-opacity: 0.4; stroke-width: 1.75"/>
   </g>
   <g id="line2d_3">
    <path d="M 216 216 
L 216 369.853292 
" clip-path="url(#p3afed6aa23)" style="fill: none; stroke-dasharray: 7,7; stroke-dashoffset: 0; stroke: #333333; stroke-opacity: 0.4; stroke-width: 1.75"/>
   </g>
   <g id="patch_2">
    <path d="M 214.470257 217.283607 
Q 156.184051 266.191541 100.039004 313.302829 
" clip-path="url(#p3afed6aa23)" style="fill: none; stroke: #333333; stroke-width: 2.5; stroke-linecap: round"/>
    <path d="M 105.258707 312.055955 
L 100.039004 313.302829 
L 102.173327 308.378942 
z
" clip-path="url(#p3afed6aa23)" style="fill: #333333; stroke: #333333; stroke-width: 2.5; stroke-linecap: round"/>
   </g>
   <g id="patch_3">
    <path d="M 218.000919 216 
Q 302.159065 216 383.522127 216 
" clip-path="url(#p3afed6aa23)" style="fill: none; stroke: #333333; stroke-width: 2.5; stroke-linecap: round"/>
    <path d="M 378.722127 213.6 
L 383.522127 216 
L 378.722127 218.4 
z
" clip-path="url(#p3afed6aa23)" style="fill: #333333; stroke: #333333; stroke-width: 2.5; stroke-linecap: round"/>
   </g>
   <g id="patch_4">
    <path d="M 216 213.999081 
Q 216 129.840935 216 48.477873 
" clip-path="url(#p3afed6aa23)" style="fill: none; stroke: #333333; stroke-width: 2.5; stroke-linecap: round"/>
    <path d="M 213.6 53.277873 
L 216 48.477873 
L 218.4 53.277873 
z
" clip-path="url(#p3afed6aa23)" style="fill: #333333; stroke: #333333; stroke-width: 2.5; stroke-linecap: round"/>
   </g>
   <g id="line2d_4">
    <path d="M 322.816039 132.524833 
L 322.816039 120.216569 
" clip-path="url(#p3afed6aa23)" style="fill: none; stroke: #555555; stroke-width: 0.8; stroke-linecap: square"/>
   </g>
   <g id="line2d_5">
    <path d="M 301.452831 150.450692 
L 301.452831 138.142429 
" clip-path="url(#p3afed6aa23)" style="fill: none; stroke: #555555; stroke-width: 0.8; stroke-linecap: square"/>
   </g>
   <g id="line2d_6">
    <path d="M 280.089624 168.376552 
L 280.089624 156.068289 
" clip-path="url(#p3afed6aa23)" style="fill: none; stroke: #555555; stroke-width: 0.8; stroke-linecap: square"/>
   </g>
   <g id="line2d_7">
    <path d="M 258.726416 186.302412 
L 258.726416 173.994149 
" clip-path="url(#p3afed6aa23)" style="fill: none; stroke: #555555; stroke-width: 0.8; stroke-linecap: square"/>
   </g>
   <g id="line2d_8">
    <path d="M 237.363208 204.228272 
L 237.363208 191.920009 
" clip-path="url(#p3afed6aa23)" style="fill: none; stroke: #555555; stroke-width: 0.8; stroke-linecap: square"/>
   </g>
   <g id="line2d_9">
    <path d="M 194.636792 240.079991 
L 194.636792 227.771728 
" clip-path="url(#p3afed6aa23)" style="fill: none; stroke: #555555; stroke-width: 0.8; stroke-linecap: square"/>
   </g>
   <g id="line2d_10">
    <path d="M 173.273584 258.005851 
L 173.273584 245.697588 
" clip-path="url(#p3afed6aa23)" style="fill: none; stroke: #555555; stroke-width: 0.8; stroke-linecap: square"/>
   </g>
   <g id="line2d_11">
    <path d="M 151.910376 275.931711 
L 151.910376 263.623448 
" clip-path="url(#p3afed6aa23)" style="fill: none; stroke: #555555; stroke-width: 0.8; stroke-linecap: square"/>
   </g>
   <g id="line2d_12">
    <path d="M 130.547169 293.857571 
L 130.547169 281.549308 
" clip-path="url(#p3afed6aa23)" style="fill: none; stroke: #555555; stroke-width: 0.8; stroke-linecap: square"/>
   </g>
   <g id="line2d_13">
    <path d="M 109.183961 311.783431 
L 109.183961 299.475167 
" clip-path="url(#p3afed6aa23)" style="fill: none; stroke: #555555; stroke-width: 0.8; stroke-linecap: square"/>
   </g>
   <g id="line2d_14">
    <path d="M 62.146708 222.154132 
L 62.146708 209.845868 
" clip-path="url(#p3afed6aa23)" style="fill: none; stroke: #555555; stroke-width: 0.8; stroke-linecap: square"/>
   </g>
   <g id="line2d_15">
    <path d="M 92.917367 222.154132 
L 92.917367 209.845868 
" clip-path="url(#p3afed6aa23)" style="fill: none; stroke: #555555; stroke-width: 0.8; stroke-linecap: square"/>
   </g>
   <g id="line2d_16">
    <path d="M 123.688025 222.154132 
L 123.688025 209.845868 
" clip-path="url(#p3afed6aa23)" style="fill: none; stroke: #555555; stroke-width: 0.8; stroke-linecap: square"/>
   </g>
   <g id="line2d_17">
    <path d="M 154.458683 222.154132 
L 154.458683 209.845868 
" clip-path="url(#p3afed6aa23)" style="fill: none; stroke: #555555; stroke-width: 0.8; stroke-linecap: square"/>
   </g>
   <g id="line2d_18">
    <path d="M 185.229342 222.154132 
L 185.229342 209.845868 
" clip-path="url(#p3afed6aa23)" style="fill: none; stroke: #555555; stroke-width: 0.8; stroke-linecap: square"/>
   </g>
   <g id="line2d_19">
    <path d="M 246.770658 222.154132 
L 246.770658 209.845868 
" clip-path="url(#p3afed6aa23)" style="fill: none; stroke: #555555; stroke-width: 0.8; stroke-linecap: square"/>
   </g>
   <g id="line2d_20">
    <path d="M 277.541317 222.154132 
L 277.541317 209.845868 
" clip-path="url(#p3afed6aa23)" style="fill: none; stroke: #555555; stroke-width: 0.8; stroke-linecap: square"/>
   </g>
   <g id="line2d_21">
    <path d="M 308.311975 222.154132 
L 308.311975 209.845868 
" clip-path="url(#p3afed6aa23)" style="fill: none; stroke: #555555; stroke-width: 0.8; stroke-linecap: square"/>
   </g>
   <g id="line2d_22">
    <path d="M 339.082633 222.154132 
L 339.082633 209.845868 
" clip-path="url(#p3afed6aa23)" style="fill: none; stroke: #555555; stroke-width: 0.8; stroke-linecap: square"/>
   </g>
   <g id="line2d_23">
    <path d="M 369.853292 222.154132 
L 369.853292 209.845868 
" clip-path="url(#p3afed6aa23)" style="fill: none; stroke: #555555; stroke-width: 0.8; stroke-linecap: square"/>
   </g>
   <g id="line2d_24">
    <path d="M 209.845868 369.853292 
L 222.154132 369.853292 
" clip-path="url(#p3afed6aa23)" style="fill: none; stroke: #555555; stroke-width: 0.8; stroke-linecap: square"/>
   </g>
   <g id="line2d_25">
    <path d="M 209.845868 339.082633 
L 222.154132 339.082633 
" clip-path="url(#p3afed6aa23)" style="fill: none; stroke: #555555; stroke-width: 0.8; stroke-linecap: square"/>
   </g>
   <g id="line2d_26">
    <path d="M 209.845868 308.311975 
L 222.154132 308.311975 
" clip-path="url(#p3afed6aa23)" style="fill: none; stroke: #555555; stroke-width: 0.8; stroke-linecap: square"/>
   </g>
   <g id="line2d_27">
    <path d="M 209.845868 277.541317 
L 222.154132 277.541317 
" clip-path="url(#p3afed6aa23)" style="fill: none; stroke: #555555; stroke-width: 0.8; stroke-linecap: square"/>
   </g>
   <g id="line2d_28">
    <path d="M 209.845868 246.770658 
L 222.154132 246.770658 
" clip-path="url(#p3afed6aa23)" style="fill: none; stroke: #555555; stroke-width: 0.8; stroke-linecap: square"/>
   </g>
   <g id="line2d_29">
    <path d="M 209.845868 185.229342 
L 222.154132 185.229342 
" clip-path="url(#p3afed6aa23)" style="fill: none; stroke: #555555; stroke-width: 0.8; stroke-linecap: square"/>
   </g>
   <g id="line2d_30">
    <path d="M 209.845868 154.458683 
L 222.154132 154.458683 
" clip-path="url(#p3afed6aa23)" style="fill: none; stroke: #555555; stroke-width: 0.8; stroke-linecap: square"/>
   </g>
   <g id="line2d_31">
    <path d="M 209.845868 123.688025 
L 222.154132 123.688025 
" clip-path="url(#p3afed6aa23)" style="fill: none; stroke: #555555; stroke-width: 0.8; stroke-linecap: square"/>
   </g>
   <g id="line2d_32">
    <path d="M 209.845868 92.917367 
L 222.154132 92.917367 
" clip-path="url(#p3afed6aa23)" style="fill: none; stroke: #555555; stroke-width: 0.8; stroke-linecap: square"/>
   </g>
   <g id="line2d_33">
    <path d="M 209.845868 62.146708 
L 222.154132 62.146708 
" clip-path="url(#p3afed6aa23)" style="fill: none; stroke: #555555; stroke-width: 0.8; stroke-linecap: square"/>
   </g>
   <g id="sphere_fill_1417a000">
    <path d="M 351.038391 87.836305 
C 359.198865 87.836305 367.026205 84.594115 372.796532 78.823788 
C 378.566858 73.053462 381.809049 65.226121 381.809049 57.065647 
C 381.809049 48.905173 378.566858 41.077832 372.796532 35.307506 
C 367.026205 29.53718 359.198865 26.294989 351.038391 26.294989 
C 342.877917 26.294989 335.050576 29.53718 329.280249 35.307506 
C 323.509923 41.077832 320.267732 48.905173 320.267732 57.065647 
C 320.267732 65.226121 323.509923 73.053462 329.280249 78.823788 
C 335.050576 84.594115 342.877917 87.836305 351.038391 87.836305 
z
" clip-path="url(#p3afed6aa23)" style="fill: url(#sg_sphere_fill_1417a000)"/>
   </g>
   <g id="line2d_34">
    <path d="M 388.497671 46.783796 
L 388.370458 45.663398 
L 388.013081 44.613299 
L 387.427742 43.639972 
L 386.618051 42.749419 
L 385.589 41.94713 
L 384.196096 41.165215 
L 382.550842 40.504312 
L 380.464598 39.923062 
L 378.107408 39.499654 
L 375.252483 39.222314 
L 372.132264 39.14047 
L 368.49236 39.273404 
L 364.628064 39.63508 
L 360.272602 40.274993 
L 355.779479 41.165215 
L 351.215677 42.292477 
L 346.649232 43.639972 
L 342.14822 45.187613 
L 337.779739 46.912328 
L 333.608915 48.788406 
L 329.697924 50.787879 
L 326.10507 52.880938 
L 323.100612 54.881034 
L 320.455331 56.909216 
L 318.361822 58.783765 
L 316.626324 60.639489 
L 315.366266 62.306661 
L 314.505535 63.780792 
L 313.92284 65.203817 
L 313.639846 66.431883 
L 313.57911 67.347498 
L 313.57911 67.347498 
" clip-path="url(#p81b9138c3e)" style="fill: none; stroke-dasharray: 3.375,4.5; stroke-dashoffset: 0; stroke: #1f77b4; stroke-opacity: 0.3; stroke-width: 1.125"/>
   </g>
   <g id="line2d_35">
    <path d="M 361.881038 21.454689 
L 363.291823 21.577949 
L 364.627062 21.920002 
L 365.878522 22.478739 
L 367.038487 23.250717 
L 368.099807 24.231175 
L 369.055937 25.414068 
L 369.900984 26.792103 
L 370.703327 28.541752 
L 371.356009 30.508485 
L 371.854061 32.677334 
L 372.218833 35.276769 
L 372.388585 38.076827 
L 372.349559 41.329906 
L 372.077043 44.75539 
L 371.574024 48.315748 
L 370.846012 51.971971 
L 369.812743 55.994584 
L 368.538106 60.030967 
L 367.038487 64.029227 
L 365.333167 67.937961 
L 363.444069 71.706918 
L 361.395479 75.287642 
L 359.213736 78.634099 
L 357.105869 81.477942 
L 354.931526 84.054319 
L 352.714529 86.335003 
L 350.665551 88.144468 
L 348.620007 89.667772 
L 346.59673 90.890889 
L 344.792393 91.732788 
L 343.035592 92.31085 
L 341.339697 92.620675 
L 340.195743 92.676605 
L 340.195743 92.676605 
" clip-path="url(#p81b9138c3e)" style="fill: none; stroke-dasharray: 3.375,4.5; stroke-dashoffset: 0; stroke: #1f77b4; stroke-opacity: 0.3; stroke-width: 1.125"/>
   </g>
   <g id="sphere_fill_13fe5f00">
    <path d="M 166.414441 87.836305 
C 174.574915 87.836305 182.402255 84.594115 188.172582 78.823788 
C 193.942908 73.053462 197.185099 65.226121 197.185099 57.065647 
C 197.185099 48.905173 193.942908 41.077832 188.172582 35.307506 
C 182.402255 29.53718 174.574915 26.294989 166.414441 26.294989 
C 158.253967 26.294989 150.426626 29.53718 144.6563 35.307506 
C 138.885973 41.077832 135.643782 48.905173 135.643782 57.065647 
C 135.643782 65.226121 138.885973 73.053462 144.6563 78.823788 
C 150.426626 84.594115 158.253967 87.836305 166.414441 87.836305 
z
" clip-path="url(#p3afed6aa23)" style="fill: url(#sg_sphere_fill_13fe5f00)"/>
   </g>
   <g id="line2d_36">
    <path d="M 203.873721 46.783796 
L 203.746508 45.663398 
L 203.389131 44.613299 
L 202.803793 43.639972 
L 201.994102 42.749419 
L 200.96505 41.94713 
L 199.572146 41.165215 
L 197.926892 40.504312 
L 195.840648 39.923062 
L 193.483458 39.499654 
L 190.628534 39.222314 
L 187.508314 39.14047 
L 183.868411 39.273404 
L 180.004114 39.63508 
L 175.648652 40.274993 
L 171.155529 41.165215 
L 166.591727 42.292477 
L 162.025282 43.639972 
L 157.52427 45.187613 
L 153.15579 46.912328 
L 148.984965 48.788406 
L 145.073974 50.787879 
L 141.48112 52.880938 
L 138.476662 54.881034 
L 135.831381 56.909216 
L 133.737872 58.783765 
L 132.002374 60.639489 
L 130.742316 62.306661 
L 129.881585 63.780792 
L 129.29889 65.203817 
L 129.015896 66.431883 
L 128.95516 67.347498 
L 128.95516 67.347498 
" clip-path="url(#pf275a58932)" style="fill: none; stroke-dasharray: 3.375,4.5; stroke-dashoffset: 0; stroke: #17becf; stroke-opacity: 0.3; stroke-width: 1.125"/>
   </g>
   <g id="line2d_37">
    <path d="M 177.257088 21.454689 
L 178.667873 21.577949 
L 180.003112 21.920002 
L 181.254572 22.478739 
L 182.414537 23.250717 
L 183.475857 24.231175 
L 184.431988 25.414068 
L 185.277034 26.792103 
L 186.079377 28.541752 
L 186.732059 30.508485 
L 187.230111 32.677334 
L 187.594883 35.276769 
L 187.764635 38.076827 
L 187.725609 41.329906 
L 187.453093 44.75539 
L 186.950074 48.315748 
L 186.222062 51.971971 
L 185.188793 55.994584 
L 183.914156 60.030967 
L 182.414537 64.029227 
L 180.709217 67.937961 
L 178.820119 71.706918 
L 176.771529 75.287642 
L 174.589786 78.634099 
L 172.48192 81.477942 
L 170.307576 84.054319 
L 168.090579 86.335003 
L 166.041601 88.144468 
L 163.996057 89.667772 
L 161.97278 90.890889 
L 160.168443 91.732788 
L 158.411642 92.31085 
L 156.715747 92.620675 
L 155.571793 92.676605 
L 155.571793 92.676605 
" clip-path="url(#pf275a58932)" style="fill: none; stroke-dasharray: 3.375,4.5; stroke-dashoffset: 0; stroke: #17becf; stroke-opacity: 0.3; stroke-width: 1.125"/>
   </g>
   <g id="sphere_fill_141c1440">
    <path d="M 166.414441 334.001572 
C 174.574915 334.001572 182.402255 330.759381 188.172582 324.989055 
C 193.942908 319.218728 197.185099 311.391388 197.185099 303.230914 
C 197.185099 295.07044 193.942908 287.243099 188.172582 281.472772 
C 182.402255 275.702446 174.574915 272.460255 166.414441 272.460255 
C 158.253967 272.460255 150.426626 275.702446 144.6563 281.472772 
C 138.885973 287.243099 135.643782 295.07044 135.643782 303.230914 
C 135.643782 311.391388 138.885973 319.218728 144.6563 324.989055 
C 150.426626 330.759381 158.253967 334.001572 166.414441 334.001572 
z
" clip-path="url(#p3afed6aa23)" style="fill: url(#sg_sphere_fill_141c1440)"/>
   </g>
   <g id="line2d_38">
    <path d="M 203.873721 292.949063 
L 203.746508 291.828665 
L 203.389131 290.778565 
L 202.803793 289.805238 
L 201.994102 288.914685 
L 200.96505 288.112397 
L 199.572146 287.330482 
L 197.926892 286.669579 
L 195.840648 286.088329 
L 193.483458 285.664921 
L 190.628534 285.387581 
L 187.508314 285.305736 
L 183.868411 285.43867 
L 180.004114 285.800347 
L 175.648652 286.440259 
L 171.155529 287.330482 
L 166.591727 288.457743 
L 162.025282 289.805238 
L 157.52427 291.352879 
L 153.15579 293.077595 
L 148.984965 294.953673 
L 145.073974 296.953145 
L 141.48112 299.046205 
L 138.476662 301.046301 
L 135.831381 303.074483 
L 133.737872 304.949031 
L 132.002374 306.804755 
L 130.742316 308.471928 
L 129.881585 309.946059 
L 129.29889 311.369084 
L 129.015896 312.59715 
L 128.95516 313.512764 
L 128.95516 313.512764 
" clip-path="url(#p907cc62cad)" style="fill: none; stroke-dasharray: 3.375,4.5; stroke-dashoffset: 0; stroke: #9467bd; stroke-opacity: 0.3; stroke-width: 1.125"/>
   </g>
   <g id="line2d_39">
    <path d="M 177.257088 267.619956 
L 178.667873 267.743215 
L 180.003112 268.085268 
L 181.254572 268.644006 
L 182.414537 269.415983 
L 183.475857 270.396441 
L 184.431988 271.579334 
L 185.277034 272.95737 
L 186.079377 274.707019 
L 186.732059 276.673751 
L 187.230111 278.8426 
L 187.594883 281.442035 
L 187.764635 284.242093 
L 187.725609 287.495173 
L 187.453093 290.920657 
L 186.950074 294.481014 
L 186.222062 298.137237 
L 185.188793 302.15985 
L 183.914156 306.196233 
L 182.414537 310.194493 
L 180.709217 314.103228 
L 178.820119 317.872184 
L 176.771529 321.452908 
L 174.589786 324.799365 
L 172.48192 327.643209 
L 170.307576 330.219586 
L 168.090579 332.500269 
L 166.041601 334.309735 
L 163.996057 335.833039 
L 161.97278 337.056155 
L 160.168443 337.898055 
L 158.411642 338.476116 
L 156.715747 338.785941 
L 155.571793 338.841872 
L 155.571793 338.841872 
" clip-path="url(#p907cc62cad)" style="fill: none; stroke-dasharray: 3.375,4.5; stroke-dashoffset: 0; stroke: #9467bd; stroke-opacity: 0.3; stroke-width: 1.125"/>
   </g>
   <g id="sphere_fill_141c1c80">
    <path d="M 80.961609 405.705011 
C 89.122083 405.705011 96.949424 402.46282 102.719751 396.692494 
C 108.490077 390.922168 111.732268 383.094827 111.732268 374.934353 
C 111.732268 366.773879 108.490077 358.946538 102.719751 353.176212 
C 96.949424 347.405885 89.122083 344.163695 80.961609 344.163695 
C 72.801135 344.163695 64.973795 347.405885 59.203468 353.176212 
C 53.433142 358.946538 50.190951 366.773879 50.190951 374.934353 
C 50.190951 383.094827 53.433142 390.922168 59.203468 396.692494 
C 64.973795 402.46282 72.801135 405.705011 80.961609 405.705011 
z
" clip-path="url(#p3afed6aa23)" style="fill: url(#sg_sphere_fill_141c1c80)"/>
   </g>
   <g id="line2d_40">
    <path d="M 118.42089 364.652502 
L 118.293677 363.532104 
L 117.9363 362.482004 
L 117.350961 361.508678 
L 116.54127 360.618125 
L 115.512219 359.815836 
L 114.119315 359.033921 
L 112.474061 358.373018 
L 110.387816 357.791768 
L 108.030627 357.36836 
L 105.175702 357.09102 
L 102.055483 357.009176 
L 98.415579 357.14211 
L 94.551283 357.503786 
L 90.19582 358.143698 
L 85.702697 359.033921 
L 81.138896 360.161182 
L 76.572451 361.508678 
L 72.071439 363.056319 
L 67.702958 364.781034 
L 63.532134 366.657112 
L 59.621143 368.656584 
L 56.028289 370.749644 
L 53.023831 372.74974 
L 50.37855 374.777922 
L 48.28504 376.65247 
L 46.549543 378.508194 
L 45.289485 380.175367 
L 44.428753 381.649498 
L 43.846059 383.072523 
L 43.563065 384.300589 
L 43.502329 385.216204 
L 43.502329 385.216204 
" clip-path="url(#p4809bc5b80)" style="fill: none; stroke-dasharray: 3.375,4.5; stroke-dashoffset: 0; stroke: #d62728; stroke-opacity: 0.3; stroke-width: 1.125"/>
   </g>
   <g id="line2d_41">
    <path d="M 91.804257 339.323395 
L 93.215042 339.446654 
L 94.550281 339.788707 
L 95.801741 340.347445 
L 96.961706 341.119423 
L 98.023026 342.09988 
L 98.979156 343.282773 
L 99.824202 344.660809 
L 100.626546 346.410458 
L 101.279227 348.377191 
L 101.77728 350.54604 
L 102.142052 353.145474 
L 102.311803 355.945532 
L 102.272778 359.198612 
L 102.000262 362.624096 
L 101.497243 366.184453 
L 100.769231 369.840677 
L 99.735962 373.86329 
L 98.461325 377.899673 
L 96.961706 381.897933 
L 95.256386 385.806667 
L 93.367287 389.575624 
L 91.318698 393.156348 
L 89.136955 396.502805 
L 87.029088 399.346648 
L 84.854745 401.923025 
L 82.637747 404.203709 
L 80.58877 406.013174 
L 78.543226 407.536478 
L 76.519949 408.759594 
L 74.715612 409.601494 
L 72.958811 410.179556 
L 71.262916 410.48938 
L 70.118962 410.545311 
L 70.118962 410.545311 
" clip-path="url(#p4809bc5b80)" style="fill: none; stroke-dasharray: 3.375,4.5; stroke-dashoffset: 0; stroke: #d62728; stroke-opacity: 0.3; stroke-width: 1.125"/>
   </g>
   <g id="text_1">
    <!-- $x$ -->
    <g style="fill: #333333" transform="translate(83.96148 324.46473) scale(0.17 -0.17)">
     <defs>
      <path id="CMMI12-78" d="M 3034 2606 
C 2829 2567 2752 2414 2752 2293 
C 2752 2139 2874 2088 2963 2088 
C 3155 2088 3290 2254 3290 2427 
C 3290 2695 2982 2816 2714 2816 
C 2323 2816 2106 2433 2048 2312 
C 1901 2816 1504 2816 1389 2816 
C 736 2816 390 1980 390 1839 
C 390 1814 416 1782 461 1782 
C 512 1782 525 1820 538 1846 
C 755 2555 1184 2689 1370 2689 
C 1658 2689 1715 2420 1715 2267 
C 1715 2127 1677 1980 1600 1673 
L 1382 798 
C 1286 415 1101 64 762 64 
C 730 64 570 64 435 147 
C 666 192 717 383 717 460 
C 717 588 621 664 499 664 
C 346 664 179 530 179 326 
C 179 57 480 -64 755 -64 
C 1062 -64 1280 179 1414 441 
C 1517 64 1837 -64 2074 -64 
C 2726 -64 3072 773 3072 913 
C 3072 945 3046 971 3008 971 
C 2950 971 2944 939 2925 888 
C 2752 326 2381 64 2093 64 
C 1869 64 1747 230 1747 492 
C 1747 632 1773 734 1875 1156 
L 2099 2024 
C 2195 2408 2413 2689 2707 2689 
C 2720 2689 2899 2689 3034 2606 
z
" transform="scale(0.015625)"/>
     </defs>
     <use xlink:href="#CMMI12-78" transform="scale(0.996264)"/>
    </g>
   </g>
   <g id="text_2">
    <!-- $y$ -->
    <g style="fill: #333333" transform="translate(391.965399 220.233582) scale(0.17 -0.17)">
     <defs>
      <path id="CMMI12-79" d="M 1683 -700 
C 1510 -939 1261 -1152 947 -1152 
C 870 -1152 563 -1152 467 -889 
C 486 -895 518 -895 531 -895 
C 723 -895 851 -729 851 -582 
C 851 -435 730 -384 634 -384 
C 531 -384 307 -458 307 -759 
C 307 -1071 582 -1286 947 -1286 
C 1587 -1286 2234 -700 2413 6 
L 3040 2485 
C 3046 2517 3059 2556 3059 2594 
C 3059 2689 2982 2753 2886 2753 
C 2829 2753 2694 2727 2643 2535 
L 2170 658 
C 2138 543 2138 530 2086 460 
C 1958 281 1747 64 1440 64 
C 1082 64 1050 415 1050 588 
C 1050 952 1222 1443 1395 1903 
C 1466 2088 1504 2178 1504 2305 
C 1504 2574 1312 2816 998 2816 
C 410 2816 173 1890 173 1839 
C 173 1814 198 1782 243 1782 
C 301 1782 307 1807 333 1897 
C 486 2433 730 2689 979 2689 
C 1037 2689 1146 2689 1146 2478 
C 1146 2312 1075 2127 979 1884 
C 666 1047 666 837 666 683 
C 666 77 1101 -64 1421 -64 
C 1606 -64 1837 -6 2061 230 
L 2067 224 
C 1971 -147 1907 -392 1683 -700 
z
" transform="scale(0.015625)"/>
     </defs>
     <use xlink:href="#CMMI12-79" transform="scale(0.996264)"/>
    </g>
   </g>
   <g id="text_3">
    <!-- $z$ -->
    <g style="fill: #333333" transform="translate(212.148165 40.225231) scale(0.17 -0.17)">
     <defs>
      <path id="CMMI12-7a" d="M 813 486 
C 1088 803 1312 1004 1632 1296 
C 2016 1632 2182 1793 2272 1891 
C 2720 2338 2944 2713 2944 2764 
C 2944 2816 2893 2816 2880 2816 
C 2835 2816 2822 2793 2790 2750 
C 2630 2494 2477 2367 2310 2367 
C 2176 2367 2106 2421 1984 2565 
C 1850 2715 1741 2816 1555 2816 
C 1088 2816 806 2257 806 2128 
C 806 2108 813 2068 870 2068 
C 922 2068 928 2091 947 2133 
C 1056 2372 1363 2414 1485 2414 
C 1619 2414 1747 2376 1882 2327 
C 2125 2240 2227 2240 2291 2240 
C 2336 2240 2362 2240 2394 2246 
C 2182 1994 1837 1683 1549 1418 
L 902 816 
C 512 415 275 33 275 -12 
C 275 -51 307 -64 346 -64 
C 384 -64 390 -57 435 14 
C 538 163 742 384 979 384 
C 1114 384 1178 342 1306 193 
C 1427 61 1536 -64 1741 -64 
C 2368 -64 2726 732 2726 876 
C 2726 903 2720 942 2656 942 
C 2605 942 2598 917 2579 855 
C 2438 488 2061 338 1811 338 
C 1677 338 1549 376 1414 425 
C 1158 512 1088 512 1005 512 
C 941 512 870 512 813 486 
z
" transform="scale(0.015625)"/>
     </defs>
     <use xlink:href="#CMMI12-7a" transform="scale(0.996264)"/>
    </g>
   </g>
   <g id="line2d_42">
    <defs>
     <path id="m2836460c92" d="M 0 1.5 
C 0.397805 1.5 0.77937 1.341951 1.06066 1.06066 
C 1.341951 0.77937 1.5 0.397805 1.5 0 
C 1.5 -0.397805 1.341951 -0.77937 1.06066 -1.06066 
C 0.77937 -1.341951 0.397805 -1.5 0 -1.5 
C -0.397805 -1.5 -0.77937 -1.341951 -1.06066 -1.06066 
C -1.341951 -0.77937 -1.5 -0.397805 -1.5 0 
C -1.5 0.397805 -1.341951 0.77937 -1.06066 1.06066 
C -0.77937 1.341951 -0.397805 1.5 0 1.5 
z
" style="stroke: #333333"/>
    </defs>
    <g clip-path="url(#p3afed6aa23)">
     <use xlink:href="#m2836460c92" x="216" y="216" style="fill: #333333; stroke: #333333"/>
    </g>
   </g>
   <g id="text_4">
    <!-- -5 -->
    <g style="fill: #555555" transform="translate(326.508518 129.110427) scale(0.11 -0.11)">
     <defs>
      <path id="CMSS17-2d" d="M 1664 1216 
L 1664 1585 
L 64 1585 
L 64 1216 
L 1664 1216 
z
" transform="scale(0.015625)"/>
      <path id="CMSS17-35" d="M 934 3752 
L 2502 3752 
L 2502 4160 
L 467 4160 
L 467 1781 
L 896 1781 
C 1011 2046 1248 2240 1555 2240 
C 1843 2240 2163 1989 2163 1266 
C 2163 493 1709 267 1376 267 
C 966 267 589 512 422 851 
L 218 499 
C 512 49 992 -128 1376 -128 
C 2118 -128 2701 497 2701 1253 
C 2701 2030 2182 2629 1562 2629 
C 1338 2629 1120 2553 934 2399 
L 934 3752 
z
" transform="scale(0.015625)"/>
     </defs>
     <use xlink:href="#CMSS17-2d" transform="scale(0.996264)"/>
     <use xlink:href="#CMSS17-35" transform="translate(31.229113 0) scale(0.996264)"/>
    </g>
   </g>
   <g id="text_5">
    <!-- -4 -->
    <g style="fill: #555555" transform="translate(305.14531 147.036287) scale(0.11 -0.11)">
     <defs>
      <path id="CMSS17-34" d="M 2253 1088 
L 2835 1088 
L 2835 1477 
L 2253 1477 
L 2253 4192 
L 1690 4192 
L 166 1477 
L 166 1088 
L 1747 1088 
L 1747 0 
L 2253 0 
L 2253 1088 
z
M 659 1477 
C 1030 2127 1766 3439 1766 3885 
L 1766 1477 
L 659 1477 
z
" transform="scale(0.015625)"/>
     </defs>
     <use xlink:href="#CMSS17-2d" transform="scale(0.996264)"/>
     <use xlink:href="#CMSS17-34" transform="translate(31.229113 0) scale(0.996264)"/>
    </g>
   </g>
   <g id="text_6">
    <!-- -3 -->
    <g style="fill: #555555" transform="translate(283.782103 164.962147) scale(0.11 -0.11)">
     <defs>
      <path id="CMSS17-33" d="M 1005 2025 
L 1440 2025 
C 2042 2025 2214 1507 2214 1146 
C 2214 653 1933 267 1472 267 
C 1114 267 608 444 320 912 
C 275 691 275 678 250 526 
C 550 88 1037 -128 1485 -128 
C 2214 -128 2752 473 2752 1138 
C 2752 1638 2400 2057 1920 2215 
C 2304 2424 2586 2816 2586 3273 
C 2586 3805 2093 4229 1491 4229 
C 941 4229 512 3892 333 3530 
C 378 3468 493 3284 550 3189 
C 691 3562 1056 3840 1485 3840 
C 1843 3840 2080 3607 2080 3271 
C 2080 2923 1856 2543 1478 2455 
C 1453 2455 1056 2417 1005 2411 
L 1005 2025 
z
" transform="scale(0.015625)"/>
     </defs>
     <use xlink:href="#CMSS17-2d" transform="scale(0.996264)"/>
     <use xlink:href="#CMSS17-33" transform="translate(31.229113 0) scale(0.996264)"/>
    </g>
   </g>
   <g id="text_7">
    <!-- -2 -->
    <g style="fill: #555555" transform="translate(262.418895 182.888006) scale(0.11 -0.11)">
     <defs>
      <path id="CMSS17-32" d="M 1651 1357 
C 1830 1541 2099 1764 2285 1987 
C 2464 2204 2701 2511 2701 2957 
C 2701 3657 2227 4288 1421 4288 
C 787 4288 422 3893 250 3274 
L 499 2929 
C 640 3510 838 3880 1338 3880 
C 1888 3880 2195 3433 2195 2942 
C 2195 2355 1747 1901 1408 1563 
C 1030 1187 659 804 301 408 
L 301 0 
L 2701 0 
L 2701 433 
L 1613 433 
C 1536 433 1459 433 1382 433 
L 742 433 
L 742 439 
L 1651 1357 
z
" transform="scale(0.015625)"/>
     </defs>
     <use xlink:href="#CMSS17-2d" transform="scale(0.996264)"/>
     <use xlink:href="#CMSS17-32" transform="translate(31.229113 0) scale(0.996264)"/>
    </g>
   </g>
   <g id="text_8">
    <!-- -1 -->
    <g style="fill: #555555" transform="translate(241.055687 200.813866) scale(0.11 -0.11)">
     <defs>
      <path id="CMSS17-31" d="M 1818 4288 
L 1696 4288 
C 1350 3940 947 3890 538 3890 
L 538 3520 
C 723 3520 1024 3520 1325 3667 
L 1325 369 
L 570 369 
L 570 0 
L 2573 0 
L 2573 369 
L 1818 369 
L 1818 4288 
z
" transform="scale(0.015625)"/>
     </defs>
     <use xlink:href="#CMSS17-2d" transform="scale(0.996264)"/>
     <use xlink:href="#CMSS17-31" transform="translate(31.229113 0) scale(0.996264)"/>
    </g>
   </g>
   <g id="text_9">
    <!-- 1 -->
    <g style="fill: #555555" transform="translate(185.464846 236.665586) scale(0.11 -0.11)">
     <use xlink:href="#CMSS17-31" transform="scale(0.996264)"/>
    </g>
   </g>
   <g id="text_10">
    <!-- 2 -->
    <g style="fill: #555555" transform="translate(164.101638 254.591446) scale(0.11 -0.11)">
     <use xlink:href="#CMSS17-32" transform="scale(0.996264)"/>
    </g>
   </g>
   <g id="text_11">
    <!-- 3 -->
    <g style="fill: #555555" transform="translate(142.73843 272.517305) scale(0.11 -0.11)">
     <use xlink:href="#CMSS17-33" transform="scale(0.996264)"/>
    </g>
   </g>
   <g id="text_12">
    <!-- 4 -->
    <g style="fill: #555555" transform="translate(121.375222 290.443165) scale(0.11 -0.11)">
     <use xlink:href="#CMSS17-34" transform="scale(0.996264)"/>
    </g>
   </g>
   <g id="text_13">
    <!-- 5 -->
    <g style="fill: #555555" transform="translate(100.012015 308.369025) scale(0.11 -0.11)">
     <use xlink:href="#CMSS17-35" transform="scale(0.996264)"/>
    </g>
   </g>
   <g id="text_14">
    <!-- -5 -->
    <g style="fill: #555555" transform="translate(57.580488 228.533652) scale(0.11 -0.11)">
     <use xlink:href="#CMSS17-2d" transform="scale(0.996264)"/>
     <use xlink:href="#CMSS17-35" transform="translate(31.229113 0) scale(0.996264)"/>
    </g>
   </g>
   <g id="text_15">
    <!-- -4 -->
    <g style="fill: #555555" transform="translate(88.351147 228.533652) scale(0.11 -0.11)">
     <use xlink:href="#CMSS17-2d" transform="scale(0.996264)"/>
     <use xlink:href="#CMSS17-34" transform="translate(31.229113 0) scale(0.996264)"/>
    </g>
   </g>
   <g id="text_16">
    <!-- -3 -->
    <g style="fill: #555555" transform="translate(119.121805 228.533652) scale(0.11 -0.11)">
     <use xlink:href="#CMSS17-2d" transform="scale(0.996264)"/>
     <use xlink:href="#CMSS17-33" transform="translate(31.229113 0) scale(0.996264)"/>
    </g>
   </g>
   <g id="text_17">
    <!-- -2 -->
    <g style="fill: #555555" transform="translate(149.892463 228.533652) scale(0.11 -0.11)">
     <use xlink:href="#CMSS17-2d" transform="scale(0.996264)"/>
     <use xlink:href="#CMSS17-32" transform="translate(31.229113 0) scale(0.996264)"/>
    </g>
   </g>
   <g id="text_18">
    <!-- -1 -->
    <g style="fill: #555555" transform="translate(180.663122 228.533652) scale(0.11 -0.11)">
     <use xlink:href="#CMSS17-2d" transform="scale(0.996264)"/>
     <use xlink:href="#CMSS17-31" transform="translate(31.229113 0) scale(0.996264)"/>
    </g>
   </g>
   <g id="text_19">
    <!-- 1 -->
    <g style="fill: #555555" transform="translate(244.030925 228.533652) scale(0.11 -0.11)">
     <use xlink:href="#CMSS17-31" transform="scale(0.996264)"/>
    </g>
   </g>
   <g id="text_20">
    <!-- 2 -->
    <g style="fill: #555555" transform="translate(274.801583 228.533652) scale(0.11 -0.11)">
     <use xlink:href="#CMSS17-32" transform="scale(0.996264)"/>
    </g>
   </g>
   <g id="text_21">
    <!-- 3 -->
    <g style="fill: #555555" transform="translate(305.572241 228.533652) scale(0.11 -0.11)">
     <use xlink:href="#CMSS17-33" transform="scale(0.996264)"/>
    </g>
   </g>
   <g id="text_22">
    <!-- 4 -->
    <g style="fill: #555555" transform="translate(336.3429 228.533652) scale(0.11 -0.11)">
     <use xlink:href="#CMSS17-34" transform="scale(0.996264)"/>
    </g>
   </g>
   <g id="text_23">
    <!-- 5 -->
    <g style="fill: #555555" transform="translate(367.113558 228.533652) scale(0.11 -0.11)">
     <use xlink:href="#CMSS17-35" transform="scale(0.996264)"/>
    </g>
   </g>
   <g id="text_24">
    <!-- -5 -->
    <g style="fill: #555555" transform="translate(199.174895 372.593018) scale(0.11 -0.11)">
     <use xlink:href="#CMSS17-2d" transform="scale(0.996264)"/>
     <use xlink:href="#CMSS17-35" transform="translate(31.229113 0) scale(0.996264)"/>
    </g>
   </g>
   <g id="text_25">
    <!-- -4 -->
    <g style="fill: #555555" transform="translate(199.174895 341.822359) scale(0.11 -0.11)">
     <use xlink:href="#CMSS17-2d" transform="scale(0.996264)"/>
     <use xlink:href="#CMSS17-34" transform="translate(31.229113 0) scale(0.996264)"/>
    </g>
   </g>
   <g id="text_26">
    <!-- -3 -->
    <g style="fill: #555555" transform="translate(199.174895 311.051701) scale(0.11 -0.11)">
     <use xlink:href="#CMSS17-2d" transform="scale(0.996264)"/>
     <use xlink:href="#CMSS17-33" transform="translate(31.229113 0) scale(0.996264)"/>
    </g>
   </g>
   <g id="text_27">
    <!-- -2 -->
    <g style="fill: #555555" transform="translate(199.174895 280.281043) scale(0.11 -0.11)">
     <use xlink:href="#CMSS17-2d" transform="scale(0.996264)"/>
     <use xlink:href="#CMSS17-32" transform="translate(31.229113 0) scale(0.996264)"/>
    </g>
   </g>
   <g id="text_28">
    <!-- -1 -->
    <g style="fill: #555555" transform="translate(199.174895 249.510384) scale(0.11 -0.11)">
     <use xlink:href="#CMSS17-2d" transform="scale(0.996264)"/>
     <use xlink:href="#CMSS17-31" transform="translate(31.229113 0) scale(0.996264)"/>
    </g>
   </g>
   <g id="text_29">
    <!-- 1 -->
    <g style="fill: #555555" transform="translate(202.827868 187.969068) scale(0.11 -0.11)">
     <use xlink:href="#CMSS17-31" transform="scale(0.996264)"/>
    </g>
   </g>
   <g id="text_30">
    <!-- 2 -->
    <g style="fill: #555555" transform="translate(202.827868 157.198409) scale(0.11 -0.11)">
     <use xlink:href="#CMSS17-32" transform="scale(0.996264)"/>
    </g>
   </g>
   <g id="text_31">
    <!-- 3 -->
    <g style="fill: #555555" transform="translate(202.827868 126.427751) scale(0.11 -0.11)">
     <use xlink:href="#CMSS17-33" transform="scale(0.996264)"/>
    </g>
   </g>
   <g id="text_32">
    <!-- 4 -->
    <g style="fill: #555555" transform="translate(202.827868 95.657093) scale(0.11 -0.11)">
     <use xlink:href="#CMSS17-34" transform="scale(0.996264)"/>
    </g>
   </g>
   <g id="text_33">
    <!-- 5 -->
    <g style="fill: #555555" transform="translate(202.827868 64.886435) scale(0.11 -0.11)">
     <use xlink:href="#CMSS17-35" transform="scale(0.996264)"/>
    </g>
   </g>
   <g id="line2d_43">
    <path d="M 329.675183 74.991507 
L 333.295846 74.876277 
L 337.144612 74.532068 
L 341.487727 73.910445 
L 345.97322 73.037705 
L 350.534222 71.926858 
L 355.102741 70.594465 
L 359.61067 69.060389 
L 363.990806 67.347498 
L 368.177851 65.481329 
L 372.109386 63.489701 
L 375.726801 61.402305 
L 378.757343 59.405441 
L 381.431523 57.378497 
L 383.553883 55.503306 
L 385.319997 53.645232 
L 386.609384 51.974428 
L 387.497594 50.495798 
L 388.108327 49.067168 
L 388.416858 47.833147 
L 388.497671 46.783796 
L 388.497671 46.783796 
" clip-path="url(#p81b9138c3e)" style="fill: none; stroke: #1f77b4; stroke-opacity: 0.7; stroke-width: 1.625; stroke-linecap: round"/>
   </g>
   <g id="line2d_44">
    <path d="M 313.57911 67.347498 
L 313.581842 67.475247 
L 313.587427 67.602203 
L 313.595863 67.728357 
L 313.607151 67.853699 
L 313.621289 67.978219 
L 313.638277 68.101908 
L 313.658113 68.224757 
L 313.680795 68.346756 
L 313.706323 68.467896 
L 313.734693 68.588168 
L 313.765905 68.707562 
L 313.799955 68.826069 
L 313.83684 68.943681 
L 313.876559 69.060389 
L 313.919108 69.176183 
L 313.964483 69.291054 
L 314.012682 69.404995 
L 314.0637 69.517996 
L 314.117534 69.630048 
L 314.17418 69.741144 
L 314.233634 69.851275 
L 314.29589 69.960432 
L 314.360944 70.068606 
L 314.428791 70.175791 
L 314.499426 70.281977 
L 314.572844 70.387157 
L 314.649039 70.491322 
L 314.728005 70.594465 
L 314.809736 70.696578 
L 314.894226 70.797652 
L 314.981469 70.897681 
L 315.071457 70.996657 
L 315.164185 71.094571 
L 315.259644 71.191417 
L 315.357828 71.287188 
L 315.45873 71.381875 
L 315.562341 71.475473 
L 315.668653 71.567972 
L 315.777659 71.659368 
L 315.889351 71.749652 
L 316.003719 71.838818 
L 316.120755 71.926858 
L 316.24045 72.013767 
L 316.362795 72.099538 
L 316.487781 72.184164 
L 316.615398 72.267638 
L 316.745637 72.349955 
L 316.878487 72.431108 
L 317.013938 72.511091 
L 317.151981 72.589897 
L 317.292604 72.667521 
L 317.435797 72.743957 
L 317.581549 72.8192 
L 317.729849 72.893242 
L 317.880685 72.966079 
L 318.034046 73.037705 
L 318.189921 73.108115 
L 318.348298 73.177303 
L 318.509164 73.245264 
L 318.672507 73.311993 
L 318.838315 73.377485 
L 319.006575 73.441735 
L 319.177274 73.504737 
L 319.3504 73.566488 
L 319.525939 73.626982 
L 319.703878 73.686215 
L 319.884203 73.744182 
L 320.0669 73.800879 
L 320.251956 73.856302 
L 320.439357 73.910445 
L 320.629088 73.963306 
L 320.821134 74.014881 
L 321.015482 74.065164 
L 321.212116 74.114153 
L 321.411022 74.161844 
L 321.612184 74.208232 
L 321.815586 74.253315 
L 322.021214 74.29709 
L 322.229052 74.339552 
L 322.439084 74.380698 
L 322.651294 74.420526 
L 322.865665 74.459032 
L 323.082182 74.496214 
L 323.300828 74.532068 
L 323.521587 74.566593 
L 323.744441 74.599784 
L 323.969373 74.63164 
L 324.196367 74.662158 
L 324.425405 74.691337 
L 324.656469 74.719173 
L 324.889543 74.745665 
L 325.124608 74.77081 
L 325.361646 74.794607 
L 325.60064 74.817054 
L 325.841571 74.838149 
L 326.084421 74.85789 
L 326.329171 74.876277 
L 326.575803 74.893307 
L 326.824298 74.90898 
L 327.074637 74.923294 
L 327.3268 74.936248 
L 327.58077 74.94784 
L 327.836526 74.958072 
L 328.094048 74.96694 
L 328.353319 74.974446 
L 328.614316 74.980587 
L 328.877021 74.985364 
L 329.141414 74.988777 
L 329.407475 74.990824 
L 329.675183 74.991507 
" clip-path="url(#p81b9138c3e)" style="fill: none; stroke: #1f77b4; stroke-opacity: 0.7; stroke-width: 1.625; stroke-linecap: round"/>
   </g>
   <g id="line2d_45">
    <path d="M 329.675183 74.991507 
L 329.792213 71.676898 
L 330.14202 68.202204 
L 330.720773 64.605497 
L 331.598699 60.617101 
L 332.726547 56.583047 
L 334.089818 52.555198 
L 335.670985 48.585336 
L 337.449719 44.7245 
L 339.403154 41.022325 
L 341.506174 37.526407 
L 343.731743 34.281692 
L 345.870163 31.545667 
L 348.065207 29.089244 
L 350.292825 26.939337 
L 352.342583 25.258035 
L 354.380333 23.869604 
L 356.206618 22.872351 
L 357.993571 22.135329 
L 359.72759 21.664148 
L 361.232032 21.470385 
L 361.881038 21.454689 
L 361.881038 21.454689 
" clip-path="url(#p81b9138c3e)" style="fill: none; stroke: #1f77b4; stroke-opacity: 0.7; stroke-width: 1.625; stroke-linecap: round"/>
   </g>
   <g id="line2d_46">
    <path d="M 340.195743 92.676605 
L 340.035525 92.67375 
L 339.876145 92.668182 
L 339.717615 92.659904 
L 339.559947 92.648915 
L 339.403154 92.635216 
L 339.247246 92.618808 
L 339.092236 92.599693 
L 338.938136 92.577871 
L 338.784958 92.553346 
L 338.632713 92.526117 
L 338.481412 92.496189 
L 338.331068 92.463562 
L 338.181691 92.428239 
L 338.033294 92.390224 
L 337.885887 92.349518 
L 337.739481 92.306125 
L 337.594088 92.260049 
L 337.449719 92.211293 
L 337.306385 92.15986 
L 337.164097 92.105754 
L 337.022865 92.04898 
L 336.882701 91.989542 
L 336.743614 91.927444 
L 336.605617 91.862692 
L 336.468718 91.795289 
L 336.332929 91.725242 
L 336.198259 91.652555 
L 336.06472 91.577234 
L 335.932321 91.499285 
L 335.801073 91.418714 
L 335.670985 91.335527 
L 335.542067 91.24973 
L 335.414329 91.16133 
L 335.287782 91.070333 
L 335.162433 90.976746 
L 335.038294 90.880577 
L 334.915373 90.781833 
L 334.79368 90.680522 
L 334.673224 90.57665 
L 334.554014 90.470227 
L 334.43606 90.361259 
L 334.31937 90.249756 
L 334.203953 90.135726 
L 334.089818 90.019178 
L 333.976974 89.90012 
L 333.865429 89.778561 
L 333.755192 89.654512 
L 333.646272 89.52798 
L 333.538675 89.398976 
L 333.432412 89.26751 
L 333.327489 89.133592 
L 333.223914 88.997232 
L 333.121697 88.85844 
L 333.020844 88.717227 
L 332.921363 88.573603 
L 332.823262 88.42758 
L 332.726547 88.279169 
L 332.631228 88.12838 
L 332.53731 87.975226 
L 332.444801 87.819718 
L 332.353708 87.661869 
L 332.264038 87.501689 
L 332.175798 87.339191 
L 332.088994 87.174388 
L 332.003633 87.007292 
L 331.919722 86.837916 
L 331.837267 86.666272 
L 331.756274 86.492374 
L 331.676749 86.316236 
L 331.598699 86.137869 
L 331.522129 85.957289 
L 331.447046 85.774509 
L 331.373454 85.589542 
L 331.30136 85.402403 
L 331.230769 85.213106 
L 331.161687 85.021666 
L 331.094118 84.828097 
L 331.028068 84.632413 
L 330.963542 84.43463 
L 330.900544 84.234763 
L 330.839081 84.032827 
L 330.779155 83.828837 
L 330.720773 83.622809 
L 330.663937 83.414759 
L 330.608653 83.204702 
L 330.554925 82.992654 
L 330.502757 82.778632 
L 330.452153 82.562652 
L 330.403116 82.344731 
L 330.355651 82.124884 
L 330.309761 81.903128 
L 330.26545 81.679482 
L 330.22272 81.45396 
L 330.181576 81.226582 
L 330.14202 80.997364 
L 330.104055 80.766323 
L 330.067685 80.533477 
L 330.032912 80.298844 
L 329.999738 80.062442 
L 329.968166 79.824288 
L 329.938199 79.584401 
L 329.909839 79.3428 
L 329.883088 79.099502 
L 329.857948 78.854526 
L 329.834421 78.60789 
L 329.812509 78.359614 
L 329.792213 78.109717 
L 329.773535 77.858217 
L 329.756476 77.605133 
L 329.741038 77.350486 
L 329.727222 77.094293 
L 329.715029 76.836575 
L 329.70446 76.577352 
L 329.695516 76.316643 
L 329.688197 76.054468 
L 329.682503 75.790846 
L 329.678436 75.525799 
L 329.675996 75.259346 
L 329.675183 74.991507 
" clip-path="url(#p81b9138c3e)" style="fill: none; stroke: #1f77b4; stroke-opacity: 0.7; stroke-width: 1.625; stroke-linecap: round"/>
   </g>
   <g id="line2d_47">
    <path d="M 145.051233 74.991507 
L 148.671896 74.876277 
L 152.520663 74.532068 
L 156.863777 73.910445 
L 161.34927 73.037705 
L 165.910273 71.926858 
L 170.478791 70.594465 
L 174.98672 69.060389 
L 179.366856 67.347498 
L 183.553901 65.481329 
L 187.485436 63.489701 
L 191.102851 61.402305 
L 194.133394 59.405441 
L 196.807573 57.378497 
L 198.929934 55.503306 
L 200.696048 53.645232 
L 201.985434 51.974428 
L 202.873644 50.495798 
L 203.484377 49.067168 
L 203.792908 47.833147 
L 203.873721 46.783796 
L 203.873721 46.783796 
" clip-path="url(#pf275a58932)" style="fill: none; stroke: #17becf; stroke-opacity: 0.7; stroke-width: 1.625; stroke-linecap: round"/>
   </g>
   <g id="line2d_48">
    <path d="M 128.95516 67.347498 
L 128.957892 67.475247 
L 128.963477 67.602203 
L 128.971913 67.728357 
L 128.983201 67.853699 
L 128.997339 67.978219 
L 129.014327 68.101908 
L 129.034163 68.224757 
L 129.056846 68.346756 
L 129.082373 68.467896 
L 129.110744 68.588168 
L 129.141955 68.707562 
L 129.176005 68.826069 
L 129.21289 68.943681 
L 129.252609 69.060389 
L 129.295158 69.176183 
L 129.340533 69.291054 
L 129.388732 69.404995 
L 129.43975 69.517996 
L 129.493585 69.630048 
L 129.55023 69.741144 
L 129.609684 69.851275 
L 129.67194 69.960432 
L 129.736994 70.068606 
L 129.804841 70.175791 
L 129.875476 70.281977 
L 129.948894 70.387157 
L 130.025089 70.491322 
L 130.104055 70.594465 
L 130.185786 70.696578 
L 130.270276 70.797652 
L 130.357519 70.897681 
L 130.447507 70.996657 
L 130.540235 71.094571 
L 130.635694 71.191417 
L 130.733879 71.287188 
L 130.83478 71.381875 
L 130.938391 71.475473 
L 131.044703 71.567972 
L 131.15371 71.659368 
L 131.265401 71.749652 
L 131.379769 71.838818 
L 131.496805 71.926858 
L 131.6165 72.013767 
L 131.738845 72.099538 
L 131.863831 72.184164 
L 131.991448 72.267638 
L 132.121687 72.349955 
L 132.254537 72.431108 
L 132.389988 72.511091 
L 132.528031 72.589897 
L 132.668654 72.667521 
L 132.811847 72.743957 
L 132.957599 72.8192 
L 133.105899 72.893242 
L 133.256735 72.966079 
L 133.410097 73.037705 
L 133.565972 73.108115 
L 133.724348 73.177303 
L 133.885214 73.245264 
L 134.048557 73.311993 
L 134.214365 73.377485 
L 134.382625 73.441735 
L 134.553324 73.504737 
L 134.72645 73.566488 
L 134.901989 73.626982 
L 135.079928 73.686215 
L 135.260253 73.744182 
L 135.44295 73.800879 
L 135.628006 73.856302 
L 135.815407 73.910445 
L 136.005138 73.963306 
L 136.197184 74.014881 
L 136.391532 74.065164 
L 136.588166 74.114153 
L 136.787072 74.161844 
L 136.988234 74.208232 
L 137.191636 74.253315 
L 137.397264 74.29709 
L 137.605102 74.339552 
L 137.815134 74.380698 
L 138.027344 74.420526 
L 138.241716 74.459032 
L 138.458233 74.496214 
L 138.676879 74.532068 
L 138.897637 74.566593 
L 139.120491 74.599784 
L 139.345423 74.63164 
L 139.572417 74.662158 
L 139.801455 74.691337 
L 140.032519 74.719173 
L 140.265593 74.745665 
L 140.500658 74.77081 
L 140.737696 74.794607 
L 140.97669 74.817054 
L 141.217621 74.838149 
L 141.460471 74.85789 
L 141.705221 74.876277 
L 141.951853 74.893307 
L 142.200348 74.90898 
L 142.450687 74.923294 
L 142.702851 74.936248 
L 142.95682 74.94784 
L 143.212576 74.958072 
L 143.470099 74.96694 
L 143.729369 74.974446 
L 143.990366 74.980587 
L 144.253072 74.985364 
L 144.517465 74.988777 
L 144.783525 74.990824 
L 145.051233 74.991507 
" clip-path="url(#pf275a58932)" style="fill: none; stroke: #17becf; stroke-opacity: 0.7; stroke-width: 1.625; stroke-linecap: round"/>
   </g>
   <g id="line2d_49">
    <path d="M 145.051233 74.991507 
L 145.168263 71.676898 
L 145.51807 68.202204 
L 146.096823 64.605497 
L 146.974749 60.617101 
L 148.102598 56.583047 
L 149.465868 52.555198 
L 151.047035 48.585336 
L 152.82577 44.7245 
L 154.779204 41.022325 
L 156.882224 37.526407 
L 159.107793 34.281692 
L 161.246213 31.545667 
L 163.441257 29.089244 
L 165.668876 26.939337 
L 167.718633 25.258035 
L 169.756383 23.869604 
L 171.582668 22.872351 
L 173.369621 22.135329 
L 175.10364 21.664148 
L 176.608083 21.470385 
L 177.257088 21.454689 
L 177.257088 21.454689 
" clip-path="url(#pf275a58932)" style="fill: none; stroke: #17becf; stroke-opacity: 0.7; stroke-width: 1.625; stroke-linecap: round"/>
   </g>
   <g id="line2d_50">
    <path d="M 155.571793 92.676605 
L 155.411575 92.67375 
L 155.252195 92.668182 
L 155.093665 92.659904 
L 154.935998 92.648915 
L 154.779204 92.635216 
L 154.623296 92.618808 
L 154.468287 92.599693 
L 154.314187 92.577871 
L 154.161008 92.553346 
L 154.008763 92.526117 
L 153.857462 92.496189 
L 153.707118 92.463562 
L 153.557741 92.428239 
L 153.409344 92.390224 
L 153.261937 92.349518 
L 153.115531 92.306125 
L 152.970138 92.260049 
L 152.82577 92.211293 
L 152.682435 92.15986 
L 152.540147 92.105754 
L 152.398915 92.04898 
L 152.258751 91.989542 
L 152.119665 91.927444 
L 151.981667 91.862692 
L 151.844768 91.795289 
L 151.708979 91.725242 
L 151.57431 91.652555 
L 151.44077 91.577234 
L 151.308372 91.499285 
L 151.177123 91.418714 
L 151.047035 91.335527 
L 150.918117 91.24973 
L 150.79038 91.16133 
L 150.663832 91.070333 
L 150.538483 90.976746 
L 150.414344 90.880577 
L 150.291423 90.781833 
L 150.16973 90.680522 
L 150.049274 90.57665 
L 149.930064 90.470227 
L 149.81211 90.361259 
L 149.69542 90.249756 
L 149.580003 90.135726 
L 149.465868 90.019178 
L 149.353024 89.90012 
L 149.24148 89.778561 
L 149.131243 89.654512 
L 149.022322 89.52798 
L 148.914725 89.398976 
L 148.808462 89.26751 
L 148.703539 89.133592 
L 148.599965 88.997232 
L 148.497747 88.85844 
L 148.396894 88.717227 
L 148.297413 88.573603 
L 148.199312 88.42758 
L 148.102598 88.279169 
L 148.007278 88.12838 
L 147.91336 87.975226 
L 147.820851 87.819718 
L 147.729758 87.661869 
L 147.640088 87.501689 
L 147.551848 87.339191 
L 147.465044 87.174388 
L 147.379683 87.007292 
L 147.295772 86.837916 
L 147.213317 86.666272 
L 147.132324 86.492374 
L 147.052799 86.316236 
L 146.974749 86.137869 
L 146.898179 85.957289 
L 146.823096 85.774509 
L 146.749504 85.589542 
L 146.67741 85.402403 
L 146.606819 85.213106 
L 146.537737 85.021666 
L 146.470168 84.828097 
L 146.404118 84.632413 
L 146.339592 84.43463 
L 146.276595 84.234763 
L 146.215131 84.032827 
L 146.155205 83.828837 
L 146.096823 83.622809 
L 146.039987 83.414759 
L 145.984704 83.204702 
L 145.930975 82.992654 
L 145.878807 82.778632 
L 145.828203 82.562652 
L 145.779167 82.344731 
L 145.731702 82.124884 
L 145.685811 81.903128 
L 145.6415 81.679482 
L 145.598771 81.45396 
L 145.557626 81.226582 
L 145.51807 80.997364 
L 145.480106 80.766323 
L 145.443735 80.533477 
L 145.408962 80.298844 
L 145.375788 80.062442 
L 145.344216 79.824288 
L 145.314249 79.584401 
L 145.285889 79.3428 
L 145.259138 79.099502 
L 145.233998 78.854526 
L 145.210471 78.60789 
L 145.188559 78.359614 
L 145.168263 78.109717 
L 145.149585 77.858217 
L 145.132526 77.605133 
L 145.117089 77.350486 
L 145.103273 77.094293 
L 145.09108 76.836575 
L 145.08051 76.577352 
L 145.071566 76.316643 
L 145.064247 76.054468 
L 145.058554 75.790846 
L 145.054487 75.525799 
L 145.052046 75.259346 
L 145.051233 74.991507 
" clip-path="url(#pf275a58932)" style="fill: none; stroke: #17becf; stroke-opacity: 0.7; stroke-width: 1.625; stroke-linecap: round"/>
   </g>
   <g id="line2d_51">
    <path d="M 145.051233 321.156773 
L 148.671896 321.041543 
L 152.520663 320.697335 
L 156.863777 320.075712 
L 161.34927 319.202972 
L 165.910273 318.092125 
L 170.478791 316.759732 
L 174.98672 315.225655 
L 179.366856 313.512764 
L 183.553901 311.646595 
L 187.485436 309.654967 
L 191.102851 307.567572 
L 194.133394 305.570708 
L 196.807573 303.543763 
L 198.929934 301.668572 
L 200.696048 299.810498 
L 201.985434 298.139694 
L 202.873644 296.661064 
L 203.484377 295.232434 
L 203.792908 293.998413 
L 203.873721 292.949063 
L 203.873721 292.949063 
" clip-path="url(#p907cc62cad)" style="fill: none; stroke: #9467bd; stroke-opacity: 0.7; stroke-width: 1.625; stroke-linecap: round"/>
   </g>
   <g id="line2d_52">
    <path d="M 128.95516 313.512764 
L 128.957892 313.640513 
L 128.963477 313.76747 
L 128.971913 313.893623 
L 128.983201 314.018965 
L 128.997339 314.143486 
L 129.014327 314.267175 
L 129.034163 314.390024 
L 129.056846 314.512023 
L 129.082373 314.633163 
L 129.110744 314.753434 
L 129.141955 314.872828 
L 129.176005 314.991336 
L 129.21289 315.108948 
L 129.252609 315.225655 
L 129.295158 315.341449 
L 129.340533 315.456321 
L 129.388732 315.570261 
L 129.43975 315.683262 
L 129.493585 315.795315 
L 129.55023 315.906411 
L 129.609684 316.016541 
L 129.67194 316.125698 
L 129.736994 316.233873 
L 129.804841 316.341058 
L 129.875476 316.447244 
L 129.948894 316.552424 
L 130.025089 316.656589 
L 130.104055 316.759732 
L 130.185786 316.861844 
L 130.270276 316.962919 
L 130.357519 317.062948 
L 130.447507 317.161923 
L 130.540235 317.259838 
L 130.635694 317.356684 
L 130.733879 317.452454 
L 130.83478 317.547142 
L 130.938391 317.640739 
L 131.044703 317.733239 
L 131.15371 317.824634 
L 131.265401 317.914918 
L 131.379769 318.004084 
L 131.496805 318.092125 
L 131.6165 318.179034 
L 131.738845 318.264805 
L 131.863831 318.34943 
L 131.991448 318.432905 
L 132.121687 318.515222 
L 132.254537 318.596374 
L 132.389988 318.676357 
L 132.528031 318.755164 
L 132.668654 318.832788 
L 132.811847 318.909224 
L 132.957599 318.984466 
L 133.105899 319.058508 
L 133.256735 319.131345 
L 133.410097 319.202972 
L 133.565972 319.273381 
L 133.724348 319.34257 
L 133.885214 319.410531 
L 134.048557 319.47726 
L 134.214365 319.542752 
L 134.382625 319.607001 
L 134.553324 319.670004 
L 134.72645 319.731755 
L 134.901989 319.792249 
L 135.079928 319.851481 
L 135.260253 319.909448 
L 135.44295 319.966145 
L 135.628006 320.021568 
L 135.815407 320.075712 
L 136.005138 320.128573 
L 136.197184 320.180147 
L 136.391532 320.23043 
L 136.588166 320.279419 
L 136.787072 320.32711 
L 136.988234 320.373499 
L 137.191636 320.418582 
L 137.397264 320.462356 
L 137.605102 320.504818 
L 137.815134 320.545965 
L 138.027344 320.585792 
L 138.241716 320.624299 
L 138.458233 320.66148 
L 138.676879 320.697335 
L 138.897637 320.731859 
L 139.120491 320.76505 
L 139.345423 320.796906 
L 139.572417 320.827425 
L 139.801455 320.856603 
L 140.032519 320.884439 
L 140.265593 320.910931 
L 140.500658 320.936076 
L 140.737696 320.959873 
L 140.97669 320.98232 
L 141.217621 321.003415 
L 141.460471 321.023157 
L 141.705221 321.041543 
L 141.951853 321.058574 
L 142.200348 321.074246 
L 142.450687 321.08856 
L 142.702851 321.101514 
L 142.95682 321.113107 
L 143.212576 321.123338 
L 143.470099 321.132207 
L 143.729369 321.139712 
L 143.990366 321.145853 
L 144.253072 321.150631 
L 144.517465 321.154043 
L 144.783525 321.156091 
L 145.051233 321.156773 
" clip-path="url(#p907cc62cad)" style="fill: none; stroke: #9467bd; stroke-opacity: 0.7; stroke-width: 1.625; stroke-linecap: round"/>
   </g>
   <g id="line2d_53">
    <path d="M 145.051233 321.156773 
L 145.168263 317.842164 
L 145.51807 314.367471 
L 146.096823 310.770763 
L 146.974749 306.782368 
L 148.102598 302.748314 
L 149.465868 298.720464 
L 151.047035 294.750603 
L 152.82577 290.889766 
L 154.779204 287.187591 
L 156.882224 283.691674 
L 159.107793 280.446958 
L 161.246213 277.710933 
L 163.441257 275.254511 
L 165.668876 273.104603 
L 167.718633 271.423301 
L 169.756383 270.034871 
L 171.582668 269.037617 
L 173.369621 268.300595 
L 175.10364 267.829414 
L 176.608083 267.635651 
L 177.257088 267.619956 
L 177.257088 267.619956 
" clip-path="url(#p907cc62cad)" style="fill: none; stroke: #9467bd; stroke-opacity: 0.7; stroke-width: 1.625; stroke-linecap: round"/>
   </g>
   <g id="line2d_54">
    <path d="M 155.571793 338.841872 
L 155.411575 338.839016 
L 155.252195 338.833449 
L 155.093665 338.82517 
L 154.935998 338.814181 
L 154.779204 338.800482 
L 154.623296 338.784074 
L 154.468287 338.764959 
L 154.314187 338.743138 
L 154.161008 338.718612 
L 154.008763 338.691384 
L 153.857462 338.661455 
L 153.707118 338.628828 
L 153.557741 338.593506 
L 153.409344 338.55549 
L 153.261937 338.514785 
L 153.115531 338.471392 
L 152.970138 338.425316 
L 152.82577 338.376559 
L 152.682435 338.325126 
L 152.540147 338.27102 
L 152.398915 338.214246 
L 152.258751 338.154808 
L 152.119665 338.092711 
L 151.981667 338.027958 
L 151.844768 337.960555 
L 151.708979 337.890508 
L 151.57431 337.817821 
L 151.44077 337.742501 
L 151.308372 337.664552 
L 151.177123 337.583981 
L 151.047035 337.500793 
L 150.918117 337.414996 
L 150.79038 337.326596 
L 150.663832 337.235599 
L 150.538483 337.142013 
L 150.414344 337.045844 
L 150.291423 336.9471 
L 150.16973 336.845788 
L 150.049274 336.741917 
L 149.930064 336.635493 
L 149.81211 336.526526 
L 149.69542 336.415023 
L 149.580003 336.300993 
L 149.465868 336.184444 
L 149.353024 336.065386 
L 149.24148 335.943828 
L 149.131243 335.819778 
L 149.022322 335.693246 
L 148.914725 335.564243 
L 148.808462 335.432777 
L 148.703539 335.298859 
L 148.599965 335.162498 
L 148.497747 335.023706 
L 148.396894 334.882493 
L 148.297413 334.738869 
L 148.199312 334.592846 
L 148.102598 334.444435 
L 148.007278 334.293647 
L 147.91336 334.140493 
L 147.820851 333.984985 
L 147.729758 333.827135 
L 147.640088 333.666955 
L 147.551848 333.504457 
L 147.465044 333.339654 
L 147.379683 333.172558 
L 147.295772 333.003182 
L 147.213317 332.831538 
L 147.132324 332.657641 
L 147.052799 332.481502 
L 146.974749 332.303136 
L 146.898179 332.122556 
L 146.823096 331.939775 
L 146.749504 331.754809 
L 146.67741 331.56767 
L 146.606819 331.378373 
L 146.537737 331.186932 
L 146.470168 330.993363 
L 146.404118 330.79768 
L 146.339592 330.599897 
L 146.276595 330.40003 
L 146.215131 330.198093 
L 146.155205 329.994104 
L 146.096823 329.788076 
L 146.039987 329.580025 
L 145.984704 329.369968 
L 145.930975 329.157921 
L 145.878807 328.943899 
L 145.828203 328.727919 
L 145.779167 328.509997 
L 145.731702 328.29015 
L 145.685811 328.068395 
L 145.6415 327.844748 
L 145.598771 327.619227 
L 145.557626 327.391848 
L 145.51807 327.16263 
L 145.480106 326.931589 
L 145.443735 326.698743 
L 145.408962 326.46411 
L 145.375788 326.227708 
L 145.344216 325.989555 
L 145.314249 325.749668 
L 145.285889 325.508066 
L 145.259138 325.264768 
L 145.233998 325.019792 
L 145.210471 324.773157 
L 145.188559 324.524881 
L 145.168263 324.274983 
L 145.149585 324.023483 
L 145.132526 323.7704 
L 145.117089 323.515752 
L 145.103273 323.25956 
L 145.09108 323.001842 
L 145.08051 322.742618 
L 145.071566 322.481909 
L 145.064247 322.219734 
L 145.058554 321.956113 
L 145.054487 321.691065 
L 145.052046 321.424612 
L 145.051233 321.156773 
" clip-path="url(#p907cc62cad)" style="fill: none; stroke: #9467bd; stroke-opacity: 0.7; stroke-width: 1.625; stroke-linecap: round"/>
   </g>
   <g id="line2d_55">
    <path d="M 59.598402 392.860213 
L 63.219065 392.744983 
L 67.067831 392.400774 
L 71.410946 391.779151 
L 75.896438 390.906411 
L 80.457441 389.795564 
L 85.02596 388.463171 
L 89.533889 386.929094 
L 93.914024 385.216204 
L 98.10107 383.350034 
L 102.032605 381.358406 
L 105.65002 379.271011 
L 108.680562 377.274147 
L 111.354742 375.247202 
L 113.477102 373.372011 
L 115.243216 371.513938 
L 116.532603 369.843134 
L 117.420812 368.364503 
L 118.031545 366.935873 
L 118.340077 365.701853 
L 118.42089 364.652502 
L 118.42089 364.652502 
" clip-path="url(#p4809bc5b80)" style="fill: none; stroke: #d62728; stroke-opacity: 0.7; stroke-width: 1.625; stroke-linecap: round"/>
   </g>
   <g id="line2d_56">
    <path d="M 43.502329 385.216204 
L 43.505061 385.343953 
L 43.510645 385.470909 
L 43.519082 385.597063 
L 43.53037 385.722405 
L 43.544508 385.846925 
L 43.561496 385.970614 
L 43.581332 386.093463 
L 43.604014 386.215462 
L 43.629542 386.336602 
L 43.657912 386.456873 
L 43.689124 386.576268 
L 43.723173 386.694775 
L 43.760059 386.812387 
L 43.799778 386.929094 
L 43.842326 387.044888 
L 43.887702 387.15976 
L 43.935901 387.2737 
L 43.986919 387.386701 
L 44.040753 387.498754 
L 44.097399 387.60985 
L 44.156852 387.71998 
L 44.219108 387.829137 
L 44.284163 387.937312 
L 44.35201 388.044497 
L 44.422645 388.150683 
L 44.496063 388.255863 
L 44.572258 388.360028 
L 44.651224 388.463171 
L 44.732955 388.565284 
L 44.817445 388.666358 
L 44.904687 388.766387 
L 44.994676 388.865362 
L 45.087404 388.963277 
L 45.182863 389.060123 
L 45.281047 389.155894 
L 45.381949 389.250581 
L 45.48556 389.344178 
L 45.591872 389.436678 
L 45.700878 389.528074 
L 45.81257 389.618358 
L 45.926938 389.707523 
L 46.043974 389.795564 
L 46.163669 389.882473 
L 46.286014 389.968244 
L 46.411 390.05287 
L 46.538617 390.136344 
L 46.668856 390.218661 
L 46.801706 390.299814 
L 46.937157 390.379796 
L 47.0752 390.458603 
L 47.215823 390.536227 
L 47.359016 390.612663 
L 47.504768 390.687905 
L 47.653067 390.761948 
L 47.803904 390.834785 
L 47.957265 390.906411 
L 48.11314 390.976821 
L 48.271517 391.046009 
L 48.432383 391.11397 
L 48.595726 391.180699 
L 48.761534 391.246191 
L 48.929794 391.310441 
L 49.100493 391.373443 
L 49.273619 391.435194 
L 49.449158 391.495688 
L 49.627097 391.554921 
L 49.807422 391.612888 
L 49.990119 391.669585 
L 50.175175 391.725007 
L 50.362576 391.779151 
L 50.552307 391.832012 
L 50.744353 391.883586 
L 50.938701 391.93387 
L 51.135335 391.982859 
L 51.334241 392.030549 
L 51.535402 392.076938 
L 51.738805 392.122021 
L 51.944433 392.165795 
L 52.152271 392.208257 
L 52.362303 392.249404 
L 52.574513 392.289232 
L 52.788884 392.327738 
L 53.005401 392.36492 
L 53.224047 392.400774 
L 53.444805 392.435298 
L 53.667659 392.46849 
L 53.892592 392.500346 
L 54.119585 392.530864 
L 54.348623 392.560042 
L 54.579688 392.587879 
L 54.812762 392.61437 
L 55.047827 392.639516 
L 55.284865 392.663313 
L 55.523859 392.685759 
L 55.76479 392.706854 
L 56.00764 392.726596 
L 56.25239 392.744983 
L 56.499022 392.762013 
L 56.747517 392.777686 
L 56.997855 392.791999 
L 57.250019 392.804953 
L 57.503989 392.816546 
L 57.759745 392.826777 
L 58.017267 392.835646 
L 58.276537 392.843151 
L 58.537535 392.849293 
L 58.80024 392.85407 
L 59.064633 392.857482 
L 59.330694 392.85953 
L 59.598402 392.860213 
" clip-path="url(#p4809bc5b80)" style="fill: none; stroke: #d62728; stroke-opacity: 0.7; stroke-width: 1.625; stroke-linecap: round"/>
   </g>
   <g id="line2d_57">
    <path d="M 59.598402 392.860213 
L 59.715431 389.545603 
L 60.065239 386.07091 
L 60.643991 382.474202 
L 61.521918 378.485807 
L 62.649766 374.451753 
L 64.013037 370.423904 
L 65.594204 366.454042 
L 67.372938 362.593205 
L 69.326373 358.89103 
L 71.429393 355.395113 
L 73.654962 352.150397 
L 75.793382 349.414373 
L 77.988426 346.95795 
L 80.216044 344.808043 
L 82.265802 343.12674 
L 84.303551 341.73831 
L 86.129837 340.741057 
L 87.91679 340.004035 
L 89.650809 339.532854 
L 91.155251 339.339091 
L 91.804257 339.323395 
L 91.804257 339.323395 
" clip-path="url(#p4809bc5b80)" style="fill: none; stroke: #d62728; stroke-opacity: 0.7; stroke-width: 1.625; stroke-linecap: round"/>
   </g>
   <g id="line2d_58">
    <path d="M 70.118962 410.545311 
L 69.958744 410.542455 
L 69.799364 410.536888 
L 69.640834 410.528609 
L 69.483166 410.51762 
L 69.326373 410.503921 
L 69.170465 410.487514 
L 69.015455 410.468398 
L 68.861355 410.446577 
L 68.708177 410.422051 
L 68.555931 410.394823 
L 68.404631 410.364894 
L 68.254287 410.332268 
L 68.10491 410.296945 
L 67.956512 410.258929 
L 67.809105 410.218224 
L 67.6627 410.174831 
L 67.517307 410.128755 
L 67.372938 410.079998 
L 67.229604 410.028565 
L 67.087316 409.97446 
L 66.946084 409.917686 
L 66.80592 409.858248 
L 66.666833 409.79615 
L 66.528835 409.731397 
L 66.391937 409.663995 
L 66.256148 409.593947 
L 66.121478 409.521261 
L 65.987939 409.44594 
L 65.85554 409.367991 
L 65.724292 409.28742 
L 65.594204 409.204233 
L 65.465286 409.118436 
L 65.337548 409.030035 
L 65.211 408.939038 
L 65.085652 408.845452 
L 64.961513 408.749283 
L 64.838592 408.650539 
L 64.716899 408.549228 
L 64.596443 408.445356 
L 64.477233 408.338933 
L 64.359279 408.229965 
L 64.242589 408.118462 
L 64.127172 408.004432 
L 64.013037 407.887884 
L 63.900193 407.768825 
L 63.788648 407.647267 
L 63.678411 407.523217 
L 63.56949 407.396686 
L 63.461894 407.267682 
L 63.35563 407.136216 
L 63.250707 407.002298 
L 63.147133 406.865938 
L 63.044916 406.727146 
L 62.944063 406.585932 
L 62.844582 406.442309 
L 62.74648 406.296286 
L 62.649766 406.147874 
L 62.554447 405.997086 
L 62.460529 405.843932 
L 62.36802 405.688424 
L 62.276927 405.530574 
L 62.187257 405.370394 
L 62.099016 405.207897 
L 62.012213 405.043094 
L 61.926852 404.875997 
L 61.842941 404.706621 
L 61.760485 404.534978 
L 61.679492 404.36108 
L 61.599968 404.184941 
L 61.521918 404.006575 
L 61.445348 403.825995 
L 61.370264 403.643215 
L 61.296673 403.458248 
L 61.224579 403.271109 
L 61.153988 403.081812 
L 61.084906 402.890372 
L 61.017337 402.696802 
L 60.951287 402.501119 
L 60.886761 402.303336 
L 60.823763 402.103469 
L 60.7623 401.901533 
L 60.702374 401.697543 
L 60.643991 401.491515 
L 60.587156 401.283465 
L 60.531872 401.073408 
L 60.478144 400.86136 
L 60.425976 400.647338 
L 60.375372 400.431358 
L 60.326335 400.213436 
L 60.27887 399.993589 
L 60.23298 399.771834 
L 60.188669 399.548187 
L 60.145939 399.322666 
L 60.104795 399.095288 
L 60.065239 398.866069 
L 60.027274 398.635028 
L 59.990904 398.402183 
L 59.95613 398.16755 
L 59.922957 397.931147 
L 59.891385 397.692994 
L 59.861418 397.453107 
L 59.833058 397.211505 
L 59.806307 396.968207 
L 59.781167 396.723231 
L 59.75764 396.476596 
L 59.735727 396.22832 
L 59.715431 395.978423 
L 59.696754 395.726922 
L 59.679695 395.473839 
L 59.664257 395.219191 
L 59.650441 394.962999 
L 59.638248 394.705281 
L 59.627679 394.446058 
L 59.618735 394.185348 
L 59.611415 393.923173 
L 59.605722 393.659552 
L 59.601655 393.394505 
L 59.599215 393.128051 
L 59.598402 392.860213 
" clip-path="url(#p4809bc5b80)" style="fill: none; stroke: #d62728; stroke-opacity: 0.7; stroke-width: 1.625; stroke-linecap: round"/>
   </g>
   <g id="patch_5">
    <path d="M 351.038391 87.836305 
C 359.198865 87.836305 367.026205 84.594115 372.796532 78.823788 
C 378.566858 73.053462 381.809049 65.226121 381.809049 57.065647 
C 381.809049 48.905173 378.566858 41.077832 372.796532 35.307506 
C 367.026205 29.53718 359.198865 26.294989 351.038391 26.294989 
C 342.877917 26.294989 335.050576 29.53718 329.280249 35.307506 
C 323.509923 41.077832 320.267732 48.905173 320.267732 57.065647 
C 320.267732 65.226121 323.509923 73.053462 329.280249 78.823788 
C 335.050576 84.594115 342.877917 87.836305 351.038391 87.836305 
L 351.038391 87.836305 
z
" clip-path="url(#p3afed6aa23)" style="fill: none; stroke: #1f77b4; stroke-width: 2.5; stroke-linejoin: miter"/>
   </g>
   <g id="patch_6">
    <path d="M 166.414441 87.836305 
C 174.574915 87.836305 182.402255 84.594115 188.172582 78.823788 
C 193.942908 73.053462 197.185099 65.226121 197.185099 57.065647 
C 197.185099 48.905173 193.942908 41.077832 188.172582 35.307506 
C 182.402255 29.53718 174.574915 26.294989 166.414441 26.294989 
C 158.253967 26.294989 150.426626 29.53718 144.6563 35.307506 
C 138.885973 41.077832 135.643782 48.905173 135.643782 57.065647 
C 135.643782 65.226121 138.885973 73.053462 144.6563 78.823788 
C 150.426626 84.594115 158.253967 87.836305 166.414441 87.836305 
L 166.414441 87.836305 
z
" clip-path="url(#p3afed6aa23)" style="fill: none; stroke: #17becf; stroke-width: 2.5; stroke-linejoin: miter"/>
   </g>
   <g id="patch_7">
    <path d="M 166.414441 334.001572 
C 174.574915 334.001572 182.402255 330.759381 188.172582 324.989055 
C 193.942908 319.218728 197.185099 311.391388 197.185099 303.230914 
C 197.185099 295.07044 193.942908 287.243099 188.172582 281.472772 
C 182.402255 275.702446 174.574915 272.460255 166.414441 272.460255 
C 158.253967 272.460255 150.426626 275.702446 144.6563 281.472772 
C 138.885973 287.243099 135.643782 295.07044 135.643782 303.230914 
C 135.643782 311.391388 138.885973 319.218728 144.6563 324.989055 
C 150.426626 330.759381 158.253967 334.001572 166.414441 334.001572 
L 166.414441 334.001572 
z
" clip-path="url(#p3afed6aa23)" style="fill: none; stroke: #9467bd; stroke-width: 2.5; stroke-linejoin: miter"/>
   </g>
   <g id="patch_8">
    <path d="M 80.961609 405.705011 
C 89.122083 405.705011 96.949424 402.46282 102.719751 396.692494 
C 108.490077 390.922168 111.732268 383.094827 111.732268 374.934353 
C 111.732268 366.773879 108.490077 358.946538 102.719751 353.176212 
C 96.949424 347.405885 89.122083 344.163695 80.961609 344.163695 
C 72.801135 344.163695 64.973795 347.405885 59.203468 353.176212 
C 53.433142 358.946538 50.190951 366.773879 50.190951 374.934353 
C 50.190951 383.094827 53.433142 390.922168 59.203468 396.692494 
C 64.973795 402.46282 72.801135 405.705011 80.961609 405.705011 
L 80.961609 405.705011 
z
" clip-path="url(#p3afed6aa23)" style="fill: none; stroke: #d62728; stroke-width: 2.5; stroke-linejoin: miter"/>
   </g>
  </g>
 </g>
 <defs>
  <clipPath id="p3afed6aa23">
   <rect x="26.252562" y="2" width="379.494876" height="428"/>
  </clipPath>
  <clipPath id="p81b9138c3e">
   <path d="M 351.038391 87.836305 
C 359.198865 87.836305 367.026205 84.594115 372.796532 78.823788 
C 378.566858 73.053462 381.809049 65.226121 381.809049 57.065647 
C 381.809049 48.905173 378.566858 41.077832 372.796532 35.307506 
C 367.026205 29.53718 359.198865 26.294989 351.038391 26.294989 
C 342.877917 26.294989 335.050576 29.53718 329.280249 35.307506 
C 323.509923 41.077832 320.267732 48.905173 320.267732 57.065647 
C 320.267732 65.226121 323.509923 73.053462 329.280249 78.823788 
C 335.050576 84.594115 342.877917 87.836305 351.038391 87.836305 
z
"/>
  </clipPath>
  <clipPath id="pf275a58932">
   <path d="M 166.414441 87.836305 
C 174.574915 87.836305 182.402255 84.594115 188.172582 78.823788 
C 193.942908 73.053462 197.185099 65.226121 197.185099 57.065647 
C 197.185099 48.905173 193.942908 41.077832 188.172582 35.307506 
C 182.402255 29.53718 174.574915 26.294989 166.414441 26.294989 
C 158.253967 26.294989 150.426626 29.53718 144.6563 35.307506 
C 138.885973 41.077832 135.643782 48.905173 135.643782 57.065647 
C 135.643782 65.226121 138.885973 73.053462 144.6563 78.823788 
C 150.426626 84.594115 158.253967 87.836305 166.414441 87.836305 
z
"/>
  </clipPath>
  <clipPath id="p907cc62cad">
   <path d="M 166.414441 334.001572 
C 174.574915 334.001572 182.402255 330.759381 188.172582 324.989055 
C 193.942908 319.218728 197.185099 311.391388 197.185099 303.230914 
C 197.185099 295.07044 193.942908 287.243099 188.172582 281.472772 
C 182.402255 275.702446 174.574915 272.460255 166.414441 272.460255 
C 158.253967 272.460255 150.426626 275.702446 144.6563 281.472772 
C 138.885973 287.243099 135.643782 295.07044 135.643782 303.230914 
C 135.643782 311.391388 138.885973 319.218728 144.6563 324.989055 
C 150.426626 330.759381 158.253967 334.001572 166.414441 334.001572 
z
"/>
  </clipPath>
  <clipPath id="p4809bc5b80">
   <path d="M 80.961609 405.705011 
C 89.122083 405.705011 96.949424 402.46282 102.719751 396.692494 
C 108.490077 390.922168 111.732268 383.094827 111.732268 374.934353 
C 111.732268 366.773879 108.490077 358.946538 102.719751 353.176212 
C 96.949424 347.405885 89.122083 344.163695 80.961609 344.163695 
C 72.801135 344.163695 64.973795 347.405885 59.203468 353.176212 
C 53.433142 358.946538 50.190951 366.773879 50.190951 374.934353 
C 50.190951 383.094827 53.433142 390.922168 59.203468 396.692494 
C 64.973795 402.46282 72.801135 405.705011 80.961609 405.705011 
z
"/>
  </clipPath>
 </defs>
</svg>
