<?xml version="1.0" encoding="utf-8" standalone="no"?>
<!DOCTYPE svg PUBLIC "-//W3C//DTD SVG 1.1//EN"
  "http://www.w3.org/Graphics/SVG/1.1/DTD/svg11.dtd">
<svg xmlns:xlink="http://www.w3.org/1999/xlink" width="432pt" height="432pt" viewBox="0 0 432 432" xmlns="http://www.w3.org/2000/svg" version="1.1">
 <metadata>
  <rdf:RDF xmlns:dc="http://purl.org/dc/elements/1.1/" xmlns:cc="http://creativecommons.org/ns#" xmlns:rdf="http://www.w3.org/1999/02/22-rdf-syntax-ns#">
   <cc:Work>
    <dc:type rdf:resource="http://purl.org/dc/dcmitype/StillImage"/>
    <dc:date>2026-06-02T18:34:42.879515</dc:date>
    <dc:format>image/svg+xml</dc:format>
    <dc:creator>
     <cc:Agent>
      <dc:title>Matplotlib v3.10.8, https://matplotlib.org/</dc:title>
     </cc:Agent>
    </dc:creator>
   </cc:Work>
  </rdf:RDF>
 </metadata>
 <defs>
  <style type="text/css">*{stroke-linejoin: round; stroke-linecap: butt}
    /* plot3d: counteract dark-mode colour inversion on sphere fills */
    @media (prefers-color-scheme: dark) { #sphere_fill_13f56440 { filter: invert(1) hue-rotate(180deg); } }
    [data-theme="dark"] #sphere_fill_13f56440,
    .dark #sphere_fill_13f56440 { filter: invert(1) hue-rotate(180deg); }
  </style>
 
  <radialGradient id="sg_sphere_fill_13f56440" cx="0.38" cy="0.38" r="0.72" fx="0.28" fy="0.28" gradientUnits="objectBoundingBox">
    <stop offset="0%"   stop-color="#7db0d3" stop-opacity="0.420"/>
    <stop offset="45%"  stop-color="#1f77b4" stop-opacity="0.400"/>
    <stop offset="100%" stop-color="#103d5d" stop-opacity="0.140"/>
  </radialGradient>
 </defs>
 <g id="figure_1">
  <g id="patch_1">
   <path d="M 0 432 
L 432 432 
L 432 0 
L 0 0 
L 0 432 
z
" style="fill: none"/>
  </g>
  <g id="axes_1">
   <g id="line2d_1">
    <path d="M 188.416107 225.844513 
L 304.332852 128.578815 
" clip-path="url(#p42266f2c71)" style="fill: none; stroke-dasharray: 7,7; stroke-dashoffset: 0; stroke: #333333; stroke-opacity: 0.4; stroke-width: 1.75"/>
   </g>
   <g id="line2d_2">
    <path d="M 188.416107 225.844513 
L 21.454545 225.844513 
" clip-path="url(#p42266f2c71)" style="fill: none; stroke-dasharray: 7,7; stroke-dashoffset: 0; stroke: #333333; stroke-opacity: 0.4; stroke-width: 1.75"/>
   </g>
   <g id="line2d_3">
    <path d="M 188.416107 225.844513 
L 188.416107 392.806074 
" clip-path="url(#p42266f2c71)" style="fill: none; stroke-dasharray: 7,7; stroke-dashoffset: 0; stroke: #333333; stroke-opacity: 0.4; stroke-width: 1.75"/>
   </g>
   <g id="patch_2">
    <path d="M 186.884795 227.129436 
Q 123.503487 280.312668 62.263339 331.699254 
" clip-path="url(#p42266f2c71)" style="fill: none; stroke: #333333; stroke-width: 2.5; stroke-linecap: round"/>
    <path d="M 67.483043 330.45238 
L 62.263339 331.699254 
L 64.397662 326.775367 
z
" clip-path="url(#p42266f2c71)" style="fill: #333333; stroke: #333333; stroke-width: 2.5; stroke-linecap: round"/>
   </g>
   <g id="patch_3">
    <path d="M 190.416303 225.844513 
Q 281.913988 225.844513 370.616587 225.844513 
" clip-path="url(#p42266f2c71)" style="fill: none; stroke: #333333; stroke-width: 2.5; stroke-linecap: round"/>
    <path d="M 365.816587 223.444513 
L 370.616587 225.844513 
L 365.816587 228.244513 
z
" clip-path="url(#p42266f2c71)" style="fill: #333333; stroke: #333333; stroke-width: 2.5; stroke-linecap: round"/>
   </g>
   <g id="patch_4">
    <path d="M 188.416107 223.844317 
Q 188.416107 132.346632 188.416107 43.644033 
" clip-path="url(#p42266f2c71)" style="fill: none; stroke: #333333; stroke-width: 2.5; stroke-linecap: round"/>
    <path d="M 186.016107 48.444033 
L 188.416107 43.644033 
L 190.816107 48.444033 
z
" clip-path="url(#p42266f2c71)" style="fill: #333333; stroke: #333333; stroke-width: 2.5; stroke-linecap: round"/>
   </g>
   <g id="line2d_4">
    <path d="M 304.332852 135.257278 
L 304.332852 121.900353 
" clip-path="url(#p42266f2c71)" style="fill: none; stroke: #555555; stroke-width: 0.8; stroke-linecap: square"/>
   </g>
   <g id="line2d_5">
    <path d="M 281.149503 154.710417 
L 281.149503 141.353492 
" clip-path="url(#p42266f2c71)" style="fill: none; stroke: #555555; stroke-width: 0.8; stroke-linecap: square"/>
   </g>
   <g id="line2d_6">
    <path d="M 257.966154 174.163557 
L 257.966154 160.806632 
" clip-path="url(#p42266f2c71)" style="fill: none; stroke: #555555; stroke-width: 0.8; stroke-linecap: square"/>
   </g>
   <g id="line2d_7">
    <path d="M 234.782805 193.616696 
L 234.782805 180.259771 
" clip-path="url(#p42266f2c71)" style="fill: none; stroke: #555555; stroke-width: 0.8; stroke-linecap: square"/>
   </g>
   <g id="line2d_8">
    <path d="M 211.599456 213.069836 
L 211.599456 199.712911 
" clip-path="url(#p42266f2c71)" style="fill: none; stroke: #555555; stroke-width: 0.8; stroke-linecap: square"/>
   </g>
   <g id="line2d_9">
    <path d="M 165.232758 251.976115 
L 165.232758 238.61919 
" clip-path="url(#p42266f2c71)" style="fill: none; stroke: #555555; stroke-width: 0.8; stroke-linecap: square"/>
   </g>
   <g id="line2d_10">
    <path d="M 142.049409 271.429254 
L 142.049409 258.07233 
" clip-path="url(#p42266f2c71)" style="fill: none; stroke: #555555; stroke-width: 0.8; stroke-linecap: square"/>
   </g>
   <g id="line2d_11">
    <path d="M 118.86606 290.882394 
L 118.86606 277.525469 
" clip-path="url(#p42266f2c71)" style="fill: none; stroke: #555555; stroke-width: 0.8; stroke-linecap: square"/>
   </g>
   <g id="line2d_12">
    <path d="M 95.682711 310.335534 
L 95.682711 296.978609 
" clip-path="url(#p42266f2c71)" style="fill: none; stroke: #555555; stroke-width: 0.8; stroke-linecap: square"/>
   </g>
   <g id="line2d_13">
    <path d="M 72.499362 329.788673 
L 72.499362 316.431748 
" clip-path="url(#p42266f2c71)" style="fill: none; stroke: #555555; stroke-width: 0.8; stroke-linecap: square"/>
   </g>
   <g id="line2d_14">
    <path d="M 21.454545 232.522975 
L 21.454545 219.16605 
" clip-path="url(#p42266f2c71)" style="fill: none; stroke: #555555; stroke-width: 0.8; stroke-linecap: square"/>
   </g>
   <g id="line2d_15">
    <path d="M 54.846858 232.522975 
L 54.846858 219.16605 
" clip-path="url(#p42266f2c71)" style="fill: none; stroke: #555555; stroke-width: 0.8; stroke-linecap: square"/>
   </g>
   <g id="line2d_16">
    <path d="M 88.23917 232.522975 
L 88.23917 219.16605 
" clip-path="url(#p42266f2c71)" style="fill: none; stroke: #555555; stroke-width: 0.8; stroke-linecap: square"/>
   </g>
   <g id="line2d_17">
    <path d="M 121.631482 232.522975 
L 121.631482 219.16605 
" clip-path="url(#p42266f2c71)" style="fill: none; stroke: #555555; stroke-width: 0.8; stroke-linecap: square"/>
   </g>
   <g id="line2d_18">
    <path d="M 155.023795 232.522975 
L 155.023795 219.16605 
" clip-path="url(#p42266f2c71)" style="fill: none; stroke: #555555; stroke-width: 0.8; stroke-linecap: square"/>
   </g>
   <g id="line2d_19">
    <path d="M 221.808419 232.522975 
L 221.808419 219.16605 
" clip-path="url(#p42266f2c71)" style="fill: none; stroke: #555555; stroke-width: 0.8; stroke-linecap: square"/>
   </g>
   <g id="line2d_20">
    <path d="M 255.200732 232.522975 
L 255.200732 219.16605 
" clip-path="url(#p42266f2c71)" style="fill: none; stroke: #555555; stroke-width: 0.8; stroke-linecap: square"/>
   </g>
   <g id="line2d_21">
    <path d="M 288.593044 232.522975 
L 288.593044 219.16605 
" clip-path="url(#p42266f2c71)" style="fill: none; stroke: #555555; stroke-width: 0.8; stroke-linecap: square"/>
   </g>
   <g id="line2d_22">
    <path d="M 321.985356 232.522975 
L 321.985356 219.16605 
" clip-path="url(#p42266f2c71)" style="fill: none; stroke: #555555; stroke-width: 0.8; stroke-linecap: square"/>
   </g>
   <g id="line2d_23">
    <path d="M 355.377669 232.522975 
L 355.377669 219.16605 
" clip-path="url(#p42266f2c71)" style="fill: none; stroke: #555555; stroke-width: 0.8; stroke-linecap: square"/>
   </g>
   <g id="line2d_24">
    <path d="M 181.737645 392.806074 
L 195.094569 392.806074 
" clip-path="url(#p42266f2c71)" style="fill: none; stroke: #555555; stroke-width: 0.8; stroke-linecap: square"/>
   </g>
   <g id="line2d_25">
    <path d="M 181.737645 359.413762 
L 195.094569 359.413762 
" clip-path="url(#p42266f2c71)" style="fill: none; stroke: #555555; stroke-width: 0.8; stroke-linecap: square"/>
   </g>
   <g id="line2d_26">
    <path d="M 181.737645 326.02145 
L 195.094569 326.02145 
" clip-path="url(#p42266f2c71)" style="fill: none; stroke: #555555; stroke-width: 0.8; stroke-linecap: square"/>
   </g>
   <g id="line2d_27">
    <path d="M 181.737645 292.629138 
L 195.094569 292.629138 
" clip-path="url(#p42266f2c71)" style="fill: none; stroke: #555555; stroke-width: 0.8; stroke-linecap: square"/>
   </g>
   <g id="line2d_28">
    <path d="M 181.737645 259.236825 
L 195.094569 259.236825 
" clip-path="url(#p42266f2c71)" style="fill: none; stroke: #555555; stroke-width: 0.8; stroke-linecap: square"/>
   </g>
   <g id="line2d_29">
    <path d="M 181.737645 192.452201 
L 195.094569 192.452201 
" clip-path="url(#p42266f2c71)" style="fill: none; stroke: #555555; stroke-width: 0.8; stroke-linecap: square"/>
   </g>
   <g id="line2d_30">
    <path d="M 181.737645 159.059888 
L 195.094569 159.059888 
" clip-path="url(#p42266f2c71)" style="fill: none; stroke: #555555; stroke-width: 0.8; stroke-linecap: square"/>
   </g>
   <g id="line2d_31">
    <path d="M 181.737645 125.667576 
L 195.094569 125.667576 
" clip-path="url(#p42266f2c71)" style="fill: none; stroke: #555555; stroke-width: 0.8; stroke-linecap: square"/>
   </g>
   <g id="line2d_32">
    <path d="M 181.737645 92.275264 
L 195.094569 92.275264 
" clip-path="url(#p42266f2c71)" style="fill: none; stroke: #555555; stroke-width: 0.8; stroke-linecap: square"/>
   </g>
   <g id="line2d_33">
    <path d="M 181.737645 58.882951 
L 195.094569 58.882951 
" clip-path="url(#p42266f2c71)" style="fill: none; stroke: #555555; stroke-width: 0.8; stroke-linecap: square"/>
   </g>
   <g id="sphere_fill_13f56440">
    <path d="M 288.593044 326.02145 
C 315.160278 326.02145 340.642964 315.466176 359.428835 296.680304 
C 378.214707 277.894433 388.769981 252.411747 388.769981 225.844513 
C 388.769981 199.277279 378.214707 173.794593 359.428835 155.008722 
C 340.642964 136.22285 315.160278 125.667576 288.593044 125.667576 
C 262.02581 125.667576 236.543124 136.22285 217.757252 155.008722 
C 198.971381 173.794593 188.416107 199.277279 188.416107 225.844513 
C 188.416107 252.411747 198.971381 277.894433 217.757252 296.680304 
C 236.543124 315.466176 262.02581 326.02145 288.593044 326.02145 
z
" clip-path="url(#p42266f2c71)" style="fill: url(#sg_sphere_fill_13f56440)"/>
   </g>
   <g id="line2d_34">
    <path d="M 410.545455 192.370926 
L 410.408137 190.31755 
L 410.038938 188.331802 
L 409.43856 186.417461 
L 408.608145 184.578172 
L 407.549275 182.817436 
L 406.263965 181.138605 
L 404.754661 179.544873 
L 403.024237 178.039276 
L 401.075987 176.624679 
L 398.91362 175.303774 
L 396.541251 174.079076 
L 393.423592 172.739702 
L 390.0186 171.545885 
L 386.335607 170.500896 
L 382.384709 169.6076 
L 378.176734 168.868446 
L 373.723217 168.285459 
L 368.23343 167.804793 
L 362.446551 167.54064 
L 356.384169 167.493983 
L 350.068899 167.664997 
L 343.524299 168.053044 
L 336.774784 168.656677 
L 328.842465 169.6076 
L 320.714055 170.832504 
L 312.429155 172.32542 
L 304.028127 174.079076 
L 295.551901 176.084929 
L 287.041773 178.333205 
L 278.539202 180.812951 
L 270.085612 183.512086 
L 261.722189 186.417461 
L 253.489678 189.514921 
L 245.428187 192.789374 
L 237.576991 196.224869 
L 229.97434 199.804668 
L 222.657273 203.51133 
L 215.661439 207.326798 
L 209.83043 210.739984 
L 204.293238 214.209516 
L 199.070518 217.722452 
L 194.181753 221.265686 
L 189.64518 224.826001 
L 185.477723 228.390115 
L 181.694927 231.944733 
L 178.769427 234.973937 
L 176.144946 237.978118 
L 173.828677 240.949042 
L 171.826969 243.878565 
L 170.145309 246.758658 
L 168.788306 249.581427 
L 167.908182 251.884358 
L 167.257789 254.13772 
L 166.838364 256.337225 
L 166.650707 258.478686 
L 166.640633 259.3181 
L 166.640633 259.3181 
" clip-path="url(#p8aac706762)" style="fill: none; stroke-dasharray: 3.375,4.5; stroke-dashoffset: 0; stroke: #1f77b4; stroke-opacity: 0.3; stroke-width: 1.125"/>
   </g>
   <g id="line2d_35">
    <path d="M 323.892361 109.909499 
L 326.472714 110.044247 
L 328.980962 110.399427 
L 331.412328 110.974364 
L 333.762186 111.767962 
L 336.026062 112.778712 
L 338.199646 114.004688 
L 340.278801 115.443558 
L 342.25957 117.092583 
L 344.138181 118.948623 
L 345.911059 121.008146 
L 347.574829 123.26723 
L 349.126323 125.721577 
L 350.562589 128.366513 
L 351.880893 131.197003 
L 353.303629 134.830914 
L 354.548998 138.714287 
L 355.613587 142.836478 
L 356.494477 147.186188 
L 357.189254 151.751495 
L 357.696013 156.519886 
L 358.013366 161.478291 
L 358.140442 166.613119 
L 358.076894 171.910296 
L 357.762088 178.276135 
L 357.189254 184.819422 
L 356.360527 191.51575 
L 355.279001 198.340138 
L 353.94871 205.267128 
L 352.374615 212.270881 
L 350.562589 219.325268 
L 348.519392 226.403975 
L 346.252646 233.480594 
L 343.770806 240.528729 
L 341.083131 247.522085 
L 338.199646 254.434575 
L 335.131109 261.240412 
L 331.888966 267.914209 
L 328.485312 274.431068 
L 324.932844 280.76668 
L 321.244813 286.897411 
L 317.434978 292.800389 
L 313.517552 298.453595 
L 309.507146 303.83594 
L 305.418723 308.927346 
L 301.267533 313.708818 
L 297.069062 318.162522 
L 293.44461 321.706477 
L 289.80686 324.98768 
L 286.165782 327.997139 
L 282.531358 330.726605 
L 278.913548 333.168596 
L 275.322269 335.316419 
L 271.767365 337.164188 
L 268.258578 338.706837 
L 265.376761 339.756224 
L 262.539138 340.588774 
L 259.751109 341.202902 
L 257.017983 341.597439 
L 254.344962 341.771633 
L 253.293727 341.779527 
L 253.293727 341.779527 
" clip-path="url(#p8aac706762)" style="fill: none; stroke-dasharray: 3.375,4.5; stroke-dashoffset: 0; stroke: #1f77b4; stroke-opacity: 0.3; stroke-width: 1.125"/>
   </g>
   <g id="text_1">
    <!-- $x$ -->
    <g style="fill: #333333" transform="translate(45.529384 343.189716) scale(0.17 -0.17)">
     <defs>
      <path id="CMMI12-78" d="M 3034 2606 
C 2829 2567 2752 2414 2752 2293 
C 2752 2139 2874 2088 2963 2088 
C 3155 2088 3290 2254 3290 2427 
C 3290 2695 2982 2816 2714 2816 
C 2323 2816 2106 2433 2048 2312 
C 1901 2816 1504 2816 1389 2816 
C 736 2816 390 1980 390 1839 
C 390 1814 416 1782 461 1782 
C 512 1782 525 1820 538 1846 
C 755 2555 1184 2689 1370 2689 
C 1658 2689 1715 2420 1715 2267 
C 1715 2127 1677 1980 1600 1673 
L 1382 798 
C 1286 415 1101 64 762 64 
C 730 64 570 64 435 147 
C 666 192 717 383 717 460 
C 717 588 621 664 499 664 
C 346 664 179 530 179 326 
C 179 57 480 -64 755 -64 
C 1062 -64 1280 179 1414 441 
C 1517 64 1837 -64 2074 -64 
C 2726 -64 3072 773 3072 913 
C 3072 945 3046 971 3008 971 
C 2950 971 2944 939 2925 888 
C 2752 326 2381 64 2093 64 
C 1869 64 1747 230 1747 492 
C 1747 632 1773 734 1875 1156 
L 2099 2024 
C 2195 2408 2413 2689 2707 2689 
C 2720 2689 2899 2689 3034 2606 
z
" transform="scale(0.015625)"/>
     </defs>
     <use xlink:href="#CMMI12-78" transform="scale(0.996264)"/>
    </g>
   </g>
   <g id="text_2">
    <!-- $y$ -->
    <g style="fill: #333333" transform="translate(379.718182 230.078095) scale(0.17 -0.17)">
     <defs>
      <path id="CMMI12-79" d="M 1683 -700 
C 1510 -939 1261 -1152 947 -1152 
C 870 -1152 563 -1152 467 -889 
C 486 -895 518 -895 531 -895 
C 723 -895 851 -729 851 -582 
C 851 -435 730 -384 634 -384 
C 531 -384 307 -458 307 -759 
C 307 -1071 582 -1286 947 -1286 
C 1587 -1286 2234 -700 2413 6 
L 3040 2485 
C 3046 2517 3059 2556 3059 2594 
C 3059 2689 2982 2753 2886 2753 
C 2829 2753 2694 2727 2643 2535 
L 2170 658 
C 2138 543 2138 530 2086 460 
C 1958 281 1747 64 1440 64 
C 1082 64 1050 415 1050 588 
C 1050 952 1222 1443 1395 1903 
C 1466 2088 1504 2178 1504 2305 
C 1504 2574 1312 2816 998 2816 
C 410 2816 173 1890 173 1839 
C 173 1814 198 1782 243 1782 
C 301 1782 307 1807 333 1897 
C 486 2433 730 2689 979 2689 
C 1037 2689 1146 2689 1146 2478 
C 1146 2312 1075 2127 979 1884 
C 666 1047 666 837 666 683 
C 666 77 1101 -64 1421 -64 
C 1606 -64 1837 -6 2061 230 
L 2067 224 
C 1971 -147 1907 -392 1683 -700 
z
" transform="scale(0.015625)"/>
     </defs>
     <use xlink:href="#CMMI12-79" transform="scale(0.996264)"/>
    </g>
   </g>
   <g id="text_3">
    <!-- $z$ -->
    <g style="fill: #333333" transform="translate(184.564272 34.733068) scale(0.17 -0.17)">
     <defs>
      <path id="CMMI12-7a" d="M 813 486 
C 1088 803 1312 1004 1632 1296 
C 2016 1632 2182 1793 2272 1891 
C 2720 2338 2944 2713 2944 2764 
C 2944 2816 2893 2816 2880 2816 
C 2835 2816 2822 2793 2790 2750 
C 2630 2494 2477 2367 2310 2367 
C 2176 2367 2106 2421 1984 2565 
C 1850 2715 1741 2816 1555 2816 
C 1088 2816 806 2257 806 2128 
C 806 2108 813 2068 870 2068 
C 922 2068 928 2091 947 2133 
C 1056 2372 1363 2414 1485 2414 
C 1619 2414 1747 2376 1882 2327 
C 2125 2240 2227 2240 2291 2240 
C 2336 2240 2362 2240 2394 2246 
C 2182 1994 1837 1683 1549 1418 
L 902 816 
C 512 415 275 33 275 -12 
C 275 -51 307 -64 346 -64 
C 384 -64 390 -57 435 14 
C 538 163 742 384 979 384 
C 1114 384 1178 342 1306 193 
C 1427 61 1536 -64 1741 -64 
C 2368 -64 2726 732 2726 876 
C 2726 903 2720 942 2656 942 
C 2605 942 2598 917 2579 855 
C 2438 488 2061 338 1811 338 
C 1677 338 1549 376 1414 425 
C 1158 512 1088 512 1005 512 
C 941 512 870 512 813 486 
z
" transform="scale(0.015625)"/>
     </defs>
     <use xlink:href="#CMMI12-7a" transform="scale(0.996264)"/>
    </g>
   </g>
   <g id="line2d_36">
    <defs>
     <path id="m87d57df3ab" d="M 0 1.5 
C 0.397805 1.5 0.77937 1.341951 1.06066 1.06066 
C 1.341951 0.77937 1.5 0.397805 1.5 0 
C 1.5 -0.397805 1.341951 -0.77937 1.06066 -1.06066 
C 0.77937 -1.341951 0.397805 -1.5 0 -1.5 
C -0.397805 -1.5 -0.77937 -1.341951 -1.06066 -1.06066 
C -1.341951 -0.77937 -1.5 -0.397805 -1.5 0 
C -1.5 0.397805 -1.341951 0.77937 -1.06066 1.06066 
C -0.77937 1.341951 -0.397805 1.5 0 1.5 
z
" style="stroke: #333333"/>
    </defs>
    <g clip-path="url(#p42266f2c71)">
     <use xlink:href="#m87d57df3ab" x="188.416107" y="225.844513" style="fill: #333333; stroke: #333333"/>
    </g>
   </g>
   <g id="text_4">
    <!-- -5 -->
    <g style="fill: #555555" transform="translate(308.339929 131.318541) scale(0.11 -0.11)">
     <defs>
      <path id="CMSS17-2d" d="M 1664 1216 
L 1664 1585 
L 64 1585 
L 64 1216 
L 1664 1216 
z
" transform="scale(0.015625)"/>
      <path id="CMSS17-35" d="M 934 3752 
L 2502 3752 
L 2502 4160 
L 467 4160 
L 467 1781 
L 896 1781 
C 1011 2046 1248 2240 1555 2240 
C 1843 2240 2163 1989 2163 1266 
C 2163 493 1709 267 1376 267 
C 966 267 589 512 422 851 
L 218 499 
C 512 49 992 -128 1376 -128 
C 2118 -128 2701 497 2701 1253 
C 2701 2030 2182 2629 1562 2629 
C 1338 2629 1120 2553 934 2399 
L 934 3752 
z
" transform="scale(0.015625)"/>
     </defs>
     <use xlink:href="#CMSS17-2d" transform="scale(0.996264)"/>
     <use xlink:href="#CMSS17-35" transform="translate(31.229113 0) scale(0.996264)"/>
    </g>
   </g>
   <g id="text_5">
    <!-- -4 -->
    <g style="fill: #555555" transform="translate(285.15658 150.771681) scale(0.11 -0.11)">
     <defs>
      <path id="CMSS17-34" d="M 2253 1088 
L 2835 1088 
L 2835 1477 
L 2253 1477 
L 2253 4192 
L 1690 4192 
L 166 1477 
L 166 1088 
L 1747 1088 
L 1747 0 
L 2253 0 
L 2253 1088 
z
M 659 1477 
C 1030 2127 1766 3439 1766 3885 
L 1766 1477 
L 659 1477 
z
" transform="scale(0.015625)"/>
     </defs>
     <use xlink:href="#CMSS17-2d" transform="scale(0.996264)"/>
     <use xlink:href="#CMSS17-34" transform="translate(31.229113 0) scale(0.996264)"/>
    </g>
   </g>
   <g id="text_6">
    <!-- -3 -->
    <g style="fill: #555555" transform="translate(261.973231 170.22482) scale(0.11 -0.11)">
     <defs>
      <path id="CMSS17-33" d="M 1005 2025 
L 1440 2025 
C 2042 2025 2214 1507 2214 1146 
C 2214 653 1933 267 1472 267 
C 1114 267 608 444 320 912 
C 275 691 275 678 250 526 
C 550 88 1037 -128 1485 -128 
C 2214 -128 2752 473 2752 1138 
C 2752 1638 2400 2057 1920 2215 
C 2304 2424 2586 2816 2586 3273 
C 2586 3805 2093 4229 1491 4229 
C 941 4229 512 3892 333 3530 
C 378 3468 493 3284 550 3189 
C 691 3562 1056 3840 1485 3840 
C 1843 3840 2080 3607 2080 3271 
C 2080 2923 1856 2543 1478 2455 
C 1453 2455 1056 2417 1005 2411 
L 1005 2025 
z
" transform="scale(0.015625)"/>
     </defs>
     <use xlink:href="#CMSS17-2d" transform="scale(0.996264)"/>
     <use xlink:href="#CMSS17-33" transform="translate(31.229113 0) scale(0.996264)"/>
    </g>
   </g>
   <g id="text_7">
    <!-- -2 -->
    <g style="fill: #555555" transform="translate(238.789882 189.67796) scale(0.11 -0.11)">
     <defs>
      <path id="CMSS17-32" d="M 1651 1357 
C 1830 1541 2099 1764 2285 1987 
C 2464 2204 2701 2511 2701 2957 
C 2701 3657 2227 4288 1421 4288 
C 787 4288 422 3893 250 3274 
L 499 2929 
C 640 3510 838 3880 1338 3880 
C 1888 3880 2195 3433 2195 2942 
C 2195 2355 1747 1901 1408 1563 
C 1030 1187 659 804 301 408 
L 301 0 
L 2701 0 
L 2701 433 
L 1613 433 
C 1536 433 1459 433 1382 433 
L 742 433 
L 742 439 
L 1651 1357 
z
" transform="scale(0.015625)"/>
     </defs>
     <use xlink:href="#CMSS17-2d" transform="scale(0.996264)"/>
     <use xlink:href="#CMSS17-32" transform="translate(31.229113 0) scale(0.996264)"/>
    </g>
   </g>
   <g id="text_8">
    <!-- -1 -->
    <g style="fill: #555555" transform="translate(215.606533 209.131099) scale(0.11 -0.11)">
     <defs>
      <path id="CMSS17-31" d="M 1818 4288 
L 1696 4288 
C 1350 3940 947 3890 538 3890 
L 538 3520 
C 723 3520 1024 3520 1325 3667 
L 1325 369 
L 570 369 
L 570 0 
L 2573 0 
L 2573 369 
L 1818 369 
L 1818 4288 
z
" transform="scale(0.015625)"/>
     </defs>
     <use xlink:href="#CMSS17-2d" transform="scale(0.996264)"/>
     <use xlink:href="#CMSS17-31" transform="translate(31.229113 0) scale(0.996264)"/>
    </g>
   </g>
   <g id="text_9">
    <!-- 1 -->
    <g style="fill: #555555" transform="translate(155.746213 248.037378) scale(0.11 -0.11)">
     <use xlink:href="#CMSS17-31" transform="scale(0.996264)"/>
    </g>
   </g>
   <g id="text_10">
    <!-- 2 -->
    <g style="fill: #555555" transform="translate(132.562864 267.490518) scale(0.11 -0.11)">
     <use xlink:href="#CMSS17-32" transform="scale(0.996264)"/>
    </g>
   </g>
   <g id="text_11">
    <!-- 3 -->
    <g style="fill: #555555" transform="translate(109.379515 286.943658) scale(0.11 -0.11)">
     <use xlink:href="#CMSS17-33" transform="scale(0.996264)"/>
    </g>
   </g>
   <g id="text_12">
    <!-- 4 -->
    <g style="fill: #555555" transform="translate(86.196167 306.396797) scale(0.11 -0.11)">
     <use xlink:href="#CMSS17-34" transform="scale(0.996264)"/>
    </g>
   </g>
   <g id="text_13">
    <!-- 5 -->
    <g style="fill: #555555" transform="translate(63.012818 325.849937) scale(0.11 -0.11)">
     <use xlink:href="#CMSS17-35" transform="scale(0.996264)"/>
    </g>
   </g>
   <g id="text_14">
    <!-- -5 -->
    <g style="fill: #555555" transform="translate(16.888325 238.79763) scale(0.11 -0.11)">
     <use xlink:href="#CMSS17-2d" transform="scale(0.996264)"/>
     <use xlink:href="#CMSS17-35" transform="translate(31.229113 0) scale(0.996264)"/>
    </g>
   </g>
   <g id="text_15">
    <!-- -4 -->
    <g style="fill: #555555" transform="translate(50.280638 238.79763) scale(0.11 -0.11)">
     <use xlink:href="#CMSS17-2d" transform="scale(0.996264)"/>
     <use xlink:href="#CMSS17-34" transform="translate(31.229113 0) scale(0.996264)"/>
    </g>
   </g>
   <g id="text_16">
    <!-- -3 -->
    <g style="fill: #555555" transform="translate(83.67295 238.79763) scale(0.11 -0.11)">
     <use xlink:href="#CMSS17-2d" transform="scale(0.996264)"/>
     <use xlink:href="#CMSS17-33" transform="translate(31.229113 0) scale(0.996264)"/>
    </g>
   </g>
   <g id="text_17">
    <!-- -2 -->
    <g style="fill: #555555" transform="translate(117.065262 238.79763) scale(0.11 -0.11)">
     <use xlink:href="#CMSS17-2d" transform="scale(0.996264)"/>
     <use xlink:href="#CMSS17-32" transform="translate(31.229113 0) scale(0.996264)"/>
    </g>
   </g>
   <g id="text_18">
    <!-- -1 -->
    <g style="fill: #555555" transform="translate(150.457575 238.79763) scale(0.11 -0.11)">
     <use xlink:href="#CMSS17-2d" transform="scale(0.996264)"/>
     <use xlink:href="#CMSS17-31" transform="translate(31.229113 0) scale(0.996264)"/>
    </g>
   </g>
   <g id="text_19">
    <!-- 1 -->
    <g style="fill: #555555" transform="translate(219.068686 238.79763) scale(0.11 -0.11)">
     <use xlink:href="#CMSS17-31" transform="scale(0.996264)"/>
    </g>
   </g>
   <g id="text_20">
    <!-- 2 -->
    <g style="fill: #555555" transform="translate(252.460998 238.79763) scale(0.11 -0.11)">
     <use xlink:href="#CMSS17-32" transform="scale(0.996264)"/>
    </g>
   </g>
   <g id="text_21">
    <!-- 3 -->
    <g style="fill: #555555" transform="translate(285.85331 238.79763) scale(0.11 -0.11)">
     <use xlink:href="#CMSS17-33" transform="scale(0.996264)"/>
    </g>
   </g>
   <g id="text_22">
    <!-- 4 -->
    <g style="fill: #555555" transform="translate(319.245623 238.79763) scale(0.11 -0.11)">
     <use xlink:href="#CMSS17-34" transform="scale(0.996264)"/>
    </g>
   </g>
   <g id="text_23">
    <!-- 5 -->
    <g style="fill: #555555" transform="translate(352.637935 238.79763) scale(0.11 -0.11)">
     <use xlink:href="#CMSS17-35" transform="scale(0.996264)"/>
    </g>
   </g>
   <g id="text_24">
    <!-- -5 -->
    <g style="fill: #555555" transform="translate(170.935589 395.5458) scale(0.11 -0.11)">
     <use xlink:href="#CMSS17-2d" transform="scale(0.996264)"/>
     <use xlink:href="#CMSS17-35" transform="translate(31.229113 0) scale(0.996264)"/>
    </g>
   </g>
   <g id="text_25">
    <!-- -4 -->
    <g style="fill: #555555" transform="translate(170.935589 362.153488) scale(0.11 -0.11)">
     <use xlink:href="#CMSS17-2d" transform="scale(0.996264)"/>
     <use xlink:href="#CMSS17-34" transform="translate(31.229113 0) scale(0.996264)"/>
    </g>
   </g>
   <g id="text_26">
    <!-- -3 -->
    <g style="fill: #555555" transform="translate(170.935589 328.761176) scale(0.11 -0.11)">
     <use xlink:href="#CMSS17-2d" transform="scale(0.996264)"/>
     <use xlink:href="#CMSS17-33" transform="translate(31.229113 0) scale(0.996264)"/>
    </g>
   </g>
   <g id="text_27">
    <!-- -2 -->
    <g style="fill: #555555" transform="translate(170.935589 295.368864) scale(0.11 -0.11)">
     <use xlink:href="#CMSS17-2d" transform="scale(0.996264)"/>
     <use xlink:href="#CMSS17-32" transform="translate(31.229113 0) scale(0.996264)"/>
    </g>
   </g>
   <g id="text_28">
    <!-- -1 -->
    <g style="fill: #555555" transform="translate(170.935589 261.976551) scale(0.11 -0.11)">
     <use xlink:href="#CMSS17-2d" transform="scale(0.996264)"/>
     <use xlink:href="#CMSS17-31" transform="translate(31.229113 0) scale(0.996264)"/>
    </g>
   </g>
   <g id="text_29">
    <!-- 1 -->
    <g style="fill: #555555" transform="translate(174.588562 195.191927) scale(0.11 -0.11)">
     <use xlink:href="#CMSS17-31" transform="scale(0.996264)"/>
    </g>
   </g>
   <g id="text_30">
    <!-- 2 -->
    <g style="fill: #555555" transform="translate(174.588562 161.799614) scale(0.11 -0.11)">
     <use xlink:href="#CMSS17-32" transform="scale(0.996264)"/>
    </g>
   </g>
   <g id="text_31">
    <!-- 3 -->
    <g style="fill: #555555" transform="translate(174.588562 128.407302) scale(0.11 -0.11)">
     <use xlink:href="#CMSS17-33" transform="scale(0.996264)"/>
    </g>
   </g>
   <g id="text_32">
    <!-- 4 -->
    <g style="fill: #555555" transform="translate(174.588562 95.01499) scale(0.11 -0.11)">
     <use xlink:href="#CMSS17-34" transform="scale(0.996264)"/>
    </g>
   </g>
   <g id="text_33">
    <!-- 5 -->
    <g style="fill: #555555" transform="translate(174.588562 61.622677) scale(0.11 -0.11)">
     <use xlink:href="#CMSS17-35" transform="scale(0.996264)"/>
    </g>
   </g>
   <g id="line2d_37">
    <path d="M 219.042997 284.203932 
L 225.288378 284.095079 
L 231.76991 283.768929 
L 238.463416 283.226698 
L 245.343925 282.470407 
L 253.403395 281.347618 
L 261.634305 279.954424 
L 269.996555 278.297611 
L 278.449405 276.385252 
L 286.951674 274.226664 
L 295.46194 271.832362 
L 303.938741 269.214013 
L 312.34078 266.384372 
L 320.627121 263.357224 
L 328.757397 260.147319 
L 336.691995 256.770293 
L 344.39226 253.2426 
L 351.820677 249.581427 
L 358.941055 245.80461 
L 365.718705 241.930549 
L 371.342002 238.475803 
L 376.656612 234.973937 
L 381.64271 231.438015 
L 386.281694 227.881227 
L 390.556261 224.316841 
L 394.450463 220.758154 
L 397.474561 217.722452 
L 400.200223 214.709011 
L 402.619977 211.726092 
L 404.727191 208.78187 
L 406.516089 205.884416 
L 407.981769 203.041671 
L 408.95334 200.720136 
L 409.695798 198.446425 
L 410.207731 196.224869 
L 410.488163 194.059696 
L 410.545455 192.370926 
L 410.545455 192.370926 
" clip-path="url(#p8aac706762)" style="fill: none; stroke: #1f77b4; stroke-opacity: 0.7; stroke-width: 1.625; stroke-linecap: round"/>
   </g>
   <g id="line2d_38">
    <path d="M 166.640633 259.3181 
L 166.649527 259.734 
L 166.667708 260.147319 
L 166.695173 260.558025 
L 166.731922 260.966088 
L 166.777951 261.371476 
L 166.833256 261.774159 
L 166.897834 262.174105 
L 166.971679 262.571285 
L 167.054787 262.965668 
L 167.14715 263.357224 
L 167.248761 263.745923 
L 167.359614 264.131736 
L 167.479699 264.514634 
L 167.609007 264.894586 
L 167.747528 265.271565 
L 167.895252 265.645541 
L 168.052168 266.016486 
L 168.218264 266.384372 
L 168.393527 266.74917 
L 168.577943 267.110854 
L 168.771499 267.469394 
L 168.974179 267.824765 
L 169.18597 268.176939 
L 169.406853 268.52589 
L 169.636813 268.87159 
L 169.875832 269.214013 
L 170.123892 269.553133 
L 170.380973 269.888925 
L 170.647057 270.221363 
L 170.922123 270.550421 
L 171.20615 270.876075 
L 171.499117 271.198299 
L 171.801001 271.51707 
L 172.111778 271.832362 
L 172.431427 272.144153 
L 172.759921 272.452417 
L 173.097237 272.757132 
L 173.443348 273.058274 
L 173.798228 273.355821 
L 174.16185 273.64975 
L 174.534187 273.940038 
L 174.91521 274.226664 
L 175.304889 274.509605 
L 175.703196 274.78884 
L 176.1101 275.064347 
L 176.52557 275.336107 
L 176.949575 275.604097 
L 177.382081 275.868298 
L 177.823057 276.12869 
L 178.272468 276.385252 
L 178.730281 276.637965 
L 179.19646 276.886811 
L 179.67097 277.131769 
L 180.153774 277.372821 
L 180.644837 277.609949 
L 181.144121 277.843136 
L 181.651587 278.072362 
L 182.167197 278.297611 
L 182.690912 278.518865 
L 183.222692 278.736108 
L 183.762496 278.949324 
L 184.310284 279.158495 
L 184.866013 279.363606 
L 185.429641 279.564641 
L 186.001125 279.761585 
L 186.580422 279.954424 
L 187.167488 280.143141 
L 187.762278 280.327724 
L 188.364747 280.508157 
L 188.974848 280.684428 
L 189.592535 280.856522 
L 190.217762 281.024427 
L 190.850481 281.18813 
L 191.490643 281.347618 
L 192.138199 281.50288 
L 192.793102 281.653902 
L 193.455299 281.800675 
L 194.124742 281.943187 
L 194.801379 282.081426 
L 195.485158 282.215383 
L 196.176028 282.345046 
L 196.873936 282.470407 
L 197.578829 282.591456 
L 198.290653 282.708183 
L 199.009353 282.82058 
L 199.734876 282.928638 
L 200.467166 283.032349 
L 201.206167 283.131705 
L 201.951822 283.226698 
L 202.704076 283.317321 
L 203.462871 283.403567 
L 204.228148 283.48543 
L 204.99985 283.562904 
L 205.777918 283.635982 
L 206.562293 283.704659 
L 207.352915 283.768929 
L 208.149724 283.828789 
L 208.952658 283.884233 
L 209.761658 283.935256 
L 210.576661 283.981856 
L 211.397605 284.024029 
L 212.224428 284.061771 
L 213.057066 284.095079 
L 213.895457 284.123952 
L 214.739537 284.148386 
L 215.58924 284.168381 
L 216.444504 284.183933 
L 217.305261 284.195043 
L 218.171448 284.201709 
L 219.042997 284.203932 
" clip-path="url(#p8aac706762)" style="fill: none; stroke: #1f77b4; stroke-opacity: 0.7; stroke-width: 1.625; stroke-linecap: round"/>
   </g>
   <g id="line2d_39">
    <path d="M 219.042997 284.203932 
L 219.172722 277.979424 
L 219.561413 271.560432 
L 220.207619 264.970901 
L 221.108931 258.235413 
L 222.261985 251.379094 
L 223.662482 244.42752 
L 225.305195 237.406625 
L 227.183998 230.342598 
L 229.291881 223.261791 
L 231.620981 216.190619 
L 234.16261 209.15546 
L 236.907287 202.182558 
L 239.844772 195.297925 
L 242.964108 188.527242 
L 246.253658 181.895768 
L 249.701151 175.428241 
L 253.293727 169.148787 
L 257.017983 163.08083 
L 260.860028 157.247008 
L 264.805527 151.669081 
L 268.839763 146.367859 
L 272.947688 141.363117 
L 277.113975 136.673525 
L 281.323084 132.316576 
L 284.953076 128.859161 
L 288.593044 125.667576 
L 292.233012 122.750569 
L 295.863003 120.116135 
L 299.473068 117.771496 
L 303.053312 115.723077 
L 306.593921 113.976493 
L 310.08519 112.536532 
L 312.949984 111.573663 
L 315.768412 110.828315 
L 318.535111 110.301907 
L 321.244813 109.99544 
L 323.892361 109.909499 
L 323.892361 109.909499 
" clip-path="url(#p8aac706762)" style="fill: none; stroke: #1f77b4; stroke-opacity: 0.7; stroke-width: 1.625; stroke-linecap: round"/>
   </g>
   <g id="line2d_40">
    <path d="M 253.293727 341.779527 
L 252.772122 341.77023 
L 252.253244 341.752105 
L 251.737134 341.725154 
L 251.223831 341.689377 
L 250.713374 341.644779 
L 250.205801 341.591362 
L 249.701151 341.52913 
L 249.199464 341.458089 
L 248.700776 341.378243 
L 248.205126 341.289599 
L 247.712552 341.192163 
L 247.223091 341.085943 
L 246.736781 340.970947 
L 246.253658 340.847184 
L 245.77376 340.714662 
L 245.297122 340.573393 
L 244.823781 340.423387 
L 244.353774 340.264655 
L 243.887136 340.09721 
L 243.423902 339.921064 
L 242.964108 339.73623 
L 242.507789 339.542724 
L 242.054979 339.340558 
L 241.605713 339.12975 
L 241.160026 338.910314 
L 240.717951 338.682268 
L 240.279522 338.445629 
L 239.844772 338.200415 
L 239.413734 337.946645 
L 238.986442 337.684338 
L 238.562927 337.413513 
L 238.143222 337.134192 
L 237.72736 336.846396 
L 237.315371 336.550147 
L 236.907287 336.245467 
L 236.503139 335.93238 
L 236.102957 335.610909 
L 235.706773 335.281079 
L 235.314617 334.942915 
L 234.926518 334.596443 
L 234.542506 334.241689 
L 234.16261 333.878679 
L 233.786859 333.507443 
L 233.415282 333.128008 
L 233.047907 332.740403 
L 232.684762 332.344657 
L 232.325874 331.9408 
L 231.971272 331.528865 
L 231.620981 331.10888 
L 231.275029 330.68088 
L 230.933442 330.244896 
L 230.596246 329.800961 
L 230.263467 329.34911 
L 229.935129 328.889376 
L 229.611259 328.421795 
L 229.291881 327.946403 
L 228.977018 327.463235 
L 228.666696 326.972328 
L 228.360937 326.47372 
L 228.059765 325.967449 
L 227.763202 325.453553 
L 227.471273 324.932072 
L 227.183998 324.403044 
L 226.901399 323.866511 
L 226.623498 323.322513 
L 226.350317 322.771092 
L 226.081876 322.21229 
L 225.818195 321.646148 
L 225.559295 321.072711 
L 225.305195 320.492022 
L 225.055915 319.904126 
L 224.811473 319.309066 
L 224.571888 318.706889 
L 224.337179 318.097639 
L 224.107363 317.481365 
L 223.882459 316.858112 
L 223.662482 316.227927 
L 223.447449 315.59086 
L 223.237378 314.946958 
L 223.032284 314.296271 
L 222.832183 313.638848 
L 222.637089 312.974739 
L 222.447019 312.303994 
L 222.261985 311.626666 
L 222.082003 310.942804 
L 221.907087 310.252462 
L 221.737248 309.555693 
L 221.572501 308.852548 
L 221.412858 308.143082 
L 221.25833 307.427348 
L 221.108931 306.705402 
L 220.96467 305.977298 
L 220.82556 305.243091 
L 220.691611 304.502838 
L 220.562833 303.756595 
L 220.439235 303.004418 
L 220.320827 302.246365 
L 220.207619 301.482494 
L 220.099619 300.712863 
L 219.996834 299.937531 
L 219.899274 299.156556 
L 219.806944 298.369998 
L 219.719853 297.577917 
L 219.638007 296.780373 
L 219.561413 295.977427 
L 219.490075 295.16914 
L 219.424 294.355574 
L 219.363192 293.53679 
L 219.307656 292.712852 
L 219.257397 291.883821 
L 219.212418 291.049761 
L 219.172722 290.210735 
L 219.138313 289.366808 
L 219.109193 288.518043 
L 219.085365 287.664505 
L 219.06683 286.80626 
L 219.05359 285.943372 
L 219.045645 285.075907 
L 219.042997 284.203932 
" clip-path="url(#p8aac706762)" style="fill: none; stroke: #1f77b4; stroke-opacity: 0.7; stroke-width: 1.625; stroke-linecap: round"/>
   </g>
   <g id="patch_5">
    <path d="M 288.593044 326.02145 
C 315.160278 326.02145 340.642964 315.466176 359.428835 296.680304 
C 378.214707 277.894433 388.769981 252.411747 388.769981 225.844513 
C 388.769981 199.277279 378.214707 173.794593 359.428835 155.008722 
C 340.642964 136.22285 315.160278 125.667576 288.593044 125.667576 
C 262.02581 125.667576 236.543124 136.22285 217.757252 155.008722 
C 198.971381 173.794593 188.416107 199.277279 188.416107 225.844513 
C 188.416107 252.411747 198.971381 277.894433 217.757252 296.680304 
C 236.543124 315.466176 262.02581 326.02145 288.593044 326.02145 
L 288.593044 326.02145 
z
" clip-path="url(#p42266f2c71)" style="fill: none; stroke: #1f77b4; stroke-width: 2.5; stroke-linejoin: miter"/>
   </g>
  </g>
 </g>
 <defs>
  <clipPath id="p42266f2c71">
   <rect x="2" y="21.513318" width="428" height="388.973364"/>
  </clipPath>
  <clipPath id="p8aac706762">
   <path d="M 288.593044 326.02145 
C 315.160278 326.02145 340.642964 315.466176 359.428835 296.680304 
C 378.214707 277.894433 388.769981 252.411747 388.769981 225.844513 
C 388.769981 199.277279 378.214707 173.794593 359.428835 155.008722 
C 340.642964 136.22285 315.160278 125.667576 288.593044 125.667576 
C 262.02581 125.667576 236.543124 136.22285 217.757252 155.008722 
C 198.971381 173.794593 188.416107 199.277279 188.416107 225.844513 
C 188.416107 252.411747 198.971381 277.894433 217.757252 296.680304 
C 236.543124 315.466176 262.02581 326.02145 288.593044 326.02145 
z
"/>
  </clipPath>
 </defs>
</svg>
