<?xml version="1.0" encoding="utf-8" standalone="no"?>
<!DOCTYPE svg PUBLIC "-//W3C//DTD SVG 1.1//EN"
  "http://www.w3.org/Graphics/SVG/1.1/DTD/svg11.dtd">
<svg xmlns:xlink="http://www.w3.org/1999/xlink" width="453.6pt" height="338.54pt" viewBox="0 0 453.6 338.54" xmlns="http://www.w3.org/2000/svg" version="1.1">
 <metadata>
  <rdf:RDF xmlns:dc="http://purl.org/dc/elements/1.1/" xmlns:cc="http://creativecommons.org/ns#" xmlns:rdf="http://www.w3.org/1999/02/22-rdf-syntax-ns#">
   <cc:Work>
    <dc:type rdf:resource="http://purl.org/dc/dcmitype/StillImage"/>
    <dc:date>2026-01-22T01:00:42.862421</dc:date>
    <dc:format>image/svg+xml</dc:format>
    <dc:creator>
     <cc:Agent>
      <dc:title>Matplotlib v3.9.1, https://matplotlib.org/</dc:title>
     </cc:Agent>
    </dc:creator>
   </cc:Work>
  </rdf:RDF>
 </metadata>
 <defs>
  <style type="text/css">*{stroke-linejoin: round; stroke-linecap: butt}</style>
 </defs>
 <g id="frame0010_75d53e_figure_1">
  <g id="frame0010_75d53e_patch_1">
   <path d="M 0 338.54 
L 453.6 338.54 
L 453.6 0 
L 0 0 
L 0 338.54 
z
" style="fill: none; opacity: 0"/>
  </g>
  <g id="frame0010_75d53e_axes_1">
   <g id="frame0010_75d53e_patch_2">
    <path d="M 7.2 331.34 
L 443.4 331.34 
L 443.4 16.556315 
L 7.2 16.556315 
L 7.2 331.34 
z
" style="fill: none; opacity: 0"/>
   </g>
   <g id="frame0010_75d53e_matplotlib.axis_1">
    <g id="frame0010_75d53e_xtick_1">
     <g id="frame0010_75d53e_line2d_1">
      <path d="M 50.82 331.34 
L 50.82 16.556315 
" clip-path="url(#frame0010_75d53e_p3ce835ee2b)" style="fill: none; stroke-dasharray: 2.96,1.28; stroke-dashoffset: 0; stroke: #b0b0b0; stroke-opacity: 0.6; stroke-width: 0.8"/>
     </g>
     <g id="frame0010_75d53e_line2d_2">
      <defs>
       <path id="frame0010_75d53e_m195eaca755" d="M 0 0 
L 0 3.5 
" style="stroke: #000000; stroke-width: 0.8"/>
      </defs>
      <g>
       <use xlink:href="#frame0010_75d53e_m195eaca755" x="50.82" y="173.948158" style="stroke: #000000; stroke-width: 0.8"/>
      </g>
     </g>
     <g id="frame0010_75d53e_text_1">
      <!-- $\mathdefault{−4}$ -->
      <g transform="translate(38.502209 194.785154) scale(0.2 -0.2)">
       <defs>
        <path id="frame0010_75d53e_CMSY10-0" d="M 4218 1472 
C 4326 1472 4442 1472 4442 1600 
C 4442 1728 4326 1728 4218 1728 
L 755 1728 
C 646 1728 531 1728 531 1600 
C 531 1472 646 1472 755 1472 
L 4218 1472 
z
" transform="scale(0.015625)"/>
        <path id="frame0010_75d53e_CMR17-34" d="M 2150 4122 
C 2150 4256 2144 4256 2029 4256 
L 128 1254 
L 128 1088 
L 1779 1088 
L 1779 457 
C 1779 224 1766 160 1318 160 
L 1197 160 
L 1197 0 
C 1402 0 1747 0 1965 0 
C 2182 0 2528 0 2733 0 
L 2733 160 
L 2611 160 
C 2163 160 2150 224 2150 457 
L 2150 1088 
L 2803 1088 
L 2803 1254 
L 2150 1254 
L 2150 4122 
z
M 1798 3703 
L 1798 1254 
L 256 1254 
L 1798 3703 
z
" transform="scale(0.015625)"/>
       </defs>
       <use xlink:href="#frame0010_75d53e_CMSY10-0" transform="scale(0.996264)"/>
       <use xlink:href="#frame0010_75d53e_CMR17-34" transform="translate(77.487468 0) scale(0.996264)"/>
      </g>
     </g>
    </g>
    <g id="frame0010_75d53e_xtick_2">
     <g id="frame0010_75d53e_line2d_3">
      <path d="M 94.44 331.34 
L 94.44 16.556315 
" clip-path="url(#frame0010_75d53e_p3ce835ee2b)" style="fill: none; stroke-dasharray: 2.96,1.28; stroke-dashoffset: 0; stroke: #b0b0b0; stroke-opacity: 0.6; stroke-width: 0.8"/>
     </g>
     <g id="frame0010_75d53e_line2d_4">
      <g>
       <use xlink:href="#frame0010_75d53e_m195eaca755" x="94.44" y="173.948158" style="stroke: #000000; stroke-width: 0.8"/>
      </g>
     </g>
     <g id="frame0010_75d53e_text_2">
      <!-- $\mathdefault{−3}$ -->
      <g transform="translate(82.122209 194.785154) scale(0.2 -0.2)">
       <defs>
        <path id="frame0010_75d53e_CMR17-33" d="M 1414 2157 
C 1984 2157 2234 1662 2234 1090 
C 2234 320 1824 25 1453 25 
C 1114 25 563 194 390 693 
C 422 680 454 680 486 680 
C 640 680 755 782 755 948 
C 755 1133 614 1216 486 1216 
C 378 1216 211 1165 211 926 
C 211 335 787 -128 1466 -128 
C 2176 -128 2720 430 2720 1085 
C 2720 1707 2208 2157 1600 2227 
C 2086 2328 2554 2756 2554 3329 
C 2554 3820 2048 4179 1472 4179 
C 890 4179 378 3829 378 3329 
C 378 3110 544 3072 627 3072 
C 762 3072 877 3155 877 3321 
C 877 3486 762 3569 627 3569 
C 602 3569 570 3569 544 3557 
C 730 3959 1235 4032 1459 4032 
C 1683 4032 2106 3925 2106 3320 
C 2106 3143 2080 2828 1862 2550 
C 1670 2304 1453 2304 1242 2284 
C 1210 2284 1062 2269 1037 2269 
C 992 2263 966 2257 966 2208 
C 966 2163 973 2157 1101 2157 
L 1414 2157 
z
" transform="scale(0.015625)"/>
       </defs>
       <use xlink:href="#frame0010_75d53e_CMSY10-0" transform="scale(0.996264)"/>
       <use xlink:href="#frame0010_75d53e_CMR17-33" transform="translate(77.487468 0) scale(0.996264)"/>
      </g>
     </g>
    </g>
    <g id="frame0010_75d53e_xtick_3">
     <g id="frame0010_75d53e_line2d_5">
      <path d="M 138.06 331.34 
L 138.06 16.556315 
" clip-path="url(#frame0010_75d53e_p3ce835ee2b)" style="fill: none; stroke-dasharray: 2.96,1.28; stroke-dashoffset: 0; stroke: #b0b0b0; stroke-opacity: 0.6; stroke-width: 0.8"/>
     </g>
     <g id="frame0010_75d53e_line2d_6">
      <g>
       <use xlink:href="#frame0010_75d53e_m195eaca755" x="138.06" y="173.948158" style="stroke: #000000; stroke-width: 0.8"/>
      </g>
     </g>
     <g id="frame0010_75d53e_text_3">
      <!-- $\mathdefault{−2}$ -->
      <g transform="translate(125.742209 194.785154) scale(0.2 -0.2)">
       <defs>
        <path id="frame0010_75d53e_CMR17-32" d="M 2669 989 
L 2554 989 
C 2490 536 2438 459 2413 420 
C 2381 369 1920 369 1830 369 
L 602 369 
C 832 619 1280 1072 1824 1597 
C 2214 1967 2669 2402 2669 3035 
C 2669 3790 2067 4224 1395 4224 
C 691 4224 262 3604 262 3030 
C 262 2780 448 2748 525 2748 
C 589 2748 781 2787 781 3010 
C 781 3207 614 3264 525 3264 
C 486 3264 448 3258 422 3245 
C 544 3790 915 4058 1306 4058 
C 1862 4058 2227 3617 2227 3035 
C 2227 2479 1901 2000 1536 1584 
L 262 146 
L 262 0 
L 2515 0 
L 2669 989 
z
" transform="scale(0.015625)"/>
       </defs>
       <use xlink:href="#frame0010_75d53e_CMSY10-0" transform="scale(0.996264)"/>
       <use xlink:href="#frame0010_75d53e_CMR17-32" transform="translate(77.487468 0) scale(0.996264)"/>
      </g>
     </g>
    </g>
    <g id="frame0010_75d53e_xtick_4">
     <g id="frame0010_75d53e_line2d_7">
      <path d="M 181.68 331.34 
L 181.68 16.556315 
" clip-path="url(#frame0010_75d53e_p3ce835ee2b)" style="fill: none; stroke-dasharray: 2.96,1.28; stroke-dashoffset: 0; stroke: #b0b0b0; stroke-opacity: 0.6; stroke-width: 0.8"/>
     </g>
     <g id="frame0010_75d53e_line2d_8">
      <g>
       <use xlink:href="#frame0010_75d53e_m195eaca755" x="181.68" y="173.948158" style="stroke: #000000; stroke-width: 0.8"/>
      </g>
     </g>
     <g id="frame0010_75d53e_text_4">
      <!-- $\mathdefault{−1}$ -->
      <g transform="translate(169.362209 194.785154) scale(0.2 -0.2)">
       <defs>
        <path id="frame0010_75d53e_CMR17-31" d="M 1702 4058 
C 1702 4192 1696 4192 1606 4192 
C 1357 3916 979 3827 621 3827 
C 602 3827 570 3827 563 3808 
C 557 3795 557 3782 557 3648 
C 755 3648 1088 3686 1344 3839 
L 1344 461 
C 1344 236 1331 160 781 160 
L 589 160 
L 589 0 
C 896 0 1216 0 1523 0 
C 1830 0 2150 0 2458 0 
L 2458 160 
L 2266 160 
C 1715 160 1702 230 1702 458 
L 1702 4058 
z
" transform="scale(0.015625)"/>
       </defs>
       <use xlink:href="#frame0010_75d53e_CMSY10-0" transform="scale(0.996264)"/>
       <use xlink:href="#frame0010_75d53e_CMR17-31" transform="translate(77.487468 0) scale(0.996264)"/>
      </g>
     </g>
    </g>
    <g id="frame0010_75d53e_xtick_5">
     <g id="frame0010_75d53e_line2d_9">
      <path d="M 268.92 331.34 
L 268.92 16.556315 
" clip-path="url(#frame0010_75d53e_p3ce835ee2b)" style="fill: none; stroke-dasharray: 2.96,1.28; stroke-dashoffset: 0; stroke: #b0b0b0; stroke-opacity: 0.6; stroke-width: 0.8"/>
     </g>
     <g id="frame0010_75d53e_line2d_10">
      <g>
       <use xlink:href="#frame0010_75d53e_m195eaca755" x="268.92" y="173.948158" style="stroke: #000000; stroke-width: 0.8"/>
      </g>
     </g>
     <g id="frame0010_75d53e_text_5">
      <!-- $\mathdefault{1}$ -->
      <g transform="translate(264.350952 194.785154) scale(0.2 -0.2)">
       <use xlink:href="#frame0010_75d53e_CMR17-31" transform="scale(0.996264)"/>
      </g>
     </g>
    </g>
    <g id="frame0010_75d53e_xtick_6">
     <g id="frame0010_75d53e_line2d_11">
      <path d="M 312.54 331.34 
L 312.54 16.556315 
" clip-path="url(#frame0010_75d53e_p3ce835ee2b)" style="fill: none; stroke-dasharray: 2.96,1.28; stroke-dashoffset: 0; stroke: #b0b0b0; stroke-opacity: 0.6; stroke-width: 0.8"/>
     </g>
     <g id="frame0010_75d53e_line2d_12">
      <g>
       <use xlink:href="#frame0010_75d53e_m195eaca755" x="312.54" y="173.948158" style="stroke: #000000; stroke-width: 0.8"/>
      </g>
     </g>
     <g id="frame0010_75d53e_text_6">
      <!-- $\mathdefault{2}$ -->
      <g transform="translate(307.970952 194.785154) scale(0.2 -0.2)">
       <use xlink:href="#frame0010_75d53e_CMR17-32" transform="scale(0.996264)"/>
      </g>
     </g>
    </g>
    <g id="frame0010_75d53e_xtick_7">
     <g id="frame0010_75d53e_line2d_13">
      <path d="M 356.16 331.34 
L 356.16 16.556315 
" clip-path="url(#frame0010_75d53e_p3ce835ee2b)" style="fill: none; stroke-dasharray: 2.96,1.28; stroke-dashoffset: 0; stroke: #b0b0b0; stroke-opacity: 0.6; stroke-width: 0.8"/>
     </g>
     <g id="frame0010_75d53e_line2d_14">
      <g>
       <use xlink:href="#frame0010_75d53e_m195eaca755" x="356.16" y="173.948158" style="stroke: #000000; stroke-width: 0.8"/>
      </g>
     </g>
     <g id="frame0010_75d53e_text_7">
      <!-- $\mathdefault{3}$ -->
      <g transform="translate(351.590952 194.785154) scale(0.2 -0.2)">
       <use xlink:href="#frame0010_75d53e_CMR17-33" transform="scale(0.996264)"/>
      </g>
     </g>
    </g>
    <g id="frame0010_75d53e_xtick_8">
     <g id="frame0010_75d53e_line2d_15">
      <path d="M 399.78 331.34 
L 399.78 16.556315 
" clip-path="url(#frame0010_75d53e_p3ce835ee2b)" style="fill: none; stroke-dasharray: 2.96,1.28; stroke-dashoffset: 0; stroke: #b0b0b0; stroke-opacity: 0.6; stroke-width: 0.8"/>
     </g>
     <g id="frame0010_75d53e_line2d_16">
      <g>
       <use xlink:href="#frame0010_75d53e_m195eaca755" x="399.78" y="173.948158" style="stroke: #000000; stroke-width: 0.8"/>
      </g>
     </g>
     <g id="frame0010_75d53e_text_8">
      <!-- $\mathdefault{4}$ -->
      <g transform="translate(395.210952 194.785154) scale(0.2 -0.2)">
       <use xlink:href="#frame0010_75d53e_CMR17-34" transform="scale(0.996264)"/>
      </g>
     </g>
    </g>
    <g id="frame0010_75d53e_text_9">
     <!-- $x$ -->
     <g transform="translate(432.313188 216.497785) scale(0.2 -0.2)">
      <defs>
       <path id="frame0010_75d53e_CMMI12-78" d="M 3034 2606 
C 2829 2567 2752 2414 2752 2293 
C 2752 2139 2874 2088 2963 2088 
C 3155 2088 3290 2254 3290 2427 
C 3290 2695 2982 2816 2714 2816 
C 2323 2816 2106 2433 2048 2312 
C 1901 2816 1504 2816 1389 2816 
C 736 2816 390 1980 390 1839 
C 390 1814 416 1782 461 1782 
C 512 1782 525 1820 538 1846 
C 755 2555 1184 2689 1370 2689 
C 1658 2689 1715 2420 1715 2267 
C 1715 2127 1677 1980 1600 1673 
L 1382 798 
C 1286 415 1101 64 762 64 
C 730 64 570 64 435 147 
C 666 192 717 383 717 460 
C 717 588 621 664 499 664 
C 346 664 179 530 179 326 
C 179 57 480 -64 755 -64 
C 1062 -64 1280 179 1414 441 
C 1517 64 1837 -64 2074 -64 
C 2726 -64 3072 773 3072 913 
C 3072 945 3046 971 3008 971 
C 2950 971 2944 939 2925 888 
C 2752 326 2381 64 2093 64 
C 1869 64 1747 230 1747 492 
C 1747 632 1773 734 1875 1156 
L 2099 2024 
C 2195 2408 2413 2689 2707 2689 
C 2720 2689 2899 2689 3034 2606 
z
" transform="scale(0.015625)"/>
      </defs>
      <use xlink:href="#frame0010_75d53e_CMMI12-78" transform="scale(0.996264)"/>
     </g>
    </g>
   </g>
   <g id="frame0010_75d53e_matplotlib.axis_2">
    <g id="frame0010_75d53e_ytick_1">
     <g id="frame0010_75d53e_line2d_17">
      <path d="M 7.2 299.861632 
L 443.4 299.861632 
" clip-path="url(#frame0010_75d53e_p3ce835ee2b)" style="fill: none; stroke-dasharray: 2.96,1.28; stroke-dashoffset: 0; stroke: #b0b0b0; stroke-opacity: 0.6; stroke-width: 0.8"/>
     </g>
     <g id="frame0010_75d53e_line2d_18">
      <defs>
       <path id="frame0010_75d53e_mf018471040" d="M 0 0 
L -3.5 0 
" style="stroke: #000000; stroke-width: 0.8"/>
      </defs>
      <g>
       <use xlink:href="#frame0010_75d53e_mf018471040" x="225.3" y="299.861632" style="stroke: #000000; stroke-width: 0.8"/>
      </g>
     </g>
     <g id="frame0010_75d53e_text_10">
      <!-- $\mathdefault{−4}$ -->
      <g transform="translate(193.664417 306.78013) scale(0.2 -0.2)">
       <use xlink:href="#frame0010_75d53e_CMSY10-0" transform="scale(0.996264)"/>
       <use xlink:href="#frame0010_75d53e_CMR17-34" transform="translate(77.487468 0) scale(0.996264)"/>
      </g>
     </g>
    </g>
    <g id="frame0010_75d53e_ytick_2">
     <g id="frame0010_75d53e_line2d_19">
      <path d="M 7.2 268.383263 
L 443.4 268.383263 
" clip-path="url(#frame0010_75d53e_p3ce835ee2b)" style="fill: none; stroke-dasharray: 2.96,1.28; stroke-dashoffset: 0; stroke: #b0b0b0; stroke-opacity: 0.6; stroke-width: 0.8"/>
     </g>
     <g id="frame0010_75d53e_line2d_20">
      <g>
       <use xlink:href="#frame0010_75d53e_mf018471040" x="225.3" y="268.383263" style="stroke: #000000; stroke-width: 0.8"/>
      </g>
     </g>
     <g id="frame0010_75d53e_text_11">
      <!-- $\mathdefault{−3}$ -->
      <g transform="translate(193.664417 275.301761) scale(0.2 -0.2)">
       <use xlink:href="#frame0010_75d53e_CMSY10-0" transform="scale(0.996264)"/>
       <use xlink:href="#frame0010_75d53e_CMR17-33" transform="translate(77.487468 0) scale(0.996264)"/>
      </g>
     </g>
    </g>
    <g id="frame0010_75d53e_ytick_3">
     <g id="frame0010_75d53e_line2d_21">
      <path d="M 7.2 236.904895 
L 443.4 236.904895 
" clip-path="url(#frame0010_75d53e_p3ce835ee2b)" style="fill: none; stroke-dasharray: 2.96,1.28; stroke-dashoffset: 0; stroke: #b0b0b0; stroke-opacity: 0.6; stroke-width: 0.8"/>
     </g>
     <g id="frame0010_75d53e_line2d_22">
      <g>
       <use xlink:href="#frame0010_75d53e_mf018471040" x="225.3" y="236.904895" style="stroke: #000000; stroke-width: 0.8"/>
      </g>
     </g>
     <g id="frame0010_75d53e_text_12">
      <!-- $\mathdefault{−2}$ -->
      <g transform="translate(193.664417 243.823393) scale(0.2 -0.2)">
       <use xlink:href="#frame0010_75d53e_CMSY10-0" transform="scale(0.996264)"/>
       <use xlink:href="#frame0010_75d53e_CMR17-32" transform="translate(77.487468 0) scale(0.996264)"/>
      </g>
     </g>
    </g>
    <g id="frame0010_75d53e_ytick_4">
     <g id="frame0010_75d53e_line2d_23">
      <path d="M 7.2 205.426526 
L 443.4 205.426526 
" clip-path="url(#frame0010_75d53e_p3ce835ee2b)" style="fill: none; stroke-dasharray: 2.96,1.28; stroke-dashoffset: 0; stroke: #b0b0b0; stroke-opacity: 0.6; stroke-width: 0.8"/>
     </g>
     <g id="frame0010_75d53e_line2d_24">
      <g>
       <use xlink:href="#frame0010_75d53e_mf018471040" x="225.3" y="205.426526" style="stroke: #000000; stroke-width: 0.8"/>
      </g>
     </g>
     <g id="frame0010_75d53e_text_13">
      <!-- $\mathdefault{−1}$ -->
      <g transform="translate(193.664417 212.345024) scale(0.2 -0.2)">
       <use xlink:href="#frame0010_75d53e_CMSY10-0" transform="scale(0.996264)"/>
       <use xlink:href="#frame0010_75d53e_CMR17-31" transform="translate(77.487468 0) scale(0.996264)"/>
      </g>
     </g>
    </g>
    <g id="frame0010_75d53e_ytick_5">
     <g id="frame0010_75d53e_line2d_25">
      <path d="M 7.2 142.469789 
L 443.4 142.469789 
" clip-path="url(#frame0010_75d53e_p3ce835ee2b)" style="fill: none; stroke-dasharray: 2.96,1.28; stroke-dashoffset: 0; stroke: #b0b0b0; stroke-opacity: 0.6; stroke-width: 0.8"/>
     </g>
     <g id="frame0010_75d53e_line2d_26">
      <g>
       <use xlink:href="#frame0010_75d53e_mf018471040" x="225.3" y="142.469789" style="stroke: #000000; stroke-width: 0.8"/>
      </g>
     </g>
     <g id="frame0010_75d53e_text_14">
      <!-- $\mathdefault{1}$ -->
      <g transform="translate(209.161905 149.388287) scale(0.2 -0.2)">
       <use xlink:href="#frame0010_75d53e_CMR17-31" transform="scale(0.996264)"/>
      </g>
     </g>
    </g>
    <g id="frame0010_75d53e_ytick_6">
     <g id="frame0010_75d53e_line2d_27">
      <path d="M 7.2 110.991421 
L 443.4 110.991421 
" clip-path="url(#frame0010_75d53e_p3ce835ee2b)" style="fill: none; stroke-dasharray: 2.96,1.28; stroke-dashoffset: 0; stroke: #b0b0b0; stroke-opacity: 0.6; stroke-width: 0.8"/>
     </g>
     <g id="frame0010_75d53e_line2d_28">
      <g>
       <use xlink:href="#frame0010_75d53e_mf018471040" x="225.3" y="110.991421" style="stroke: #000000; stroke-width: 0.8"/>
      </g>
     </g>
     <g id="frame0010_75d53e_text_15">
      <!-- $\mathdefault{2}$ -->
      <g transform="translate(209.161905 117.909919) scale(0.2 -0.2)">
       <use xlink:href="#frame0010_75d53e_CMR17-32" transform="scale(0.996264)"/>
      </g>
     </g>
    </g>
    <g id="frame0010_75d53e_ytick_7">
     <g id="frame0010_75d53e_line2d_29">
      <path d="M 7.2 79.513052 
L 443.4 79.513052 
" clip-path="url(#frame0010_75d53e_p3ce835ee2b)" style="fill: none; stroke-dasharray: 2.96,1.28; stroke-dashoffset: 0; stroke: #b0b0b0; stroke-opacity: 0.6; stroke-width: 0.8"/>
     </g>
     <g id="frame0010_75d53e_line2d_30">
      <g>
       <use xlink:href="#frame0010_75d53e_mf018471040" x="225.3" y="79.513052" style="stroke: #000000; stroke-width: 0.8"/>
      </g>
     </g>
     <g id="frame0010_75d53e_text_16">
      <!-- $\mathdefault{3}$ -->
      <g transform="translate(209.161905 86.431551) scale(0.2 -0.2)">
       <use xlink:href="#frame0010_75d53e_CMR17-33" transform="scale(0.996264)"/>
      </g>
     </g>
    </g>
    <g id="frame0010_75d53e_ytick_8">
     <g id="frame0010_75d53e_line2d_31">
      <path d="M 7.2 48.034684 
L 443.4 48.034684 
" clip-path="url(#frame0010_75d53e_p3ce835ee2b)" style="fill: none; stroke-dasharray: 2.96,1.28; stroke-dashoffset: 0; stroke: #b0b0b0; stroke-opacity: 0.6; stroke-width: 0.8"/>
     </g>
     <g id="frame0010_75d53e_line2d_32">
      <g>
       <use xlink:href="#frame0010_75d53e_mf018471040" x="225.3" y="48.034684" style="stroke: #000000; stroke-width: 0.8"/>
      </g>
     </g>
     <g id="frame0010_75d53e_text_17">
      <!-- $\mathdefault{4}$ -->
      <g transform="translate(209.161905 54.953182) scale(0.2 -0.2)">
       <use xlink:href="#frame0010_75d53e_CMR17-34" transform="scale(0.996264)"/>
      </g>
     </g>
    </g>
    <g id="frame0010_75d53e_text_18">
     <!-- $y$ -->
     <g transform="translate(180.151583 12.680682) scale(0.2 -0.2)">
      <defs>
       <path id="frame0010_75d53e_CMMI12-79" d="M 1683 -700 
C 1510 -939 1261 -1152 947 -1152 
C 870 -1152 563 -1152 467 -889 
C 486 -895 518 -895 531 -895 
C 723 -895 851 -729 851 -582 
C 851 -435 730 -384 634 -384 
C 531 -384 307 -458 307 -759 
C 307 -1071 582 -1286 947 -1286 
C 1587 -1286 2234 -700 2413 6 
L 3040 2485 
C 3046 2517 3059 2556 3059 2594 
C 3059 2689 2982 2753 2886 2753 
C 2829 2753 2694 2727 2643 2535 
L 2170 658 
C 2138 543 2138 530 2086 460 
C 1958 281 1747 64 1440 64 
C 1082 64 1050 415 1050 588 
C 1050 952 1222 1443 1395 1903 
C 1466 2088 1504 2178 1504 2305 
C 1504 2574 1312 2816 998 2816 
C 410 2816 173 1890 173 1839 
C 173 1814 198 1782 243 1782 
C 301 1782 307 1807 333 1897 
C 486 2433 730 2689 979 2689 
C 1037 2689 1146 2689 1146 2478 
C 1146 2312 1075 2127 979 1884 
C 666 1047 666 837 666 683 
C 666 77 1101 -64 1421 -64 
C 1606 -64 1837 -6 2061 230 
L 2067 224 
C 1971 -147 1907 -392 1683 -700 
z
" transform="scale(0.015625)"/>
      </defs>
      <use xlink:href="#frame0010_75d53e_CMMI12-79" transform="scale(0.996264)"/>
     </g>
    </g>
   </g>
   <g id="frame0010_75d53e_line2d_33">
    <defs>
     <path id="frame0010_75d53e_m812746225e" d="M 3 0 
L -3 -3 
L -3 3 
z
" style="stroke: #000000; stroke-linejoin: miter"/>
    </defs>
    <g>
     <use xlink:href="#frame0010_75d53e_m812746225e" x="443.4" y="173.948158" style="stroke: #000000; stroke-linejoin: miter"/>
    </g>
   </g>
   <g id="frame0010_75d53e_line2d_34">
    <defs>
     <path id="frame0010_75d53e_m3df3f63814" d="M 0 -3 
L -3 3 
L 3 3 
z
" style="stroke: #000000; stroke-linejoin: miter"/>
    </defs>
    <g>
     <use xlink:href="#frame0010_75d53e_m3df3f63814" x="225.3" y="16.556315" style="stroke: #000000; stroke-linejoin: miter"/>
    </g>
   </g>
   <g id="frame0010_75d53e_line2d_35">
    <path d="M 145.61175 339.54 
L 150.42764 323.567156 
L 155.266078 308.292386 
L 159.931715 294.296747 
L 164.42455 281.50021 
L 168.917385 269.371574 
L 173.237419 258.339286 
L 177.557453 247.92451 
L 181.704686 238.50728 
L 185.679117 230.016458 
L 189.653548 222.048298 
L 193.455178 214.91565 
L 197.256808 208.261202 
L 200.885637 202.35532 
L 204.341664 197.135758 
L 207.797691 192.311404 
L 211.080917 188.094328 
L 214.364143 184.233927 
L 217.474567 180.905715 
L 220.584992 177.897621 
L 223.522615 175.35058 
L 226.460238 173.089075 
L 229.397861 171.113108 
L 232.162683 169.514212 
L 234.927504 168.168248 
L 237.692326 167.075217 
L 240.284346 166.280215 
L 242.876367 165.707517 
L 245.468387 165.357123 
L 248.060407 165.229033 
L 250.652428 165.323248 
L 253.244448 165.639767 
L 255.836469 166.17859 
L 258.428489 166.939717 
L 261.020509 167.923149 
L 263.785331 169.217171 
L 266.550153 170.764126 
L 269.314975 172.564014 
L 271.215789 173.948158 
L 271.215789 173.948158 
" clip-path="url(#frame0010_75d53e_p3ce835ee2b)" style="fill: none; stroke: #0000ff; stroke-width: 2.5; stroke-linecap: square"/>
   </g>
   <g id="frame0010_75d53e_line2d_36">
    <defs>
     <path id="frame0010_75d53e_m87dd0d17e5" d="M 0 5 
C 1.326016 5 2.597899 4.473168 3.535534 3.535534 
C 4.473168 2.597899 5 1.326016 5 0 
C 5 -1.326016 4.473168 -2.597899 3.535534 -3.535534 
C 2.597899 -4.473168 1.326016 -5 0 -5 
C -1.326016 -5 -2.597899 -4.473168 -3.535534 -3.535534 
C -4.473168 -2.597899 -5 -1.326016 -5 0 
C -5 1.326016 -4.473168 2.597899 -3.535534 3.535534 
C -2.597899 4.473168 -1.326016 5 0 5 
z
" style="stroke: #000000; stroke-opacity: 0.8"/>
    </defs>
    <g clip-path="url(#frame0010_75d53e_p3ce835ee2b)">
     <use xlink:href="#frame0010_75d53e_m87dd0d17e5" x="248.257895" y="165.228388" style="fill-opacity: 0.8; stroke: #000000; stroke-opacity: 0.8"/>
    </g>
   </g>
   <g id="frame0010_75d53e_patch_3">
    <path d="M 225.3 331.34 
L 225.3 16.556315 
" style="fill: none; stroke: #000000; stroke-width: 0.8; stroke-linejoin: miter; stroke-linecap: square"/>
   </g>
   <g id="frame0010_75d53e_patch_4">
    <path d="M 443.4 331.34 
L 443.4 16.556315 
" style="fill: none"/>
   </g>
   <g id="frame0010_75d53e_patch_5">
    <path d="M 7.2 173.948158 
L 443.4 173.948158 
" style="fill: none; stroke: #000000; stroke-width: 0.8; stroke-linejoin: miter; stroke-linecap: square"/>
   </g>
   <g id="frame0010_75d53e_patch_6">
    <path d="M 7.2 16.556315 
L 443.4 16.556315 
" style="fill: none"/>
   </g>
   <g id="frame0010_75d53e_line2d_37">
    <path clip-path="url(#frame0010_75d53e_p3ce835ee2b)" style="fill: none; stroke: #0000ff; stroke-width: 2"/>
   </g>
   <g id="frame0010_75d53e_line2d_38">
    <path clip-path="url(#frame0010_75d53e_p3ce835ee2b)" style="fill: none; stroke: #0000ff; stroke-width: 2"/>
   </g>
   <g id="frame0010_75d53e_line2d_39">
    <path d="M 271.215789 173.948158 
L 272.05382 163.295679 
" clip-path="url(#frame0010_75d53e_p3ce835ee2b)" style="fill: none; stroke: #0000ff; stroke-width: 2"/>
   </g>
   <g id="frame0010_75d53e_line2d_40">
    <path d="M 271.215789 173.948158 
L 261.191707 177.648884 
" clip-path="url(#frame0010_75d53e_p3ce835ee2b)" style="fill: none; stroke: #0000ff; stroke-width: 2"/>
   </g>
  </g>
 </g>
 <defs>
  <clipPath id="frame0010_75d53e_p3ce835ee2b">
   <rect x="7.2" y="16.556315" width="436.2" height="314.783685"/>
  </clipPath>
 </defs>
</svg>
