<?xml version="1.0" encoding="utf-8" standalone="no"?>
<!DOCTYPE svg PUBLIC "-//W3C//DTD SVG 1.1//EN"
  "http://www.w3.org/Graphics/SVG/1.1/DTD/svg11.dtd">
<svg xmlns:xlink="http://www.w3.org/1999/xlink" width="460.8pt" height="345.6pt" viewBox="0 0 460.8 345.6" xmlns="http://www.w3.org/2000/svg" version="1.1">
 <metadata>
  <rdf:RDF xmlns:dc="http://purl.org/dc/elements/1.1/" xmlns:cc="http://creativecommons.org/ns#" xmlns:rdf="http://www.w3.org/1999/02/22-rdf-syntax-ns#">
   <cc:Work>
    <dc:type rdf:resource="http://purl.org/dc/dcmitype/StillImage"/>
    <dc:date>2025-11-01T16:56:27.055122</dc:date>
    <dc:format>image/svg+xml</dc:format>
    <dc:creator>
     <cc:Agent>
      <dc:title>Matplotlib v3.9.1, https://matplotlib.org/</dc:title>
     </cc:Agent>
    </dc:creator>
   </cc:Work>
  </rdf:RDF>
 </metadata>
 <defs>
  <style type="text/css">*{stroke-linejoin: round; stroke-linecap: butt}</style>
 </defs>
 <g id="figure_1">
  <g id="patch_1">
   <path d="M 0 345.6 
L 460.8 345.6 
L 460.8 0 
L 0 0 
L 0 345.6 
z
" style="fill: none"/>
  </g>
  <g id="axes_1">
   <g id="patch_2">
    <path d="M 10.8 334.8 
L 447 334.8 
L 447 22.050394 
L 10.8 22.050394 
L 10.8 334.8 
z
" style="fill: none"/>
   </g>
   <g id="matplotlib.axis_1">
    <g id="text_1">
     <!-- $x$ -->
     <g transform="translate(433.141493 199.721451) scale(0.25 -0.25)">
      <defs>
       <path id="CMMI12-78" d="M 3034 2606 
C 2829 2567 2752 2414 2752 2293 
C 2752 2139 2874 2088 2963 2088 
C 3155 2088 3290 2254 3290 2427 
C 3290 2695 2982 2816 2714 2816 
C 2323 2816 2106 2433 2048 2312 
C 1901 2816 1504 2816 1389 2816 
C 736 2816 390 1980 390 1839 
C 390 1814 416 1782 461 1782 
C 512 1782 525 1820 538 1846 
C 755 2555 1184 2689 1370 2689 
C 1658 2689 1715 2420 1715 2267 
C 1715 2127 1677 1980 1600 1673 
L 1382 798 
C 1286 415 1101 64 762 64 
C 730 64 570 64 435 147 
C 666 192 717 383 717 460 
C 717 588 621 664 499 664 
C 346 664 179 530 179 326 
C 179 57 480 -64 755 -64 
C 1062 -64 1280 179 1414 441 
C 1517 64 1837 -64 2074 -64 
C 2726 -64 3072 773 3072 913 
C 3072 945 3046 971 3008 971 
C 2950 971 2944 939 2925 888 
C 2752 326 2381 64 2093 64 
C 1869 64 1747 230 1747 492 
C 1747 632 1773 734 1875 1156 
L 2099 2024 
C 2195 2408 2413 2689 2707 2689 
C 2720 2689 2899 2689 3034 2606 
z
" transform="scale(0.015625)"/>
      </defs>
      <use xlink:href="#CMMI12-78" transform="scale(0.996264)"/>
     </g>
    </g>
   </g>
   <g id="matplotlib.axis_2">
    <g id="text_2">
     <!-- $y$ -->
     <g transform="translate(213.008953 17.20586) scale(0.25 -0.25)">
      <defs>
       <path id="CMMI12-79" d="M 1683 -700 
C 1510 -939 1261 -1152 947 -1152 
C 870 -1152 563 -1152 467 -889 
C 486 -895 518 -895 531 -895 
C 723 -895 851 -729 851 -582 
C 851 -435 730 -384 634 -384 
C 531 -384 307 -458 307 -759 
C 307 -1071 582 -1286 947 -1286 
C 1587 -1286 2234 -700 2413 6 
L 3040 2485 
C 3046 2517 3059 2556 3059 2594 
C 3059 2689 2982 2753 2886 2753 
C 2829 2753 2694 2727 2643 2535 
L 2170 658 
C 2138 543 2138 530 2086 460 
C 1958 281 1747 64 1440 64 
C 1082 64 1050 415 1050 588 
C 1050 952 1222 1443 1395 1903 
C 1466 2088 1504 2178 1504 2305 
C 1504 2574 1312 2816 998 2816 
C 410 2816 173 1890 173 1839 
C 173 1814 198 1782 243 1782 
C 301 1782 307 1807 333 1897 
C 486 2433 730 2689 979 2689 
C 1037 2689 1146 2689 1146 2478 
C 1146 2312 1075 2127 979 1884 
C 666 1047 666 837 666 683 
C 666 77 1101 -64 1421 -64 
C 1606 -64 1837 -6 2061 230 
L 2067 224 
C 1971 -147 1907 -392 1683 -700 
z
" transform="scale(0.015625)"/>
      </defs>
      <use xlink:href="#CMMI12-79" transform="scale(0.996264)"/>
     </g>
    </g>
   </g>
   <g id="line2d_1">
    <defs>
     <path id="mc4f74b1a8d" d="M 3 0 
L -3 -3 
L -3 3 
z
" style="stroke: #000000; stroke-linejoin: miter"/>
    </defs>
    <g>
     <use xlink:href="#mc4f74b1a8d" x="447" y="178.425197" style="stroke: #000000; stroke-linejoin: miter"/>
    </g>
   </g>
   <g id="line2d_2">
    <defs>
     <path id="me2a48caf2f" d="M 0 -3 
L -3 3 
L 3 3 
z
" style="stroke: #000000; stroke-linejoin: miter"/>
    </defs>
    <g>
     <use xlink:href="#me2a48caf2f" x="228.9" y="22.050394" style="stroke: #000000; stroke-linejoin: miter"/>
    </g>
   </g>
   <g id="line2d_3">
    <path d="M 10.8 33.387208 
L 61.92967 63.129199 
L 92.181392 80.964938 
L 111.674579 92.700206 
L 124.883077 100.895729 
L 134.36337 107.026234 
L 141.3937 111.826386 
L 146.719707 115.720039 
L 150.873993 119.01881 
L 154.176117 121.907874 
L 156.945641 124.620104 
L 159.182564 127.108531 
L 161.099927 129.563651 
L 162.697729 131.948617 
L 164.082491 134.383542 
L 165.360733 137.077732 
L 166.532454 140.108123 
L 167.491136 143.183975 
L 168.343297 146.591526 
L 169.195458 150.958786 
L 169.941099 156.002385 
L 170.58022 161.768626 
L 171.219341 169.721366 
L 171.751941 179.17194 
L 172.284542 193.281666 
L 172.710623 210.929736 
L 173.136703 240.553679 
L 173.456264 280.65408 
L 173.726124 346.6 
M 175.484263 -1 
L 175.906227 34.586776 
L 176.438828 58.843655 
L 176.971429 73.275041 
L 177.610549 84.454818 
L 178.24967 92.068077 
L 178.995311 98.417095 
L 179.847473 103.698172 
L 180.806154 108.122324 
L 181.764835 111.542206 
L 182.830037 114.579756 
L 184.108278 117.524992 
L 185.49304 120.143095 
L 187.090842 122.672066 
L 188.901685 125.111438 
L 191.032088 127.593942 
L 193.482051 130.104547 
L 196.464615 132.834432 
L 200.0863 135.837727 
L 204.560147 139.250314 
L 210.312234 143.34373 
L 217.875165 148.434456 
L 228.420659 155.243353 
L 266.767912 179.766245 
L 272.83956 184.039806 
L 277.419927 187.52721 
L 281.041612 190.558921 
L 283.917656 193.241617 
L 286.367619 195.819347 
L 288.498022 198.383151 
L 290.308864 200.901767 
L 291.906667 203.489756 
L 293.397949 206.336759 
L 294.67619 209.234541 
L 295.847912 212.398708 
L 297.019634 216.227653 
L 298.084835 220.502472 
L 299.043516 225.243107 
L 300.002198 231.159035 
L 300.854359 237.79144 
L 301.70652 246.252104 
L 302.452161 255.777815 
L 303.197802 268.151997 
L 303.943443 284.701958 
L 304.582564 303.842207 
L 305.221685 329.944698 
L 305.538812 346.6 
M 315.946805 346.6 
L 316.512821 320.995349 
L 317.258462 296.988291 
L 318.004103 280.064893 
L 318.749744 267.730377 
L 319.601905 257.374336 
L 320.454066 249.732485 
L 321.306227 243.969619 
L 322.158388 239.548712 
L 323.11707 235.738122 
L 324.075751 232.831462 
L 325.034432 230.595385 
L 325.993114 228.867252 
L 327.058315 227.402674 
L 328.123516 226.307818 
L 329.295238 225.432542 
L 330.46696 224.825128 
L 331.745201 224.399987 
L 333.236484 224.146434 
L 334.940806 224.100274 
L 336.858168 224.280788 
L 339.095092 224.719986 
L 341.758095 225.473522 
L 345.06022 226.649989 
L 349.107985 228.336501 
L 354.327473 230.763672 
L 361.251282 234.245383 
L 370.731575 239.27917 
L 384.579194 246.904673 
L 406.628864 259.327643 
L 447 282.362316 
L 447 282.362316 
" clip-path="url(#pa593be9df5)" style="fill: none; stroke: #0072b2; stroke-width: 3; stroke-linecap: square"/>
   </g>
   <g id="line2d_4">
    <path d="M 10.79948 32.475083 
L 447.00052 282.675364 
L 447.00052 282.675364 
" clip-path="url(#pa593be9df5)" style="fill: none; stroke-dasharray: 11.1,4.8; stroke-dashoffset: 0; stroke: #dc5e8b; stroke-width: 3"/>
   </g>
   <g id="LineCollection_1">
    <path d="M 174.375 334.8 
L 174.375 22.050394 
" clip-path="url(#pa593be9df5)" style="fill: none; stroke-dasharray: 9.25,4; stroke-dashoffset: 0; stroke: #dc5e8b; stroke-width: 2.5"/>
   </g>
   <g id="LineCollection_2">
    <path d="M 310.6875 334.8 
L 310.6875 22.050394 
" clip-path="url(#pa593be9df5)" style="fill: none; stroke-dasharray: 11.1,4.8; stroke-dashoffset: 0; stroke: #dc5e8b; stroke-width: 3"/>
   </g>
   <g id="patch_3">
    <path d="M 228.9 334.8 
L 228.9 22.050394 
" style="fill: none; stroke: #000000; stroke-width: 0.8; stroke-linejoin: miter; stroke-linecap: square"/>
   </g>
   <g id="patch_4">
    <path d="M 447 334.8 
L 447 22.050394 
" style="fill: none"/>
   </g>
   <g id="patch_5">
    <path d="M 10.8 178.425197 
L 447 178.425197 
" style="fill: none; stroke: #000000; stroke-width: 0.8; stroke-linejoin: miter; stroke-linecap: square"/>
   </g>
   <g id="patch_6">
    <path d="M 10.8 22.050394 
L 447 22.050394 
" style="fill: none"/>
   </g>
  </g>
 </g>
 <defs>
  <clipPath id="pa593be9df5">
   <rect x="10.8" y="22.050394" width="436.2" height="312.749606"/>
  </clipPath>
 </defs>
</svg>
