<?xml version='1.0' encoding='ASCII' standalone='yes'?>
<svg xmlns="http://www.w3.org/2000/svg" xmlns:xlink="http://www.w3.org/1999/xlink" version="1.1" width="1152.0px" viewBox="0 0 1152.0 864.0000000000001" height="864.0000000000001px">
  <g>
    <g transform="translate(0, 0) scale(1 1) translate(0, 0) scale(1.25 1.25) "><metadata>
  <rdf:RDF xmlns:dc="http://purl.org/dc/elements/1.1/" xmlns:cc="http://creativecommons.org/ns#" xmlns:rdf="http://www.w3.org/1999/02/22-rdf-syntax-ns#">
   <cc:Work>
    <dc:type rdf:resource="http://purl.org/dc/dcmitype/StillImage"/>
    <dc:date>2025-11-01T16:48:21.046610</dc:date>
    <dc:format>image/svg+xml</dc:format>
    <dc:creator>
     <cc:Agent>
      <dc:title>Matplotlib v3.9.1, https://matplotlib.org/</dc:title>
     </cc:Agent>
    </dc:creator>
   </cc:Work>
  </rdf:RDF>
 </metadata>
 <defs>
  <style type="text/css">*{stroke-linejoin: round; stroke-linecap: butt}</style>
 </defs>
 <g id="figure_1">
  <g id="patch_1">
   <path d="M 0 345.6  L 460.8 345.6  L 460.8 0  L 0 0  L 0 345.6  z " style="fill: none"/>
  </g>
  <g id="axes_1">
   <g id="patch_2">
    <path d="M 10.8 334.8  L 447 334.8  L 447 24.264473  L 10.8 24.264473  L 10.8 334.8  z " style="fill: none"/>
   </g>
   <g id="matplotlib.axis_1">
    <g id="text_1">
     <!-- $x$ -->
     <g transform="translate(430.369782 204.287732) scale(0.3 -0.3)">
      <defs>
       <path id="CMMI12-78" d="M 3034 2606  C 2829 2567 2752 2414 2752 2293  C 2752 2139 2874 2088 2963 2088  C 3155 2088 3290 2254 3290 2427  C 3290 2695 2982 2816 2714 2816  C 2323 2816 2106 2433 2048 2312  C 1901 2816 1504 2816 1389 2816  C 736 2816 390 1980 390 1839  C 390 1814 416 1782 461 1782  C 512 1782 525 1820 538 1846  C 755 2555 1184 2689 1370 2689  C 1658 2689 1715 2420 1715 2267  C 1715 2127 1677 1980 1600 1673  L 1382 798  C 1286 415 1101 64 762 64  C 730 64 570 64 435 147  C 666 192 717 383 717 460  C 717 588 621 664 499 664  C 346 664 179 530 179 326  C 179 57 480 -64 755 -64  C 1062 -64 1280 179 1414 441  C 1517 64 1837 -64 2074 -64  C 2726 -64 3072 773 3072 913  C 3072 945 3046 971 3008 971  C 2950 971 2944 939 2925 888  C 2752 326 2381 64 2093 64  C 1869 64 1747 230 1747 492  C 1747 632 1773 734 1875 1156  L 2099 2024  C 2195 2408 2413 2689 2707 2689  C 2720 2689 2899 2689 3034 2606  z " transform="scale(0.015625)"/>
      </defs>
      <use xlink:href="#CMMI12-78" transform="scale(0.996264)"/>
     </g>
    </g>
   </g>
   <g id="matplotlib.axis_2">
    <g id="text_2">
     <!-- $y$ -->
     <g transform="translate(210.630756 18.451022) scale(0.3 -0.3)">
      <defs>
       <path id="CMMI12-79" d="M 1683 -700  C 1510 -939 1261 -1152 947 -1152  C 870 -1152 563 -1152 467 -889  C 486 -895 518 -895 531 -895  C 723 -895 851 -729 851 -582  C 851 -435 730 -384 634 -384  C 531 -384 307 -458 307 -759  C 307 -1071 582 -1286 947 -1286  C 1587 -1286 2234 -700 2413 6  L 3040 2485  C 3046 2517 3059 2556 3059 2594  C 3059 2689 2982 2753 2886 2753  C 2829 2753 2694 2727 2643 2535  L 2170 658  C 2138 543 2138 530 2086 460  C 1958 281 1747 64 1440 64  C 1082 64 1050 415 1050 588  C 1050 952 1222 1443 1395 1903  C 1466 2088 1504 2178 1504 2305  C 1504 2574 1312 2816 998 2816  C 410 2816 173 1890 173 1839  C 173 1814 198 1782 243 1782  C 301 1782 307 1807 333 1897  C 486 2433 730 2689 979 2689  C 1037 2689 1146 2689 1146 2478  C 1146 2312 1075 2127 979 1884  C 666 1047 666 837 666 683  C 666 77 1101 -64 1421 -64  C 1606 -64 1837 -6 2061 230  L 2067 224  C 1971 -147 1907 -392 1683 -700  z " transform="scale(0.015625)"/>
      </defs>
      <use xlink:href="#CMMI12-79" transform="scale(0.996264)"/>
     </g>
    </g>
   </g>
   <g id="line2d_1">
    <defs>
     <path id="m89cb651c84" d="M 3 0  L -3 -3  L -3 3  z " style="stroke: #000000; stroke-linejoin: miter"/>
    </defs>
    <g>
     <use xlink:href="#m89cb651c84" x="447" y="179.532236" style="stroke: #000000; stroke-linejoin: miter"/>
    </g>
   </g>
   <g id="line2d_2">
    <defs>
     <path id="mf59c2131cf" d="M 0 -3  L -3 3  L 3 3  z " style="stroke: #000000; stroke-linejoin: miter"/>
    </defs>
    <g>
     <use xlink:href="#mf59c2131cf" x="228.9" y="24.264473" style="stroke: #000000; stroke-linejoin: miter"/>
    </g>
   </g>
   <g id="line2d_3">
    <path d="M 10.8 288.363437  L 78.546813 250.026239  L 108.905055 233.078825  L 126.161319 223.681926  L 137.132894 217.945302  L 144.589304 214.282903  L 149.915311 211.899832  L 153.856557 210.364344  L 156.839121 209.421941  L 159.182564 208.89553  L 161.099927 208.681617  L 162.697729 208.727332  L 163.975971 208.978182  L 165.041172 209.394224  L 165.999853 209.993043  L 166.852015 210.772045  L 167.704176 211.875988  L 168.449817 213.21874  L 169.195458 215.072328  L 169.834579 217.258502  L 170.4737 220.282206  L 171.0063 223.78568  L 171.538901 228.720883  L 172.071502 236.080955  L 172.497582 245.101763  L 172.923663 259.564195  L 173.243223 277.679208  L 173.562784 310.194451  L 173.75487 346.6  M 174.344054 346.6  L 174.353881 -1  M 174.861509 -1  L 175.160586 73.712735  L 175.480147 108.151041  L 175.906227 131.588422  L 176.332308 144.714091  L 176.864908 154.684948  L 177.397509 161.032841  L 178.03663 166.093916  L 178.675751 169.540392  L 179.421392 172.338991  L 180.167033 174.305396  L 181.019194 175.893067  L 181.871355 177.007022  L 182.830037 177.872267  L 183.788718 178.447527  L 184.853919 178.843332  L 186.132161 179.075014  L 187.623443 179.106818  L 189.434286 178.904936  L 191.564689 178.436088  L 194.227692 177.614707  L 197.636337 176.315178  L 202.003663 174.39453  L 207.649231 171.653192  L 214.999121 167.823946  L 224.479414 162.621663  L 235.770549 156.165997  L 247.487766 149.212504  L 258.03326 142.702548  L 266.874432 136.991655  L 274.224322 131.984778  L 280.295971 127.58528  L 285.408938 123.610642  L 289.776264 119.936644  L 293.504469 116.516062  L 296.806593 113.186354  L 299.682637 109.976519  L 302.239121 106.801302  L 304.582564 103.540599  L 306.712967 100.197284  L 308.63033 96.788609  L 310.441172 93.121326  L 312.145495 89.158747  L 313.743297 84.864739  L 315.234579 80.206408  L 316.619341 75.157958  L 318.004103 69.210875  L 319.282344 62.687788  L 320.454066 55.576055  L 321.625788 47.052913  L 322.690989 37.705575  L 323.75619 26.349756  L 324.714872 13.862563  L 325.645757 -1  M 350.166223 -1  L 351.025348 11.112755  L 351.984029 21.954292  L 353.049231 31.51196  L 354.114432 39.099743  L 355.179634 45.192729  L 356.351355 50.571859  L 357.523077 54.879573  L 358.694799 58.353025  L 359.86652 61.167398  L 361.038242 63.454339  L 362.316484 65.465053  L 363.594725 67.067143  L 364.872967 68.337241  L 366.257729 69.407282  L 367.749011 70.269239  L 369.346813 70.92137  L 371.051136 71.36663  L 372.861978 71.611291  L 374.885861 71.661344  L 377.229304 71.485803  L 379.892308 71.049307  L 382.874872 70.331143  L 386.390037 69.251036  L 390.544322 67.735208  L 395.550769 65.66322  L 401.728938 62.8529  L 409.398388 59.108606  L 419.304762 54.011878  L 432.51326 46.9515  L 447 39.01491  L 447 39.01491  " clip-path="url(#p0764bf0bba)" style="fill: none; stroke: #0072b2; stroke-width: 3; stroke-linecap: square"/>
   </g>
   <g id="line2d_4">
    <path d="M 10.79792 288.220856  L 447.00208 39.790065  L 447.00208 39.790065  " clip-path="url(#p0764bf0bba)" style="fill: none; stroke-dasharray: 11.1,4.8; stroke-dashoffset: 0; stroke: #dc5e8b; stroke-width: 3"/>
   </g>
   <g id="LineCollection_1">
    <path d="M 337.95 346.6  L 337.95 -1  " clip-path="url(#p0764bf0bba)" style="fill: none; stroke-dasharray: 9.25,4; stroke-dashoffset: 0; stroke: #dc5e8b; stroke-width: 2.5"/>
   </g>
   <g id="LineCollection_2">
    <path d="M 174.375 346.6  L 174.375 -1  " clip-path="url(#p0764bf0bba)" style="fill: none; stroke-dasharray: 11.1,4.8; stroke-dashoffset: 0; stroke: #dc5e8b; stroke-width: 3"/>
   </g>
   <g id="patch_3">
    <path d="M 228.9 334.8  L 228.9 24.264473  " style="fill: none; stroke: #000000; stroke-width: 0.8; stroke-linejoin: miter; stroke-linecap: square"/>
   </g>
   <g id="patch_4">
    <path d="M 447 334.8  L 447 24.264473  " style="fill: none"/>
   </g>
   <g id="patch_5">
    <path d="M 10.8 179.532236  L 447 179.532236  " style="fill: none; stroke: #000000; stroke-width: 0.8; stroke-linejoin: miter; stroke-linecap: square"/>
   </g>
   <g id="patch_6">
    <path d="M 10.8 24.264473  L 447 24.264473  " style="fill: none"/>
   </g>
   <g id="text_3">
    <g id="patch_7">
     <path d="M 65.325 70.131476  L 83.990356 70.131476  Q 92.990356 70.131476 92.990356 61.131476  L 92.990356 34.56253  Q 92.990356 25.56253 83.990356 25.56253  L 65.325 25.56253  Q 56.325 25.56253 56.325 34.56253  L 56.325 61.131476  Q 56.325 70.131476 65.325 70.131476  z " style="fill: #ffffff; stroke: #000000; stroke-linejoin: miter"/>
    </g>
    <!-- A -->
    <g transform="translate(65.325 55.318026) scale(0.3 -0.3)">
     <defs>
      <path id="CMSS17-41" d="M 2272 4416  L 1722 4416  L 166 0  L 653 0  L 1101 1280  L 2816 1280  L 3270 0  L 3827 0  L 2272 4416  z M 2694 1637  L 1222 1637  C 1530 2528 1914 3638 1958 3925  L 1965 3925  C 2010 3663 2138 3281 2246 2956  L 2694 1637  z " transform="scale(0.015625)"/>
     </defs>
     <use xlink:href="#CMSS17-41" transform="scale(0.996264)"/>
    </g>
   </g>
  </g>
 </g>
 <defs>
  <clipPath id="p0764bf0bba">
   <rect x="10.8" y="24.264473" width="436.2" height="310.535527"/>
  </clipPath>
 </defs>
</g>
    <g transform="translate(576.0, 0) scale(1 1) translate(0, 0) scale(1.25 1.25) "><metadata>
  <rdf:RDF xmlns:dc="http://purl.org/dc/elements/1.1/" xmlns:cc="http://creativecommons.org/ns#" xmlns:rdf="http://www.w3.org/1999/02/22-rdf-syntax-ns#">
   <cc:Work>
    <dc:type rdf:resource="http://purl.org/dc/dcmitype/StillImage"/>
    <dc:date>2025-11-01T16:48:23.256809</dc:date>
    <dc:format>image/svg+xml</dc:format>
    <dc:creator>
     <cc:Agent>
      <dc:title>Matplotlib v3.9.1, https://matplotlib.org/</dc:title>
     </cc:Agent>
    </dc:creator>
   </cc:Work>
  </rdf:RDF>
 </metadata>
 <defs>
  <style type="text/css">*{stroke-linejoin: round; stroke-linecap: butt}</style>
 </defs>
 <g id="figure_1">
  <g id="patch_1">
   <path d="M 0 345.6  L 460.8 345.6  L 460.8 0  L 0 0  L 0 345.6  z " style="fill: none"/>
  </g>
  <g id="axes_1">
   <g id="patch_2">
    <path d="M 10.8 334.8  L 447 334.8  L 447 24.264473  L 10.8 24.264473  L 10.8 334.8  z " style="fill: none"/>
   </g>
   <g id="matplotlib.axis_1">
    <g id="text_1">
     <!-- $x$ -->
     <g transform="translate(430.369782 204.287732) scale(0.3 -0.3)">
      <defs>
       <path id="CMMI12-78" d="M 3034 2606  C 2829 2567 2752 2414 2752 2293  C 2752 2139 2874 2088 2963 2088  C 3155 2088 3290 2254 3290 2427  C 3290 2695 2982 2816 2714 2816  C 2323 2816 2106 2433 2048 2312  C 1901 2816 1504 2816 1389 2816  C 736 2816 390 1980 390 1839  C 390 1814 416 1782 461 1782  C 512 1782 525 1820 538 1846  C 755 2555 1184 2689 1370 2689  C 1658 2689 1715 2420 1715 2267  C 1715 2127 1677 1980 1600 1673  L 1382 798  C 1286 415 1101 64 762 64  C 730 64 570 64 435 147  C 666 192 717 383 717 460  C 717 588 621 664 499 664  C 346 664 179 530 179 326  C 179 57 480 -64 755 -64  C 1062 -64 1280 179 1414 441  C 1517 64 1837 -64 2074 -64  C 2726 -64 3072 773 3072 913  C 3072 945 3046 971 3008 971  C 2950 971 2944 939 2925 888  C 2752 326 2381 64 2093 64  C 1869 64 1747 230 1747 492  C 1747 632 1773 734 1875 1156  L 2099 2024  C 2195 2408 2413 2689 2707 2689  C 2720 2689 2899 2689 3034 2606  z " transform="scale(0.015625)"/>
      </defs>
      <use xlink:href="#CMMI12-78" transform="scale(0.996264)"/>
     </g>
    </g>
   </g>
   <g id="matplotlib.axis_2">
    <g id="text_2">
     <!-- $y$ -->
     <g transform="translate(210.630756 18.451022) scale(0.3 -0.3)">
      <defs>
       <path id="CMMI12-79" d="M 1683 -700  C 1510 -939 1261 -1152 947 -1152  C 870 -1152 563 -1152 467 -889  C 486 -895 518 -895 531 -895  C 723 -895 851 -729 851 -582  C 851 -435 730 -384 634 -384  C 531 -384 307 -458 307 -759  C 307 -1071 582 -1286 947 -1286  C 1587 -1286 2234 -700 2413 6  L 3040 2485  C 3046 2517 3059 2556 3059 2594  C 3059 2689 2982 2753 2886 2753  C 2829 2753 2694 2727 2643 2535  L 2170 658  C 2138 543 2138 530 2086 460  C 1958 281 1747 64 1440 64  C 1082 64 1050 415 1050 588  C 1050 952 1222 1443 1395 1903  C 1466 2088 1504 2178 1504 2305  C 1504 2574 1312 2816 998 2816  C 410 2816 173 1890 173 1839  C 173 1814 198 1782 243 1782  C 301 1782 307 1807 333 1897  C 486 2433 730 2689 979 2689  C 1037 2689 1146 2689 1146 2478  C 1146 2312 1075 2127 979 1884  C 666 1047 666 837 666 683  C 666 77 1101 -64 1421 -64  C 1606 -64 1837 -6 2061 230  L 2067 224  C 1971 -147 1907 -392 1683 -700  z " transform="scale(0.015625)"/>
      </defs>
      <use xlink:href="#CMMI12-79" transform="scale(0.996264)"/>
     </g>
    </g>
   </g>
   <g id="line2d_1">
    <defs>
     <path id="me2d16ec20b" d="M 3 0  L -3 -3  L -3 3  z " style="stroke: #000000; stroke-linejoin: miter"/>
    </defs>
    <g>
     <use xlink:href="#me2d16ec20b" x="447" y="179.532236" style="stroke: #000000; stroke-linejoin: miter"/>
    </g>
   </g>
   <g id="line2d_2">
    <defs>
     <path id="m7656c68c50" d="M 0 -3  L -3 3  L 3 3  z " style="stroke: #000000; stroke-linejoin: miter"/>
    </defs>
    <g>
     <use xlink:href="#m7656c68c50" x="228.9" y="24.264473" style="stroke: #000000; stroke-linejoin: miter"/>
    </g>
   </g>
   <g id="line2d_3">
    <path d="M 10.8 288.507204  L 53.088498 264.735791  L 76.842491 251.619905  L 92.287912 243.330445  L 103.259487 237.681867  L 111.461538 233.697634  L 117.852747 230.829496  L 122.965714 228.767819  L 127.22652 227.284465  L 130.741685 226.289498  L 133.724249 225.668753  L 136.280733 225.355007  L 138.517656 225.296391  L 140.541538 225.466204  L 142.352381 225.845292  L 143.950183 226.402399  L 145.441465 227.155129  L 146.826227 228.100812  L 148.104469 229.230961  L 149.382711 230.662119  L 150.554432 232.295866  L 151.726154 234.305769  L 152.897875 236.777267  L 154.069597 239.821349  L 155.134799 243.207768  L 156.2 247.332493  L 157.265201 252.387092  L 158.330403 258.629207  L 159.289084 265.551553  L 160.247766 274.072643  L 161.206447 284.678821  L 162.165128 298.055642  L 163.017289 313.063717  L 163.869451 332.04501  L 164.403594 346.6  M 184.587882 346.6  L 185.49304 322.283331  L 186.451722 302.091146  L 187.516923 284.44829  L 188.582125 270.450781  L 189.647326 259.123712  L 190.819048 248.956224  L 191.990769 240.595448  L 193.269011 233.02969  L 194.653773 226.2217  L 196.038535 220.512339  L 197.529817 215.303197  L 199.127619 210.553154  L 200.831941 206.214751  L 202.642784 202.238672  L 204.560147 198.576697  L 206.584029 195.183484  L 208.820952 191.868422  L 211.270916 188.640821  L 213.933919 185.497923  L 216.916484 182.320876  L 220.325128 179.023441  L 224.159853 175.629308  L 228.6337 171.977808  L 233.746667 168.097316  L 239.818315 163.77581  L 247.061685 158.903298  L 255.689817 153.375314  L 265.915751 147.093584  L 277.526447 140.226119  L 289.137143 133.613723  L 298.936996 128.275412  L 306.499927 124.394418  L 312.145495 121.733545  L 316.4063 119.959461  L 319.601905 118.852161  L 322.158388 118.189908  L 324.182271 117.885393  L 325.780073 117.851408  L 327.164835 118.037422  L 328.336557 118.418462  L 329.295238 118.944539  L 330.147399 119.635922  L 330.99956 120.618528  L 331.745201 121.811477  L 332.490842 123.448818  L 333.129963 125.362245  L 333.769084 127.974277  L 334.408205 131.663063  L 334.940806 136.054503  L 335.473407 142.467803  L 335.899487 150.112872  L 336.325568 161.898249  L 336.645128 175.894163  L 336.964689 199.088818  L 337.284249 244.728375  L 337.497289 311.095912  L 337.5565 346.6  M 337.997751 346.6  L 338.005613 -1  M 338.860815 -1  L 339.201612 27.166385  L 339.627692 46.006622  L 340.160293 59.208429  L 340.692894 67.163455  L 341.332015 73.273907  L 341.971136 77.324282  L 342.716777 80.551528  L 343.462418 82.788922  L 344.208059 84.390311  L 345.06022 85.698399  L 345.912381 86.620989  L 346.871062 87.335697  L 347.936264 87.844085  L 349.107985 88.155462  L 350.492747 88.285419  L 352.090549 88.209163  L 354.007912 87.895473  L 356.457875 87.255797  L 359.54696 86.199469  L 363.488205 84.597899  L 368.601172 82.264896  L 375.418462 78.897023  L 384.898755 73.95009  L 398.639853 66.509167  L 419.624322 54.870133  L 447 39.480714  L 447 39.480714  " clip-path="url(#pcc977917d3)" style="fill: none; stroke: #0072b2; stroke-width: 3; stroke-linecap: square"/>
   </g>
   <g id="line2d_4">
    <path d="M 10.79792 288.220856  L 447.00208 39.790065  L 447.00208 39.790065  " clip-path="url(#pcc977917d3)" style="fill: none; stroke-dasharray: 11.1,4.8; stroke-dashoffset: 0; stroke: #dc5e8b; stroke-width: 3"/>
   </g>
   <g id="LineCollection_1">
    <path d="M 337.95 346.6  L 337.95 -1  " clip-path="url(#pcc977917d3)" style="fill: none; stroke-dasharray: 11.1,4.8; stroke-dashoffset: 0; stroke: #dc5e8b; stroke-width: 3"/>
   </g>
   <g id="LineCollection_2">
    <path d="M 174.375 346.6  L 174.375 -1  " clip-path="url(#pcc977917d3)" style="fill: none; stroke-dasharray: 11.1,4.8; stroke-dashoffset: 0; stroke: #dc5e8b; stroke-width: 3"/>
   </g>
   <g id="patch_3">
    <path d="M 228.9 334.8  L 228.9 24.264473  " style="fill: none; stroke: #000000; stroke-width: 0.8; stroke-linejoin: miter; stroke-linecap: square"/>
   </g>
   <g id="patch_4">
    <path d="M 447 334.8  L 447 24.264473  " style="fill: none"/>
   </g>
   <g id="patch_5">
    <path d="M 10.8 179.532236  L 447 179.532236  " style="fill: none; stroke: #000000; stroke-width: 0.8; stroke-linejoin: miter; stroke-linecap: square"/>
   </g>
   <g id="patch_6">
    <path d="M 10.8 24.264473  L 447 24.264473  " style="fill: none"/>
   </g>
   <g id="text_3">
    <g id="patch_7">
     <path d="M 65.325 70.131476  L 84.0264 70.131476  Q 93.0264 70.131476 93.0264 61.131476  L 93.0264 34.56253  Q 93.0264 25.56253 84.0264 25.56253  L 65.325 25.56253  Q 56.325 25.56253 56.325 34.56253  L 56.325 61.131476  Q 56.325 70.131476 65.325 70.131476  z " style="fill: #ffffff; stroke: #000000; stroke-linejoin: miter"/>
    </g>
    <!-- B -->
    <g transform="translate(65.325 55.318026) scale(0.3 -0.3)">
     <defs>
      <path id="CMSS17-42" d="M 570 4416  L 570 0  L 2163 0  C 3034 0 3667 574 3667 1200  C 3667 1685 3251 2176 2502 2317  C 3334 2558 3501 3040 3501 3313  C 3501 3883 2874 4416 1997 4416  L 570 4416  z M 1088 2496  L 1088 4059  L 1824 4059  C 2483 4059 3002 3724 3002 3306  C 3002 2926 2592 2496 1766 2496  L 1088 2496  z M 1088 357  L 1088 2107  L 1939 2107  C 2630 2107 3162 1679 3162 1206  C 3162 772 2694 357 1984 357  L 1088 357  z " transform="scale(0.015625)"/>
     </defs>
     <use xlink:href="#CMSS17-42" transform="scale(0.996264)"/>
    </g>
   </g>
  </g>
 </g>
 <defs>
  <clipPath id="pcc977917d3">
   <rect x="10.8" y="24.264473" width="436.2" height="310.535527"/>
  </clipPath>
 </defs>
</g>
    <g transform="translate(0, 432.00000000000006) scale(1 1) translate(0, 0) scale(1.25 1.25) "><metadata>
  <rdf:RDF xmlns:dc="http://purl.org/dc/elements/1.1/" xmlns:cc="http://creativecommons.org/ns#" xmlns:rdf="http://www.w3.org/1999/02/22-rdf-syntax-ns#">
   <cc:Work>
    <dc:type rdf:resource="http://purl.org/dc/dcmitype/StillImage"/>
    <dc:date>2025-11-01T16:48:25.239685</dc:date>
    <dc:format>image/svg+xml</dc:format>
    <dc:creator>
     <cc:Agent>
      <dc:title>Matplotlib v3.9.1, https://matplotlib.org/</dc:title>
     </cc:Agent>
    </dc:creator>
   </cc:Work>
  </rdf:RDF>
 </metadata>
 <defs>
  <style type="text/css">*{stroke-linejoin: round; stroke-linecap: butt}</style>
 </defs>
 <g id="figure_1">
  <g id="patch_1">
   <path d="M 0 345.6  L 460.8 345.6  L 460.8 0  L 0 0  L 0 345.6  z " style="fill: none"/>
  </g>
  <g id="axes_1">
   <g id="patch_2">
    <path d="M 10.8 334.8  L 447 334.8  L 447 24.264473  L 10.8 24.264473  L 10.8 334.8  z " style="fill: none"/>
   </g>
   <g id="matplotlib.axis_1">
    <g id="text_1">
     <!-- $x$ -->
     <g transform="translate(430.369782 204.287732) scale(0.3 -0.3)">
      <defs>
       <path id="CMMI12-78" d="M 3034 2606  C 2829 2567 2752 2414 2752 2293  C 2752 2139 2874 2088 2963 2088  C 3155 2088 3290 2254 3290 2427  C 3290 2695 2982 2816 2714 2816  C 2323 2816 2106 2433 2048 2312  C 1901 2816 1504 2816 1389 2816  C 736 2816 390 1980 390 1839  C 390 1814 416 1782 461 1782  C 512 1782 525 1820 538 1846  C 755 2555 1184 2689 1370 2689  C 1658 2689 1715 2420 1715 2267  C 1715 2127 1677 1980 1600 1673  L 1382 798  C 1286 415 1101 64 762 64  C 730 64 570 64 435 147  C 666 192 717 383 717 460  C 717 588 621 664 499 664  C 346 664 179 530 179 326  C 179 57 480 -64 755 -64  C 1062 -64 1280 179 1414 441  C 1517 64 1837 -64 2074 -64  C 2726 -64 3072 773 3072 913  C 3072 945 3046 971 3008 971  C 2950 971 2944 939 2925 888  C 2752 326 2381 64 2093 64  C 1869 64 1747 230 1747 492  C 1747 632 1773 734 1875 1156  L 2099 2024  C 2195 2408 2413 2689 2707 2689  C 2720 2689 2899 2689 3034 2606  z " transform="scale(0.015625)"/>
      </defs>
      <use xlink:href="#CMMI12-78" transform="scale(0.996264)"/>
     </g>
    </g>
   </g>
   <g id="matplotlib.axis_2">
    <g id="text_2">
     <!-- $y$ -->
     <g transform="translate(210.630756 18.451022) scale(0.3 -0.3)">
      <defs>
       <path id="CMMI12-79" d="M 1683 -700  C 1510 -939 1261 -1152 947 -1152  C 870 -1152 563 -1152 467 -889  C 486 -895 518 -895 531 -895  C 723 -895 851 -729 851 -582  C 851 -435 730 -384 634 -384  C 531 -384 307 -458 307 -759  C 307 -1071 582 -1286 947 -1286  C 1587 -1286 2234 -700 2413 6  L 3040 2485  C 3046 2517 3059 2556 3059 2594  C 3059 2689 2982 2753 2886 2753  C 2829 2753 2694 2727 2643 2535  L 2170 658  C 2138 543 2138 530 2086 460  C 1958 281 1747 64 1440 64  C 1082 64 1050 415 1050 588  C 1050 952 1222 1443 1395 1903  C 1466 2088 1504 2178 1504 2305  C 1504 2574 1312 2816 998 2816  C 410 2816 173 1890 173 1839  C 173 1814 198 1782 243 1782  C 301 1782 307 1807 333 1897  C 486 2433 730 2689 979 2689  C 1037 2689 1146 2689 1146 2478  C 1146 2312 1075 2127 979 1884  C 666 1047 666 837 666 683  C 666 77 1101 -64 1421 -64  C 1606 -64 1837 -6 2061 230  L 2067 224  C 1971 -147 1907 -392 1683 -700  z " transform="scale(0.015625)"/>
      </defs>
      <use xlink:href="#CMMI12-79" transform="scale(0.996264)"/>
     </g>
    </g>
   </g>
   <g id="line2d_1">
    <defs>
     <path id="m145f24305d" d="M 3 0  L -3 -3  L -3 3  z " style="stroke: #000000; stroke-linejoin: miter"/>
    </defs>
    <g>
     <use xlink:href="#m145f24305d" x="447" y="179.532236" style="stroke: #000000; stroke-linejoin: miter"/>
    </g>
   </g>
   <g id="line2d_2">
    <defs>
     <path id="m3d7ba2aa28" d="M 0 -3  L -3 3  L 3 3  z " style="stroke: #000000; stroke-linejoin: miter"/>
    </defs>
    <g>
     <use xlink:href="#m3d7ba2aa28" x="228.9" y="24.264473" style="stroke: #000000; stroke-linejoin: miter"/>
    </g>
   </g>
   <g id="line2d_3">
    <path d="M 10.8 40.078782  L 53.195018 64.538344  L 76.949011 78.48097  L 92.500952 87.852016  L 103.579048 94.774213  L 111.887619 100.214932  L 118.491868 104.797303  L 123.817875 108.756733  L 128.185201 112.269469  L 131.913407 115.544155  L 135.109011 118.636643  L 137.985055 121.731779  L 140.435018 124.684404  L 142.671941 127.719782  L 144.695824 130.834256  L 146.613187 134.208424  L 148.317509 137.658881  L 149.915311 141.394633  L 151.406593 145.446391  L 152.791355 149.838695  L 154.176117 155.016401  L 155.454359 160.701191  L 156.626081 166.905914  L 157.797802 174.350831  L 158.863004 182.524916  L 159.928205 192.465125  L 160.886886 203.403633  L 161.845568 216.856665  L 162.804249 233.698087  L 163.65641 252.540512  L 164.508571 276.404504  L 165.360733 307.288767  L 166.181958 346.6  M 183.20523 346.6  L 184.001758 314.848789  L 184.853919 288.636998  L 185.812601 265.928655  L 186.771282 248.353426  L 187.729963 234.498915  L 188.795165 222.314981  L 189.860366 212.647512  L 190.925568 204.874045  L 192.097289 197.988487  L 193.269011 192.443948  L 194.440733 187.938961  L 195.612454 184.252471  L 196.890696 180.971447  L 198.168938 178.307648  L 199.447179 176.139731  L 200.831941 174.243621  L 202.216703 172.730162  L 203.601465 171.529449  L 205.092747 170.523801  L 206.690549 169.718315  L 208.394872 169.113245  L 210.205714 168.70526  L 212.229597 168.482116  L 214.46652 168.466206  L 216.916484 168.670963  L 219.686007 169.123759  L 222.881612 169.874121  L 226.609817 170.986206  L 230.977143 172.53239  L 236.09011 174.588005  L 242.161758 177.276705  L 249.511648 180.785471  L 258.352821 185.263437  L 268.791795 190.807481  L 280.402491 197.228102  L 291.693626 203.72156  L 301.067399 209.3584  L 308.204249 213.895848  L 313.636777 217.603282  L 317.791062 220.701701  L 320.986667 223.354177  L 323.54315 225.758851  L 325.567033 227.951831  L 327.271355 230.113031  L 328.762637 232.373602  L 330.040879 234.740771  L 331.106081 237.185839  L 332.064762 239.959519  L 332.916923 243.141201  L 333.662564 246.807742  L 334.301685 251.008048  L 334.940806 256.841069  L 335.473407 263.861032  L 335.899487 271.991431  L 336.325568 284.262138  L 336.645128 298.62205  L 336.964689 322.180702  L 337.163099 346.6  M 338.000562 346.6  L 338.008423 -1  M 338.36448 -1  L 338.669011 96.837188  L 338.988571 137.27047  L 339.414652 163.8572  L 339.840733 178.568595  L 340.373333 189.800851  L 341.012454 198.259327  L 341.651575 203.920426  L 342.397216 208.598508  L 343.249377 212.476813  L 344.208059 215.73281  L 345.27326 218.515754  L 346.444982 220.943892  L 347.829744 223.271959  L 349.427546 225.493158  L 351.238388 227.625601  L 353.475311 229.900675  L 356.138315 232.282786  L 359.44044 234.932411  L 363.701245 238.051869  L 369.240293 241.814975  L 376.590183 246.526311  L 386.816117 252.801965  L 401.728938 261.673042  L 424.737289 275.077745  L 447 287.909135  L 447 287.909135  " clip-path="url(#pd154a026bc)" style="fill: none; stroke: #0072b2; stroke-width: 3; stroke-linecap: square"/>
   </g>
   <g id="line2d_4">
    <path d="M 10.79792 39.790065  L 447.00208 288.220856  L 447.00208 288.220856  " clip-path="url(#pd154a026bc)" style="fill: none; stroke-dasharray: 11.1,4.8; stroke-dashoffset: 0; stroke: #dc5e8b; stroke-width: 3"/>
   </g>
   <g id="LineCollection_1">
    <path d="M 337.95 346.6  L 337.95 -1  " clip-path="url(#pd154a026bc)" style="fill: none; stroke-dasharray: 11.1,4.8; stroke-dashoffset: 0; stroke: #dc5e8b; stroke-width: 3"/>
   </g>
   <g id="LineCollection_2">
    <path d="M 174.375 346.6  L 174.375 -1  " clip-path="url(#pd154a026bc)" style="fill: none; stroke-dasharray: 11.1,4.8; stroke-dashoffset: 0; stroke: #dc5e8b; stroke-width: 3"/>
   </g>
   <g id="patch_3">
    <path d="M 228.9 334.8  L 228.9 24.264473  " style="fill: none; stroke: #000000; stroke-width: 0.8; stroke-linejoin: miter; stroke-linecap: square"/>
   </g>
   <g id="patch_4">
    <path d="M 447 334.8  L 447 24.264473  " style="fill: none"/>
   </g>
   <g id="patch_5">
    <path d="M 10.8 179.532236  L 447 179.532236  " style="fill: none; stroke: #000000; stroke-width: 0.8; stroke-linejoin: miter; stroke-linecap: square"/>
   </g>
   <g id="patch_6">
    <path d="M 10.8 24.264473  L 447 24.264473  " style="fill: none"/>
   </g>
   <g id="text_3">
    <g id="patch_7">
     <path d="M 65.325 70.131476  L 83.281725 70.131476  Q 92.281725 70.131476 92.281725 61.131476  L 92.281725 34.56253  Q 92.281725 25.56253 83.281725 25.56253  L 65.325 25.56253  Q 56.325 25.56253 56.325 34.56253  L 56.325 61.131476  Q 56.325 70.131476 65.325 70.131476  z " style="fill: #ffffff; stroke: #000000; stroke-linejoin: miter"/>
    </g>
    <!-- C -->
    <g transform="translate(65.325 55.318026) scale(0.3 -0.3)">
     <defs>
      <path id="CMSS17-43" d="M 3501 714  C 3072 427 2874 344 2355 344  C 1459 344 934 1303 934 2179  C 934 3112 1472 4032 2381 4032  C 2790 4032 3059 3918 3386 3715  L 3475 4217  C 3168 4370 2778 4440 2387 4440  C 1158 4440 397 3316 397 2179  C 397 927 1299 -64 2323 -64  C 2874 -64 3066 -19 3539 280  L 3501 714  z " transform="scale(0.015625)"/>
     </defs>
     <use xlink:href="#CMSS17-43" transform="scale(0.996264)"/>
    </g>
   </g>
  </g>
 </g>
 <defs>
  <clipPath id="pd154a026bc">
   <rect x="10.8" y="24.264473" width="436.2" height="310.535527"/>
  </clipPath>
 </defs>
</g>
    <g transform="translate(576.0, 432.00000000000006) scale(1 1) translate(0, 0) scale(1.25 1.25) "><metadata>
  <rdf:RDF xmlns:dc="http://purl.org/dc/elements/1.1/" xmlns:cc="http://creativecommons.org/ns#" xmlns:rdf="http://www.w3.org/1999/02/22-rdf-syntax-ns#">
   <cc:Work>
    <dc:type rdf:resource="http://purl.org/dc/dcmitype/StillImage"/>
    <dc:date>2025-11-01T16:48:27.348060</dc:date>
    <dc:format>image/svg+xml</dc:format>
    <dc:creator>
     <cc:Agent>
      <dc:title>Matplotlib v3.9.1, https://matplotlib.org/</dc:title>
     </cc:Agent>
    </dc:creator>
   </cc:Work>
  </rdf:RDF>
 </metadata>
 <defs>
  <style type="text/css">*{stroke-linejoin: round; stroke-linecap: butt}</style>
 </defs>
 <g id="figure_1">
  <g id="patch_1">
   <path d="M 0 345.6  L 460.8 345.6  L 460.8 0  L 0 0  L 0 345.6  z " style="fill: none"/>
  </g>
  <g id="axes_1">
   <g id="patch_2">
    <path d="M 10.8 334.8  L 447 334.8  L 447 24.264473  L 10.8 24.264473  L 10.8 334.8  z " style="fill: none"/>
   </g>
   <g id="matplotlib.axis_1">
    <g id="text_1">
     <!-- $x$ -->
     <g transform="translate(430.369782 204.287732) scale(0.3 -0.3)">
      <defs>
       <path id="CMMI12-78" d="M 3034 2606  C 2829 2567 2752 2414 2752 2293  C 2752 2139 2874 2088 2963 2088  C 3155 2088 3290 2254 3290 2427  C 3290 2695 2982 2816 2714 2816  C 2323 2816 2106 2433 2048 2312  C 1901 2816 1504 2816 1389 2816  C 736 2816 390 1980 390 1839  C 390 1814 416 1782 461 1782  C 512 1782 525 1820 538 1846  C 755 2555 1184 2689 1370 2689  C 1658 2689 1715 2420 1715 2267  C 1715 2127 1677 1980 1600 1673  L 1382 798  C 1286 415 1101 64 762 64  C 730 64 570 64 435 147  C 666 192 717 383 717 460  C 717 588 621 664 499 664  C 346 664 179 530 179 326  C 179 57 480 -64 755 -64  C 1062 -64 1280 179 1414 441  C 1517 64 1837 -64 2074 -64  C 2726 -64 3072 773 3072 913  C 3072 945 3046 971 3008 971  C 2950 971 2944 939 2925 888  C 2752 326 2381 64 2093 64  C 1869 64 1747 230 1747 492  C 1747 632 1773 734 1875 1156  L 2099 2024  C 2195 2408 2413 2689 2707 2689  C 2720 2689 2899 2689 3034 2606  z " transform="scale(0.015625)"/>
      </defs>
      <use xlink:href="#CMMI12-78" transform="scale(0.996264)"/>
     </g>
    </g>
   </g>
   <g id="matplotlib.axis_2">
    <g id="text_2">
     <!-- $y$ -->
     <g transform="translate(210.630756 18.451022) scale(0.3 -0.3)">
      <defs>
       <path id="CMMI12-79" d="M 1683 -700  C 1510 -939 1261 -1152 947 -1152  C 870 -1152 563 -1152 467 -889  C 486 -895 518 -895 531 -895  C 723 -895 851 -729 851 -582  C 851 -435 730 -384 634 -384  C 531 -384 307 -458 307 -759  C 307 -1071 582 -1286 947 -1286  C 1587 -1286 2234 -700 2413 6  L 3040 2485  C 3046 2517 3059 2556 3059 2594  C 3059 2689 2982 2753 2886 2753  C 2829 2753 2694 2727 2643 2535  L 2170 658  C 2138 543 2138 530 2086 460  C 1958 281 1747 64 1440 64  C 1082 64 1050 415 1050 588  C 1050 952 1222 1443 1395 1903  C 1466 2088 1504 2178 1504 2305  C 1504 2574 1312 2816 998 2816  C 410 2816 173 1890 173 1839  C 173 1814 198 1782 243 1782  C 301 1782 307 1807 333 1897  C 486 2433 730 2689 979 2689  C 1037 2689 1146 2689 1146 2478  C 1146 2312 1075 2127 979 1884  C 666 1047 666 837 666 683  C 666 77 1101 -64 1421 -64  C 1606 -64 1837 -6 2061 230  L 2067 224  C 1971 -147 1907 -392 1683 -700  z " transform="scale(0.015625)"/>
      </defs>
      <use xlink:href="#CMMI12-79" transform="scale(0.996264)"/>
     </g>
    </g>
   </g>
   <g id="line2d_1">
    <defs>
     <path id="m9e288b089f" d="M 3 0  L -3 -3  L -3 3  z " style="stroke: #000000; stroke-linejoin: miter"/>
    </defs>
    <g>
     <use xlink:href="#m9e288b089f" x="447" y="179.532236" style="stroke: #000000; stroke-linejoin: miter"/>
    </g>
   </g>
   <g id="line2d_2">
    <defs>
     <path id="m0f3fc593a1" d="M 0 -3  L -3 3  L 3 3  z " style="stroke: #000000; stroke-linejoin: miter"/>
    </defs>
    <g>
     <use xlink:href="#m0f3fc593a1" x="228.9" y="24.264473" style="stroke: #000000; stroke-linejoin: miter"/>
    </g>
   </g>
   <g id="line2d_3">
    <path d="M 10.8 319.560757  L 53.088498 295.789344  L 76.842491 282.673458  L 92.287912 274.383998  L 103.259487 268.73542  L 111.461538 264.751187  L 117.852747 261.883048  L 122.965714 259.821372  L 127.22652 258.338017  L 130.741685 257.34305  L 133.724249 256.722306  L 136.280733 256.40856  L 138.517656 256.349944  L 140.541538 256.519757  L 142.352381 256.898844  L 143.950183 257.455951  L 145.441465 258.208682  L 146.826227 259.154365  L 148.104469 260.284514  L 149.382711 261.715671  L 150.554432 263.349419  L 151.726154 265.359322  L 152.897875 267.830819  L 154.069597 270.874902  L 155.134799 274.261321  L 156.2 278.386046  L 157.265201 283.440645  L 158.330403 289.68276  L 159.289084 296.605106  L 160.247766 305.126196  L 161.206447 315.732374  L 162.165128 329.109194  L 163.017289 344.11727  L 163.140907 346.6  M 185.788276 346.6  L 186.664762 329.263276  L 187.729963 312.447504  L 188.795165 299.050243  L 189.966886 287.193994  L 191.138608 277.571352  L 192.41685 268.967758  L 193.695092 261.852518  L 195.079853 255.414944  L 196.464615 249.988854  L 197.955897 245.014966  L 199.5537 240.459052  L 201.258022 236.280135  L 203.068864 232.434714  L 204.986227 228.879623  L 207.11663 225.410504  L 209.353553 222.188169  L 211.803516 219.038507  L 214.57304 215.843427  L 217.662125 212.626112  L 221.177289 209.297265  L 225.118535 205.875832  L 229.698901 202.200461  L 235.024908 198.218637  L 241.309597 193.804498  L 248.766007 188.844403  L 257.7137 183.165304  L 268.259194 176.740217  L 279.97641 169.862659  L 291.267546 163.484759  L 300.641319 158.431666  L 307.778168 154.823057  L 313.104176 152.365874  L 317.151941 150.733484  L 320.241026 149.717525  L 322.690989 149.140707  L 324.608352 148.908816  L 326.206154 148.937222  L 327.484396 149.171258  L 328.549597 149.569799  L 329.508278 150.148456  L 330.36044 150.903994  L 331.212601 151.976178  L 331.958242 153.280242  L 332.703883 155.078316  L 333.343004 157.194496  L 333.982125 160.112093  L 334.514725 163.478293  L 335.047326 168.193354  L 335.579927 175.166584  L 336.006007 183.618273  L 336.432088 196.953649  L 336.751648 213.293778  L 337.071209 241.652526  L 337.284249 275.781928  L 337.504712 346.6  M 337.998453 346.6  L 338.006315 -1  M 338.650902 -1  L 338.882051 32.637407  L 339.308132 64.052776  L 339.734212 80.345814  L 340.266813 92.156938  L 340.799414 99.437308  L 341.438535 105.115004  L 342.077656 108.919806  L 342.823297 111.974714  L 343.568938 114.104277  L 344.314579 115.633751  L 345.16674 116.885557  L 346.018901 117.768845  L 346.977582 118.452025  L 348.042784 118.935428  L 349.214505 119.227127  L 350.599267 119.340539  L 352.30359 119.238318  L 354.327473 118.878706  L 356.777436 118.211087  L 359.86652 117.13211  L 363.914286 115.466181  L 369.133773 113.063981  L 376.164103 109.57036  L 385.963956 104.435694  L 400.131136 96.743764  L 421.967766 84.612702  L 447 70.534266  L 447 70.534266  " clip-path="url(#pbedd74db99)" style="fill: none; stroke: #0072b2; stroke-width: 3; stroke-linecap: square"/>
   </g>
   <g id="line2d_4">
    <path d="M 10.79792 319.274408  L 447.00208 70.843617  L 447.00208 70.843617  " clip-path="url(#pbedd74db99)" style="fill: none; stroke-dasharray: 11.1,4.8; stroke-dashoffset: 0; stroke: #dc5e8b; stroke-width: 3"/>
   </g>
   <g id="LineCollection_1">
    <path d="M 337.95 346.6  L 337.95 -1  " clip-path="url(#pbedd74db99)" style="fill: none; stroke-dasharray: 11.1,4.8; stroke-dashoffset: 0; stroke: #dc5e8b; stroke-width: 3"/>
   </g>
   <g id="LineCollection_2">
    <path d="M 174.375 346.6  L 174.375 -1  " clip-path="url(#pbedd74db99)" style="fill: none; stroke-dasharray: 11.1,4.8; stroke-dashoffset: 0; stroke: #dc5e8b; stroke-width: 3"/>
   </g>
   <g id="patch_3">
    <path d="M 228.9 334.8  L 228.9 24.264473  " style="fill: none; stroke: #000000; stroke-width: 0.8; stroke-linejoin: miter; stroke-linecap: square"/>
   </g>
   <g id="patch_4">
    <path d="M 447 334.8  L 447 24.264473  " style="fill: none"/>
   </g>
   <g id="patch_5">
    <path d="M 10.8 179.532236  L 447 179.532236  " style="fill: none; stroke: #000000; stroke-width: 0.8; stroke-linejoin: miter; stroke-linecap: square"/>
   </g>
   <g id="patch_6">
    <path d="M 10.8 24.264473  L 447 24.264473  " style="fill: none"/>
   </g>
   <g id="text_3">
    <g id="patch_7">
     <path d="M 65.325 70.131476  L 85.587851 70.131476  Q 94.587851 70.131476 94.587851 61.131476  L 94.587851 34.56253  Q 94.587851 25.56253 85.587851 25.56253  L 65.325 25.56253  Q 56.325 25.56253 56.325 34.56253  L 56.325 61.131476  Q 56.325 70.131476 65.325 70.131476  z " style="fill: #ffffff; stroke: #000000; stroke-linejoin: miter"/>
    </g>
    <!-- D -->
    <g transform="translate(65.325 55.318026) scale(0.3 -0.3)">
     <defs>
      <path id="CMSS17-44" d="M 570 4416  L 570 0  L 2144 0  C 3194 0 4000 980 4000 2170  C 4000 3398 3194 4416 2144 4416  L 570 4416  z M 1094 357  L 1094 4059  L 2003 4059  C 2861 4059 3475 3277 3475 2170  C 3475 1107 2867 357 2003 357  L 1094 357  z " transform="scale(0.015625)"/>
     </defs>
     <use xlink:href="#CMSS17-44" transform="scale(0.996264)"/>
    </g>
   </g>
  </g>
 </g>
 <defs>
  <clipPath id="pbedd74db99">
   <rect x="10.8" y="24.264473" width="436.2" height="310.535527"/>
  </clipPath>
 </defs>
</g>
  </g>
</svg>
