<?xml version="1.0" encoding="utf-8" standalone="no"?>
<!DOCTYPE svg PUBLIC "-//W3C//DTD SVG 1.1//EN"
  "http://www.w3.org/Graphics/SVG/1.1/DTD/svg11.dtd">
<svg xmlns:xlink="http://www.w3.org/1999/xlink" viewBox="0 0 460.8 345.6" xmlns="http://www.w3.org/2000/svg" version="1.1" class="graph-inline-svg" role="img" aria-label="Tilpasset figur">
 <metadata>
  <rdf:RDF xmlns:dc="http://purl.org/dc/elements/1.1/" xmlns:cc="http://creativecommons.org/ns#" xmlns:rdf="http://www.w3.org/1999/02/22-rdf-syntax-ns#">
   <cc:Work>
    <dc:type rdf:resource="http://purl.org/dc/dcmitype/StillImage"/>
    <dc:date>2026-03-27T23:10:35.666157</dc:date>
    <dc:format>image/svg+xml</dc:format>
    <dc:creator>
     <cc:Agent>
      <dc:title>Matplotlib v3.10.8, https://matplotlib.org/</dc:title>
     </cc:Agent>
    </dc:creator>
   </cc:Work>
  </rdf:RDF>
 </metadata>
 <defs>
  <style type="text/css">*{stroke-linejoin: round; stroke-linecap: butt}</style>
 </defs>
 <g id="g0f0010_5a81e7_figure_1">
  <g id="g0f0010_5a81e7_patch_1">
   <path d="M 0 345.6 
L 460.8 345.6 
L 460.8 0 
L 0 0 
L 0 345.6 
z
" style="fill: none"/>
  </g>
  <g id="g0f0010_5a81e7_axes_1">
   <g id="g0f0010_5a81e7_patch_2">
    <path d="M 10.8 334.8 
L 447 334.8 
L 447 20.016315 
L 10.8 20.016315 
L 10.8 334.8 
z
" style="fill: none"/>
   </g>
   <g id="g0f0010_5a81e7_matplotlib.axis_1">
    <g id="g0f0010_5a81e7_xtick_1">
     <g id="g0f0010_5a81e7_line2d_1">
      <path d="M 47.15 334.8 
L 47.15 20.016315 
" clip-path="url(#g0f0010_5a81e7_p3c0a29bde6)" style="fill: none; stroke-dasharray: 2.96,1.28; stroke-dashoffset: 0; stroke: #b0b0b0; stroke-opacity: 0.6; stroke-width: 0.8"/>
     </g>
     <g id="g0f0010_5a81e7_line2d_2">
      <defs>
       <path id="g0f0010_5a81e7_mdca0b83c91" d="M 0 0 
L 0 3.5 
" style="stroke: #000000; stroke-width: 0.8"/>
      </defs>
      <g>
       <use xlink:href="#g0f0010_5a81e7_mdca0b83c91" x="47.15" y="177.408158" style="stroke: #000000; stroke-width: 0.8"/>
      </g>
     </g>
     <g id="g0f0010_5a81e7_text_1">
      <!-- $\mathdefault{−5}$ -->
      <g transform="translate(34.832209 198.245154) scale(0.2 -0.2)">
       <defs>
        <path id="g0f0010_5a81e7_CMSY10-0" d="M 4218 1472 
C 4326 1472 4442 1472 4442 1600 
C 4442 1728 4326 1728 4218 1728 
L 755 1728 
C 646 1728 531 1728 531 1600 
C 531 1472 646 1472 755 1472 
L 4218 1472 
z
" transform="scale(0.015625)"/>
        <path id="g0f0010_5a81e7_CMR17-35" d="M 730 3692 
C 794 3666 1056 3584 1325 3584 
C 1920 3584 2246 3911 2432 4100 
C 2432 4157 2432 4192 2394 4192 
C 2387 4192 2374 4192 2323 4163 
C 2099 4058 1837 3973 1517 3973 
C 1325 3973 1037 3999 723 4139 
C 653 4171 640 4171 634 4171 
C 602 4171 595 4164 595 4037 
L 595 2203 
C 595 2089 595 2057 659 2057 
C 691 2057 704 2070 736 2114 
C 941 2401 1222 2522 1542 2522 
C 1766 2522 2246 2382 2246 1289 
C 2246 1085 2246 715 2054 421 
C 1894 159 1645 25 1370 25 
C 947 25 518 320 403 814 
C 429 807 480 795 506 795 
C 589 795 749 840 749 1038 
C 749 1210 627 1280 506 1280 
C 358 1280 262 1190 262 1011 
C 262 454 704 -128 1382 -128 
C 2042 -128 2669 440 2669 1264 
C 2669 2030 2170 2624 1549 2624 
C 1222 2624 947 2503 730 2274 
L 730 3692 
z
" transform="scale(0.015625)"/>
       </defs>
       <use xlink:href="#g0f0010_5a81e7_CMSY10-0" transform="scale(0.996264)"/>
       <use xlink:href="#g0f0010_5a81e7_CMR17-35" transform="translate(77.487468 0) scale(0.996264)"/>
      </g>
     </g>
    </g>
    <g id="g0f0010_5a81e7_xtick_2">
     <g id="g0f0010_5a81e7_line2d_3">
      <path d="M 83.5 334.8 
L 83.5 20.016315 
" clip-path="url(#g0f0010_5a81e7_p3c0a29bde6)" style="fill: none; stroke-dasharray: 2.96,1.28; stroke-dashoffset: 0; stroke: #b0b0b0; stroke-opacity: 0.6; stroke-width: 0.8"/>
     </g>
     <g id="g0f0010_5a81e7_line2d_4">
      <g>
       <use xlink:href="#g0f0010_5a81e7_mdca0b83c91" x="83.5" y="177.408158" style="stroke: #000000; stroke-width: 0.8"/>
      </g>
     </g>
     <g id="g0f0010_5a81e7_text_2">
      <!-- $\mathdefault{−4}$ -->
      <g transform="translate(71.182209 198.245154) scale(0.2 -0.2)">
       <defs>
        <path id="g0f0010_5a81e7_CMR17-34" d="M 2150 4122 
C 2150 4256 2144 4256 2029 4256 
L 128 1254 
L 128 1088 
L 1779 1088 
L 1779 457 
C 1779 224 1766 160 1318 160 
L 1197 160 
L 1197 0 
C 1402 0 1747 0 1965 0 
C 2182 0 2528 0 2733 0 
L 2733 160 
L 2611 160 
C 2163 160 2150 224 2150 457 
L 2150 1088 
L 2803 1088 
L 2803 1254 
L 2150 1254 
L 2150 4122 
z
M 1798 3703 
L 1798 1254 
L 256 1254 
L 1798 3703 
z
" transform="scale(0.015625)"/>
       </defs>
       <use xlink:href="#g0f0010_5a81e7_CMSY10-0" transform="scale(0.996264)"/>
       <use xlink:href="#g0f0010_5a81e7_CMR17-34" transform="translate(77.487468 0) scale(0.996264)"/>
      </g>
     </g>
    </g>
    <g id="g0f0010_5a81e7_xtick_3">
     <g id="g0f0010_5a81e7_line2d_5">
      <path d="M 119.85 334.8 
L 119.85 20.016315 
" clip-path="url(#g0f0010_5a81e7_p3c0a29bde6)" style="fill: none; stroke-dasharray: 2.96,1.28; stroke-dashoffset: 0; stroke: #b0b0b0; stroke-opacity: 0.6; stroke-width: 0.8"/>
     </g>
     <g id="g0f0010_5a81e7_line2d_6">
      <g>
       <use xlink:href="#g0f0010_5a81e7_mdca0b83c91" x="119.85" y="177.408158" style="stroke: #000000; stroke-width: 0.8"/>
      </g>
     </g>
     <g id="g0f0010_5a81e7_text_3">
      <!-- $\mathdefault{−3}$ -->
      <g transform="translate(107.532209 198.245154) scale(0.2 -0.2)">
       <defs>
        <path id="g0f0010_5a81e7_CMR17-33" d="M 1414 2157 
C 1984 2157 2234 1662 2234 1090 
C 2234 320 1824 25 1453 25 
C 1114 25 563 194 390 693 
C 422 680 454 680 486 680 
C 640 680 755 782 755 948 
C 755 1133 614 1216 486 1216 
C 378 1216 211 1165 211 926 
C 211 335 787 -128 1466 -128 
C 2176 -128 2720 430 2720 1085 
C 2720 1707 2208 2157 1600 2227 
C 2086 2328 2554 2756 2554 3329 
C 2554 3820 2048 4179 1472 4179 
C 890 4179 378 3829 378 3329 
C 378 3110 544 3072 627 3072 
C 762 3072 877 3155 877 3321 
C 877 3486 762 3569 627 3569 
C 602 3569 570 3569 544 3557 
C 730 3959 1235 4032 1459 4032 
C 1683 4032 2106 3925 2106 3320 
C 2106 3143 2080 2828 1862 2550 
C 1670 2304 1453 2304 1242 2284 
C 1210 2284 1062 2269 1037 2269 
C 992 2263 966 2257 966 2208 
C 966 2163 973 2157 1101 2157 
L 1414 2157 
z
" transform="scale(0.015625)"/>
       </defs>
       <use xlink:href="#g0f0010_5a81e7_CMSY10-0" transform="scale(0.996264)"/>
       <use xlink:href="#g0f0010_5a81e7_CMR17-33" transform="translate(77.487468 0) scale(0.996264)"/>
      </g>
     </g>
    </g>
    <g id="g0f0010_5a81e7_xtick_4">
     <g id="g0f0010_5a81e7_line2d_7">
      <path d="M 156.2 334.8 
L 156.2 20.016315 
" clip-path="url(#g0f0010_5a81e7_p3c0a29bde6)" style="fill: none; stroke-dasharray: 2.96,1.28; stroke-dashoffset: 0; stroke: #b0b0b0; stroke-opacity: 0.6; stroke-width: 0.8"/>
     </g>
     <g id="g0f0010_5a81e7_line2d_8">
      <g>
       <use xlink:href="#g0f0010_5a81e7_mdca0b83c91" x="156.2" y="177.408158" style="stroke: #000000; stroke-width: 0.8"/>
      </g>
     </g>
     <g id="g0f0010_5a81e7_text_4">
      <!-- $\mathdefault{−2}$ -->
      <g transform="translate(143.882209 198.245154) scale(0.2 -0.2)">
       <defs>
        <path id="g0f0010_5a81e7_CMR17-32" d="M 2669 989 
L 2554 989 
C 2490 536 2438 459 2413 420 
C 2381 369 1920 369 1830 369 
L 602 369 
C 832 619 1280 1072 1824 1597 
C 2214 1967 2669 2402 2669 3035 
C 2669 3790 2067 4224 1395 4224 
C 691 4224 262 3604 262 3030 
C 262 2780 448 2748 525 2748 
C 589 2748 781 2787 781 3010 
C 781 3207 614 3264 525 3264 
C 486 3264 448 3258 422 3245 
C 544 3790 915 4058 1306 4058 
C 1862 4058 2227 3617 2227 3035 
C 2227 2479 1901 2000 1536 1584 
L 262 146 
L 262 0 
L 2515 0 
L 2669 989 
z
" transform="scale(0.015625)"/>
       </defs>
       <use xlink:href="#g0f0010_5a81e7_CMSY10-0" transform="scale(0.996264)"/>
       <use xlink:href="#g0f0010_5a81e7_CMR17-32" transform="translate(77.487468 0) scale(0.996264)"/>
      </g>
     </g>
    </g>
    <g id="g0f0010_5a81e7_xtick_5">
     <g id="g0f0010_5a81e7_line2d_9">
      <path d="M 192.55 334.8 
L 192.55 20.016315 
" clip-path="url(#g0f0010_5a81e7_p3c0a29bde6)" style="fill: none; stroke-dasharray: 2.96,1.28; stroke-dashoffset: 0; stroke: #b0b0b0; stroke-opacity: 0.6; stroke-width: 0.8"/>
     </g>
     <g id="g0f0010_5a81e7_line2d_10">
      <g>
       <use xlink:href="#g0f0010_5a81e7_mdca0b83c91" x="192.55" y="177.408158" style="stroke: #000000; stroke-width: 0.8"/>
      </g>
     </g>
     <g id="g0f0010_5a81e7_text_5">
      <!-- $\mathdefault{−1}$ -->
      <g transform="translate(180.232209 198.245154) scale(0.2 -0.2)">
       <defs>
        <path id="g0f0010_5a81e7_CMR17-31" d="M 1702 4058 
C 1702 4192 1696 4192 1606 4192 
C 1357 3916 979 3827 621 3827 
C 602 3827 570 3827 563 3808 
C 557 3795 557 3782 557 3648 
C 755 3648 1088 3686 1344 3839 
L 1344 461 
C 1344 236 1331 160 781 160 
L 589 160 
L 589 0 
C 896 0 1216 0 1523 0 
C 1830 0 2150 0 2458 0 
L 2458 160 
L 2266 160 
C 1715 160 1702 230 1702 458 
L 1702 4058 
z
" transform="scale(0.015625)"/>
       </defs>
       <use xlink:href="#g0f0010_5a81e7_CMSY10-0" transform="scale(0.996264)"/>
       <use xlink:href="#g0f0010_5a81e7_CMR17-31" transform="translate(77.487468 0) scale(0.996264)"/>
      </g>
     </g>
    </g>
    <g id="g0f0010_5a81e7_xtick_6">
     <g id="g0f0010_5a81e7_line2d_11">
      <path d="M 265.25 334.8 
L 265.25 20.016315 
" clip-path="url(#g0f0010_5a81e7_p3c0a29bde6)" style="fill: none; stroke-dasharray: 2.96,1.28; stroke-dashoffset: 0; stroke: #b0b0b0; stroke-opacity: 0.6; stroke-width: 0.8"/>
     </g>
     <g id="g0f0010_5a81e7_line2d_12">
      <g>
       <use xlink:href="#g0f0010_5a81e7_mdca0b83c91" x="265.25" y="177.408158" style="stroke: #000000; stroke-width: 0.8"/>
      </g>
     </g>
     <g id="g0f0010_5a81e7_text_6">
      <!-- $\mathdefault{1}$ -->
      <g transform="translate(260.680952 198.245154) scale(0.2 -0.2)">
       <use xlink:href="#g0f0010_5a81e7_CMR17-31" transform="scale(0.996264)"/>
      </g>
     </g>
    </g>
    <g id="g0f0010_5a81e7_xtick_7">
     <g id="g0f0010_5a81e7_line2d_13">
      <path d="M 301.6 334.8 
L 301.6 20.016315 
" clip-path="url(#g0f0010_5a81e7_p3c0a29bde6)" style="fill: none; stroke-dasharray: 2.96,1.28; stroke-dashoffset: 0; stroke: #b0b0b0; stroke-opacity: 0.6; stroke-width: 0.8"/>
     </g>
     <g id="g0f0010_5a81e7_line2d_14">
      <g>
       <use xlink:href="#g0f0010_5a81e7_mdca0b83c91" x="301.6" y="177.408158" style="stroke: #000000; stroke-width: 0.8"/>
      </g>
     </g>
     <g id="g0f0010_5a81e7_text_7">
      <!-- $\mathdefault{2}$ -->
      <g transform="translate(297.030952 198.245154) scale(0.2 -0.2)">
       <use xlink:href="#g0f0010_5a81e7_CMR17-32" transform="scale(0.996264)"/>
      </g>
     </g>
    </g>
    <g id="g0f0010_5a81e7_xtick_8">
     <g id="g0f0010_5a81e7_line2d_15">
      <path d="M 337.95 334.8 
L 337.95 20.016315 
" clip-path="url(#g0f0010_5a81e7_p3c0a29bde6)" style="fill: none; stroke-dasharray: 2.96,1.28; stroke-dashoffset: 0; stroke: #b0b0b0; stroke-opacity: 0.6; stroke-width: 0.8"/>
     </g>
     <g id="g0f0010_5a81e7_line2d_16">
      <g>
       <use xlink:href="#g0f0010_5a81e7_mdca0b83c91" x="337.95" y="177.408158" style="stroke: #000000; stroke-width: 0.8"/>
      </g>
     </g>
     <g id="g0f0010_5a81e7_text_8">
      <!-- $\mathdefault{3}$ -->
      <g transform="translate(333.380952 198.245154) scale(0.2 -0.2)">
       <use xlink:href="#g0f0010_5a81e7_CMR17-33" transform="scale(0.996264)"/>
      </g>
     </g>
    </g>
    <g id="g0f0010_5a81e7_xtick_9">
     <g id="g0f0010_5a81e7_line2d_17">
      <path d="M 374.3 334.8 
L 374.3 20.016315 
" clip-path="url(#g0f0010_5a81e7_p3c0a29bde6)" style="fill: none; stroke-dasharray: 2.96,1.28; stroke-dashoffset: 0; stroke: #b0b0b0; stroke-opacity: 0.6; stroke-width: 0.8"/>
     </g>
     <g id="g0f0010_5a81e7_line2d_18">
      <g>
       <use xlink:href="#g0f0010_5a81e7_mdca0b83c91" x="374.3" y="177.408158" style="stroke: #000000; stroke-width: 0.8"/>
      </g>
     </g>
     <g id="g0f0010_5a81e7_text_9">
      <!-- $\mathdefault{4}$ -->
      <g transform="translate(369.730952 198.245154) scale(0.2 -0.2)">
       <use xlink:href="#g0f0010_5a81e7_CMR17-34" transform="scale(0.996264)"/>
      </g>
     </g>
    </g>
    <g id="g0f0010_5a81e7_xtick_10">
     <g id="g0f0010_5a81e7_line2d_19">
      <path d="M 410.65 334.8 
L 410.65 20.016315 
" clip-path="url(#g0f0010_5a81e7_p3c0a29bde6)" style="fill: none; stroke-dasharray: 2.96,1.28; stroke-dashoffset: 0; stroke: #b0b0b0; stroke-opacity: 0.6; stroke-width: 0.8"/>
     </g>
     <g id="g0f0010_5a81e7_line2d_20">
      <g>
       <use xlink:href="#g0f0010_5a81e7_mdca0b83c91" x="410.65" y="177.408158" style="stroke: #000000; stroke-width: 0.8"/>
      </g>
     </g>
     <g id="g0f0010_5a81e7_text_10">
      <!-- $\mathdefault{5}$ -->
      <g transform="translate(406.080952 198.245154) scale(0.2 -0.2)">
       <use xlink:href="#g0f0010_5a81e7_CMR17-35" transform="scale(0.996264)"/>
      </g>
     </g>
    </g>
    <g id="g0f0010_5a81e7_text_11">
     <!-- $x$ -->
     <g transform="translate(435.913188 219.957785) scale(0.2 -0.2)">
      <defs>
       <path id="g0f0010_5a81e7_CMMI12-78" d="M 3034 2606 
C 2829 2567 2752 2414 2752 2293 
C 2752 2139 2874 2088 2963 2088 
C 3155 2088 3290 2254 3290 2427 
C 3290 2695 2982 2816 2714 2816 
C 2323 2816 2106 2433 2048 2312 
C 1901 2816 1504 2816 1389 2816 
C 736 2816 390 1980 390 1839 
C 390 1814 416 1782 461 1782 
C 512 1782 525 1820 538 1846 
C 755 2555 1184 2689 1370 2689 
C 1658 2689 1715 2420 1715 2267 
C 1715 2127 1677 1980 1600 1673 
L 1382 798 
C 1286 415 1101 64 762 64 
C 730 64 570 64 435 147 
C 666 192 717 383 717 460 
C 717 588 621 664 499 664 
C 346 664 179 530 179 326 
C 179 57 480 -64 755 -64 
C 1062 -64 1280 179 1414 441 
C 1517 64 1837 -64 2074 -64 
C 2726 -64 3072 773 3072 913 
C 3072 945 3046 971 3008 971 
C 2950 971 2944 939 2925 888 
C 2752 326 2381 64 2093 64 
C 1869 64 1747 230 1747 492 
C 1747 632 1773 734 1875 1156 
L 2099 2024 
C 2195 2408 2413 2689 2707 2689 
C 2720 2689 2899 2689 3034 2606 
z
" transform="scale(0.015625)"/>
      </defs>
      <use xlink:href="#g0f0010_5a81e7_CMMI12-78" transform="scale(0.996264)"/>
     </g>
    </g>
   </g>
   <g id="g0f0010_5a81e7_matplotlib.axis_2">
    <g id="g0f0010_5a81e7_ytick_1">
     <g id="g0f0010_5a81e7_line2d_21">
      <path d="M 10.8 308.568026 
L 447 308.568026 
" clip-path="url(#g0f0010_5a81e7_p3c0a29bde6)" style="fill: none; stroke-dasharray: 2.96,1.28; stroke-dashoffset: 0; stroke: #b0b0b0; stroke-opacity: 0.6; stroke-width: 0.8"/>
     </g>
     <g id="g0f0010_5a81e7_line2d_22">
      <defs>
       <path id="g0f0010_5a81e7_m52de1852d8" d="M 0 0 
L -3.5 0 
" style="stroke: #000000; stroke-width: 0.8"/>
      </defs>
      <g>
       <use xlink:href="#g0f0010_5a81e7_m52de1852d8" x="228.9" y="308.568026" style="stroke: #000000; stroke-width: 0.8"/>
      </g>
     </g>
     <g id="g0f0010_5a81e7_text_12">
      <!-- $\mathdefault{−5}$ -->
      <g transform="translate(197.264417 315.486525) scale(0.2 -0.2)">
       <use xlink:href="#g0f0010_5a81e7_CMSY10-0" transform="scale(0.996264)"/>
       <use xlink:href="#g0f0010_5a81e7_CMR17-35" transform="translate(77.487468 0) scale(0.996264)"/>
      </g>
     </g>
    </g>
    <g id="g0f0010_5a81e7_ytick_2">
     <g id="g0f0010_5a81e7_line2d_23">
      <path d="M 10.8 282.336053 
L 447 282.336053 
" clip-path="url(#g0f0010_5a81e7_p3c0a29bde6)" style="fill: none; stroke-dasharray: 2.96,1.28; stroke-dashoffset: 0; stroke: #b0b0b0; stroke-opacity: 0.6; stroke-width: 0.8"/>
     </g>
     <g id="g0f0010_5a81e7_line2d_24">
      <g>
       <use xlink:href="#g0f0010_5a81e7_m52de1852d8" x="228.9" y="282.336053" style="stroke: #000000; stroke-width: 0.8"/>
      </g>
     </g>
     <g id="g0f0010_5a81e7_text_13">
      <!-- $\mathdefault{−4}$ -->
      <g transform="translate(197.264417 289.254551) scale(0.2 -0.2)">
       <use xlink:href="#g0f0010_5a81e7_CMSY10-0" transform="scale(0.996264)"/>
       <use xlink:href="#g0f0010_5a81e7_CMR17-34" transform="translate(77.487468 0) scale(0.996264)"/>
      </g>
     </g>
    </g>
    <g id="g0f0010_5a81e7_ytick_3">
     <g id="g0f0010_5a81e7_line2d_25">
      <path d="M 10.8 256.104079 
L 447 256.104079 
" clip-path="url(#g0f0010_5a81e7_p3c0a29bde6)" style="fill: none; stroke-dasharray: 2.96,1.28; stroke-dashoffset: 0; stroke: #b0b0b0; stroke-opacity: 0.6; stroke-width: 0.8"/>
     </g>
     <g id="g0f0010_5a81e7_line2d_26">
      <g>
       <use xlink:href="#g0f0010_5a81e7_m52de1852d8" x="228.9" y="256.104079" style="stroke: #000000; stroke-width: 0.8"/>
      </g>
     </g>
     <g id="g0f0010_5a81e7_text_14">
      <!-- $\mathdefault{−3}$ -->
      <g transform="translate(197.264417 263.022577) scale(0.2 -0.2)">
       <use xlink:href="#g0f0010_5a81e7_CMSY10-0" transform="scale(0.996264)"/>
       <use xlink:href="#g0f0010_5a81e7_CMR17-33" transform="translate(77.487468 0) scale(0.996264)"/>
      </g>
     </g>
    </g>
    <g id="g0f0010_5a81e7_ytick_4">
     <g id="g0f0010_5a81e7_line2d_27">
      <path d="M 10.8 229.872105 
L 447 229.872105 
" clip-path="url(#g0f0010_5a81e7_p3c0a29bde6)" style="fill: none; stroke-dasharray: 2.96,1.28; stroke-dashoffset: 0; stroke: #b0b0b0; stroke-opacity: 0.6; stroke-width: 0.8"/>
     </g>
     <g id="g0f0010_5a81e7_line2d_28">
      <g>
       <use xlink:href="#g0f0010_5a81e7_m52de1852d8" x="228.9" y="229.872105" style="stroke: #000000; stroke-width: 0.8"/>
      </g>
     </g>
     <g id="g0f0010_5a81e7_text_15">
      <!-- $\mathdefault{−2}$ -->
      <g transform="translate(197.264417 236.790603) scale(0.2 -0.2)">
       <use xlink:href="#g0f0010_5a81e7_CMSY10-0" transform="scale(0.996264)"/>
       <use xlink:href="#g0f0010_5a81e7_CMR17-32" transform="translate(77.487468 0) scale(0.996264)"/>
      </g>
     </g>
    </g>
    <g id="g0f0010_5a81e7_ytick_5">
     <g id="g0f0010_5a81e7_line2d_29">
      <path d="M 10.8 203.640131 
L 447 203.640131 
" clip-path="url(#g0f0010_5a81e7_p3c0a29bde6)" style="fill: none; stroke-dasharray: 2.96,1.28; stroke-dashoffset: 0; stroke: #b0b0b0; stroke-opacity: 0.6; stroke-width: 0.8"/>
     </g>
     <g id="g0f0010_5a81e7_line2d_30">
      <g>
       <use xlink:href="#g0f0010_5a81e7_m52de1852d8" x="228.9" y="203.640131" style="stroke: #000000; stroke-width: 0.8"/>
      </g>
     </g>
     <g id="g0f0010_5a81e7_text_16">
      <!-- $\mathdefault{−1}$ -->
      <g transform="translate(197.264417 210.55863) scale(0.2 -0.2)">
       <use xlink:href="#g0f0010_5a81e7_CMSY10-0" transform="scale(0.996264)"/>
       <use xlink:href="#g0f0010_5a81e7_CMR17-31" transform="translate(77.487468 0) scale(0.996264)"/>
      </g>
     </g>
    </g>
    <g id="g0f0010_5a81e7_ytick_6">
     <g id="g0f0010_5a81e7_line2d_31">
      <path d="M 10.8 151.176184 
L 447 151.176184 
" clip-path="url(#g0f0010_5a81e7_p3c0a29bde6)" style="fill: none; stroke-dasharray: 2.96,1.28; stroke-dashoffset: 0; stroke: #b0b0b0; stroke-opacity: 0.6; stroke-width: 0.8"/>
     </g>
     <g id="g0f0010_5a81e7_line2d_32">
      <g>
       <use xlink:href="#g0f0010_5a81e7_m52de1852d8" x="228.9" y="151.176184" style="stroke: #000000; stroke-width: 0.8"/>
      </g>
     </g>
     <g id="g0f0010_5a81e7_text_17">
      <!-- $\mathdefault{1}$ -->
      <g transform="translate(212.761905 158.094682) scale(0.2 -0.2)">
       <use xlink:href="#g0f0010_5a81e7_CMR17-31" transform="scale(0.996264)"/>
      </g>
     </g>
    </g>
    <g id="g0f0010_5a81e7_ytick_7">
     <g id="g0f0010_5a81e7_line2d_33">
      <path d="M 10.8 124.94421 
L 447 124.94421 
" clip-path="url(#g0f0010_5a81e7_p3c0a29bde6)" style="fill: none; stroke-dasharray: 2.96,1.28; stroke-dashoffset: 0; stroke: #b0b0b0; stroke-opacity: 0.6; stroke-width: 0.8"/>
     </g>
     <g id="g0f0010_5a81e7_line2d_34">
      <g>
       <use xlink:href="#g0f0010_5a81e7_m52de1852d8" x="228.9" y="124.94421" style="stroke: #000000; stroke-width: 0.8"/>
      </g>
     </g>
     <g id="g0f0010_5a81e7_text_18">
      <!-- $\mathdefault{2}$ -->
      <g transform="translate(212.761905 131.862709) scale(0.2 -0.2)">
       <use xlink:href="#g0f0010_5a81e7_CMR17-32" transform="scale(0.996264)"/>
      </g>
     </g>
    </g>
    <g id="g0f0010_5a81e7_ytick_8">
     <g id="g0f0010_5a81e7_line2d_35">
      <path d="M 10.8 98.712236 
L 447 98.712236 
" clip-path="url(#g0f0010_5a81e7_p3c0a29bde6)" style="fill: none; stroke-dasharray: 2.96,1.28; stroke-dashoffset: 0; stroke: #b0b0b0; stroke-opacity: 0.6; stroke-width: 0.8"/>
     </g>
     <g id="g0f0010_5a81e7_line2d_36">
      <g>
       <use xlink:href="#g0f0010_5a81e7_m52de1852d8" x="228.9" y="98.712236" style="stroke: #000000; stroke-width: 0.8"/>
      </g>
     </g>
     <g id="g0f0010_5a81e7_text_19">
      <!-- $\mathdefault{3}$ -->
      <g transform="translate(212.761905 105.630735) scale(0.2 -0.2)">
       <use xlink:href="#g0f0010_5a81e7_CMR17-33" transform="scale(0.996264)"/>
      </g>
     </g>
    </g>
    <g id="g0f0010_5a81e7_ytick_9">
     <g id="g0f0010_5a81e7_line2d_37">
      <path d="M 10.8 72.480263 
L 447 72.480263 
" clip-path="url(#g0f0010_5a81e7_p3c0a29bde6)" style="fill: none; stroke-dasharray: 2.96,1.28; stroke-dashoffset: 0; stroke: #b0b0b0; stroke-opacity: 0.6; stroke-width: 0.8"/>
     </g>
     <g id="g0f0010_5a81e7_line2d_38">
      <g>
       <use xlink:href="#g0f0010_5a81e7_m52de1852d8" x="228.9" y="72.480263" style="stroke: #000000; stroke-width: 0.8"/>
      </g>
     </g>
     <g id="g0f0010_5a81e7_text_20">
      <!-- $\mathdefault{4}$ -->
      <g transform="translate(212.761905 79.398761) scale(0.2 -0.2)">
       <use xlink:href="#g0f0010_5a81e7_CMR17-34" transform="scale(0.996264)"/>
      </g>
     </g>
    </g>
    <g id="g0f0010_5a81e7_ytick_10">
     <g id="g0f0010_5a81e7_line2d_39">
      <path d="M 10.8 46.248289 
L 447 46.248289 
" clip-path="url(#g0f0010_5a81e7_p3c0a29bde6)" style="fill: none; stroke-dasharray: 2.96,1.28; stroke-dashoffset: 0; stroke: #b0b0b0; stroke-opacity: 0.6; stroke-width: 0.8"/>
     </g>
     <g id="g0f0010_5a81e7_line2d_40">
      <g>
       <use xlink:href="#g0f0010_5a81e7_m52de1852d8" x="228.9" y="46.248289" style="stroke: #000000; stroke-width: 0.8"/>
      </g>
     </g>
     <g id="g0f0010_5a81e7_text_21">
      <!-- $\mathdefault{5}$ -->
      <g transform="translate(212.761905 53.166787) scale(0.2 -0.2)">
       <use xlink:href="#g0f0010_5a81e7_CMR17-35" transform="scale(0.996264)"/>
      </g>
     </g>
    </g>
    <g id="g0f0010_5a81e7_text_22">
     <!-- $y$ -->
     <g transform="translate(183.751583 16.140682) scale(0.2 -0.2)">
      <defs>
       <path id="g0f0010_5a81e7_CMMI12-79" d="M 1683 -700 
C 1510 -939 1261 -1152 947 -1152 
C 870 -1152 563 -1152 467 -889 
C 486 -895 518 -895 531 -895 
C 723 -895 851 -729 851 -582 
C 851 -435 730 -384 634 -384 
C 531 -384 307 -458 307 -759 
C 307 -1071 582 -1286 947 -1286 
C 1587 -1286 2234 -700 2413 6 
L 3040 2485 
C 3046 2517 3059 2556 3059 2594 
C 3059 2689 2982 2753 2886 2753 
C 2829 2753 2694 2727 2643 2535 
L 2170 658 
C 2138 543 2138 530 2086 460 
C 1958 281 1747 64 1440 64 
C 1082 64 1050 415 1050 588 
C 1050 952 1222 1443 1395 1903 
C 1466 2088 1504 2178 1504 2305 
C 1504 2574 1312 2816 998 2816 
C 410 2816 173 1890 173 1839 
C 173 1814 198 1782 243 1782 
C 301 1782 307 1807 333 1897 
C 486 2433 730 2689 979 2689 
C 1037 2689 1146 2689 1146 2478 
C 1146 2312 1075 2127 979 1884 
C 666 1047 666 837 666 683 
C 666 77 1101 -64 1421 -64 
C 1606 -64 1837 -6 2061 230 
L 2067 224 
C 1971 -147 1907 -392 1683 -700 
z
" transform="scale(0.015625)"/>
      </defs>
      <use xlink:href="#g0f0010_5a81e7_CMMI12-79" transform="scale(0.996264)"/>
     </g>
    </g>
   </g>
   <g id="g0f0010_5a81e7_line2d_41">
    <defs>
     <path id="g0f0010_5a81e7_ma9632feea8" d="M 3 0 
L -3 -3 
L -3 3 
z
" style="stroke: #000000; stroke-linejoin: miter"/>
    </defs>
    <g>
     <use xlink:href="#g0f0010_5a81e7_ma9632feea8" x="447" y="177.408158" style="stroke: #000000; stroke-linejoin: miter"/>
    </g>
   </g>
   <g id="g0f0010_5a81e7_line2d_42">
    <defs>
     <path id="g0f0010_5a81e7_me2656b0ab6" d="M 0 -3 
L -3 3 
L 3 3 
z
" style="stroke: #000000; stroke-linejoin: miter"/>
    </defs>
    <g>
     <use xlink:href="#g0f0010_5a81e7_me2656b0ab6" x="228.9" y="20.016315" style="stroke: #000000; stroke-linejoin: miter"/>
    </g>
   </g>
   <g id="g0f0010_5a81e7_line2d_43">
    <path d="M 10.8 163.332791 
L 13.569017 160.136381 
L 16.018531 157.640159 
L 18.255045 155.673085 
L 20.305182 154.158053 
L 22.248819 152.994348 
L 24.085955 152.150651 
L 25.843216 151.584816 
L 27.547226 151.266451 
L 29.224611 151.17732 
L 30.901996 151.311455 
L 32.579381 151.667713 
L 34.310016 152.264865 
L 36.093902 153.11874 
L 37.957663 154.260432 
L 39.927925 155.731514 
L 42.057938 157.607553 
L 44.374327 159.95513 
L 46.930342 162.872446 
L 49.85911 166.564333 
L 53.480132 171.50619 
L 60.615675 181.734102 
L 65.062077 187.871966 
L 68.257096 191.917567 
L 70.972862 195.009233 
L 73.395752 197.438309 
L 75.60564 199.344888 
L 77.655777 200.824539 
L 79.572789 201.939156 
L 81.3833 202.741668 
L 83.14056 203.280425 
L 84.844571 203.572093 
L 86.521956 203.634752 
L 88.199341 203.474182 
L 89.903351 203.083906 
L 91.633986 202.456717 
L 93.417872 201.572783 
L 95.308259 200.38245 
L 97.305146 198.855668 
L 99.435158 196.94253 
L 101.778172 194.529673 
L 104.387438 191.510166 
L 107.396081 187.672569 
L 111.176854 182.465728 
L 123.504303 165.196061 
L 126.486321 161.568031 
L 129.068962 158.766466 
L 131.385351 156.571892 
L 133.515363 154.851437 
L 135.512251 153.519168 
L 137.376012 152.535362 
L 139.159897 151.838369 
L 140.890533 151.397354 
L 142.594543 151.193362 
L 144.271928 151.21745 
L 145.949313 151.464462 
L 147.653324 151.941482 
L 149.410584 152.667633 
L 151.24772 153.673746 
L 153.164732 154.98174 
L 155.214869 156.655968 
L 157.424757 158.755359 
L 159.847647 161.372359 
L 162.590038 164.675094 
L 165.811683 168.918629 
L 170.204834 175.106576 
L 178.69826 187.125006 
L 181.99978 191.366945 
L 184.768797 194.57589 
L 187.218312 197.085221 
L 189.454825 199.065711 
L 191.531588 200.612024 
L 193.475224 201.785396 
L 195.31236 202.638617 
L 197.069621 203.213821 
L 198.773631 203.54143 
L 200.451016 203.639732 
L 202.128401 203.514764 
L 203.805786 203.167587 
L 205.536422 202.579634 
L 207.320308 201.734974 
L 209.184069 200.602523 
L 211.154331 199.140675 
L 213.257718 197.298954 
L 215.547482 194.992442 
L 218.103498 192.090338 
L 221.00564 188.447183 
L 224.600037 183.556559 
L 230.990075 174.398197 
L 235.889105 167.567564 
L 239.190624 163.336642 
L 241.959641 160.139816 
L 244.409156 157.643159 
L 246.645669 155.67564 
L 248.695807 154.160166 
L 250.639443 152.996017 
L 252.476579 152.151883 
L 254.23384 151.585619 
L 255.93785 151.266829 
L 257.615235 151.177278 
L 259.29262 151.310992 
L 260.970005 151.666834 
L 262.700641 152.263565 
L 264.484527 153.117017 
L 266.348288 154.258286 
L 268.31855 155.728945 
L 270.448563 157.60456 
L 272.764951 159.951723 
L 275.320967 162.868648 
L 278.249734 166.560179 
L 281.870756 171.501744 
L 288.979674 181.691694 
L 293.452701 187.867782 
L 296.64772 191.913765 
L 299.363487 195.00585 
L 301.786376 197.435362 
L 303.996264 199.342386 
L 306.046402 200.822482 
L 307.963413 201.937539 
L 309.773924 202.740484 
L 311.531185 203.279671 
L 313.235195 203.571765 
L 314.91258 203.634844 
L 316.589965 203.474694 
L 318.293975 203.084841 
L 320.024611 202.458072 
L 321.808497 201.574558 
L 323.698883 200.384652 
L 325.69577 198.858295 
L 327.825783 196.945575 
L 330.168797 194.53313 
L 332.778063 191.514013 
L 335.786706 187.676768 
L 339.567478 182.470205 
L 351.894928 165.2001 
L 354.876946 161.571669 
L 357.459586 158.769676 
L 359.775975 156.574664 
L 361.905988 154.853767 
L 363.902875 153.521054 
L 365.793261 152.524623 
L 367.577147 151.830829 
L 369.307782 151.392987 
L 371.011793 151.192158 
L 372.689178 151.219371 
L 374.366563 151.46949 
L 376.070573 151.949623 
L 377.827834 152.678909 
L 379.66497 153.688188 
L 381.581981 154.999326 
L 383.632119 156.6767 
L 385.842007 158.779185 
L 388.264897 161.399173 
L 391.007288 164.704713 
L 394.255558 168.987064 
L 398.675334 175.216891 
L 407.035634 187.049332 
L 410.36378 191.330528 
L 413.132796 194.543362 
L 415.582311 197.056764 
L 417.818824 199.041425 
L 419.895587 200.591941 
L 421.839224 201.769485 
L 423.67636 202.626817 
L 425.43362 203.206067 
L 427.13763 203.537669 
L 428.815016 203.639934 
L 430.492401 203.518927 
L 432.169786 203.175676 
L 433.900421 202.591701 
L 435.684307 201.751026 
L 437.548068 200.622573 
L 439.51833 199.164722 
L 441.621718 197.326955 
L 443.911481 195.024321 
L 446.440872 192.157739 
L 447 191.483524 
L 447 191.483524 
" clip-path="url(#g0f0010_5a81e7_p3c0a29bde6)" style="fill: none; stroke: #0072b2; stroke-width: 2.5; stroke-linecap: square"/>
   </g>
   <g id="g0f0010_5a81e7_patch_3">
    <path d="M 228.9 334.8 
L 228.9 20.016315 
" style="fill: none; stroke: #000000; stroke-width: 0.8; stroke-linejoin: miter; stroke-linecap: square"/>
   </g>
   <g id="g0f0010_5a81e7_patch_4">
    <path d="M 447 334.8 
L 447 20.016315 
" style="fill: none"/>
   </g>
   <g id="g0f0010_5a81e7_patch_5">
    <path d="M 10.8 177.408158 
L 447 177.408158 
" style="fill: none; stroke: #000000; stroke-width: 0.8; stroke-linejoin: miter; stroke-linecap: square"/>
   </g>
   <g id="g0f0010_5a81e7_patch_6">
    <path d="M 10.8 20.016315 
L 447 20.016315 
" style="fill: none"/>
   </g>
  </g>
 </g>
 <defs>
  <clipPath id="g0f0010_5a81e7_p3c0a29bde6">
   <rect x="10.8" y="20.016315" width="436.2" height="314.783685"/>
  </clipPath>
 </defs>
</svg>
