<?xml version="1.0" encoding="utf-8" standalone="no"?>
<!DOCTYPE svg PUBLIC "-//W3C//DTD SVG 1.1//EN"
  "http://www.w3.org/Graphics/SVG/1.1/DTD/svg11.dtd">
<svg xmlns:xlink="http://www.w3.org/1999/xlink" viewBox="0 0 460.8 345.6" xmlns="http://www.w3.org/2000/svg" version="1.1" class="graph-inline-svg" role="img" aria-label="Tilpasset figur">
 <metadata>
  <rdf:RDF xmlns:dc="http://purl.org/dc/elements/1.1/" xmlns:cc="http://creativecommons.org/ns#" xmlns:rdf="http://www.w3.org/1999/02/22-rdf-syntax-ns#">
   <cc:Work>
    <dc:type rdf:resource="http://purl.org/dc/dcmitype/StillImage"/>
    <dc:date>2026-03-27T23:10:36.142666</dc:date>
    <dc:format>image/svg+xml</dc:format>
    <dc:creator>
     <cc:Agent>
      <dc:title>Matplotlib v3.10.8, https://matplotlib.org/</dc:title>
     </cc:Agent>
    </dc:creator>
   </cc:Work>
  </rdf:RDF>
 </metadata>
 <defs>
  <style type="text/css">*{stroke-linejoin: round; stroke-linecap: butt}</style>
 </defs>
 <g id="g0f0014_625939_figure_1">
  <g id="g0f0014_625939_patch_1">
   <path d="M 0 345.6 
L 460.8 345.6 
L 460.8 0 
L 0 0 
L 0 345.6 
z
" style="fill: none"/>
  </g>
  <g id="g0f0014_625939_axes_1">
   <g id="g0f0014_625939_patch_2">
    <path d="M 10.8 334.8 
L 447 334.8 
L 447 20.016315 
L 10.8 20.016315 
L 10.8 334.8 
z
" style="fill: none"/>
   </g>
   <g id="g0f0014_625939_matplotlib.axis_1">
    <g id="g0f0014_625939_xtick_1">
     <g id="g0f0014_625939_line2d_1">
      <path d="M 47.15 334.8 
L 47.15 20.016315 
" clip-path="url(#g0f0014_625939_p01d23c6ad7)" style="fill: none; stroke-dasharray: 2.96,1.28; stroke-dashoffset: 0; stroke: #b0b0b0; stroke-opacity: 0.6; stroke-width: 0.8"/>
     </g>
     <g id="g0f0014_625939_line2d_2">
      <defs>
       <path id="g0f0014_625939_m98cb29c72c" d="M 0 0 
L 0 3.5 
" style="stroke: #000000; stroke-width: 0.8"/>
      </defs>
      <g>
       <use xlink:href="#g0f0014_625939_m98cb29c72c" x="47.15" y="177.408158" style="stroke: #000000; stroke-width: 0.8"/>
      </g>
     </g>
     <g id="g0f0014_625939_text_1">
      <!-- $\mathdefault{−5}$ -->
      <g transform="translate(34.832209 198.245154) scale(0.2 -0.2)">
       <defs>
        <path id="g0f0014_625939_CMSY10-0" d="M 4218 1472 
C 4326 1472 4442 1472 4442 1600 
C 4442 1728 4326 1728 4218 1728 
L 755 1728 
C 646 1728 531 1728 531 1600 
C 531 1472 646 1472 755 1472 
L 4218 1472 
z
" transform="scale(0.015625)"/>
        <path id="g0f0014_625939_CMR17-35" d="M 730 3692 
C 794 3666 1056 3584 1325 3584 
C 1920 3584 2246 3911 2432 4100 
C 2432 4157 2432 4192 2394 4192 
C 2387 4192 2374 4192 2323 4163 
C 2099 4058 1837 3973 1517 3973 
C 1325 3973 1037 3999 723 4139 
C 653 4171 640 4171 634 4171 
C 602 4171 595 4164 595 4037 
L 595 2203 
C 595 2089 595 2057 659 2057 
C 691 2057 704 2070 736 2114 
C 941 2401 1222 2522 1542 2522 
C 1766 2522 2246 2382 2246 1289 
C 2246 1085 2246 715 2054 421 
C 1894 159 1645 25 1370 25 
C 947 25 518 320 403 814 
C 429 807 480 795 506 795 
C 589 795 749 840 749 1038 
C 749 1210 627 1280 506 1280 
C 358 1280 262 1190 262 1011 
C 262 454 704 -128 1382 -128 
C 2042 -128 2669 440 2669 1264 
C 2669 2030 2170 2624 1549 2624 
C 1222 2624 947 2503 730 2274 
L 730 3692 
z
" transform="scale(0.015625)"/>
       </defs>
       <use xlink:href="#g0f0014_625939_CMSY10-0" transform="scale(0.996264)"/>
       <use xlink:href="#g0f0014_625939_CMR17-35" transform="translate(77.487468 0) scale(0.996264)"/>
      </g>
     </g>
    </g>
    <g id="g0f0014_625939_xtick_2">
     <g id="g0f0014_625939_line2d_3">
      <path d="M 83.5 334.8 
L 83.5 20.016315 
" clip-path="url(#g0f0014_625939_p01d23c6ad7)" style="fill: none; stroke-dasharray: 2.96,1.28; stroke-dashoffset: 0; stroke: #b0b0b0; stroke-opacity: 0.6; stroke-width: 0.8"/>
     </g>
     <g id="g0f0014_625939_line2d_4">
      <g>
       <use xlink:href="#g0f0014_625939_m98cb29c72c" x="83.5" y="177.408158" style="stroke: #000000; stroke-width: 0.8"/>
      </g>
     </g>
     <g id="g0f0014_625939_text_2">
      <!-- $\mathdefault{−4}$ -->
      <g transform="translate(71.182209 198.245154) scale(0.2 -0.2)">
       <defs>
        <path id="g0f0014_625939_CMR17-34" d="M 2150 4122 
C 2150 4256 2144 4256 2029 4256 
L 128 1254 
L 128 1088 
L 1779 1088 
L 1779 457 
C 1779 224 1766 160 1318 160 
L 1197 160 
L 1197 0 
C 1402 0 1747 0 1965 0 
C 2182 0 2528 0 2733 0 
L 2733 160 
L 2611 160 
C 2163 160 2150 224 2150 457 
L 2150 1088 
L 2803 1088 
L 2803 1254 
L 2150 1254 
L 2150 4122 
z
M 1798 3703 
L 1798 1254 
L 256 1254 
L 1798 3703 
z
" transform="scale(0.015625)"/>
       </defs>
       <use xlink:href="#g0f0014_625939_CMSY10-0" transform="scale(0.996264)"/>
       <use xlink:href="#g0f0014_625939_CMR17-34" transform="translate(77.487468 0) scale(0.996264)"/>
      </g>
     </g>
    </g>
    <g id="g0f0014_625939_xtick_3">
     <g id="g0f0014_625939_line2d_5">
      <path d="M 119.85 334.8 
L 119.85 20.016315 
" clip-path="url(#g0f0014_625939_p01d23c6ad7)" style="fill: none; stroke-dasharray: 2.96,1.28; stroke-dashoffset: 0; stroke: #b0b0b0; stroke-opacity: 0.6; stroke-width: 0.8"/>
     </g>
     <g id="g0f0014_625939_line2d_6">
      <g>
       <use xlink:href="#g0f0014_625939_m98cb29c72c" x="119.85" y="177.408158" style="stroke: #000000; stroke-width: 0.8"/>
      </g>
     </g>
     <g id="g0f0014_625939_text_3">
      <!-- $\mathdefault{−3}$ -->
      <g transform="translate(107.532209 198.245154) scale(0.2 -0.2)">
       <defs>
        <path id="g0f0014_625939_CMR17-33" d="M 1414 2157 
C 1984 2157 2234 1662 2234 1090 
C 2234 320 1824 25 1453 25 
C 1114 25 563 194 390 693 
C 422 680 454 680 486 680 
C 640 680 755 782 755 948 
C 755 1133 614 1216 486 1216 
C 378 1216 211 1165 211 926 
C 211 335 787 -128 1466 -128 
C 2176 -128 2720 430 2720 1085 
C 2720 1707 2208 2157 1600 2227 
C 2086 2328 2554 2756 2554 3329 
C 2554 3820 2048 4179 1472 4179 
C 890 4179 378 3829 378 3329 
C 378 3110 544 3072 627 3072 
C 762 3072 877 3155 877 3321 
C 877 3486 762 3569 627 3569 
C 602 3569 570 3569 544 3557 
C 730 3959 1235 4032 1459 4032 
C 1683 4032 2106 3925 2106 3320 
C 2106 3143 2080 2828 1862 2550 
C 1670 2304 1453 2304 1242 2284 
C 1210 2284 1062 2269 1037 2269 
C 992 2263 966 2257 966 2208 
C 966 2163 973 2157 1101 2157 
L 1414 2157 
z
" transform="scale(0.015625)"/>
       </defs>
       <use xlink:href="#g0f0014_625939_CMSY10-0" transform="scale(0.996264)"/>
       <use xlink:href="#g0f0014_625939_CMR17-33" transform="translate(77.487468 0) scale(0.996264)"/>
      </g>
     </g>
    </g>
    <g id="g0f0014_625939_xtick_4">
     <g id="g0f0014_625939_line2d_7">
      <path d="M 156.2 334.8 
L 156.2 20.016315 
" clip-path="url(#g0f0014_625939_p01d23c6ad7)" style="fill: none; stroke-dasharray: 2.96,1.28; stroke-dashoffset: 0; stroke: #b0b0b0; stroke-opacity: 0.6; stroke-width: 0.8"/>
     </g>
     <g id="g0f0014_625939_line2d_8">
      <g>
       <use xlink:href="#g0f0014_625939_m98cb29c72c" x="156.2" y="177.408158" style="stroke: #000000; stroke-width: 0.8"/>
      </g>
     </g>
     <g id="g0f0014_625939_text_4">
      <!-- $\mathdefault{−2}$ -->
      <g transform="translate(143.882209 198.245154) scale(0.2 -0.2)">
       <defs>
        <path id="g0f0014_625939_CMR17-32" d="M 2669 989 
L 2554 989 
C 2490 536 2438 459 2413 420 
C 2381 369 1920 369 1830 369 
L 602 369 
C 832 619 1280 1072 1824 1597 
C 2214 1967 2669 2402 2669 3035 
C 2669 3790 2067 4224 1395 4224 
C 691 4224 262 3604 262 3030 
C 262 2780 448 2748 525 2748 
C 589 2748 781 2787 781 3010 
C 781 3207 614 3264 525 3264 
C 486 3264 448 3258 422 3245 
C 544 3790 915 4058 1306 4058 
C 1862 4058 2227 3617 2227 3035 
C 2227 2479 1901 2000 1536 1584 
L 262 146 
L 262 0 
L 2515 0 
L 2669 989 
z
" transform="scale(0.015625)"/>
       </defs>
       <use xlink:href="#g0f0014_625939_CMSY10-0" transform="scale(0.996264)"/>
       <use xlink:href="#g0f0014_625939_CMR17-32" transform="translate(77.487468 0) scale(0.996264)"/>
      </g>
     </g>
    </g>
    <g id="g0f0014_625939_xtick_5">
     <g id="g0f0014_625939_line2d_9">
      <path d="M 192.55 334.8 
L 192.55 20.016315 
" clip-path="url(#g0f0014_625939_p01d23c6ad7)" style="fill: none; stroke-dasharray: 2.96,1.28; stroke-dashoffset: 0; stroke: #b0b0b0; stroke-opacity: 0.6; stroke-width: 0.8"/>
     </g>
     <g id="g0f0014_625939_line2d_10">
      <g>
       <use xlink:href="#g0f0014_625939_m98cb29c72c" x="192.55" y="177.408158" style="stroke: #000000; stroke-width: 0.8"/>
      </g>
     </g>
     <g id="g0f0014_625939_text_5">
      <!-- $\mathdefault{−1}$ -->
      <g transform="translate(180.232209 198.245154) scale(0.2 -0.2)">
       <defs>
        <path id="g0f0014_625939_CMR17-31" d="M 1702 4058 
C 1702 4192 1696 4192 1606 4192 
C 1357 3916 979 3827 621 3827 
C 602 3827 570 3827 563 3808 
C 557 3795 557 3782 557 3648 
C 755 3648 1088 3686 1344 3839 
L 1344 461 
C 1344 236 1331 160 781 160 
L 589 160 
L 589 0 
C 896 0 1216 0 1523 0 
C 1830 0 2150 0 2458 0 
L 2458 160 
L 2266 160 
C 1715 160 1702 230 1702 458 
L 1702 4058 
z
" transform="scale(0.015625)"/>
       </defs>
       <use xlink:href="#g0f0014_625939_CMSY10-0" transform="scale(0.996264)"/>
       <use xlink:href="#g0f0014_625939_CMR17-31" transform="translate(77.487468 0) scale(0.996264)"/>
      </g>
     </g>
    </g>
    <g id="g0f0014_625939_xtick_6">
     <g id="g0f0014_625939_line2d_11">
      <path d="M 265.25 334.8 
L 265.25 20.016315 
" clip-path="url(#g0f0014_625939_p01d23c6ad7)" style="fill: none; stroke-dasharray: 2.96,1.28; stroke-dashoffset: 0; stroke: #b0b0b0; stroke-opacity: 0.6; stroke-width: 0.8"/>
     </g>
     <g id="g0f0014_625939_line2d_12">
      <g>
       <use xlink:href="#g0f0014_625939_m98cb29c72c" x="265.25" y="177.408158" style="stroke: #000000; stroke-width: 0.8"/>
      </g>
     </g>
     <g id="g0f0014_625939_text_6">
      <!-- $\mathdefault{1}$ -->
      <g transform="translate(260.680952 198.245154) scale(0.2 -0.2)">
       <use xlink:href="#g0f0014_625939_CMR17-31" transform="scale(0.996264)"/>
      </g>
     </g>
    </g>
    <g id="g0f0014_625939_xtick_7">
     <g id="g0f0014_625939_line2d_13">
      <path d="M 301.6 334.8 
L 301.6 20.016315 
" clip-path="url(#g0f0014_625939_p01d23c6ad7)" style="fill: none; stroke-dasharray: 2.96,1.28; stroke-dashoffset: 0; stroke: #b0b0b0; stroke-opacity: 0.6; stroke-width: 0.8"/>
     </g>
     <g id="g0f0014_625939_line2d_14">
      <g>
       <use xlink:href="#g0f0014_625939_m98cb29c72c" x="301.6" y="177.408158" style="stroke: #000000; stroke-width: 0.8"/>
      </g>
     </g>
     <g id="g0f0014_625939_text_7">
      <!-- $\mathdefault{2}$ -->
      <g transform="translate(297.030952 198.245154) scale(0.2 -0.2)">
       <use xlink:href="#g0f0014_625939_CMR17-32" transform="scale(0.996264)"/>
      </g>
     </g>
    </g>
    <g id="g0f0014_625939_xtick_8">
     <g id="g0f0014_625939_line2d_15">
      <path d="M 337.95 334.8 
L 337.95 20.016315 
" clip-path="url(#g0f0014_625939_p01d23c6ad7)" style="fill: none; stroke-dasharray: 2.96,1.28; stroke-dashoffset: 0; stroke: #b0b0b0; stroke-opacity: 0.6; stroke-width: 0.8"/>
     </g>
     <g id="g0f0014_625939_line2d_16">
      <g>
       <use xlink:href="#g0f0014_625939_m98cb29c72c" x="337.95" y="177.408158" style="stroke: #000000; stroke-width: 0.8"/>
      </g>
     </g>
     <g id="g0f0014_625939_text_8">
      <!-- $\mathdefault{3}$ -->
      <g transform="translate(333.380952 198.245154) scale(0.2 -0.2)">
       <use xlink:href="#g0f0014_625939_CMR17-33" transform="scale(0.996264)"/>
      </g>
     </g>
    </g>
    <g id="g0f0014_625939_xtick_9">
     <g id="g0f0014_625939_line2d_17">
      <path d="M 374.3 334.8 
L 374.3 20.016315 
" clip-path="url(#g0f0014_625939_p01d23c6ad7)" style="fill: none; stroke-dasharray: 2.96,1.28; stroke-dashoffset: 0; stroke: #b0b0b0; stroke-opacity: 0.6; stroke-width: 0.8"/>
     </g>
     <g id="g0f0014_625939_line2d_18">
      <g>
       <use xlink:href="#g0f0014_625939_m98cb29c72c" x="374.3" y="177.408158" style="stroke: #000000; stroke-width: 0.8"/>
      </g>
     </g>
     <g id="g0f0014_625939_text_9">
      <!-- $\mathdefault{4}$ -->
      <g transform="translate(369.730952 198.245154) scale(0.2 -0.2)">
       <use xlink:href="#g0f0014_625939_CMR17-34" transform="scale(0.996264)"/>
      </g>
     </g>
    </g>
    <g id="g0f0014_625939_xtick_10">
     <g id="g0f0014_625939_line2d_19">
      <path d="M 410.65 334.8 
L 410.65 20.016315 
" clip-path="url(#g0f0014_625939_p01d23c6ad7)" style="fill: none; stroke-dasharray: 2.96,1.28; stroke-dashoffset: 0; stroke: #b0b0b0; stroke-opacity: 0.6; stroke-width: 0.8"/>
     </g>
     <g id="g0f0014_625939_line2d_20">
      <g>
       <use xlink:href="#g0f0014_625939_m98cb29c72c" x="410.65" y="177.408158" style="stroke: #000000; stroke-width: 0.8"/>
      </g>
     </g>
     <g id="g0f0014_625939_text_10">
      <!-- $\mathdefault{5}$ -->
      <g transform="translate(406.080952 198.245154) scale(0.2 -0.2)">
       <use xlink:href="#g0f0014_625939_CMR17-35" transform="scale(0.996264)"/>
      </g>
     </g>
    </g>
    <g id="g0f0014_625939_text_11">
     <!-- $x$ -->
     <g transform="translate(435.913188 219.957785) scale(0.2 -0.2)">
      <defs>
       <path id="g0f0014_625939_CMMI12-78" d="M 3034 2606 
C 2829 2567 2752 2414 2752 2293 
C 2752 2139 2874 2088 2963 2088 
C 3155 2088 3290 2254 3290 2427 
C 3290 2695 2982 2816 2714 2816 
C 2323 2816 2106 2433 2048 2312 
C 1901 2816 1504 2816 1389 2816 
C 736 2816 390 1980 390 1839 
C 390 1814 416 1782 461 1782 
C 512 1782 525 1820 538 1846 
C 755 2555 1184 2689 1370 2689 
C 1658 2689 1715 2420 1715 2267 
C 1715 2127 1677 1980 1600 1673 
L 1382 798 
C 1286 415 1101 64 762 64 
C 730 64 570 64 435 147 
C 666 192 717 383 717 460 
C 717 588 621 664 499 664 
C 346 664 179 530 179 326 
C 179 57 480 -64 755 -64 
C 1062 -64 1280 179 1414 441 
C 1517 64 1837 -64 2074 -64 
C 2726 -64 3072 773 3072 913 
C 3072 945 3046 971 3008 971 
C 2950 971 2944 939 2925 888 
C 2752 326 2381 64 2093 64 
C 1869 64 1747 230 1747 492 
C 1747 632 1773 734 1875 1156 
L 2099 2024 
C 2195 2408 2413 2689 2707 2689 
C 2720 2689 2899 2689 3034 2606 
z
" transform="scale(0.015625)"/>
      </defs>
      <use xlink:href="#g0f0014_625939_CMMI12-78" transform="scale(0.996264)"/>
     </g>
    </g>
   </g>
   <g id="g0f0014_625939_matplotlib.axis_2">
    <g id="g0f0014_625939_ytick_1">
     <g id="g0f0014_625939_line2d_21">
      <path d="M 10.8 308.568026 
L 447 308.568026 
" clip-path="url(#g0f0014_625939_p01d23c6ad7)" style="fill: none; stroke-dasharray: 2.96,1.28; stroke-dashoffset: 0; stroke: #b0b0b0; stroke-opacity: 0.6; stroke-width: 0.8"/>
     </g>
     <g id="g0f0014_625939_line2d_22">
      <defs>
       <path id="g0f0014_625939_m84e946fd03" d="M 0 0 
L -3.5 0 
" style="stroke: #000000; stroke-width: 0.8"/>
      </defs>
      <g>
       <use xlink:href="#g0f0014_625939_m84e946fd03" x="228.9" y="308.568026" style="stroke: #000000; stroke-width: 0.8"/>
      </g>
     </g>
     <g id="g0f0014_625939_text_12">
      <!-- $\mathdefault{−5}$ -->
      <g transform="translate(197.264417 315.486525) scale(0.2 -0.2)">
       <use xlink:href="#g0f0014_625939_CMSY10-0" transform="scale(0.996264)"/>
       <use xlink:href="#g0f0014_625939_CMR17-35" transform="translate(77.487468 0) scale(0.996264)"/>
      </g>
     </g>
    </g>
    <g id="g0f0014_625939_ytick_2">
     <g id="g0f0014_625939_line2d_23">
      <path d="M 10.8 282.336053 
L 447 282.336053 
" clip-path="url(#g0f0014_625939_p01d23c6ad7)" style="fill: none; stroke-dasharray: 2.96,1.28; stroke-dashoffset: 0; stroke: #b0b0b0; stroke-opacity: 0.6; stroke-width: 0.8"/>
     </g>
     <g id="g0f0014_625939_line2d_24">
      <g>
       <use xlink:href="#g0f0014_625939_m84e946fd03" x="228.9" y="282.336053" style="stroke: #000000; stroke-width: 0.8"/>
      </g>
     </g>
     <g id="g0f0014_625939_text_13">
      <!-- $\mathdefault{−4}$ -->
      <g transform="translate(197.264417 289.254551) scale(0.2 -0.2)">
       <use xlink:href="#g0f0014_625939_CMSY10-0" transform="scale(0.996264)"/>
       <use xlink:href="#g0f0014_625939_CMR17-34" transform="translate(77.487468 0) scale(0.996264)"/>
      </g>
     </g>
    </g>
    <g id="g0f0014_625939_ytick_3">
     <g id="g0f0014_625939_line2d_25">
      <path d="M 10.8 256.104079 
L 447 256.104079 
" clip-path="url(#g0f0014_625939_p01d23c6ad7)" style="fill: none; stroke-dasharray: 2.96,1.28; stroke-dashoffset: 0; stroke: #b0b0b0; stroke-opacity: 0.6; stroke-width: 0.8"/>
     </g>
     <g id="g0f0014_625939_line2d_26">
      <g>
       <use xlink:href="#g0f0014_625939_m84e946fd03" x="228.9" y="256.104079" style="stroke: #000000; stroke-width: 0.8"/>
      </g>
     </g>
     <g id="g0f0014_625939_text_14">
      <!-- $\mathdefault{−3}$ -->
      <g transform="translate(197.264417 263.022577) scale(0.2 -0.2)">
       <use xlink:href="#g0f0014_625939_CMSY10-0" transform="scale(0.996264)"/>
       <use xlink:href="#g0f0014_625939_CMR17-33" transform="translate(77.487468 0) scale(0.996264)"/>
      </g>
     </g>
    </g>
    <g id="g0f0014_625939_ytick_4">
     <g id="g0f0014_625939_line2d_27">
      <path d="M 10.8 229.872105 
L 447 229.872105 
" clip-path="url(#g0f0014_625939_p01d23c6ad7)" style="fill: none; stroke-dasharray: 2.96,1.28; stroke-dashoffset: 0; stroke: #b0b0b0; stroke-opacity: 0.6; stroke-width: 0.8"/>
     </g>
     <g id="g0f0014_625939_line2d_28">
      <g>
       <use xlink:href="#g0f0014_625939_m84e946fd03" x="228.9" y="229.872105" style="stroke: #000000; stroke-width: 0.8"/>
      </g>
     </g>
     <g id="g0f0014_625939_text_15">
      <!-- $\mathdefault{−2}$ -->
      <g transform="translate(197.264417 236.790603) scale(0.2 -0.2)">
       <use xlink:href="#g0f0014_625939_CMSY10-0" transform="scale(0.996264)"/>
       <use xlink:href="#g0f0014_625939_CMR17-32" transform="translate(77.487468 0) scale(0.996264)"/>
      </g>
     </g>
    </g>
    <g id="g0f0014_625939_ytick_5">
     <g id="g0f0014_625939_line2d_29">
      <path d="M 10.8 203.640131 
L 447 203.640131 
" clip-path="url(#g0f0014_625939_p01d23c6ad7)" style="fill: none; stroke-dasharray: 2.96,1.28; stroke-dashoffset: 0; stroke: #b0b0b0; stroke-opacity: 0.6; stroke-width: 0.8"/>
     </g>
     <g id="g0f0014_625939_line2d_30">
      <g>
       <use xlink:href="#g0f0014_625939_m84e946fd03" x="228.9" y="203.640131" style="stroke: #000000; stroke-width: 0.8"/>
      </g>
     </g>
     <g id="g0f0014_625939_text_16">
      <!-- $\mathdefault{−1}$ -->
      <g transform="translate(197.264417 210.55863) scale(0.2 -0.2)">
       <use xlink:href="#g0f0014_625939_CMSY10-0" transform="scale(0.996264)"/>
       <use xlink:href="#g0f0014_625939_CMR17-31" transform="translate(77.487468 0) scale(0.996264)"/>
      </g>
     </g>
    </g>
    <g id="g0f0014_625939_ytick_6">
     <g id="g0f0014_625939_line2d_31">
      <path d="M 10.8 151.176184 
L 447 151.176184 
" clip-path="url(#g0f0014_625939_p01d23c6ad7)" style="fill: none; stroke-dasharray: 2.96,1.28; stroke-dashoffset: 0; stroke: #b0b0b0; stroke-opacity: 0.6; stroke-width: 0.8"/>
     </g>
     <g id="g0f0014_625939_line2d_32">
      <g>
       <use xlink:href="#g0f0014_625939_m84e946fd03" x="228.9" y="151.176184" style="stroke: #000000; stroke-width: 0.8"/>
      </g>
     </g>
     <g id="g0f0014_625939_text_17">
      <!-- $\mathdefault{1}$ -->
      <g transform="translate(212.761905 158.094682) scale(0.2 -0.2)">
       <use xlink:href="#g0f0014_625939_CMR17-31" transform="scale(0.996264)"/>
      </g>
     </g>
    </g>
    <g id="g0f0014_625939_ytick_7">
     <g id="g0f0014_625939_line2d_33">
      <path d="M 10.8 124.94421 
L 447 124.94421 
" clip-path="url(#g0f0014_625939_p01d23c6ad7)" style="fill: none; stroke-dasharray: 2.96,1.28; stroke-dashoffset: 0; stroke: #b0b0b0; stroke-opacity: 0.6; stroke-width: 0.8"/>
     </g>
     <g id="g0f0014_625939_line2d_34">
      <g>
       <use xlink:href="#g0f0014_625939_m84e946fd03" x="228.9" y="124.94421" style="stroke: #000000; stroke-width: 0.8"/>
      </g>
     </g>
     <g id="g0f0014_625939_text_18">
      <!-- $\mathdefault{2}$ -->
      <g transform="translate(212.761905 131.862709) scale(0.2 -0.2)">
       <use xlink:href="#g0f0014_625939_CMR17-32" transform="scale(0.996264)"/>
      </g>
     </g>
    </g>
    <g id="g0f0014_625939_ytick_8">
     <g id="g0f0014_625939_line2d_35">
      <path d="M 10.8 98.712236 
L 447 98.712236 
" clip-path="url(#g0f0014_625939_p01d23c6ad7)" style="fill: none; stroke-dasharray: 2.96,1.28; stroke-dashoffset: 0; stroke: #b0b0b0; stroke-opacity: 0.6; stroke-width: 0.8"/>
     </g>
     <g id="g0f0014_625939_line2d_36">
      <g>
       <use xlink:href="#g0f0014_625939_m84e946fd03" x="228.9" y="98.712236" style="stroke: #000000; stroke-width: 0.8"/>
      </g>
     </g>
     <g id="g0f0014_625939_text_19">
      <!-- $\mathdefault{3}$ -->
      <g transform="translate(212.761905 105.630735) scale(0.2 -0.2)">
       <use xlink:href="#g0f0014_625939_CMR17-33" transform="scale(0.996264)"/>
      </g>
     </g>
    </g>
    <g id="g0f0014_625939_ytick_9">
     <g id="g0f0014_625939_line2d_37">
      <path d="M 10.8 72.480263 
L 447 72.480263 
" clip-path="url(#g0f0014_625939_p01d23c6ad7)" style="fill: none; stroke-dasharray: 2.96,1.28; stroke-dashoffset: 0; stroke: #b0b0b0; stroke-opacity: 0.6; stroke-width: 0.8"/>
     </g>
     <g id="g0f0014_625939_line2d_38">
      <g>
       <use xlink:href="#g0f0014_625939_m84e946fd03" x="228.9" y="72.480263" style="stroke: #000000; stroke-width: 0.8"/>
      </g>
     </g>
     <g id="g0f0014_625939_text_20">
      <!-- $\mathdefault{4}$ -->
      <g transform="translate(212.761905 79.398761) scale(0.2 -0.2)">
       <use xlink:href="#g0f0014_625939_CMR17-34" transform="scale(0.996264)"/>
      </g>
     </g>
    </g>
    <g id="g0f0014_625939_ytick_10">
     <g id="g0f0014_625939_line2d_39">
      <path d="M 10.8 46.248289 
L 447 46.248289 
" clip-path="url(#g0f0014_625939_p01d23c6ad7)" style="fill: none; stroke-dasharray: 2.96,1.28; stroke-dashoffset: 0; stroke: #b0b0b0; stroke-opacity: 0.6; stroke-width: 0.8"/>
     </g>
     <g id="g0f0014_625939_line2d_40">
      <g>
       <use xlink:href="#g0f0014_625939_m84e946fd03" x="228.9" y="46.248289" style="stroke: #000000; stroke-width: 0.8"/>
      </g>
     </g>
     <g id="g0f0014_625939_text_21">
      <!-- $\mathdefault{5}$ -->
      <g transform="translate(212.761905 53.166787) scale(0.2 -0.2)">
       <use xlink:href="#g0f0014_625939_CMR17-35" transform="scale(0.996264)"/>
      </g>
     </g>
    </g>
    <g id="g0f0014_625939_text_22">
     <!-- $y$ -->
     <g transform="translate(183.751583 16.140682) scale(0.2 -0.2)">
      <defs>
       <path id="g0f0014_625939_CMMI12-79" d="M 1683 -700 
C 1510 -939 1261 -1152 947 -1152 
C 870 -1152 563 -1152 467 -889 
C 486 -895 518 -895 531 -895 
C 723 -895 851 -729 851 -582 
C 851 -435 730 -384 634 -384 
C 531 -384 307 -458 307 -759 
C 307 -1071 582 -1286 947 -1286 
C 1587 -1286 2234 -700 2413 6 
L 3040 2485 
C 3046 2517 3059 2556 3059 2594 
C 3059 2689 2982 2753 2886 2753 
C 2829 2753 2694 2727 2643 2535 
L 2170 658 
C 2138 543 2138 530 2086 460 
C 1958 281 1747 64 1440 64 
C 1082 64 1050 415 1050 588 
C 1050 952 1222 1443 1395 1903 
C 1466 2088 1504 2178 1504 2305 
C 1504 2574 1312 2816 998 2816 
C 410 2816 173 1890 173 1839 
C 173 1814 198 1782 243 1782 
C 301 1782 307 1807 333 1897 
C 486 2433 730 2689 979 2689 
C 1037 2689 1146 2689 1146 2478 
C 1146 2312 1075 2127 979 1884 
C 666 1047 666 837 666 683 
C 666 77 1101 -64 1421 -64 
C 1606 -64 1837 -6 2061 230 
L 2067 224 
C 1971 -147 1907 -392 1683 -700 
z
" transform="scale(0.015625)"/>
      </defs>
      <use xlink:href="#g0f0014_625939_CMMI12-79" transform="scale(0.996264)"/>
     </g>
    </g>
   </g>
   <g id="g0f0014_625939_line2d_41">
    <defs>
     <path id="g0f0014_625939_m4ccacc88c2" d="M 3 0 
L -3 -3 
L -3 3 
z
" style="stroke: #000000; stroke-linejoin: miter"/>
    </defs>
    <g>
     <use xlink:href="#g0f0014_625939_m4ccacc88c2" x="447" y="177.408158" style="stroke: #000000; stroke-linejoin: miter"/>
    </g>
   </g>
   <g id="g0f0014_625939_line2d_42">
    <defs>
     <path id="g0f0014_625939_mc63f28d88b" d="M 0 -3 
L -3 3 
L 3 3 
z
" style="stroke: #000000; stroke-linejoin: miter"/>
    </defs>
    <g>
     <use xlink:href="#g0f0014_625939_mc63f28d88b" x="228.9" y="20.016315" style="stroke: #000000; stroke-linejoin: miter"/>
    </g>
   </g>
   <g id="g0f0014_625939_line2d_43">
    <path d="M 10.8 154.125522 
L 12.291009 155.663777 
L 13.941769 157.700074 
L 15.75228 160.297972 
L 17.829042 163.683682 
L 20.305182 168.170669 
L 23.686578 174.805043 
L 30.342868 187.944488 
L 32.898883 192.440237 
L 35.002271 195.711245 
L 36.866032 198.211439 
L 38.516792 200.069888 
L 40.034426 201.45623 
L 41.445559 202.451094 
L 42.750192 203.108103 
L 44.001575 203.494689 
L 45.199707 203.637894 
L 46.397839 203.557843 
L 47.595971 203.255217 
L 48.847354 202.704323 
L 50.151987 201.880027 
L 51.536495 200.735416 
L 53.027504 199.206765 
L 54.651639 197.215575 
L 56.46215 194.632524 
L 58.512287 191.306755 
L 60.961802 186.887237 
L 64.263322 180.428855 
L 71.292364 166.56756 
L 73.821754 162.147973 
L 75.925142 158.905975 
L 77.762278 156.46823 
L 79.413038 154.633646 
L 80.930672 153.270861 
L 82.31518 152.314625 
L 83.619813 151.674341 
L 84.871196 151.304121 
L 86.069328 151.17674 
L 87.26746 151.272629 
L 88.465592 151.590972 
L 89.716975 152.158009 
L 91.021608 152.998677 
L 92.406116 154.159971 
L 93.897125 155.705578 
L 95.547885 157.74937 
L 97.385021 160.395483 
L 99.461784 163.793247 
L 101.937923 168.29093 
L 105.345944 174.986378 
L 111.869108 187.864918 
L 114.425124 192.369001 
L 116.555136 195.687574 
L 118.418898 198.191306 
L 120.096283 200.080345 
L 121.613917 201.464522 
L 123.02505 202.45727 
L 124.329683 203.112258 
L 125.581066 203.496865 
L 126.779198 203.638157 
L 127.97733 203.55619 
L 129.175462 203.251663 
L 130.426845 202.698816 
L 131.731478 201.872538 
L 133.115986 200.725906 
L 134.606995 199.195201 
L 136.23113 197.201948 
L 138.041641 194.616849 
L 140.091778 191.289131 
L 142.541293 186.867862 
L 145.842813 180.408217 
L 152.84523 166.59764 
L 155.37462 162.174846 
L 157.478008 158.9294 
L 159.315144 156.488138 
L 160.965904 154.650052 
L 162.483538 153.283811 
L 163.868046 152.324268 
L 165.172679 151.680767 
L 166.424062 151.307399 
L 167.622194 151.176976 
L 168.820326 151.269821 
L 170.018458 151.585143 
L 171.269841 152.149078 
L 172.574474 152.986602 
L 173.958982 154.144693 
L 175.449991 155.687046 
L 177.100751 157.727521 
L 178.911262 160.329488 
L 180.988024 163.719109 
L 183.464164 168.20957 
L 186.845559 174.846392 
L 193.475224 187.933269 
L 196.03124 192.430197 
L 198.134627 195.702468 
L 199.998389 198.203976 
L 201.649149 200.063717 
L 203.166783 201.451335 
L 204.577916 202.447445 
L 205.882549 203.105646 
L 207.133932 203.493398 
L 208.332064 203.637731 
L 209.530196 203.558809 
L 210.728328 203.257305 
L 211.979711 202.707563 
L 213.284344 201.884436 
L 214.668852 200.741016 
L 216.159861 199.213576 
L 217.783996 197.223603 
L 219.594507 194.64176 
L 221.644644 191.317141 
L 224.094159 186.898657 
L 227.395678 180.441022 
L 234.424721 166.578715 
L 236.954111 162.157937 
L 239.057499 158.91466 
L 240.894635 156.47561 
L 242.545395 154.639727 
L 244.063029 153.27566 
L 245.447537 152.318197 
L 246.75217 151.676719 
L 248.003552 151.305332 
L 249.201685 151.176823 
L 250.399817 151.271583 
L 251.597949 151.588805 
L 252.849332 152.154692 
L 254.153964 152.994194 
L 255.538473 154.1543 
L 257.029482 155.698701 
L 258.680242 157.741263 
L 260.517378 160.386161 
L 262.59414 163.782779 
L 265.07028 168.279446 
L 268.478301 174.974182 
L 275.001465 187.853684 
L 277.55748 192.358938 
L 279.687493 195.678786 
L 281.551254 198.18383 
L 283.228639 200.074182 
L 284.746274 201.459635 
L 286.157407 202.45363 
L 287.46204 203.109811 
L 288.713422 203.495584 
L 289.911555 203.638004 
L 291.109687 203.557166 
L 292.307819 203.253761 
L 293.559202 202.702065 
L 294.863834 201.876955 
L 296.248343 200.731514 
L 297.739352 199.20202 
L 299.363487 197.209983 
L 301.173997 194.626092 
L 303.224135 191.299522 
L 305.67365 186.879286 
L 308.975169 180.420385 
L 315.977587 166.608802 
L 318.506977 162.184819 
L 320.610364 158.938095 
L 322.4475 156.49553 
L 324.09826 154.656145 
L 325.615895 153.288624 
L 327.000403 152.327855 
L 328.305036 151.68316 
L 329.556418 151.308626 
L 330.75455 151.177074 
L 331.952683 151.26879 
L 333.150815 151.582992 
L 334.402197 152.145776 
L 335.70683 152.982133 
L 337.091339 154.139036 
L 338.582348 155.680181 
L 340.233107 157.719425 
L 342.043618 160.320193 
L 344.120381 163.708662 
L 346.596521 168.1981 
L 349.977916 174.834202 
L 356.634206 187.971316 
L 359.190222 192.464242 
L 361.293609 195.732224 
L 363.15737 198.229276 
L 364.80813 200.084633 
L 366.325765 201.467921 
L 367.736898 202.4598 
L 369.041531 203.113959 
L 370.292913 203.497754 
L 371.491046 203.63826 
L 372.689178 203.555507 
L 373.88731 203.2502 
L 375.138693 202.696551 
L 376.443325 201.86946 
L 377.827834 200.721999 
L 379.318843 199.190451 
L 380.942977 197.196351 
L 382.753488 194.610413 
L 384.803626 191.281895 
L 387.25314 186.859909 
L 390.55466 180.399746 
L 397.557077 166.589872 
L 400.086468 162.167905 
L 402.189855 158.923349 
L 404.026991 156.482995 
L 405.677751 154.645812 
L 407.195385 153.280464 
L 408.579894 152.321775 
L 409.884527 151.679104 
L 411.135909 151.306549 
L 412.334041 151.176911 
L 413.532174 151.270542 
L 414.730306 151.586644 
L 415.981688 152.15138 
L 417.286321 152.989716 
L 418.67083 154.148635 
L 420.161838 155.691827 
L 421.812598 157.733159 
L 423.623109 160.335961 
L 425.699872 163.726383 
L 428.176012 168.217556 
L 431.557407 174.854878 
L 438.187072 187.941079 
L 440.743087 192.437187 
L 442.846475 195.708578 
L 444.710236 198.209172 
L 446.360996 200.068013 
L 447 200.690793 
L 447 200.690793 
" clip-path="url(#g0f0014_625939_p01d23c6ad7)" style="fill: none; stroke: #0072b2; stroke-width: 2.5; stroke-linecap: square"/>
   </g>
   <g id="g0f0014_625939_patch_3">
    <path d="M 228.9 334.8 
L 228.9 20.016315 
" style="fill: none; stroke: #000000; stroke-width: 0.8; stroke-linejoin: miter; stroke-linecap: square"/>
   </g>
   <g id="g0f0014_625939_patch_4">
    <path d="M 447 334.8 
L 447 20.016315 
" style="fill: none"/>
   </g>
   <g id="g0f0014_625939_patch_5">
    <path d="M 10.8 177.408158 
L 447 177.408158 
" style="fill: none; stroke: #000000; stroke-width: 0.8; stroke-linejoin: miter; stroke-linecap: square"/>
   </g>
   <g id="g0f0014_625939_patch_6">
    <path d="M 10.8 20.016315 
L 447 20.016315 
" style="fill: none"/>
   </g>
  </g>
 </g>
 <defs>
  <clipPath id="g0f0014_625939_p01d23c6ad7">
   <rect x="10.8" y="20.016315" width="436.2" height="314.783685"/>
  </clipPath>
 </defs>
</svg>
