<?xml version="1.0" encoding="utf-8" standalone="no"?>
<!DOCTYPE svg PUBLIC "-//W3C//DTD SVG 1.1//EN"
  "http://www.w3.org/Graphics/SVG/1.1/DTD/svg11.dtd">
<svg xmlns:xlink="http://www.w3.org/1999/xlink" width="460.8pt" height="345.6pt" viewBox="0 0 460.8 345.6" xmlns="http://www.w3.org/2000/svg" version="1.1">
 <metadata>
  <rdf:RDF xmlns:dc="http://purl.org/dc/elements/1.1/" xmlns:cc="http://creativecommons.org/ns#" xmlns:rdf="http://www.w3.org/1999/02/22-rdf-syntax-ns#">
   <cc:Work>
    <dc:type rdf:resource="http://purl.org/dc/dcmitype/StillImage"/>
    <dc:date>2025-11-01T23:20:35.766525</dc:date>
    <dc:format>image/svg+xml</dc:format>
    <dc:creator>
     <cc:Agent>
      <dc:title>Matplotlib v3.9.1, https://matplotlib.org/</dc:title>
     </cc:Agent>
    </dc:creator>
   </cc:Work>
  </rdf:RDF>
 </metadata>
 <defs>
  <style type="text/css">*{stroke-linejoin: round; stroke-linecap: butt}</style>
 </defs>
 <g id="figure_1">
  <g id="patch_1">
   <path d="M 0 345.6 
L 460.8 345.6 
L 460.8 0 
L 0 0 
L 0 345.6 
z
" style="fill: none"/>
  </g>
  <g id="axes_1">
   <g id="patch_2">
    <path d="M 10.8 334.8 
L 447 334.8 
L 447 24.264473 
L 10.8 24.264473 
L 10.8 334.8 
z
" style="fill: none"/>
   </g>
   <g id="matplotlib.axis_1">
    <g id="text_1">
     <!-- $x$ -->
     <g transform="translate(430.369782 152.53181) scale(0.3 -0.3)">
      <defs>
       <path id="CMMI12-78" d="M 3034 2606 
C 2829 2567 2752 2414 2752 2293 
C 2752 2139 2874 2088 2963 2088 
C 3155 2088 3290 2254 3290 2427 
C 3290 2695 2982 2816 2714 2816 
C 2323 2816 2106 2433 2048 2312 
C 1901 2816 1504 2816 1389 2816 
C 736 2816 390 1980 390 1839 
C 390 1814 416 1782 461 1782 
C 512 1782 525 1820 538 1846 
C 755 2555 1184 2689 1370 2689 
C 1658 2689 1715 2420 1715 2267 
C 1715 2127 1677 1980 1600 1673 
L 1382 798 
C 1286 415 1101 64 762 64 
C 730 64 570 64 435 147 
C 666 192 717 383 717 460 
C 717 588 621 664 499 664 
C 346 664 179 530 179 326 
C 179 57 480 -64 755 -64 
C 1062 -64 1280 179 1414 441 
C 1517 64 1837 -64 2074 -64 
C 2726 -64 3072 773 3072 913 
C 3072 945 3046 971 3008 971 
C 2950 971 2944 939 2925 888 
C 2752 326 2381 64 2093 64 
C 1869 64 1747 230 1747 492 
C 1747 632 1773 734 1875 1156 
L 2099 2024 
C 2195 2408 2413 2689 2707 2689 
C 2720 2689 2899 2689 3034 2606 
z
" transform="scale(0.015625)"/>
      </defs>
      <use xlink:href="#CMMI12-78" transform="scale(0.996264)"/>
     </g>
    </g>
   </g>
   <g id="matplotlib.axis_2">
    <g id="text_2">
     <!-- $y$ -->
     <g transform="translate(137.930756 18.451022) scale(0.3 -0.3)">
      <defs>
       <path id="CMMI12-79" d="M 1683 -700 
C 1510 -939 1261 -1152 947 -1152 
C 870 -1152 563 -1152 467 -889 
C 486 -895 518 -895 531 -895 
C 723 -895 851 -729 851 -582 
C 851 -435 730 -384 634 -384 
C 531 -384 307 -458 307 -759 
C 307 -1071 582 -1286 947 -1286 
C 1587 -1286 2234 -700 2413 6 
L 3040 2485 
C 3046 2517 3059 2556 3059 2594 
C 3059 2689 2982 2753 2886 2753 
C 2829 2753 2694 2727 2643 2535 
L 2170 658 
C 2138 543 2138 530 2086 460 
C 1958 281 1747 64 1440 64 
C 1082 64 1050 415 1050 588 
C 1050 952 1222 1443 1395 1903 
C 1466 2088 1504 2178 1504 2305 
C 1504 2574 1312 2816 998 2816 
C 410 2816 173 1890 173 1839 
C 173 1814 198 1782 243 1782 
C 301 1782 307 1807 333 1897 
C 486 2433 730 2689 979 2689 
C 1037 2689 1146 2689 1146 2478 
C 1146 2312 1075 2127 979 1884 
C 666 1047 666 837 666 683 
C 666 77 1101 -64 1421 -64 
C 1606 -64 1837 -6 2061 230 
L 2067 224 
C 1971 -147 1907 -392 1683 -700 
z
" transform="scale(0.015625)"/>
      </defs>
      <use xlink:href="#CMMI12-79" transform="scale(0.996264)"/>
     </g>
    </g>
   </g>
   <g id="line2d_1">
    <defs>
     <path id="m5c1824e63b" d="M 3 0 
L -3 -3 
L -3 3 
z
" style="stroke: #000000; stroke-linejoin: miter"/>
    </defs>
    <g>
     <use xlink:href="#m5c1824e63b" x="447" y="127.776315" style="stroke: #000000; stroke-linejoin: miter"/>
    </g>
   </g>
   <g id="line2d_2">
    <defs>
     <path id="m6d97ae4001" d="M 0 -3 
L -3 3 
L 3 3 
z
" style="stroke: #000000; stroke-linejoin: miter"/>
    </defs>
    <g>
     <use xlink:href="#m6d97ae4001" x="156.2" y="24.264473" style="stroke: #000000; stroke-linejoin: miter"/>
    </g>
   </g>
   <g id="line2d_3">
    <path d="M 61.016653 346.6 
L 65.123115 326.223956 
L 69.155983 307.324247 
L 73.115103 289.821863 
L 77.000345 273.64063 
L 80.811606 258.707155 
L 84.548807 244.950804 
L 88.211922 232.303571 
L 91.800951 220.700151 
L 95.315973 210.077744 
L 98.75713 200.376093 
L 102.124669 191.537369 
L 105.418942 183.506181 
L 108.640429 176.229526 
L 111.78978 169.656718 
L 114.86784 163.739379 
L 117.875715 158.431366 
L 120.814768 153.688842 
L 123.68673 149.470182 
L 126.493732 145.736028 
L 129.238375 142.449318 
L 131.923829 139.575303 
L 134.553904 137.08164 
L 137.133124 134.9385 
L 139.666832 133.118671 
L 142.161228 131.597745 
L 144.623476 130.354265 
L 147.061649 129.369981 
L 149.484755 128.630022 
L 151.902661 128.12311 
L 154.326 127.841726 
L 156.765993 127.782232 
L 159.234338 127.944926 
L 161.743021 128.33404 
L 164.30421 128.957679 
L 166.930204 129.827743 
L 169.633377 130.959818 
L 172.4263 132.373132 
L 175.321869 134.090548 
L 178.333579 136.13869 
L 181.47591 138.548236 
L 184.764879 141.354452 
L 188.218854 144.598142 
L 191.859713 148.327165 
L 195.714666 152.598987 
L 199.819253 157.485097 
L 204.222602 163.078988 
L 208.9976 169.511911 
L 214.263289 176.987901 
L 220.244783 185.878149 
L 227.500581 197.080065 
L 239.483928 216.064857 
L 249.918794 232.426079 
L 256.411726 242.199649 
L 261.744298 249.83642 
L 266.389026 256.109811 
L 270.545938 261.359594 
L 274.324712 265.781768 
L 277.794572 269.507643 
L 281.003553 272.63406 
L 283.987417 275.237132 
L 286.774413 277.379298 
L 289.388043 279.113159 
L 291.848796 280.483621 
L 294.175249 281.529047 
L 296.384846 282.28184 
L 298.494358 282.768617 
L 300.520152 283.010159 
L 302.478217 283.021237 
L 304.384036 282.810436 
L 306.252311 282.380073 
L 308.096654 281.726258 
L 309.929206 280.839148 
L 311.760432 279.703319 
L 313.598925 278.29826 
L 315.451367 276.59888 
L 317.322528 274.576059 
L 319.215399 272.197084 
L 321.131254 269.426157 
L 323.069754 266.224851 
L 325.029041 262.552591 
L 327.005748 258.367267 
L 328.994986 253.625993 
L 330.990269 248.286142 
L 332.983368 242.306776 
L 334.964131 235.650551 
L 336.920168 228.286568 
L 338.836477 220.194368 
L 340.695003 211.369473 
L 342.474165 201.830948 
L 344.148315 191.632227 
L 345.687358 180.875507 
L 347.056741 169.730559 
L 348.218063 158.459737 
L 349.130738 147.453144 
L 349.754805 137.294913 
L 350.051889 129.026588 
L 350.06667 127.780527 
L 350.127924 131.005147 
L 350.471963 139.19614 
L 351.153113 149.967959 
L 352.211788 163.082926 
L 353.716356 178.869986 
L 355.791172 198.207502 
L 358.694502 223.074529 
L 363.179866 259.395449 
L 374.144532 346.6 
L 374.144532 346.6 
" clip-path="url(#p34fa2ce34a)" style="fill: none; stroke: #0072b2; stroke-width: 2.5; stroke-linecap: square"/>
   </g>
   <g id="patch_3">
    <path d="M 156.2 334.8 
L 156.2 24.264473 
" style="fill: none; stroke: #000000; stroke-width: 0.8; stroke-linejoin: miter; stroke-linecap: square"/>
   </g>
   <g id="patch_4">
    <path d="M 447 334.8 
L 447 24.264473 
" style="fill: none"/>
   </g>
   <g id="patch_5">
    <path d="M 10.8 127.776315 
L 447 127.776315 
" style="fill: none; stroke: #000000; stroke-width: 0.8; stroke-linejoin: miter; stroke-linecap: square"/>
   </g>
   <g id="patch_6">
    <path d="M 10.8 24.264473 
L 447 24.264473 
" style="fill: none"/>
   </g>
   <g id="text_3">
    <g id="patch_7">
     <path d="M 350.066667 56.329897 
L 368.732023 56.329897 
Q 377.732023 56.329897 377.732023 47.329897 
L 377.732023 20.760951 
Q 377.732023 11.760951 368.732023 11.760951 
L 350.066667 11.760951 
Q 341.066667 11.760951 341.066667 20.760951 
L 341.066667 47.329897 
Q 341.066667 56.329897 350.066667 56.329897 
z
" style="fill: #ffffff; stroke: #000000; stroke-linejoin: miter"/>
    </g>
    <!-- A -->
    <g transform="translate(350.066667 41.516447) scale(0.3 -0.3)">
     <defs>
      <path id="CMSS17-41" d="M 2272 4416 
L 1722 4416 
L 166 0 
L 653 0 
L 1101 1280 
L 2816 1280 
L 3270 0 
L 3827 0 
L 2272 4416 
z
M 2694 1637 
L 1222 1637 
C 1530 2528 1914 3638 1958 3925 
L 1965 3925 
C 2010 3663 2138 3281 2246 2956 
L 2694 1637 
z
" transform="scale(0.015625)"/>
     </defs>
     <use xlink:href="#CMSS17-41" transform="scale(0.996264)"/>
    </g>
   </g>
  </g>
 </g>
 <defs>
  <clipPath id="p34fa2ce34a">
   <rect x="10.8" y="24.264473" width="436.2" height="310.535527"/>
  </clipPath>
 </defs>
</svg>
