<?xml version="1.0" encoding="utf-8" standalone="no"?>
<!DOCTYPE svg PUBLIC "-//W3C//DTD SVG 1.1//EN"
  "http://www.w3.org/Graphics/SVG/1.1/DTD/svg11.dtd">
<svg xmlns:xlink="http://www.w3.org/1999/xlink" width="460.8pt" height="345.6pt" viewBox="0 0 460.8 345.6" xmlns="http://www.w3.org/2000/svg" version="1.1">
 <metadata>
  <rdf:RDF xmlns:dc="http://purl.org/dc/elements/1.1/" xmlns:cc="http://creativecommons.org/ns#" xmlns:rdf="http://www.w3.org/1999/02/22-rdf-syntax-ns#">
   <cc:Work>
    <dc:type rdf:resource="http://purl.org/dc/dcmitype/StillImage"/>
    <dc:date>2025-11-01T23:20:40.832525</dc:date>
    <dc:format>image/svg+xml</dc:format>
    <dc:creator>
     <cc:Agent>
      <dc:title>Matplotlib v3.9.1, https://matplotlib.org/</dc:title>
     </cc:Agent>
    </dc:creator>
   </cc:Work>
  </rdf:RDF>
 </metadata>
 <defs>
  <style type="text/css">*{stroke-linejoin: round; stroke-linecap: butt}</style>
 </defs>
 <g id="figure_1">
  <g id="patch_1">
   <path d="M 0 345.6 
L 460.8 345.6 
L 460.8 0 
L 0 0 
L 0 345.6 
z
" style="fill: none"/>
  </g>
  <g id="axes_1">
   <g id="patch_2">
    <path d="M 10.8 334.8 
L 447 334.8 
L 447 24.264473 
L 10.8 24.264473 
L 10.8 334.8 
z
" style="fill: none"/>
   </g>
   <g id="matplotlib.axis_1">
    <g id="text_1">
     <!-- $x$ -->
     <g transform="translate(430.369782 256.043653) scale(0.3 -0.3)">
      <defs>
       <path id="CMMI12-78" d="M 3034 2606 
C 2829 2567 2752 2414 2752 2293 
C 2752 2139 2874 2088 2963 2088 
C 3155 2088 3290 2254 3290 2427 
C 3290 2695 2982 2816 2714 2816 
C 2323 2816 2106 2433 2048 2312 
C 1901 2816 1504 2816 1389 2816 
C 736 2816 390 1980 390 1839 
C 390 1814 416 1782 461 1782 
C 512 1782 525 1820 538 1846 
C 755 2555 1184 2689 1370 2689 
C 1658 2689 1715 2420 1715 2267 
C 1715 2127 1677 1980 1600 1673 
L 1382 798 
C 1286 415 1101 64 762 64 
C 730 64 570 64 435 147 
C 666 192 717 383 717 460 
C 717 588 621 664 499 664 
C 346 664 179 530 179 326 
C 179 57 480 -64 755 -64 
C 1062 -64 1280 179 1414 441 
C 1517 64 1837 -64 2074 -64 
C 2726 -64 3072 773 3072 913 
C 3072 945 3046 971 3008 971 
C 2950 971 2944 939 2925 888 
C 2752 326 2381 64 2093 64 
C 1869 64 1747 230 1747 492 
C 1747 632 1773 734 1875 1156 
L 2099 2024 
C 2195 2408 2413 2689 2707 2689 
C 2720 2689 2899 2689 3034 2606 
z
" transform="scale(0.015625)"/>
      </defs>
      <use xlink:href="#CMMI12-78" transform="scale(0.996264)"/>
     </g>
    </g>
   </g>
   <g id="matplotlib.axis_2">
    <g id="text_2">
     <!-- $y$ -->
     <g transform="translate(137.930756 18.451022) scale(0.3 -0.3)">
      <defs>
       <path id="CMMI12-79" d="M 1683 -700 
C 1510 -939 1261 -1152 947 -1152 
C 870 -1152 563 -1152 467 -889 
C 486 -895 518 -895 531 -895 
C 723 -895 851 -729 851 -582 
C 851 -435 730 -384 634 -384 
C 531 -384 307 -458 307 -759 
C 307 -1071 582 -1286 947 -1286 
C 1587 -1286 2234 -700 2413 6 
L 3040 2485 
C 3046 2517 3059 2556 3059 2594 
C 3059 2689 2982 2753 2886 2753 
C 2829 2753 2694 2727 2643 2535 
L 2170 658 
C 2138 543 2138 530 2086 460 
C 1958 281 1747 64 1440 64 
C 1082 64 1050 415 1050 588 
C 1050 952 1222 1443 1395 1903 
C 1466 2088 1504 2178 1504 2305 
C 1504 2574 1312 2816 998 2816 
C 410 2816 173 1890 173 1839 
C 173 1814 198 1782 243 1782 
C 301 1782 307 1807 333 1897 
C 486 2433 730 2689 979 2689 
C 1037 2689 1146 2689 1146 2478 
C 1146 2312 1075 2127 979 1884 
C 666 1047 666 837 666 683 
C 666 77 1101 -64 1421 -64 
C 1606 -64 1837 -6 2061 230 
L 2067 224 
C 1971 -147 1907 -392 1683 -700 
z
" transform="scale(0.015625)"/>
      </defs>
      <use xlink:href="#CMMI12-79" transform="scale(0.996264)"/>
     </g>
    </g>
   </g>
   <g id="line2d_1">
    <defs>
     <path id="mdd86328442" d="M 3 0 
L -3 -3 
L -3 3 
z
" style="stroke: #000000; stroke-linejoin: miter"/>
    </defs>
    <g>
     <use xlink:href="#mdd86328442" x="447" y="231.288158" style="stroke: #000000; stroke-linejoin: miter"/>
    </g>
   </g>
   <g id="line2d_2">
    <defs>
     <path id="m9b1ac15019" d="M 0 -3 
L -3 3 
L 3 3 
z
" style="stroke: #000000; stroke-linejoin: miter"/>
    </defs>
    <g>
     <use xlink:href="#m9b1ac15019" x="156.2" y="24.264473" style="stroke: #000000; stroke-linejoin: miter"/>
    </g>
   </g>
   <g id="line2d_3">
    <path d="M 58.423516 -1 
L 62.575719 20.336231 
L 66.654423 40.145452 
L 70.659459 58.508434 
L 74.590694 75.503183 
L 78.448013 91.204833 
L 82.231324 105.68574 
L 85.940549 119.015471 
L 89.575689 131.261067 
L 93.136769 142.486873 
L 96.62388 152.754691 
L 100.037218 162.123899 
L 103.377041 170.651337 
L 106.643767 178.39154 
L 109.837929 185.396612 
L 112.960253 191.716382 
L 116.011677 197.398377 
L 118.993383 202.487843 
L 121.906892 207.027823 
L 124.754051 211.059046 
L 127.537172 214.620029 
L 130.259065 217.746969 
L 132.923121 220.473706 
L 135.533424 222.83166 
L 138.094782 224.849677 
L 140.612864 226.553937 
L 143.094235 227.96776 
L 145.546382 229.111406 
L 147.977756 230.001886 
L 150.397703 230.652733 
L 152.816376 231.073819 
L 155.244655 231.271212 
L 157.693969 231.247064 
L 160.176119 230.999592 
L 162.703197 230.523088 
L 165.287409 229.808007 
L 167.941079 228.841046 
L 170.676647 227.605241 
L 173.506776 226.08 
L 176.444556 224.241061 
L 179.503805 222.06031 
L 182.699514 219.505416 
L 186.048463 216.539164 
L 189.57018 213.118315 
L 193.288297 209.191754 
L 197.23274 204.697365 
L 201.443367 199.556593 
L 205.976674 193.664182 
L 210.919214 186.867302 
L 216.419197 178.91596 
L 222.780337 169.315012 
L 230.908536 156.618076 
L 252.262081 123.0616 
L 258.279546 114.143539 
L 263.35146 107.013261 
L 267.818 101.108008 
L 271.839662 96.150886 
L 275.509394 91.972582 
L 278.887957 88.455453 
L 282.018602 85.510619 
L 284.934178 83.067105 
L 287.66114 81.066042 
L 290.22181 79.457586 
L 292.635946 78.199092 
L 294.92167 77.254223 
L 297.096168 76.592501 
L 299.176054 76.189234 
L 301.17759 76.025616 
L 303.116597 76.088915 
L 305.00835 76.372626 
L 306.867227 76.876512 
L 308.706382 77.606478 
L 310.537427 78.574269 
L 312.370213 79.797057 
L 314.212696 81.296932 
L 316.070923 83.100382 
L 317.949052 85.237766 
L 319.849502 87.742883 
L 321.772988 90.652439 
L 323.718677 94.005658 
L 325.684204 97.843696 
L 327.665694 102.209001 
L 329.65774 107.144503 
L 331.653297 112.69245 
L 333.643536 118.892883 
L 335.617577 125.781303 
L 337.562214 133.385653 
L 339.46148 141.721789 
L 341.296216 150.787383 
L 343.043542 160.5533 
L 344.676353 170.95165 
L 346.163059 181.860181 
L 347.467716 193.081495 
L 348.550948 204.315435 
L 349.37204 215.118033 
L 349.89181 224.806765 
L 350.06667 231.283946 
L 350.130836 227.957696 
L 350.479854 219.719646 
L 351.166489 208.91166 
L 352.231457 195.758928 
L 353.743707 179.925311 
L 355.828845 160.521594 
L 358.748555 135.541236 
L 363.273165 98.926208 
L 375.807102 -1 
L 375.807102 -1 
" clip-path="url(#p0ebc60ff2f)" style="fill: none; stroke: #0072b2; stroke-width: 2.5; stroke-linecap: square"/>
   </g>
   <g id="patch_3">
    <path d="M 156.2 334.8 
L 156.2 24.264473 
" style="fill: none; stroke: #000000; stroke-width: 0.8; stroke-linejoin: miter; stroke-linecap: square"/>
   </g>
   <g id="patch_4">
    <path d="M 447 334.8 
L 447 24.264473 
" style="fill: none"/>
   </g>
   <g id="patch_5">
    <path d="M 10.8 231.288158 
L 447 231.288158 
" style="fill: none; stroke: #000000; stroke-width: 0.8; stroke-linejoin: miter; stroke-linecap: square"/>
   </g>
   <g id="patch_6">
    <path d="M 10.8 24.264473 
L 447 24.264473 
" style="fill: none"/>
   </g>
   <g id="text_3">
    <g id="patch_7">
     <path d="M 398.533333 125.337792 
L 417.234733 125.337792 
Q 426.234733 125.337792 426.234733 116.337792 
L 426.234733 89.768846 
Q 426.234733 80.768846 417.234733 80.768846 
L 398.533333 80.768846 
Q 389.533333 80.768846 389.533333 89.768846 
L 389.533333 116.337792 
Q 389.533333 125.337792 398.533333 125.337792 
z
" style="fill: #ffffff; stroke: #000000; stroke-linejoin: miter"/>
    </g>
    <!-- B -->
    <g transform="translate(398.533333 110.524341) scale(0.3 -0.3)">
     <defs>
      <path id="CMSS17-42" d="M 570 4416 
L 570 0 
L 2163 0 
C 3034 0 3667 574 3667 1200 
C 3667 1685 3251 2176 2502 2317 
C 3334 2558 3501 3040 3501 3313 
C 3501 3883 2874 4416 1997 4416 
L 570 4416 
z
M 1088 2496 
L 1088 4059 
L 1824 4059 
C 2483 4059 3002 3724 3002 3306 
C 3002 2926 2592 2496 1766 2496 
L 1088 2496 
z
M 1088 357 
L 1088 2107 
L 1939 2107 
C 2630 2107 3162 1679 3162 1206 
C 3162 772 2694 357 1984 357 
L 1088 357 
z
" transform="scale(0.015625)"/>
     </defs>
     <use xlink:href="#CMSS17-42" transform="scale(0.996264)"/>
    </g>
   </g>
  </g>
 </g>
 <defs>
  <clipPath id="p0ebc60ff2f">
   <rect x="10.8" y="24.264473" width="436.2" height="310.535527"/>
  </clipPath>
 </defs>
</svg>
