<?xml version="1.0" encoding="utf-8" standalone="no"?>
<!DOCTYPE svg PUBLIC "-//W3C//DTD SVG 1.1//EN"
  "http://www.w3.org/Graphics/SVG/1.1/DTD/svg11.dtd">
<svg xmlns:xlink="http://www.w3.org/1999/xlink" width="460.8pt" height="345.6pt" viewBox="0 0 460.8 345.6" xmlns="http://www.w3.org/2000/svg" version="1.1">
 <metadata>
  <rdf:RDF xmlns:dc="http://purl.org/dc/elements/1.1/" xmlns:cc="http://creativecommons.org/ns#" xmlns:rdf="http://www.w3.org/1999/02/22-rdf-syntax-ns#">
   <cc:Work>
    <dc:type rdf:resource="http://purl.org/dc/dcmitype/StillImage"/>
    <dc:date>2025-11-01T23:23:44.442019</dc:date>
    <dc:format>image/svg+xml</dc:format>
    <dc:creator>
     <cc:Agent>
      <dc:title>Matplotlib v3.9.1, https://matplotlib.org/</dc:title>
     </cc:Agent>
    </dc:creator>
   </cc:Work>
  </rdf:RDF>
 </metadata>
 <defs>
  <style type="text/css">*{stroke-linejoin: round; stroke-linecap: butt}</style>
 </defs>
 <g id="figure_1">
  <g id="patch_1">
   <path d="M 0 345.6 
L 460.8 345.6 
L 460.8 0 
L 0 0 
L 0 345.6 
z
" style="fill: none"/>
  </g>
  <g id="axes_1">
   <g id="patch_2">
    <path d="M 10.8 334.8 
L 447 334.8 
L 447 24.264473 
L 10.8 24.264473 
L 10.8 334.8 
z
" style="fill: none"/>
   </g>
   <g id="matplotlib.axis_1">
    <g id="text_1">
     <!-- $x$ -->
     <g transform="translate(430.369782 152.53181) scale(0.3 -0.3)">
      <defs>
       <path id="CMMI12-78" d="M 3034 2606 
C 2829 2567 2752 2414 2752 2293 
C 2752 2139 2874 2088 2963 2088 
C 3155 2088 3290 2254 3290 2427 
C 3290 2695 2982 2816 2714 2816 
C 2323 2816 2106 2433 2048 2312 
C 1901 2816 1504 2816 1389 2816 
C 736 2816 390 1980 390 1839 
C 390 1814 416 1782 461 1782 
C 512 1782 525 1820 538 1846 
C 755 2555 1184 2689 1370 2689 
C 1658 2689 1715 2420 1715 2267 
C 1715 2127 1677 1980 1600 1673 
L 1382 798 
C 1286 415 1101 64 762 64 
C 730 64 570 64 435 147 
C 666 192 717 383 717 460 
C 717 588 621 664 499 664 
C 346 664 179 530 179 326 
C 179 57 480 -64 755 -64 
C 1062 -64 1280 179 1414 441 
C 1517 64 1837 -64 2074 -64 
C 2726 -64 3072 773 3072 913 
C 3072 945 3046 971 3008 971 
C 2950 971 2944 939 2925 888 
C 2752 326 2381 64 2093 64 
C 1869 64 1747 230 1747 492 
C 1747 632 1773 734 1875 1156 
L 2099 2024 
C 2195 2408 2413 2689 2707 2689 
C 2720 2689 2899 2689 3034 2606 
z
" transform="scale(0.015625)"/>
      </defs>
      <use xlink:href="#CMMI12-78" transform="scale(0.996264)"/>
     </g>
    </g>
   </g>
   <g id="matplotlib.axis_2">
    <g id="text_2">
     <!-- $y$ -->
     <g transform="translate(137.930756 18.451022) scale(0.3 -0.3)">
      <defs>
       <path id="CMMI12-79" d="M 1683 -700 
C 1510 -939 1261 -1152 947 -1152 
C 870 -1152 563 -1152 467 -889 
C 486 -895 518 -895 531 -895 
C 723 -895 851 -729 851 -582 
C 851 -435 730 -384 634 -384 
C 531 -384 307 -458 307 -759 
C 307 -1071 582 -1286 947 -1286 
C 1587 -1286 2234 -700 2413 6 
L 3040 2485 
C 3046 2517 3059 2556 3059 2594 
C 3059 2689 2982 2753 2886 2753 
C 2829 2753 2694 2727 2643 2535 
L 2170 658 
C 2138 543 2138 530 2086 460 
C 1958 281 1747 64 1440 64 
C 1082 64 1050 415 1050 588 
C 1050 952 1222 1443 1395 1903 
C 1466 2088 1504 2178 1504 2305 
C 1504 2574 1312 2816 998 2816 
C 410 2816 173 1890 173 1839 
C 173 1814 198 1782 243 1782 
C 301 1782 307 1807 333 1897 
C 486 2433 730 2689 979 2689 
C 1037 2689 1146 2689 1146 2478 
C 1146 2312 1075 2127 979 1884 
C 666 1047 666 837 666 683 
C 666 77 1101 -64 1421 -64 
C 1606 -64 1837 -6 2061 230 
L 2067 224 
C 1971 -147 1907 -392 1683 -700 
z
" transform="scale(0.015625)"/>
      </defs>
      <use xlink:href="#CMMI12-79" transform="scale(0.996264)"/>
     </g>
    </g>
   </g>
   <g id="line2d_1">
    <defs>
     <path id="m15bbbf67b5" d="M 3 0 
L -3 -3 
L -3 3 
z
" style="stroke: #000000; stroke-linejoin: miter"/>
    </defs>
    <g>
     <use xlink:href="#m15bbbf67b5" x="447" y="127.776315" style="stroke: #000000; stroke-linejoin: miter"/>
    </g>
   </g>
   <g id="line2d_2">
    <defs>
     <path id="m85bb9474b6" d="M 0 -3 
L -3 3 
L 3 3 
z
" style="stroke: #000000; stroke-linejoin: miter"/>
    </defs>
    <g>
     <use xlink:href="#m85bb9474b6" x="156.2" y="24.264473" style="stroke: #000000; stroke-linejoin: miter"/>
    </g>
   </g>
   <g id="line2d_3">
    <path d="M 30.169303 346.6 
L 35.159731 328.558544 
L 40.065961 311.646533 
L 44.888155 295.813546 
L 49.626572 281.010361 
L 54.281444 267.189371 
L 58.853118 254.304143 
L 63.34194 242.309771 
L 67.748372 231.162563 
L 72.072905 220.820285 
L 76.316147 211.241962 
L 80.47879 202.387965 
L 84.561643 194.21998 
L 88.56566 186.700973 
L 92.491938 179.795232 
L 96.34172 173.468398 
L 100.116508 167.687321 
L 103.817976 162.420256 
L 107.448091 157.636744 
L 111.009075 153.307721 
L 114.50353 149.405449 
L 117.934373 145.903664 
L 121.304954 142.777542 
L 124.619058 140.003791 
L 127.880961 137.560707 
L 131.095459 135.428257 
L 134.267895 133.588174 
L 137.404162 132.02406 
L 140.510761 130.721472 
L 143.594683 129.668075 
L 146.663496 128.853696 
L 149.725261 128.270443 
L 152.788441 127.912796 
L 155.861847 127.777649 
L 158.954609 127.864357 
L 162.076028 128.174744 
L 165.23555 128.713098 
L 168.44271 129.486137 
L 171.707097 130.502977 
L 175.038333 131.77508 
L 178.44618 133.316259 
L 181.940519 135.142644 
L 185.531577 137.272776 
L 189.229983 139.727653 
L 193.04715 142.531017 
L 196.995499 145.709623 
L 201.088983 149.293794 
L 205.343838 153.318336 
L 209.779447 157.82374 
L 214.419991 162.858402 
L 219.296928 168.482177 
L 224.453216 174.772549 
L 229.951398 181.836561 
L 235.890272 189.835704 
L 242.446202 199.047889 
L 250.005455 210.066785 
L 259.93006 224.957254 
L 278.32159 252.606718 
L 284.90924 262.056581 
L 290.218058 269.295754 
L 294.748277 275.108242 
L 298.71887 279.850949 
L 302.252671 283.734721 
L 305.428804 286.903562 
L 308.303228 289.465279 
L 310.918435 291.505568 
L 313.308603 293.095115 
L 315.502704 294.293441 
L 317.526451 295.150858 
L 319.403503 295.709313 
L 321.156277 296.002569 
L 322.806237 296.05593 
L 324.373923 295.885808 
L 325.878459 295.499366 
L 327.337063 294.894434 
L 328.764322 294.059853 
L 330.171764 292.976137 
L 331.567622 291.616348 
L 332.956865 289.946996 
L 334.341427 287.928811 
L 335.720472 285.517453 
L 337.090764 282.66395 
L 338.446929 279.315163 
L 339.781803 275.413879 
L 341.086576 270.899205 
L 342.351079 265.706364 
L 343.563871 259.766967 
L 344.71256 253.00804 
L 345.783972 245.350967 
L 346.764502 236.708202 
L 347.640398 226.97782 
L 348.398284 216.030566 
L 349.025653 203.684126 
L 349.511614 189.639473 
L 349.847557 173.315233 
L 350.028745 153.201886 
L 350.067889 119.682168 
L 350.192629 89.775892 
L 350.495263 70.442327 
L 350.976255 53.731994 
L 351.643923 38.208927 
L 352.512019 23.188991 
L 353.600563 8.216255 
L 354.379312 -1 
L 354.379312 -1 
" clip-path="url(#p054b97fa1f)" style="fill: none; stroke: #0072b2; stroke-width: 2.5; stroke-linecap: square"/>
   </g>
   <g id="patch_3">
    <path d="M 156.2 334.8 
L 156.2 24.264473 
" style="fill: none; stroke: #000000; stroke-width: 0.8; stroke-linejoin: miter; stroke-linecap: square"/>
   </g>
   <g id="patch_4">
    <path d="M 447 334.8 
L 447 24.264473 
" style="fill: none"/>
   </g>
   <g id="patch_5">
    <path d="M 10.8 127.776315 
L 447 127.776315 
" style="fill: none; stroke: #000000; stroke-width: 0.8; stroke-linejoin: miter; stroke-linecap: square"/>
   </g>
   <g id="patch_6">
    <path d="M 10.8 24.264473 
L 447 24.264473 
" style="fill: none"/>
   </g>
   <g id="text_3">
    <g id="patch_7">
     <path d="M 398.533333 56.329897 
L 416.490059 56.329897 
Q 425.490059 56.329897 425.490059 47.329897 
L 425.490059 20.760951 
Q 425.490059 11.760951 416.490059 11.760951 
L 398.533333 11.760951 
Q 389.533333 11.760951 389.533333 20.760951 
L 389.533333 47.329897 
Q 389.533333 56.329897 398.533333 56.329897 
z
" style="fill: #ffffff; stroke: #000000; stroke-linejoin: miter"/>
    </g>
    <!-- C -->
    <g transform="translate(398.533333 41.516447) scale(0.3 -0.3)">
     <defs>
      <path id="CMSS17-43" d="M 3501 714 
C 3072 427 2874 344 2355 344 
C 1459 344 934 1303 934 2179 
C 934 3112 1472 4032 2381 4032 
C 2790 4032 3059 3918 3386 3715 
L 3475 4217 
C 3168 4370 2778 4440 2387 4440 
C 1158 4440 397 3316 397 2179 
C 397 927 1299 -64 2323 -64 
C 2874 -64 3066 -19 3539 280 
L 3501 714 
z
" transform="scale(0.015625)"/>
     </defs>
     <use xlink:href="#CMSS17-43" transform="scale(0.996264)"/>
    </g>
   </g>
  </g>
 </g>
 <defs>
  <clipPath id="p054b97fa1f">
   <rect x="10.8" y="24.264473" width="436.2" height="310.535527"/>
  </clipPath>
 </defs>
</svg>
