<?xml version="1.0" encoding="utf-8" standalone="no"?>
<!DOCTYPE svg PUBLIC "-//W3C//DTD SVG 1.1//EN"
  "http://www.w3.org/Graphics/SVG/1.1/DTD/svg11.dtd">
<svg xmlns:xlink="http://www.w3.org/1999/xlink" width="460.8pt" height="345.6pt" viewBox="0 0 460.8 345.6" xmlns="http://www.w3.org/2000/svg" version="1.1">
 <metadata>
  <rdf:RDF xmlns:dc="http://purl.org/dc/elements/1.1/" xmlns:cc="http://creativecommons.org/ns#" xmlns:rdf="http://www.w3.org/1999/02/22-rdf-syntax-ns#">
   <cc:Work>
    <dc:type rdf:resource="http://purl.org/dc/dcmitype/StillImage"/>
    <dc:date>2025-11-01T23:25:53.247162</dc:date>
    <dc:format>image/svg+xml</dc:format>
    <dc:creator>
     <cc:Agent>
      <dc:title>Matplotlib v3.9.1, https://matplotlib.org/</dc:title>
     </cc:Agent>
    </dc:creator>
   </cc:Work>
  </rdf:RDF>
 </metadata>
 <defs>
  <style type="text/css">*{stroke-linejoin: round; stroke-linecap: butt}</style>
 </defs>
 <g id="figure_1">
  <g id="patch_1">
   <path d="M 0 345.6 
L 460.8 345.6 
L 460.8 0 
L 0 0 
L 0 345.6 
z
" style="fill: none"/>
  </g>
  <g id="axes_1">
   <g id="patch_2">
    <path d="M 10.8 334.8 
L 447 334.8 
L 447 24.264473 
L 10.8 24.264473 
L 10.8 334.8 
z
" style="fill: none"/>
   </g>
   <g id="matplotlib.axis_1">
    <g id="text_1">
     <!-- $x$ -->
     <g transform="translate(430.369782 256.043653) scale(0.3 -0.3)">
      <defs>
       <path id="CMMI12-78" d="M 3034 2606 
C 2829 2567 2752 2414 2752 2293 
C 2752 2139 2874 2088 2963 2088 
C 3155 2088 3290 2254 3290 2427 
C 3290 2695 2982 2816 2714 2816 
C 2323 2816 2106 2433 2048 2312 
C 1901 2816 1504 2816 1389 2816 
C 736 2816 390 1980 390 1839 
C 390 1814 416 1782 461 1782 
C 512 1782 525 1820 538 1846 
C 755 2555 1184 2689 1370 2689 
C 1658 2689 1715 2420 1715 2267 
C 1715 2127 1677 1980 1600 1673 
L 1382 798 
C 1286 415 1101 64 762 64 
C 730 64 570 64 435 147 
C 666 192 717 383 717 460 
C 717 588 621 664 499 664 
C 346 664 179 530 179 326 
C 179 57 480 -64 755 -64 
C 1062 -64 1280 179 1414 441 
C 1517 64 1837 -64 2074 -64 
C 2726 -64 3072 773 3072 913 
C 3072 945 3046 971 3008 971 
C 2950 971 2944 939 2925 888 
C 2752 326 2381 64 2093 64 
C 1869 64 1747 230 1747 492 
C 1747 632 1773 734 1875 1156 
L 2099 2024 
C 2195 2408 2413 2689 2707 2689 
C 2720 2689 2899 2689 3034 2606 
z
" transform="scale(0.015625)"/>
      </defs>
      <use xlink:href="#CMMI12-78" transform="scale(0.996264)"/>
     </g>
    </g>
   </g>
   <g id="matplotlib.axis_2">
    <g id="text_2">
     <!-- $y$ -->
     <g transform="translate(137.930756 18.451022) scale(0.3 -0.3)">
      <defs>
       <path id="CMMI12-79" d="M 1683 -700 
C 1510 -939 1261 -1152 947 -1152 
C 870 -1152 563 -1152 467 -889 
C 486 -895 518 -895 531 -895 
C 723 -895 851 -729 851 -582 
C 851 -435 730 -384 634 -384 
C 531 -384 307 -458 307 -759 
C 307 -1071 582 -1286 947 -1286 
C 1587 -1286 2234 -700 2413 6 
L 3040 2485 
C 3046 2517 3059 2556 3059 2594 
C 3059 2689 2982 2753 2886 2753 
C 2829 2753 2694 2727 2643 2535 
L 2170 658 
C 2138 543 2138 530 2086 460 
C 1958 281 1747 64 1440 64 
C 1082 64 1050 415 1050 588 
C 1050 952 1222 1443 1395 1903 
C 1466 2088 1504 2178 1504 2305 
C 1504 2574 1312 2816 998 2816 
C 410 2816 173 1890 173 1839 
C 173 1814 198 1782 243 1782 
C 301 1782 307 1807 333 1897 
C 486 2433 730 2689 979 2689 
C 1037 2689 1146 2689 1146 2478 
C 1146 2312 1075 2127 979 1884 
C 666 1047 666 837 666 683 
C 666 77 1101 -64 1421 -64 
C 1606 -64 1837 -6 2061 230 
L 2067 224 
C 1971 -147 1907 -392 1683 -700 
z
" transform="scale(0.015625)"/>
      </defs>
      <use xlink:href="#CMMI12-79" transform="scale(0.996264)"/>
     </g>
    </g>
   </g>
   <g id="line2d_1">
    <defs>
     <path id="mb7989f6523" d="M 3 0 
L -3 -3 
L -3 3 
z
" style="stroke: #000000; stroke-linejoin: miter"/>
    </defs>
    <g>
     <use xlink:href="#mb7989f6523" x="447" y="231.288158" style="stroke: #000000; stroke-linejoin: miter"/>
    </g>
   </g>
   <g id="line2d_2">
    <defs>
     <path id="m46d84d8f4a" d="M 0 -3 
L -3 3 
L 3 3 
z
" style="stroke: #000000; stroke-linejoin: miter"/>
    </defs>
    <g>
     <use xlink:href="#m46d84d8f4a" x="156.2" y="24.264473" style="stroke: #000000; stroke-linejoin: miter"/>
    </g>
   </g>
   <g id="line2d_3">
    <path d="M 26.590332 -1 
L 31.640374 17.871165 
L 36.606115 35.576355 
L 41.487703 52.167025 
L 46.285312 67.693193 
L 50.999204 82.20364 
L 55.629665 95.7457 
L 60.177015 108.365272 
L 64.641657 120.106975 
L 69.024025 131.013974 
L 73.324668 141.128202 
L 77.544221 150.490246 
L 81.683378 159.13928 
L 85.743034 167.11334 
L 89.724142 174.44899 
L 93.627858 181.181582 
L 97.455512 187.345142 
L 101.208633 192.972376 
L 104.888984 198.094664 
L 108.498588 202.742038 
L 112.039813 206.943226 
L 115.515317 210.725498 
L 118.928133 214.114696 
L 122.281757 217.135225 
L 125.580088 219.809896 
L 128.827576 222.159956 
L 132.029189 224.204934 
L 135.190387 225.962535 
L 138.317266 227.448611 
L 141.41647 228.676994 
L 144.495163 229.6594 
L 147.561058 230.405339 
L 150.622332 230.922015 
L 153.687592 231.214251 
L 156.765736 231.28443 
L 159.865922 231.132474 
L 162.997538 230.755834 
L 166.170032 230.149511 
L 169.392964 229.306077 
L 172.675927 228.215731 
L 176.028598 226.866313 
L 179.46074 225.24334 
L 182.98235 223.329973 
L 186.60374 221.106968 
L 190.335744 218.552545 
L 194.190003 215.642141 
L 198.179345 212.348014 
L 202.318328 208.638616 
L 206.62394 204.477683 
L 211.116835 199.822623 
L 215.822984 194.622163 
L 220.776649 188.812109 
L 226.025466 182.307895 
L 231.640242 174.990052 
L 237.736298 166.672296 
L 244.529604 157.017204 
L 252.539226 145.231062 
L 264.343685 127.414318 
L 277.350016 107.884033 
L 284.171748 98.043354 
L 289.603025 90.585957 
L 294.215633 84.619133 
L 298.248221 79.75611 
L 301.831681 75.773782 
L 305.049124 72.522002 
L 307.958763 69.889397 
L 310.604361 67.788049 
L 313.02099 66.145605 
L 315.238145 64.901288 
L 317.281853 64.003707 
L 319.176007 63.409879 
L 320.943139 63.085017 
L 322.604827 63.002741 
L 324.1817 63.145497 
L 325.69314 63.504957 
L 327.156626 64.08213 
L 328.587092 64.887075 
L 329.996498 65.938303 
L 331.393483 67.261872 
L 332.78339 68.890475 
L 334.16853 70.862707 
L 335.548384 73.222283 
L 336.920004 76.017619 
L 338.278307 79.30144 
L 339.616302 83.130382 
L 340.925379 87.564909 
L 342.195515 92.669249 
L 343.415442 98.511428 
L 344.572856 105.163698 
L 345.654668 112.70386 
L 346.647302 121.218004 
L 347.537006 130.805727 
L 348.310348 141.591958 
L 348.954704 153.750706 
L 349.458864 167.559043 
L 349.813931 183.546198 
L 350.014532 203.020692 
L 350.066646 229.225543 
L 350.17804 267.755467 
L 350.468368 287.381351 
L 350.936707 304.213786 
L 351.590942 319.793218 
L 352.444449 334.831836 
L 353.269208 346.6 
L 353.269208 346.6 
" clip-path="url(#p8c9947c2fc)" style="fill: none; stroke: #0072b2; stroke-width: 2.5; stroke-linecap: square"/>
   </g>
   <g id="patch_3">
    <path d="M 156.2 334.8 
L 156.2 24.264473 
" style="fill: none; stroke: #000000; stroke-width: 0.8; stroke-linejoin: miter; stroke-linecap: square"/>
   </g>
   <g id="patch_4">
    <path d="M 447 334.8 
L 447 24.264473 
" style="fill: none"/>
   </g>
   <g id="patch_5">
    <path d="M 10.8 231.288158 
L 447 231.288158 
" style="fill: none; stroke: #000000; stroke-width: 0.8; stroke-linejoin: miter; stroke-linecap: square"/>
   </g>
   <g id="patch_6">
    <path d="M 10.8 24.264473 
L 447 24.264473 
" style="fill: none"/>
   </g>
   <g id="text_3">
    <g id="patch_7">
     <path d="M 398.533333 73.581871 
L 418.796184 73.581871 
Q 427.796184 73.581871 427.796184 64.581871 
L 427.796184 38.012925 
Q 427.796184 29.012925 418.796184 29.012925 
L 398.533333 29.012925 
Q 389.533333 29.012925 389.533333 38.012925 
L 389.533333 64.581871 
Q 389.533333 73.581871 398.533333 73.581871 
z
" style="fill: #ffffff; stroke: #000000; stroke-linejoin: miter"/>
    </g>
    <!-- D -->
    <g transform="translate(398.533333 58.76842) scale(0.3 -0.3)">
     <defs>
      <path id="CMSS17-44" d="M 570 4416 
L 570 0 
L 2144 0 
C 3194 0 4000 980 4000 2170 
C 4000 3398 3194 4416 2144 4416 
L 570 4416 
z
M 1094 357 
L 1094 4059 
L 2003 4059 
C 2861 4059 3475 3277 3475 2170 
C 3475 1107 2867 357 2003 357 
L 1094 357 
z
" transform="scale(0.015625)"/>
     </defs>
     <use xlink:href="#CMSS17-44" transform="scale(0.996264)"/>
    </g>
   </g>
  </g>
 </g>
 <defs>
  <clipPath id="p8c9947c2fc">
   <rect x="10.8" y="24.264473" width="436.2" height="310.535527"/>
  </clipPath>
 </defs>
</svg>
