<?xml version="1.0" encoding="utf-8" standalone="no"?>
<!DOCTYPE svg PUBLIC "-//W3C//DTD SVG 1.1//EN"
  "http://www.w3.org/Graphics/SVG/1.1/DTD/svg11.dtd">
<svg xmlns:xlink="http://www.w3.org/1999/xlink" width="639.437054pt" height="244.538125pt" viewBox="0 0 639.437054 244.538125" xmlns="http://www.w3.org/2000/svg" version="1.1">
 <metadata>
  <rdf:RDF xmlns:dc="http://purl.org/dc/elements/1.1/" xmlns:cc="http://creativecommons.org/ns#" xmlns:rdf="http://www.w3.org/1999/02/22-rdf-syntax-ns#">
   <cc:Work>
    <dc:type rdf:resource="http://purl.org/dc/dcmitype/StillImage"/>
    <dc:date>2025-12-06T21:04:32.007615</dc:date>
    <dc:format>image/svg+xml</dc:format>
    <dc:creator>
     <cc:Agent>
      <dc:title>Matplotlib v3.9.1, https://matplotlib.org/</dc:title>
     </cc:Agent>
    </dc:creator>
   </cc:Work>
  </rdf:RDF>
 </metadata>
 <defs>
  <style type="text/css">*{stroke-linejoin: round; stroke-linecap: butt}</style>
 </defs>
 <g id="figure_1">
  <g id="patch_1">
   <path d="M 0 244.538125 
L 639.437054 244.538125 
L 639.437054 0 
L 0 0 
L 0 244.538125 
z
" style="fill: none"/>
  </g>
  <g id="axes_1">
   <g id="patch_2">
    <path d="M 15.418699 237.338125 
L 310.637054 237.338125 
L 310.637054 17.378125 
L 15.418699 17.378125 
L 15.418699 237.338125 
z
" style="fill: none"/>
   </g>
   <g id="matplotlib.axis_1">
    <g id="xtick_1">
     <g id="line2d_1">
      <path d="M 22 237.338125 
L 22 17.378125 
" clip-path="url(#pe3d67e7851)" style="fill: none; stroke-dasharray: 2.96,1.28; stroke-dashoffset: 0; stroke: #b0b0b0; stroke-opacity: 0.6; stroke-width: 0.8"/>
     </g>
     <g id="line2d_2">
      <defs>
       <path id="m4f94529223" d="M 0 0 
L 0 3.5 
" style="stroke: #000000; stroke-width: 0.8"/>
      </defs>
      <g>
       <use xlink:href="#m4f94529223" x="22" y="127.358125" style="stroke: #000000; stroke-width: 0.8"/>
      </g>
     </g>
     <g id="text_1">
      <!-- $-3$ -->
      <g transform="translate(7.2 149.555) scale(0.2 -0.2)">
       <defs>
        <path id="DejaVuSans-2212" d="M 678 2272 
L 4684 2272 
L 4684 1741 
L 678 1741 
L 678 2272 
z
" transform="scale(0.015625)"/>
        <path id="DejaVuSans-33" d="M 2597 2516 
Q 3050 2419 3304 2112 
Q 3559 1806 3559 1356 
Q 3559 666 3084 287 
Q 2609 -91 1734 -91 
Q 1441 -91 1130 -33 
Q 819 25 488 141 
L 488 750 
Q 750 597 1062 519 
Q 1375 441 1716 441 
Q 2309 441 2620 675 
Q 2931 909 2931 1356 
Q 2931 1769 2642 2001 
Q 2353 2234 1838 2234 
L 1294 2234 
L 1294 2753 
L 1863 2753 
Q 2328 2753 2575 2939 
Q 2822 3125 2822 3475 
Q 2822 3834 2567 4026 
Q 2313 4219 1838 4219 
Q 1578 4219 1281 4162 
Q 984 4106 628 3988 
L 628 4550 
Q 988 4650 1302 4700 
Q 1616 4750 1894 4750 
Q 2613 4750 3031 4423 
Q 3450 4097 3450 3541 
Q 3450 3153 3228 2886 
Q 3006 2619 2597 2516 
z
" transform="scale(0.015625)"/>
       </defs>
       <use xlink:href="#DejaVuSans-2212" transform="translate(0 0.78125)"/>
       <use xlink:href="#DejaVuSans-33" transform="translate(83.789062 0.78125)"/>
      </g>
     </g>
    </g>
    <g id="xtick_2">
     <g id="line2d_3">
      <path d="M 69.009292 237.338125 
L 69.009292 17.378125 
" clip-path="url(#pe3d67e7851)" style="fill: none; stroke-dasharray: 2.96,1.28; stroke-dashoffset: 0; stroke: #b0b0b0; stroke-opacity: 0.6; stroke-width: 0.8"/>
     </g>
     <g id="line2d_4">
      <g>
       <use xlink:href="#m4f94529223" x="69.009292" y="127.358125" style="stroke: #000000; stroke-width: 0.8"/>
      </g>
     </g>
     <g id="text_2">
      <!-- $-2$ -->
      <g transform="translate(54.209292 149.555) scale(0.2 -0.2)">
       <defs>
        <path id="DejaVuSans-32" d="M 1228 531 
L 3431 531 
L 3431 0 
L 469 0 
L 469 531 
Q 828 903 1448 1529 
Q 2069 2156 2228 2338 
Q 2531 2678 2651 2914 
Q 2772 3150 2772 3378 
Q 2772 3750 2511 3984 
Q 2250 4219 1831 4219 
Q 1534 4219 1204 4116 
Q 875 4013 500 3803 
L 500 4441 
Q 881 4594 1212 4672 
Q 1544 4750 1819 4750 
Q 2544 4750 2975 4387 
Q 3406 4025 3406 3419 
Q 3406 3131 3298 2873 
Q 3191 2616 2906 2266 
Q 2828 2175 2409 1742 
Q 1991 1309 1228 531 
z
" transform="scale(0.015625)"/>
       </defs>
       <use xlink:href="#DejaVuSans-2212" transform="translate(0 0.78125)"/>
       <use xlink:href="#DejaVuSans-32" transform="translate(83.789062 0.78125)"/>
      </g>
     </g>
    </g>
    <g id="xtick_3">
     <g id="line2d_5">
      <path d="M 116.018584 237.338125 
L 116.018584 17.378125 
" clip-path="url(#pe3d67e7851)" style="fill: none; stroke-dasharray: 2.96,1.28; stroke-dashoffset: 0; stroke: #b0b0b0; stroke-opacity: 0.6; stroke-width: 0.8"/>
     </g>
     <g id="line2d_6">
      <g>
       <use xlink:href="#m4f94529223" x="116.018584" y="127.358125" style="stroke: #000000; stroke-width: 0.8"/>
      </g>
     </g>
     <g id="text_3">
      <!-- $-1$ -->
      <g transform="translate(101.218584 149.555) scale(0.2 -0.2)">
       <defs>
        <path id="DejaVuSans-31" d="M 794 531 
L 1825 531 
L 1825 4091 
L 703 3866 
L 703 4441 
L 1819 4666 
L 2450 4666 
L 2450 531 
L 3481 531 
L 3481 0 
L 794 0 
L 794 531 
z
" transform="scale(0.015625)"/>
       </defs>
       <use xlink:href="#DejaVuSans-2212" transform="translate(0 0.09375)"/>
       <use xlink:href="#DejaVuSans-31" transform="translate(83.789062 0.09375)"/>
      </g>
     </g>
    </g>
    <g id="xtick_4">
     <g id="line2d_7">
      <path d="M 210.037169 237.338125 
L 210.037169 17.378125 
" clip-path="url(#pe3d67e7851)" style="fill: none; stroke-dasharray: 2.96,1.28; stroke-dashoffset: 0; stroke: #b0b0b0; stroke-opacity: 0.6; stroke-width: 0.8"/>
     </g>
     <g id="line2d_8">
      <g>
       <use xlink:href="#m4f94529223" x="210.037169" y="127.358125" style="stroke: #000000; stroke-width: 0.8"/>
      </g>
     </g>
     <g id="text_4">
      <!-- $1$ -->
      <g transform="translate(203.637169 149.555) scale(0.2 -0.2)">
       <use xlink:href="#DejaVuSans-31" transform="translate(0 0.09375)"/>
      </g>
     </g>
    </g>
    <g id="xtick_5">
     <g id="line2d_9">
      <path d="M 257.046461 237.338125 
L 257.046461 17.378125 
" clip-path="url(#pe3d67e7851)" style="fill: none; stroke-dasharray: 2.96,1.28; stroke-dashoffset: 0; stroke: #b0b0b0; stroke-opacity: 0.6; stroke-width: 0.8"/>
     </g>
     <g id="line2d_10">
      <g>
       <use xlink:href="#m4f94529223" x="257.046461" y="127.358125" style="stroke: #000000; stroke-width: 0.8"/>
      </g>
     </g>
     <g id="text_5">
      <!-- $2$ -->
      <g transform="translate(250.646461 149.555) scale(0.2 -0.2)">
       <use xlink:href="#DejaVuSans-32" transform="translate(0 0.78125)"/>
      </g>
     </g>
    </g>
    <g id="xtick_6">
     <g id="line2d_11">
      <path d="M 304.055753 237.338125 
L 304.055753 17.378125 
" clip-path="url(#pe3d67e7851)" style="fill: none; stroke-dasharray: 2.96,1.28; stroke-dashoffset: 0; stroke: #b0b0b0; stroke-opacity: 0.6; stroke-width: 0.8"/>
     </g>
     <g id="line2d_12">
      <g>
       <use xlink:href="#m4f94529223" x="304.055753" y="127.358125" style="stroke: #000000; stroke-width: 0.8"/>
      </g>
     </g>
     <g id="text_6">
      <!-- $3$ -->
      <g transform="translate(297.655753 149.555) scale(0.2 -0.2)">
       <use xlink:href="#DejaVuSans-33" transform="translate(0 0.78125)"/>
      </g>
     </g>
    </g>
    <g id="text_7">
     <!-- $x$ -->
     <g transform="translate(298.637054 172.91125) scale(0.2 -0.2)">
      <defs>
       <path id="DejaVuSans-Oblique-78" d="M 3841 3500 
L 2234 1784 
L 3219 0 
L 2559 0 
L 1819 1388 
L 531 0 
L -166 0 
L 1556 1844 
L 641 3500 
L 1300 3500 
L 1972 2234 
L 3144 3500 
L 3841 3500 
z
" transform="scale(0.015625)"/>
      </defs>
      <use xlink:href="#DejaVuSans-Oblique-78" transform="translate(0 0.3125)"/>
     </g>
    </g>
   </g>
   <g id="matplotlib.axis_2">
    <g id="ytick_1">
     <g id="line2d_13">
      <path d="M 15.418699 200.678125 
L 310.637054 200.678125 
" clip-path="url(#pe3d67e7851)" style="fill: none; stroke-dasharray: 2.96,1.28; stroke-dashoffset: 0; stroke: #b0b0b0; stroke-opacity: 0.6; stroke-width: 0.8"/>
     </g>
     <g id="line2d_14">
      <defs>
       <path id="m1db8d6f078" d="M 0 0 
L -3.5 0 
" style="stroke: #000000; stroke-width: 0.8"/>
      </defs>
      <g>
       <use xlink:href="#m1db8d6f078" x="163.027877" y="200.678125" style="stroke: #000000; stroke-width: 0.8"/>
      </g>
     </g>
     <g id="text_8">
      <!-- $-2$ -->
      <g transform="translate(126.427877 208.276562) scale(0.2 -0.2)">
       <use xlink:href="#DejaVuSans-2212" transform="translate(0 0.78125)"/>
       <use xlink:href="#DejaVuSans-32" transform="translate(83.789062 0.78125)"/>
      </g>
     </g>
    </g>
    <g id="ytick_2">
     <g id="line2d_15">
      <path d="M 15.418699 164.018125 
L 310.637054 164.018125 
" clip-path="url(#pe3d67e7851)" style="fill: none; stroke-dasharray: 2.96,1.28; stroke-dashoffset: 0; stroke: #b0b0b0; stroke-opacity: 0.6; stroke-width: 0.8"/>
     </g>
     <g id="line2d_16">
      <g>
       <use xlink:href="#m1db8d6f078" x="163.027877" y="164.018125" style="stroke: #000000; stroke-width: 0.8"/>
      </g>
     </g>
     <g id="text_9">
      <!-- $-1$ -->
      <g transform="translate(126.427877 171.616562) scale(0.2 -0.2)">
       <use xlink:href="#DejaVuSans-2212" transform="translate(0 0.09375)"/>
       <use xlink:href="#DejaVuSans-31" transform="translate(83.789062 0.09375)"/>
      </g>
     </g>
    </g>
    <g id="ytick_3">
     <g id="line2d_17">
      <path d="M 15.418699 90.698125 
L 310.637054 90.698125 
" clip-path="url(#pe3d67e7851)" style="fill: none; stroke-dasharray: 2.96,1.28; stroke-dashoffset: 0; stroke: #b0b0b0; stroke-opacity: 0.6; stroke-width: 0.8"/>
     </g>
     <g id="line2d_18">
      <g>
       <use xlink:href="#m1db8d6f078" x="163.027877" y="90.698125" style="stroke: #000000; stroke-width: 0.8"/>
      </g>
     </g>
     <g id="text_10">
      <!-- $1$ -->
      <g transform="translate(143.227877 98.296562) scale(0.2 -0.2)">
       <use xlink:href="#DejaVuSans-31" transform="translate(0 0.09375)"/>
      </g>
     </g>
    </g>
    <g id="ytick_4">
     <g id="line2d_19">
      <path d="M 15.418699 54.038125 
L 310.637054 54.038125 
" clip-path="url(#pe3d67e7851)" style="fill: none; stroke-dasharray: 2.96,1.28; stroke-dashoffset: 0; stroke: #b0b0b0; stroke-opacity: 0.6; stroke-width: 0.8"/>
     </g>
     <g id="line2d_20">
      <g>
       <use xlink:href="#m1db8d6f078" x="163.027877" y="54.038125" style="stroke: #000000; stroke-width: 0.8"/>
      </g>
     </g>
     <g id="text_11">
      <!-- $2$ -->
      <g transform="translate(143.227877 61.636562) scale(0.2 -0.2)">
       <use xlink:href="#DejaVuSans-32" transform="translate(0 0.78125)"/>
      </g>
     </g>
    </g>
    <g id="text_12">
     <!-- $y$ -->
     <g transform="translate(110.427877 13.178125) scale(0.2 -0.2)">
      <defs>
       <path id="DejaVuSans-Oblique-79" d="M 1588 -325 
Q 1188 -997 936 -1164 
Q 684 -1331 294 -1331 
L -159 -1331 
L -63 -850 
L 269 -850 
Q 509 -850 678 -719 
Q 847 -588 1056 -206 
L 1234 128 
L 459 3500 
L 1069 3500 
L 1650 819 
L 3256 3500 
L 3859 3500 
L 1588 -325 
z
" transform="scale(0.015625)"/>
      </defs>
      <use xlink:href="#DejaVuSans-Oblique-79" transform="translate(0 0.3125)"/>
     </g>
    </g>
   </g>
   <g id="line2d_21">
    <defs>
     <path id="m61bd4997d3" d="M 3 0 
L -3 -3 
L -3 3 
z
" style="stroke: #000000; stroke-linejoin: miter"/>
    </defs>
    <g>
     <use xlink:href="#m61bd4997d3" x="310.637054" y="127.358125" style="stroke: #000000; stroke-linejoin: miter"/>
    </g>
   </g>
   <g id="line2d_22">
    <defs>
     <path id="mf89657c3a1" d="M 0 -3 
L -3 3 
L 3 3 
z
" style="stroke: #000000; stroke-linejoin: miter"/>
    </defs>
    <g>
     <use xlink:href="#mf89657c3a1" x="163.027877" y="17.378125" style="stroke: #000000; stroke-linejoin: miter"/>
    </g>
   </g>
   <g id="line2d_23">
    <path d="M 15.418699 127.299738 
L 25.872096 119.007614 
L 31.351118 114.368955 
L 35.820847 110.296178 
L 39.641744 106.519871 
L 43.030086 102.867774 
L 46.130059 99.204717 
L 48.941662 95.546591 
L 51.609081 91.706902 
L 54.060222 87.785218 
L 56.367179 83.668432 
L 58.529951 79.346294 
L 60.548538 74.81444 
L 62.495033 69.882669 
L 64.297343 64.708858 
L 66.02756 59.06123 
L 67.685685 52.870906 
L 69.271718 46.058219 
L 70.785658 38.530896 
L 72.227506 30.182 
L 73.597261 20.887695 
L 74.894924 10.504894 
L 76.107783 -1 
M 103.325978 245.538125 
L 104.669083 234.60885 
L 106.038839 225.197689 
L 107.480687 216.752993 
L 108.994627 209.146723 
L 110.58066 202.268649 
L 112.238785 196.023899 
L 114.041095 190.10923 
L 115.915497 184.729022 
L 117.861992 179.809448 
L 119.952671 175.135823 
L 122.115443 170.839057 
L 124.422399 166.744222 
L 126.873541 162.841433 
L 129.540959 159.018341 
L 132.352563 155.374272 
L 135.452536 151.723573 
L 138.840878 148.082088 
L 142.589683 144.383252 
L 146.843134 140.503263 
L 151.889602 136.210542 
L 158.45001 130.939484 
L 175.824277 117.124894 
L 180.798652 112.799464 
L 184.980011 108.875422 
L 188.656723 105.123755 
L 191.972973 101.421749 
L 195.000854 97.70401 
L 197.740365 93.990487 
L 200.263598 90.203959 
L 202.642647 86.236122 
L 204.877512 82.07533 
L 206.968191 77.714927 
L 208.986778 72.975621 
L 210.86118 68.000296 
L 212.66349 62.57027 
L 214.393708 56.616869 
L 215.97974 50.365068 
L 217.493681 43.510885 
L 218.935529 35.973399 
L 220.305284 27.661473 
L 221.675039 17.918458 
L 222.972703 6.984125 
L 223.791796 -1 
M 251.009972 245.538125 
L 252.314307 234.898957 
L 253.684063 225.444157 
L 255.125911 216.963722 
L 256.639851 209.32803 
L 258.225883 202.425606 
L 259.884009 196.160605 
L 261.686318 190.228382 
L 263.560721 184.833581 
L 265.507215 179.90181 
L 267.597895 175.217612 
L 269.760667 170.911995 
L 272.067623 166.809502 
L 274.518765 162.90012 
L 277.186183 159.071236 
L 279.997787 155.422261 
L 283.09776 151.767248 
L 286.486102 148.122058 
L 290.234907 144.420072 
L 294.488358 140.537442 
L 299.534825 136.24259 
L 306.095233 130.970051 
L 310.637054 127.416512 
L 310.637054 127.416512 
" clip-path="url(#pe3d67e7851)" style="fill: none; stroke: #0072b2; stroke-width: 2.5; stroke-linecap: square"/>
   </g>
   <g id="patch_3">
    <path d="M 163.027877 237.338125 
L 163.027877 17.378125 
" style="fill: none; stroke: #000000; stroke-width: 0.8; stroke-linejoin: miter; stroke-linecap: square"/>
   </g>
   <g id="patch_4">
    <path d="M 310.637054 237.338125 
L 310.637054 17.378125 
" style="fill: none"/>
   </g>
   <g id="patch_5">
    <path d="M 15.418699 127.358125 
L 310.637054 127.358125 
" style="fill: none; stroke: #000000; stroke-width: 0.8; stroke-linejoin: miter; stroke-linecap: square"/>
   </g>
   <g id="patch_6">
    <path d="M 15.418699 17.378125 
L 310.637054 17.378125 
" style="fill: none"/>
   </g>
  </g>
  <g id="axes_2">
   <g id="patch_7">
    <path d="M 334.018699 237.338125 
L 629.237054 237.338125 
L 629.237054 17.378125 
L 334.018699 17.378125 
L 334.018699 237.338125 
z
" style="fill: none"/>
   </g>
   <g id="matplotlib.axis_3">
    <g id="xtick_7">
     <g id="line2d_24">
      <path d="M 340.6 237.338125 
L 340.6 17.378125 
" clip-path="url(#p292144f50d)" style="fill: none; stroke-dasharray: 2.96,1.28; stroke-dashoffset: 0; stroke: #b0b0b0; stroke-opacity: 0.6; stroke-width: 0.8"/>
     </g>
     <g id="line2d_25">
      <g>
       <use xlink:href="#m4f94529223" x="340.6" y="127.358125" style="stroke: #000000; stroke-width: 0.8"/>
      </g>
     </g>
     <g id="text_13">
      <!-- $-3$ -->
      <g transform="translate(325.8 149.555) scale(0.2 -0.2)">
       <use xlink:href="#DejaVuSans-2212" transform="translate(0 0.78125)"/>
       <use xlink:href="#DejaVuSans-33" transform="translate(83.789062 0.78125)"/>
      </g>
     </g>
    </g>
    <g id="xtick_8">
     <g id="line2d_26">
      <path d="M 387.609292 237.338125 
L 387.609292 17.378125 
" clip-path="url(#p292144f50d)" style="fill: none; stroke-dasharray: 2.96,1.28; stroke-dashoffset: 0; stroke: #b0b0b0; stroke-opacity: 0.6; stroke-width: 0.8"/>
     </g>
     <g id="line2d_27">
      <g>
       <use xlink:href="#m4f94529223" x="387.609292" y="127.358125" style="stroke: #000000; stroke-width: 0.8"/>
      </g>
     </g>
     <g id="text_14">
      <!-- $-2$ -->
      <g transform="translate(372.809292 149.555) scale(0.2 -0.2)">
       <use xlink:href="#DejaVuSans-2212" transform="translate(0 0.78125)"/>
       <use xlink:href="#DejaVuSans-32" transform="translate(83.789062 0.78125)"/>
      </g>
     </g>
    </g>
    <g id="xtick_9">
     <g id="line2d_28">
      <path d="M 434.618584 237.338125 
L 434.618584 17.378125 
" clip-path="url(#p292144f50d)" style="fill: none; stroke-dasharray: 2.96,1.28; stroke-dashoffset: 0; stroke: #b0b0b0; stroke-opacity: 0.6; stroke-width: 0.8"/>
     </g>
     <g id="line2d_29">
      <g>
       <use xlink:href="#m4f94529223" x="434.618584" y="127.358125" style="stroke: #000000; stroke-width: 0.8"/>
      </g>
     </g>
     <g id="text_15">
      <!-- $-1$ -->
      <g transform="translate(419.818584 149.555) scale(0.2 -0.2)">
       <use xlink:href="#DejaVuSans-2212" transform="translate(0 0.09375)"/>
       <use xlink:href="#DejaVuSans-31" transform="translate(83.789062 0.09375)"/>
      </g>
     </g>
    </g>
    <g id="xtick_10">
     <g id="line2d_30">
      <path d="M 528.637169 237.338125 
L 528.637169 17.378125 
" clip-path="url(#p292144f50d)" style="fill: none; stroke-dasharray: 2.96,1.28; stroke-dashoffset: 0; stroke: #b0b0b0; stroke-opacity: 0.6; stroke-width: 0.8"/>
     </g>
     <g id="line2d_31">
      <g>
       <use xlink:href="#m4f94529223" x="528.637169" y="127.358125" style="stroke: #000000; stroke-width: 0.8"/>
      </g>
     </g>
     <g id="text_16">
      <!-- $1$ -->
      <g transform="translate(522.237169 149.555) scale(0.2 -0.2)">
       <use xlink:href="#DejaVuSans-31" transform="translate(0 0.09375)"/>
      </g>
     </g>
    </g>
    <g id="xtick_11">
     <g id="line2d_32">
      <path d="M 575.646461 237.338125 
L 575.646461 17.378125 
" clip-path="url(#p292144f50d)" style="fill: none; stroke-dasharray: 2.96,1.28; stroke-dashoffset: 0; stroke: #b0b0b0; stroke-opacity: 0.6; stroke-width: 0.8"/>
     </g>
     <g id="line2d_33">
      <g>
       <use xlink:href="#m4f94529223" x="575.646461" y="127.358125" style="stroke: #000000; stroke-width: 0.8"/>
      </g>
     </g>
     <g id="text_17">
      <!-- $2$ -->
      <g transform="translate(569.246461 149.555) scale(0.2 -0.2)">
       <use xlink:href="#DejaVuSans-32" transform="translate(0 0.78125)"/>
      </g>
     </g>
    </g>
    <g id="xtick_12">
     <g id="line2d_34">
      <path d="M 622.655753 237.338125 
L 622.655753 17.378125 
" clip-path="url(#p292144f50d)" style="fill: none; stroke-dasharray: 2.96,1.28; stroke-dashoffset: 0; stroke: #b0b0b0; stroke-opacity: 0.6; stroke-width: 0.8"/>
     </g>
     <g id="line2d_35">
      <g>
       <use xlink:href="#m4f94529223" x="622.655753" y="127.358125" style="stroke: #000000; stroke-width: 0.8"/>
      </g>
     </g>
     <g id="text_18">
      <!-- $3$ -->
      <g transform="translate(616.255753 149.555) scale(0.2 -0.2)">
       <use xlink:href="#DejaVuSans-33" transform="translate(0 0.78125)"/>
      </g>
     </g>
    </g>
    <g id="text_19">
     <!-- $x$ -->
     <g transform="translate(617.237054 172.91125) scale(0.2 -0.2)">
      <use xlink:href="#DejaVuSans-Oblique-78" transform="translate(0 0.3125)"/>
     </g>
    </g>
   </g>
   <g id="matplotlib.axis_4">
    <g id="ytick_5">
     <g id="line2d_36">
      <path d="M 334.018699 200.678125 
L 629.237054 200.678125 
" clip-path="url(#p292144f50d)" style="fill: none; stroke-dasharray: 2.96,1.28; stroke-dashoffset: 0; stroke: #b0b0b0; stroke-opacity: 0.6; stroke-width: 0.8"/>
     </g>
     <g id="line2d_37">
      <g>
       <use xlink:href="#m1db8d6f078" x="481.627877" y="200.678125" style="stroke: #000000; stroke-width: 0.8"/>
      </g>
     </g>
     <g id="text_20">
      <!-- $-2$ -->
      <g transform="translate(445.027877 208.276562) scale(0.2 -0.2)">
       <use xlink:href="#DejaVuSans-2212" transform="translate(0 0.78125)"/>
       <use xlink:href="#DejaVuSans-32" transform="translate(83.789062 0.78125)"/>
      </g>
     </g>
    </g>
    <g id="ytick_6">
     <g id="line2d_38">
      <path d="M 334.018699 164.018125 
L 629.237054 164.018125 
" clip-path="url(#p292144f50d)" style="fill: none; stroke-dasharray: 2.96,1.28; stroke-dashoffset: 0; stroke: #b0b0b0; stroke-opacity: 0.6; stroke-width: 0.8"/>
     </g>
     <g id="line2d_39">
      <g>
       <use xlink:href="#m1db8d6f078" x="481.627877" y="164.018125" style="stroke: #000000; stroke-width: 0.8"/>
      </g>
     </g>
     <g id="text_21">
      <!-- $-1$ -->
      <g transform="translate(445.027877 171.616562) scale(0.2 -0.2)">
       <use xlink:href="#DejaVuSans-2212" transform="translate(0 0.09375)"/>
       <use xlink:href="#DejaVuSans-31" transform="translate(83.789062 0.09375)"/>
      </g>
     </g>
    </g>
    <g id="ytick_7">
     <g id="line2d_40">
      <path d="M 334.018699 90.698125 
L 629.237054 90.698125 
" clip-path="url(#p292144f50d)" style="fill: none; stroke-dasharray: 2.96,1.28; stroke-dashoffset: 0; stroke: #b0b0b0; stroke-opacity: 0.6; stroke-width: 0.8"/>
     </g>
     <g id="line2d_41">
      <g>
       <use xlink:href="#m1db8d6f078" x="481.627877" y="90.698125" style="stroke: #000000; stroke-width: 0.8"/>
      </g>
     </g>
     <g id="text_22">
      <!-- $1$ -->
      <g transform="translate(461.827877 98.296562) scale(0.2 -0.2)">
       <use xlink:href="#DejaVuSans-31" transform="translate(0 0.09375)"/>
      </g>
     </g>
    </g>
    <g id="ytick_8">
     <g id="line2d_42">
      <path d="M 334.018699 54.038125 
L 629.237054 54.038125 
" clip-path="url(#p292144f50d)" style="fill: none; stroke-dasharray: 2.96,1.28; stroke-dashoffset: 0; stroke: #b0b0b0; stroke-opacity: 0.6; stroke-width: 0.8"/>
     </g>
     <g id="line2d_43">
      <g>
       <use xlink:href="#m1db8d6f078" x="481.627877" y="54.038125" style="stroke: #000000; stroke-width: 0.8"/>
      </g>
     </g>
     <g id="text_23">
      <!-- $2$ -->
      <g transform="translate(461.827877 61.636562) scale(0.2 -0.2)">
       <use xlink:href="#DejaVuSans-32" transform="translate(0 0.78125)"/>
      </g>
     </g>
    </g>
    <g id="text_24">
     <!-- $y$ -->
     <g transform="translate(429.027877 13.178125) scale(0.2 -0.2)">
      <use xlink:href="#DejaVuSans-Oblique-79" transform="translate(0 0.3125)"/>
     </g>
    </g>
   </g>
   <g id="line2d_44">
    <g>
     <use xlink:href="#m61bd4997d3" x="629.237054" y="127.358125" style="stroke: #000000; stroke-linejoin: miter"/>
    </g>
   </g>
   <g id="line2d_45">
    <g>
     <use xlink:href="#mf89657c3a1" x="481.627877" y="17.378125" style="stroke: #000000; stroke-linejoin: miter"/>
    </g>
   </g>
   <g id="line2d_46">
    <path d="M 334.018699 164.018079 
L 337.695411 163.901446 
L 341.372123 163.561385 
L 345.048835 162.999974 
L 348.79764 162.203218 
L 352.618537 161.163272 
L 356.511526 159.874193 
L 360.5487 158.302098 
L 364.730059 156.433569 
L 369.127695 154.220666 
L 373.741608 151.646778 
L 378.715984 148.610678 
L 384.122913 145.042098 
L 390.178674 140.770214 
L 397.387914 135.400956 
L 408.273865 126.977558 
L 421.178404 117.054708 
L 428.315551 111.852201 
L 434.29922 107.760671 
L 439.634057 104.378269 
L 444.53634 101.529794 
L 449.150253 99.104715 
L 453.475797 97.077785 
L 457.657156 95.361782 
L 461.69433 93.944862 
L 465.587319 92.811692 
L 469.408216 91.929716 
L 473.15702 91.291698 
L 476.833732 90.888601 
L 480.510445 90.708482 
L 484.187157 90.75244 
L 487.863869 91.020209 
L 491.540581 91.51015 
L 495.289385 92.235337 
L 499.110282 93.204155 
L 503.003272 94.423136 
L 506.968353 95.89668 
L 511.07762 97.659703 
L 515.403163 99.760242 
L 519.944984 102.216763 
L 524.775175 105.085989 
L 530.037919 108.478496 
L 535.877403 112.517516 
L 542.654089 117.487111 
L 551.665638 124.394624 
L 570.049198 138.546341 
L 576.970068 143.546483 
L 582.809552 147.4971 
L 588.072297 150.793265 
L 592.902487 153.561219 
L 597.444308 155.912278 
L 601.769852 157.904068 
L 605.879118 159.557124 
L 609.916292 160.941793 
L 613.809282 162.042671 
L 617.630179 162.892031 
L 621.378983 163.497371 
L 625.055695 163.867967 
L 628.732407 164.015339 
L 629.237054 164.018079 
L 629.237054 164.018079 
" clip-path="url(#p292144f50d)" style="fill: none; stroke: #0072b2; stroke-width: 2.5; stroke-linecap: square"/>
   </g>
   <g id="patch_8">
    <path d="M 481.627877 237.338125 
L 481.627877 17.378125 
" style="fill: none; stroke: #000000; stroke-width: 0.8; stroke-linejoin: miter; stroke-linecap: square"/>
   </g>
   <g id="patch_9">
    <path d="M 629.237054 237.338125 
L 629.237054 17.378125 
" style="fill: none"/>
   </g>
   <g id="patch_10">
    <path d="M 334.018699 127.358125 
L 629.237054 127.358125 
" style="fill: none; stroke: #000000; stroke-width: 0.8; stroke-linejoin: miter; stroke-linecap: square"/>
   </g>
   <g id="patch_11">
    <path d="M 334.018699 17.378125 
L 629.237054 17.378125 
" style="fill: none"/>
   </g>
  </g>
 </g>
 <defs>
  <clipPath id="pe3d67e7851">
   <rect x="15.418699" y="17.378125" width="295.218355" height="219.96"/>
  </clipPath>
  <clipPath id="p292144f50d">
   <rect x="334.018699" y="17.378125" width="295.218355" height="219.96"/>
  </clipPath>
 </defs>
</svg>
