<?xml version="1.0" encoding="utf-8" standalone="no"?>
<!DOCTYPE svg PUBLIC "-//W3C//DTD SVG 1.1//EN"
  "http://www.w3.org/Graphics/SVG/1.1/DTD/svg11.dtd">
<svg xmlns:xlink="http://www.w3.org/1999/xlink" width="640.8pt" height="497.12pt" viewBox="0 0 640.8 497.12" xmlns="http://www.w3.org/2000/svg" version="1.1">
 <metadata>
  <rdf:RDF xmlns:dc="http://purl.org/dc/elements/1.1/" xmlns:cc="http://creativecommons.org/ns#" xmlns:rdf="http://www.w3.org/1999/02/22-rdf-syntax-ns#">
   <cc:Work>
    <dc:type rdf:resource="http://purl.org/dc/dcmitype/StillImage"/>
    <dc:date>2025-12-05T20:12:22.909267</dc:date>
    <dc:format>image/svg+xml</dc:format>
    <dc:creator>
     <cc:Agent>
      <dc:title>Matplotlib v3.9.1, https://matplotlib.org/</dc:title>
     </cc:Agent>
    </dc:creator>
   </cc:Work>
  </rdf:RDF>
 </metadata>
 <defs>
  <style type="text/css">*{stroke-linejoin: round; stroke-linecap: butt}</style>
 </defs>
 <g id="figure_1">
  <g id="patch_1">
   <path d="M 0 497.12 
L 640.8 497.12 
L 640.8 0 
L 0 0 
L 0 497.12 
z
" style="fill: none"/>
  </g>
  <g id="axes_1">
   <g id="patch_2">
    <path d="M 7.2 243.32 
L 312 243.32 
L 312 16.556315 
L 7.2 16.556315 
L 7.2 243.32 
z
" style="fill: none"/>
   </g>
   <g id="matplotlib.axis_1">
    <g id="text_1">
     <!-- $x$ -->
     <g transform="translate(300.913188 147.775154) scale(0.2 -0.2)">
      <defs>
       <path id="CMMI12-78" d="M 3034 2606 
C 2829 2567 2752 2414 2752 2293 
C 2752 2139 2874 2088 2963 2088 
C 3155 2088 3290 2254 3290 2427 
C 3290 2695 2982 2816 2714 2816 
C 2323 2816 2106 2433 2048 2312 
C 1901 2816 1504 2816 1389 2816 
C 736 2816 390 1980 390 1839 
C 390 1814 416 1782 461 1782 
C 512 1782 525 1820 538 1846 
C 755 2555 1184 2689 1370 2689 
C 1658 2689 1715 2420 1715 2267 
C 1715 2127 1677 1980 1600 1673 
L 1382 798 
C 1286 415 1101 64 762 64 
C 730 64 570 64 435 147 
C 666 192 717 383 717 460 
C 717 588 621 664 499 664 
C 346 664 179 530 179 326 
C 179 57 480 -64 755 -64 
C 1062 -64 1280 179 1414 441 
C 1517 64 1837 -64 2074 -64 
C 2726 -64 3072 773 3072 913 
C 3072 945 3046 971 3008 971 
C 2950 971 2944 939 2925 888 
C 2752 326 2381 64 2093 64 
C 1869 64 1747 230 1747 492 
C 1747 632 1773 734 1875 1156 
L 2099 2024 
C 2195 2408 2413 2689 2707 2689 
C 2720 2689 2899 2689 3034 2606 
z
" transform="scale(0.015625)"/>
      </defs>
      <use xlink:href="#CMMI12-78" transform="scale(0.996264)"/>
     </g>
    </g>
   </g>
   <g id="matplotlib.axis_2">
    <g id="text_2">
     <!-- $y$ -->
     <g transform="translate(146.087165 12.680682) scale(0.2 -0.2)">
      <defs>
       <path id="CMMI12-79" d="M 1683 -700 
C 1510 -939 1261 -1152 947 -1152 
C 870 -1152 563 -1152 467 -889 
C 486 -895 518 -895 531 -895 
C 723 -895 851 -729 851 -582 
C 851 -435 730 -384 634 -384 
C 531 -384 307 -458 307 -759 
C 307 -1071 582 -1286 947 -1286 
C 1587 -1286 2234 -700 2413 6 
L 3040 2485 
C 3046 2517 3059 2556 3059 2594 
C 3059 2689 2982 2753 2886 2753 
C 2829 2753 2694 2727 2643 2535 
L 2170 658 
C 2138 543 2138 530 2086 460 
C 1958 281 1747 64 1440 64 
C 1082 64 1050 415 1050 588 
C 1050 952 1222 1443 1395 1903 
C 1466 2088 1504 2178 1504 2305 
C 1504 2574 1312 2816 998 2816 
C 410 2816 173 1890 173 1839 
C 173 1814 198 1782 243 1782 
C 301 1782 307 1807 333 1897 
C 486 2433 730 2689 979 2689 
C 1037 2689 1146 2689 1146 2478 
C 1146 2312 1075 2127 979 1884 
C 666 1047 666 837 666 683 
C 666 77 1101 -64 1421 -64 
C 1606 -64 1837 -6 2061 230 
L 2067 224 
C 1971 -147 1907 -392 1683 -700 
z
" transform="scale(0.015625)"/>
      </defs>
      <use xlink:href="#CMMI12-79" transform="scale(0.996264)"/>
     </g>
    </g>
   </g>
   <g id="line2d_1">
    <defs>
     <path id="m9441bff022" d="M 3 0 
L -3 -3 
L -3 3 
z
" style="stroke: #000000; stroke-linejoin: miter"/>
    </defs>
    <g>
     <use xlink:href="#m9441bff022" x="312" y="129.938158" style="stroke: #000000; stroke-linejoin: miter"/>
    </g>
   </g>
   <g id="line2d_2">
    <defs>
     <path id="m983daaac21" d="M 0 -3 
L -3 3 
L 3 3 
z
" style="stroke: #000000; stroke-linejoin: miter"/>
    </defs>
    <g>
     <use xlink:href="#m983daaac21" x="159.6" y="16.556315" style="stroke: #000000; stroke-linejoin: miter"/>
    </g>
   </g>
   <g id="line2d_3">
    <path d="M 7.2 103.482394 
L 21.714286 102.507067 
L 33.84674 101.475314 
L 44.118388 100.384555 
L 52.901392 99.233279 
L 60.419048 98.030153 
L 66.969084 96.762541 
L 72.700366 95.431883 
L 77.761758 94.032038 
L 82.227692 92.570458 
L 86.247033 91.022271 
L 89.81978 89.410686 
L 93.020366 87.729508 
L 95.923223 85.961583 
L 98.602784 84.07373 
L 101.059048 82.07502 
L 103.366447 79.907365 
L 105.450549 77.650415 
L 107.46022 75.140879 
L 109.321026 72.45574 
L 111.032967 69.604446 
L 112.670476 66.452819 
L 114.233553 62.962211 
L 115.722198 59.088779 
L 117.13641 54.783018 
L 118.47619 49.989423 
L 119.741538 44.646411 
L 120.932454 38.686712 
L 122.12337 31.551603 
L 123.239853 23.454192 
L 124.281905 14.251806 
L 125.249524 3.78809 
L 125.631946 -1 
M 136.680576 498.12 
L 137.233114 427.536511 
L 137.903004 370.281075 
L 138.572894 330.56773 
L 139.317216 298.636596 
L 140.135971 272.761367 
L 141.029158 251.609953 
L 141.996777 234.164664 
L 142.964396 220.571414 
L 144.006447 208.932528 
L 145.12293 198.926598 
L 146.313846 190.286558 
L 147.504762 183.193265 
L 148.77011 176.927184 
L 150.10989 171.378889 
L 151.524103 166.453362 
L 153.012747 162.06862 
L 154.575824 158.154187 
L 156.213333 154.649585 
L 157.925275 151.502939 
L 159.711648 148.669731 
L 161.646886 146.0166 
L 163.656557 143.630406 
L 165.815092 141.405362 
L 168.122491 139.339998 
L 170.653187 137.375405 
L 173.407179 135.525635 
L 176.384469 133.797575 
L 179.659487 132.158146 
L 183.232234 130.619453 
L 187.251575 129.136146 
L 191.717509 127.731167 
L 196.704469 126.399546 
L 202.361319 125.124923 
L 208.762491 123.915838 
L 216.05685 122.768562 
L 224.467692 121.675844 
L 234.218315 120.639089 
L 245.606447 119.657977 
L 259.004249 118.732959 
L 274.932747 117.862384 
L 294.061832 117.046159 
L 312 116.440319 
L 312 116.440319 
" clip-path="url(#p8c83cbf43d)" style="fill: none; stroke: #0072b2; stroke-width: 2.5; stroke-linecap: square"/>
   </g>
   <g id="patch_3">
    <path d="M 159.6 243.32 
L 159.6 16.556315 
" style="fill: none; stroke: #000000; stroke-width: 0.8; stroke-linejoin: miter; stroke-linecap: square"/>
   </g>
   <g id="patch_4">
    <path d="M 312 243.32 
L 312 16.556315 
" style="fill: none"/>
   </g>
   <g id="patch_5">
    <path d="M 7.2 129.938158 
L 312 129.938158 
" style="fill: none; stroke: #000000; stroke-width: 0.8; stroke-linejoin: miter; stroke-linecap: square"/>
   </g>
   <g id="patch_6">
    <path d="M 7.2 16.556315 
L 312 16.556315 
" style="fill: none"/>
   </g>
   <g id="legend_1">
    <g id="patch_7">
     <path d="M 219.374426 60.431949 
L 298 60.431949 
Q 302 60.431949 302 56.431949 
L 302 30.556315 
Q 302 26.556315 298 26.556315 
L 219.374426 26.556315 
Q 215.374426 26.556315 215.374426 30.556315 
L 215.374426 56.431949 
Q 215.374426 60.431949 219.374426 60.431949 
z
" style="fill: #ffffff; opacity: 0.8; stroke: #cccccc; stroke-linejoin: miter"/>
    </g>
    <g id="line2d_4">
     <path d="M 223.374426 41.556315 
L 243.374426 41.556315 
L 263.374426 41.556315 
" style="fill: none; stroke: #0072b2; stroke-width: 2.5; stroke-linecap: square"/>
    </g>
    <g id="text_3">
     <!-- $A$ -->
     <g transform="translate(279.374426 48.556315) scale(0.2 -0.2)">
      <defs>
       <path id="CMMI12-41" d="M 1088 691 
C 864 314 646 186 339 186 
C 269 180 218 180 218 58 
C 218 24 250 0 294 0 
C 410 0 698 0 813 0 
C 998 0 1203 0 1382 0 
C 1421 0 1498 0 1498 122 
C 1498 180 1446 186 1408 186 
C 1261 186 1139 236 1139 388 
C 1139 476 1178 546 1261 685 
L 1747 1479 
L 3379 1479 
C 3386 1423 3386 1373 3392 1316 
C 3411 1152 3488 495 3488 376 
C 3488 186 3162 186 3059 186 
C 2989 186 2918 186 2918 70 
C 2918 0 2976 0 3014 0 
C 3123 0 3251 0 3360 0 
L 3725 0 
C 4115 0 4397 0 4403 0 
C 4448 0 4518 0 4518 122 
C 4518 186 4461 186 4365 186 
C 4013 186 4006 244 3987 434 
L 3597 4404 
C 3584 4531 3558 4544 3488 4544 
C 3424 4544 3386 4531 3328 4435 
L 1088 691 
z
M 1856 1664 
L 3142 3819 
L 3360 1664 
L 1856 1664 
z
" transform="scale(0.015625)"/>
      </defs>
      <use xlink:href="#CMMI12-41" transform="scale(0.996264)"/>
     </g>
    </g>
   </g>
  </g>
  <g id="axes_2">
   <g id="patch_8">
    <path d="M 325.8 243.32 
L 630.6 243.32 
L 630.6 16.556315 
L 325.8 16.556315 
L 325.8 243.32 
z
" style="fill: none"/>
   </g>
   <g id="matplotlib.axis_3">
    <g id="text_4">
     <!-- $x$ -->
     <g transform="translate(619.513188 147.775154) scale(0.2 -0.2)">
      <use xlink:href="#CMMI12-78" transform="scale(0.996264)"/>
     </g>
    </g>
   </g>
   <g id="matplotlib.axis_4">
    <g id="text_5">
     <!-- $y$ -->
     <g transform="translate(464.687165 12.680682) scale(0.2 -0.2)">
      <use xlink:href="#CMMI12-79" transform="scale(0.996264)"/>
     </g>
    </g>
   </g>
   <g id="line2d_5">
    <g>
     <use xlink:href="#m9441bff022" x="630.6" y="129.938158" style="stroke: #000000; stroke-linejoin: miter"/>
    </g>
   </g>
   <g id="line2d_6">
    <g>
     <use xlink:href="#m983daaac21" x="478.2" y="16.556315" style="stroke: #000000; stroke-linejoin: miter"/>
    </g>
   </g>
   <g id="line2d_7">
    <path d="M 325.8 133.177639 
L 349.767179 133.827511 
L 367.854212 134.531338 
L 381.77304 135.286976 
L 392.640147 136.090257 
L 401.348718 136.949677 
L 408.345348 137.856201 
L 414.07663 138.816518 
L 418.765861 139.818603 
L 422.710769 140.881069 
L 426.06022 142.008311 
L 428.888645 143.187127 
L 431.344908 144.445369 
L 433.503443 145.798901 
L 435.364249 147.21959 
L 437.07619 148.808702 
L 438.564835 150.487404 
L 439.904615 152.316615 
L 441.169963 154.417821 
L 442.360879 156.846717 
L 443.40293 159.463902 
L 444.370549 162.46066 
L 445.338168 166.219903 
L 446.231355 170.657414 
L 447.05011 175.92051 
L 447.794432 182.183577 
L 448.464322 189.643626 
L 449.134212 199.812381 
L 449.72967 212.557899 
L 450.250696 228.576686 
L 450.697289 248.609004 
L 451.143883 279.425436 
L 451.516044 321.461659 
L 451.813773 377.915537 
L 452.111502 483.171785 
L 452.137831 498.12 
M 454.566858 -1 
L 455.014359 26.498013 
L 455.609817 49.527186 
L 456.205275 64.525416 
L 456.875165 76.183178 
L 457.619487 85.361497 
L 458.438242 92.687236 
L 459.331429 98.615305 
L 460.299048 103.477627 
L 461.341099 107.518794 
L 462.457582 110.921282 
L 463.648498 113.82313 
L 464.913846 116.330366 
L 466.328059 118.63681 
L 467.891136 120.756125 
L 469.677509 122.793253 
L 471.761612 124.819256 
L 474.292308 126.960453 
L 478.162784 129.91047 
L 483.000879 133.642222 
L 485.457143 135.817216 
L 487.466813 137.890999 
L 489.178755 139.982661 
L 490.667399 142.157575 
L 492.007179 144.518786 
L 493.198095 147.069379 
L 494.314579 150.00332 
L 495.35663 153.412095 
L 496.324249 157.409311 
L 497.217436 162.136185 
L 498.03619 167.767254 
L 498.780513 174.514818 
L 499.450403 182.628597 
L 500.045861 192.383053 
L 500.641319 206.036118 
L 501.162344 223.427584 
L 501.608938 245.555633 
L 502.055531 280.453546 
L 502.427692 329.819533 
L 502.725421 399.539339 
L 502.955725 498.12 
M 505.499469 -1 
L 506.00044 25.4489 
L 506.595897 45.370271 
L 507.265788 60.063935 
L 507.935678 70.232689 
L 508.68 78.400956 
L 509.498755 85.020284 
L 510.391941 90.436302 
L 511.35956 94.91141 
L 512.401612 98.644787 
L 513.518095 101.788259 
L 514.709011 104.458313 
L 515.974359 106.745019 
L 517.314139 108.718602 
L 518.802784 110.516047 
L 520.440293 112.139069 
L 522.226667 113.597094 
L 524.236337 114.949079 
L 526.543736 116.223755 
L 529.148864 117.401369 
L 532.126154 118.499744 
L 535.624469 119.546559 
L 539.718242 120.532431 
L 544.556337 121.462933 
L 550.362051 122.346085 
L 557.358681 123.178638 
L 565.918388 123.965506 
L 576.487766 124.705238 
L 589.662271 125.396051 
L 606.409524 126.041477 
L 627.92044 126.637293 
L 630.6 126.698676 
L 630.6 126.698676 
" clip-path="url(#p4650c4d4f6)" style="fill: none; stroke: #0072b2; stroke-width: 2.5; stroke-linecap: square"/>
   </g>
   <g id="patch_9">
    <path d="M 478.2 243.32 
L 478.2 16.556315 
" style="fill: none; stroke: #000000; stroke-width: 0.8; stroke-linejoin: miter; stroke-linecap: square"/>
   </g>
   <g id="patch_10">
    <path d="M 630.6 243.32 
L 630.6 16.556315 
" style="fill: none"/>
   </g>
   <g id="patch_11">
    <path d="M 325.8 129.938158 
L 630.6 129.938158 
" style="fill: none; stroke: #000000; stroke-width: 0.8; stroke-linejoin: miter; stroke-linecap: square"/>
   </g>
   <g id="patch_12">
    <path d="M 325.8 16.556315 
L 630.6 16.556315 
" style="fill: none"/>
   </g>
   <g id="legend_2">
    <g id="patch_13">
     <path d="M 537.778399 60.431949 
L 616.6 60.431949 
Q 620.6 60.431949 620.6 56.431949 
L 620.6 30.556315 
Q 620.6 26.556315 616.6 26.556315 
L 537.778399 26.556315 
Q 533.778399 26.556315 533.778399 30.556315 
L 533.778399 56.431949 
Q 533.778399 60.431949 537.778399 60.431949 
z
" style="fill: #ffffff; opacity: 0.8; stroke: #cccccc; stroke-linejoin: miter"/>
    </g>
    <g id="line2d_8">
     <path d="M 541.778399 41.556315 
L 561.778399 41.556315 
L 581.778399 41.556315 
" style="fill: none; stroke: #0072b2; stroke-width: 2.5; stroke-linecap: square"/>
    </g>
    <g id="text_6">
     <!-- $B$ -->
     <g transform="translate(597.778399 48.556315) scale(0.2 -0.2)">
      <defs>
       <path id="CMMI12-42" d="M 2342 3921 
C 2400 4160 2426 4160 2675 4160 
L 3507 4160 
C 4230 4160 4230 3544 4230 3485 
C 4230 2966 3712 2304 2867 2304 
L 1946 2304 
L 2342 3921 
z
M 3424 2275 
C 4122 2402 4755 2886 4755 3473 
C 4755 3970 4314 4352 3590 4352 
L 1536 4352 
C 1414 4352 1357 4352 1357 4226 
C 1357 4160 1414 4160 1510 4160 
C 1901 4160 1901 4112 1901 4044 
C 1901 4032 1901 3993 1875 3897 
L 1011 472 
C 954 249 941 185 493 185 
C 371 185 307 185 307 70 
C 307 0 346 0 474 0 
L 2669 0 
C 3648 0 4403 739 4403 1383 
C 4403 1906 3942 2224 3424 2275 
z
M 2515 185 
L 1651 185 
C 1562 185 1549 185 1510 192 
C 1440 198 1434 211 1434 261 
C 1434 305 1446 343 1459 399 
L 1907 2176 
L 3110 2176 
C 3866 2176 3866 1483 3866 1433 
C 3866 828 3309 185 2515 185 
z
" transform="scale(0.015625)"/>
      </defs>
      <use xlink:href="#CMMI12-42" transform="scale(0.996264)"/>
     </g>
    </g>
   </g>
  </g>
  <g id="axes_3">
   <g id="patch_14">
    <path d="M 7.2 489.92 
L 312 489.92 
L 312 263.156315 
L 7.2 263.156315 
L 7.2 489.92 
z
" style="fill: none"/>
   </g>
   <g id="matplotlib.axis_5">
    <g id="text_7">
     <!-- $x$ -->
     <g transform="translate(300.913188 394.375154) scale(0.2 -0.2)">
      <use xlink:href="#CMMI12-78" transform="scale(0.996264)"/>
     </g>
    </g>
   </g>
   <g id="matplotlib.axis_6">
    <g id="text_8">
     <!-- $y$ -->
     <g transform="translate(146.087165 259.280682) scale(0.2 -0.2)">
      <use xlink:href="#CMMI12-79" transform="scale(0.996264)"/>
     </g>
    </g>
   </g>
   <g id="line2d_9">
    <g>
     <use xlink:href="#m9441bff022" x="312" y="376.538158" style="stroke: #000000; stroke-linejoin: miter"/>
    </g>
   </g>
   <g id="line2d_10">
    <g>
     <use xlink:href="#m983daaac21" x="159.6" y="263.156315" style="stroke: #000000; stroke-linejoin: miter"/>
    </g>
   </g>
   <g id="line2d_11">
    <path d="M 29.870314 -1 
L 34.963223 33.155695 
L 39.950183 65.128434 
L 44.862711 95.199534 
L 49.626374 123.009275 
L 54.315604 149.08614 
L 58.855971 173.107734 
L 63.321905 195.557427 
L 67.638974 216.148198 
L 71.881612 235.320256 
L 76.049817 253.129096 
L 80.069158 269.338003 
L 84.014066 284.326494 
L 87.81011 297.888684 
L 91.531722 310.365468 
L 95.104469 321.579848 
L 98.602784 331.836045 
L 101.952234 340.983997 
L 105.227253 349.293199 
L 108.353407 356.638579 
L 111.405128 363.256853 
L 114.382418 369.18794 
L 117.210842 374.341495 
L 119.964835 378.909122 
L 122.644396 382.926845 
L 125.175092 386.335152 
L 127.631355 389.284427 
L 130.013187 391.806803 
L 132.320586 393.933434 
L 134.553553 395.694505 
L 136.712088 397.119223 
L 138.79619 398.235826 
L 140.880293 399.097983 
L 142.889963 399.688374 
L 144.899634 400.04217 
L 146.834872 400.159251 
L 148.77011 400.056937 
L 150.705348 399.735231 
L 152.640586 399.19413 
L 154.650256 398.400006 
L 156.659927 397.369287 
L 158.744029 396.050492 
L 160.902564 394.41636 
L 163.135531 392.438654 
L 165.44293 390.088167 
L 167.824762 387.334714 
L 170.281026 384.14714 
L 172.811722 380.493315 
L 175.41685 376.340134 
L 178.170842 371.517332 
L 180.999267 366.101706 
L 183.902125 360.056256 
L 186.879414 353.343012 
L 190.005568 345.735236 
L 193.206154 337.353214 
L 196.555604 327.938728 
L 199.979487 317.635756 
L 203.477802 306.39951 
L 207.124982 293.921792 
L 210.846593 280.386175 
L 214.71707 265.448435 
L 218.661978 249.32038 
L 222.681319 231.950408 
L 226.849524 212.9375 
L 231.092161 192.539874 
L 235.483663 170.315944 
L 239.949597 146.556706 
L 244.564396 120.778058 
L 249.253626 93.305724 
L 254.091722 63.611139 
L 259.004249 32.056699 
L 263.929688 -1 
L 263.929688 -1 
" clip-path="url(#p363fa57d60)" style="fill: none; stroke: #0072b2; stroke-width: 2.5; stroke-linecap: square"/>
   </g>
   <g id="patch_15">
    <path d="M 159.6 489.92 
L 159.6 263.156315 
" style="fill: none; stroke: #000000; stroke-width: 0.8; stroke-linejoin: miter; stroke-linecap: square"/>
   </g>
   <g id="patch_16">
    <path d="M 312 489.92 
L 312 263.156315 
" style="fill: none"/>
   </g>
   <g id="patch_17">
    <path d="M 7.2 376.538158 
L 312 376.538158 
" style="fill: none; stroke: #000000; stroke-width: 0.8; stroke-linejoin: miter; stroke-linecap: square"/>
   </g>
   <g id="patch_18">
    <path d="M 7.2 263.156315 
L 312 263.156315 
" style="fill: none"/>
   </g>
   <g id="legend_3">
    <g id="patch_19">
     <path d="M 220.041602 307.031949 
L 298 307.031949 
Q 302 307.031949 302 303.031949 
L 302 277.156315 
Q 302 273.156315 298 273.156315 
L 220.041602 273.156315 
Q 216.041602 273.156315 216.041602 277.156315 
L 216.041602 303.031949 
Q 216.041602 307.031949 220.041602 307.031949 
z
" style="fill: #ffffff; opacity: 0.8; stroke: #cccccc; stroke-linejoin: miter"/>
    </g>
    <g id="line2d_12">
     <path d="M 224.041602 288.156315 
L 244.041602 288.156315 
L 264.041602 288.156315 
" style="fill: none; stroke: #0072b2; stroke-width: 2.5; stroke-linecap: square"/>
    </g>
    <g id="text_9">
     <!-- $C$ -->
     <g transform="translate(280.041602 295.156315) scale(0.2 -0.2)">
      <defs>
       <path id="CMMI12-43" d="M 4781 4423 
C 4781 4480 4736 4480 4723 4480 
C 4710 4480 4685 4480 4634 4416 
L 4192 3882 
C 3968 4264 3616 4480 3136 4480 
C 1754 4480 320 3088 320 1595 
C 320 533 1069 -128 2003 -128 
C 2515 -128 2963 88 3334 400 
C 3891 863 4058 1481 4058 1531 
C 4058 1588 4006 1588 3987 1588 
C 3930 1588 3923 1550 3910 1524 
C 3616 534 2752 57 2112 57 
C 1434 57 845 489 845 1391 
C 845 1595 909 2700 1632 3532 
C 1984 3939 2586 4295 3194 4295 
C 3898 4295 4211 3717 4211 3068 
C 4211 2903 4192 2764 4192 2738 
C 4192 2681 4256 2681 4275 2681 
C 4346 2681 4352 2687 4378 2801 
L 4781 4423 
z
" transform="scale(0.015625)"/>
      </defs>
      <use xlink:href="#CMMI12-43" transform="scale(0.996264)"/>
     </g>
    </g>
   </g>
  </g>
  <g id="axes_4">
   <g id="patch_20">
    <path d="M 325.8 489.92 
L 630.6 489.92 
L 630.6 263.156315 
L 325.8 263.156315 
L 325.8 489.92 
z
" style="fill: none"/>
   </g>
   <g id="matplotlib.axis_7">
    <g id="text_10">
     <!-- $x$ -->
     <g transform="translate(619.513188 394.375154) scale(0.2 -0.2)">
      <use xlink:href="#CMMI12-78" transform="scale(0.996264)"/>
     </g>
    </g>
   </g>
   <g id="matplotlib.axis_8">
    <g id="text_11">
     <!-- $y$ -->
     <g transform="translate(464.687165 259.280682) scale(0.2 -0.2)">
      <use xlink:href="#CMMI12-79" transform="scale(0.996264)"/>
     </g>
    </g>
   </g>
   <g id="line2d_13">
    <g>
     <use xlink:href="#m9441bff022" x="630.6" y="376.538158" style="stroke: #000000; stroke-linejoin: miter"/>
    </g>
   </g>
   <g id="line2d_14">
    <g>
     <use xlink:href="#m983daaac21" x="478.2" y="263.156315" style="stroke: #000000; stroke-linejoin: miter"/>
    </g>
   </g>
   <g id="line2d_15">
    <path d="M 325.8 359.260924 
L 345.971136 359.813168 
L 361.080879 360.439185 
L 372.841172 361.139375 
L 382.294066 361.917534 
L 390.035018 362.772386 
L 396.43619 363.696439 
L 401.869744 364.700375 
L 406.484542 365.772608 
L 410.503883 366.929754 
L 414.002198 368.162655 
L 417.128352 369.498435 
L 419.882344 370.913142 
L 422.338608 372.416846 
L 424.571575 374.036167 
L 426.655678 375.82257 
L 428.590916 377.782541 
L 430.377289 379.917688 
L 432.014799 382.222405 
L 433.577875 384.814602 
L 435.06652 387.73548 
L 436.480733 391.032465 
L 437.820513 394.759949 
L 439.085861 398.979948 
L 440.276777 403.762512 
L 441.39326 409.18564 
L 442.435311 415.334289 
L 443.477363 422.894732 
L 444.444982 431.642927 
L 445.338168 441.771278 
L 446.156923 453.487179 
L 446.975678 468.541434 
L 447.72 486.484187 
L 448.107981 498.12 
M 454.894432 -1 
L 455.38652 64.351624 
L 455.981978 116.254993 
L 456.651868 155.389931 
L 457.39619 185.412634 
L 458.140513 206.989686 
L 458.959267 224.620072 
L 459.852454 239.095164 
L 460.820073 251.039866 
L 461.787692 260.315242 
L 462.829744 268.197913 
L 463.871795 274.490855 
L 464.988278 279.923578 
L 466.104762 284.325359 
L 467.295678 288.141298 
L 468.486593 291.239462 
L 469.677509 293.758249 
L 470.868425 295.797728 
L 472.059341 297.431165 
L 473.250256 298.712443 
L 474.441172 299.680953 
L 475.632088 300.364842 
L 476.748571 300.764543 
L 477.865055 300.940403 
L 478.981538 300.89654 
L 480.098022 300.631931 
L 481.214505 300.140349 
L 482.330989 299.409995 
L 483.447473 298.422771 
L 484.638388 297.057647 
L 485.829304 295.328409 
L 487.02022 293.176867 
L 488.136703 290.706252 
L 489.253187 287.706921 
L 490.36967 284.058962 
L 491.486154 279.596498 
L 492.528205 274.490855 
L 493.570256 268.197913 
L 494.537875 260.942496 
L 495.431062 252.617026 
L 496.324249 242.143882 
L 497.143004 229.901658 
L 497.961758 214.004155 
L 498.706081 194.841364 
L 499.375971 171.735739 
L 499.971429 143.960019 
L 500.566886 105.197015 
L 501.087912 56.127042 
L 501.505568 -1 
M 508.292019 498.12 
L 508.977729 478.705976 
L 509.796484 461.200122 
L 510.68967 446.756803 
L 511.657289 434.765571 
L 512.624908 425.382885 
L 513.66696 417.331105 
L 514.783443 410.404212 
L 515.974359 404.427343 
L 517.165275 399.530255 
L 518.430623 395.217572 
L 519.770403 391.414771 
L 521.184615 388.056313 
L 522.67326 385.085032 
L 524.236337 382.451321 
L 525.873846 380.112255 
L 527.66022 377.947459 
L 529.595458 375.962132 
L 531.67956 374.154191 
L 533.912527 372.51666 
L 536.368791 370.997184 
L 539.048352 369.604018 
L 542.025641 368.308868 
L 545.375092 367.098532 
L 549.171136 365.969249 
L 553.488205 364.922409 
L 558.475165 363.94832 
L 564.280879 363.047839 
L 571.128645 362.218417 
L 579.31619 361.459273 
L 589.215678 360.772763 
L 601.496996 360.153703 
L 616.978901 359.606043 
L 630.6 359.260924 
L 630.6 359.260924 
" clip-path="url(#p9b740100c7)" style="fill: none; stroke: #0072b2; stroke-width: 2.5; stroke-linecap: square"/>
   </g>
   <g id="patch_21">
    <path d="M 478.2 489.92 
L 478.2 263.156315 
" style="fill: none; stroke: #000000; stroke-width: 0.8; stroke-linejoin: miter; stroke-linecap: square"/>
   </g>
   <g id="patch_22">
    <path d="M 630.6 489.92 
L 630.6 263.156315 
" style="fill: none"/>
   </g>
   <g id="patch_23">
    <path d="M 325.8 376.538158 
L 630.6 376.538158 
" style="fill: none; stroke: #000000; stroke-width: 0.8; stroke-linejoin: miter; stroke-linecap: square"/>
   </g>
   <g id="patch_24">
    <path d="M 325.8 263.156315 
L 630.6 263.156315 
" style="fill: none"/>
   </g>
   <g id="legend_4">
    <g id="patch_25">
     <path d="M 536.401163 307.031949 
L 616.6 307.031949 
Q 620.6 307.031949 620.6 303.031949 
L 620.6 277.156315 
Q 620.6 273.156315 616.6 273.156315 
L 536.401163 273.156315 
Q 532.401163 273.156315 532.401163 277.156315 
L 532.401163 303.031949 
Q 532.401163 307.031949 536.401163 307.031949 
z
" style="fill: #ffffff; opacity: 0.8; stroke: #cccccc; stroke-linejoin: miter"/>
    </g>
    <g id="line2d_16">
     <path d="M 540.401163 288.156315 
L 560.401163 288.156315 
L 580.401163 288.156315 
" style="fill: none; stroke: #0072b2; stroke-width: 2.5; stroke-linecap: square"/>
    </g>
    <g id="text_12">
     <!-- $D$ -->
     <g transform="translate(596.401163 295.156315) scale(0.2 -0.2)">
      <defs>
       <path id="CMMI12-44" d="M 1005 472 
C 947 249 934 185 486 185 
C 365 185 301 185 301 70 
C 301 0 339 0 467 0 
L 2496 0 
C 3789 0 5050 1332 5050 2753 
C 5050 3671 4499 4352 3584 4352 
L 1530 4352 
C 1408 4352 1350 4352 1350 4231 
C 1350 4167 1408 4167 1504 4167 
C 1894 4167 1894 4116 1894 4046 
C 1894 4034 1894 3995 1869 3899 
L 1005 472 
z
M 2355 3931 
C 2413 4167 2438 4167 2688 4167 
L 3392 4167 
C 3994 4167 4544 3842 4544 2963 
C 4544 2644 4416 1536 3795 835 
C 3616 625 3130 185 2394 185 
L 1664 185 
C 1574 185 1562 185 1523 192 
C 1453 198 1446 211 1446 262 
C 1446 307 1459 345 1472 402 
L 2355 3931 
z
" transform="scale(0.015625)"/>
      </defs>
      <use xlink:href="#CMMI12-44" transform="scale(0.996264)"/>
     </g>
    </g>
   </g>
  </g>
 </g>
 <defs>
  <clipPath id="p8c83cbf43d">
   <rect x="7.2" y="16.556315" width="304.8" height="226.763685"/>
  </clipPath>
  <clipPath id="p4650c4d4f6">
   <rect x="325.8" y="16.556315" width="304.8" height="226.763685"/>
  </clipPath>
  <clipPath id="p363fa57d60">
   <rect x="7.2" y="263.156315" width="304.8" height="226.763685"/>
  </clipPath>
  <clipPath id="p9b740100c7">
   <rect x="325.8" y="263.156315" width="304.8" height="226.763685"/>
  </clipPath>
 </defs>
</svg>
