<?xml version="1.0" encoding="utf-8" standalone="no"?>
<!DOCTYPE svg PUBLIC "-//W3C//DTD SVG 1.1//EN"
  "http://www.w3.org/Graphics/SVG/1.1/DTD/svg11.dtd">
<svg xmlns:xlink="http://www.w3.org/1999/xlink" width="977.117791pt" height="255.914132pt" viewBox="0 0 977.117791 255.914132" xmlns="http://www.w3.org/2000/svg" version="1.1">
 <metadata>
  <rdf:RDF xmlns:dc="http://purl.org/dc/elements/1.1/" xmlns:cc="http://creativecommons.org/ns#" xmlns:rdf="http://www.w3.org/1999/02/22-rdf-syntax-ns#">
   <cc:Work>
    <dc:type rdf:resource="http://purl.org/dc/dcmitype/StillImage"/>
    <dc:date>2025-12-05T20:12:24.249713</dc:date>
    <dc:format>image/svg+xml</dc:format>
    <dc:creator>
     <cc:Agent>
      <dc:title>Matplotlib v3.9.1, https://matplotlib.org/</dc:title>
     </cc:Agent>
    </dc:creator>
   </cc:Work>
  </rdf:RDF>
 </metadata>
 <defs>
  <style type="text/css">*{stroke-linejoin: round; stroke-linecap: butt}</style>
 </defs>
 <g id="figure_1">
  <g id="patch_1">
   <path d="M 0 255.914132 
L 977.117791 255.914132 
L 977.117791 -0 
L 0 -0 
L 0 255.914132 
z
" style="fill: none"/>
  </g>
  <g id="axes_1">
   <g id="patch_2">
    <path d="M 19.517791 237.92 
L 326.117791 237.92 
L 326.117791 16.556315 
L 19.517791 16.556315 
L 19.517791 237.92 
z
" style="fill: none"/>
   </g>
   <g id="matplotlib.axis_1">
    <g id="xtick_1">
     <g id="line2d_1">
      <path d="M 19.517791 237.92 
L 19.517791 16.556315 
" clip-path="url(#p9488a5d147)" style="fill: none; stroke-dasharray: 2.96,1.28; stroke-dashoffset: 0; stroke: #b0b0b0; stroke-opacity: 0.6; stroke-width: 0.8"/>
     </g>
     <g id="line2d_2">
      <defs>
       <path id="ma89307d3c2" d="M 0 0 
L 0 3.5 
" style="stroke: #000000; stroke-width: 0.8"/>
      </defs>
      <g>
       <use xlink:href="#ma89307d3c2" x="19.517791" y="164.132105" style="stroke: #000000; stroke-width: 0.8"/>
      </g>
     </g>
     <g id="text_1">
      <!-- $-5$ -->
      <g transform="translate(7.2 184.969102) scale(0.2 -0.2)">
       <defs>
        <path id="CMSY10-0" d="M 4218 1472 
C 4326 1472 4442 1472 4442 1600 
C 4442 1728 4326 1728 4218 1728 
L 755 1728 
C 646 1728 531 1728 531 1600 
C 531 1472 646 1472 755 1472 
L 4218 1472 
z
" transform="scale(0.015625)"/>
        <path id="CMR17-35" d="M 730 3692 
C 794 3666 1056 3584 1325 3584 
C 1920 3584 2246 3911 2432 4100 
C 2432 4157 2432 4192 2394 4192 
C 2387 4192 2374 4192 2323 4163 
C 2099 4058 1837 3973 1517 3973 
C 1325 3973 1037 3999 723 4139 
C 653 4171 640 4171 634 4171 
C 602 4171 595 4164 595 4037 
L 595 2203 
C 595 2089 595 2057 659 2057 
C 691 2057 704 2070 736 2114 
C 941 2401 1222 2522 1542 2522 
C 1766 2522 2246 2382 2246 1289 
C 2246 1085 2246 715 2054 421 
C 1894 159 1645 25 1370 25 
C 947 25 518 320 403 814 
C 429 807 480 795 506 795 
C 589 795 749 840 749 1038 
C 749 1210 627 1280 506 1280 
C 358 1280 262 1190 262 1011 
C 262 454 704 -128 1382 -128 
C 2042 -128 2669 440 2669 1264 
C 2669 2030 2170 2624 1549 2624 
C 1222 2624 947 2503 730 2274 
L 730 3692 
z
" transform="scale(0.015625)"/>
       </defs>
       <use xlink:href="#CMSY10-0" transform="scale(0.996264)"/>
       <use xlink:href="#CMR17-35" transform="translate(77.487468 0) scale(0.996264)"/>
      </g>
     </g>
    </g>
    <g id="xtick_2">
     <g id="line2d_3">
      <path d="M 50.177791 237.92 
L 50.177791 16.556315 
" clip-path="url(#p9488a5d147)" style="fill: none; stroke-dasharray: 2.96,1.28; stroke-dashoffset: 0; stroke: #b0b0b0; stroke-opacity: 0.6; stroke-width: 0.8"/>
     </g>
     <g id="line2d_4">
      <g>
       <use xlink:href="#ma89307d3c2" x="50.177791" y="164.132105" style="stroke: #000000; stroke-width: 0.8"/>
      </g>
     </g>
     <g id="text_2">
      <!-- $-4$ -->
      <g transform="translate(37.86 184.969102) scale(0.2 -0.2)">
       <defs>
        <path id="CMR17-34" d="M 2150 4122 
C 2150 4256 2144 4256 2029 4256 
L 128 1254 
L 128 1088 
L 1779 1088 
L 1779 457 
C 1779 224 1766 160 1318 160 
L 1197 160 
L 1197 0 
C 1402 0 1747 0 1965 0 
C 2182 0 2528 0 2733 0 
L 2733 160 
L 2611 160 
C 2163 160 2150 224 2150 457 
L 2150 1088 
L 2803 1088 
L 2803 1254 
L 2150 1254 
L 2150 4122 
z
M 1798 3703 
L 1798 1254 
L 256 1254 
L 1798 3703 
z
" transform="scale(0.015625)"/>
       </defs>
       <use xlink:href="#CMSY10-0" transform="scale(0.996264)"/>
       <use xlink:href="#CMR17-34" transform="translate(77.487468 0) scale(0.996264)"/>
      </g>
     </g>
    </g>
    <g id="xtick_3">
     <g id="line2d_5">
      <path d="M 80.837791 237.92 
L 80.837791 16.556315 
" clip-path="url(#p9488a5d147)" style="fill: none; stroke-dasharray: 2.96,1.28; stroke-dashoffset: 0; stroke: #b0b0b0; stroke-opacity: 0.6; stroke-width: 0.8"/>
     </g>
     <g id="line2d_6">
      <g>
       <use xlink:href="#ma89307d3c2" x="80.837791" y="164.132105" style="stroke: #000000; stroke-width: 0.8"/>
      </g>
     </g>
     <g id="text_3">
      <!-- $-3$ -->
      <g transform="translate(68.52 184.969102) scale(0.2 -0.2)">
       <defs>
        <path id="CMR17-33" d="M 1414 2157 
C 1984 2157 2234 1662 2234 1090 
C 2234 320 1824 25 1453 25 
C 1114 25 563 194 390 693 
C 422 680 454 680 486 680 
C 640 680 755 782 755 948 
C 755 1133 614 1216 486 1216 
C 378 1216 211 1165 211 926 
C 211 335 787 -128 1466 -128 
C 2176 -128 2720 430 2720 1085 
C 2720 1707 2208 2157 1600 2227 
C 2086 2328 2554 2756 2554 3329 
C 2554 3820 2048 4179 1472 4179 
C 890 4179 378 3829 378 3329 
C 378 3110 544 3072 627 3072 
C 762 3072 877 3155 877 3321 
C 877 3486 762 3569 627 3569 
C 602 3569 570 3569 544 3557 
C 730 3959 1235 4032 1459 4032 
C 1683 4032 2106 3925 2106 3320 
C 2106 3143 2080 2828 1862 2550 
C 1670 2304 1453 2304 1242 2284 
C 1210 2284 1062 2269 1037 2269 
C 992 2263 966 2257 966 2208 
C 966 2163 973 2157 1101 2157 
L 1414 2157 
z
" transform="scale(0.015625)"/>
       </defs>
       <use xlink:href="#CMSY10-0" transform="scale(0.996264)"/>
       <use xlink:href="#CMR17-33" transform="translate(77.487468 0) scale(0.996264)"/>
      </g>
     </g>
    </g>
    <g id="xtick_4">
     <g id="line2d_7">
      <path d="M 111.497791 237.92 
L 111.497791 16.556315 
" clip-path="url(#p9488a5d147)" style="fill: none; stroke-dasharray: 2.96,1.28; stroke-dashoffset: 0; stroke: #b0b0b0; stroke-opacity: 0.6; stroke-width: 0.8"/>
     </g>
     <g id="line2d_8">
      <g>
       <use xlink:href="#ma89307d3c2" x="111.497791" y="164.132105" style="stroke: #000000; stroke-width: 0.8"/>
      </g>
     </g>
     <g id="text_4">
      <!-- $-2$ -->
      <g transform="translate(99.18 184.969102) scale(0.2 -0.2)">
       <defs>
        <path id="CMR17-32" d="M 2669 989 
L 2554 989 
C 2490 536 2438 459 2413 420 
C 2381 369 1920 369 1830 369 
L 602 369 
C 832 619 1280 1072 1824 1597 
C 2214 1967 2669 2402 2669 3035 
C 2669 3790 2067 4224 1395 4224 
C 691 4224 262 3604 262 3030 
C 262 2780 448 2748 525 2748 
C 589 2748 781 2787 781 3010 
C 781 3207 614 3264 525 3264 
C 486 3264 448 3258 422 3245 
C 544 3790 915 4058 1306 4058 
C 1862 4058 2227 3617 2227 3035 
C 2227 2479 1901 2000 1536 1584 
L 262 146 
L 262 0 
L 2515 0 
L 2669 989 
z
" transform="scale(0.015625)"/>
       </defs>
       <use xlink:href="#CMSY10-0" transform="scale(0.996264)"/>
       <use xlink:href="#CMR17-32" transform="translate(77.487468 0) scale(0.996264)"/>
      </g>
     </g>
    </g>
    <g id="xtick_5">
     <g id="line2d_9">
      <path d="M 142.157791 237.92 
L 142.157791 16.556315 
" clip-path="url(#p9488a5d147)" style="fill: none; stroke-dasharray: 2.96,1.28; stroke-dashoffset: 0; stroke: #b0b0b0; stroke-opacity: 0.6; stroke-width: 0.8"/>
     </g>
     <g id="line2d_10">
      <g>
       <use xlink:href="#ma89307d3c2" x="142.157791" y="164.132105" style="stroke: #000000; stroke-width: 0.8"/>
      </g>
     </g>
     <g id="text_5">
      <!-- $-1$ -->
      <g transform="translate(129.84 184.969102) scale(0.2 -0.2)">
       <defs>
        <path id="CMR17-31" d="M 1702 4058 
C 1702 4192 1696 4192 1606 4192 
C 1357 3916 979 3827 621 3827 
C 602 3827 570 3827 563 3808 
C 557 3795 557 3782 557 3648 
C 755 3648 1088 3686 1344 3839 
L 1344 461 
C 1344 236 1331 160 781 160 
L 589 160 
L 589 0 
C 896 0 1216 0 1523 0 
C 1830 0 2150 0 2458 0 
L 2458 160 
L 2266 160 
C 1715 160 1702 230 1702 458 
L 1702 4058 
z
" transform="scale(0.015625)"/>
       </defs>
       <use xlink:href="#CMSY10-0" transform="scale(0.996264)"/>
       <use xlink:href="#CMR17-31" transform="translate(77.487468 0) scale(0.996264)"/>
      </g>
     </g>
    </g>
    <g id="xtick_6">
     <g id="line2d_11">
      <path d="M 203.477791 237.92 
L 203.477791 16.556315 
" clip-path="url(#p9488a5d147)" style="fill: none; stroke-dasharray: 2.96,1.28; stroke-dashoffset: 0; stroke: #b0b0b0; stroke-opacity: 0.6; stroke-width: 0.8"/>
     </g>
     <g id="line2d_12">
      <g>
       <use xlink:href="#ma89307d3c2" x="203.477791" y="164.132105" style="stroke: #000000; stroke-width: 0.8"/>
      </g>
     </g>
     <g id="text_6">
      <!-- $1$ -->
      <g transform="translate(198.908744 184.969102) scale(0.2 -0.2)">
       <use xlink:href="#CMR17-31" transform="scale(0.996264)"/>
      </g>
     </g>
    </g>
    <g id="xtick_7">
     <g id="line2d_13">
      <path d="M 234.137791 237.92 
L 234.137791 16.556315 
" clip-path="url(#p9488a5d147)" style="fill: none; stroke-dasharray: 2.96,1.28; stroke-dashoffset: 0; stroke: #b0b0b0; stroke-opacity: 0.6; stroke-width: 0.8"/>
     </g>
     <g id="line2d_14">
      <g>
       <use xlink:href="#ma89307d3c2" x="234.137791" y="164.132105" style="stroke: #000000; stroke-width: 0.8"/>
      </g>
     </g>
     <g id="text_7">
      <!-- $2$ -->
      <g transform="translate(229.568744 184.969102) scale(0.2 -0.2)">
       <use xlink:href="#CMR17-32" transform="scale(0.996264)"/>
      </g>
     </g>
    </g>
    <g id="xtick_8">
     <g id="line2d_15">
      <path d="M 264.797791 237.92 
L 264.797791 16.556315 
" clip-path="url(#p9488a5d147)" style="fill: none; stroke-dasharray: 2.96,1.28; stroke-dashoffset: 0; stroke: #b0b0b0; stroke-opacity: 0.6; stroke-width: 0.8"/>
     </g>
     <g id="line2d_16">
      <g>
       <use xlink:href="#ma89307d3c2" x="264.797791" y="164.132105" style="stroke: #000000; stroke-width: 0.8"/>
      </g>
     </g>
     <g id="text_8">
      <!-- $3$ -->
      <g transform="translate(260.228744 184.969102) scale(0.2 -0.2)">
       <use xlink:href="#CMR17-33" transform="scale(0.996264)"/>
      </g>
     </g>
    </g>
    <g id="xtick_9">
     <g id="line2d_17">
      <path d="M 295.457791 237.92 
L 295.457791 16.556315 
" clip-path="url(#p9488a5d147)" style="fill: none; stroke-dasharray: 2.96,1.28; stroke-dashoffset: 0; stroke: #b0b0b0; stroke-opacity: 0.6; stroke-width: 0.8"/>
     </g>
     <g id="line2d_18">
      <g>
       <use xlink:href="#ma89307d3c2" x="295.457791" y="164.132105" style="stroke: #000000; stroke-width: 0.8"/>
      </g>
     </g>
     <g id="text_9">
      <!-- $4$ -->
      <g transform="translate(290.888744 184.969102) scale(0.2 -0.2)">
       <use xlink:href="#CMR17-34" transform="scale(0.996264)"/>
      </g>
     </g>
    </g>
    <g id="xtick_10">
     <g id="line2d_19">
      <path d="M 326.117791 237.92 
L 326.117791 16.556315 
" clip-path="url(#p9488a5d147)" style="fill: none; stroke-dasharray: 2.96,1.28; stroke-dashoffset: 0; stroke: #b0b0b0; stroke-opacity: 0.6; stroke-width: 0.8"/>
     </g>
     <g id="line2d_20">
      <g>
       <use xlink:href="#ma89307d3c2" x="326.117791" y="164.132105" style="stroke: #000000; stroke-width: 0.8"/>
      </g>
     </g>
     <g id="text_10">
      <!-- $5$ -->
      <g transform="translate(321.548744 184.969102) scale(0.2 -0.2)">
       <use xlink:href="#CMR17-35" transform="scale(0.996264)"/>
      </g>
     </g>
    </g>
    <g id="text_11">
     <!-- $x$ -->
     <g transform="translate(315.03098 206.681732) scale(0.2 -0.2)">
      <defs>
       <path id="CMMI12-78" d="M 3034 2606 
C 2829 2567 2752 2414 2752 2293 
C 2752 2139 2874 2088 2963 2088 
C 3155 2088 3290 2254 3290 2427 
C 3290 2695 2982 2816 2714 2816 
C 2323 2816 2106 2433 2048 2312 
C 1901 2816 1504 2816 1389 2816 
C 736 2816 390 1980 390 1839 
C 390 1814 416 1782 461 1782 
C 512 1782 525 1820 538 1846 
C 755 2555 1184 2689 1370 2689 
C 1658 2689 1715 2420 1715 2267 
C 1715 2127 1677 1980 1600 1673 
L 1382 798 
C 1286 415 1101 64 762 64 
C 730 64 570 64 435 147 
C 666 192 717 383 717 460 
C 717 588 621 664 499 664 
C 346 664 179 530 179 326 
C 179 57 480 -64 755 -64 
C 1062 -64 1280 179 1414 441 
C 1517 64 1837 -64 2074 -64 
C 2726 -64 3072 773 3072 913 
C 3072 945 3046 971 3008 971 
C 2950 971 2944 939 2925 888 
C 2752 326 2381 64 2093 64 
C 1869 64 1747 230 1747 492 
C 1747 632 1773 734 1875 1156 
L 2099 2024 
C 2195 2408 2413 2689 2707 2689 
C 2720 2689 2899 2689 3034 2606 
z
" transform="scale(0.015625)"/>
      </defs>
      <use xlink:href="#CMMI12-78" transform="scale(0.996264)"/>
     </g>
    </g>
   </g>
   <g id="matplotlib.axis_2">
    <g id="ytick_1">
     <g id="line2d_21">
      <path d="M 19.517791 237.92 
L 326.117791 237.92 
" clip-path="url(#p9488a5d147)" style="fill: none; stroke-dasharray: 2.96,1.28; stroke-dashoffset: 0; stroke: #b0b0b0; stroke-opacity: 0.6; stroke-width: 0.8"/>
     </g>
     <g id="line2d_22">
      <defs>
       <path id="me664d23bf2" d="M 0 0 
L -3.5 0 
" style="stroke: #000000; stroke-width: 0.8"/>
      </defs>
      <g>
       <use xlink:href="#me664d23bf2" x="172.817791" y="237.92" style="stroke: #000000; stroke-width: 0.8"/>
      </g>
     </g>
     <g id="text_12">
      <!-- $-5$ -->
      <g transform="translate(141.182209 244.838498) scale(0.2 -0.2)">
       <use xlink:href="#CMSY10-0" transform="scale(0.996264)"/>
       <use xlink:href="#CMR17-35" transform="translate(77.487468 0) scale(0.996264)"/>
      </g>
     </g>
    </g>
    <g id="ytick_2">
     <g id="line2d_23">
      <path d="M 19.517791 223.162421 
L 326.117791 223.162421 
" clip-path="url(#p9488a5d147)" style="fill: none; stroke-dasharray: 2.96,1.28; stroke-dashoffset: 0; stroke: #b0b0b0; stroke-opacity: 0.6; stroke-width: 0.8"/>
     </g>
     <g id="line2d_24">
      <g>
       <use xlink:href="#me664d23bf2" x="172.817791" y="223.162421" style="stroke: #000000; stroke-width: 0.8"/>
      </g>
     </g>
     <g id="text_13">
      <!-- $-4$ -->
      <g transform="translate(141.182209 230.080919) scale(0.2 -0.2)">
       <use xlink:href="#CMSY10-0" transform="scale(0.996264)"/>
       <use xlink:href="#CMR17-34" transform="translate(77.487468 0) scale(0.996264)"/>
      </g>
     </g>
    </g>
    <g id="ytick_3">
     <g id="line2d_25">
      <path d="M 19.517791 208.404842 
L 326.117791 208.404842 
" clip-path="url(#p9488a5d147)" style="fill: none; stroke-dasharray: 2.96,1.28; stroke-dashoffset: 0; stroke: #b0b0b0; stroke-opacity: 0.6; stroke-width: 0.8"/>
     </g>
     <g id="line2d_26">
      <g>
       <use xlink:href="#me664d23bf2" x="172.817791" y="208.404842" style="stroke: #000000; stroke-width: 0.8"/>
      </g>
     </g>
     <g id="text_14">
      <!-- $-3$ -->
      <g transform="translate(141.182209 215.32334) scale(0.2 -0.2)">
       <use xlink:href="#CMSY10-0" transform="scale(0.996264)"/>
       <use xlink:href="#CMR17-33" transform="translate(77.487468 0) scale(0.996264)"/>
      </g>
     </g>
    </g>
    <g id="ytick_4">
     <g id="line2d_27">
      <path d="M 19.517791 193.647263 
L 326.117791 193.647263 
" clip-path="url(#p9488a5d147)" style="fill: none; stroke-dasharray: 2.96,1.28; stroke-dashoffset: 0; stroke: #b0b0b0; stroke-opacity: 0.6; stroke-width: 0.8"/>
     </g>
     <g id="line2d_28">
      <g>
       <use xlink:href="#me664d23bf2" x="172.817791" y="193.647263" style="stroke: #000000; stroke-width: 0.8"/>
      </g>
     </g>
     <g id="text_15">
      <!-- $-2$ -->
      <g transform="translate(141.182209 200.565761) scale(0.2 -0.2)">
       <use xlink:href="#CMSY10-0" transform="scale(0.996264)"/>
       <use xlink:href="#CMR17-32" transform="translate(77.487468 0) scale(0.996264)"/>
      </g>
     </g>
    </g>
    <g id="ytick_5">
     <g id="line2d_29">
      <path d="M 19.517791 178.889684 
L 326.117791 178.889684 
" clip-path="url(#p9488a5d147)" style="fill: none; stroke-dasharray: 2.96,1.28; stroke-dashoffset: 0; stroke: #b0b0b0; stroke-opacity: 0.6; stroke-width: 0.8"/>
     </g>
     <g id="line2d_30">
      <g>
       <use xlink:href="#me664d23bf2" x="172.817791" y="178.889684" style="stroke: #000000; stroke-width: 0.8"/>
      </g>
     </g>
     <g id="text_16">
      <!-- $-1$ -->
      <g transform="translate(141.182209 185.808182) scale(0.2 -0.2)">
       <use xlink:href="#CMSY10-0" transform="scale(0.996264)"/>
       <use xlink:href="#CMR17-31" transform="translate(77.487468 0) scale(0.996264)"/>
      </g>
     </g>
    </g>
    <g id="ytick_6">
     <g id="line2d_31">
      <path d="M 19.517791 149.374526 
L 326.117791 149.374526 
" clip-path="url(#p9488a5d147)" style="fill: none; stroke-dasharray: 2.96,1.28; stroke-dashoffset: 0; stroke: #b0b0b0; stroke-opacity: 0.6; stroke-width: 0.8"/>
     </g>
     <g id="line2d_32">
      <g>
       <use xlink:href="#me664d23bf2" x="172.817791" y="149.374526" style="stroke: #000000; stroke-width: 0.8"/>
      </g>
     </g>
     <g id="text_17">
      <!-- $1$ -->
      <g transform="translate(156.679696 156.293024) scale(0.2 -0.2)">
       <use xlink:href="#CMR17-31" transform="scale(0.996264)"/>
      </g>
     </g>
    </g>
    <g id="ytick_7">
     <g id="line2d_33">
      <path d="M 19.517791 134.616947 
L 326.117791 134.616947 
" clip-path="url(#p9488a5d147)" style="fill: none; stroke-dasharray: 2.96,1.28; stroke-dashoffset: 0; stroke: #b0b0b0; stroke-opacity: 0.6; stroke-width: 0.8"/>
     </g>
     <g id="line2d_34">
      <g>
       <use xlink:href="#me664d23bf2" x="172.817791" y="134.616947" style="stroke: #000000; stroke-width: 0.8"/>
      </g>
     </g>
     <g id="text_18">
      <!-- $2$ -->
      <g transform="translate(156.679696 141.535445) scale(0.2 -0.2)">
       <use xlink:href="#CMR17-32" transform="scale(0.996264)"/>
      </g>
     </g>
    </g>
    <g id="ytick_8">
     <g id="line2d_35">
      <path d="M 19.517791 119.859368 
L 326.117791 119.859368 
" clip-path="url(#p9488a5d147)" style="fill: none; stroke-dasharray: 2.96,1.28; stroke-dashoffset: 0; stroke: #b0b0b0; stroke-opacity: 0.6; stroke-width: 0.8"/>
     </g>
     <g id="line2d_36">
      <g>
       <use xlink:href="#me664d23bf2" x="172.817791" y="119.859368" style="stroke: #000000; stroke-width: 0.8"/>
      </g>
     </g>
     <g id="text_19">
      <!-- $3$ -->
      <g transform="translate(156.679696 126.777866) scale(0.2 -0.2)">
       <use xlink:href="#CMR17-33" transform="scale(0.996264)"/>
      </g>
     </g>
    </g>
    <g id="ytick_9">
     <g id="line2d_37">
      <path d="M 19.517791 105.101789 
L 326.117791 105.101789 
" clip-path="url(#p9488a5d147)" style="fill: none; stroke-dasharray: 2.96,1.28; stroke-dashoffset: 0; stroke: #b0b0b0; stroke-opacity: 0.6; stroke-width: 0.8"/>
     </g>
     <g id="line2d_38">
      <g>
       <use xlink:href="#me664d23bf2" x="172.817791" y="105.101789" style="stroke: #000000; stroke-width: 0.8"/>
      </g>
     </g>
     <g id="text_20">
      <!-- $4$ -->
      <g transform="translate(156.679696 112.020287) scale(0.2 -0.2)">
       <use xlink:href="#CMR17-34" transform="scale(0.996264)"/>
      </g>
     </g>
    </g>
    <g id="ytick_10">
     <g id="line2d_39">
      <path d="M 19.517791 90.34421 
L 326.117791 90.34421 
" clip-path="url(#p9488a5d147)" style="fill: none; stroke-dasharray: 2.96,1.28; stroke-dashoffset: 0; stroke: #b0b0b0; stroke-opacity: 0.6; stroke-width: 0.8"/>
     </g>
     <g id="line2d_40">
      <g>
       <use xlink:href="#me664d23bf2" x="172.817791" y="90.34421" style="stroke: #000000; stroke-width: 0.8"/>
      </g>
     </g>
     <g id="text_21">
      <!-- $5$ -->
      <g transform="translate(156.679696 97.262709) scale(0.2 -0.2)">
       <use xlink:href="#CMR17-35" transform="scale(0.996264)"/>
      </g>
     </g>
    </g>
    <g id="text_22">
     <!-- $y$ -->
     <g transform="translate(127.669374 12.680682) scale(0.2 -0.2)">
      <defs>
       <path id="CMMI12-79" d="M 1683 -700 
C 1510 -939 1261 -1152 947 -1152 
C 870 -1152 563 -1152 467 -889 
C 486 -895 518 -895 531 -895 
C 723 -895 851 -729 851 -582 
C 851 -435 730 -384 634 -384 
C 531 -384 307 -458 307 -759 
C 307 -1071 582 -1286 947 -1286 
C 1587 -1286 2234 -700 2413 6 
L 3040 2485 
C 3046 2517 3059 2556 3059 2594 
C 3059 2689 2982 2753 2886 2753 
C 2829 2753 2694 2727 2643 2535 
L 2170 658 
C 2138 543 2138 530 2086 460 
C 1958 281 1747 64 1440 64 
C 1082 64 1050 415 1050 588 
C 1050 952 1222 1443 1395 1903 
C 1466 2088 1504 2178 1504 2305 
C 1504 2574 1312 2816 998 2816 
C 410 2816 173 1890 173 1839 
C 173 1814 198 1782 243 1782 
C 301 1782 307 1807 333 1897 
C 486 2433 730 2689 979 2689 
C 1037 2689 1146 2689 1146 2478 
C 1146 2312 1075 2127 979 1884 
C 666 1047 666 837 666 683 
C 666 77 1101 -64 1421 -64 
C 1606 -64 1837 -6 2061 230 
L 2067 224 
C 1971 -147 1907 -392 1683 -700 
z
" transform="scale(0.015625)"/>
      </defs>
      <use xlink:href="#CMMI12-79" transform="scale(0.996264)"/>
     </g>
    </g>
   </g>
   <g id="line2d_41">
    <defs>
     <path id="m7ae589d21f" d="M 3 0 
L -3 -3 
L -3 3 
z
" style="stroke: #000000; stroke-linejoin: miter"/>
    </defs>
    <g>
     <use xlink:href="#m7ae589d21f" x="326.117791" y="164.132105" style="stroke: #000000; stroke-linejoin: miter"/>
    </g>
   </g>
   <g id="line2d_42">
    <defs>
     <path id="m54f00b3a78" d="M 0 -3 
L -3 3 
L 3 3 
z
" style="stroke: #000000; stroke-linejoin: miter"/>
    </defs>
    <g>
     <use xlink:href="#m54f00b3a78" x="172.817791" y="16.556315" style="stroke: #000000; stroke-linejoin: miter"/>
    </g>
   </g>
   <g id="line2d_43">
    <path d="M 53.323826 -1 
L 58.525997 18.092992 
L 63.69215 36.212868 
L 68.708561 53.005628 
L 73.650099 68.775243 
L 78.441894 83.334789 
L 83.158817 96.962713 
L 87.725997 109.492336 
L 92.218304 121.177639 
L 96.63574 132.050304 
L 100.903432 141.972514 
L 105.096253 151.163756 
L 109.13933 159.503989 
L 113.107535 167.190697 
L 117.000868 174.251865 
L 120.744458 180.592625 
L 124.413176 186.379657 
L 128.007022 191.638835 
L 131.525997 196.395505 
L 134.895227 200.585423 
L 138.189586 204.337603 
L 141.409073 207.675281 
L 144.553689 210.62116 
L 147.623432 213.197418 
L 150.618304 215.425704 
L 153.538304 217.32714 
L 156.383432 218.922319 
L 159.228561 220.263339 
L 161.998817 221.324855 
L 164.769073 222.145413 
L 167.464458 222.712517 
L 170.159843 223.051513 
L 172.855227 223.162399 
L 175.550612 223.045176 
L 178.245997 222.699845 
L 180.941381 222.126404 
L 183.636766 221.324855 
L 186.407022 220.263339 
L 189.177279 218.960865 
L 192.022407 217.372375 
L 194.867535 215.529726 
L 197.787535 213.374308 
L 200.782407 210.885527 
L 203.85215 208.042261 
L 206.996766 204.822863 
L 210.216253 201.205154 
L 213.510612 197.166429 
L 216.879843 192.683454 
L 220.323945 187.73247 
L 223.917791 182.169146 
L 227.586509 176.071632 
L 231.330099 169.414055 
L 235.148561 162.170012 
L 239.116766 154.156805 
L 243.159843 145.483913 
L 247.277791 136.122822 
L 251.545484 125.859504 
L 255.888048 114.829135 
L 260.305484 103.001088 
L 264.872663 90.127894 
L 269.514715 76.372538 
L 274.306509 61.463788 
L 279.173176 45.584168 
L 284.114715 28.699354 
L 289.205997 10.500978 
L 292.311757 -1 
L 292.311757 -1 
" clip-path="url(#p9488a5d147)" style="fill: none; stroke: #0072b2; stroke-width: 2.8; stroke-linecap: square"/>
   </g>
   <g id="line2d_44">
    <path d="M 234.137791 237.92 
L 234.137791 16.556315 
" clip-path="url(#p9488a5d147)" style="fill: none; stroke-dasharray: 10.36,4.48; stroke-dashoffset: 0; stroke: #dc5e8b; stroke-width: 2.8"/>
   </g>
   <g id="line2d_45">
    <path d="M 111.497791 237.92 
L 111.497791 16.556315 
" clip-path="url(#p9488a5d147)" style="fill: none; stroke-dasharray: 10.36,4.48; stroke-dashoffset: 0; stroke: #dc5e8b; stroke-width: 2.8"/>
   </g>
   <g id="line2d_46">
    <path d="M 19.517791 223.162421 
L 326.117791 223.162421 
" clip-path="url(#p9488a5d147)" style="fill: none; stroke-dasharray: 10.36,4.48; stroke-dashoffset: 0; stroke: #dc5e8b; stroke-width: 2.8"/>
   </g>
   <g id="patch_3">
    <path d="M 172.817791 237.92 
L 172.817791 16.556315 
" style="fill: none; stroke: #000000; stroke-width: 0.8; stroke-linejoin: miter; stroke-linecap: square"/>
   </g>
   <g id="patch_4">
    <path d="M 326.117791 237.92 
L 326.117791 16.556315 
" style="fill: none"/>
   </g>
   <g id="patch_5">
    <path d="M 19.517791 164.132105 
L 326.117791 164.132105 
" style="fill: none; stroke: #000000; stroke-width: 0.8; stroke-linejoin: miter; stroke-linecap: square"/>
   </g>
   <g id="patch_6">
    <path d="M 19.517791 16.556315 
L 326.117791 16.556315 
" style="fill: none"/>
   </g>
   <g id="legend_1">
    <g id="patch_7">
     <path d="M 83.687699 63.740151 
L 261.947883 63.740151 
Q 265.947883 63.740151 265.947883 59.740151 
L 265.947883 30.556315 
Q 265.947883 26.556315 261.947883 26.556315 
L 83.687699 26.556315 
Q 79.687699 26.556315 79.687699 30.556315 
L 79.687699 59.740151 
Q 79.687699 63.740151 83.687699 63.740151 
z
" style="fill: #ffffff; opacity: 0.8; stroke: #cccccc; stroke-linejoin: miter"/>
    </g>
    <g id="line2d_47">
     <path d="M 87.687699 43.775507 
L 107.687699 43.775507 
L 127.687699 43.775507 
" style="fill: none; stroke: #0072b2; stroke-width: 2.8; stroke-linecap: square"/>
    </g>
    <g id="text_23">
     <!-- $f(x)=x^2-4$ -->
     <g transform="translate(143.687699 50.775507) scale(0.2 -0.2)">
      <defs>
       <path id="CMMI12-66" d="M 2854 2566 
C 2982 2566 3034 2566 3034 2688 
C 3034 2752 2982 2752 2867 2752 
L 2349 2752 
C 2470 3429 2560 3897 2611 4107 
C 2650 4265 2784 4416 2950 4416 
C 3085 4416 3219 4358 3283 4298 
C 3034 4272 2957 4082 2957 3969 
C 2957 3837 3053 3759 3174 3759 
C 3302 3759 3494 3870 3494 4119 
C 3494 4393 3226 4544 2944 4544 
C 2669 4544 2400 4334 2272 4078 
C 2157 3848 2093 3611 1946 2752 
L 1517 2752 
C 1395 2752 1331 2752 1331 2637 
C 1331 2566 1370 2566 1498 2566 
L 1907 2566 
C 1792 1976 1530 542 1382 -137 
C 1274 -689 1178 -1152 858 -1152 
C 838 -1152 653 -1152 538 -1031 
C 864 -1005 864 -726 864 -720 
C 864 -593 768 -517 646 -517 
C 518 -517 326 -625 326 -867 
C 326 -1140 608 -1280 858 -1280 
C 1510 -1280 1779 -118 1850 199 
C 1965 688 2278 2376 2310 2566 
L 2854 2566 
z
" transform="scale(0.015625)"/>
       <path id="CMR17-28" d="M 1958 -1561 
C 1958 -1555 1958 -1542 1939 -1523 
C 1645 -1224 858 -407 858 1581 
C 858 3569 1632 4379 1946 4697 
C 1946 4704 1958 4717 1958 4736 
C 1958 4755 1939 4768 1914 4768 
C 1843 4768 1299 4296 986 3594 
C 666 2887 576 2199 576 1588 
C 576 1128 621 351 1005 -471 
C 1312 -1135 1837 -1600 1914 -1600 
C 1946 -1600 1958 -1587 1958 -1561 
z
" transform="scale(0.015625)"/>
       <path id="CMR17-29" d="M 1683 1581 
C 1683 2040 1638 2817 1254 3639 
C 947 4303 422 4768 346 4768 
C 326 4768 301 4761 301 4729 
C 301 4717 307 4710 314 4697 
C 621 4378 1402 3568 1402 1584 
C 1402 -407 627 -1217 314 -1537 
C 307 -1549 301 -1556 301 -1568 
C 301 -1600 326 -1600 346 -1600 
C 416 -1600 960 -1128 1274 -426 
C 1594 281 1683 969 1683 1581 
z
" transform="scale(0.015625)"/>
       <path id="CMR17-3d" d="M 4115 2017 
C 4211 2017 4307 2017 4307 2125 
C 4307 2240 4198 2240 4090 2240 
L 512 2240 
C 403 2240 294 2240 294 2125 
C 294 2017 390 2017 486 2017 
L 4115 2017 
z
M 4090 896 
C 4198 896 4307 896 4307 1011 
C 4307 1119 4211 1119 4115 1119 
L 486 1119 
C 390 1119 294 1119 294 1011 
C 294 896 403 896 512 896 
L 4090 896 
z
" transform="scale(0.015625)"/>
      </defs>
      <use xlink:href="#CMMI12-66" transform="scale(0.996264)"/>
      <use xlink:href="#CMR17-28" transform="translate(58.720305 0) scale(0.996264)"/>
      <use xlink:href="#CMMI12-78" transform="translate(94.001073 0) scale(0.996264)"/>
      <use xlink:href="#CMR17-29" transform="translate(149.435132 0) scale(0.996264)"/>
      <use xlink:href="#CMR17-3d" transform="translate(212.389909 0) scale(0.996264)"/>
      <use xlink:href="#CMMI12-78" transform="translate(311.778706 0) scale(0.996264)"/>
      <use xlink:href="#CMR17-32" transform="translate(367.212765 36.153639) scale(0.697382)"/>
      <use xlink:href="#CMSY10-0" transform="translate(421.833286 0) scale(0.996264)"/>
      <use xlink:href="#CMR17-34" transform="translate(521.459961 0) scale(0.996264)"/>
     </g>
    </g>
   </g>
  </g>
  <g id="axes_2">
   <g id="patch_8">
    <path d="M 339.917791 237.92 
L 646.517791 237.92 
L 646.517791 16.556315 
L 339.917791 16.556315 
L 339.917791 237.92 
z
" style="fill: none"/>
   </g>
   <g id="matplotlib.axis_3">
    <g id="xtick_11">
     <g id="line2d_48">
      <path d="M 339.917791 237.92 
L 339.917791 16.556315 
" clip-path="url(#p16c22613e1)" style="fill: none; stroke-dasharray: 2.96,1.28; stroke-dashoffset: 0; stroke: #b0b0b0; stroke-opacity: 0.6; stroke-width: 0.8"/>
     </g>
     <g id="line2d_49">
      <g>
       <use xlink:href="#ma89307d3c2" x="339.917791" y="127.238158" style="stroke: #000000; stroke-width: 0.8"/>
      </g>
     </g>
     <g id="text_24">
      <!-- $-5$ -->
      <g transform="translate(327.6 148.075154) scale(0.2 -0.2)">
       <use xlink:href="#CMSY10-0" transform="scale(0.996264)"/>
       <use xlink:href="#CMR17-35" transform="translate(77.487468 0) scale(0.996264)"/>
      </g>
     </g>
    </g>
    <g id="xtick_12">
     <g id="line2d_50">
      <path d="M 370.577791 237.92 
L 370.577791 16.556315 
" clip-path="url(#p16c22613e1)" style="fill: none; stroke-dasharray: 2.96,1.28; stroke-dashoffset: 0; stroke: #b0b0b0; stroke-opacity: 0.6; stroke-width: 0.8"/>
     </g>
     <g id="line2d_51">
      <g>
       <use xlink:href="#ma89307d3c2" x="370.577791" y="127.238158" style="stroke: #000000; stroke-width: 0.8"/>
      </g>
     </g>
     <g id="text_25">
      <!-- $-4$ -->
      <g transform="translate(358.26 148.075154) scale(0.2 -0.2)">
       <use xlink:href="#CMSY10-0" transform="scale(0.996264)"/>
       <use xlink:href="#CMR17-34" transform="translate(77.487468 0) scale(0.996264)"/>
      </g>
     </g>
    </g>
    <g id="xtick_13">
     <g id="line2d_52">
      <path d="M 401.237791 237.92 
L 401.237791 16.556315 
" clip-path="url(#p16c22613e1)" style="fill: none; stroke-dasharray: 2.96,1.28; stroke-dashoffset: 0; stroke: #b0b0b0; stroke-opacity: 0.6; stroke-width: 0.8"/>
     </g>
     <g id="line2d_53">
      <g>
       <use xlink:href="#ma89307d3c2" x="401.237791" y="127.238158" style="stroke: #000000; stroke-width: 0.8"/>
      </g>
     </g>
     <g id="text_26">
      <!-- $-3$ -->
      <g transform="translate(388.92 148.075154) scale(0.2 -0.2)">
       <use xlink:href="#CMSY10-0" transform="scale(0.996264)"/>
       <use xlink:href="#CMR17-33" transform="translate(77.487468 0) scale(0.996264)"/>
      </g>
     </g>
    </g>
    <g id="xtick_14">
     <g id="line2d_54">
      <path d="M 431.897791 237.92 
L 431.897791 16.556315 
" clip-path="url(#p16c22613e1)" style="fill: none; stroke-dasharray: 2.96,1.28; stroke-dashoffset: 0; stroke: #b0b0b0; stroke-opacity: 0.6; stroke-width: 0.8"/>
     </g>
     <g id="line2d_55">
      <g>
       <use xlink:href="#ma89307d3c2" x="431.897791" y="127.238158" style="stroke: #000000; stroke-width: 0.8"/>
      </g>
     </g>
     <g id="text_27">
      <!-- $-2$ -->
      <g transform="translate(419.58 148.075154) scale(0.2 -0.2)">
       <use xlink:href="#CMSY10-0" transform="scale(0.996264)"/>
       <use xlink:href="#CMR17-32" transform="translate(77.487468 0) scale(0.996264)"/>
      </g>
     </g>
    </g>
    <g id="xtick_15">
     <g id="line2d_56">
      <path d="M 462.557791 237.92 
L 462.557791 16.556315 
" clip-path="url(#p16c22613e1)" style="fill: none; stroke-dasharray: 2.96,1.28; stroke-dashoffset: 0; stroke: #b0b0b0; stroke-opacity: 0.6; stroke-width: 0.8"/>
     </g>
     <g id="line2d_57">
      <g>
       <use xlink:href="#ma89307d3c2" x="462.557791" y="127.238158" style="stroke: #000000; stroke-width: 0.8"/>
      </g>
     </g>
     <g id="text_28">
      <!-- $-1$ -->
      <g transform="translate(450.24 148.075154) scale(0.2 -0.2)">
       <use xlink:href="#CMSY10-0" transform="scale(0.996264)"/>
       <use xlink:href="#CMR17-31" transform="translate(77.487468 0) scale(0.996264)"/>
      </g>
     </g>
    </g>
    <g id="xtick_16">
     <g id="line2d_58">
      <path d="M 523.877791 237.92 
L 523.877791 16.556315 
" clip-path="url(#p16c22613e1)" style="fill: none; stroke-dasharray: 2.96,1.28; stroke-dashoffset: 0; stroke: #b0b0b0; stroke-opacity: 0.6; stroke-width: 0.8"/>
     </g>
     <g id="line2d_59">
      <g>
       <use xlink:href="#ma89307d3c2" x="523.877791" y="127.238158" style="stroke: #000000; stroke-width: 0.8"/>
      </g>
     </g>
     <g id="text_29">
      <!-- $1$ -->
      <g transform="translate(519.308744 148.075154) scale(0.2 -0.2)">
       <use xlink:href="#CMR17-31" transform="scale(0.996264)"/>
      </g>
     </g>
    </g>
    <g id="xtick_17">
     <g id="line2d_60">
      <path d="M 554.537791 237.92 
L 554.537791 16.556315 
" clip-path="url(#p16c22613e1)" style="fill: none; stroke-dasharray: 2.96,1.28; stroke-dashoffset: 0; stroke: #b0b0b0; stroke-opacity: 0.6; stroke-width: 0.8"/>
     </g>
     <g id="line2d_61">
      <g>
       <use xlink:href="#ma89307d3c2" x="554.537791" y="127.238158" style="stroke: #000000; stroke-width: 0.8"/>
      </g>
     </g>
     <g id="text_30">
      <!-- $2$ -->
      <g transform="translate(549.968744 148.075154) scale(0.2 -0.2)">
       <use xlink:href="#CMR17-32" transform="scale(0.996264)"/>
      </g>
     </g>
    </g>
    <g id="xtick_18">
     <g id="line2d_62">
      <path d="M 585.197791 237.92 
L 585.197791 16.556315 
" clip-path="url(#p16c22613e1)" style="fill: none; stroke-dasharray: 2.96,1.28; stroke-dashoffset: 0; stroke: #b0b0b0; stroke-opacity: 0.6; stroke-width: 0.8"/>
     </g>
     <g id="line2d_63">
      <g>
       <use xlink:href="#ma89307d3c2" x="585.197791" y="127.238158" style="stroke: #000000; stroke-width: 0.8"/>
      </g>
     </g>
     <g id="text_31">
      <!-- $3$ -->
      <g transform="translate(580.628744 148.075154) scale(0.2 -0.2)">
       <use xlink:href="#CMR17-33" transform="scale(0.996264)"/>
      </g>
     </g>
    </g>
    <g id="xtick_19">
     <g id="line2d_64">
      <path d="M 615.857791 237.92 
L 615.857791 16.556315 
" clip-path="url(#p16c22613e1)" style="fill: none; stroke-dasharray: 2.96,1.28; stroke-dashoffset: 0; stroke: #b0b0b0; stroke-opacity: 0.6; stroke-width: 0.8"/>
     </g>
     <g id="line2d_65">
      <g>
       <use xlink:href="#ma89307d3c2" x="615.857791" y="127.238158" style="stroke: #000000; stroke-width: 0.8"/>
      </g>
     </g>
     <g id="text_32">
      <!-- $4$ -->
      <g transform="translate(611.288744 148.075154) scale(0.2 -0.2)">
       <use xlink:href="#CMR17-34" transform="scale(0.996264)"/>
      </g>
     </g>
    </g>
    <g id="xtick_20">
     <g id="line2d_66">
      <path d="M 646.517791 237.92 
L 646.517791 16.556315 
" clip-path="url(#p16c22613e1)" style="fill: none; stroke-dasharray: 2.96,1.28; stroke-dashoffset: 0; stroke: #b0b0b0; stroke-opacity: 0.6; stroke-width: 0.8"/>
     </g>
     <g id="line2d_67">
      <g>
       <use xlink:href="#ma89307d3c2" x="646.517791" y="127.238158" style="stroke: #000000; stroke-width: 0.8"/>
      </g>
     </g>
     <g id="text_33">
      <!-- $5$ -->
      <g transform="translate(641.948744 148.075154) scale(0.2 -0.2)">
       <use xlink:href="#CMR17-35" transform="scale(0.996264)"/>
      </g>
     </g>
    </g>
    <g id="text_34">
     <!-- $x$ -->
     <g transform="translate(635.43098 169.787785) scale(0.2 -0.2)">
      <use xlink:href="#CMMI12-78" transform="scale(0.996264)"/>
     </g>
    </g>
   </g>
   <g id="matplotlib.axis_4">
    <g id="ytick_11">
     <g id="line2d_68">
      <path d="M 339.917791 237.92 
L 646.517791 237.92 
" clip-path="url(#p16c22613e1)" style="fill: none; stroke-dasharray: 2.96,1.28; stroke-dashoffset: 0; stroke: #b0b0b0; stroke-opacity: 0.6; stroke-width: 0.8"/>
     </g>
     <g id="line2d_69">
      <g>
       <use xlink:href="#me664d23bf2" x="493.217791" y="237.92" style="stroke: #000000; stroke-width: 0.8"/>
      </g>
     </g>
     <g id="text_35">
      <!-- $-5$ -->
      <g transform="translate(461.582209 244.838498) scale(0.2 -0.2)">
       <use xlink:href="#CMSY10-0" transform="scale(0.996264)"/>
       <use xlink:href="#CMR17-35" transform="translate(77.487468 0) scale(0.996264)"/>
      </g>
     </g>
    </g>
    <g id="ytick_12">
     <g id="line2d_70">
      <path d="M 339.917791 215.783632 
L 646.517791 215.783632 
" clip-path="url(#p16c22613e1)" style="fill: none; stroke-dasharray: 2.96,1.28; stroke-dashoffset: 0; stroke: #b0b0b0; stroke-opacity: 0.6; stroke-width: 0.8"/>
     </g>
     <g id="line2d_71">
      <g>
       <use xlink:href="#me664d23bf2" x="493.217791" y="215.783632" style="stroke: #000000; stroke-width: 0.8"/>
      </g>
     </g>
     <g id="text_36">
      <!-- $-4$ -->
      <g transform="translate(461.582209 222.70213) scale(0.2 -0.2)">
       <use xlink:href="#CMSY10-0" transform="scale(0.996264)"/>
       <use xlink:href="#CMR17-34" transform="translate(77.487468 0) scale(0.996264)"/>
      </g>
     </g>
    </g>
    <g id="ytick_13">
     <g id="line2d_72">
      <path d="M 339.917791 193.647263 
L 646.517791 193.647263 
" clip-path="url(#p16c22613e1)" style="fill: none; stroke-dasharray: 2.96,1.28; stroke-dashoffset: 0; stroke: #b0b0b0; stroke-opacity: 0.6; stroke-width: 0.8"/>
     </g>
     <g id="line2d_73">
      <g>
       <use xlink:href="#me664d23bf2" x="493.217791" y="193.647263" style="stroke: #000000; stroke-width: 0.8"/>
      </g>
     </g>
     <g id="text_37">
      <!-- $-3$ -->
      <g transform="translate(461.582209 200.565761) scale(0.2 -0.2)">
       <use xlink:href="#CMSY10-0" transform="scale(0.996264)"/>
       <use xlink:href="#CMR17-33" transform="translate(77.487468 0) scale(0.996264)"/>
      </g>
     </g>
    </g>
    <g id="ytick_14">
     <g id="line2d_74">
      <path d="M 339.917791 171.510895 
L 646.517791 171.510895 
" clip-path="url(#p16c22613e1)" style="fill: none; stroke-dasharray: 2.96,1.28; stroke-dashoffset: 0; stroke: #b0b0b0; stroke-opacity: 0.6; stroke-width: 0.8"/>
     </g>
     <g id="line2d_75">
      <g>
       <use xlink:href="#me664d23bf2" x="493.217791" y="171.510895" style="stroke: #000000; stroke-width: 0.8"/>
      </g>
     </g>
     <g id="text_38">
      <!-- $-2$ -->
      <g transform="translate(461.582209 178.429393) scale(0.2 -0.2)">
       <use xlink:href="#CMSY10-0" transform="scale(0.996264)"/>
       <use xlink:href="#CMR17-32" transform="translate(77.487468 0) scale(0.996264)"/>
      </g>
     </g>
    </g>
    <g id="ytick_15">
     <g id="line2d_76">
      <path d="M 339.917791 149.374526 
L 646.517791 149.374526 
" clip-path="url(#p16c22613e1)" style="fill: none; stroke-dasharray: 2.96,1.28; stroke-dashoffset: 0; stroke: #b0b0b0; stroke-opacity: 0.6; stroke-width: 0.8"/>
     </g>
     <g id="line2d_77">
      <g>
       <use xlink:href="#me664d23bf2" x="493.217791" y="149.374526" style="stroke: #000000; stroke-width: 0.8"/>
      </g>
     </g>
     <g id="text_39">
      <!-- $-1$ -->
      <g transform="translate(461.582209 156.293024) scale(0.2 -0.2)">
       <use xlink:href="#CMSY10-0" transform="scale(0.996264)"/>
       <use xlink:href="#CMR17-31" transform="translate(77.487468 0) scale(0.996264)"/>
      </g>
     </g>
    </g>
    <g id="ytick_16">
     <g id="line2d_78">
      <path d="M 339.917791 105.101789 
L 646.517791 105.101789 
" clip-path="url(#p16c22613e1)" style="fill: none; stroke-dasharray: 2.96,1.28; stroke-dashoffset: 0; stroke: #b0b0b0; stroke-opacity: 0.6; stroke-width: 0.8"/>
     </g>
     <g id="line2d_79">
      <g>
       <use xlink:href="#me664d23bf2" x="493.217791" y="105.101789" style="stroke: #000000; stroke-width: 0.8"/>
      </g>
     </g>
     <g id="text_40">
      <!-- $1$ -->
      <g transform="translate(477.079696 112.020287) scale(0.2 -0.2)">
       <use xlink:href="#CMR17-31" transform="scale(0.996264)"/>
      </g>
     </g>
    </g>
    <g id="ytick_17">
     <g id="line2d_80">
      <path d="M 339.917791 82.965421 
L 646.517791 82.965421 
" clip-path="url(#p16c22613e1)" style="fill: none; stroke-dasharray: 2.96,1.28; stroke-dashoffset: 0; stroke: #b0b0b0; stroke-opacity: 0.6; stroke-width: 0.8"/>
     </g>
     <g id="line2d_81">
      <g>
       <use xlink:href="#me664d23bf2" x="493.217791" y="82.965421" style="stroke: #000000; stroke-width: 0.8"/>
      </g>
     </g>
     <g id="text_41">
      <!-- $2$ -->
      <g transform="translate(477.079696 89.883919) scale(0.2 -0.2)">
       <use xlink:href="#CMR17-32" transform="scale(0.996264)"/>
      </g>
     </g>
    </g>
    <g id="ytick_18">
     <g id="line2d_82">
      <path d="M 339.917791 60.829052 
L 646.517791 60.829052 
" clip-path="url(#p16c22613e1)" style="fill: none; stroke-dasharray: 2.96,1.28; stroke-dashoffset: 0; stroke: #b0b0b0; stroke-opacity: 0.6; stroke-width: 0.8"/>
     </g>
     <g id="line2d_83">
      <g>
       <use xlink:href="#me664d23bf2" x="493.217791" y="60.829052" style="stroke: #000000; stroke-width: 0.8"/>
      </g>
     </g>
     <g id="text_42">
      <!-- $3$ -->
      <g transform="translate(477.079696 67.747551) scale(0.2 -0.2)">
       <use xlink:href="#CMR17-33" transform="scale(0.996264)"/>
      </g>
     </g>
    </g>
    <g id="ytick_19">
     <g id="line2d_84">
      <path d="M 339.917791 38.692684 
L 646.517791 38.692684 
" clip-path="url(#p16c22613e1)" style="fill: none; stroke-dasharray: 2.96,1.28; stroke-dashoffset: 0; stroke: #b0b0b0; stroke-opacity: 0.6; stroke-width: 0.8"/>
     </g>
     <g id="line2d_85">
      <g>
       <use xlink:href="#me664d23bf2" x="493.217791" y="38.692684" style="stroke: #000000; stroke-width: 0.8"/>
      </g>
     </g>
     <g id="text_43">
      <!-- $4$ -->
      <g transform="translate(477.079696 45.611182) scale(0.2 -0.2)">
       <use xlink:href="#CMR17-34" transform="scale(0.996264)"/>
      </g>
     </g>
    </g>
    <g id="ytick_20">
     <g id="line2d_86">
      <path d="M 339.917791 16.556315 
L 646.517791 16.556315 
" clip-path="url(#p16c22613e1)" style="fill: none; stroke-dasharray: 2.96,1.28; stroke-dashoffset: 0; stroke: #b0b0b0; stroke-opacity: 0.6; stroke-width: 0.8"/>
     </g>
     <g id="line2d_87">
      <g>
       <use xlink:href="#me664d23bf2" x="493.217791" y="16.556315" style="stroke: #000000; stroke-width: 0.8"/>
      </g>
     </g>
     <g id="text_44">
      <!-- $5$ -->
      <g transform="translate(477.079696 23.474814) scale(0.2 -0.2)">
       <use xlink:href="#CMR17-35" transform="scale(0.996264)"/>
      </g>
     </g>
    </g>
    <g id="text_45">
     <!-- $y$ -->
     <g transform="translate(448.069374 12.680682) scale(0.2 -0.2)">
      <use xlink:href="#CMMI12-79" transform="scale(0.996264)"/>
     </g>
    </g>
   </g>
   <g id="line2d_88">
    <g>
     <use xlink:href="#m7ae589d21f" x="646.517791" y="127.238158" style="stroke: #000000; stroke-linejoin: miter"/>
    </g>
   </g>
   <g id="line2d_89">
    <g>
     <use xlink:href="#m54f00b3a78" x="493.217791" y="16.556315" style="stroke: #000000; stroke-linejoin: miter"/>
    </g>
   </g>
   <g id="line2d_90">
    <path d="M 339.917791 130.927552 
L 369.192663 131.625787 
L 391.953689 132.38279 
L 409.997791 133.197949 
L 424.52292 134.069237 
L 436.427535 134.999153 
L 446.310612 135.988006 
L 454.621381 137.037988 
L 461.65933 138.146512 
L 467.649073 139.308521 
L 472.815227 140.529716 
L 477.307535 141.81186 
L 481.27574 143.16934 
L 484.794715 144.603757 
L 487.93933 146.123247 
L 490.784458 147.746852 
L 493.330099 149.45591 
L 495.651125 151.282834 
L 497.747535 153.211919 
L 499.694202 155.302687 
L 501.491125 157.555358 
L 503.213176 160.081791 
L 504.785484 162.786561 
L 506.28292 165.811957 
L 507.705484 169.205023 
L 509.053176 173.020192 
L 510.325997 177.320163 
L 511.523945 182.176599 
L 512.647022 187.670444 
L 513.695227 193.891414 
L 514.743432 201.540149 
L 515.716766 210.401854 
L 516.615227 220.690146 
L 517.438817 232.643308 
L 518.262407 248.10273 
L 518.643876 256.914132 
M 529.170524 -1 
L 529.942407 15.326517 
L 530.840868 29.766729 
L 531.814202 41.720772 
L 532.787535 51.063007 
L 533.83574 59.081444 
L 534.958817 65.989219 
L 536.156766 71.964725 
L 537.429586 77.156153 
L 538.777279 81.686183 
L 540.124971 85.464688 
L 541.547535 88.827806 
L 543.119843 91.966395 
L 544.767022 94.747681 
L 546.489073 97.222122 
L 548.360868 99.516926 
L 550.307535 101.558716 
L 552.478817 103.508202 
L 554.799843 105.289385 
L 557.345484 106.958867 
L 560.11574 108.509143 
L 563.185484 109.97179 
L 566.629586 111.362776 
L 570.52292 112.687848 
L 574.865484 113.927081 
L 579.807022 115.10316 
L 585.497279 116.223768 
L 592.085997 117.287726 
L 599.72292 118.289645 
L 608.707535 119.237414 
L 619.33933 120.128477 
L 632.067535 120.96491 
L 646.517791 121.704065 
L 646.517791 121.704065 
" clip-path="url(#p16c22613e1)" style="fill: none; stroke: #0072b2; stroke-width: 2.8; stroke-linecap: square"/>
   </g>
   <g id="patch_9">
    <path d="M 493.217791 237.92 
L 493.217791 16.556315 
" style="fill: none; stroke: #000000; stroke-width: 0.8; stroke-linejoin: miter; stroke-linecap: square"/>
   </g>
   <g id="patch_10">
    <path d="M 646.517791 237.92 
L 646.517791 16.556315 
" style="fill: none"/>
   </g>
   <g id="patch_11">
    <path d="M 339.917791 127.238158 
L 646.517791 127.238158 
" style="fill: none; stroke: #000000; stroke-width: 0.8; stroke-linejoin: miter; stroke-linecap: square"/>
   </g>
   <g id="patch_12">
    <path d="M 339.917791 16.556315 
L 646.517791 16.556315 
" style="fill: none"/>
   </g>
   <g id="legend_2">
    <g id="patch_13">
     <path d="M 353.917791 66.261032 
L 505.219317 66.261032 
Q 509.219317 66.261032 509.219317 62.261032 
L 509.219317 30.556315 
Q 509.219317 26.556315 505.219317 26.556315 
L 353.917791 26.556315 
Q 349.917791 26.556315 349.917791 30.556315 
L 349.917791 62.261032 
Q 349.917791 66.261032 353.917791 66.261032 
z
" style="fill: #ffffff; opacity: 0.8; stroke: #cccccc; stroke-linejoin: miter"/>
    </g>
    <g id="line2d_91">
     <path d="M 357.917791 44.389994 
L 377.917791 44.389994 
L 397.917791 44.389994 
" style="fill: none; stroke: #0072b2; stroke-width: 2.8; stroke-linecap: square"/>
    </g>
    <g id="text_46">
     <!-- $g(x)=\frac{1}{x-1}$ -->
     <g transform="translate(413.917791 51.389994) scale(0.2 -0.2)">
      <defs>
       <path id="CMMI12-67" d="M 2163 811 
C 2138 709 2125 683 2042 588 
C 1779 249 1510 128 1312 128 
C 1101 128 902 294 902 734 
C 902 1073 1094 1788 1235 2076 
C 1421 2433 1709 2689 1978 2689 
C 2400 2689 2483 2165 2483 2127 
L 2464 2037 
L 2163 811 
z
M 2560 2395 
C 2477 2580 2298 2816 1978 2816 
C 1280 2816 486 1941 486 990 
C 486 326 890 0 1299 0 
C 1638 0 1939 268 2054 396 
L 1914 -171 
C 1824 -516 1786 -674 1555 -894 
C 1293 -1152 1050 -1152 909 -1152 
C 717 -1152 557 -1139 397 -1089 
C 602 -1033 653 -858 653 -789 
C 653 -689 576 -588 435 -588 
C 282 -588 115 -714 115 -922 
C 115 -1180 378 -1280 922 -1280 
C 1747 -1280 2176 -753 2259 -410 
L 2970 2435 
C 2989 2511 2989 2524 2989 2536 
C 2989 2625 2918 2695 2822 2695 
C 2669 2695 2579 2567 2560 2395 
z
" transform="scale(0.015625)"/>
      </defs>
      <use xlink:href="#CMMI12-67" transform="scale(0.996264)"/>
      <use xlink:href="#CMR17-28" transform="translate(50.285489 0) scale(0.996264)"/>
      <use xlink:href="#CMMI12-78" transform="translate(85.566257 0) scale(0.996264)"/>
      <use xlink:href="#CMR17-29" transform="translate(141.000317 0) scale(0.996264)"/>
      <use xlink:href="#CMR17-3d" transform="translate(203.955093 0) scale(0.996264)"/>
      <use xlink:href="#CMR17-31" transform="translate(351.061738 39.226102) scale(0.697382)"/>
      <use xlink:href="#CMMI12-78" transform="translate(304.539404 -34.355253) scale(0.697382)"/>
      <use xlink:href="#CMSY10-0" transform="translate(343.343063 -34.355253) scale(0.697382)"/>
      <use xlink:href="#CMR17-31" transform="translate(397.584057 -34.355253) scale(0.697382)"/>
      <path d="M 304.539404 22.914133 
L 429.567239 22.914133 
L 429.567239 26.899083 
L 304.539404 26.899083 
L 304.539404 22.914133 
z
"/>
     </g>
    </g>
   </g>
  </g>
  <g id="axes_3">
   <g id="patch_14">
    <path d="M 660.317791 237.92 
L 966.917791 237.92 
L 966.917791 16.556315 
L 660.317791 16.556315 
L 660.317791 237.92 
z
" style="fill: none"/>
   </g>
   <g id="matplotlib.axis_5">
    <g id="xtick_21">
     <g id="line2d_92">
      <path d="M 667.152823 237.92 
L 667.152823 16.556315 
" clip-path="url(#p7f49f469f3)" style="fill: none; stroke-dasharray: 2.96,1.28; stroke-dashoffset: 0; stroke: #b0b0b0; stroke-opacity: 0.6; stroke-width: 0.8"/>
     </g>
     <g id="line2d_93">
      <g>
       <use xlink:href="#ma89307d3c2" x="667.152823" y="127.238158" style="stroke: #000000; stroke-width: 0.8"/>
      </g>
     </g>
     <g id="text_47">
      <!-- $-3$ -->
      <g transform="translate(654.835032 148.075154) scale(0.2 -0.2)">
       <use xlink:href="#CMSY10-0" transform="scale(0.996264)"/>
       <use xlink:href="#CMR17-33" transform="translate(77.487468 0) scale(0.996264)"/>
      </g>
     </g>
    </g>
    <g id="xtick_22">
     <g id="line2d_94">
      <path d="M 715.974479 237.92 
L 715.974479 16.556315 
" clip-path="url(#p7f49f469f3)" style="fill: none; stroke-dasharray: 2.96,1.28; stroke-dashoffset: 0; stroke: #b0b0b0; stroke-opacity: 0.6; stroke-width: 0.8"/>
     </g>
     <g id="line2d_95">
      <g>
       <use xlink:href="#ma89307d3c2" x="715.974479" y="127.238158" style="stroke: #000000; stroke-width: 0.8"/>
      </g>
     </g>
     <g id="text_48">
      <!-- $-2$ -->
      <g transform="translate(703.656688 148.075154) scale(0.2 -0.2)">
       <use xlink:href="#CMSY10-0" transform="scale(0.996264)"/>
       <use xlink:href="#CMR17-32" transform="translate(77.487468 0) scale(0.996264)"/>
      </g>
     </g>
    </g>
    <g id="xtick_23">
     <g id="line2d_96">
      <path d="M 764.796135 237.92 
L 764.796135 16.556315 
" clip-path="url(#p7f49f469f3)" style="fill: none; stroke-dasharray: 2.96,1.28; stroke-dashoffset: 0; stroke: #b0b0b0; stroke-opacity: 0.6; stroke-width: 0.8"/>
     </g>
     <g id="line2d_97">
      <g>
       <use xlink:href="#ma89307d3c2" x="764.796135" y="127.238158" style="stroke: #000000; stroke-width: 0.8"/>
      </g>
     </g>
     <g id="text_49">
      <!-- $-1$ -->
      <g transform="translate(752.478344 148.075154) scale(0.2 -0.2)">
       <use xlink:href="#CMSY10-0" transform="scale(0.996264)"/>
       <use xlink:href="#CMR17-31" transform="translate(77.487468 0) scale(0.996264)"/>
      </g>
     </g>
    </g>
    <g id="xtick_24">
     <g id="line2d_98">
      <path d="M 862.439447 237.92 
L 862.439447 16.556315 
" clip-path="url(#p7f49f469f3)" style="fill: none; stroke-dasharray: 2.96,1.28; stroke-dashoffset: 0; stroke: #b0b0b0; stroke-opacity: 0.6; stroke-width: 0.8"/>
     </g>
     <g id="line2d_99">
      <g>
       <use xlink:href="#ma89307d3c2" x="862.439447" y="127.238158" style="stroke: #000000; stroke-width: 0.8"/>
      </g>
     </g>
     <g id="text_50">
      <!-- $1$ -->
      <g transform="translate(857.8704 148.075154) scale(0.2 -0.2)">
       <use xlink:href="#CMR17-31" transform="scale(0.996264)"/>
      </g>
     </g>
    </g>
    <g id="xtick_25">
     <g id="line2d_100">
      <path d="M 911.261104 237.92 
L 911.261104 16.556315 
" clip-path="url(#p7f49f469f3)" style="fill: none; stroke-dasharray: 2.96,1.28; stroke-dashoffset: 0; stroke: #b0b0b0; stroke-opacity: 0.6; stroke-width: 0.8"/>
     </g>
     <g id="line2d_101">
      <g>
       <use xlink:href="#ma89307d3c2" x="911.261104" y="127.238158" style="stroke: #000000; stroke-width: 0.8"/>
      </g>
     </g>
     <g id="text_51">
      <!-- $2$ -->
      <g transform="translate(906.692056 148.075154) scale(0.2 -0.2)">
       <use xlink:href="#CMR17-32" transform="scale(0.996264)"/>
      </g>
     </g>
    </g>
    <g id="xtick_26">
     <g id="line2d_102">
      <path d="M 960.08276 237.92 
L 960.08276 16.556315 
" clip-path="url(#p7f49f469f3)" style="fill: none; stroke-dasharray: 2.96,1.28; stroke-dashoffset: 0; stroke: #b0b0b0; stroke-opacity: 0.6; stroke-width: 0.8"/>
     </g>
     <g id="line2d_103">
      <g>
       <use xlink:href="#ma89307d3c2" x="960.08276" y="127.238158" style="stroke: #000000; stroke-width: 0.8"/>
      </g>
     </g>
     <g id="text_52">
      <!-- $3$ -->
      <g transform="translate(955.513712 148.075154) scale(0.2 -0.2)">
       <use xlink:href="#CMR17-33" transform="scale(0.996264)"/>
      </g>
     </g>
    </g>
    <g id="text_53">
     <!-- $x$ -->
     <g transform="translate(955.83098 169.787785) scale(0.2 -0.2)">
      <use xlink:href="#CMMI12-78" transform="scale(0.996264)"/>
     </g>
    </g>
   </g>
   <g id="matplotlib.axis_6">
    <g id="ytick_21">
     <g id="line2d_104">
      <path d="M 660.317791 201.026053 
L 966.917791 201.026053 
" clip-path="url(#p7f49f469f3)" style="fill: none; stroke-dasharray: 2.96,1.28; stroke-dashoffset: 0; stroke: #b0b0b0; stroke-opacity: 0.6; stroke-width: 0.8"/>
     </g>
     <g id="line2d_105">
      <g>
       <use xlink:href="#me664d23bf2" x="813.617791" y="201.026053" style="stroke: #000000; stroke-width: 0.8"/>
      </g>
     </g>
     <g id="text_54">
      <!-- $-1$ -->
      <g transform="translate(781.982209 207.944551) scale(0.2 -0.2)">
       <use xlink:href="#CMSY10-0" transform="scale(0.996264)"/>
       <use xlink:href="#CMR17-31" transform="translate(77.487468 0) scale(0.996264)"/>
      </g>
     </g>
    </g>
    <g id="ytick_22">
     <g id="line2d_106">
      <path d="M 660.317791 53.450263 
L 966.917791 53.450263 
" clip-path="url(#p7f49f469f3)" style="fill: none; stroke-dasharray: 2.96,1.28; stroke-dashoffset: 0; stroke: #b0b0b0; stroke-opacity: 0.6; stroke-width: 0.8"/>
     </g>
     <g id="line2d_107">
      <g>
       <use xlink:href="#me664d23bf2" x="813.617791" y="53.450263" style="stroke: #000000; stroke-width: 0.8"/>
      </g>
     </g>
     <g id="text_55">
      <!-- $1$ -->
      <g transform="translate(797.479696 60.368761) scale(0.2 -0.2)">
       <use xlink:href="#CMR17-31" transform="scale(0.996264)"/>
      </g>
     </g>
    </g>
    <g id="text_56">
     <!-- $y$ -->
     <g transform="translate(768.469374 12.680682) scale(0.2 -0.2)">
      <use xlink:href="#CMMI12-79" transform="scale(0.996264)"/>
     </g>
    </g>
   </g>
   <g id="line2d_108">
    <g>
     <use xlink:href="#m7ae589d21f" x="966.917791" y="127.238158" style="stroke: #000000; stroke-linejoin: miter"/>
    </g>
   </g>
   <g id="line2d_109">
    <g>
     <use xlink:href="#m54f00b3a78" x="813.617791" y="16.556315" style="stroke: #000000; stroke-linejoin: miter"/>
    </g>
   </g>
   <g id="line2d_110">
    <path d="M 660.237912 127.244575 
L 667.629714 105.240592 
L 671.56406 94.222981 
L 674.78307 85.832868 
L 677.644412 78.974301 
L 680.148087 73.513404 
L 682.532539 68.836729 
L 684.678546 65.102614 
L 686.70533 62.016161 
L 688.612892 59.521411 
L 690.401231 57.557692 
L 692.070347 56.061966 
L 693.620241 54.9708 
L 695.050912 54.221978 
L 696.481584 53.723887 
L 697.793032 53.489041 
L 699.104481 53.467004 
L 700.41593 53.65784 
L 701.727378 54.060997 
L 703.158049 54.741574 
L 704.588721 55.671098 
L 706.138615 56.955291 
L 707.807731 58.654845 
L 709.476847 60.674921 
L 711.265187 63.184213 
L 713.172748 66.23918 
L 715.318755 70.120014 
L 717.583984 74.694395 
L 720.087659 80.274588 
L 722.829779 86.950289 
L 725.929567 95.103576 
L 729.625467 105.489535 
L 734.513594 119.949152 
L 745.243628 151.888305 
L 749.058752 162.413309 
L 752.158539 170.344694 
L 754.900659 176.786129 
L 757.404334 182.123894 
L 759.669563 186.45765 
L 761.81557 190.093809 
L 763.842355 193.082628 
L 765.630694 195.343687 
L 767.29981 197.124586 
L 768.968927 198.578873 
L 770.51882 199.630866 
L 771.949492 200.343078 
L 773.380163 200.804253 
L 774.691611 201.0051 
L 776.00306 200.993087 
L 777.314509 200.768249 
L 778.625957 200.331233 
L 780.056629 199.614 
L 781.4873 198.648233 
L 783.037194 197.325391 
L 784.70631 195.5851 
L 786.375427 193.525393 
L 788.163766 190.975074 
L 790.071327 187.878226 
L 792.217334 183.952904 
L 794.482564 179.334952 
L 796.986238 173.711091 
L 799.728358 166.993494 
L 802.828146 158.800953 
L 806.524047 148.38027 
L 811.531396 133.53714 
L 821.665317 103.350719 
L 825.48044 92.775072 
L 828.699451 84.495418 
L 831.441571 78.022524 
L 833.945245 72.652366 
L 836.210475 68.286576 
L 838.356482 64.617937 
L 840.383266 61.596768 
L 842.171605 59.305997 
L 843.840721 57.496523 
L 845.509838 56.012985 
L 847.059732 54.933344 
L 848.490403 54.195293 
L 849.921074 53.708067 
L 851.232523 53.483228 
L 852.543971 53.471215 
L 853.85542 53.672062 
L 855.166869 54.08519 
L 856.59754 54.776564 
L 858.028211 55.716765 
L 859.578105 57.012346 
L 861.247221 58.723906 
L 862.916338 60.755664 
L 864.704677 63.277054 
L 866.612239 66.344374 
L 868.758245 70.238335 
L 871.023475 74.825578 
L 873.52715 80.418669 
L 876.269269 87.106756 
L 879.369057 95.271661 
L 883.064958 105.667923 
L 887.953085 120.13487 
L 898.563896 151.724447 
L 902.37902 162.260455 
L 905.478807 170.203538 
L 908.220927 176.657225 
L 910.724602 182.007598 
L 912.989831 186.353819 
L 915.135838 190.002613 
L 917.162622 193.004014 
L 918.950961 195.276627 
L 920.620078 197.068635 
L 922.289194 198.534293 
L 923.839088 199.597033 
L 925.269759 200.319287 
L 926.700431 200.790586 
L 928.011879 201.000755 
L 929.323328 200.998077 
L 930.634777 200.782558 
L 931.946225 200.354821 
L 933.376896 199.647632 
L 934.807568 198.691794 
L 936.357462 197.379538 
L 938.026578 195.650402 
L 939.695694 193.601544 
L 941.484033 191.062454 
L 943.391595 187.977065 
L 945.537602 184.06391 
L 947.802831 179.457869 
L 950.306506 173.845938 
L 953.048626 167.139777 
L 956.148414 158.957938 
L 959.844314 148.546698 
L 964.851664 133.71026 
L 966.997671 127.23174 
L 966.997671 127.23174 
" clip-path="url(#p7f49f469f3)" style="fill: none; stroke: #0072b2; stroke-width: 2.8; stroke-linecap: square"/>
   </g>
   <g id="patch_15">
    <path d="M 813.617791 237.92 
L 813.617791 16.556315 
" style="fill: none; stroke: #000000; stroke-width: 0.8; stroke-linejoin: miter; stroke-linecap: square"/>
   </g>
   <g id="patch_16">
    <path d="M 966.917791 237.92 
L 966.917791 16.556315 
" style="fill: none"/>
   </g>
   <g id="patch_17">
    <path d="M 660.317791 127.238158 
L 966.917791 127.238158 
" style="fill: none; stroke: #000000; stroke-width: 0.8; stroke-linejoin: miter; stroke-linecap: square"/>
   </g>
   <g id="patch_18">
    <path d="M 660.317791 16.556315 
L 966.917791 16.556315 
" style="fill: none"/>
   </g>
   <g id="legend_3">
    <g id="patch_19">
     <path d="M 770.424565 145.18349 
L 952.917791 145.18349 
Q 956.917791 145.18349 956.917791 141.18349 
L 956.917791 113.292825 
Q 956.917791 109.292825 952.917791 109.292825 
L 770.424565 109.292825 
Q 766.424565 109.292825 766.424565 113.292825 
L 766.424565 141.18349 
Q 766.424565 145.18349 770.424565 145.18349 
z
" style="fill: #ffffff; opacity: 0.8; stroke: #cccccc; stroke-linejoin: miter"/>
    </g>
    <g id="line2d_111">
     <path d="M 774.424565 125.218847 
L 794.424565 125.218847 
L 814.424565 125.218847 
" style="fill: none; stroke: #0072b2; stroke-width: 2.8; stroke-linecap: square"/>
    </g>
    <g id="text_57">
     <!-- $h(x)=\sin(2x)$ -->
     <g transform="translate(830.424565 132.218847) scale(0.2 -0.2)">
      <defs>
       <path id="CMMI12-68" d="M 1798 4257 
C 1805 4283 1818 4321 1818 4352 
C 1818 4416 1754 4416 1741 4416 
C 1734 4416 1421 4388 1389 4380 
C 1280 4373 1184 4358 1069 4358 
C 909 4345 864 4339 864 4224 
C 864 4160 915 4160 1005 4160 
C 1318 4160 1325 4103 1325 4040 
C 1325 4002 1312 3951 1306 3932 
L 378 248 
C 352 152 352 140 352 101 
C 352 -38 461 -64 525 -64 
C 634 -64 717 19 749 89 
L 1037 1245 
C 1069 1386 1107 1520 1139 1660 
C 1210 1929 1210 1935 1331 2120 
C 1453 2305 1741 2689 2234 2689 
C 2490 2689 2579 2497 2579 2242 
C 2579 1884 2330 1188 2189 805 
C 2131 651 2099 568 2099 453 
C 2099 166 2298 -64 2605 -64 
C 3200 -64 3424 875 3424 913 
C 3424 945 3398 971 3360 971 
C 3302 971 3296 952 3264 843 
C 3117 332 2880 64 2624 64 
C 2560 64 2458 64 2458 269 
C 2458 436 2534 640 2560 710 
C 2675 1018 2963 1773 2963 2145 
C 2963 2528 2739 2816 2253 2816 
C 1888 2816 1568 2644 1306 2312 
L 1798 4257 
z
" transform="scale(0.015625)"/>
       <path id="CMR17-73" d="M 1978 2697 
C 1978 2813 1971 2819 1933 2819 
C 1907 2819 1901 2813 1824 2717 
C 1805 2691 1747 2626 1728 2601 
C 1523 2819 1235 2819 1126 2819 
C 416 2819 160 2447 160 2076 
C 160 1498 813 1365 998 1325 
C 1402 1243 1542 1217 1677 1101 
C 1760 1025 1901 884 1901 654 
C 1901 384 1747 38 1158 38 
C 602 38 403 460 288 1021 
C 269 1110 269 1117 218 1117 
C 166 1117 160 1110 160 983 
L 160 63 
C 160 -51 166 -58 205 -58 
C 237 -58 243 -51 275 0 
C 314 57 410 211 448 276 
C 576 103 800 -64 1158 -64 
C 1792 -64 2131 283 2131 784 
C 2131 1112 1958 1285 1875 1362 
C 1683 1561 1459 1606 1190 1657 
C 838 1735 390 1825 390 2217 
C 390 2383 480 2737 1126 2737 
C 1811 2737 1850 2094 1862 1888 
C 1869 1856 1901 1849 1920 1849 
C 1978 1849 1978 1869 1978 1978 
L 1978 2697 
z
" transform="scale(0.015625)"/>
       <path id="CMR17-69" d="M 992 3909 
C 992 4049 877 4170 730 4170 
C 589 4170 467 4056 467 3909 
C 467 3769 582 3648 730 3648 
C 870 3648 992 3763 992 3909 
z
M 243 2706 
L 243 2541 
C 602 2541 653 2502 653 2197 
L 653 427 
C 653 184 627 153 218 153 
L 218 -13 
C 371 0 646 0 806 0 
C 960 0 1222 0 1370 -13 
L 1370 153 
C 992 153 979 191 979 420 
L 979 2776 
L 243 2706 
z
" transform="scale(0.015625)"/>
       <path id="CMR17-6e" d="M 2656 1933 
C 2656 2259 2592 2790 1837 2790 
C 1331 2790 1069 2400 973 2144 
L 966 2144 
L 966 2790 
L 211 2720 
L 211 2554 
C 589 2554 646 2515 646 2208 
L 646 428 
C 646 184 621 153 211 153 
L 211 -13 
C 365 0 646 0 813 0 
C 979 0 1267 0 1421 -13 
L 1421 153 
C 1011 153 986 178 986 428 
L 986 1658 
C 986 2247 1344 2688 1792 2688 
C 2266 2688 2317 2266 2317 1958 
L 2317 428 
C 2317 184 2291 153 1882 153 
L 1882 -13 
C 2035 0 2317 0 2483 0 
C 2650 0 2938 0 3091 -13 
L 3091 153 
C 2682 153 2656 178 2656 428 
L 2656 1933 
z
" transform="scale(0.015625)"/>
      </defs>
      <use xlink:href="#CMMI12-68" transform="scale(0.996264)"/>
      <use xlink:href="#CMR17-28" transform="translate(56.154624 0) scale(0.996264)"/>
      <use xlink:href="#CMMI12-78" transform="translate(91.435392 0) scale(0.996264)"/>
      <use xlink:href="#CMR17-29" transform="translate(146.869451 0) scale(0.996264)"/>
      <use xlink:href="#CMR17-3d" transform="translate(209.824228 0) scale(0.996264)"/>
      <use xlink:href="#CMR17-73" transform="translate(309.213025 0) scale(0.996264)"/>
      <use xlink:href="#CMR17-69" transform="translate(345.014363 0) scale(0.996264)"/>
      <use xlink:href="#CMR17-6e" transform="translate(369.885421 0) scale(0.996264)"/>
      <use xlink:href="#CMR17-28" transform="translate(420.780791 0) scale(0.996264)"/>
      <use xlink:href="#CMR17-32" transform="translate(456.061559 0) scale(0.996264)"/>
      <use xlink:href="#CMMI12-78" transform="translate(501.752036 0) scale(0.996264)"/>
      <use xlink:href="#CMR17-29" transform="translate(557.186095 0) scale(0.996264)"/>
     </g>
    </g>
   </g>
  </g>
 </g>
 <defs>
  <clipPath id="p9488a5d147">
   <rect x="19.517791" y="16.556315" width="306.6" height="221.363685"/>
  </clipPath>
  <clipPath id="p16c22613e1">
   <rect x="339.917791" y="16.556315" width="306.6" height="221.363685"/>
  </clipPath>
  <clipPath id="p7f49f469f3">
   <rect x="660.317791" y="16.556315" width="306.6" height="221.363685"/>
  </clipPath>
 </defs>
</svg>
